<svg xmlns="http://www.w3.org/2000/svg" xmlns:xlink="http://www.w3.org/1999/xlink" width="185" height="186" viewBox="0 0 185 186">
  <defs>
    <clipPath id="clip-path">
      <rect id="Rectángulo_366681" data-name="Rectángulo 366681" width="138.432" height="142.943" fill="none"/>
    </clipPath>
  </defs>
  <g id="Grupo_1033326" data-name="Grupo 1033326" transform="translate(-402 -14586)">
    <g id="Grupo_1026289" data-name="Grupo 1026289" transform="translate(411.519 14595.61)">
      <g id="Elipse_157" data-name="Elipse 157" transform="translate(0.482 0.39)" fill="none" stroke="#fff" stroke-linejoin="round" stroke-width="10">
        <ellipse cx="82.5" cy="83" rx="82.5" ry="83" stroke="none"/>
        <ellipse cx="82.5" cy="83" rx="87.5" ry="88" fill="none"/>
      </g>
    </g>
    <g id="Grupo_1033210" data-name="Grupo 1033210" transform="translate(425.284 14600.5)">
      <g id="Grupo_1033209" data-name="Grupo 1033209" transform="translate(0 0)" clip-path="url(#clip-path)">
        <path id="Trazado_781096" data-name="Trazado 781096" d="M31.436,25.1l2.4-.146a.56.56,0,0,1,.246-.007,7.864,7.864,0,0,0,.948,1.452.615.615,0,0,1-.04.548l-.861,2.25a.51.51,0,0,0,.171.7l2.075,1.258a.507.507,0,0,0,.7-.171l1.6-1.8A.634.634,0,0,1,38.843,29a8.206,8.206,0,0,0,1.694.357.605.605,0,0,1,.362.412l.981,2.2a.511.511,0,0,0,.616.37l2.357-.576a.51.51,0,0,0,.373-.614l-.146-2.4a.6.6,0,0,1-.007-.242,8.028,8.028,0,0,0,1.454-.949.608.608,0,0,1,.544.038l2.252.86a.5.5,0,0,0,.7-.168l1.256-2.076a.5.5,0,0,0-.169-.7l-1.8-1.595a.588.588,0,0,1-.178-.173,7.977,7.977,0,0,0,.355-1.693.614.614,0,0,1,.417-.362l2.2-.983a.509.509,0,0,0,.373-.614l-.578-2.355a.507.507,0,0,0-.614-.372l-2.4.143a.551.551,0,0,1-.244.007,7.937,7.937,0,0,0-.948-1.451.605.605,0,0,1,.038-.546l.861-2.252a.507.507,0,0,0-.169-.7L46.34,11.312a.511.511,0,0,0-.7.173l-1.6,1.8a.6.6,0,0,1-.169.178,8.222,8.222,0,0,0-1.7-.357.6.6,0,0,1-.36-.413l-.981-2.2a.505.505,0,0,0-.612-.37l-2.36.574a.5.5,0,0,0-.372.612l.144,2.408a.6.6,0,0,1,.007.242,8.1,8.1,0,0,0-1.452.949.61.61,0,0,1-.548-.038l-2.249-.863a.5.5,0,0,0-.7.173l-1.261,2.075a.51.51,0,0,0,.173.7l1.8,1.595a.6.6,0,0,1,.176.171,8.111,8.111,0,0,0-.355,1.7.62.62,0,0,1-.415.36l-2.2.978a.509.509,0,0,0-.37.616l.576,2.358a.509.509,0,0,0,.614.373m9.093-7.258a3.49,3.49,0,1,1-2.559,4.219,3.49,3.49,0,0,1,2.559-4.219" transform="translate(19.941 6.669)" fill="#f4a338"/>
        <path id="Trazado_781097" data-name="Trazado 781097" d="M39.323,11.8l1.892-.113a.453.453,0,0,1,.194,0,6.242,6.242,0,0,0,.745,1.143.481.481,0,0,1-.032.43l-.677,1.771a.4.4,0,0,0,.134.548l1.633.994a.4.4,0,0,0,.548-.136l1.258-1.419a.475.475,0,0,1,.134-.141,6.076,6.076,0,0,0,1.334.28.477.477,0,0,1,.28.325l.775,1.733a.4.4,0,0,0,.481.292l1.857-.451a.4.4,0,0,0,.292-.483l-.115-1.9a.463.463,0,0,1,0-.191,6.351,6.351,0,0,0,1.142-.747.478.478,0,0,1,.428.032l1.771.677a.4.4,0,0,0,.549-.134l.991-1.631a.4.4,0,0,0-.133-.548l-1.421-1.258a.49.49,0,0,1-.139-.134,6.339,6.339,0,0,0,.28-1.334.482.482,0,0,1,.327-.284l1.733-.773a.4.4,0,0,0,.292-.481l-.455-1.854a.4.4,0,0,0-.485-.3l-1.89.118a.537.537,0,0,1-.193,0,6.652,6.652,0,0,0-.745-1.145.482.482,0,0,1,.028-.428l.68-1.769a.4.4,0,0,0-.136-.551L51.048.949a.4.4,0,0,0-.549.134L49.242,2.5a.437.437,0,0,1-.134.141,6.3,6.3,0,0,0-1.333-.28.475.475,0,0,1-.284-.325L46.72.307a.4.4,0,0,0-.485-.3L44.38.463a.4.4,0,0,0-.292.485L44.2,2.841a.494.494,0,0,1,0,.191,6.593,6.593,0,0,0-1.142.745.469.469,0,0,1-.432-.028l-1.769-.677a.394.394,0,0,0-.548.133l-.994,1.635a.4.4,0,0,0,.136.548L40.88,6.643a.506.506,0,0,1,.138.134,6.648,6.648,0,0,0-.282,1.334.473.473,0,0,1-.325.282l-1.731.772a.4.4,0,0,0-.292.485l.455,1.854a.4.4,0,0,0,.481.292m7.155-5.708a2.747,2.747,0,1,1-2.013,3.318,2.744,2.744,0,0,1,2.013-3.318" transform="translate(25.314 0.001)" fill="#3dc1b4"/>
        <rect id="Rectángulo_366633" data-name="Rectángulo 366633" width="52.999" height="3.819" transform="translate(85.433 98.159)" fill="#e0e0e0"/>
        <rect id="Rectángulo_366634" data-name="Rectángulo 366634" width="52.999" height="1.91" transform="translate(85.433 100.068)" fill="#fff"/>
        <rect id="Rectángulo_366635" data-name="Rectángulo 366635" width="52.999" height="3.819" transform="translate(85.433 94.342)" fill="#e0e0e0"/>
        <rect id="Rectángulo_366636" data-name="Rectángulo 366636" width="52.999" height="1.91" transform="translate(85.433 96.251)" fill="#fff"/>
        <rect id="Rectángulo_366637" data-name="Rectángulo 366637" width="23.373" height="2.74" transform="translate(27.424 108.648)" fill="#373f51"/>
        <rect id="Rectángulo_366638" data-name="Rectángulo 366638" width="23.378" height="2.74" transform="translate(50.797 108.648)" fill="#242d3d"/>
        <rect id="Rectángulo_366639" data-name="Rectángulo 366639" width="23.373" height="2.74" transform="translate(27.424 108.648)" fill="#373f51"/>
        <rect id="Rectángulo_366640" data-name="Rectángulo 366640" width="23.378" height="2.74" transform="translate(50.797 108.648)" fill="#242d3d"/>
        <rect id="Rectángulo_366641" data-name="Rectángulo 366641" width="16.376" height="15.478" transform="translate(50.8 93.171)" fill="#373f51"/>
        <rect id="Rectángulo_366642" data-name="Rectángulo 366642" width="16.377" height="15.478" transform="translate(34.423 93.171)" fill="#242d3d"/>
        <path id="Trazado_781098" data-name="Trazado 781098" d="M76.836,18.839H30.607V86.517H76.836A4.58,4.58,0,0,0,81.4,81.95V23.406a4.578,4.578,0,0,0-4.567-4.567" transform="translate(20.19 12.428)" fill="#242d3d"/>
        <path id="Trazado_781099" data-name="Trazado 781099" d="M4.567,18.839A4.579,4.579,0,0,0,0,23.406V81.95a4.581,4.581,0,0,0,4.567,4.567H50.8V18.839Z" transform="translate(0 12.428)" fill="#373f51"/>
        <path id="Trazado_781100" data-name="Trazado 781100" d="M4.949,21.768a2.738,2.738,0,0,0-2.738,2.74v49a2.749,2.749,0,0,0,2.738,2.745H49.338V21.768Z" transform="translate(1.458 14.36)" fill="#fff"/>
        <path id="Trazado_781101" data-name="Trazado 781101" d="M74.991,21.768H30.607V76.254H74.991a2.758,2.758,0,0,0,2.747-2.745v-49a2.747,2.747,0,0,0-2.747-2.74" transform="translate(20.19 14.36)" fill="#fff"/>
        <path id="Trazado_781102" data-name="Trazado 781102" d="M14.1,70.243a4,4,0,0,0-4,3.995V92.608a4,4,0,0,0,4,4H44.133V70.243Z" transform="translate(6.664 46.336)" fill="#242d3d"/>
        <path id="Trazado_781103" data-name="Trazado 781103" d="M60.643,70.243H30.607V96.608H60.643a4,4,0,0,0,4-4V74.238a4,4,0,0,0-4-3.995" transform="translate(20.19 46.336)" fill="#373f51"/>
        <path id="Trazado_781104" data-name="Trazado 781104" d="M60.643,71.01H30.607V94.824H60.643A2.722,2.722,0,0,0,63.365,92.1V73.732a2.721,2.721,0,0,0-2.722-2.722" transform="translate(20.19 46.842)" fill="#242d3d"/>
        <path id="Trazado_781105" data-name="Trazado 781105" d="M13.591,71.01a2.721,2.721,0,0,0-2.72,2.722V92.1a2.721,2.721,0,0,0,2.72,2.723H43.626V71.01Z" transform="translate(7.171 46.842)" fill="#373f51"/>
        <rect id="Rectángulo_366643" data-name="Rectángulo 366643" width="4.835" height="4.835" rx="0.182" transform="translate(20.762 120.289)" fill="#f5f5f5"/>
        <path id="Rectángulo_366644" data-name="Rectángulo 366644" d="M.183,0H4.654a.181.181,0,0,1,.181.181V4.654a.181.181,0,0,1-.181.181H.183A.183.183,0,0,1,0,4.652V.183A.183.183,0,0,1,.183,0Z" transform="translate(20.762 127.344)" fill="#f5f5f5"/>
        <path id="Rectángulo_366645" data-name="Rectángulo 366645" d="M.183,0H4.654a.181.181,0,0,1,.181.181V4.654a.181.181,0,0,1-.181.181H.183A.183.183,0,0,1,0,4.652V.183A.183.183,0,0,1,.183,0Z" transform="translate(20.762 134.398)" fill="#f5f5f5"/>
        <path id="Rectángulo_366646" data-name="Rectángulo 366646" d="M.182,0H4.651a.182.182,0,0,1,.182.182V4.653a.182.182,0,0,1-.182.182H.181A.181.181,0,0,1,0,4.654V.182A.182.182,0,0,1,.182,0Z" transform="translate(27.739 120.289)" fill="#f5f5f5"/>
        <path id="Rectángulo_366647" data-name="Rectángulo 366647" d="M.183,0H4.651a.182.182,0,0,1,.182.182V4.654a.181.181,0,0,1-.181.181H.181A.181.181,0,0,1,0,4.654V.183A.183.183,0,0,1,.183,0Z" transform="translate(27.739 127.344)" fill="#f5f5f5"/>
        <path id="Rectángulo_366648" data-name="Rectángulo 366648" d="M.182,0H4.653a.182.182,0,0,1,.182.182V4.654a.181.181,0,0,1-.181.181H.182A.182.182,0,0,1,0,4.653V.182A.182.182,0,0,1,.182,0Z" transform="translate(34.55 120.289)" fill="#f5f5f5"/>
        <path id="Rectángulo_366649" data-name="Rectángulo 366649" d="M.183,0H4.654a.181.181,0,0,1,.181.181V4.654a.181.181,0,0,1-.181.181H.181A.181.181,0,0,1,0,4.654V.183A.183.183,0,0,1,.183,0Z" transform="translate(34.55 127.344)" fill="#f5f5f5"/>
        <path id="Rectángulo_366650" data-name="Rectángulo 366650" d="M.182,0H4.654a.182.182,0,0,1,.182.182V4.653a.182.182,0,0,1-.182.182H.184A.184.184,0,0,1,0,4.651V.182A.182.182,0,0,1,.182,0Z" transform="translate(41.526 120.289)" fill="#f5f5f5"/>
        <path id="Rectángulo_366651" data-name="Rectángulo 366651" d="M.183,0H4.654a.182.182,0,0,1,.182.182V4.654a.181.181,0,0,1-.181.181H.181A.181.181,0,0,1,0,4.654V.183A.183.183,0,0,1,.183,0Z" transform="translate(41.526 127.344)" fill="#f5f5f5"/>
        <path id="Rectángulo_366652" data-name="Rectángulo 366652" d="M.182,0h4.47a.184.184,0,0,1,.184.184V4.653a.182.182,0,0,1-.182.182H.182A.182.182,0,0,1,0,4.653V.182A.182.182,0,0,1,.182,0Z" transform="translate(48.336 120.289)" fill="#f5f5f5"/>
        <path id="Rectángulo_366653" data-name="Rectángulo 366653" d="M.182,0H4.653a.183.183,0,0,1,.183.183v4.47a.182.182,0,0,1-.182.182H.183A.183.183,0,0,1,0,4.652V.182A.182.182,0,0,1,.182,0Z" transform="translate(55.314 120.289)" fill="#f5f5f5"/>
        <path id="Rectángulo_366654" data-name="Rectángulo 366654" d="M.183,0H4.652a.184.184,0,0,1,.184.184V4.651a.184.184,0,0,1-.184.184H.182A.182.182,0,0,1,0,4.653V.183A.183.183,0,0,1,.183,0Z" transform="translate(48.336 127.344)" fill="#f5f5f5"/>
        <path id="Trazado_781106" data-name="Trazado 781106" d="M41.844,80.979H17.014a.3.3,0,0,0-.3.3V85.51a.3.3,0,0,0,.3.3h24.83a.3.3,0,0,0,.3-.3V81.281a.3.3,0,0,0-.3-.3" transform="translate(11.025 53.418)" fill="#f5f5f5"/>
        <path id="Trazado_781107" data-name="Trazado 781107" d="M44.79,72.478h-4.23a.3.3,0,0,0-.3.3v6.751H33.584a.3.3,0,0,0-.3.3v4.229a.3.3,0,0,0,.3.3H44.79a.3.3,0,0,0,.3-.3V72.782a.3.3,0,0,0-.3-.3" transform="translate(21.953 47.81)" fill="#f5f5f5"/>
        <path id="Rectángulo_366655" data-name="Rectángulo 366655" d="M.183,0h4.47a.183.183,0,0,1,.183.183V4.654a.181.181,0,0,1-.181.181H.183A.183.183,0,0,1,0,4.652V.183A.183.183,0,0,1,.183,0Z" transform="translate(55.314 134.398)" fill="#f5f5f5"/>
        <path id="Rectángulo_366656" data-name="Rectángulo 366656" d="M.183,0H4.652a.183.183,0,0,1,.183.183V4.654a.181.181,0,0,1-.181.181H.183A.183.183,0,0,1,0,4.652V.183A.183.183,0,0,1,.183,0Z" transform="translate(62.211 134.398)" fill="#f5f5f5"/>
        <path id="Rectángulo_366657" data-name="Rectángulo 366657" d="M.183,0H4.652a.184.184,0,0,1,.184.184V4.651a.184.184,0,0,1-.184.184H.183A.183.183,0,0,1,0,4.652V.183A.183.183,0,0,1,.183,0Z" transform="translate(69.019 127.344)" fill="#f5f5f5"/>
        <path id="Rectángulo_366658" data-name="Rectángulo 366658" d="M.183,0H4.652a.183.183,0,0,1,.183.183V4.654a.181.181,0,0,1-.181.181H.182A.182.182,0,0,1,0,4.653V.183A.183.183,0,0,1,.183,0Z" transform="translate(75.998 127.344)" fill="#f5f5f5"/>
        <path id="Rectángulo_366659" data-name="Rectángulo 366659" d="M.182,0h4.47a.184.184,0,0,1,.184.184V4.653a.182.182,0,0,1-.182.182H.183A.183.183,0,0,1,0,4.652V.182A.182.182,0,0,1,.182,0Z" transform="translate(69.019 120.289)" fill="#f5f5f5"/>
        <path id="Rectángulo_366660" data-name="Rectángulo 366660" d="M.182,0h4.47a.183.183,0,0,1,.183.183v4.47a.182.182,0,0,1-.182.182H.182A.182.182,0,0,1,0,4.653V.182A.182.182,0,0,1,.182,0Z" transform="translate(75.998 120.289)" fill="#f5f5f5"/>
        <path id="Rectángulo_366661" data-name="Rectángulo 366661" d="M.183,0H4.652a.184.184,0,0,1,.184.184v4.47a.181.181,0,0,1-.181.181H.181A.181.181,0,0,1,0,4.654V.183A.183.183,0,0,1,.183,0Z" transform="translate(69.019 134.398)" fill="#f5f5f5"/>
        <path id="Rectángulo_366662" data-name="Rectángulo 366662" d="M.183,0H4.652a.183.183,0,0,1,.183.183V4.654a.181.181,0,0,1-.181.181H.182A.182.182,0,0,1,0,4.653V.183A.183.183,0,0,1,.183,0Z" transform="translate(75.998 134.398)" fill="#f5f5f5"/>
        <rect id="Rectángulo_366663" data-name="Rectángulo 366663" width="41.169" height="45.318" transform="translate(9.593 40.616)" fill="#fff"/>
        <path id="Trazado_781108" data-name="Trazado 781108" d="M6.76,31.989l1.359-.39L6.76,31.282V30.034l2.753.956v1.248l-2.753,1Z" transform="translate(4.459 19.812)" fill="#f4a338"/>
        <path id="Trazado_781109" data-name="Trazado 781109" d="M6.76,44.524l1.359-.388L6.76,43.82v-1.25l2.753.954v1.246l-2.753,1Z" transform="translate(4.459 28.082)" fill="#f4a338"/>
        <path id="Trazado_781110" data-name="Trazado 781110" d="M6.76,48.7l1.359-.388L6.76,48V46.75l2.753.954v1.246l-2.753,1Z" transform="translate(4.459 30.839)" fill="#f4a338"/>
        <path id="Trazado_781111" data-name="Trazado 781111" d="M9.576,36.167l1.359-.388-1.359-.317v-1.25l2.753.956v1.246l-2.753,1Z" transform="translate(6.317 22.568)" fill="#f4a338"/>
        <path id="Trazado_781112" data-name="Trazado 781112" d="M9.576,40.346l1.359-.388-1.359-.319V38.391l2.753.954V40.6l-2.753,1Z" transform="translate(6.317 25.325)" fill="#f4a338"/>
        <rect id="Rectángulo_366664" data-name="Rectángulo 366664" width="40.065" height="45.318" transform="translate(50.762 40.618)" fill="#e0e0e0"/>
        <rect id="Rectángulo_366665" data-name="Rectángulo 366665" width="55.827" height="3.303" transform="translate(15.891 49.796)" fill="#373f51"/>
        <rect id="Rectángulo_366666" data-name="Rectángulo 366666" width="23.33" height="3.303" transform="translate(20.824 56.731)" fill="#373f51"/>
        <rect id="Rectángulo_366667" data-name="Rectángulo 366667" width="48.327" height="3.304" transform="translate(20.824 63.667)" fill="#373f51"/>
        <rect id="Rectángulo_366668" data-name="Rectángulo 366668" width="54.41" height="3.306" transform="translate(15.891 77.537)" fill="#373f51"/>
        <rect id="Rectángulo_366669" data-name="Rectángulo 366669" width="68.633" height="3.303" transform="translate(15.856 70.601)" fill="#373f51"/>
        <rect id="Rectángulo_366670" data-name="Rectángulo 366670" width="41.169" height="4.969" transform="translate(9.593 40.618)" fill="#fff"/>
        <rect id="Rectángulo_366671" data-name="Rectángulo 366671" width="40.065" height="4.969" transform="translate(50.762 40.618)" fill="#242d3d"/>
        <rect id="Rectángulo_366672" data-name="Rectángulo 366672" width="2.508" height="2.34" transform="translate(86.401 41.932)" fill="#fff"/>
        <rect id="Rectángulo_366673" data-name="Rectángulo 366673" width="2.509" height="2.34" transform="translate(81.143 41.932)" fill="#fff"/>
        <path id="Trazado_781113" data-name="Trazado 781113" d="M81.569,48.692A5.635,5.635,0,1,0,87.2,54.328a5.638,5.638,0,0,0-5.634-5.636m0,9.569A3.933,3.933,0,1,1,85.5,54.328a3.935,3.935,0,0,1-3.935,3.933" transform="translate(50.087 32.12)" fill="#e08d2b"/>
        <rect id="Rectángulo_366674" data-name="Rectángulo 366674" width="6.106" height="15.791" transform="translate(119.443 78.551)" fill="#f4a338"/>
        <rect id="Rectángulo_366675" data-name="Rectángulo 366675" width="6.107" height="15.791" transform="translate(125.548 78.551)" fill="#e08d2b"/>
        <path id="Trazado_781114" data-name="Trazado 781114" d="M60.792,96.251h7.659V70.4H60.792a5.268,5.268,0,0,0-5.268,5.271V90.981a5.268,5.268,0,0,0,5.268,5.269" transform="translate(36.626 46.436)" fill="#242d3d"/>
        <path id="Trazado_781115" data-name="Trazado 781115" d="M70.969,96.251a5.272,5.272,0,0,0,5.271-5.269V75.666A5.272,5.272,0,0,0,70.969,70.4H63.313V96.251Z" transform="translate(41.764 46.436)" fill="#373f51"/>
        <path id="Trazado_781116" data-name="Trazado 781116" d="M70.365,71.01H63.313V94.824h7.052a4.854,4.854,0,0,0,4.856-4.853V75.866a4.856,4.856,0,0,0-4.856-4.856" transform="translate(41.764 46.842)" fill="#242d3d"/>
        <path id="Trazado_781117" data-name="Trazado 781117" d="M60.991,71.01a4.855,4.855,0,0,0-4.853,4.856V89.971a4.854,4.854,0,0,0,4.853,4.853h7.055V71.01Z" transform="translate(37.031 46.842)" fill="#373f51"/>
        <path id="Trazado_781118" data-name="Trazado 781118" d="M65.654,72.9h-.737a5.153,5.153,0,0,0-5.153,5.153v1.787h5.89Z" transform="translate(39.423 48.088)" fill="#e0e0e0"/>
        <path id="Trazado_781119" data-name="Trazado 781119" d="M59.764,77.082v5.45a5.156,5.156,0,0,0,5.153,5.155h.737V77.082Z" transform="translate(39.423 50.847)" fill="#e0e0e0"/>
        <path id="Trazado_781120" data-name="Trazado 781120" d="M69.2,79.841V78.053A5.152,5.152,0,0,0,64.048,72.9h-.735v6.941Z" transform="translate(41.764 48.088)" fill="#e0e0e0"/>
        <path id="Trazado_781121" data-name="Trazado 781121" d="M63.313,77.082V87.687h.735A5.154,5.154,0,0,0,69.2,82.532v-5.45Z" transform="translate(41.764 50.847)" fill="#f5f5f5"/>
        <rect id="Rectángulo_366676" data-name="Rectángulo 366676" width="11.778" height="0.994" transform="translate(99.187 127.658)" fill="#e0e0e0"/>
        <path id="Trazado_781122" data-name="Trazado 781122" d="M59.764,78.053A5.154,5.154,0,0,1,64.917,72.9h.737v6.941h-5.89Z" transform="translate(39.423 48.088)" fill="#f5f5f5"/>
        <path id="Trazado_781123" data-name="Trazado 781123" d="M55.916,9.356a.794.794,0,0,0-.583.961l.226,3.764a.867.867,0,0,1,.01.38A12.687,12.687,0,0,0,53.3,15.945a.959.959,0,0,1-.856-.06l-3.52-1.349a.792.792,0,0,0-1.09.266l-1.97,3.248a.79.79,0,0,0,.266,1.09l2.821,2.5a.942.942,0,0,1,.279.264,12.544,12.544,0,0,0-.558,2.652.951.951,0,0,1-.649.563l-3.444,1.538a.794.794,0,0,0-.583.959l.9,3.689a.8.8,0,0,0,.959.583l3.761-.229A1,1,0,0,1,50,31.65a12.655,12.655,0,0,0,1.484,2.272.951.951,0,0,1-.06.855L50.08,38.3a.792.792,0,0,0,.269,1.09l3.246,1.967a.788.788,0,0,0,1.089-.264l2.5-2.821a.947.947,0,0,1,.267-.277,13.047,13.047,0,0,0,2.65.559.939.939,0,0,1,.563.644L62.2,42.642a.789.789,0,0,0,.958.581l2.031-.5L57.737,8.91Z" transform="translate(29.007 5.878)" fill="#e6b046"/>
        <path id="Trazado_781124" data-name="Trazado 781124" d="M73.3,24.255l-.9-3.693a.791.791,0,0,0-.959-.581l-3.762.227a.9.9,0,0,1-.382.008,12.765,12.765,0,0,0-1.482-2.272.948.948,0,0,1,.058-.853l1.351-3.52a.8.8,0,0,0-.267-1.09L63.7,10.51a.793.793,0,0,0-1.09.266L60.11,13.6a.9.9,0,0,1-.266.28,12.845,12.845,0,0,0-2.652-.561.95.95,0,0,1-.563-.646L55.1,9.229a.794.794,0,0,0-.959-.583l-1.87.455L59.72,42.916l1.656-.407a.787.787,0,0,0,.584-.956l-.227-3.764a.9.9,0,0,1-.008-.382A12.53,12.53,0,0,0,64,35.922a.972.972,0,0,1,.855.06l3.52,1.353a.794.794,0,0,0,1.089-.267l1.973-3.248a.8.8,0,0,0-.266-1.092l-2.821-2.5a.889.889,0,0,1-.279-.266,12.612,12.612,0,0,0,.558-2.65.948.948,0,0,1,.649-.563l3.442-1.538a.791.791,0,0,0,.583-.956" transform="translate(34.477 5.689)" fill="#5573c6"/>
        <path id="Trazado_781125" data-name="Trazado 781125" d="M65.213,23.057a9.945,9.945,0,0,0-11.989-9.716L57.5,32.736a9.933,9.933,0,0,0,7.711-9.679" transform="translate(35.109 8.661)" fill="#f4a338"/>
        <path id="Trazado_781126" data-name="Trazado 781126" d="M48.479,22.973a9.922,9.922,0,0,0,12.152,9.679L56.352,13.257a9.932,9.932,0,0,0-7.873,9.716" transform="translate(31.979 8.746)" fill="#5573c6"/>
        <rect id="Rectángulo_366677" data-name="Rectángulo 366677" width="53.002" height="6.157" transform="translate(78.337 103.645)" fill="#e0e0e0"/>
        <rect id="Rectángulo_366678" data-name="Rectángulo 366678" width="56.041" height="1.587" transform="translate(76.818 109.802)" fill="#f4a338"/>
        <rect id="Rectángulo_366679" data-name="Rectángulo 366679" width="56.041" height="1.666" transform="translate(76.818 101.978)" fill="#f4a338"/>
        <rect id="Rectángulo_366680" data-name="Rectángulo 366680" width="53.002" height="3.079" transform="translate(78.337 106.723)" fill="#fff"/>
      </g>
    </g>
  </g>
</svg>
