<svg id="Grupo_1033208" data-name="Grupo 1033208" xmlns="http://www.w3.org/2000/svg" xmlns:xlink="http://www.w3.org/1999/xlink" width="299.162" height="295.757" viewBox="0 0 299.162 295.757">
  <defs>
    <clipPath id="clip-path">
      <rect id="Rectángulo_366632" data-name="Rectángulo 366632" width="299.162" height="295.757" fill="none"/>
    </clipPath>
  </defs>
  <g id="Grupo_1033207" data-name="Grupo 1033207" clip-path="url(#clip-path)">
    <path id="Trazado_780805" data-name="Trazado 780805" d="M134.641,274.32l-.815,0,0-.8.811,0q1.993,0,3.968-.061l.026.8q-1.988.06-3.994.061m-5.623-.118c-1.6-.07-3.215-.171-4.8-.3l.064-.8c1.573.125,3.18.225,4.771.294Zm14.419-.179-.053-.8c1.573-.105,3.175-.245,4.761-.411l.083.8c-1.6.165-3.207.3-4.792.409m-24.005-.59c-1.58-.185-3.183-.4-4.764-.651l.123-.79c1.572.245,3.166.462,4.734.647ZM153,273.019l-.112-.79c1.56-.222,3.148-.481,4.718-.764l.142.787c-1.58.286-3.177.545-4.748.767m-43.071-1.068c-1.584-.309-3.167-.648-4.7-1.006l.182-.779c1.527.357,3.1.694,4.675,1Zm52.535-.646-.173-.78c1.554-.344,3.118-.718,4.648-1.116l.2.774c-1.54.4-3.113.777-4.676,1.122m-61.9-1.541c-1.541-.422-3.1-.879-4.614-1.357l.24-.763c1.511.475,3.054.929,4.585,1.349Zm71.207-.879-.229-.764c1.544-.464,3.079-.959,4.563-1.468l.261.756c-1.495.513-3.039,1.01-4.595,1.476m-80.383-2.01c-1.5-.534-3.014-1.106-4.5-1.7l.3-.743c1.474.59,2.98,1.159,4.47,1.69Zm89.51-1.114-.286-.745c1.474-.568,2.967-1.175,4.438-1.8l.315.734c-1.479.635-2.982,1.245-4.467,1.816m-98.43-2.446c-1.445-.641-2.908-1.324-4.349-2.027l.352-.719c1.431.7,2.884,1.378,4.321,2.016Zm107.288-1.354-.341-.721c1.439-.683,2.883-1.4,4.286-2.134l.371.71c-1.415.737-2.867,1.46-4.317,2.146M73.851,259.1c-1.407-.756-2.817-1.546-4.187-2.349l.4-.691c1.361.8,2.761,1.583,4.162,2.334ZM198.3,257.506l-.395-.692c1.394-.795,2.777-1.62,4.112-2.449l.422.678c-1.343.836-2.735,1.664-4.139,2.464M65.566,254.245c-1.356-.863-2.7-1.757-4-2.656l.454-.659c1.293.9,2.632,1.781,3.978,2.64Zm140.918-1.813-.446-.663c1.317-.887,2.635-1.811,3.917-2.745l.472.646c-1.29.94-2.617,1.869-3.943,2.763M57.659,248.785c-1.285-.961-2.563-1.952-3.8-2.948l.5-.62c1.225.986,2.494,1.971,3.773,2.929Zm156.605-2.026-.5-.628c1.25-.983,2.494-2,3.7-3.028l.52.608c-1.215,1.033-2.467,2.058-3.724,3.049M50.177,242.753c-1.2-1.047-2.4-2.131-3.568-3.223l.547-.584c1.158,1.086,2.35,2.162,3.546,3.2Zm171.418-2.222-.539-.59c1.162-1.065,2.328-2.173,3.464-3.3l.561.569c-1.145,1.129-2.317,2.243-3.487,3.316M43.161,236.177c-1.121-1.13-2.238-2.3-3.322-3.479l.59-.54c1.076,1.17,2.187,2.334,3.3,3.458Zm185.281-2.4-.584-.547c1.1-1.17,2.179-2.361,3.209-3.541l.6.524c-1.036,1.189-2.122,2.389-3.228,3.564M36.648,229.1c-1.054-1.239-2.082-2.489-3.054-3.719l.627-.5c.967,1.223,1.989,2.467,3.036,3.7Zm198.117-2.566-.622-.5c1-1.237,1.989-2.505,2.937-3.77l.639.481c-.954,1.271-1.949,2.548-2.954,3.791M30.68,221.552c-.948-1.295-1.88-2.619-2.772-3.938l.662-.446c.887,1.309,1.813,2.625,2.755,3.912Zm209.852-2.705-.657-.457c.9-1.3,1.794-2.638,2.648-3.973l.673.432c-.859,1.343-1.755,2.688-2.664,4M25.284,213.575c-.847-1.362-1.679-2.753-2.47-4.134l.694-.4c.787,1.373,1.613,2.755,2.456,4.109Zm220.423-2.819-.687-.406c.811-1.378,1.6-2.777,2.342-4.155l.7.377c-.748,1.388-1.541,2.8-2.358,4.184M20.5,205.217c-.748-1.431-1.474-2.881-2.155-4.31l.721-.344c.678,1.42,1.4,2.86,2.142,4.283Zm229.766-2.911-.718-.353c.694-1.413,1.377-2.865,2.024-4.317l.731.325c-.652,1.461-1.338,2.924-2.037,4.345M16.35,196.52c-.638-1.479-1.252-2.98-1.827-4.464l.745-.288c.572,1.472,1.183,2.966,1.816,4.437Zm237.823-2.975-.742-.3c.593-1.476,1.164-2.978,1.7-4.469l.751.269c-.537,1.5-1.113,3.014-1.709,4.5M12.865,187.53c-.524-1.528-1.025-3.073-1.485-4.592l.766-.232c.457,1.509.953,3.044,1.476,4.564Zm244.558-3.038-.763-.24c.478-1.512.937-3.054,1.357-4.584l.772.213c-.425,1.54-.886,3.09-1.367,4.611M10.072,178.31c-.4-1.541-.783-3.113-1.132-4.675l.78-.174c.345,1.554.724,3.116,1.126,4.646Zm249.909-3.087-.779-.185c.366-1.549.705-3.122,1.01-4.672l.783.153c-.305,1.56-.647,3.143-1.015,4.7m-252-6.3c-.289-1.575-.552-3.172-.78-4.747L8,164.058c.227,1.565.486,3.153.774,4.718Zm253.852-3.135-.79-.125c.249-1.575.47-3.167.657-4.734l.793.094c-.189,1.576-.411,3.18-.66,4.764M6.6,159.4c-.169-1.58-.312-3.191-.422-4.79l.8-.056c.11,1.589.253,3.191.419,4.761Zm256.375-3.166-.8-.066c.129-1.581.232-3.186.3-4.771l.8.035c-.072,1.6-.174,3.21-.305,4.8M5.937,149.809c-.046-1.417-.07-2.851-.07-4.261l0-.55.8,0,0,.547c0,1.4.024,2.828.07,4.235Zm257.476-3.18-.8-.006c0-.358,0-.715,0-1.073,0-1.58-.029-3.188-.088-4.782l.8-.029c.059,1.6.088,3.222.088,4.809q0,.54,0,1.081m-256.637-6.4-.8-.032c.064-1.588.16-3.2.286-4.8l.8.062c-.125,1.591-.221,3.2-.283,4.772M262.266,136c-.115-1.58-.264-3.182-.44-4.76l.795-.088c.177,1.588.326,3.2.443,4.788ZM7.52,130.7l-.795-.091c.182-1.586.4-3.19.641-4.768l.79.122c-.241,1.568-.456,3.162-.636,4.737m253.689-4.2c-.233-1.57-.5-3.158-.793-4.715l.785-.147c.294,1.567.563,3.164.8,4.744ZM8.97,121.251l-.785-.15c.3-1.575.638-3.159,1-4.707l.78.181c-.357,1.538-.689,3.111-.991,4.676M259.445,117.1c-.35-1.544-.737-3.106-1.146-4.641l.772-.206c.412,1.546.8,3.116,1.153,4.67Zm-248.32-5.166-.771-.209c.416-1.535.87-3.089,1.346-4.617l.764.237c-.475,1.522-.926,3.063-1.34,4.59M256.98,107.87c-.468-1.524-.972-3.057-1.495-4.556l.753-.262c.528,1.509,1.034,3.05,1.506,4.584Zm-243-5.055-.755-.267c.536-1.509,1.1-3.025,1.691-4.5l.743.294c-.584,1.469-1.15,2.975-1.68,4.475m239.843-4c-.577-1.469-1.194-2.959-1.834-4.427l.732-.318c.644,1.476,1.265,2.974,1.847,4.454ZM17.5,93.946l-.731-.323c.646-1.464,1.325-2.931,2.019-4.353l.718.35c-.687,1.415-1.364,2.87-2.006,4.326M249.987,90.04c-.683-1.416-1.41-2.854-2.162-4.273l.708-.374c.755,1.429,1.485,2.876,2.173,4.3ZM21.671,85.369l-.707-.374c.745-1.4,1.532-2.807,2.341-4.194l.689.4c-.8,1.377-1.583,2.779-2.323,4.165m223.837-3.791c-.79-1.364-1.621-2.745-2.472-4.1l.676-.425c.857,1.364,1.695,2.751,2.488,4.125ZM26.475,77.126,25.8,76.7c.847-1.337,1.738-2.686,2.648-4.01l.659.452c-.9,1.314-1.789,2.656-2.63,3.984M240.412,73.48c-.889-1.3-1.821-2.612-2.771-3.9l.643-.475c.956,1.3,1.895,2.616,2.788,3.927ZM31.882,69.26l-.641-.478c.942-1.269,1.931-2.547,2.939-3.8l.624.5c-1,1.247-1.986,2.52-2.921,3.781m202.845-3.474c-1-1.249-2.022-2.486-3.05-3.682l.606-.523c1.034,1.2,2.067,2.451,3.07,3.706ZM37.863,61.809l-.6-.524c1.038-1.2,2.118-2.4,3.214-3.575l.585.545c-1.089,1.167-2.163,2.361-3.194,3.554m190.625-3.271c-1.086-1.17-2.2-2.329-3.314-3.444l.564-.566c1.121,1.122,2.245,2.288,3.337,3.466ZM44.383,54.824l-.564-.569c1.14-1.132,2.307-2.251,3.473-3.329l.542.588c-1.158,1.07-2.318,2.182-3.45,3.309m177.351-3.049c-1.158-1.076-2.355-2.149-3.56-3.188l.523-.606c1.212,1.046,2.417,2.126,3.583,3.209ZM51.4,48.335l-.52-.606c1.209-1.036,2.457-2.069,3.711-3.063l.5.625c-1.245.99-2.486,2.014-3.688,3.044m163.093-2.8c-1.229-.985-2.5-1.965-3.784-2.913l.476-.643c1.289.954,2.571,1.941,3.808,2.932ZM58.892,42.388l-.472-.644c1.3-.953,2.617-1.888,3.93-2.78l.449.662c-1.3.886-2.619,1.816-3.907,2.763m147.932-2.534c-1.313-.9-2.654-1.781-3.989-2.622l.427-.678c1.343.847,2.692,1.736,4.013,2.641ZM66.807,37.006l-.425-.676c1.357-.851,2.745-1.683,4.13-2.48l.4.692c-1.375.791-2.755,1.62-4.1,2.464M198.752,34.76c-1.362-.788-2.766-1.568-4.171-2.315l.376-.707c1.413.751,2.825,1.535,4.2,2.331ZM75.1,32.234l-.374-.708c1.418-.747,2.867-1.474,4.305-2.165l.345.721c-1.429.686-2.868,1.409-4.277,2.152m115.221-1.947c-1.428-.689-2.884-1.361-4.329-2l.323-.731c1.452.638,2.918,1.313,4.355,2.01ZM83.738,28.093l-.318-.734c1.476-.64,2.975-1.257,4.459-1.835l.291.747c-1.474.572-2.966,1.186-4.432,1.823M181.6,26.459c-1.479-.585-2.986-1.146-4.478-1.669l.265-.756c1.5.528,3.017,1.094,4.507,1.682Zm-88.93-1.847-.262-.755c1.493-.52,3.036-1.023,4.587-1.5l.233.766c-1.541.47-3.074.969-4.558,1.485m79.914-1.325c-1.524-.472-3.068-.919-4.592-1.33l.208-.771c1.533.412,3.087.863,4.619,1.337Zm-70.76-1.472-.2-.771c1.525-.406,3.1-.79,4.672-1.145l.176.78c-1.565.352-3.127.734-4.643,1.135m61.53-1.012c-1.54-.355-3.113-.684-4.678-.983l.15-.783c1.573.3,3.156.632,4.707.985Zm-52.2-1.081L111,18.935c1.564-.291,3.161-.556,4.745-.79l.117.791c-1.575.23-3.161.494-4.715.785m42.815-.705c-1.549-.233-3.142-.444-4.739-.627l.091-.793c1.607.182,3.209.395,4.767.63ZM120.6,18.329l-.088-.793c1.581-.174,3.193-.32,4.79-.433l.058.8c-1.589.114-3.19.257-4.76.43m23.862-.39c-1.589-.122-3.194-.213-4.771-.273l.03-.8c1.586.062,3.2.153,4.8.277Zm-14.33-.293-.029-.8c1.514-.051,3.039-.078,4.534-.078h.275v.8h-.275c-1.485,0-3,.027-4.505.078" transform="translate(3.513 10.041)" fill="#939393"/>
    <path id="Trazado_780806" data-name="Trazado 780806" d="M137.719,285.616C62.183,285.616.726,224.163.726,148.626S62.183,11.631,137.719,11.631,274.711,73.086,274.711,148.626s-61.455,136.99-136.992,136.99m0-272.386c-74.656,0-135.395,60.737-135.395,135.4S63.063,284.017,137.719,284.017,273.112,223.28,273.112,148.626,212.375,13.23,137.719,13.23" transform="translate(0.435 6.964)" fill="#939393"/>
    <path id="Trazado_780807" data-name="Trazado 780807" d="M131.35,262.238A119.985,119.985,0,1,1,251.334,142.255,120.12,120.12,0,0,1,131.35,262.238m0-238.371A118.386,118.386,0,1,0,249.735,142.255,118.522,118.522,0,0,0,131.35,23.867" transform="translate(6.804 13.333)" fill="#939393"/>
    <path id="Trazado_780808" data-name="Trazado 780808" d="M135.1,37.272l2.317-.141a.54.54,0,0,1,.237-.006,7.575,7.575,0,0,0,.913,1.4.593.593,0,0,1-.038.528l-.83,2.168a.492.492,0,0,0,.165.673l2,1.212a.491.491,0,0,0,.673-.165l1.54-1.738a.611.611,0,0,1,.161-.171,7.905,7.905,0,0,0,1.632.344.583.583,0,0,1,.349.4l.945,2.123a.492.492,0,0,0,.593.357l2.27-.555a.49.49,0,0,0,.36-.592l-.141-2.317a.577.577,0,0,1-.006-.233,7.811,7.811,0,0,0,1.4-.913.58.58,0,0,1,.524.035l2.17.83a.488.488,0,0,0,.671-.163l1.21-2a.486.486,0,0,0-.163-.673l-1.736-1.536a.585.585,0,0,1-.171-.166,7.661,7.661,0,0,0,.342-1.631.591.591,0,0,1,.4-.349l2.118-.945a.493.493,0,0,0,.36-.593l-.556-2.267a.489.489,0,0,0-.592-.36l-2.317.138a.531.531,0,0,1-.235.006,7.646,7.646,0,0,0-.913-1.4.583.583,0,0,1,.037-.526l.83-2.17a.489.489,0,0,0-.163-.671l-2-1.215a.493.493,0,0,0-.673.166l-1.54,1.736a.576.576,0,0,1-.163.171,7.919,7.919,0,0,0-1.634-.344.581.581,0,0,1-.347-.4l-.945-2.12a.487.487,0,0,0-.59-.357l-2.273.553a.487.487,0,0,0-.358.592l.139,2.318a.576.576,0,0,1,.006.233,7.806,7.806,0,0,0-1.4.914.588.588,0,0,1-.528-.037l-2.166-.831a.486.486,0,0,0-.671.166l-1.215,2a.491.491,0,0,0,.166.673l1.738,1.536a.575.575,0,0,1,.169.165,7.813,7.813,0,0,0-.342,1.634.6.6,0,0,1-.4.347l-2.122.942a.492.492,0,0,0-.357.595l.555,2.27a.49.49,0,0,0,.592.36m8.76-6.991a3.362,3.362,0,1,1-2.465,4.064,3.362,3.362,0,0,1,2.465-4.064" transform="translate(80.199 13.669)" fill="#f4a338"/>
    <path id="Trazado_780809" data-name="Trazado 780809" d="M143,24.083l1.823-.109a.436.436,0,0,1,.187,0,6.012,6.012,0,0,0,.718,1.1.463.463,0,0,1-.03.414l-.652,1.706a.384.384,0,0,0,.13.528l1.573.956a.384.384,0,0,0,.528-.129l1.212-1.367a.457.457,0,0,1,.13-.136,5.853,5.853,0,0,0,1.285.27.46.46,0,0,1,.27.313l.747,1.669a.383.383,0,0,0,.464.281l1.789-.435a.388.388,0,0,0,.281-.467l-.11-1.824a.447.447,0,0,1,0-.184,6.12,6.12,0,0,0,1.1-.719.46.46,0,0,1,.412.03l1.706.652a.383.383,0,0,0,.531-.129l.953-1.572a.384.384,0,0,0-.128-.528l-1.369-1.212a.472.472,0,0,1-.134-.129,6.106,6.106,0,0,0,.27-1.285.464.464,0,0,1,.315-.273l1.669-.745a.384.384,0,0,0,.281-.464l-.438-1.786a.387.387,0,0,0-.467-.285l-1.821.114a.517.517,0,0,1-.185,0,6.408,6.408,0,0,0-.718-1.1.465.465,0,0,1,.027-.412l.655-1.7a.387.387,0,0,0-.131-.531l-1.573-.954a.385.385,0,0,0-.529.129l-1.21,1.365a.421.421,0,0,1-.129.136,6.071,6.071,0,0,0-1.284-.27.458.458,0,0,1-.273-.313l-.743-1.666a.388.388,0,0,0-.467-.285l-1.787.435a.387.387,0,0,0-.281.467l.11,1.824a.477.477,0,0,1,0,.184,6.261,6.261,0,0,0-1.1.718.452.452,0,0,1-.416-.027l-1.7-.652a.379.379,0,0,0-.528.128L143,17.381a.386.386,0,0,0,.131.528l1.369,1.21a.487.487,0,0,1,.133.129,6.406,6.406,0,0,0-.272,1.285.456.456,0,0,1-.313.272l-1.668.743a.383.383,0,0,0-.281.465l.44,1.787a.378.378,0,0,0,.462.281m6.892-5.5a2.646,2.646,0,1,1-1.939,3.2,2.643,2.643,0,0,1,1.939-3.2" transform="translate(85.075 7.616)" fill="#3dc1b4"/>
    <rect id="Rectángulo_366556" data-name="Rectángulo 366556" width="51.055" height="3.679" transform="translate(248.107 114.895)" fill="#e0e0e0"/>
    <rect id="Rectángulo_366557" data-name="Rectángulo 366557" width="51.055" height="1.84" transform="translate(248.107 116.734)" fill="#fff"/>
    <rect id="Rectángulo_366558" data-name="Rectángulo 366558" width="51.055" height="3.679" transform="translate(248.107 111.216)" fill="#e0e0e0"/>
    <rect id="Rectángulo_366559" data-name="Rectángulo 366559" width="51.055" height="1.84" transform="translate(248.107 113.055)" fill="#fff"/>
    <rect id="Rectángulo_366560" data-name="Rectángulo 366560" width="22.515" height="2.64" transform="translate(192.226 124.999)" fill="#373f51"/>
    <rect id="Rectángulo_366561" data-name="Rectángulo 366561" width="22.52" height="2.64" transform="translate(214.741 124.998)" fill="#242d3d"/>
    <rect id="Rectángulo_366562" data-name="Rectángulo 366562" width="22.515" height="2.64" transform="translate(192.226 124.999)" fill="#373f51"/>
    <rect id="Rectángulo_366563" data-name="Rectángulo 366563" width="22.52" height="2.64" transform="translate(214.741 124.998)" fill="#242d3d"/>
    <rect id="Rectángulo_366564" data-name="Rectángulo 366564" width="15.775" height="14.91" transform="translate(214.744 110.088)" fill="#373f51"/>
    <rect id="Rectángulo_366565" data-name="Rectángulo 366565" width="15.777" height="14.91" transform="translate(198.968 110.088)" fill="#242d3d"/>
    <path id="Trazado_780810" data-name="Trazado 780810" d="M178.851,31.558H134.317v65.2h44.534a4.412,4.412,0,0,0,4.4-4.4v-56.4a4.41,4.41,0,0,0-4.4-4.4" transform="translate(80.424 18.896)" fill="#242d3d"/>
    <path id="Trazado_780811" data-name="Trazado 780811" d="M108.11,31.558a4.411,4.411,0,0,0-4.4,4.4v56.4a4.413,4.413,0,0,0,4.4,4.4h44.534v-65.2Z" transform="translate(62.098 18.896)" fill="#373f51"/>
    <path id="Trazado_780812" data-name="Trazado 780812" d="M108.559,34.488a2.638,2.638,0,0,0-2.638,2.64v47.2a2.648,2.648,0,0,0,2.638,2.644H151.32V34.488Z" transform="translate(63.422 20.65)" fill="#688bd8"/>
    <path id="Trazado_780813" data-name="Trazado 780813" d="M177.073,34.488H134.317V86.975h42.756a2.657,2.657,0,0,0,2.646-2.644v-47.2a2.647,2.647,0,0,0-2.646-2.64" transform="translate(80.424 20.65)" fill="#5573c6"/>
    <path id="Trazado_780814" data-name="Trazado 780814" d="M117.662,82.963a3.853,3.853,0,0,0-3.85,3.848v17.7a3.855,3.855,0,0,0,3.85,3.853h28.933v-25.4Z" transform="translate(68.147 49.675)" fill="#242d3d"/>
    <path id="Trazado_780815" data-name="Trazado 780815" d="M163.251,82.963H134.317v25.4h28.934a3.857,3.857,0,0,0,3.851-3.853v-17.7a3.855,3.855,0,0,0-3.851-3.848" transform="translate(80.424 49.675)" fill="#373f51"/>
    <path id="Trazado_780816" data-name="Trazado 780816" d="M163.251,83.73H134.317v22.941h28.934a2.622,2.622,0,0,0,2.622-2.624v-17.7a2.621,2.621,0,0,0-2.622-2.622" transform="translate(80.424 50.135)" fill="#242d3d"/>
    <path id="Trazado_780817" data-name="Trazado 780817" d="M117.2,83.73a2.621,2.621,0,0,0-2.62,2.622v17.7a2.621,2.621,0,0,0,2.62,2.624h28.933V83.73Z" transform="translate(68.607 50.135)" fill="#373f51"/>
    <path id="Rectángulo_366566" data-name="Rectángulo 366566" d="M.183,0H4.475a.182.182,0,0,1,.182.182V4.476a.181.181,0,0,1-.181.181H.182A.182.182,0,0,1,0,4.475V.183A.183.183,0,0,1,.183,0Z" transform="translate(185.808 136.212)" fill="#f5f5f5"/>
    <path id="Rectángulo_366567" data-name="Rectángulo 366567" d="M.183,0H4.474a.183.183,0,0,1,.183.183V4.476a.181.181,0,0,1-.181.181H.183A.183.183,0,0,1,0,4.474V.183A.183.183,0,0,1,.183,0Z" transform="translate(185.808 143.009)" fill="#f5f5f5"/>
    <path id="Rectángulo_366568" data-name="Rectángulo 366568" d="M.183,0H4.474a.183.183,0,0,1,.183.183V4.476a.181.181,0,0,1-.181.181H.183A.183.183,0,0,1,0,4.474V.183A.183.183,0,0,1,.183,0Z" transform="translate(185.808 149.803)" fill="#f5f5f5"/>
    <path id="Rectángulo_366569" data-name="Rectángulo 366569" d="M.182,0H4.474a.182.182,0,0,1,.182.182V4.475a.182.182,0,0,1-.182.182H.181A.181.181,0,0,1,0,4.476V.182A.182.182,0,0,1,.182,0Z" transform="translate(192.53 136.212)" fill="#f5f5f5"/>
    <path id="Rectángulo_366570" data-name="Rectángulo 366570" d="M.181,0H4.473a.183.183,0,0,1,.183.183V4.476a.181.181,0,0,1-.181.181H.181A.181.181,0,0,1,0,4.476V.181A.181.181,0,0,1,.181,0Z" transform="translate(192.53 143.009)" fill="#f5f5f5"/>
    <path id="Rectángulo_366571" data-name="Rectángulo 366571" d="M.182,0H4.476a.181.181,0,0,1,.181.181v4.3a.181.181,0,0,1-.181.181H.182A.182.182,0,0,1,0,4.475V.182A.182.182,0,0,1,.182,0Z" transform="translate(199.09 136.212)" fill="#f5f5f5"/>
    <path id="Rectángulo_366572" data-name="Rectángulo 366572" d="M.183,0H4.476a.181.181,0,0,1,.181.181v4.3a.181.181,0,0,1-.181.181H.182A.182.182,0,0,1,0,4.475V.183A.183.183,0,0,1,.183,0Z" transform="translate(199.09 143.009)" fill="#f5f5f5"/>
    <path id="Rectángulo_366573" data-name="Rectángulo 366573" d="M.182,0H4.477a.182.182,0,0,1,.182.182V4.475a.182.182,0,0,1-.182.182H.184A.184.184,0,0,1,0,4.473V.182A.182.182,0,0,1,.182,0Z" transform="translate(205.811 136.212)" fill="#f5f5f5"/>
    <path id="Rectángulo_366574" data-name="Rectángulo 366574" d="M.183,0H4.477a.182.182,0,0,1,.182.182V4.475a.182.182,0,0,1-.182.182H.184A.184.184,0,0,1,0,4.473V.183A.183.183,0,0,1,.183,0Z" transform="translate(205.811 143.009)" fill="#f5f5f5"/>
    <path id="Rectángulo_366575" data-name="Rectángulo 366575" d="M.182,0H4.475a.184.184,0,0,1,.184.184V4.475a.182.182,0,0,1-.182.182H.182A.182.182,0,0,1,0,4.475V.182A.182.182,0,0,1,.182,0Z" transform="translate(212.371 136.212)" fill="#f5f5f5"/>
    <path id="Rectángulo_366576" data-name="Rectángulo 366576" d="M.182,0H4.477a.182.182,0,0,1,.182.182V4.475a.182.182,0,0,1-.182.182H.183A.183.183,0,0,1,0,4.474V.182A.182.182,0,0,1,.182,0Z" transform="translate(219.093 136.212)" fill="#f5f5f5"/>
    <path id="Rectángulo_366577" data-name="Rectángulo 366577" d="M.183,0H4.475a.184.184,0,0,1,.184.184V4.476a.181.181,0,0,1-.181.181H.182A.182.182,0,0,1,0,4.475V.183A.183.183,0,0,1,.183,0Z" transform="translate(212.371 143.009)" fill="#f5f5f5"/>
    <path id="Trazado_780818" data-name="Trazado 780818" d="M144.632,93.7H120.713a.29.29,0,0,0-.289.291v4.074a.291.291,0,0,0,.289.293h23.919a.292.292,0,0,0,.291-.293V93.99a.291.291,0,0,0-.291-.291" transform="translate(72.106 56.104)" fill="#f5f5f5"/>
    <path id="Trazado_780819" data-name="Trazado 780819" d="M148.077,85.2H144a.29.29,0,0,0-.289.293v6.5h-6.43a.289.289,0,0,0-.293.291v4.074a.293.293,0,0,0,.293.293h10.795a.294.294,0,0,0,.293-.293V85.491a.292.292,0,0,0-.293-.293" transform="translate(82.025 51.014)" fill="#f5f5f5"/>
    <path id="Rectángulo_366578" data-name="Rectángulo 366578" d="M.183,0H4.477a.182.182,0,0,1,.182.182V4.476a.181.181,0,0,1-.181.181H.181A.181.181,0,0,1,0,4.476V.183A.183.183,0,0,1,.183,0Z" transform="translate(219.093 149.803)" fill="#f5f5f5"/>
    <path id="Rectángulo_366579" data-name="Rectángulo 366579" d="M.183,0H4.474a.183.183,0,0,1,.183.183V4.476a.181.181,0,0,1-.181.181H.183A.183.183,0,0,1,0,4.474V.183A.183.183,0,0,1,.183,0Z" transform="translate(225.737 149.803)" fill="#f5f5f5"/>
    <path id="Rectángulo_366580" data-name="Rectángulo 366580" d="M.183,0H4.475a.184.184,0,0,1,.184.184V4.473a.184.184,0,0,1-.184.184H.183A.183.183,0,0,1,0,4.474V.183A.183.183,0,0,1,.183,0Z" transform="translate(232.296 143.009)" fill="#f5f5f5"/>
    <path id="Rectángulo_366581" data-name="Rectángulo 366581" d="M.183,0H4.474a.183.183,0,0,1,.183.183V4.476a.181.181,0,0,1-.181.181H.181A.181.181,0,0,1,0,4.476V.183A.183.183,0,0,1,.183,0Z" transform="translate(239.018 143.009)" fill="#f5f5f5"/>
    <path id="Rectángulo_366582" data-name="Rectángulo 366582" d="M.182,0H4.477a.182.182,0,0,1,.182.182V4.475a.182.182,0,0,1-.182.182H.183A.183.183,0,0,1,0,4.474V.182A.182.182,0,0,1,.182,0Z" transform="translate(232.296 136.212)" fill="#f5f5f5"/>
    <path id="Rectángulo_366583" data-name="Rectángulo 366583" d="M.182,0H4.474a.183.183,0,0,1,.183.183V4.475a.182.182,0,0,1-.182.182H.182A.182.182,0,0,1,0,4.475V.182A.182.182,0,0,1,.182,0Z" transform="translate(239.018 136.212)" fill="#f5f5f5"/>
    <path id="Rectángulo_366584" data-name="Rectángulo 366584" d="M.183,0H4.475a.184.184,0,0,1,.184.184V4.473a.184.184,0,0,1-.184.184H.183A.183.183,0,0,1,0,4.474V.183A.183.183,0,0,1,.183,0Z" transform="translate(232.296 149.803)" fill="#f5f5f5"/>
    <path id="Rectángulo_366585" data-name="Rectángulo 366585" d="M.183,0H4.474a.183.183,0,0,1,.183.183V4.476a.181.181,0,0,1-.181.181H.181A.181.181,0,0,1,0,4.476V.183A.183.183,0,0,1,.183,0Z" transform="translate(239.018 149.803)" fill="#f5f5f5"/>
    <rect id="Rectángulo_366586" data-name="Rectángulo 366586" width="39.659" height="43.656" transform="translate(175.049 59.463)" fill="#fff"/>
    <path id="Trazado_780820" data-name="Trazado 780820" d="M110.47,44.637l1.309-.376-1.309-.305v-1.2l2.652.921v1.2l-2.652.961Z" transform="translate(66.145 25.599)" fill="#f4a338"/>
    <path id="Trazado_780821" data-name="Trazado 780821" d="M110.47,57.172l1.309-.374-1.309-.3v-1.2l2.652.919v1.2l-2.652.964Z" transform="translate(66.145 33.106)" fill="#f4a338"/>
    <path id="Trazado_780822" data-name="Trazado 780822" d="M110.47,61.35l1.309-.374-1.309-.305v-1.2l2.652.918v1.2l-2.652.964Z" transform="translate(66.145 35.609)" fill="#f4a338"/>
    <path id="Trazado_780823" data-name="Trazado 780823" d="M113.286,48.815l1.309-.374-1.309-.305v-1.2l2.652.921v1.2l-2.652.964Z" transform="translate(67.831 28.101)" fill="#f4a338"/>
    <path id="Trazado_780824" data-name="Trazado 780824" d="M113.286,52.994l1.309-.374-1.309-.307v-1.2l2.652.919v1.2l-2.652.962Z" transform="translate(67.831 30.603)" fill="#f4a338"/>
    <rect id="Rectángulo_366587" data-name="Rectángulo 366587" width="38.596" height="43.656" transform="translate(214.708 59.463)" fill="#e0e0e0"/>
    <rect id="Rectángulo_366588" data-name="Rectángulo 366588" width="53.779" height="3.182" transform="translate(181.116 68.306)" fill="#373f51"/>
    <rect id="Rectángulo_366589" data-name="Rectángulo 366589" width="22.474" height="3.182" transform="translate(185.868 74.985)" fill="#373f51"/>
    <rect id="Rectángulo_366590" data-name="Rectángulo 366590" width="46.554" height="3.183" transform="translate(185.868 81.666)" fill="#373f51"/>
    <rect id="Rectángulo_366591" data-name="Rectángulo 366591" width="52.414" height="3.185" transform="translate(181.116 95.027)" fill="#373f51"/>
    <rect id="Rectángulo_366592" data-name="Rectángulo 366592" width="66.114" height="3.182" transform="translate(181.084 88.348)" fill="#373f51"/>
    <rect id="Rectángulo_366593" data-name="Rectángulo 366593" width="39.659" height="4.787" transform="translate(175.049 59.463)" fill="#373f51"/>
    <rect id="Rectángulo_366594" data-name="Rectángulo 366594" width="38.596" height="4.787" transform="translate(214.708 59.463)" fill="#242d3d"/>
    <rect id="Rectángulo_366595" data-name="Rectángulo 366595" width="2.416" height="2.254" transform="translate(249.04 60.729)" fill="#fff"/>
    <rect id="Rectángulo_366596" data-name="Rectángulo 366596" width="2.417" height="2.254" transform="translate(243.975 60.729)" fill="#fff"/>
    <path id="Trazado_780825" data-name="Trazado 780825" d="M185.072,61.411a5.429,5.429,0,1,0,5.428,5.431,5.432,5.432,0,0,0-5.428-5.431m0,9.218a3.788,3.788,0,1,1,3.791-3.787,3.789,3.789,0,0,1-3.791,3.787" transform="translate(107.563 36.771)" fill="#e08d2b"/>
    <rect id="Rectángulo_366597" data-name="Rectángulo 366597" width="5.882" height="15.212" transform="translate(280.869 96.004)" fill="#f4a338"/>
    <rect id="Rectángulo_366598" data-name="Rectángulo 366598" width="5.883" height="15.212" transform="translate(286.751 96.006)" fill="#e08d2b"/>
    <path id="Trazado_780826" data-name="Trazado 780826" d="M164.309,108.022h7.378V83.115h-7.378a5.075,5.075,0,0,0-5.074,5.078v14.753a5.075,5.075,0,0,0,5.074,5.076" transform="translate(95.344 49.766)" fill="#242d3d"/>
    <path id="Trazado_780827" data-name="Trazado 780827" d="M174.4,108.022a5.078,5.078,0,0,0,5.078-5.076V88.193a5.079,5.079,0,0,0-5.078-5.078h-7.375v24.907Z" transform="translate(100.007 49.766)" fill="#373f51"/>
    <path id="Trazado_780828" data-name="Trazado 780828" d="M173.816,83.73h-6.793v22.941h6.793A4.676,4.676,0,0,0,178.494,102V88.408a4.678,4.678,0,0,0-4.678-4.678" transform="translate(100.007 50.135)" fill="#242d3d"/>
    <path id="Trazado_780829" data-name="Trazado 780829" d="M164.523,83.73a4.677,4.677,0,0,0-4.675,4.678V102a4.676,4.676,0,0,0,4.675,4.675h6.8V83.73Z" transform="translate(95.711 50.135)" fill="#373f51"/>
    <path id="Trazado_780830" data-name="Trazado 780830" d="M169.148,85.62h-.71a4.964,4.964,0,0,0-4.964,4.964v1.722h5.674Z" transform="translate(97.882 51.266)" fill="#e0e0e0"/>
    <path id="Trazado_780831" data-name="Trazado 780831" d="M163.474,89.8v5.252a4.968,4.968,0,0,0,4.964,4.966h.71V89.8Z" transform="translate(97.882 53.77)" fill="#e0e0e0"/>
    <path id="Trazado_780832" data-name="Trazado 780832" d="M172.7,92.305v-1.72a4.963,4.963,0,0,0-4.964-4.966h-.708v6.686Z" transform="translate(100.007 51.266)" fill="#e0e0e0"/>
    <path id="Trazado_780833" data-name="Trazado 780833" d="M167.023,89.8v10.218h.708a4.966,4.966,0,0,0,4.964-4.966V89.8Z" transform="translate(100.007 53.77)" fill="#f5f5f5"/>
    <rect id="Rectángulo_366599" data-name="Rectángulo 366599" width="11.346" height="0.958" transform="translate(261.356 143.31)" fill="#e0e0e0"/>
    <path id="Trazado_780834" data-name="Trazado 780834" d="M163.474,90.583a4.965,4.965,0,0,1,4.964-4.964h.71v6.686h-5.674Z" transform="translate(97.882 51.266)" fill="#f5f5f5"/>
    <path id="Trazado_780835" data-name="Trazado 780835" d="M159.188,22.06a.765.765,0,0,0-.561.926l.217,3.626a.86.86,0,0,1,.011.366,12.177,12.177,0,0,0-2.187,1.429.924.924,0,0,1-.825-.058l-3.391-1.3a.763.763,0,0,0-1.05.256l-1.9,3.129a.761.761,0,0,0,.256,1.05l2.718,2.409a.908.908,0,0,1,.269.254,12.082,12.082,0,0,0-.537,2.555.916.916,0,0,1-.625.542l-3.317,1.482a.765.765,0,0,0-.561.924l.871,3.554a.767.767,0,0,0,.924.561l3.623-.221a.96.96,0,0,1,.369-.01,12.116,12.116,0,0,0,1.431,2.189.921.921,0,0,1-.059.823l-1.3,3.393a.763.763,0,0,0,.259,1.05l3.127,1.895A.759.759,0,0,0,158,52.632l2.408-2.718a.912.912,0,0,1,.257-.267,12.568,12.568,0,0,0,2.553.539.906.906,0,0,1,.542.619l1.482,3.321a.76.76,0,0,0,.922.56l1.957-.48-7.18-32.575Z" transform="translate(88.428 12.951)" fill="#688bd8"/>
    <path id="Trazado_780836" data-name="Trazado 780836" d="M176.237,36.4l-.871-3.557a.766.766,0,0,0-.924-.56l-3.624.221a.892.892,0,0,1-.368.006,12.286,12.286,0,0,0-1.428-2.187.908.908,0,0,1,.056-.82l1.3-3.394a.766.766,0,0,0-.257-1.05l-3.129-1.9a.764.764,0,0,0-1.05.256l-2.409,2.718a.829.829,0,0,1-.256.27,12.371,12.371,0,0,0-2.555-.539.917.917,0,0,1-.542-.624L158.7,21.927a.767.767,0,0,0-.924-.563l-1.8.438,7.18,32.575,1.6-.392a.758.758,0,0,0,.563-.921L165.1,49.44a.874.874,0,0,1-.008-.369,12.118,12.118,0,0,0,2.187-1.429.931.931,0,0,1,.823.056L171.49,49a.767.767,0,0,0,1.049-.259l1.9-3.129a.764.764,0,0,0-.256-1.05l-2.718-2.408a.875.875,0,0,1-.269-.256,12.169,12.169,0,0,0,.537-2.553.912.912,0,0,1,.625-.544l3.316-1.482a.76.76,0,0,0,.561-.921" transform="translate(93.394 12.779)" fill="#5573c6"/>
    <path id="Trazado_780837" data-name="Trazado 780837" d="M168.483,35.413a9.58,9.58,0,0,0-11.549-9.359l4.122,18.683a9.569,9.569,0,0,0,7.428-9.324" transform="translate(93.967 15.477)" fill="#688bd8"/>
    <path id="Trazado_780838" data-name="Trazado 780838" d="M152.189,35.336A9.558,9.558,0,0,0,163.9,44.66l-4.122-18.683a9.567,9.567,0,0,0-7.585,9.359" transform="translate(91.125 15.554)" fill="#5573c6"/>
    <rect id="Rectángulo_366600" data-name="Rectángulo 366600" width="51.058" height="5.931" transform="translate(241.271 120.179)" fill="#e0e0e0"/>
    <rect id="Rectángulo_366601" data-name="Rectángulo 366601" width="53.985" height="1.528" transform="translate(239.808 126.111)" fill="#f4a338"/>
    <rect id="Rectángulo_366602" data-name="Rectángulo 366602" width="53.985" height="1.605" transform="translate(239.808 118.574)" fill="#f4a338"/>
    <rect id="Rectángulo_366603" data-name="Rectángulo 366603" width="51.058" height="2.966" transform="translate(241.271 123.145)" fill="#fff"/>
    <path id="Trazado_780839" data-name="Trazado 780839" d="M25.923,91.2c-10.98-.261-6.649,11.038-15.582,17.788-4.688,3.541,2.994,15.468,13.841,5.113Z" transform="translate(5.352 54.607)" fill="#252c33"/>
    <path id="Trazado_780840" data-name="Trazado 780840" d="M18.052,91.2c10.976-.261,7.807,10.873,16.14,18.339C38.14,113.092,27.1,123.379,19.8,114.1Z" transform="translate(10.809 54.607)" fill="#252c33"/>
    <rect id="Rectángulo_366604" data-name="Rectángulo 366604" width="7.049" height="7.815" transform="translate(26.539 164.411)" fill="#e5bd99"/>
    <path id="Trazado_780841" data-name="Trazado 780841" d="M33.128,99.848a10.16,10.16,0,0,1-10.414,9.888,9.905,9.905,0,1,1,0-19.783,10.167,10.167,0,0,1,10.414,9.895" transform="translate(7.357 53.861)" fill="#252c33"/>
    <path id="Trazado_780842" data-name="Trazado 780842" d="M31.17,101.713c0,5.839-4.032,10.565-8.991,10.565s-9-4.726-9-10.565,4.024-10.563,9-10.563,8.991,4.728,8.991,10.563" transform="translate(7.893 54.577)" fill="#efd0b4"/>
    <path id="Trazado_780843" data-name="Trazado 780843" d="M16.7,99.2a2.252,2.252,0,0,1-2.045,2.425,2.457,2.457,0,0,1,0-4.839A2.252,2.252,0,0,1,16.7,99.2" transform="translate(7.559 57.949)" fill="#efd0b4"/>
    <path id="Trazado_780844" data-name="Trazado 780844" d="M26.517,99.2a2.253,2.253,0,0,1-2.037,2.425,2.455,2.455,0,0,1,0-4.839A2.252,2.252,0,0,1,26.517,99.2" transform="translate(13.436 57.949)" fill="#efd0b4"/>
    <path id="Trazado_780845" data-name="Trazado 780845" d="M19.18,95.452s8.323,7.1,11.54,7.127S29.7,92.066,26.68,91.916c-1.087-.058-6.214-1.773-7.4-1.185-.436.214-4.931,1.335-3.616,2.413a28.171,28.171,0,0,0,3.519,2.309" transform="translate(9.234 54.253)" fill="#252c33"/>
    <path id="Trazado_780846" data-name="Trazado 780846" d="M24.895,94.964s-8.32,7.1-11.543,7.127,1.026-10.513,4.04-10.664a7.528,7.528,0,0,1,3.375.889,23.645,23.645,0,0,1,4.128,2.648" transform="translate(7.304 54.741)" fill="#252c33"/>
    <path id="Trazado_780847" data-name="Trazado 780847" d="M.213,138.26a3.8,3.8,0,0,0,3.685,3.9,3.908,3.908,0,0,0,0-7.8,3.8,3.8,0,0,0-3.685,3.9" transform="translate(0.128 80.451)" fill="#e5bd99"/>
    <path id="Trazado_780848" data-name="Trazado 780848" d="M18.543,143.084l1.071,36.658.106,3.538.163,5.413c0,1.3,1.885,2.369,4.218,2.369s4.222-1.065,4.222-2.369l.152-5.066,1.189-40.543Z" transform="translate(11.103 85.674)" fill="#e5bd99"/>
    <path id="Trazado_780849" data-name="Trazado 780849" d="M11.929,143.084,13,179.742l.1,3.538.16,5.413c0,1.3,1.891,2.369,4.221,2.369S21.7,190,21.7,188.694l.155-5.066,1.183-40.543Z" transform="translate(7.143 85.674)" fill="#e5bd99"/>
    <path id="Trazado_780850" data-name="Trazado 780850" d="M19.292,168.67l.142,4.7c0,1.306,1.885,2.369,4.219,2.369s4.221-1.063,4.221-2.369l.136-4.7Z" transform="translate(11.551 100.994)" fill="#5573c6"/>
    <path id="Trazado_780851" data-name="Trazado 780851" d="M12.679,168.67l.137,4.7c0,1.306,1.891,2.369,4.221,2.369s4.218-1.063,4.218-2.369l.141-4.7Z" transform="translate(7.592 100.994)" fill="#5573c6"/>
    <path id="Trazado_780852" data-name="Trazado 780852" d="M36.582,108.863l-7.959-3.581-5.1,1.573-5.1-1.573-7.952,3.581,5.485,33.98H31.084Z" transform="translate(6.265 63.039)" fill="#dcdcdc"/>
    <path id="Trazado_780853" data-name="Trazado 780853" d="M17.642,108.121c-1.329-.126-3.871-2.24-3.871-2.24l4.406-.795,3.5,1.885s-2.833,1.258-4.034,1.15" transform="translate(8.246 62.922)" fill="#fdfffe"/>
    <path id="Trazado_780854" data-name="Trazado 780854" d="M22.737,108.121c1.333-.126,3.882-2.24,3.882-2.24l-4.158-.795-3.746,1.885s2.828,1.258,4.022,1.15" transform="translate(11.206 62.922)" fill="#fdfffe"/>
    <path id="Trazado_780855" data-name="Trazado 780855" d="M7.751,155.471.187,153.458s5.4-28.167,9.377-36.716a29.8,29.8,0,0,1,5.322-8.055,25.677,25.677,0,0,1,1.962-1.7c.03-.03-.232,18.723-.232,18.723Z" transform="translate(0.112 64.059)" fill="#5573c6"/>
    <path id="Trazado_780856" data-name="Trazado 780856" d="M39.641,138.34A3.735,3.735,0,1,1,35.91,134.4a3.844,3.844,0,0,1,3.732,3.943" transform="translate(19.27 80.472)" fill="#e5bd99"/>
    <path id="Trazado_780857" data-name="Trazado 780857" d="M34.318,155.672l10-2.5s-6.43-27.916-10.4-36.465a29.35,29.35,0,0,0-5.332-8.055c-.59-.632-1.69-1.583-1.72-1.608s.683,21.6.683,21.6Z" transform="translate(16.087 64.094)" fill="#688bd8"/>
    <path id="Trazado_780858" data-name="Trazado 780858" d="M36.011,168.821s2.016-18.706,2.12-24.976c.058-4.077-.855-16.307-.855-16.307h-26.4s-1.044,12.223-1,16.307c.08,6.27,2.122,24.976,2.122,24.976Z" transform="translate(5.914 76.365)" fill="#5573c6"/>
    <path id="Trazado_780859" data-name="Trazado 780859" d="M18.518,148.6,21.2,131.47l-4.28-26.044a16.282,16.282,0,0,0-3.661,1.06,9.272,9.272,0,0,0-1.261.628,16.007,16.007,0,0,0-1.309.962l-.595,42.975Z" transform="translate(6.043 63.125)" fill="#688bd8"/>
    <path id="Trazado_780860" data-name="Trazado 780860" d="M12.607,120.345c-.117-1.2,1.941-5,1.941-5s-2.724-3.182-3.039-4.5a5.33,5.33,0,0,1,1.877-4.716,10.655,10.655,0,0,1,2.726-.7l4.28,26.042s-7.441-7.569-7.784-11.124" transform="translate(6.852 63.126)" fill="#5573c6"/>
    <path id="Trazado_780861" data-name="Trazado 780861" d="M23.067,148.6,20.386,131.47l4.28-26.044a16.41,16.41,0,0,1,3.664,1.06,9.319,9.319,0,0,1,1.258.628,15.665,15.665,0,0,1,1.3.962l.6,42.975Z" transform="translate(12.206 63.125)" fill="#688bd8"/>
    <path id="Trazado_780862" data-name="Trazado 780862" d="M28.172,120.345c.118-1.2-1.939-5-1.939-5s2.715-3.182,3.041-4.5a5.352,5.352,0,0,0-1.887-4.716,10.569,10.569,0,0,0-2.721-.7l-4.28,26.042s7.439-7.569,7.786-11.124" transform="translate(12.206 63.126)" fill="#5573c6"/>
    <path id="Trazado_780863" data-name="Trazado 780863" d="M42.337,139.331a3.792,3.792,0,1,0,3.786-4,3.9,3.9,0,0,0-3.786,4" transform="translate(25.35 81.031)" fill="#e5bd99"/>
    <path id="Trazado_780864" data-name="Trazado 780864" d="M50.076,156.993l-7.764-2.062s5.546-28.909,9.623-37.675a30.371,30.371,0,0,1,5.468-8.269c.617-.647,1.979-1.72,2.008-1.747s-.245,19.214-.245,19.214Z" transform="translate(25.335 64.211)" fill="#fdfffe"/>
    <path id="Trazado_780865" data-name="Trazado 780865" d="M82.461,139.321a3.832,3.832,0,1,1-3.829-4.048,3.938,3.938,0,0,1,3.829,4.048" transform="translate(44.793 80.997)" fill="#e5bd99"/>
    <path id="Trazado_780866" data-name="Trazado 780866" d="M76.995,157.1l10.266-2.566S80.669,125.892,76.6,117.126a30.514,30.514,0,0,0-5.473-8.269c-.614-.647-1.733-1.621-1.765-1.655s.7,22.176.7,22.176Z" transform="translate(41.528 64.189)" fill="#fdfffe"/>
    <path id="Trazado_780867" data-name="Trazado 780867" d="M64.668,93.584C57.958,93.5,58.2,92.085,56.06,98c-4.779,13.217.622,13.377,7.951,13.377.222,0,.436-.013.657-.013Z" transform="translate(32.484 55.911)" fill="#f4a338"/>
    <path id="Trazado_780868" data-name="Trazado 780868" d="M61.886,93.584c6.7-.083,6.462-1.5,8.6,4.411,4.787,13.217-.616,13.377-7.941,13.377-.224,0-.438-.013-.657-.013Z" transform="translate(37.055 55.911)" fill="#f4a338"/>
    <rect id="Rectángulo_366605" data-name="Rectángulo 366605" width="7.271" height="8.064" transform="translate(94.188 163.173)" fill="#e5bd99"/>
    <path id="Trazado_780869" data-name="Trazado 780869" d="M75.191,97.365A10.21,10.21,0,1,1,65,87.686a9.94,9.94,0,0,1,10.192,9.679" transform="translate(32.812 52.503)" fill="#d3925e"/>
    <path id="Trazado_780870" data-name="Trazado 780870" d="M73.929,100.909c0,6.015-4.147,10.889-9.266,10.889s-9.279-4.875-9.279-10.889,4.15-10.891,9.279-10.891,9.266,4.873,9.266,10.891" transform="translate(33.161 53.9)" fill="#efd0b4"/>
    <path id="Trazado_780871" data-name="Trazado 780871" d="M59.009,98.316a2.133,2.133,0,1,1-2.1-2.5,2.324,2.324,0,0,1,2.1,2.5" transform="translate(32.816 57.373)" fill="#efd0b4"/>
    <path id="Trazado_780872" data-name="Trazado 780872" d="M69.137,98.316a2.135,2.135,0,1,1-2.1-2.5,2.325,2.325,0,0,1,2.1,2.5" transform="translate(38.877 57.373)" fill="#efd0b4"/>
    <path id="Trazado_780873" data-name="Trazado 780873" d="M62.506,90.927c-.675,3.084,1.436,5.909,3.946,7.356a15.677,15.677,0,0,1,3.279,2.512,7.473,7.473,0,0,0-.441-7c-2.221-3.493-6.441-4.4-6.784-2.87" transform="translate(37.35 54.014)" fill="#d3925e"/>
    <path id="Trazado_780874" data-name="Trazado 780874" d="M55.836,101.651c3.108-5.343,10.251-4.838,14.219-9.087,1.759-1.887-1.137-2.507-1.089-2.528,0,0-10.175-2.329-13.86,4.234-.879,1.576-.553,9.591.729,7.382" transform="translate(32.7 53.67)" fill="#d3925e"/>
    <path id="Trazado_780875" data-name="Trazado 780875" d="M61.153,143.809l1.1,37.621.106,3.624.163,5.561c0,1.338,1.941,2.421,4.331,2.421s4.333-1.082,4.333-2.421l.152-5.2,1.218-41.6Z" transform="translate(36.616 86.108)" fill="#e5bd99"/>
    <path id="Trazado_780876" data-name="Trazado 780876" d="M54.367,143.809l1.1,37.621.112,3.624.16,5.561c0,1.338,1.943,2.421,4.336,2.421s4.325-1.082,4.325-2.421l.152-5.2,1.22-41.6Z" transform="translate(32.553 86.108)" fill="#e5bd99"/>
    <path id="Trazado_780877" data-name="Trazado 780877" d="M61.922,170.062l.141,4.833c0,1.34,1.939,2.422,4.329,2.422s4.333-1.082,4.333-2.422l.142-4.833Z" transform="translate(37.077 101.827)" fill="#25407c"/>
    <path id="Trazado_780878" data-name="Trazado 780878" d="M55.133,170.062l.144,4.833c0,1.34,1.941,2.422,4.336,2.422s4.323-1.082,4.323-2.422l.144-4.833Z" transform="translate(33.012 101.827)" fill="#25407c"/>
    <path id="Trazado_780879" data-name="Trazado 780879" d="M79.66,108.7l-8.168-3.676-5.234,1.618-5.238-1.618L52.855,108.7l.074,32.834H80.01Z" transform="translate(31.648 62.883)" fill="#dcdcdc"/>
    <path id="Trazado_780880" data-name="Trazado 780880" d="M60.229,107.934c-1.365-.128-3.976-2.3-3.976-2.3l4.525-.814,3.588,1.933s-2.911,1.293-4.136,1.177" transform="translate(33.682 62.765)" fill="#fdfffe"/>
    <path id="Trazado_780881" data-name="Trazado 780881" d="M65.458,107.934c1.362-.123,3.978-2.3,3.978-2.3l-4.261-.814-3.847,1.933s2.907,1.293,4.13,1.177" transform="translate(36.721 62.765)" fill="#fdfffe"/>
    <path id="Trazado_780882" data-name="Trazado 780882" d="M79.076,170.219s2.072-19.2,2.171-25.623c.067-4.192-.879-16.737-.879-16.737H53.286S52.21,140.4,52.26,144.6c.078,6.425,2.178,25.623,2.178,25.623Z" transform="translate(31.29 76.557)" fill="#25407c"/>
    <path id="Trazado_780883" data-name="Trazado 780883" d="M58.855,134.427A4.579,4.579,0,1,1,61.02,143.3l-2.438-8.785c.094-.026.176-.064.273-.086" transform="translate(35.077 80.414)" fill="#efd0b4"/>
    <path id="Trazado_780884" data-name="Trazado 780884" d="M60,134.432l2.437,8.785c-.075.021-.144.054-.224.07A4.576,4.576,0,1,1,60,134.432" transform="translate(33.659 80.493)" fill="#e5bd99"/>
    <path id="Trazado_780885" data-name="Trazado 780885" d="M50.186,101.874c.042.032,1.335,1.165,2.054,1.915A35.451,35.451,0,0,1,58.6,113.4c4.736,10.189,12.4,43.472,12.4,43.472l-6.136,1.536L50.3,105.949c-.077-2.449-.126-4.083-.114-4.075" transform="translate(30.048 60.999)" fill="#373f51"/>
    <path id="Trazado_780886" data-name="Trazado 780886" d="M64.811,156.882l-5.791,1.447L50.953,126.1s-.475-14.422-.7-21.682Z" transform="translate(30.092 62.524)" fill="#242d3d"/>
    <path id="Trazado_780887" data-name="Trazado 780887" d="M24.366,134.427A4.58,4.58,0,1,0,22.2,143.3l2.437-8.785c-.091-.026-.176-.064-.272-.086" transform="translate(10.997 80.414)" fill="#efd0b4"/>
    <path id="Trazado_780888" data-name="Trazado 780888" d="M23.2,134.432l-2.435,8.785c.075.021.144.054.225.07a4.575,4.575,0,1,0,2.209-8.856" transform="translate(12.434 80.493)" fill="#e5bd99"/>
    <path id="Trazado_780889" data-name="Trazado 780889" d="M30.721,133.16l-1.236,11.02v56.771h17.1v-54.2h.382V133.16Z" transform="translate(17.655 79.731)" fill="#242d3d"/>
    <path id="Trazado_780890" data-name="Trazado 780890" d="M56.848,133.16H40.42v13.593h.389v55.488H57.9V144.18Z" transform="translate(24.202 79.731)" fill="#2b4d99"/>
    <rect id="Rectángulo_366606" data-name="Rectángulo 366606" width="17.081" height="1.723" transform="translate(47.14 280.687)" fill="#373f51"/>
    <path id="Trazado_780891" data-name="Trazado 780891" d="M29.485,178.764h8.537v-8.542a8.544,8.544,0,0,0-8.537,8.542" transform="translate(17.655 101.923)" fill="#4b5f82"/>
    <path id="Trazado_780892" data-name="Trazado 780892" d="M34.825,170.222h0v8.542h8.544a8.545,8.545,0,0,0-8.544-8.542" transform="translate(20.852 101.923)" fill="#373f51"/>
    <rect id="Rectángulo_366607" data-name="Rectángulo 366607" width="17.081" height="1.723" transform="translate(65.027 280.687)" fill="#373f51"/>
    <path id="Trazado_780893" data-name="Trazado 780893" d="M40.673,178.764H49.21v-8.542a8.543,8.543,0,0,0-8.537,8.542" transform="translate(24.354 101.923)" fill="#4b5f82"/>
    <path id="Trazado_780894" data-name="Trazado 780894" d="M46.018,170.222h0v8.542h8.544a8.544,8.544,0,0,0-8.539-8.542" transform="translate(27.551 101.923)" fill="#373f51"/>
    <rect id="Rectángulo_366608" data-name="Rectángulo 366608" width="4.932" height="8.449" transform="translate(59.691 154.388)" fill="#e5bd99"/>
    <rect id="Rectángulo_366609" data-name="Rectángulo 366609" width="4.67" height="8.449" transform="translate(64.624 154.388)" fill="#efd0b4"/>
    <path id="Trazado_780895" data-name="Trazado 780895" d="M55.862,104.043l-9.484-4.274-5.957,1.843v32.912h8.892Z" transform="translate(24.203 59.738)" fill="#fdfffe"/>
    <path id="Trazado_780896" data-name="Trazado 780896" d="M46.169,101.652l-6.088-1.883L30.6,104.042l6.541,30.484H46.3V101.612Z" transform="translate(18.322 59.738)" fill="#e0e0e0"/>
    <path id="Trazado_780897" data-name="Trazado 780897" d="M32.348,91.866c0,7.605,5.776,13.764,12.907,13.764V79.485c-8.181,0-12.907,4.776-12.907,12.381" transform="translate(19.369 47.593)" fill="#272f3f"/>
    <path id="Trazado_780898" data-name="Trazado 780898" d="M40.421,79.485v26.146c7.126,0,12.9-6.16,12.9-13.765S49.3,79.485,40.421,79.485" transform="translate(24.203 47.593)" fill="#272f3f"/>
    <path id="Trazado_780899" data-name="Trazado 780899" d="M33.588,95.082c0,7.223,4.985,13.079,11.137,13.079V82c-6.152,0-11.137,5.861-11.137,13.086" transform="translate(20.111 49.096)" fill="#efd0b4"/>
    <path id="Trazado_780900" data-name="Trazado 780900" d="M40.554,82v26.164c6.146,0,11.131-5.856,11.131-13.078S46.7,82,40.554,82" transform="translate(24.282 49.097)" fill="#e5bd99"/>
    <path id="Trazado_780901" data-name="Trazado 780901" d="M37.816,91.966a2.8,2.8,0,0,1-2.529,3,3.044,3.044,0,0,1,0-6,2.8,2.8,0,0,1,2.529,3" transform="translate(19.616 53.271)" fill="#efd0b4"/>
    <path id="Trazado_780902" data-name="Trazado 780902" d="M49.972,91.966a2.793,2.793,0,0,1-2.523,3,3.043,3.043,0,0,1,0-6,2.792,2.792,0,0,1,2.523,3" transform="translate(26.895 53.271)" fill="#e5bd99"/>
    <path id="Trazado_780903" data-name="Trazado 780903" d="M42.767,81.6a12.141,12.141,0,0,0-3.583,1.68,5.948,5.948,0,0,0-1.725-.2c-3.736.185-4.168,11.351-4.168,11.351s1.628,5.369,2.114,4.5c.683-1.236.181-6.748.262-7.6.371-3.8,1.968-5.143,4.536-5.437.443-.056,2.441-.082,4.488-.085V81.109a18.33,18.33,0,0,0-1.923.5" transform="translate(19.933 48.565)" fill="#272f3f"/>
    <path id="Trazado_780904" data-name="Trazado 780904" d="M48.071,83.283a5.946,5.946,0,0,0-1.727.2,10.037,10.037,0,0,0-3.3-1.572l.576-1.142a18.543,18.543,0,0,0-3.2.537v4.707c2.187,0,4.437.026,4.9.085,2.576.294,4.163,1.637,4.542,5.437.08.849-.419,6.363.261,7.6.483.865,2.112-4.5,2.112-4.5S51.8,83.468,48.071,83.283" transform="translate(24.203 48.363)" fill="#272f3f"/>
    <path id="Trazado_780905" data-name="Trazado 780905" d="M41.586,102.215H39.434l-1.181,21.949,3.333,3.928.133-.157V102.215Z" transform="translate(22.904 61.202)" fill="#e29437"/>
    <path id="Trazado_780906" data-name="Trazado 780906" d="M42.443,102.215H40.421v25.721l3.2-3.771Z" transform="translate(24.202 61.202)" fill="#f4a338"/>
    <path id="Trazado_780907" data-name="Trazado 780907" d="M41.449,100.949l-2.731,1.233a1.17,1.17,0,0,0,0,1.41l2.168,1.855a.886.886,0,0,0,.7.179v-4.617Z" transform="translate(23.042 60.445)" fill="#f4a338"/>
    <path id="Trazado_780908" data-name="Trazado 780908" d="M43.027,102.159l-2.606-1.172V105.6a.832.832,0,0,0,.435-.181l2.171-1.85a1.175,1.175,0,0,0,0-1.413" transform="translate(24.203 60.467)" fill="#e29437"/>
    <path id="Trazado_780909" data-name="Trazado 780909" d="M39.069,104.885l-4.628-4.4,4.218-.95,5.21,2.248Z" transform="translate(20.622 59.601)" fill="#fdfffe"/>
    <path id="Trazado_780910" data-name="Trazado 780910" d="M45.14,104.885l4.63-4.4-4.229-.95-5.2,2.248Z" transform="translate(24.153 59.601)" fill="#e0e0e0"/>
    <path id="Trazado_780911" data-name="Trazado 780911" d="M38.48,101.874c-.042.032-1.332,1.165-2.058,1.915a35.488,35.488,0,0,0-6.355,9.61c-4.732,10.189-12.394,43.472-12.394,43.472l6.136,1.536,14.557-52.459c.077-2.449.123-4.083.114-4.075" transform="translate(10.583 60.999)" fill="#373f51"/>
    <path id="Trazado_780912" data-name="Trazado 780912" d="M21.513,156.882l5.788,1.447L35.368,126.1s.476-14.422.7-21.682Z" transform="translate(12.881 62.524)" fill="#242d3d"/>
    <path id="Trazado_780913" data-name="Trazado 780913" d="M40.63,99.729a36.157,36.157,0,0,0-6,1.615,11.011,11.011,0,0,0-1.5.742,18.7,18.7,0,0,0-1.557,1.148L29.047,162.54H46.021l1.21-6.058V127.8Z" transform="translate(17.392 59.714)" fill="#373f51"/>
    <path id="Trazado_780914" data-name="Trazado 780914" d="M33.988,109.52l1.946-4.555-2.353-1.66,1.9-3.042,2.44-.534,6.6,28.071Z" transform="translate(20.107 59.714)" fill="#242d3d"/>
    <path id="Trazado_780915" data-name="Trazado 780915" d="M47.021,99.729a35.909,35.909,0,0,1,5.994,1.615,10.81,10.81,0,0,1,1.5.742c.512.3,1.56,1.148,1.56,1.148L58.6,162.54H41.631l-1.21-6.058V127.8Z" transform="translate(24.203 59.714)" fill="#242d3d"/>
    <path id="Trazado_780916" data-name="Trazado 780916" d="M50.952,109.52,49,104.965l2.353-1.66-1.891-3.042-2.441-.534-6.6,28.071Z" transform="translate(24.203 59.714)" fill="#373f51"/>
    <path id="Trazado_780917" data-name="Trazado 780917" d="M41.924,120.8a1.583,1.583,0,0,0-1.583-1.583v3.167a1.583,1.583,0,0,0,1.583-1.584" transform="translate(24.155 71.384)" fill="#2b4d99"/>
    <path id="Trazado_780918" data-name="Trazado 780918" d="M40.93,119.217a1.585,1.585,0,0,0,0,3.17l0,0v-3.169Z" transform="translate(23.561 71.383)" fill="#242d3d"/>
    <path id="Trazado_780919" data-name="Trazado 780919" d="M40.93,125.614a1.583,1.583,0,0,0,0,3.166h0v-3.166Z" transform="translate(23.561 75.213)" fill="#242d3d"/>
    <path id="Trazado_780920" data-name="Trazado 780920" d="M41.924,127.2a1.583,1.583,0,0,0-1.583-1.581v3.166a1.584,1.584,0,0,0,1.583-1.584" transform="translate(24.155 75.213)" fill="#2b4d99"/>
    <path id="Trazado_780921" data-name="Trazado 780921" d="M41.924,133.592a1.583,1.583,0,0,0-1.583-1.584v3.167a1.581,1.581,0,0,0,1.583-1.583" transform="translate(24.155 79.042)" fill="#2b4d99"/>
    <path id="Trazado_780922" data-name="Trazado 780922" d="M39.35,133.593a1.58,1.58,0,0,0,1.58,1.583h0v-3.167l0,0a1.582,1.582,0,0,0-1.58,1.586" transform="translate(23.561 79.041)" fill="#242d3d"/>
    <path id="Trazado_780923" data-name="Trazado 780923" d="M126.1,146.927l-3.316,33.347h19.9V146.927Z" transform="translate(73.516 87.975)" fill="#242d3d"/>
    <path id="Trazado_780924" data-name="Trazado 780924" d="M151.811,146.927H135.224v33.347h19.9Z" transform="translate(80.967 87.975)" fill="#373f51"/>
    <rect id="Rectángulo_366610" data-name="Rectángulo 366610" width="24.739" height="2.9" transform="translate(191.454 268.25)" fill="#373f51"/>
    <rect id="Rectángulo_366611" data-name="Rectángulo 366611" width="24.744" height="2.9" transform="translate(216.191 268.25)" fill="#242d3d"/>
    <path id="Trazado_780925" data-name="Trazado 780925" d="M184.155,116.554h-48.93v71.634h48.93a4.848,4.848,0,0,0,4.833-4.833V121.389a4.845,4.845,0,0,0-4.833-4.835" transform="translate(80.968 69.788)" fill="#242d3d"/>
    <path id="Trazado_780926" data-name="Trazado 780926" d="M106.429,116.554a4.844,4.844,0,0,0-4.833,4.835v61.967a4.847,4.847,0,0,0,4.833,4.833h48.93V116.554Z" transform="translate(60.832 69.788)" fill="#373f51"/>
    <path id="Trazado_780927" data-name="Trazado 780927" d="M106.924,119.774a2.9,2.9,0,0,0-2.9,2.9V174.54a2.911,2.911,0,0,0,2.9,2.9h46.985V119.774Z" transform="translate(62.285 71.716)" fill="#688bd8"/>
    <path id="Trazado_780928" data-name="Trazado 780928" d="M182.2,119.774h-46.98v57.669H182.2a2.917,2.917,0,0,0,2.9-2.9V122.673a2.908,2.908,0,0,0-2.9-2.9" transform="translate(80.967 71.716)" fill="#5573c6"/>
    <path id="Trazado_780929" data-name="Trazado 780929" d="M162.155,147.783a26.928,26.928,0,0,1-26.93,26.928V120.852a26.93,26.93,0,0,1,26.93,26.931" transform="translate(80.968 72.362)" fill="#d5ecfc"/>
    <path id="Trazado_780930" data-name="Trazado 780930" d="M145.311,120.852v53.859a26.93,26.93,0,1,1,0-53.859" transform="translate(70.882 72.362)" fill="#fff"/>
    <rect id="Rectángulo_366612" data-name="Rectángulo 366612" width="5.789" height="11.93" transform="translate(210.405 223.67)" fill="#d49a6c"/>
    <rect id="Rectángulo_366613" data-name="Rectángulo 366613" width="5.788" height="11.93" transform="translate(216.195 223.67)" fill="#eac3a4"/>
    <path id="Trazado_780931" data-name="Trazado 780931" d="M128.638,135.565v6.144a10.449,10.449,0,0,0,10.533,10.363V125.2a10.449,10.449,0,0,0-10.533,10.363" transform="translate(77.024 74.967)" fill="#eac3a4"/>
    <path id="Trazado_780932" data-name="Trazado 780932" d="M135.226,125.2v26.872a10.45,10.45,0,0,0,10.533-10.365v-6.144A10.448,10.448,0,0,0,135.226,125.2" transform="translate(80.969 74.967)" fill="#d49a6c"/>
    <path id="Trazado_780933" data-name="Trazado 780933" d="M139.3,132.973V123.85a10.969,10.969,0,0,0-10.875,9.123Z" transform="translate(76.896 74.157)" fill="#f4a338"/>
    <path id="Trazado_780934" data-name="Trazado 780934" d="M146.1,132.973a10.967,10.967,0,0,0-10.875-9.123v9.123Z" transform="translate(80.969 74.157)" fill="#d88a4a"/>
    <path id="Trazado_780935" data-name="Trazado 780935" d="M133.55,134.762a1.174,1.174,0,1,0-1.172,1.157,1.166,1.166,0,0,0,1.172-1.157" transform="translate(78.558 79.997)" fill="#373f51"/>
    <path id="Trazado_780936" data-name="Trazado 780936" d="M140.131,134.762a1.175,1.175,0,1,0-1.175,1.157,1.169,1.169,0,0,0,1.175-1.157" transform="translate(82.498 79.997)" fill="#242d3d"/>
    <path id="Trazado_780937" data-name="Trazado 780937" d="M162.3,152.322a26.925,26.925,0,0,1-36.882,2.376,27.34,27.34,0,0,1-2.515-2.371l1.154-3.244c.054-.165.133-.318.2-.47a4.616,4.616,0,0,1,4.676-2.523l2.95-.814.189-.054.9-.241,3.847-1.052v5.489h11.581v-5.489l3.856,1.052.886.241,1.61.444,1.527.424a4.589,4.589,0,0,1,4.873,2.993Z" transform="translate(73.59 86.179)" fill="#e08d2b"/>
    <path id="Trazado_780938" data-name="Trazado 780938" d="M158.857,153.571v1.118a26.932,26.932,0,0,1-34.381.01v-1.127a.7.7,0,0,1,.708-.705h1.325a4.591,4.591,0,0,0,4.619-4.547v-3.1l.9-.24,3.845-1.052v5.487h11.581v-5.487l3.856,1.052.886.24v3.1a4.6,4.6,0,0,0,4.628,4.547h1.317a.708.708,0,0,1,.718.705" transform="translate(74.532 86.18)" fill="#f4a338"/>
    <path id="Trazado_780939" data-name="Trazado 780939" d="M128.417,129.556V135.4c0,1.03.158.734,1.044,1.143,2.712-.334,6.627-.7,9.844-2.109v-4.876Z" transform="translate(76.892 77.574)" fill="#f4a338"/>
    <path id="Trazado_780940" data-name="Trazado 780940" d="M135.226,129.556v4.876a8.816,8.816,0,0,0,5-4.74l-.993,4.139,4.393-2.908c-.262.336-1.965,2.779,1.177,6.694a2.507,2.507,0,0,0,1.306-2.219v-5.842Z" transform="translate(80.969 77.574)" fill="#d88a4a"/>
    <path id="Trazado_780941" data-name="Trazado 780941" d="M135.778,139.3a1.188,1.188,0,0,0-.588-.962v1.925a1.183,1.183,0,0,0,.588-.962" transform="translate(80.947 82.832)" fill="#373f51"/>
    <path id="Trazado_780942" data-name="Trazado 780942" d="M126.209,134.591c-1.727.707-2.492,3.409-1.712,6.221.679,2.462,2.326,4.221,3.957,4.432.571,1.3,1.85,3.68,3.824,4.393a12.948,12.948,0,0,0,4.387.764,12.281,12.281,0,0,0,2.617-.272,2.037,2.037,0,0,0,1.34.465,2.117,2.117,0,0,0,1.154-.328v-1.923a2.1,2.1,0,0,0-1.154-.329,1.6,1.6,0,0,0-1.739,1.218,12.116,12.116,0,0,1-6.285-.5c-1.49-.539-2.566-2.365-3.132-3.564.115-.032.126-.037.126-.037a.4.4,0,0,0,.2-.448,27.4,27.4,0,0,1-1-5.631,26.937,26.937,0,0,1,.371-3.466.477.477,0,0,0-.219-.467s-.192-.109-.47-.233a13.459,13.459,0,0,1,13.3-11.094V121.63a15.715,15.715,0,0,0-15.567,12.961" transform="translate(74.361 72.828)" fill="#373f51"/>
    <path id="Trazado_780943" data-name="Trazado 780943" d="M150.749,134.546A15.713,15.713,0,0,0,135.19,121.63V123.8a13.463,13.463,0,0,1,13.313,11.14c-.219.107-.363.187-.363.187a.486.486,0,0,0-.222.467,26.716,26.716,0,0,1,.374,3.466,27.285,27.285,0,0,1-1,5.632.4.4,0,0,0,.2.446s.008,0,.166.046c1.907.539,4.112-1.416,4.931-4.369.8-2.879-.026-5.632-1.835-6.266" transform="translate(80.947 72.828)" fill="#242d3d"/>
    <path id="Trazado_780944" data-name="Trazado 780944" d="M161.424,140.509a4.466,4.466,0,0,0-4.449,4.454V192.4a4.464,4.464,0,0,0,4.449,4.451h19.224V140.509Z" transform="translate(93.991 84.132)" fill="#373f51"/>
    <path id="Trazado_780945" data-name="Trazado 780945" d="M191,140.509h-19.22v56.337H191c2.446,0,4.451-.436,4.451-2.886v-49A4.466,4.466,0,0,0,191,140.509" transform="translate(102.858 84.132)" fill="#242d3d"/>
    <path id="Trazado_780946" data-name="Trazado 780946" d="M159.533,142.384a1.126,1.126,0,0,0-1.111,1.116v44.4a1.128,1.128,0,0,0,1.111,1.114h20.25V142.384Z" transform="translate(94.857 85.254)" fill="#688bd8"/>
    <path id="Trazado_780947" data-name="Trazado 780947" d="M192.035,142.384H171.783v46.634h20.252a1.129,1.129,0,0,0,1.11-1.114V143.5a1.127,1.127,0,0,0-1.11-1.116" transform="translate(102.858 85.254)" fill="#5573c6"/>
    <path id="Trazado_780948" data-name="Trazado 780948" d="M171.545,172.655a1.809,1.809,0,0,0-.676.128,1.691,1.691,0,0,0-1.1,1.57,1.743,1.743,0,0,0,1.783,1.7h1.444v-3.4Z" transform="translate(101.649 103.38)" fill="#242d3d"/>
    <path id="Trazado_780949" data-name="Trazado 780949" d="M174.485,173.152a1.817,1.817,0,0,0-1.26-.5h-1.442v3.4h1.442a1.882,1.882,0,0,0,.678-.126,1.693,1.693,0,0,0,1.1-1.572,1.639,1.639,0,0,0-.521-1.2" transform="translate(102.858 103.38)" fill="#373f51"/>
    <path id="Trazado_780950" data-name="Trazado 780950" d="M192.281,165.033a20.431,20.431,0,0,1-5.5,13.973c-.275.3-.561.585-.854.865-.339.323-.691.636-1.05.939-.462.382-.94.745-1.434,1.084a20.73,20.73,0,0,1-2.312,1.389c-.241.123-.484.24-.732.358-.181.082-.363.163-.548.241a20.394,20.394,0,0,1-8.064,1.648v-41a20.5,20.5,0,0,1,20.5,20.5" transform="translate(102.858 86.542)" fill="#d5ecfc"/>
    <path id="Trazado_780951" data-name="Trazado 780951" d="M179.46,144.535v41c-.067,0-.136,0-.206,0a.1.1,0,0,1-.032,0,20.372,20.372,0,0,1-8.509-1.951c-.013-.008-.027-.013-.043-.024-.3-.139-.588-.285-.876-.441a20.165,20.165,0,0,1-2.114-1.3c-.448-.312-.882-.646-1.3-.994-.4-.334-.79-.684-1.167-1.047-.254-.245-.5-.5-.745-.759a20.5,20.5,0,0,1,14.995-34.473" transform="translate(95.181 86.542)" fill="#fff"/>
    <path id="Trazado_780952" data-name="Trazado 780952" d="M166.842,151.19c-4.416,22.75.592,23.025,7.394,23.025.2,0,.4-.022.608-.03v-23Z" transform="translate(98.901 90.527)" fill="#373f51"/>
    <path id="Trazado_780953" data-name="Trazado 780953" d="M172.26,151.19v23c.2.008.4.03.609.03,6.8,0,11.807-.275,7.389-23.025Z" transform="translate(103.143 90.527)" fill="#242d3d"/>
    <path id="Trazado_780954" data-name="Trazado 780954" d="M170.943,162.3c-.062.075-.126.152-.184.229-.112.133-.216.269-.32.4s-.2.254-.293.379c-.131.174-.265.352-.395.532-.173.23-.339.468-.505.705-.019.03-.043.062-.062.093-.088.123-.171.249-.254.374-.1.141-.2.285-.288.428s-.187.288-.277.433c-.262.411-.52.827-.764,1.247l0,0c-.123.206-.241.412-.358.622l0,0c-.155.278-.307.555-.46.835-.265.486-.515.985-.763,1.484-.069.137-.134.275-.2.412q-.247.506-.476,1.014c-.448-.312-.883-.646-1.3-.994-.4-.334-.791-.686-1.169-1.047q1.5-3.038,3.3-5.954a3.689,3.689,0,0,1,.758-.873c.11-.093.227-.179.342-.259a3.549,3.549,0,0,1,1.831-.614,3.162,3.162,0,0,1,.649.045,2.962,2.962,0,0,1,1.2.5" transform="translate(97.52 96.853)" fill="#eac3a4"/>
    <path id="Trazado_780955" data-name="Trazado 780955" d="M170.835,166.821l-.347.572q-1.669,2.779-3.039,5.666c-.01.022-.022.045-.034.069,0-.029-.006-.059-.01-.091q-.446-.209-.876-.443a20.171,20.171,0,0,1-2.115-1.3c.153-.339.313-.676.475-1.014.066-.137.133-.275.2-.412.249-.5.5-1,.766-1.484.152-.283.3-.558.459-.835l0,0c.118-.209.237-.416.36-.622l0,0q.369-.631.764-1.247c.093-.145.184-.289.278-.433s.19-.288.286-.428.168-.251.256-.374c.018-.03.042-.062.062-.093.165-.237.333-.475.5-.705.13-.181.262-.358.393-.532.1-.125.193-.253.294-.379s.213-.269.32-.4c.058-.077.122-.153.182-.229a3.191,3.191,0,0,1,.886.97,3.652,3.652,0,0,1-.067,3.752" transform="translate(98.445 97.059)" fill="#d49a6c"/>
    <path id="Trazado_780956" data-name="Trazado 780956" d="M183.672,169.56c-.341.323-.692.636-1.05.938-.462.382-.94.745-1.434,1.084-.64-1.416-1.343-2.8-2.112-4.133-.144-.251-.289-.5-.438-.747-.166-.272-.333-.539-.5-.806a36.724,36.724,0,0,0-2.59-3.594,2.972,2.972,0,0,1,1.909-.542,3.362,3.362,0,0,1,1.137.267c.038.014.074.03.107.046.078.037.155.075.232.118a3.713,3.713,0,0,1,.66.457,3.8,3.8,0,0,1,.734.852q1.83,2.964,3.349,6.058" transform="translate(105.11 96.854)" fill="#eac3a4"/>
    <path id="Trazado_780957" data-name="Trazado 780957" d="M181.7,171.377a20.59,20.59,0,0,1-2.312,1.389c-.241.123-.484.241-.731.358-.126-.264-.253-.529-.382-.791q-1.228-2.508-2.683-4.934c-.117-.192-.233-.387-.353-.579a3.551,3.551,0,0,1,.819-4.723,36.725,36.725,0,0,1,2.59,3.594c.171.267.337.534.5.806.152.246.3.5.441.747.769,1.335,1.472,2.716,2.11,4.133" transform="translate(104.597 97.059)" fill="#d49a6c"/>
    <path id="Trazado_780958" data-name="Trazado 780958" d="M175.266,158.892v18.04a.1.1,0,0,1-.032,0,20.37,20.37,0,0,1-8.509-1.949l-.032.067c0-.029-.008-.059-.011-.091-.283-2.232-.539-4.357-.729-6.112-.134-1.268-.24-2.344-.289-3.134a3.767,3.767,0,0,1,.026-1.463,9.421,9.421,0,0,1,1.757-.777l.4-.134a27.636,27.636,0,0,1,4.608-.972l.006.016v-3.489Z" transform="translate(99.169 95.139)" fill="#d49a6c"/>
    <path id="Trazado_780959" data-name="Trazado 780959" d="M181.206,166.473c-.062.568-.144,1.223-.24,1.944-.225,1.663-.531,3.682-.873,5.834-.054.342-.112.686-.169,1.034a20.394,20.394,0,0,1-8.064,1.648c-.067,0-.136,0-.206,0v-18.04h3.089v3.525l.021-.053a28.935,28.935,0,0,1,3.674.7c.476.125.93.262,1.346.408a10.232,10.232,0,0,1,1.49.625,6.132,6.132,0,0,1-.067,2.373" transform="translate(102.78 95.139)" fill="#eac3a4"/>
    <path id="Trazado_780960" data-name="Trazado 780960" d="M175.272,166.165v9.145a20.37,20.37,0,0,1-8.507-1.95c-.01.022-.022.043-.034.069,0-.03-.008-.059-.011-.093-.3-.139-.588-.285-.875-.441-.086-1.8-.163-3.527-.214-5.049-.058-1.747-.088-3.214-.074-4.184v0a5.269,5.269,0,0,1,.1-1.194.134.134,0,0,1,.037-.062,10.736,10.736,0,0,1,2.035-.8s.058.043.163.118c.064.048.147.107.245.179.248.182.6.435,1.015.731.323.229.684.48,1.068.742a28.824,28.824,0,0,0,4.4,2.6,3.094,3.094,0,0,0,.657.193" transform="translate(99.128 96.76)" fill="#f4a338"/>
    <path id="Trazado_780961" data-name="Trazado 780961" d="M181.417,167.637c-.042,1.644-.115,3.548-.2,5.522-.24.123-.484.241-.731.358-.181.083-.365.163-.55.241a20.4,20.4,0,0,1-8.064,1.648c-.067,0-.136,0-.206,0a.109.109,0,0,1-.032,0v-9.143l.032.006a1.008,1.008,0,0,0,.118.018c.027,0,.056,0,.088,0a2.508,2.508,0,0,0,.766-.262,36.046,36.046,0,0,0,5.812-4.475c.069-.066.11-.1.11-.1a15.213,15.213,0,0,1,2.373.774.951.951,0,0,1,.107.048c.072.032.142.064.208.1a.063.063,0,0,1,.024.019,6.3,6.3,0,0,1,.182,2.048c.01.868,0,1.963-.035,3.209" transform="translate(102.768 96.666)" fill="#e08d2b"/>
    <path id="Trazado_780962" data-name="Trazado 780962" d="M175.052,145.93a8.417,8.417,0,1,0,0,16.811c.027,0,.053,0,.08,0v-16.8c-.027,0-.053,0-.08,0" transform="translate(99.513 87.378)" fill="#373f51"/>
    <path id="Trazado_780963" data-name="Trazado 780963" d="M180.557,154.336a8.628,8.628,0,0,0-8.771-8.4v16.8a8.626,8.626,0,0,0,8.771-8.4" transform="translate(102.859 87.38)" fill="#242d3d"/>
    <path id="Trazado_780964" data-name="Trazado 780964" d="M171.8,147.952c-.048,0-.094.01-.142.01v18.9c.048,0,.094.008.142.008,4.448,0,8.051-4.234,8.051-9.458s-3.6-9.461-8.051-9.461" transform="translate(102.78 88.588)" fill="#d49a6c"/>
    <path id="Trazado_780965" data-name="Trazado 780965" d="M166.707,157.41c0,5.167,3.53,9.359,7.909,9.45v-18.9c-4.379.09-7.909,4.283-7.909,9.452" transform="translate(99.818 88.592)" fill="#eac3a4"/>
    <path id="Trazado_780966" data-name="Trazado 780966" d="M169.857,155.161a1.853,1.853,0,1,1-1.826-2.17,2.019,2.019,0,0,1,1.826,2.17" transform="translate(99.518 91.606)" fill="#eac3a4"/>
    <path id="Trazado_780967" data-name="Trazado 780967" d="M178.649,155.161a1.854,1.854,0,1,1-1.823-2.17,2.018,2.018,0,0,1,1.823,2.17" transform="translate(104.781 91.606)" fill="#d49a6c"/>
    <path id="Trazado_780968" data-name="Trazado 780968" d="M172.889,148.173c-.585,2.684,1.245,5.138,3.426,6.4a16.822,16.822,0,0,1,2.884,2.078,6.345,6.345,0,0,0-.42-5.979c-1.925-3.038-5.6-3.818-5.89-2.494" transform="translate(103.454 88.35)" fill="#242d3d"/>
    <path id="Trazado_780969" data-name="Trazado 780969" d="M167.139,151.071c-.767,1.367-.488,8.323.628,6.408,1.573-2.707,4.339-3.685,7.06-4.766v-5.644c-2.712.133-5.992.972-7.688,4" transform="translate(99.818 88.06)" fill="#373f51"/>
    <path id="Trazado_780970" data-name="Trazado 780970" d="M176.127,147.4a18.156,18.156,0,0,0-4.342-.323v5.644a13.862,13.862,0,0,0,5.287-3.124c1.533-1.637-.98-2.178-.945-2.2" transform="translate(102.859 88.053)" fill="#242d3d"/>
    <path id="Trazado_780971" data-name="Trazado 780971" d="M169.691,153.889a.974.974,0,1,0,.975.972.972.972,0,0,0-.975-.972" transform="translate(101.024 92.143)" fill="#373f51"/>
    <path id="Trazado_780972" data-name="Trazado 780972" d="M174.342,153.889a.974.974,0,1,0,.974.972.972.972,0,0,0-.974-.972" transform="translate(103.809 92.143)" fill="#242d3d"/>
    <path id="Trazado_780973" data-name="Trazado 780973" d="M143.11,147.888a2.847,2.847,0,0,0-2.9,2.771l.006,39a2.842,2.842,0,0,0,2.9,2.766l9.42,0V147.888Z" transform="translate(83.952 88.55)" fill="#373f51"/>
    <path id="Trazado_780974" data-name="Trazado 780974" d="M160.238,150.656a2.846,2.846,0,0,0-2.9-2.767h-9.417v44.538l9.423,0a2.843,2.843,0,0,0,2.9-2.766Z" transform="translate(88.568 88.551)" fill="#242d3d"/>
    <path id="Trazado_780975" data-name="Trazado 780975" d="M159.076,151.764a1.14,1.14,0,0,0-1.162-1.106l-10,0V183.88l10,0a1.139,1.139,0,0,0,1.162-1.106Z" transform="translate(88.568 90.209)" fill="#5573c6"/>
    <path id="Trazado_780976" data-name="Trazado 780976" d="M142.1,150.659a1.138,1.138,0,0,0-1.161,1.108l0,31.008a1.137,1.137,0,0,0,1.157,1.106l10,0V150.659Z" transform="translate(84.387 90.209)" fill="#688bd8"/>
    <path id="Trazado_780977" data-name="Trazado 780977" d="M147.7,172.633a1.708,1.708,0,0,0-.625.117,1.571,1.571,0,0,0-1.022,1.452,1.615,1.615,0,0,0,1.647,1.572h1.338v-3.14Z" transform="translate(87.45 103.367)" fill="#242d3d"/>
    <path id="Trazado_780978" data-name="Trazado 780978" d="M150.415,173.09a1.675,1.675,0,0,0-1.162-.457h-1.335v3.14h1.335a1.721,1.721,0,0,0,.624-.118h0a1.566,1.566,0,0,0,1.02-1.453,1.528,1.528,0,0,0-.483-1.111" transform="translate(88.568 103.367)" fill="#373f51"/>
    <path id="Trazado_780979" data-name="Trazado 780979" d="M146.441,149.053a.616.616,0,1,0,0,1.231h2.747v-1.231Z" transform="translate(87.299 89.248)" fill="#242d3d"/>
    <path id="Trazado_780980" data-name="Trazado 780980" d="M150.656,149.053h-2.739v1.231h2.74a.616.616,0,1,0,0-1.231" transform="translate(88.567 89.248)" fill="#373f51"/>
    <path id="Trazado_780981" data-name="Trazado 780981" d="M158.5,165.782A10.559,10.559,0,0,1,155.658,173l-.006,0c-.139.149-.285.3-.437.44-.174.168-.353.329-.544.484q-.314.264-.656.5a.765.765,0,0,1-.083.058,9.748,9.748,0,0,1-1.033.632c-.032.018-.061.034-.091.048s-.046.024-.07.038c-.123.061-.248.125-.377.185-.093.04-.185.083-.283.125a10.165,10.165,0,0,1-1.14.412,10.57,10.57,0,0,1-3.02.438V155.2A10.581,10.581,0,0,1,158.5,165.782" transform="translate(88.568 92.928)" fill="#d5ecfc"/>
    <path id="Trazado_780982" data-name="Trazado 780982" d="M151.88,155.2v21.161h-.01c-.032,0-.064,0-.1,0l-.016,0a10.506,10.506,0,0,1-3-.467,10.656,10.656,0,0,1-1.391-.539l-.024-.011c-.12-.058-.238-.117-.358-.182-.03-.013-.061-.03-.093-.046l-.011-.006a10.6,10.6,0,0,1-1.081-.665l-.019-.016c-.227-.158-.443-.326-.651-.5s-.409-.353-.6-.542c-.131-.123-.257-.254-.382-.385l0,0a10.581,10.581,0,0,1,7.741-17.8" transform="translate(84.604 92.928)" fill="#fff"/>
    <path id="Trazado_780983" data-name="Trazado 780983" d="M153.364,166.783c.168.363.349.823.537,1.353-.141.149-.286.3-.438.44-.174.168-.353.329-.54.484q-.319.264-.659.5l-1.353-4.878v0l-.038-.133c-.021-.67-.034-1.137-.034-1.212v-.013c.011.011.4.352.619.576a10.7,10.7,0,0,1,1.906,2.884" transform="translate(90.318 97.792)" fill="#373f51"/>
    <path id="Trazado_780984" data-name="Trazado 780984" d="M152.253,169.1c-.027.019-.054.04-.083.058a10.184,10.184,0,0,1-1.033.632c-.032.016-.061.034-.091.048-.043-1.335-.134-4.136-.184-5.752l.037.133v0Z" transform="translate(90.331 98.25)" fill="#242d3d"/>
    <rect id="Rectángulo_366614" data-name="Rectángulo 366614" width="1.479" height="2.536" transform="translate(234.998 258.571)" fill="#d49a6c"/>
    <rect id="Rectángulo_366615" data-name="Rectángulo 366615" width="1.401" height="2.536" transform="translate(236.476 258.571)" fill="#eac3a4"/>
    <path id="Trazado_780985" data-name="Trazado 780985" d="M152.545,163.975l-1.6,7.461a10.582,10.582,0,0,1-3.022.438h-.008v-8.629l.008,0,1.393-.433.387-.117.168.077.636.286.358.161Z" transform="translate(88.564 97.415)" fill="#fdfffe"/>
    <path id="Trazado_780986" data-name="Trazado 780986" d="M149.676,163.246v8.629c-.034,0-.064,0-.1,0l-.014,0a10.488,10.488,0,0,1-3-.467L145,164.127l-.029-.141,0-.011,0,0,.034-.014,1.754-.79.249-.114.705-.317.1-.046.387.118,1.439.448Z" transform="translate(86.801 97.415)" fill="#dcdcdc"/>
    <path id="Trazado_780987" data-name="Trazado 780987" d="M145.49,160.322a4.006,4.006,0,0,0,3.872,4.13v-7.844c-2.452,0-3.872,1.432-3.872,3.714" transform="translate(87.114 93.771)" fill="#373f51"/>
    <path id="Trazado_780988" data-name="Trazado 780988" d="M147.912,156.608v7.844a4,4,0,0,0,3.871-4.13c0-2.281-1.207-3.714-3.871-3.714" transform="translate(88.564 93.771)" fill="#242d3d"/>
    <path id="Trazado_780989" data-name="Trazado 780989" d="M145.862,161.285a3.67,3.67,0,0,0,3.341,3.925v-7.848a3.668,3.668,0,0,0-3.341,3.923" transform="translate(87.337 94.223)" fill="#eac3a4"/>
    <path id="Trazado_780990" data-name="Trazado 780990" d="M147.952,157.362v7.848a3.975,3.975,0,0,0,0-7.848" transform="translate(88.588 94.223)" fill="#d49a6c"/>
    <path id="Trazado_780991" data-name="Trazado 780991" d="M147.129,160.35a.768.768,0,1,1-.758-.9.838.838,0,0,1,.758.9" transform="translate(87.189 95.475)" fill="#eac3a4"/>
    <path id="Trazado_780992" data-name="Trazado 780992" d="M150.775,160.35a.768.768,0,1,1-.756-.9.837.837,0,0,1,.756.9" transform="translate(89.372 95.475)" fill="#d49a6c"/>
    <path id="Trazado_780993" data-name="Trazado 780993" d="M148.613,157.244a3.626,3.626,0,0,0-1.073.5,1.855,1.855,0,0,0-.518-.059c-1.121.054-1.249,3.4-1.249,3.4s.484,1.61.63,1.353a9.754,9.754,0,0,0,.078-2.28c.114-1.141.593-1.543,1.365-1.631.131-.016.729-.026,1.343-.026v-1.413a5.51,5.51,0,0,0-.577.15" transform="translate(87.284 94.062)" fill="#373f51"/>
    <path id="Trazado_780994" data-name="Trazado 780994" d="M150.207,157.749a1.848,1.848,0,0,0-.518.059,3.039,3.039,0,0,0-.99-.47l.173-.344a5.578,5.578,0,0,0-.961.161v1.413c.659,0,1.33.006,1.471.024.772.09,1.25.491,1.362,1.632a9.94,9.94,0,0,0,.08,2.28c.145.257.632-1.353.632-1.353s-.128-3.351-1.249-3.4" transform="translate(88.564 94.002)" fill="#242d3d"/>
    <path id="Trazado_780995" data-name="Trazado 780995" d="M148.262,163.426h-.646l-.355,6.584,1,1.178.04-.046v-7.716Z" transform="translate(88.175 97.854)" fill="#f4a338"/>
    <path id="Trazado_780996" data-name="Trazado 780996" d="M148.519,163.426h-.608v7.716l.961-1.132Z" transform="translate(88.564 97.854)" fill="#f4a338"/>
    <path id="Trazado_780997" data-name="Trazado 780997" d="M148.22,163.047l-.82.369a.357.357,0,0,0,0,.424l.652.556a.261.261,0,0,0,.208.054v-1.386Z" transform="translate(88.216 97.627)" fill="#f4a338"/>
    <path id="Trazado_780998" data-name="Trazado 780998" d="M148.694,163.41l-.782-.353v1.386a.271.271,0,0,0,.131-.054l.651-.555a.357.357,0,0,0,0-.424" transform="translate(88.564 97.633)" fill="#f4a338"/>
    <path id="Trazado_780999" data-name="Trazado 780999" d="M147.507,164.227l-1.388-1.317,1.265-.285,1.562.675Z" transform="translate(87.491 97.374)" fill="#fdfffe"/>
    <path id="Trazado_781000" data-name="Trazado 781000" d="M149.326,164.227l1.389-1.317-1.268-.285-1.56.675Z" transform="translate(88.55 97.374)" fill="#dcdcdc"/>
    <path id="Trazado_781001" data-name="Trazado 781001" d="M146.133,163.582l0,.168c-.006.2-.013.476-.024.8l-.054.2-1.337,4.817c-.225-.158-.441-.326-.649-.5s-.409-.353-.6-.542c-.131-.123-.257-.254-.382-.385.189-.531.368-.99.537-1.353a10.625,10.625,0,0,1,1.907-2.884c.184-.192.491-.464.585-.548a.141.141,0,0,0,.03-.027s0,.093,0,.259" transform="translate(85.67 97.792)" fill="#373f51"/>
    <path id="Trazado_781002" data-name="Trazado 781002" d="M145.492,164.089c-.051,1.616-.142,4.414-.185,5.749-.032-.014-.061-.032-.094-.048l-.011,0a10.422,10.422,0,0,1-1.079-.667l-.021-.014,1.337-4.819Z" transform="translate(86.283 98.251)" fill="#242d3d"/>
    <path id="Trazado_781003" data-name="Trazado 781003" d="M149.781,171.1v.782c-.034,0-.064,0-.1,0l-.014,0a10.435,10.435,0,0,1-3-.468,10.215,10.215,0,0,1-1.391-.539l-.024-.01c-.12-.059-.238-.118-.358-.182-.03-.013-.061-.03-.093-.046l-.011-.006.235-5.5.05-1.135v-.013l.008-.246v0a5.63,5.63,0,0,1,.468-.345,3.287,3.287,0,0,1,.451-.222,7.025,7.025,0,0,1,.916-.288l.152-.038.016,0,.01,0,.451-.1.021,0c.08-.018.155-.035.235-.05l.014.064.3,1.271.791,3.367Z" transform="translate(86.695 97.408)" fill="#373f51"/>
    <path id="Trazado_781004" data-name="Trazado 781004" d="M145.983,165.617l.582-1.365-.7-.5.564-.911.734-.16,1.981,8.419Z" transform="translate(87.336 97.408)" fill="#242d3d"/>
    <path id="Trazado_781005" data-name="Trazado 781005" d="M152.9,170.635c-.032.018-.061.034-.091.048s-.046.024-.07.038c-.123.061-.248.125-.377.185-.093.04-.185.083-.283.125a10.168,10.168,0,0,1-1.14.412,10.571,10.571,0,0,1-3.02.438h-.01V171.1l.01-.032.8-3.413v0l.542-2.3.334-1.428.269-1.145.019-.085,0-.011c.233.048.475.1.71.155l.024,0a7.668,7.668,0,0,1,1.063.326,3.312,3.312,0,0,1,.452.222,5.244,5.244,0,0,1,.454.333l.014.013.058,1.332v0Z" transform="translate(88.564 97.408)" fill="#242d3d"/>
    <path id="Trazado_781006" data-name="Trazado 781006" d="M151.072,165.617l-.585-1.365.7-.5-.564-.911-.734-.16-1.981,8.419Z" transform="translate(88.564 97.408)" fill="#373f51"/>
    <path id="Trazado_781007" data-name="Trazado 781007" d="M147.147,159.6a.383.383,0,1,0,.382.382.381.381,0,0,0-.382-.382" transform="translate(87.876 95.562)" fill="#373f51"/>
    <path id="Trazado_781008" data-name="Trazado 781008" d="M148.974,159.6a.383.383,0,1,0,.381.382.38.38,0,0,0-.381-.382" transform="translate(88.972 95.562)" fill="#242d3d"/>
    <rect id="Rectángulo_366616" data-name="Rectángulo 366616" width="1.921" height="10.153" transform="matrix(0.976, -0.216, 0.216, 0.976, 156.052, 167.645)" fill="#373f51"/>
    <rect id="Rectángulo_366617" data-name="Rectángulo 366617" width="1.922" height="10.153" transform="translate(157.925 167.232) rotate(-12.488)" fill="#242d3d"/>
    <path id="Trazado_781009" data-name="Trazado 781009" d="M111.9,92.055l1.375,6.408a11.2,11.2,0,0,1-8.507,13.249l-.069.016a11.183,11.183,0,0,1-13.262-8.576L90.085,96.88l-1.594.349,1.343,6.266a12.824,12.824,0,0,0,15.2,9.831l.075-.019a12.83,12.83,0,0,0,9.754-15.187l-1.378-6.414Z" transform="translate(52.985 54.91)" fill="#242d3d"/>
    <rect id="Rectángulo_366618" data-name="Rectángulo 366618" width="7.628" height="2.991" transform="translate(152.214 176.725) rotate(-12.409)" fill="#242d3d"/>
    <rect id="Rectángulo_366619" data-name="Rectángulo 366619" width="7.633" height="2.992" transform="translate(159.662 175.081) rotate(-12.459)" fill="#373f51"/>
    <rect id="Rectángulo_366620" data-name="Rectángulo 366620" width="13.427" height="3.691" transform="translate(147.197 180.895) rotate(-12.429)" fill="#373f51"/>
    <rect id="Rectángulo_366621" data-name="Rectángulo 366621" width="13.429" height="3.688" transform="translate(160.308 178.002) rotate(-12.462)" fill="#242d3d"/>
    <path id="Trazado_781010" data-name="Trazado 781010" d="M90.377,96.347l1.089,5.079a9.978,9.978,0,0,0,11.852,7.663c.072-.014.134-.035.2-.05l-3.289-14.87Z" transform="translate(54.115 56.385)" fill="#373f51"/>
    <path id="Trazado_781011" data-name="Trazado 781011" d="M96.541,94.967l3.289,14.872a9.976,9.976,0,0,0,7.458-11.807l-1.113-5.2Z" transform="translate(57.805 55.587)" fill="#242d3d"/>
    <path id="Trazado_781012" data-name="Trazado 781012" d="M96.953,82.678l4.059,18.368-9.852,2.181-.643-2.988-.534-2.491L89.628,96.1l-.334-1.572c-.067-.31-.122-.624-.157-.934a9.985,9.985,0,0,1,7.816-10.918" transform="translate(53.331 49.505)" fill="#fff"/>
    <path id="Trazado_781013" data-name="Trazado 781013" d="M105.853,90.423l.313,1.453.352,1.645.532,2.491L107.7,99l-9.637,2.128L94,82.762a9.982,9.982,0,0,1,11.577,6.632,10.611,10.611,0,0,1,.277,1.03" transform="translate(56.284 49.421)" fill="#e1edf7"/>
    <rect id="Rectángulo_366622" data-name="Rectángulo 366622" width="26.858" height="1.229" transform="translate(140.867 152.273) rotate(-12.465)" fill="#fff"/>
    <rect id="Rectángulo_366623" data-name="Rectángulo 366623" width="26.86" height="1.227" transform="matrix(0.976, -0.216, 0.216, 0.976, 141.132, 153.48)" fill="#e1edf7"/>
    <path id="Trazado_781014" data-name="Trazado 781014" d="M94.811,92.582a1.273,1.273,0,0,1-.97,1.516l-3.666.812-.534-2.492,3.65-.807a1.277,1.277,0,0,1,1.52.972" transform="translate(53.674 54.835)" fill="#e1edf7"/>
    <path id="Trazado_781015" data-name="Trazado 781015" d="M94.213,89.992a1.272,1.272,0,0,1-.97,1.52l-3.642.806-.334-1.568a9.1,9.1,0,0,1-.155-.934l3.581-.791a1.275,1.275,0,0,1,1.52.967" transform="translate(53.357 53.286)" fill="#e1edf7"/>
    <path id="Trazado_781016" data-name="Trazado 781016" d="M103.594,89.407l.532,2.494-3.693.819a1.275,1.275,0,0,1-1.519-.967,1.273,1.273,0,0,1,.97-1.52Z" transform="translate(59.208 53.534)" fill="#fff"/>
    <path id="Trazado_781017" data-name="Trazado 781017" d="M103.271,87.856l.313,1.453-3.724.823a1.275,1.275,0,0,1-1.349-1.93,1.252,1.252,0,0,1,.8-.56l3.684-.817a10.61,10.61,0,0,1,.277,1.03" transform="translate(58.866 51.988)" fill="#fff"/>
    <path id="Trazado_781018" data-name="Trazado 781018" d="M67.974,7.418a5.57,5.57,0,0,1,5.554,5.554V33.515a5.571,5.571,0,0,1-5.554,5.553h-6.62l2.967,8.844c.291.871-.115,1.2-.9.732L51.588,41.616V7.418Z" transform="translate(30.889 4.442)" fill="#4adbd1"/>
    <path id="Trazado_781019" data-name="Trazado 781019" d="M51.589,26.848v3.757l11.828,7.028c.79.465,1.2.137.9-.732l-1.042-3.108Z" transform="translate(30.89 16.076)" fill="#3dc1b4"/>
    <path id="Trazado_781020" data-name="Trazado 781020" d="M43.419,7.418H59.806v34.2l-3.768-2.24a1.528,1.528,0,0,1-.385-.309H43.419a5.568,5.568,0,0,1-5.554-5.553V12.972a5.568,5.568,0,0,1,5.554-5.554" transform="translate(22.672 4.442)" fill="#3dc1b4"/>
    <path id="Trazado_781021" data-name="Trazado 781021" d="M31.425,2.687a4.387,4.387,0,0,0-4.374,4.376V23.254a4.388,4.388,0,0,0,4.374,4.377h5.218L34.308,34.6c-.232.684.088.943.71.574l9.322-5.538V2.687Z" transform="translate(16.197 1.609)" fill="#688bd8"/>
    <path id="Trazado_781022" data-name="Trazado 781022" d="M41.651,17.692v2.963l-9.322,5.537c-.622.369-.942.11-.71-.577l.82-2.451Z" transform="translate(18.887 10.593)" fill="#5573c6"/>
    <path id="Trazado_781023" data-name="Trazado 781023" d="M50.78,2.687H37.865v26.95l2.969-1.762a1.229,1.229,0,0,0,.3-.245H50.78a4.387,4.387,0,0,0,4.374-4.377V7.063A4.386,4.386,0,0,0,50.78,2.687" transform="translate(22.672 1.609)" fill="#5573c6"/>
    <path id="Trazado_781024" data-name="Trazado 781024" d="M41.228,12.09a2.6,2.6,0,1,0,2.6-2.6,2.6,2.6,0,0,0-2.6,2.6" transform="translate(24.686 5.682)" fill="#fff"/>
    <path id="Trazado_781025" data-name="Trazado 781025" d="M36.239,12.09a2.6,2.6,0,1,0,2.6-2.6,2.6,2.6,0,0,0-2.6,2.6" transform="translate(21.699 5.682)" fill="#fff"/>
    <path id="Trazado_781026" data-name="Trazado 781026" d="M31.25,12.09a2.6,2.6,0,1,0,2.6-2.6,2.6,2.6,0,0,0-2.6,2.6" transform="translate(18.711 5.682)" fill="#fff"/>
    <path id="Trazado_781027" data-name="Trazado 781027" d="M5.343,27.765A5.36,5.36,0,0,0,0,33.11V90.048A5.358,5.358,0,0,0,5.343,95.39H28.416V27.765Z" transform="translate(0 16.625)" fill="#373f51"/>
    <path id="Trazado_781028" data-name="Trazado 781028" d="M40.846,27.765H17.773V95.39H40.846c2.939,0,5.343-.524,5.343-3.466V33.11a5.359,5.359,0,0,0-5.343-5.345" transform="translate(10.642 16.625)" fill="#242d3d"/>
    <path id="Trazado_781029" data-name="Trazado 781029" d="M3.07,30.016a1.352,1.352,0,0,0-1.335,1.335v53.3A1.356,1.356,0,0,0,3.07,85.992H27.376V30.016Z" transform="translate(1.039 17.973)" fill="#688bd8"/>
    <path id="Trazado_781030" data-name="Trazado 781030" d="M42.082,30.016H17.774V85.992H42.082a1.355,1.355,0,0,0,1.333-1.337v-53.3a1.352,1.352,0,0,0-1.333-1.335" transform="translate(10.642 17.973)" fill="#5573c6"/>
    <path id="Trazado_781031" data-name="Trazado 781031" d="M17.489,66.351a2.189,2.189,0,0,0-.812.153,2.033,2.033,0,0,0-1.325,1.885,2.094,2.094,0,0,0,2.139,2.038h1.733V66.351Z" transform="translate(9.192 39.729)" fill="#242d3d"/>
    <path id="Trazado_781032" data-name="Trazado 781032" d="M21.019,66.947a2.179,2.179,0,0,0-1.512-.6H17.774v4.077h1.733a2.215,2.215,0,0,0,.814-.153,2.034,2.034,0,0,0,1.325-1.887,1.983,1.983,0,0,0-.627-1.44" transform="translate(10.642 39.729)" fill="#373f51"/>
    <path id="Trazado_781033" data-name="Trazado 781033" d="M40.435,56.009A22.66,22.66,0,0,1,17.774,78.672V33.347A22.663,22.663,0,0,1,40.435,56.009" transform="translate(10.642 19.967)" fill="#fff"/>
    <path id="Trazado_781034" data-name="Trazado 781034" d="M26.261,33.347V78.672A22.59,22.59,0,0,1,11.8,73.458a23.325,23.325,0,0,1-2.114-2A22.662,22.662,0,0,1,26.261,33.347" transform="translate(2.155 19.967)" fill="#e1edf7"/>
    <rect id="Rectángulo_366624" data-name="Rectángulo 366624" width="4.871" height="10.039" transform="translate(23.547 78.945)" fill="#d49a6c"/>
    <rect id="Rectángulo_366625" data-name="Rectángulo 366625" width="4.871" height="10.039" transform="translate(28.416 78.945)" fill="#eac3a4"/>
    <path id="Trazado_781035" data-name="Trazado 781035" d="M12.231,45.73V50.9a8.792,8.792,0,0,0,8.862,8.721V37.009a8.79,8.79,0,0,0-8.862,8.721" transform="translate(7.323 22.16)" fill="#eac3a4"/>
    <path id="Trazado_781036" data-name="Trazado 781036" d="M17.774,37.008V59.623A8.793,8.793,0,0,0,26.638,50.9v-5.17a8.792,8.792,0,0,0-8.864-8.723" transform="translate(10.642 22.159)" fill="#d49a6c"/>
    <path id="Trazado_781037" data-name="Trazado 781037" d="M21.2,43.549V35.872a9.228,9.228,0,0,0-9.151,7.677Z" transform="translate(7.215 21.479)" fill="#f4a338"/>
    <path id="Trazado_781038" data-name="Trazado 781038" d="M26.927,43.549a9.229,9.229,0,0,0-9.153-7.677v7.677Z" transform="translate(10.642 21.479)" fill="#d88a4a"/>
    <path id="Trazado_781039" data-name="Trazado 781039" d="M16.364,45.051a.988.988,0,1,0-.988.972.978.978,0,0,0,.988-.972" transform="translate(8.615 26.394)" fill="#373f51"/>
    <path id="Trazado_781040" data-name="Trazado 781040" d="M21.9,45.051a.988.988,0,1,0-.988.972.978.978,0,0,0,.988-.972" transform="translate(11.93 26.394)" fill="#242d3d"/>
    <path id="Trazado_781041" data-name="Trazado 781041" d="M40.56,59.833a22.662,22.662,0,0,1-31.04,2,23.324,23.324,0,0,1-2.114-2L8.375,57.1c.048-.137.114-.265.169-.393a3.881,3.881,0,0,1,3.935-2.123L14.96,53.9l.158-.043.755-.2,3.236-.887v4.622h9.748V52.766l3.244.887.747.2,1.356.374,1.284.357a3.866,3.866,0,0,1,4.1,2.516Z" transform="translate(4.434 31.594)" fill="#e08d2b"/>
    <path id="Trazado_781042" data-name="Trazado 781042" d="M37.661,60.881v.943a22.671,22.671,0,0,1-28.934.008v-.951a.591.591,0,0,1,.6-.592h1.116a3.861,3.861,0,0,0,3.887-3.826V53.856l.755-.2,3.236-.887v4.62h9.748v-4.62l3.244.887.747.2v2.608a3.868,3.868,0,0,0,3.9,3.826h1.106a.6.6,0,0,1,.6.592" transform="translate(5.225 31.595)" fill="#f4a338"/>
    <path id="Trazado_781043" data-name="Trazado 781043" d="M12.044,40.674v4.915c0,.867.133.617.883.964A30.1,30.1,0,0,0,21.2,44.775v-4.1Z" transform="translate(7.212 24.354)" fill="#f4a338"/>
    <path id="Trazado_781044" data-name="Trazado 781044" d="M17.774,40.674v4.1a7.412,7.412,0,0,0,4.213-3.987l-.838,3.482,3.7-2.445c-.222.28-1.652,2.337.99,5.629a2.1,2.1,0,0,0,1.1-1.866V40.674Z" transform="translate(10.642 24.354)" fill="#d88a4a"/>
    <path id="Trazado_781045" data-name="Trazado 781045" d="M18.24,48.873a.989.989,0,0,0-.5-.809V49.68a.986.986,0,0,0,.5-.807" transform="translate(10.624 28.779)" fill="#373f51"/>
    <path id="Trazado_781046" data-name="Trazado 781046" d="M10.187,44.91c-1.455.595-2.1,2.867-1.442,5.234.571,2.07,1.957,3.552,3.332,3.732.48,1.1,1.552,3.1,3.217,3.7a10.9,10.9,0,0,0,3.692.643,10.521,10.521,0,0,0,2.2-.227,1.722,1.722,0,0,0,1.127.39,1.757,1.757,0,0,0,.972-.278V56.483a1.783,1.783,0,0,0-.972-.277,1.345,1.345,0,0,0-1.463,1.025,10.229,10.229,0,0,1-5.289-.419c-1.255-.454-2.158-1.99-2.635-3,.1-.029.106-.034.106-.034a.333.333,0,0,0,.168-.374,23.034,23.034,0,0,1-.843-4.739,22.555,22.555,0,0,1,.313-2.918.411.411,0,0,0-.184-.395s-.161-.088-.4-.193a11.329,11.329,0,0,1,11.195-9.338V34a13.223,13.223,0,0,0-13.1,10.907" transform="translate(5.083 20.36)" fill="#373f51"/>
    <path id="Trazado_781047" data-name="Trazado 781047" d="M30.837,44.871A13.219,13.219,0,0,0,17.745,34v1.823a11.329,11.329,0,0,1,11.2,9.375c-.184.088-.3.157-.3.157a.407.407,0,0,0-.189.395,22.3,22.3,0,0,1,.317,2.916,23,23,0,0,1-.844,4.739.329.329,0,0,0,.166.374,1.261,1.261,0,0,0,.139.042c1.605.452,3.461-1.193,4.152-3.679.67-2.421-.024-4.742-1.548-5.273" transform="translate(10.625 20.36)" fill="#242d3d"/>
    <path id="Trazado_781048" data-name="Trazado 781048" d="M122.226,90.439a3.759,3.759,0,0,1-3.748,3.744H42.656A3.757,3.757,0,0,1,38.9,90.439V41.76a3.754,3.754,0,0,1,3.751-3.74h75.823a3.756,3.756,0,0,1,3.748,3.74Z" transform="translate(23.295 22.765)" fill="#424e63"/>
    <path id="Trazado_781049" data-name="Trazado 781049" d="M42.656,38.02A3.755,3.755,0,0,0,38.9,41.76V90.439a3.758,3.758,0,0,0,3.751,3.744H80.973V38.02Z" transform="translate(23.295 22.765)" fill="#242d3d"/>
    <path id="Trazado_781050" data-name="Trazado 781050" d="M102.725,38.02H65.218V94.183h37.507a3.759,3.759,0,0,0,3.747-3.744V41.76a3.756,3.756,0,0,0-3.747-3.74" transform="translate(39.05 22.765)" fill="#373f51"/>
    <path id="Trazado_781051" data-name="Trazado 781051" d="M43.035,40.112a2.262,2.262,0,0,0-2.246,2.253v44.97a2.251,2.251,0,0,0,2.246,2.246H79.844V40.112Z" transform="translate(24.423 24.018)" fill="#688bd8"/>
    <path id="Trazado_781052" data-name="Trazado 781052" d="M101.216,40.112h-36V89.581h36a2.254,2.254,0,0,0,2.246-2.246V42.365a2.265,2.265,0,0,0-2.246-2.253" transform="translate(39.05 24.018)" fill="#5573c6"/>
    <path id="Trazado_781053" data-name="Trazado 781053" d="M86.718,63.732a21.677,21.677,0,0,1-5.84,14.83c-.106.112-.209.224-.323.333-.243.259-.5.51-.764.755-.3.283-.616.561-.937.827A21.68,21.68,0,0,1,76.926,81.9l-.022.014q-.523.345-1.07.655A21.053,21.053,0,0,1,73.37,83.8a21.878,21.878,0,0,1-8.406,1.684V41.978A21.754,21.754,0,0,1,86.718,63.732" transform="translate(38.898 25.135)" fill="#d5ecfc"/>
    <path id="Trazado_781054" data-name="Trazado 781054" d="M73.111,41.977V85.486c-.1,0-.2,0-.3,0a21.79,21.79,0,0,1-3.015-.251A21.4,21.4,0,0,1,64.7,83.8a21.709,21.709,0,0,1-2.729-1.38c-.272-.161-.542-.328-.8-.5-.008,0-.016,0-.021-.013a22.119,22.119,0,0,1-1.923-1.423c-.321-.269-.635-.55-.942-.833-.262-.248-.52-.494-.767-.753-.107-.11-.213-.222-.317-.333A21.752,21.752,0,0,1,73.111,41.977" transform="translate(30.751 25.134)" fill="#fff"/>
    <path id="Trazado_781055" data-name="Trazado 781055" d="M72.417,53.767a2.051,2.051,0,1,1-2.018-2.4,2.234,2.234,0,0,1,2.018,2.4" transform="translate(40.941 30.757)" fill="#eac3a4"/>
    <path id="Trazado_781056" data-name="Trazado 781056" d="M62.688,53.767a2.05,2.05,0,1,1-2.021-2.4,2.234,2.234,0,0,1,2.021,2.4" transform="translate(35.116 30.757)" fill="#eac3a4"/>
    <path id="Trazado_781057" data-name="Trazado 781057" d="M69.134,60.672c-.238-.022-.536-.046-.859-.072V57.486h-3.5V68.3a.862.862,0,0,0,.1.027c.665,0,2.013-1.962,2.013-1.962s2.913-5.621,2.245-5.688" transform="translate(38.786 34.421)" fill="#eac3a4"/>
    <path id="Trazado_781058" data-name="Trazado 781058" d="M63.179,57.486V60.6c-.307.026-.6.051-.844.077-.852.094,1.982,5.676,1.982,5.676s1.252,1.8,2.018,1.947V57.486Z" transform="translate(37.228 34.421)" fill="#d49a6c"/>
    <path id="Trazado_781059" data-name="Trazado 781059" d="M64.873,60.747c-.147.182-.294.366-.436.547a46.45,46.45,0,0,0-4.953,7.831c-.32.632-.628,1.273-.929,1.919a22.078,22.078,0,0,1-1.922-1.421c-.321-.269-.636-.552-.943-.833q1.686-3.4,3.7-6.67a4.242,4.242,0,0,1,.815-.946,4.957,4.957,0,0,1,.52-.4,3.671,3.671,0,0,1,4.149-.029" transform="translate(33.345 35.996)" fill="#eac3a4"/>
    <path id="Trazado_781060" data-name="Trazado 781060" d="M64.739,65.931a75.92,75.92,0,0,0-3.7,6.772,21.708,21.708,0,0,1-2.729-1.38c-.272-.16-.542-.328-.8-.5a.049.049,0,0,1-.022-.014q.451-.969.929-1.919a46.463,46.463,0,0,1,4.953-7.832q.216-.271.436-.545a3.8,3.8,0,0,1,1.476,2.264,4.218,4.218,0,0,1-.536,3.156" transform="translate(34.418 36.232)" fill="#d49a6c"/>
    <path id="Trazado_781061" data-name="Trazado 781061" d="M64.737,61.238a46.261,46.261,0,0,0-4.969,7.875c-.318.617-.619,1.247-.9,1.879a.036.036,0,0,1-.022-.013,21.772,21.772,0,0,1-1.922-1.423c-.321-.269-.635-.55-.943-.831-.262-.249-.518-.5-.766-.755,1.45-2.7,3.236-5.4,5.138-6.832a4.619,4.619,0,0,1,.44-.3c.074-.046.15-.088.224-.131a5.692,5.692,0,0,1,.934-.408c.764-.262,1.744.158,2.777.926l.014.01" transform="translate(33.058 36.06)" fill="#4adbd1"/>
    <path id="Trazado_781062" data-name="Trazado 781062" d="M70.117,68.7l-.681.891-.3.392L66.12,73.926A21.422,21.422,0,0,1,61.027,72.5a21.817,21.817,0,0,1-2.729-1.38c-.27-.161-.542-.328-.8-.5.286-.632.588-1.261.9-1.879a46.36,46.36,0,0,1,4.969-7.876,16.981,16.981,0,0,1,1.9,1.709,44.893,44.893,0,0,1,3.867,4.726c.109.15.211.291.3.419.43.609.681.993.681.993" transform="translate(34.426 36.44)" fill="#4adbd1"/>
    <path id="Trazado_781063" data-name="Trazado 781063" d="M73.978,62.12q2.012,3.271,3.7,6.668c-.3.283-.614.56-.935.825a21.413,21.413,0,0,1-1.93,1.429c-.392-.841-.8-1.675-1.226-2.492v0a46.191,46.191,0,0,0-4.654-7.255c-.144-.181-.291-.363-.438-.544a3.467,3.467,0,0,1,2.991-.489,4.185,4.185,0,0,1,1.158.515,4.414,4.414,0,0,1,1.335,1.346" transform="translate(41.012 35.996)" fill="#eac3a4"/>
    <path id="Trazado_781064" data-name="Trazado 781064" d="M75.382,70.821c-.35.232-.705.449-1.07.655A21.178,21.178,0,0,1,71.849,72.7a76.521,76.521,0,0,0-3.7-6.774,4.206,4.206,0,0,1-.536-3.154,3.781,3.781,0,0,1,1.474-2.264c.147.181.294.363.438.545a46.1,46.1,0,0,1,4.654,7.254v0c.43.815.835,1.65,1.228,2.491l-.022.014" transform="translate(40.421 36.232)" fill="#d49a6c"/>
    <path id="Trazado_781065" data-name="Trazado 781065" d="M78.284,67.97c-.243.259-.5.508-.766.755-.3.281-.614.56-.935.825a21.7,21.7,0,0,1-1.928,1.429l-.022.014c-.094-.209-.189-.416-.286-.622-.144-.3-.288-.6-.436-.9-.018-.034-.035-.072-.054-.107-.137-.28-.278-.556-.425-.828v0l-.021-.043c-.123-.237-.248-.472-.377-.705-.048-.1-.1-.2-.158-.289-.1-.187-.2-.371-.31-.556s-.2-.36-.307-.539c-.077-.134-.158-.275-.245-.412-.106-.184-.217-.366-.329-.548-.1-.166-.206-.333-.31-.5-.126-.2-.254-.4-.388-.6-.05-.078-.1-.158-.157-.237-.174-.269-.353-.531-.539-.793-.045-.07-.091-.137-.144-.206-.147-.213-.3-.424-.449-.628q-.456-.631-.937-1.239l.014-.01c1.036-.767,2.013-1.188,2.777-.926l.014,0,.011.008a5.782,5.782,0,0,1,.908.4,5.24,5.24,0,0,1,.663.428c1.9,1.436,3.687,4.136,5.137,6.832" transform="translate(41.17 36.06)" fill="#3dc1b4"/>
    <path id="Trazado_781066" data-name="Trazado 781066" d="M76.875,69.992c.1.206.192.412.286.622q-.525.345-1.07.655A20.918,20.918,0,0,1,73.628,72.5a21.409,21.409,0,0,1-5.092,1.431L65.22,69.6l-.3-.393-.381-.5s.137-.206.381-.558c.085-.126.187-.273.3-.435a46.773,46.773,0,0,1,4.168-5.145,16.706,16.706,0,0,1,1.9-1.709c.321.406.632.819.937,1.239.153.2.3.416.449.628.053.069.1.136.144.206.185.262.363.524.539.793.054.078.107.158.155.238q.2.3.39.6c.1.163.206.329.31.5.112.182.224.365.329.548.083.137.165.273.243.412.106.179.209.357.309.54s.211.365.31.555c.053.094.109.19.158.289.129.233.251.468.377.705l.021.043v0c.147.272.286.548.425.828.019.035.037.074.054.109.149.3.293.6.436.9" transform="translate(38.642 36.44)" fill="#3dc1b4"/>
    <path id="Trazado_781067" data-name="Trazado 781067" d="M59.214,56.26c0,5.772,3.976,10.453,8.892,10.464V45.791c-4.916.011-8.892,4.692-8.892,10.469" transform="translate(35.455 27.418)" fill="#eac3a4"/>
    <path id="Trazado_781068" data-name="Trazado 781068" d="M64.794,45.79l-.018,0V66.724h.018c4.919,0,8.908-4.684,8.908-10.464s-3.989-10.47-8.908-10.47" transform="translate(38.786 27.417)" fill="#d49a6c"/>
    <path id="Trazado_781069" data-name="Trazado 781069" d="M68.833,63.473V75a21.791,21.791,0,0,1-3.015-.251,21.41,21.41,0,0,1-5.092-1.431A21.709,21.709,0,0,1,58,71.941l.1-2.382,0-.054.305-7.052a1.3,1.3,0,0,1,.416-.9,2.728,2.728,0,0,1,.3-.265A12.685,12.685,0,0,1,64.8,59.479l0,.006c.1.187,2.035,3.856,4.026,3.987" transform="translate(34.727 35.614)" fill="#3dc1b4"/>
    <path id="Trazado_781070" data-name="Trazado 781070" d="M75.948,72.095a21.177,21.177,0,0,1-2.464,1.228,21.89,21.89,0,0,1-8.408,1.684c-.1,0-.2,0-.3,0V63.473c.032,0,.067.013.1.013a1.731,1.731,0,0,0,.2-.013c2.03-.229,4.058-3.994,4.058-3.994a17.132,17.132,0,0,1,4.579,1.162c.083.037.16.072.237.11l.011.008c1,.492,1.572,1.071,1.572,1.695l.28,6.475v0l0,.046v0Z" transform="translate(38.786 35.614)" fill="#4adbd1"/>
    <path id="Trazado_781071" data-name="Trazado 781071" d="M68.637,43.781c-6.537,0-10.32,3.826-10.32,9.9a11.679,11.679,0,0,0,.647,3.859,2.269,2.269,0,0,1,.833-1.265,6.635,6.635,0,0,0,1.815,3.62c.229.2.422-.723.444-1.017.054-.743.1-1.533.173-2.333.227-2.54.724-5.177,2.852-6.788.011,0,.011-.021.011-.021a6.779,6.779,0,0,0,1.244,1.923,5.647,5.647,0,0,0,2.307,1.792V43.781Z" transform="translate(34.918 26.215)" fill="#373f51"/>
    <path id="Trazado_781072" data-name="Trazado 781072" d="M64.776,43.781V53.45l.027.013a.306.306,0,0,0,.377-.281,13.312,13.312,0,0,1,.032-2.246,3.961,3.961,0,0,0,2.595,1.383.3.3,0,0,0,.313-.325,10.977,10.977,0,0,1,.086-2.128c2.865.711,2.983,3.316,3.524,5.77a2.672,2.672,0,0,1,.054.443c.129,1.126.345,3.728.766,3.134a8.264,8.264,0,0,0,1.092-2.918,1.241,1.241,0,0,0,.043-.193,1.4,1.4,0,0,1,.011.227,2.381,2.381,0,0,1,.756,1.21,11.638,11.638,0,0,0,.649-3.859c0-6.071-3.22-9.9-10.326-9.9" transform="translate(38.786 26.215)" fill="#242d3d"/>
    <path id="Trazado_781073" data-name="Trazado 781073" d="M63.1,52a.923.923,0,1,0,.921.922A.924.924,0,0,0,63.1,52" transform="translate(37.232 31.138)" fill="#373f51"/>
    <path id="Trazado_781074" data-name="Trazado 781074" d="M67.514,52a.923.923,0,1,0,.922.922A.924.924,0,0,0,67.514,52" transform="translate(39.873 31.138)" fill="#242d3d"/>
    <rect id="Rectángulo_366626" data-name="Rectángulo 366626" width="2.733" height="18.984" transform="matrix(0.233, -0.972, 0.972, 0.233, 132.927, 38.797)" fill="#fff"/>
    <rect id="Rectángulo_366627" data-name="Rectángulo 366627" width="2.734" height="18.985" transform="matrix(0.233, -0.972, 0.972, 0.233, 151.389, 43.225)" fill="#e1edf7"/>
    <path id="Trazado_781075" data-name="Trazado 781075" d="M101.406,8.89,95.09,35.243l15.215,3.65Z" transform="translate(56.936 5.323)" fill="#fff"/>
    <path id="Trazado_781076" data-name="Trazado 781076" d="M85.574,31.6l15.214,3.647L107.1,8.891Z" transform="translate(51.239 5.323)" fill="#e1edf7"/>
    <path id="Trazado_781077" data-name="Trazado 781077" d="M119.271,24.33A19.9,19.9,0,0,0,104.562.345L95.288,39.038A19.893,19.893,0,0,0,119.271,24.33" transform="translate(57.055 0.207)" fill="#fff"/>
    <path id="Trazado_781078" data-name="Trazado 781078" d="M101,39.246,110.278.553A19.895,19.895,0,0,0,101,39.246" transform="translate(51.339 0)" fill="#e1edf7"/>
    <path id="Trazado_781079" data-name="Trazado 781079" d="M86.882,15.122a18.913,18.913,0,0,0,13.981,22.8l8.819-36.781a18.91,18.91,0,0,0-22.8,13.981" transform="translate(51.707 0.368)" fill="#fff"/>
    <path id="Trazado_781080" data-name="Trazado 781080" d="M104.249.944,95.43,37.725A18.912,18.912,0,1,0,104.249.944" transform="translate(57.14 0.565)" fill="#e1edf7"/>
    <path id="Trazado_781081" data-name="Trazado 781081" d="M113,20.794A13.975,13.975,0,0,0,102.667,3.945L96.15,31.13A13.979,13.979,0,0,0,113,20.794" transform="translate(57.571 2.362)" fill="#fff"/>
    <path id="Trazado_781082" data-name="Trazado 781082" d="M100.166,31.276l6.517-27.185a13.978,13.978,0,1,0-6.517,27.185" transform="translate(53.555 2.216)" fill="#e1edf7"/>
    <path id="Trazado_781083" data-name="Trazado 781083" d="M91.023,14.143a11.985,11.985,0,0,0,8.86,14.446l5.588-23.305a11.984,11.984,0,0,0-14.448,8.859" transform="translate(54.303 2.964)" fill="#688bd8"/>
    <path id="Trazado_781084" data-name="Trazado 781084" d="M102.029,5.159,96.441,28.464a11.983,11.983,0,0,0,5.588-23.305" transform="translate(57.745 3.089)" fill="#5573c6"/>
    <path id="Trazado_781085" data-name="Trazado 781085" d="M114.307,174.882,97.6,161.435,78.74,171.874v.013l16.712,13.556Z" transform="translate(47.147 96.661)" fill="#5573c6"/>
    <path id="Trazado_781086" data-name="Trazado 781086" d="M83.426,162.74l-2.3,26.306,1.135,1.439,1.65-1.466,1.365,1.731,1.648-1.466,1.37,1.73,1.648-1.464,1.367,1.727,1.647-1.464.577.732,2.337-26.715Z" transform="translate(48.577 97.443)" fill="#fff"/>
    <path id="Trazado_781087" data-name="Trazado 781087" d="M91.227,163.421,88.89,190.136l.788,1,1.65-1.464,1.367,1.728,1.648-1.464,1.37,1.73L97.36,190.2l1.367,1.73,1.65-1.466,1.006,1.269,2.381-27.213Z" transform="translate(53.224 97.851)" fill="#e1edf7"/>
    <path id="Trazado_781088" data-name="Trazado 781088" d="M94.283,167.6l1.373.12.209-2.4-1.372-.118-1.375-.117-2.831-.251-.211,2.4,2.833.248Z" transform="translate(53.935 98.696)" fill="#242d3d"/>
    <rect id="Rectángulo_366628" data-name="Rectángulo 366628" width="2.407" height="6.025" transform="matrix(0.087, -0.996, 0.996, 0.087, 138.01, 265.401)" fill="#373f51"/>
    <rect id="Rectángulo_366629" data-name="Rectángulo 366629" width="2.408" height="11.269" transform="translate(132.432 268.996) rotate(-84.974)" fill="#373f51"/>
    <path id="Trazado_781089" data-name="Trazado 781089" d="M98.045,170.483l2.611.229.211-2.4-2.611-.229-2.614-.23-5.576-.486-.209,2.4,5.576.486Z" transform="translate(53.803 100.214)" fill="#242d3d"/>
    <path id="Trazado_781090" data-name="Trazado 781090" d="M95.2,172.919l2.612.229,2.612.227.209-2.4-2.609-.227-2.614-.23-5.578-.489-.208,2.4Z" transform="translate(53.664 101.808)" fill="#242d3d"/>
    <rect id="Rectángulo_366630" data-name="Rectángulo 366630" width="2.408" height="11.269" transform="translate(132.06 273.254) rotate(-84.995)" fill="#373f51"/>
    <rect id="Rectángulo_366631" data-name="Rectángulo 366631" width="2.407" height="11.268" transform="translate(131.692 277.47) rotate(-84.986)" fill="#373f51"/>
    <path id="Trazado_781091" data-name="Trazado 781091" d="M94.972,175.554l2.612.229,2.611.227.208-2.4-2.611-.229-2.611-.23-5.578-.486-.211,2.4Z" transform="translate(53.525 103.388)" fill="#242d3d"/>
    <path id="Trazado_781092" data-name="Trazado 781092" d="M105.94,193.994l2.1-23.975v0l.014-.161-.008-.006L89.193,180.407Z" transform="translate(53.406 101.698)" fill="#5573c6"/>
    <path id="Trazado_781093" data-name="Trazado 781093" d="M79.53,167.972l-.006.053v0l-2.1,24.036L96.242,181.53Z" transform="translate(46.357 100.576)" fill="#688bd8"/>
    <path id="Trazado_781094" data-name="Trazado 781094" d="M77.426,186.959l0,.051,17.761,1.556,1.063-12.149Z" transform="translate(46.357 105.632)" fill="#5573c6"/>
    <path id="Trazado_781095" data-name="Trazado 781095" d="M106.343,190l-16.75-13.585L88.53,188.566l17.8,1.559Z" transform="translate(53.009 105.632)" fill="#688bd8"/>
  </g>
</svg>
