<svg xmlns="http://www.w3.org/2000/svg" xmlns:xlink="http://www.w3.org/1999/xlink" width="1328" height="690" viewBox="0 0 1328 690">
  <defs>
    <clipPath id="clip-path">
      <path id="Rectangle_652" data-name="Rectangle 652" d="M1307.087,690H20.913C9.363,690,0,678.558,0,664.444V25.556C0,11.442,9.363,0,20.913,0H1307.087C1318.637,0,1328,11.442,1328,25.556V664.444C1328,678.558,1318.637,690,1307.087,690Z" transform="translate(0 0)" fill="none" opacity="0.238"/>
    </clipPath>
    <clipPath id="clip-path-2">
      <rect id="Rectángulo_34915" data-name="Rectángulo 34915" width="151.899" height="62.333" fill="#91b3fa" stroke="#707070" stroke-width="1"/>
    </clipPath>
    <clipPath id="clip-path-3">
      <rect id="Rectángulo_361780" data-name="Rectángulo 361780" width="138.155" height="65.001" fill="#4adbd1" stroke="#707070" stroke-width="1"/>
    </clipPath>
    <linearGradient id="linear-gradient" x1="7.465" y1="0.5" x2="6.465" y2="0.5" gradientUnits="objectBoundingBox">
      <stop offset="0" stop-color="#09005d"/>
      <stop offset="1" stop-color="#1a0f91"/>
    </linearGradient>
    <linearGradient id="linear-gradient-2" x1="2.963" y1="0.5" x2="1.963" y2="0.5" xlink:href="#linear-gradient"/>
    <linearGradient id="linear-gradient-3" x1="2.887" y1="0.5" x2="1.887" y2="0.5" xlink:href="#linear-gradient"/>
    <linearGradient id="linear-gradient-4" x1="1.538" y1="0.5" x2="0.538" y2="0.5" xlink:href="#linear-gradient"/>
    <linearGradient id="linear-gradient-5" x1="0.365" y1="0.5" x2="-0.635" y2="0.5" xlink:href="#linear-gradient"/>
    <linearGradient id="linear-gradient-6" x1="1.157" y1="0.5" x2="0.157" y2="0.5" xlink:href="#linear-gradient"/>
    <linearGradient id="linear-gradient-7" x1="3.783" y1="0.5" x2="2.783" y2="0.5" xlink:href="#linear-gradient"/>
    <linearGradient id="linear-gradient-8" x1="11.081" y1="0.5" x2="10.081" y2="0.5" xlink:href="#linear-gradient"/>
    <linearGradient id="linear-gradient-9" x1="89.925" y1="194.877" x2="88.925" y2="194.877" xlink:href="#linear-gradient"/>
    <linearGradient id="linear-gradient-10" x1="97.951" y1="204.32" x2="96.951" y2="204.32" xlink:href="#linear-gradient"/>
    <linearGradient id="linear-gradient-11" x1="95.508" y1="222.19" x2="94.508" y2="222.19" xlink:href="#linear-gradient"/>
    <linearGradient id="linear-gradient-12" x1="68.143" y1="0.5" x2="67.147" y2="0.5" xlink:href="#linear-gradient"/>
    <linearGradient id="linear-gradient-13" x1="29.251" y1="0.5" x2="28.255" y2="0.5" xlink:href="#linear-gradient"/>
    <linearGradient id="linear-gradient-14" x1="13.592" y1="0.5" x2="12.597" y2="0.5" xlink:href="#linear-gradient"/>
    <linearGradient id="linear-gradient-15" x1="-20.368" y1="0.5" x2="-21.364" y2="0.5" xlink:href="#linear-gradient"/>
    <linearGradient id="linear-gradient-16" x1="40.076" y1="0.5" x2="39.076" y2="0.5" xlink:href="#linear-gradient"/>
    <linearGradient id="linear-gradient-17" x1="28.882" y1="0.5" x2="27.882" y2="0.5" xlink:href="#linear-gradient"/>
    <linearGradient id="linear-gradient-18" x1="16.648" y1="0.499" x2="15.648" y2="0.499" xlink:href="#linear-gradient"/>
    <linearGradient id="linear-gradient-19" x1="-3.698" y1="0.499" x2="-4.698" y2="0.499" xlink:href="#linear-gradient"/>
  </defs>
  <g id="Grupo_1033326" data-name="Grupo 1033326" transform="translate(-136 -13183)">
    <rect id="Rectángulo_362070" data-name="Rectángulo 362070" width="1328" height="690" transform="translate(136 13183)" fill="#e8e8e8" opacity="0.3"/>
    <g id="Grupo_80238" data-name="Grupo 80238" transform="translate(136 13183)" opacity="0.77" clip-path="url(#clip-path)">
      <g id="Grupo_80237" data-name="Grupo 80237" transform="translate(1146.648 0)" opacity="0.31" clip-path="url(#clip-path-2)">
        <g id="Grupo_80236" data-name="Grupo 80236" transform="translate(3.532 -71.842)">
          <path id="Sustracción_11" data-name="Sustracción 11" d="M73.595,0A82.347,82.347,0,0,0,58.763,1.341,79.493,79.493,0,0,0,44.948,5.189a76.609,76.609,0,0,0-12.5,6.088A73.013,73.013,0,0,0,21.555,19.34a68.666,68.666,0,0,0-8.987,9.772A64.23,64.23,0,0,0,5.783,40.329,60.868,60.868,0,0,0,1.5,52.724a59.969,59.969,0,0,0,0,26.615A60.869,60.869,0,0,0,5.783,91.733a64.23,64.23,0,0,0,6.785,11.216,68.667,68.667,0,0,0,8.987,9.772,73.013,73.013,0,0,0,10.892,8.063,76.609,76.609,0,0,0,12.5,6.088,79.5,79.5,0,0,0,13.814,3.848,82.663,82.663,0,0,0,29.664,0,79.5,79.5,0,0,0,13.814-3.848,76.609,76.609,0,0,0,12.5-6.088,73.015,73.015,0,0,0,10.892-8.063,68.667,68.667,0,0,0,8.987-9.772,64.234,64.234,0,0,0,6.785-11.216,60.869,60.869,0,0,0,4.288-12.395,59.969,59.969,0,0,0,0-26.615,60.869,60.869,0,0,0-4.288-12.395,64.233,64.233,0,0,0-6.785-11.216,68.666,68.666,0,0,0-8.987-9.772,73.014,73.014,0,0,0-10.892-8.063,76.608,76.608,0,0,0-12.5-6.088A79.492,79.492,0,0,0,88.427,1.341,82.347,82.347,0,0,0,73.595,0Zm-.274,100.725a42.96,42.96,0,0,1-7.738-.7,41.468,41.468,0,0,1-7.207-2.007,39.968,39.968,0,0,1-6.522-3.176,38.09,38.09,0,0,1-5.682-4.206,35.82,35.82,0,0,1-4.688-5.1,33.509,33.509,0,0,1-3.54-5.852,31.753,31.753,0,0,1-2.237-6.466,31.286,31.286,0,0,1,0-13.885,31.754,31.754,0,0,1,2.237-6.466,33.51,33.51,0,0,1,3.54-5.852,35.82,35.82,0,0,1,4.688-5.1,38.09,38.09,0,0,1,5.682-4.206,39.966,39.966,0,0,1,6.522-3.176,41.469,41.469,0,0,1,7.207-2.007,43.125,43.125,0,0,1,15.475,0,41.467,41.467,0,0,1,7.207,2.007,39.967,39.967,0,0,1,6.522,3.176,38.091,38.091,0,0,1,5.682,4.206,35.822,35.822,0,0,1,4.688,5.1,33.509,33.509,0,0,1,3.54,5.852,31.753,31.753,0,0,1,2.237,6.466,31.285,31.285,0,0,1,0,13.885,31.752,31.752,0,0,1-2.237,6.466,33.51,33.51,0,0,1-3.54,5.852,35.822,35.822,0,0,1-4.688,5.1,38.092,38.092,0,0,1-5.682,4.206,39.968,39.968,0,0,1-6.522,3.176,41.467,41.467,0,0,1-7.207,2.007A42.959,42.959,0,0,1,73.321,100.725Z" fill="#91b3fa"/>
        </g>
      </g>
      <g id="Grupo_1025926" data-name="Grupo 1025926" transform="translate(219.054 690) rotate(180)" opacity="0.34" clip-path="url(#clip-path-3)">
        <g id="Grupo_1025925" data-name="Grupo 1025925" transform="translate(3.213 -74.916)">
          <path id="Sustracción_12" data-name="Sustracción 12" d="M66.935,0A65.121,65.121,0,0,0,40.881,5.411a66.374,66.374,0,0,0-11.37,6.349A67.868,67.868,0,0,0,19.6,20.168,69.109,69.109,0,0,0,5.26,42.055,69.96,69.96,0,0,0,1.36,54.98a71.486,71.486,0,0,0,0,27.754,69.545,69.545,0,0,0,10.072,24.622A68.97,68.97,0,0,0,19.6,117.546a67.869,67.869,0,0,0,9.906,8.408,66.375,66.375,0,0,0,11.37,6.349,65.332,65.332,0,0,0,52.109,0,66.375,66.375,0,0,0,11.37-6.349,67.871,67.871,0,0,0,9.906-8.408,69.109,69.109,0,0,0,14.345-21.887,69.961,69.961,0,0,0,3.9-12.925,71.485,71.485,0,0,0,0-27.754,69.544,69.544,0,0,0-10.072-24.621,68.97,68.97,0,0,0-8.173-10.191,67.87,67.87,0,0,0-9.906-8.408A66.374,66.374,0,0,0,92.99,5.411,65.121,65.121,0,0,0,66.935,0Zm-.249,105.036a33.974,33.974,0,0,1-13.592-2.823A34.628,34.628,0,0,1,47.162,98.9a35.406,35.406,0,0,1-5.168-4.387A36.055,36.055,0,0,1,34.51,83.1a36.5,36.5,0,0,1-2.035-6.743,37.293,37.293,0,0,1,0-14.479A36.28,36.28,0,0,1,37.73,49.029a35.978,35.978,0,0,1,4.264-5.316,35.407,35.407,0,0,1,5.168-4.386,34.627,34.627,0,0,1,5.932-3.312,34.083,34.083,0,0,1,27.185,0,34.627,34.627,0,0,1,5.932,3.312,35.407,35.407,0,0,1,5.168,4.386,36.054,36.054,0,0,1,7.484,11.418,36.5,36.5,0,0,1,2.035,6.743,37.293,37.293,0,0,1,0,14.479A36.281,36.281,0,0,1,95.642,89.2a35.98,35.98,0,0,1-4.264,5.316A35.409,35.409,0,0,1,86.21,98.9a34.628,34.628,0,0,1-5.932,3.312,33.973,33.973,0,0,1-13.592,2.823Z" fill="#4adbd1"/>
        </g>
      </g>
      <path id="Trazado_151751" data-name="Trazado 151751" d="M1494.378,717.123l-76.209-402.55,55.151-196.4L1248.86-9.347c-3.65,4.639-7.093,9.56-10.991,13.869-29.191,32.274-57.06,66.883-88.02,96.1-61.383,57.913-124.191,74.813-185.561,50.856q-32.037-12.507-62.908-27.621C863.3,105.14,822.57,96.42,776.173,105.733c-29.04,5.828-55.671,19.863-80.34,45.174-36.922,37.886-64.86,84.329-95.515,128.258-16.244,23.278-32.767,46.5-50.489,68.253-36.446,44.736-77.314,68.427-124.406,69.7-50.657,1.366-91.189-13.564-116.406-60.97-21.044-39.557-42.438-78.98-66.411-115.672-38.8-59.391-96.533-73.449-168.01-47.32C49.008,202.508,23.727,216.868-1.7,228.942l97.647,482.42Z" transform="matrix(0.891, -0.454, 0.454, 0.891, 156.702, 506.469)" fill="none" stroke="#fff" stroke-width="1" opacity="0.81"/>
      <g id="Grupo_1020679" data-name="Grupo 1020679" transform="translate(-37.634 -28.666)" opacity="0.07">
        <path id="Trazado_117938" data-name="Trazado 117938" d="M1432.334,183.165a.325.325,0,0,0,.123,0,.159.159,0,0,0,.1-.111.542.542,0,0,0,0-.111.419.419,0,0,0,0-.222c.082-1.5-.45-8.344-3.874-42.09-2.264-22.263-5.456-53.24-9.629-92.1-7.01-66.143-14.252-133.062-14.321-133.745a.406.406,0,0,0-.2-.314.275.275,0,0,0-.328,0l-125.642,110.3a.4.4,0,0,0-.137.3.542.542,0,0,0,.109.314l152.974,157.1-248.378,34.3v.775l247.969-34.225c-2.359,2.16-8.974,9.1-28.478,30.183-16.367,17.648-39.553,42.92-69.027,75.17-54.119,59.165-117.636,128.964-150.669,165.294l.45.572C1336,286.727,1428.938,185.417,1432.334,183.165ZM1404.2-84.51c9.547,88.61,27.278,253.811,27.8,266.419L1279.346,25.089Z" transform="translate(-1182.919 217.968)" fill="url(#linear-gradient)"/>
        <path id="Trazado_117939" data-name="Trazado 117939" d="M1042,337.721a.326.326,0,0,0,.15-.3l13.011-305.98L1254.8,130.061a.318.318,0,0,0,.259,0,.329.329,0,0,0,.177-.2l51.078-140.3a.488.488,0,0,0,0-.315.313.313,0,0,0-.179-.2L1163.265-82.141l-39.212-91.729-.6.351,39.266,91.859a.312.312,0,0,0,.163.185l142.663,71.165-50.791,139.5L1054.986,30.5a.307.307,0,0,0-.369,0l-209.1,226.674a.453.453,0,0,0-.09.376.327.327,0,0,0,.212.271l196.06,79.952h.123a.24.24,0,0,0,.178-.055ZM1054.481,31.8,1041.51,336.853,846.378,257.308Z" transform="translate(-550.361 173.87)" fill="url(#linear-gradient-2)"/>
        <path id="Trazado_117940" data-name="Trazado 117940" d="M1049.927,365.829h0L1367.564,252.04a.294.294,0,0,0,.188-.164.5.5,0,0,0,.044-.3L1324.1-9.3a.369.369,0,0,0-.218-.3.3.3,0,0,0-.327,0L1110.443,198.118a.25.25,0,0,0-.095.148l-60.571,166.346L914.86,118.314a.32.32,0,0,0-.328-.185.368.368,0,0,0-.273.3L850.826,414.749l.655.185,63.271-295.439,134.6,245.762L936.4,414.491l.232.72ZM1323.551-8.453l43.644,259.9L1050.472,364.888l60.516-166.143Z" transform="translate(-665.214 282.21)" fill="url(#linear-gradient-3)"/>
        <path id="Trazado_117941" data-name="Trazado 117941" d="M793.832,141.671l184.194-37.253a.344.344,0,0,0,.245-.2.46.46,0,0,0,0-.351L888.322-109.574a.37.37,0,0,0-.2-.2.319.319,0,0,0-.259,0L622.609,75.158a.469.469,0,0,0-.164.388.412.412,0,0,0,.232.332l170.991,65.774h.164ZM887.94-108.836l89.526,212.571L793.8,140.9,623.591,75.4Z" transform="translate(145.058 220.485)" fill="url(#linear-gradient-4)"/>
        <path id="Trazado_117942" data-name="Trazado 117942" d="M615.1,417.7l292.528-49.178v-.2l.259.148a.286.286,0,0,0,.354,0,.434.434,0,0,0,.123-.406L799.448-158.761c-.063-.214-.228-.338-.4-.3L439.843-68.194a.384.384,0,0,0-.246.222L345.244,182.57l.614.314L440.144-67.475l358.7-90.733L907.522,367.4,530.106,145.354a.278.278,0,0,0-.368,0,.4.4,0,0,0-.1.425L614.749,417.4a.345.345,0,0,0,.314.258ZM906.84,367.857,615.281,416.869,530.57,146.5Z" transform="translate(655.834 186.396)" fill="url(#linear-gradient-5)"/>
        <path id="Trazado_117943" data-name="Trazado 117943" d="M840.642,296.1l-.45-.572L956.122,171.657l-395.052-39.1,128.3,162.451-.491.535L559.994,132.355a.477.477,0,0,1,0-.443.349.349,0,0,1,.327-.221l396.634,39.339a.337.337,0,0,1,.3.258.426.426,0,0,1-.1.406Z" transform="translate(263.473 401.784)" fill="url(#linear-gradient-6)"/>
        <path id="Trazado_117944" data-name="Trazado 117944" d="M1049.049,319.807l-.614-.314,58.784-162.728-256.412-53.11.123-.775,256.767,53.2a.366.366,0,0,1,.232.185.51.51,0,0,1,0,.351Z" transform="translate(-337.816 377.41)" fill="url(#linear-gradient-7)"/>
        <path id="Trazado_117945" data-name="Trazado 117945" d="M1110.161,243.47l-98.541-49.4.273-.72,98.528,49.4Z" transform="translate(-575.989 453.951)" fill="url(#linear-gradient-8)"/>
        <g id="Grupo_54547" data-name="Grupo 54547" transform="translate(601.471 483.577)">
          <ellipse id="Elipse_4152" data-name="Elipse 4152" cx="25.518" cy="29.721" rx="25.518" ry="29.721" transform="translate(0 0)" opacity="0.51" fill="url(#linear-gradient-9)"/>
        </g>
        <g id="Grupo_54548" data-name="Grupo 54548" transform="translate(87.166 523.883)">
          <ellipse id="Elipse_4153" data-name="Elipse 4153" cx="25.518" cy="29.721" rx="25.518" ry="29.721" transform="translate(0 0)" opacity="0.31" fill="url(#linear-gradient-10)"/>
        </g>
        <g id="Grupo_54549" data-name="Grupo 54549" transform="translate(1265.853 573.054)">
          <ellipse id="Elipse_4154" data-name="Elipse 4154" cx="20.813" cy="24.238" rx="20.813" ry="24.238" opacity="0.55" fill="url(#linear-gradient-11)"/>
        </g>
        <path id="Trazado_117946" data-name="Trazado 117946" d="M1086.035,207.163c-4.487,0-8.115-4.227-8.115-9.452s3.628-9.452,8.115-9.452,8.183,4.227,8.183,9.452S1090.509,207.163,1086.035,207.163Z" transform="translate(-654.271 449.644)" fill="url(#linear-gradient-12)"/>
        <path id="Trazado_117947" data-name="Trazado 117947" d="M853.754,145.733c-4.487,0-8.183-4.227-8.183-9.452s3.628-9.452,8.183-9.452,8.115,4.227,8.115,9.452S858.241,145.733,853.754,145.733Z" transform="translate(-121.869 511.019)" fill="url(#linear-gradient-13)"/>
        <path id="Trazado_117948" data-name="Trazado 117948" d="M760.115,39.823c-4.487,0-8.115-4.227-8.115-9.452s3.628-9.452,8.115-9.452,8.183,4.227,8.183,9.452S764.643,39.823,760.115,39.823Z" transform="translate(171.76 323.162)" fill="url(#linear-gradient-14)"/>
        <path id="Trazado_117949" data-name="Trazado 117949" d="M557.185,166.913c-4.474,0-8.115-4.227-8.115-9.452s3.641-9.452,8.115-9.452,8.183,4.227,8.183,9.452S561.673,166.913,557.185,166.913Z" transform="translate(729.447 440.744)" fill="url(#linear-gradient-15)"/>
        <path id="Trazado_117950" data-name="Trazado 117950" d="M1187.548,89.553c-9.643,0-17.458-9.1-17.458-20.306s7.815-20.306,17.458-20.306,17.458,9.1,17.458,20.306S1197.191,89.553,1187.548,89.553Z" transform="translate(-937.86 344.078)" fill="url(#linear-gradient-16)"/>
        <ellipse id="Elipse_4155" data-name="Elipse 4155" cx="17.458" cy="20.325" rx="17.458" ry="20.325" transform="translate(481.863 469.2)" fill="url(#linear-gradient-17)"/>
        <path id="Trazado_117951" data-name="Trazado 117951" d="M887.658,20.083c-9.643,0-17.458-9.1-17.458-20.306s7.815-20.306,17.458-20.306,17.458,9.1,17.458,20.306S897.205,20.083,887.658,20.083Z" transform="translate(-147.658 291.008)" fill="url(#linear-gradient-18)"/>
        <path id="Trazado_117952" data-name="Trazado 117952" d="M627.232,36.183c-9.643,0-17.471-9.119-17.471-20.306S617.589-4.43,627.232-4.43s17.458,9.1,17.458,20.306S636.874,36.183,627.232,36.183Z" transform="translate(513.012 303.307)" fill="url(#linear-gradient-19)"/>
      </g>
    </g>
  </g>
</svg>
