<svg xmlns="http://www.w3.org/2000/svg" width="162" height="162" viewBox="0 0 162 162">
  <g id="Grupo_1033332" data-name="Grupo 1033332" transform="translate(-720 -18393)">
    <circle id="Elipse_8587" data-name="Elipse 8587" cx="81" cy="81" r="81" transform="translate(720 18393)" fill="#fff"/>
    <g id="Grupo_1033268" data-name="Grupo 1033268" transform="translate(-8.896 -21)">
      <g id="Grupo_1033267" data-name="Grupo 1033267" transform="matrix(0.998, 0.07, -0.07, 0.998, 779.131, 18426)">
        <path id="Trazado_769414" data-name="Trazado 769414" d="M8.145,21.773c0-.121-.018-.243-.025-.364,0-.212-.009-.424-.009-.635a.912.912,0,0,0,.113-.377,64.893,64.893,0,0,0-.6-15.691A12.185,12.185,0,0,0,6.872.474.857.857,0,0,0,6.148,0a7.652,7.652,0,0,0-1.8.232.852.852,0,0,0-.54.391.675.675,0,0,0-.384.5C2.4,6.2-3.023,20.884,2.319,25.5a3.05,3.05,0,0,0,2.636,1.19c2.6-.068,3.256-2.7,3.19-4.916" transform="translate(3.299 25.711)" fill="#f4a338"/>
        <path id="Trazado_769415" data-name="Trazado 769415" d="M1.556.265C1.609-.069,1.084-.1,1.032.235A84.894,84.894,0,0,0,.056,16.517c.013.335.537.367.524.029A84.891,84.891,0,0,1,1.556.265" transform="translate(7.895 31.552)" fill="#303949"/>
        <path id="Trazado_769417" data-name="Trazado 769417" d="M4.542,15.741C5.13,15.725,41.693,0,41.693,0L39.251,43.5,4.1,28.943c-5.554.1-5.526-13.045.44-13.2" transform="translate(5.595 0.361)" fill="#f4e3b8"/>
        <path id="Trazado_769418" data-name="Trazado 769418" d="M11.258,22.252c-.681,12.126-3.722,21.812-6.793,21.639C2.034,43.755.3,37.451.041,28.792c-.078-2.254-.045-4.661.1-7.165a79.731,79.731,0,0,1,1-9.04C2.441,5.051,4.673-.124,6.93,0,10,.175,11.938,10.14,11.258,22.252" transform="translate(40.917 0)" fill="#f4a338"/>
        <path id="Trazado_769419" data-name="Trazado 769419" d="M6.656,8.428C6.423,12.548,3.568,15.8.041,16.206-.037,13.952,0,11.544.137,9.04A79.765,79.765,0,0,1,1.14,0C4.495.875,6.882,4.381,6.656,8.428" transform="translate(40.917 12.588)" fill="#f4e3b8"/>
        <path id="Trazado_769420" data-name="Trazado 769420" d="M10.2,14.125l-3.625-.2A6.966,6.966,0,0,1,7.356.011l3.625.2C6.422,4.869,6.529,9.5,10.2,14.125" transform="translate(0 15.603)" fill="#f4a338"/>
        <path id="Trazado_769421" data-name="Trazado 769421" d="M27.043.022Q13.555,5.578.145,11.316c-.311.133-.071.6.24.468Q13.794,6.044,27.283.49c.312-.129.071-.6-.24-.468" transform="translate(12.373 5.082)" fill="#303949"/>
        <path id="Trazado_769422" data-name="Trazado 769422" d="M2.929,37.379C-1.25,25.457.61,12.136,4.191.342c.1-.323-.4-.491-.5-.167C.076,12.087-1.805,25.449,2.417,37.49c.11.314.625.208.513-.111" transform="translate(40.455 3.294)" fill="#303949"/>
        <path id="Trazado_769423" data-name="Trazado 769423" d="M.491.145C.359-.166-.108.074.023.385A17.919,17.919,0,0,1,1.439,8.1a.263.263,0,0,0,.524.029A18.6,18.6,0,0,0,.491.145" transform="translate(47.585 3.16)" fill="#303949"/>
        <path id="Trazado_769424" data-name="Trazado 769424" d="M.519.2A.262.262,0,0,0,.006.311a36.23,36.23,0,0,1,.608,9.851.262.262,0,0,0,.523.029A36.627,36.627,0,0,0,.519.2" transform="translate(49.64 6.658)" fill="#303949"/>
        <path id="Trazado_769425" data-name="Trazado 769425" d="M.464.082C.229-.16-.163.189.073.431c1.738,1.783,1.483,6.042.18,7.946a.263.263,0,0,0,.438.29C2.155,6.525,2.384,2.051.464.082" transform="translate(43.816 16.164)" fill="#303949"/>
        <path id="Trazado_769426" data-name="Trazado 769426" d="M3.645,12.521A8.441,8.441,0,0,1,2.626.391C2.842.13,2.4-.157,2.189.1A8.957,8.957,0,0,0,3.355,12.958c.258.219.545-.222.29-.437" transform="translate(6.873 17.233)" fill="#303949"/>
        <path id="Trazado_769427" data-name="Trazado 769427" d="M6.846,0A30.534,30.534,0,0,0,.2.946.263.263,0,0,0,.31,1.46,29.827,29.827,0,0,1,6.817.524C7.154.524,7.185,0,6.846,0" transform="translate(6.23 32.889)" fill="#303949"/>
        <path id="Trazado_769428" data-name="Trazado 769428" d="M6.579,0A49.861,49.861,0,0,0,.194,1.392c-.322.093-.215.607.111.514A49.8,49.8,0,0,1,6.69.516C7.024.467,6.913-.047,6.579,0" transform="translate(5.92 35.823)" fill="#303949"/>
      </g>
      <path id="Trazado_781196" data-name="Trazado 781196" d="M3.458,53.577,71.319,47.4a3.169,3.169,0,0,0,2.861-2.788l4.8-41.072A3.169,3.169,0,0,0,75.542.013L7.682,6.192A3.17,3.17,0,0,0,4.821,8.981L.022,50.052a3.17,3.17,0,0,0,3.436,3.524" transform="matrix(0.998, 0.07, -0.07, 0.998, 786.932, 18477.512)" fill="#b0c0d2"/>
      <path id="Trazado_781200" data-name="Trazado 781200" d="M12.165,5.041A5.86,5.86,0,0,1,6.6,11.16,5.861,5.861,0,0,1,.021,6.147,5.86,5.86,0,0,1,5.587.028a5.859,5.859,0,0,1,6.578,5.013" transform="matrix(0.998, 0.07, -0.07, 0.998, 820.147, 18502.012)" fill="#7b92ba"/>
      <rect id="Rect치ngulo_366787" data-name="Rect치ngulo 366787" width="64.444" height="4.07" transform="translate(785.625 18531.131) rotate(-1)" fill="#7b92ba"/>
      <rect id="Rect치ngulo_366788" data-name="Rect치ngulo 366788" width="33.579" height="4.07" transform="matrix(1, -0.017, 0.017, 1, 752.052, 18531.717)" fill="#d2e0e6"/>
      <path id="Trazado_781197" data-name="Trazado 781197" d="M.24,2.774Q17.321,1.018,34.46,0a.261.261,0,0,1,.022.522Q17.342,1.541.262,3.3c-.335.035-.356-.489-.022-.523" transform="matrix(0.998, 0.07, -0.07, 0.998, 796.5, 18483.756)" fill="#303949"/>
      <path id="Trazado_781198" data-name="Trazado 781198" d="M3.773.2c.033-.334.542-.213.51.118Q2.277,21.257.524,42.22c-.028.331-.55.357-.523.022Q1.76,21.209,3.773.2" transform="matrix(0.998, 0.07, -0.07, 0.998, 789.835, 18486.98)" fill="#303949"/>
      <path id="Trazado_781201" data-name="Trazado 781201" d="M6.391.071c.333.05.213.56-.118.51C-1.5-.582-1.03,12.9,6.849,11.348c.326-.065.49.433.16.5a5.832,5.832,0,0,1-7-5.482C-.156,2.512,2.528-.507,6.391.071" transform="matrix(0.998, 0.07, -0.07, 0.998, 820.027, 18501.637)" fill="#303949"/>
      <path id="Trazado_781199" data-name="Trazado 781199" d="M.241,2.692,29.638,0c.336-.03.357.492.022.523L.263,3.216c-.336.03-.357-.493-.022-.523" transform="matrix(0.998, 0.07, -0.07, 0.998, 754.099, 18531.783)" fill="#303949"/>
    </g>
  </g>
</svg>
