<svg xmlns="http://www.w3.org/2000/svg" xmlns:xlink="http://www.w3.org/1999/xlink" width="162" height="162" viewBox="0 0 162 162">
  <defs>
    <clipPath id="clip-path">
      <rect id="Rectángulo_366798" data-name="Rectángulo 366798" width="77.17" height="73.978" transform="translate(0 7.022)" fill="none"/>
    </clipPath>
  </defs>
  <g id="Grupo_1033329" data-name="Grupo 1033329" transform="translate(8043 -6674)">
    <circle id="Elipse_8584" data-name="Elipse 8584" cx="81" cy="81" r="81" transform="translate(-8043 6674)" fill="#fff"/>
    <g id="Grupo_1033287" data-name="Grupo 1033287" transform="translate(-8018.844 6674)">
      <g id="Grupo_1033286" data-name="Grupo 1033286" transform="translate(0 0)" clip-path="url(#clip-path)">
        <path id="Trazado_781228" data-name="Trazado 781228" d="M66.059,33.438a2.251,2.251,0,1,1-2.25-2.25,2.251,2.251,0,0,1,2.25,2.25" transform="translate(11.111 5.63)" fill="#cfd8dc"/>
        <rect id="Rectángulo_366794" data-name="Rectángulo 366794" width="8.31" height="15.12" transform="translate(25.802 37.367)" fill="#e6b046"/>
        <rect id="Rectángulo_366795" data-name="Rectángulo 366795" width="8.31" height="23.035" transform="translate(35.756 29.452)" fill="#5573c6"/>
        <rect id="Rectángulo_366796" data-name="Rectángulo 366796" width="8.31" height="30.359" transform="translate(45.71 22.128)" fill="#4adbd1"/>
        <rect id="Rectángulo_366797" data-name="Rectángulo 366797" width="8.308" height="17.351" transform="translate(55.664 35.136)" fill="#373f51"/>
        <path id="Trazado_781235" data-name="Trazado 781235" d="M65.062,66.342c-.1.079-.469.061-.587.077l-1.133.146c-1.151.15-.934.565-2.081.714-2.376.307-4.792.236-7.156.6-2.152.333-3.243-1.1-4.644-2.657-2.3-2.556-5.777-4.858-6.911-8.2a25.492,25.492,0,0,1-1.271-4.166,22.08,22.08,0,0,0-.469-3.413c-.334-1.086-1.6-3.111.32-3.049a4.244,4.244,0,0,1,1.725.379A4.9,4.9,0,0,1,44.608,49.2c.243.7.145,1.432.39,2.119a10.011,10.011,0,0,0,1.5,2.461,40.149,40.149,0,0,0-.642-6.691q-.372-2.869-.747-5.738l-1.066-8.175-.006-.05c-.066-.518-.187-1.061-.2-1.583a.91.91,0,0,1,.192-.551,1.316,1.316,0,0,1,.1-.131l.014-.017a3.6,3.6,0,0,1,.256-.262,2.543,2.543,0,0,1,2.9-.4,2.742,2.742,0,0,1,.307.171l.018.012a1.464,1.464,0,0,1,.32.279.939.939,0,0,1,.2.447c.046.293.074.58.115.875.241,1.865.466,3.733.7,5.6.161,1.274.261,2.573.489,3.837.205,1.132.517,2.951.95,3.374-.059-.289.1-.75.047-1.1-.051-.368-.105-.737-.155-1.106a6.519,6.519,0,0,1-.175-2.179c.3-1.15,2.073-1.6,3.045-1.118,1.019.509,1.183,1.89,1.426,2.865.072.286.539,1.345.669.881.25-.888.2-2.52.516-3.041a2.2,2.2,0,0,1,2.91-.6c1.381.757,1.4,2.989,1.556,4.344.238-.243.127-1.242.345-1.545a2.16,2.16,0,0,1,1.511-.774c2.256-.148,2.176,2.563,2.531,4.108a41.375,41.375,0,0,1,1.045,8.481,26.6,26.6,0,0,1-.111,4.194c-.172,1.195-.96,2.242-1.018,3.464a18.824,18.824,0,0,0,.379,3.137c.068.525.122.957.145,1.137.021.158.093.338,0,.417" transform="translate(7.236 5.397)" fill="#e6af87"/>
        <path id="Trazado_781236" data-name="Trazado 781236" d="M46.18,34.093c-.937.263-1.9-.564-2.137-1.838l-.2-1.065c-.014-.086-.03-.182-.035-.269a3.355,3.355,0,0,1,.256-.261,2.541,2.541,0,0,1,2.9-.4,2.48,2.48,0,0,1,.306.171l.018.011.156.851a2.389,2.389,0,0,1-1.267,2.8" transform="translate(7.908 5.411)" fill="#f1c3a4"/>
        <path id="Trazado_781237" data-name="Trazado 781237" d="M63.736,58.6,48.19,60.676l1.049,4.1,15.271-2.556Z" transform="translate(8.698 10.578)" fill="#fff"/>
        <path id="Trazado_781238" data-name="Trazado 781238" d="M66.653,66.51,53.591,69l-1.373-5.879,12.8-2.323Z" transform="translate(9.425 10.974)" fill="#1c4d6b"/>
        <path id="Trazado_781239" data-name="Trazado 781239" d="M54.426,68.645l-5.38,1.026-1.458-5.92,5.466-.985Z" transform="translate(8.59 11.329)" fill="#16405e"/>
        <path id="Trazado_781240" data-name="Trazado 781240" d="M22.7,30.939a1.238,1.238,0,0,1-1.023-1.93l11.13-16.431a1.238,1.238,0,0,1,1.9-.181L46.313,24,59.276,2.561a1.237,1.237,0,1,1,2.117,1.28L47.614,26.633a1.237,1.237,0,0,1-1.934.234L34.018,15.2,23.728,30.4a1.237,1.237,0,0,1-1.025.543" transform="translate(-9.624 7.377)" fill="#f4a338"/>
        <path id="Trazado_781241" data-name="Trazado 781241" d="M26.792,26.477a3.71,3.71,0,1,1-3.71-3.71,3.71,3.71,0,0,1,3.71,3.71" transform="translate(-10.003 11.132)" fill="#f4a338"/>
        <path id="Trazado_781242" data-name="Trazado 781242" d="M36.179,12.989a3.71,3.71,0,1,1-3.71-3.71,3.711,3.711,0,0,1,3.71,3.71" transform="translate(-8.308 8.697)" fill="#f4a338"/>
        <path id="Trazado_781243" data-name="Trazado 781243" d="M46.655,22.269a3.71,3.71,0,1,1-3.71-3.71,3.71,3.71,0,0,1,3.71,3.71" transform="translate(-6.417 10.372)" fill="#f4a338"/>
        <path id="Trazado_781244" data-name="Trazado 781244" d="M58.329,3.71A3.71,3.71,0,1,1,54.619,0a3.709,3.709,0,0,1,3.71,3.71" transform="translate(-4.31 7.022)" fill="#f4a338"/>
      </g>
    </g>
    <g id="Grupo_1033285" data-name="Grupo 1033285" transform="translate(-8770.896 -11731.922)">
      <path id="Trazado_781196" data-name="Trazado 781196" d="M3.458,53.577,71.319,47.4a3.169,3.169,0,0,0,2.861-2.788l4.8-41.072A3.169,3.169,0,0,0,75.542.013L7.682,6.192A3.17,3.17,0,0,0,4.821,8.981L.022,50.052a3.17,3.17,0,0,0,3.436,3.524" transform="matrix(0.998, 0.07, -0.07, 0.998, 786.932, 18477.512)" fill="#b0c0d2"/>
      <path id="Trazado_781200" data-name="Trazado 781200" d="M12.165,5.041A5.86,5.86,0,0,1,6.6,11.16,5.861,5.861,0,0,1,.021,6.147,5.86,5.86,0,0,1,5.587.028a5.859,5.859,0,0,1,6.578,5.013" transform="matrix(0.998, 0.07, -0.07, 0.998, 820.147, 18502.012)" fill="#7b92ba"/>
      <rect id="Rectángulo_366787" data-name="Rectángulo 366787" width="64.444" height="4.07" transform="translate(785.625 18531.131) rotate(-1)" fill="#7b92ba"/>
      <rect id="Rectángulo_366788" data-name="Rectángulo 366788" width="33.579" height="4.07" transform="matrix(1, -0.017, 0.017, 1, 752.052, 18531.717)" fill="#d2e0e6"/>
      <path id="Trazado_781197" data-name="Trazado 781197" d="M.24,2.774Q17.321,1.018,34.46,0a.261.261,0,0,1,.022.522Q17.342,1.541.262,3.3c-.335.035-.356-.489-.022-.523" transform="matrix(0.998, 0.07, -0.07, 0.998, 796.5, 18483.756)" fill="#303949"/>
      <path id="Trazado_781198" data-name="Trazado 781198" d="M3.773.2c.033-.334.542-.213.51.118Q2.277,21.257.524,42.22c-.028.331-.55.357-.523.022Q1.76,21.209,3.773.2" transform="matrix(0.998, 0.07, -0.07, 0.998, 789.835, 18486.98)" fill="#303949"/>
      <path id="Trazado_781201" data-name="Trazado 781201" d="M6.391.071c.333.05.213.56-.118.51C-1.5-.582-1.03,12.9,6.849,11.348c.326-.065.49.433.16.5a5.832,5.832,0,0,1-7-5.482C-.156,2.512,2.528-.507,6.391.071" transform="matrix(0.998, 0.07, -0.07, 0.998, 820.027, 18501.637)" fill="#303949"/>
      <path id="Trazado_781199" data-name="Trazado 781199" d="M.241,2.692,29.638,0c.336-.03.357.492.022.523L.263,3.216c-.336.03-.357-.493-.022-.523" transform="matrix(0.998, 0.07, -0.07, 0.998, 754.099, 18531.783)" fill="#303949"/>
    </g>
  </g>
</svg>
