<svg xmlns="http://www.w3.org/2000/svg" xmlns:xlink="http://www.w3.org/1999/xlink" width="1328" height="740.181" viewBox="0 0 1328 740.181">
  <defs>
    <clipPath id="clip-path">
      <rect id="Rectángulo_34915" data-name="Rectángulo 34915" width="282.051" height="129" transform="translate(0)" fill="#5573c6" stroke="#707070" stroke-width="1"/>
    </clipPath>
    <clipPath id="clip-path-2">
      <rect id="Rectángulo_362094" data-name="Rectángulo 362094" width="282.051" height="129" transform="translate(0)" fill="#f0dcc0" stroke="#707070" stroke-width="1"/>
    </clipPath>
  </defs>
  <g id="Grupo_1033328" data-name="Grupo 1033328" transform="translate(-136 -15958.999)">
    <g id="Grupo_80237" data-name="Grupo 80237" transform="translate(1464 15958.999) rotate(90)" opacity="0.25" clip-path="url(#clip-path)">
      <g id="Grupo_80236" data-name="Grupo 80236" transform="translate(6.559 -148.677)">
        <path id="Sustracción_11" data-name="Sustracción 11" d="M136.653,0a137.662,137.662,0,0,0-27.54,2.776A135.9,135.9,0,0,0,60.249,23.338a137.051,137.051,0,0,0-49.51,60.123,135.968,135.968,0,0,0-7.963,25.651,137.987,137.987,0,0,0,0,55.081,135.905,135.905,0,0,0,20.562,48.863,137.051,137.051,0,0,0,60.123,49.51,135.969,135.969,0,0,0,25.651,7.963,137.986,137.986,0,0,0,55.081,0,135.906,135.906,0,0,0,48.863-20.562,137.052,137.052,0,0,0,49.51-60.123,135.971,135.971,0,0,0,7.963-25.651,137.986,137.986,0,0,0,0-55.081,135.9,135.9,0,0,0-20.562-48.863,137.051,137.051,0,0,0-60.123-49.51,135.97,135.97,0,0,0-25.651-7.963A137.662,137.662,0,0,0,136.653,0Zm-.509,208.453A71.817,71.817,0,0,1,121.776,207a70.9,70.9,0,0,1-25.492-10.727,71.5,71.5,0,0,1-25.829-31.366A70.93,70.93,0,0,1,66.3,151.529a71.987,71.987,0,0,1,0-28.735A70.9,70.9,0,0,1,77.028,97.3a71.5,71.5,0,0,1,31.366-25.829,70.931,70.931,0,0,1,13.382-4.154,71.987,71.987,0,0,1,28.735,0A70.9,70.9,0,0,1,176,78.046a71.5,71.5,0,0,1,25.829,31.366,70.929,70.929,0,0,1,4.154,13.382,71.986,71.986,0,0,1,0,28.735,70.9,70.9,0,0,1-10.727,25.492,71.5,71.5,0,0,1-31.366,25.829A70.928,70.928,0,0,1,150.511,207,71.816,71.816,0,0,1,136.144,208.453Z" fill="#5573c6"/>
      </g>
    </g>
    <g id="Grupo_1026301" data-name="Grupo 1026301" transform="translate(136 16699.18) rotate(-90)" opacity="0.25" clip-path="url(#clip-path-2)">
      <g id="Grupo_1026300" data-name="Grupo 1026300" transform="translate(6.559 -148.677)">
        <path id="Sustracción_52" data-name="Sustracción 52" d="M136.653,0a137.662,137.662,0,0,0-27.54,2.776A135.9,135.9,0,0,0,60.249,23.338a137.051,137.051,0,0,0-49.51,60.123,135.968,135.968,0,0,0-7.963,25.651,137.987,137.987,0,0,0,0,55.081,135.905,135.905,0,0,0,20.562,48.863,137.051,137.051,0,0,0,60.123,49.51,135.969,135.969,0,0,0,25.651,7.963,137.986,137.986,0,0,0,55.081,0,135.906,135.906,0,0,0,48.863-20.562,137.052,137.052,0,0,0,49.51-60.123,135.971,135.971,0,0,0,7.963-25.651,137.986,137.986,0,0,0,0-55.081,135.9,135.9,0,0,0-20.562-48.863,137.051,137.051,0,0,0-60.123-49.51,135.97,135.97,0,0,0-25.651-7.963A137.662,137.662,0,0,0,136.653,0Zm-.509,208.453A71.817,71.817,0,0,1,121.776,207a70.9,70.9,0,0,1-25.492-10.727,71.5,71.5,0,0,1-25.829-31.366A70.93,70.93,0,0,1,66.3,151.529a71.987,71.987,0,0,1,0-28.735A70.9,70.9,0,0,1,77.028,97.3a71.5,71.5,0,0,1,31.366-25.829,70.931,70.931,0,0,1,13.382-4.154,71.987,71.987,0,0,1,28.735,0A70.9,70.9,0,0,1,176,78.046a71.5,71.5,0,0,1,25.829,31.366,70.929,70.929,0,0,1,4.154,13.382,71.986,71.986,0,0,1,0,28.735,70.9,70.9,0,0,1-10.727,25.492,71.5,71.5,0,0,1-31.366,25.829A70.928,70.928,0,0,1,150.511,207,71.816,71.816,0,0,1,136.144,208.453Z" fill="#f0dcc0"/>
      </g>
    </g>
  </g>
</svg>
