<svg xmlns="http://www.w3.org/2000/svg" xmlns:xlink="http://www.w3.org/1999/xlink" width="222" height="223" viewBox="0 0 222 223">
  <defs>
    <clipPath id="clip-path">
      <rect id="Rectángulo_365207" data-name="Rectángulo 365207" width="194.5" height="133.363" transform="translate(0 0)" fill="none"/>
    </clipPath>
  </defs>
  <g id="Grupo_1033334" data-name="Grupo 1033334" transform="translate(-997 -2724.999)">
    <g id="Grupo_4585" data-name="Grupo 4585" transform="translate(1006.518 2734.609)">
      <g id="Elipse_157" data-name="Elipse 157" transform="translate(0.483 0.39)" fill="none" stroke="#373f51" stroke-linejoin="round" stroke-width="10">
        <ellipse cx="101" cy="101.5" rx="101" ry="101.5" stroke="none"/>
        <ellipse cx="101" cy="101.5" rx="106" ry="106.5" fill="none"/>
      </g>
    </g>
    <g id="Grupo_1031304" data-name="Grupo 1031304" transform="translate(1010 2770.003)">
      <g id="Grupo_1031303" data-name="Grupo 1031303" transform="translate(0 -0.003)" clip-path="url(#clip-path)">
        <path id="Trazado_777743" data-name="Trazado 777743" d="M0,1043.553a4.314,4.314,0,0,0,4.314,4.314H190.186a4.314,4.314,0,0,0,4.314-4.314Z" transform="translate(0 -914.505)" fill="#a9a9a9"/>
        <path id="Trazado_777744" data-name="Trazado 777744" d="M316.07,0H178.543a7.312,7.312,0,0,0-7.312,7.312V111.339h152.15V7.309A7.312,7.312,0,0,0,316.07,0" transform="translate(-150.056 0.003)" fill="#a9a9a9"/>
        <path id="Trazado_777745" data-name="Trazado 777745" d="M216.379,139.83V45.144H357.363V139.83Z" transform="translate(-189.621 -39.561)" fill="#fff"/>
        <path id="Trazado_777746" data-name="Trazado 777746" d="M194.5,902.791l-21.175-19.863H21.175L0,902.791H75.895v.283a1.281,1.281,0,0,0,1.281,1.281h40.149a1.281,1.281,0,0,0,1.281-1.281v-.283Z" transform="translate(0 -773.743)" fill="#d2d2d2"/>
        <path id="Trazado_777747" data-name="Trazado 777747" d="M292.214,901.393l-10.2-9.568a.654.654,0,0,0-.447-.177H140.953a.654.654,0,0,0-.447.177l-10.2,9.568a.654.654,0,0,0,.447,1.131H291.767a.654.654,0,0,0,.447-1.131" transform="translate(-114.01 -781.384)" fill="#f2f2f2"/>
        <path id="Trazado_777748" data-name="Trazado 777748" d="M610.053,993.37l-3.494-3.277a.518.518,0,0,0-.355-.14H556.333a.518.518,0,0,0-.355.14l-3.493,3.277a.519.519,0,0,0,.355.9H609.7a.519.519,0,0,0,.355-.9" transform="translate(-484.019 -867.532)" fill="#f2f2f2"/>
        <path id="Trazado_777749" data-name="Trazado 777749" d="M580.789,953.637a.336.336,0,0,0-.306-.2H515.275a.336.336,0,0,0-.306.2l-.721,1.578a.336.336,0,0,0,.306.476H581.2a.336.336,0,0,0,.306-.476Z" transform="translate(-450.629 -835.536)" fill="#c1c1c1"/>
        <path id="Trazado_777750" data-name="Trazado 777750" d="M538.6,902.108h4.92a.406.406,0,0,0,.382-.27l.6-1.69a.406.406,0,0,0-.382-.541h-4.749a.406.406,0,0,0-.369.237l-.772,1.69a.406.406,0,0,0,.369.574" transform="translate(-471.639 -788.358)" fill="#c1c1c1"/>
        <path id="Trazado_777751" data-name="Trazado 777751" d="M585.264,928.9h5.381a.373.373,0,0,0,.362-.281l.414-1.63a.373.373,0,0,0-.361-.465h-5.216a.373.373,0,0,0-.351.248l-.579,1.63a.373.373,0,0,0,.351.5" transform="translate(-512.561 -811.946)" fill="#c1c1c1"/>
        <path id="Trazado_777752" data-name="Trazado 777752" d="M527,926.74l-.744,1.63a.373.373,0,0,0,.339.528h5.319a.373.373,0,0,0,.351-.248l.579-1.63a.373.373,0,0,0-.351-.5h-5.154a.373.373,0,0,0-.339.218" transform="translate(-461.143 -811.946)" fill="#c1c1c1"/>
        <path id="Trazado_777753" data-name="Trazado 777753" d="M459.638,953.441h-5.494a.336.336,0,0,0-.293.172l-.881,1.578a.336.336,0,0,0,.294.5h5.654a.336.336,0,0,0,.306-.2l.721-1.577a.336.336,0,0,0-.306-.476" transform="translate(-396.917 -835.536)" fill="#c1c1c1"/>
        <path id="Trazado_777754" data-name="Trazado 777754" d="M473.554,928.68l.744-1.63a.373.373,0,0,0-.339-.528h-5.077a.373.373,0,0,0-.326.191l-.91,1.63a.373.373,0,0,0,.326.555h5.243a.373.373,0,0,0,.339-.218" transform="translate(-409.774 -811.946)" fill="#c1c1c1"/>
        <path id="Trazado_777755" data-name="Trazado 777755" d="M594.608,902.108h4.984a.405.405,0,0,0,.393-.306l.429-1.69a.405.405,0,0,0-.393-.505h-4.813a.406.406,0,0,0-.382.27l-.6,1.69a.406.406,0,0,0,.382.541" transform="translate(-520.721 -788.358)" fill="#c1c1c1"/>
        <path id="Trazado_777756" data-name="Trazado 777756" d="M702.8,928.9h5.454a.373.373,0,0,0,.372-.354l.083-1.63a.373.373,0,0,0-.372-.392h-5.289a.373.373,0,0,0-.369.317l-.248,1.63a.373.373,0,0,0,.369.429" transform="translate(-615.567 -811.946)" fill="#c1c1c1"/>
        <path id="Trazado_777757" data-name="Trazado 777757" d="M706.824,902.108h5.06a.406.406,0,0,0,.405-.385l.086-1.69a.405.405,0,0,0-.405-.426h-4.889a.406.406,0,0,0-.4.344l-.257,1.69a.405.405,0,0,0,.4.467" transform="translate(-619.061 -788.358)" fill="#c1c1c1"/>
        <path id="Trazado_777758" data-name="Trazado 777758" d="M644,928.9h5.426a.373.373,0,0,0,.369-.317l.248-1.63a.373.373,0,0,0-.369-.429h-5.261a.373.373,0,0,0-.361.281l-.414,1.63a.373.373,0,0,0,.361.465" transform="translate(-564.034 -811.946)" fill="#c1c1c1"/>
        <path id="Trazado_777759" data-name="Trazado 777759" d="M650.68,902.108h5.031a.406.406,0,0,0,.4-.344l.257-1.69a.405.405,0,0,0-.4-.467h-4.859a.406.406,0,0,0-.393.306l-.429,1.69a.406.406,0,0,0,.393.505" transform="translate(-569.86 -788.358)" fill="#c1c1c1"/>
        <path id="Trazado_777760" data-name="Trazado 777760" d="M398.472,953.441h-5.408a.336.336,0,0,0-.281.151l-1.041,1.578a.336.336,0,0,0,.281.521h5.568a.336.336,0,0,0,.293-.172l.881-1.577a.336.336,0,0,0-.293-.5" transform="translate(-343.25 -835.536)" fill="#c1c1c1"/>
        <path id="Trazado_777761" data-name="Trazado 777761" d="M482.65,902.108h4.841a.406.406,0,0,0,.369-.237l.772-1.69a.406.406,0,0,0-.369-.574h-4.669a.405.405,0,0,0-.354.208l-.944,1.69a.405.405,0,0,0,.354.6" transform="translate(-422.609 -788.358)" fill="#c1c1c1"/>
        <path id="Trazado_777762" data-name="Trazado 777762" d="M426.755,902.108H431.5a.406.406,0,0,0,.354-.208l.944-1.69a.406.406,0,0,0-.354-.6h-4.576a.406.406,0,0,0-.339.182l-1.115,1.69a.406.406,0,0,0,.338.629" transform="translate(-373.626 -788.358)" fill="#c1c1c1"/>
        <path id="Trazado_777763" data-name="Trazado 777763" d="M203.577,902.108h4.268a.406.406,0,0,0,.292-.124l1.63-1.69a.406.406,0,0,0-.292-.687h-4.342l.04.043-1.874,1.757a.406.406,0,0,0,.278.7" transform="translate(-178.046 -788.358)" fill="#c1c1c1"/>
        <path id="Trazado_777764" data-name="Trazado 777764" d="M315.1,902.108h4.527a.405.405,0,0,0,.323-.16l1.287-1.69a.406.406,0,0,0-.323-.651h-4.544l0,0-1.579,1.829a.405.405,0,0,0,.307.67" transform="translate(-275.775 -788.358)" fill="#c1c1c1"/>
        <path id="Trazado_777765" data-name="Trazado 777765" d="M259.322,902.108h4.4a.406.406,0,0,0,.307-.141l1.459-1.69a.406.406,0,0,0-.307-.671h-4.449l.024.024-1.727,1.791a.406.406,0,0,0,.292.687" transform="translate(-226.897 -788.358)" fill="#c1c1c1"/>
        <path id="Trazado_777766" data-name="Trazado 777766" d="M410.482,926.522a.373.373,0,0,0-.311.168l-1.075,1.63a.373.373,0,0,0,.311.578h5.153a.373.373,0,0,0,.326-.191l.91-1.63a.373.373,0,0,0-.326-.555Z" transform="translate(-358.451 -811.946)" fill="#c1c1c1"/>
        <path id="Trazado_777767" data-name="Trazado 777767" d="M154.079,953.441h-4.963a.336.336,0,0,0-.23.091l-1.682,1.577a.336.336,0,0,0,.23.581h5.123a.336.336,0,0,0,.242-.1l1.521-1.577a.336.336,0,0,0-.242-.57" transform="translate(-128.907 -835.536)" fill="#c1c1c1"/>
        <path id="Trazado_777768" data-name="Trazado 777768" d="M215.143,953.441h-5.087a.336.336,0,0,0-.242.1l-1.521,1.577a.336.336,0,0,0,.242.57h5.247a.336.336,0,0,0,.255-.117L215.4,954a.336.336,0,0,0-.255-.556" transform="translate(-182.452 -835.536)" fill="#c1c1c1"/>
        <path id="Trazado_777769" data-name="Trazado 777769" d="M276.229,953.441h-5.2a.336.336,0,0,0-.254.117l-1.361,1.578a.336.336,0,0,0,.255.556h5.363a.336.336,0,0,0,.267-.132l1.2-1.578a.336.336,0,0,0-.267-.54" transform="translate(-236.023 -835.536)" fill="#c1c1c1"/>
        <path id="Trazado_777770" data-name="Trazado 777770" d="M352.126,926.522a.373.373,0,0,0-.3.147l-1.241,1.63a.373.373,0,0,0,.3.6h5.051a.373.373,0,0,0,.311-.168l1.075-1.63a.373.373,0,0,0-.311-.578Z" transform="translate(-307.167 -811.946)" fill="#c1c1c1"/>
        <path id="Trazado_777771" data-name="Trazado 777771" d="M337.335,953.441h-5.31a.336.336,0,0,0-.267.133l-1.2,1.577a.336.336,0,0,0,.267.54h5.471a.336.336,0,0,0,.281-.151l1.041-1.577a.336.336,0,0,0-.281-.521" transform="translate(-289.618 -835.536)" fill="#c1c1c1"/>
        <path id="Trazado_777772" data-name="Trazado 777772" d="M370.9,902.108h4.643a.406.406,0,0,0,.339-.182l1.115-1.69a.406.406,0,0,0-.338-.629h-4.471a.406.406,0,0,0-.323.16l-1.287,1.691a.406.406,0,0,0,.323.651" transform="translate(-324.682 -788.358)" fill="#c1c1c1"/>
        <path id="Trazado_777773" data-name="Trazado 777773" d="M175.536,928.9h19.391a.373.373,0,0,0,.3-.147l1.241-1.63a.373.373,0,0,0-.3-.6H177.273a.373.373,0,0,0-.255.1l-1.737,1.63a.373.373,0,0,0,.255.645" transform="translate(-153.501 -811.946)" fill="#c1c1c1"/>
        <path id="Trazado_777774" data-name="Trazado 777774" d="M763.044,902.108h5.07a.405.405,0,0,0,.4-.426l-.086-1.69a.405.405,0,0,0-.4-.385h-4.9a.406.406,0,0,0-.405.385l-.086,1.69a.405.405,0,0,0,.4.426" transform="translate(-668.329 -788.358)" fill="#c1c1c1"/>
        <path id="Trazado_777775" data-name="Trazado 777775" d="M761.682,928.9h5.464a.373.373,0,0,0,.372-.392l-.083-1.63a.373.373,0,0,0-.372-.354h-5.3a.373.373,0,0,0-.372.354l-.083,1.63a.373.373,0,0,0,.373.392" transform="translate(-667.164 -811.946)" fill="#c1c1c1"/>
        <path id="Trazado_777776" data-name="Trazado 777776" d="M984.052,901.839a.406.406,0,0,0,.382.27h4.92a.406.406,0,0,0,.369-.574l-.772-1.69a.406.406,0,0,0-.369-.237h-4.749a.405.405,0,0,0-.382.541Z" transform="translate(-861.815 -788.359)" fill="#c1c1c1"/>
        <path id="Trazado_777777" data-name="Trazado 777777" d="M935.06,926.987l.414,1.63a.373.373,0,0,0,.362.281h5.381a.373.373,0,0,0,.352-.5l-.579-1.63a.373.373,0,0,0-.351-.248h-5.216a.373.373,0,0,0-.361.465" transform="translate(-819.418 -811.946)" fill="#c1c1c1"/>
        <path id="Trazado_777778" data-name="Trazado 777778" d="M992.9,927.019l.579,1.63a.373.373,0,0,0,.352.248h5.319a.373.373,0,0,0,.339-.528l-.744-1.63a.373.373,0,0,0-.339-.218h-5.154a.373.373,0,0,0-.351.5" transform="translate(-870.101 -811.945)" fill="#c1c1c1"/>
        <path id="Trazado_777779" data-name="Trazado 777779" d="M1069.037,953.613a.336.336,0,0,0-.294-.172h-5.494a.336.336,0,0,0-.306.476l.721,1.577a.336.336,0,0,0,.306.2h5.654a.336.336,0,0,0,.293-.5Z" transform="translate(-931.471 -835.536)" fill="#c1c1c1"/>
        <path id="Trazado_777780" data-name="Trazado 777780" d="M1057.466,928.343l-.91-1.63a.373.373,0,0,0-.325-.191h-5.077a.373.373,0,0,0-.339.528l.745,1.63a.373.373,0,0,0,.339.218h5.243a.373.373,0,0,0,.326-.555" transform="translate(-920.838 -811.946)" fill="#c1c1c1"/>
        <path id="Trazado_777781" data-name="Trazado 777781" d="M928.733,901.8a.406.406,0,0,0,.393.306h4.984a.406.406,0,0,0,.382-.541l-.6-1.69a.405.405,0,0,0-.382-.27H928.7a.406.406,0,0,0-.393.505Z" transform="translate(-813.497 -788.359)" fill="#c1c1c1"/>
        <path id="Trazado_777782" data-name="Trazado 777782" d="M819.966,926.522a.373.373,0,0,0-.373.392l.083,1.63a.373.373,0,0,0,.372.354H825.5a.373.373,0,0,0,.369-.429l-.248-1.63a.373.373,0,0,0-.369-.317Z" transform="translate(-718.24 -811.946)" fill="#c1c1c1"/>
        <path id="Trazado_777783" data-name="Trazado 777783" d="M818.732,902.108h5.06a.406.406,0,0,0,.4-.467l-.257-1.69a.406.406,0,0,0-.4-.344h-4.889a.406.406,0,0,0-.4.426l.086,1.69a.406.406,0,0,0,.405.385" transform="translate(-717.055 -788.358)" fill="#c1c1c1"/>
        <path id="Trazado_777784" data-name="Trazado 777784" d="M877.29,926.951l.248,1.63a.373.373,0,0,0,.369.317h5.426a.373.373,0,0,0,.361-.465l-.414-1.63a.373.373,0,0,0-.362-.281h-5.261a.373.373,0,0,0-.369.429" transform="translate(-768.799 -811.946)" fill="#c1c1c1"/>
        <path id="Trazado_777785" data-name="Trazado 777785" d="M873.894,902.108h5.031a.406.406,0,0,0,.393-.505l-.429-1.69a.406.406,0,0,0-.393-.306h-4.859a.405.405,0,0,0-.4.467l.257,1.69a.406.406,0,0,0,.4.344" transform="translate(-765.245 -788.358)" fill="#c1c1c1"/>
        <path id="Trazado_777786" data-name="Trazado 777786" d="M1129.579,953.592a.336.336,0,0,0-.281-.151h-5.408a.336.336,0,0,0-.294.5l.881,1.578a.336.336,0,0,0,.293.172h5.568a.336.336,0,0,0,.281-.521Z" transform="translate(-984.613 -835.536)" fill="#c1c1c1"/>
        <path id="Trazado_777787" data-name="Trazado 777787" d="M1039.439,901.871a.405.405,0,0,0,.369.237h4.841a.406.406,0,0,0,.354-.6l-.944-1.69a.406.406,0,0,0-.354-.208h-4.669a.406.406,0,0,0-.369.574Z" transform="translate(-910.191 -788.359)" fill="#c1c1c1"/>
        <path id="Trazado_777788" data-name="Trazado 777788" d="M1094.884,901.9a.405.405,0,0,0,.354.208h4.748a.406.406,0,0,0,.339-.629l-1.115-1.69a.406.406,0,0,0-.339-.182h-4.576a.406.406,0,0,0-.354.6Z" transform="translate(-958.616 -788.358)" fill="#c1c1c1"/>
        <path id="Trazado_777789" data-name="Trazado 777789" d="M1317.137,901.984a.406.406,0,0,0,.292.124h4.268a.406.406,0,0,0,.277-.7l-1.873-1.757.04-.043H1315.8a.406.406,0,0,0-.292.687Z" transform="translate(-1152.728 -788.359)" fill="#c1c1c1"/>
        <path id="Trazado_777790" data-name="Trazado 777790" d="M1205.929,901.949a.406.406,0,0,0,.323.16h4.526a.406.406,0,0,0,.307-.671l-1.579-1.829h-4.542a.406.406,0,0,0-.323.651Z" transform="translate(-1055.6 -788.359)" fill="#c1c1c1"/>
        <path id="Trazado_777791" data-name="Trazado 777791" d="M1261.516,901.967a.405.405,0,0,0,.307.141h4.4a.405.405,0,0,0,.292-.687l-1.727-1.791.025-.024h-4.449a.406.406,0,0,0-.307.671Z" transform="translate(-1104.149 -788.358)" fill="#c1c1c1"/>
        <path id="Trazado_777792" data-name="Trazado 777792" d="M1114.093,926.522h-4.987a.373.373,0,0,0-.326.555l.91,1.63a.373.373,0,0,0,.326.191h5.153a.373.373,0,0,0,.311-.578l-1.076-1.63a.373.373,0,0,0-.311-.168" transform="translate(-971.624 -811.946)" fill="#c1c1c1"/>
        <path id="Trazado_777793" data-name="Trazado 777793" d="M1373.766,955.109l-1.682-1.577a.336.336,0,0,0-.23-.091h-4.963a.336.336,0,0,0-.242.57l1.521,1.577a.337.337,0,0,0,.242.1h5.123a.336.336,0,0,0,.23-.581" transform="translate(-1197.564 -835.536)" fill="#c1c1c1"/>
        <path id="Trazado_777794" data-name="Trazado 777794" d="M1311.416,953.543a.336.336,0,0,0-.242-.1h-5.087a.336.336,0,0,0-.255.556l1.361,1.578a.335.335,0,0,0,.254.117h5.247a.336.336,0,0,0,.242-.57Z" transform="translate(-1144.279 -835.535)" fill="#c1c1c1"/>
        <path id="Trazado_777795" data-name="Trazado 777795" d="M1250.773,953.557a.336.336,0,0,0-.255-.117h-5.2a.336.336,0,0,0-.268.54l1.2,1.577a.335.335,0,0,0,.267.133h5.363a.336.336,0,0,0,.255-.556Z" transform="translate(-1091.022 -835.536)" fill="#c1c1c1"/>
        <path id="Trazado_777796" data-name="Trazado 777796" d="M1171.995,926.522h-4.886a.373.373,0,0,0-.311.578l1.076,1.63a.373.373,0,0,0,.311.168h5.051a.373.373,0,0,0,.3-.6l-1.241-1.63a.373.373,0,0,0-.3-.147" transform="translate(-1022.454 -811.946)" fill="#c1c1c1"/>
        <path id="Trazado_777797" data-name="Trazado 777797" d="M1190.16,953.573a.335.335,0,0,0-.267-.133h-5.31a.336.336,0,0,0-.281.521l1.041,1.577a.336.336,0,0,0,.281.151h5.471a.336.336,0,0,0,.267-.54Z" transform="translate(-1037.799 -835.536)" fill="#c1c1c1"/>
        <path id="Trazado_777798" data-name="Trazado 777798" d="M1150.383,901.926a.405.405,0,0,0,.339.182h4.643a.406.406,0,0,0,.323-.651l-1.287-1.69a.406.406,0,0,0-.323-.16h-4.471a.406.406,0,0,0-.339.629Z" transform="translate(-1007.088 -788.359)" fill="#c1c1c1"/>
        <path id="Trazado_777799" data-name="Trazado 777799" d="M1237.152,926.522h-11.995a.373.373,0,0,0-.3.6l1.241,1.63a.373.373,0,0,0,.3.147h19.391a.373.373,0,0,0,.255-.645l-1.737-1.63a.373.373,0,0,0-.255-.1h-6.9Z" transform="translate(-1073.324 -811.946)" fill="#c1c1c1"/>
        <rect id="Rectángulo_365172" data-name="Rectángulo 365172" width="136.252" height="89.955" transform="translate(29.124 7.949)" fill="#ededed"/>
        <path id="Trazado_777800" data-name="Trazado 777800" d="M369.765,80.935h-113a1.643,1.643,0,0,0,0,3.286h113a1.643,1.643,0,0,0,0-3.286" transform="translate(-223.574 -70.926)" fill="#fff"/>
        <path id="Trazado_777801" data-name="Trazado 777801" d="M1227.073,83.976a1.446,1.446,0,1,1-1.446-1.446,1.446,1.446,0,0,1,1.446,1.446" transform="translate(-1072.797 -72.324)" fill="#fff"/>
        <path id="Trazado_777802" data-name="Trazado 777802" d="M1262.146,83.976a1.446,1.446,0,1,1-1.446-1.446,1.446,1.446,0,0,1,1.446,1.446" transform="translate(-1103.533 -72.324)" fill="#fff"/>
        <path id="Trazado_777803" data-name="Trazado 777803" d="M1297.22,83.976a1.446,1.446,0,1,1-1.446-1.446,1.446,1.446,0,0,1,1.446,1.446" transform="translate(-1134.269 -72.324)" fill="#fff"/>
        <rect id="Rectángulo_365173" data-name="Rectángulo 365173" width="50.689" height="0.191" transform="translate(39.133 60.19)" fill="#becff7"/>
        <rect id="Rectángulo_365174" data-name="Rectángulo 365174" width="50.689" height="0.191" transform="translate(39.133 54.924)" fill="#becff7"/>
        <rect id="Rectángulo_365175" data-name="Rectángulo 365175" width="50.689" height="0.191" transform="translate(39.133 49.658)" fill="#becff7"/>
        <rect id="Rectángulo_365176" data-name="Rectángulo 365176" width="50.689" height="0.191" transform="translate(39.133 44.391)" fill="#becff7"/>
        <rect id="Rectángulo_365177" data-name="Rectángulo 365177" width="2.418" height="9.197" transform="translate(43.78 51.183)" fill="#b3c6f7"/>
        <rect id="Rectángulo_365178" data-name="Rectángulo 365178" width="2.418" height="13.184" transform="translate(47.373 47.197)" fill="#5573c6"/>
        <rect id="Rectángulo_365179" data-name="Rectángulo 365179" width="2.418" height="5.767" transform="translate(52.95 54.613)" fill="#b3c6f7"/>
        <rect id="Rectángulo_365180" data-name="Rectángulo 365180" width="2.418" height="9.754" transform="translate(56.543 50.627)" fill="#5573c6"/>
        <rect id="Rectángulo_365181" data-name="Rectángulo 365181" width="2.418" height="10.421" transform="translate(62.12 49.96)" fill="#b3c6f7"/>
        <rect id="Rectángulo_365182" data-name="Rectángulo 365182" width="2.418" height="8.676" transform="translate(65.713 51.705)" fill="#7a98f8"/>
        <rect id="Rectángulo_365183" data-name="Rectángulo 365183" width="2.418" height="13.184" transform="translate(71.291 47.197)" fill="#b3c6f7"/>
        <rect id="Rectángulo_365184" data-name="Rectángulo 365184" width="2.418" height="13.184" transform="translate(74.884 47.197)" fill="#7a98f8"/>
        <rect id="Rectángulo_365185" data-name="Rectángulo 365185" width="2.418" height="14.056" transform="translate(80.461 46.325)" fill="#b3c6f7"/>
        <rect id="Rectángulo_365186" data-name="Rectángulo 365186" width="2.418" height="16.606" transform="translate(84.054 43.775)" fill="#5573c6"/>
        <path id="Trazado_777804" data-name="Trazado 777804" d="M365.788,362.2h-52.9V341.316h.858V361.34h52.046Z" transform="translate(-274.192 -299.108)" fill="#7a98f8"/>
        <rect id="Rectángulo_365187" data-name="Rectángulo 365187" width="52.904" height="27.982" transform="translate(38.692 67.405)" fill="#fff"/>
        <path id="Trazado_777805" data-name="Trazado 777805" d="M429.142,577.231a5.649,5.649,0,0,0-.607-1.251,1.672,1.672,0,0,1-2.273-2.014,5.65,5.65,0,0,0-1.315-.452,1.672,1.672,0,0,1-3.03.183,5.648,5.648,0,0,0-1.251.607,1.672,1.672,0,0,1-2.014,2.273,5.651,5.651,0,0,0-.453,1.315,1.672,1.672,0,0,1,.183,3.03,5.661,5.661,0,0,0,.607,1.251,1.672,1.672,0,0,1,2.273,2.014,5.649,5.649,0,0,0,1.315.453,1.672,1.672,0,0,1,3.03-.183,5.646,5.646,0,0,0,1.251-.607,1.672,1.672,0,0,1,2.014-2.273,5.653,5.653,0,0,0,.452-1.315,1.672,1.672,0,0,1-.183-3.03m-5.26,3.831a1.99,1.99,0,1,1,1.867-2.106,1.99,1.99,0,0,1-1.867,2.106" transform="translate(-366.484 -502.591)" fill="#f4a338"/>
        <path id="Trazado_777806" data-name="Trazado 777806" d="M359.979,587.8v-.039l-.776-.309a2.957,2.957,0,0,0-.212-.893l.554-.625-.019-.035a3.757,3.757,0,0,0-.256-.408,3.712,3.712,0,0,0-.307-.371l-.027-.029-.767.33a2.959,2.959,0,0,0-.781-.482l-.05-.834-.038-.011a3.681,3.681,0,0,0-.948-.153h-.039l-.309.776a2.959,2.959,0,0,0-.893.212l-.625-.554-.034.019a3.639,3.639,0,0,0-.778.562l-.029.027.33.768a2.957,2.957,0,0,0-.482.781l-.834.05-.011.038a3.662,3.662,0,0,0-.153.948v.039l.776.309a2.96,2.96,0,0,0,.212.893l-.554.625.019.034a3.658,3.658,0,0,0,.562.778l.027.029.768-.33a2.961,2.961,0,0,0,.781.482l.05.834.038.011a3.685,3.685,0,0,0,.948.153h.039l.309-.776a2.958,2.958,0,0,0,.893-.212l.625.554.035-.019a3.718,3.718,0,0,0,.408-.256,3.679,3.679,0,0,0,.371-.307l.029-.027-.33-.768a2.96,2.96,0,0,0,.482-.781l.834-.05.011-.038a3.655,3.655,0,0,0,.153-.948m-4.035,1.708a1.847,1.847,0,1,1,2.118-1.53,1.847,1.847,0,0,1-2.118,1.53" transform="translate(-308.905 -511.729)" fill="#5573c6"/>
        <path id="Trazado_777807" data-name="Trazado 777807" d="M361.845,654.585l1.224-.454v-.062a5.724,5.724,0,0,0-.2-1.488l-.016-.059-1.3-.11a4.623,4.623,0,0,0-.723-1.239l.545-1.187-.044-.043a5.879,5.879,0,0,0-.568-.494,5.815,5.815,0,0,0-.628-.415l-.053-.031-1,.843a4.625,4.625,0,0,0-1.388-.365l-.454-1.224h-.061a5.751,5.751,0,0,0-1.488.2l-.059.016-.11,1.3a4.624,4.624,0,0,0-1.239.723l-1.187-.545-.043.044a5.7,5.7,0,0,0-.909,1.2l-.03.053.842,1a4.627,4.627,0,0,0-.365,1.387l-1.224.454v.061a5.711,5.711,0,0,0,.2,1.488l.016.059,1.3.11a4.624,4.624,0,0,0,.723,1.239l-.544,1.187.043.043a5.73,5.73,0,0,0,1.2.908l.053.031,1-.843a4.624,4.624,0,0,0,1.388.365l.454,1.224h.061a5.75,5.75,0,0,0,1.488-.2l.059-.016.11-1.3a4.623,4.623,0,0,0,1.24-.723l1.187.545.043-.044a5.736,5.736,0,0,0,.909-1.2l.031-.053-.843-1a4.625,4.625,0,0,0,.365-1.388m-4.238,2.387a2.888,2.888,0,1,1,2.472-3.252,2.888,2.888,0,0,1-2.472,3.252" transform="translate(-307.914 -568.092)" fill="#4adbd1"/>
        <path id="Trazado_777808" data-name="Trazado 777808" d="M385.891,681.267a1.772,1.772,0,1,0,2,1.517,1.772,1.772,0,0,0-2-1.517" transform="translate(-336.827 -597.006)" fill="#4adbd1"/>
        <rect id="Rectángulo_365188" data-name="Rectángulo 365188" width="19.439" height="0.278" transform="translate(67.399 70.922)" fill="#cacddd"/>
        <rect id="Rectángulo_365189" data-name="Rectángulo 365189" width="19.439" height="0.278" transform="translate(67.399 74.367)" fill="#cacddd"/>
        <rect id="Rectángulo_365190" data-name="Rectángulo 365190" width="19.439" height="0.278" transform="translate(67.399 77.812)" fill="#cacddd"/>
        <rect id="Rectángulo_365191" data-name="Rectángulo 365191" width="19.439" height="0.278" transform="translate(67.399 81.257)" fill="#cacddd"/>
        <rect id="Rectángulo_365192" data-name="Rectángulo 365192" width="19.439" height="0.278" transform="translate(67.399 84.702)" fill="#cacddd"/>
        <rect id="Rectángulo_365193" data-name="Rectángulo 365193" width="19.439" height="0.278" transform="translate(67.399 88.147)" fill="#cacddd"/>
        <rect id="Rectángulo_365194" data-name="Rectángulo 365194" width="19.439" height="0.278" transform="translate(67.399 91.592)" fill="#cacddd"/>
        <rect id="Rectángulo_365195" data-name="Rectángulo 365195" width="52.904" height="21.939" transform="translate(38.692 15.955)" fill="#fff"/>
        <path id="Trazado_777809" data-name="Trazado 777809" d="M441.122,161.271h-32a1.4,1.4,0,0,0,0,2.807h32a1.4,1.4,0,1,0,0-2.807" transform="translate(-357.301 -141.327)" fill="#cacddd"/>
        <path id="Trazado_777810" data-name="Trazado 777810" d="M368.028,159.809A1.808,1.808,0,1,1,366.22,158a1.808,1.808,0,0,1,1.808,1.808" transform="translate(-319.348 -138.462)" fill="#7a98f8"/>
        <path id="Trazado_777811" data-name="Trazado 777811" d="M371.226,168.6l-.738-.738a.185.185,0,0,1,.261-.261l.477.476,1.02-1.02a.185.185,0,0,1,.261.261Z" transform="translate(-324.626 -146.353)" fill="#fff"/>
        <path id="Trazado_777812" data-name="Trazado 777812" d="M441.122,206.369h-32a1.4,1.4,0,0,0,0,2.807h32a1.4,1.4,0,1,0,0-2.807" transform="translate(-357.301 -180.849)" fill="#cacddd"/>
        <path id="Trazado_777813" data-name="Trazado 777813" d="M368.028,204.907a1.808,1.808,0,1,1-1.808-1.808,1.808,1.808,0,0,1,1.808,1.808" transform="translate(-319.348 -177.983)" fill="#7a98f8"/>
        <path id="Trazado_777814" data-name="Trazado 777814" d="M371.226,213.7l-.738-.738a.185.185,0,0,1,.261-.261l.477.476,1.02-1.02a.185.185,0,0,1,.261.261Z" transform="translate(-324.626 -185.874)" fill="#fff"/>
        <path id="Trazado_777815" data-name="Trazado 777815" d="M441.122,251.467h-32a1.4,1.4,0,0,0,0,2.807h32a1.4,1.4,0,1,0,0-2.807" transform="translate(-357.301 -220.37)" fill="#cacddd"/>
        <path id="Trazado_777816" data-name="Trazado 777816" d="M368.028,250.006a1.808,1.808,0,1,1-1.808-1.808,1.808,1.808,0,0,1,1.808,1.808" transform="translate(-319.348 -217.505)" fill="#7a98f8"/>
        <path id="Trazado_777817" data-name="Trazado 777817" d="M373.317,256.842l.528-.528a.185.185,0,0,0-.261-.261l-.528.528-.528-.528a.185.185,0,1,0-.261.261l.528.528-.528.528a.185.185,0,0,0,.261.261l.528-.528.528.528a.185.185,0,0,0,.261-.261Z" transform="translate(-326.184 -224.341)" fill="#fff"/>
        <rect id="Rectángulo_365196" data-name="Rectángulo 365196" width="18.902" height="18.902" transform="translate(97.716 76.485)" fill="#cacddd"/>
        <path id="Trazado_777818" data-name="Trazado 777818" d="M829.763,653.926l1.224-.454v-.062a5.728,5.728,0,0,0-.2-1.488l-.016-.059-1.3-.11a4.624,4.624,0,0,0-.723-1.239l.545-1.187-.044-.043a5.893,5.893,0,0,0-.568-.494,5.813,5.813,0,0,0-.628-.415l-.053-.031-1,.843a4.625,4.625,0,0,0-1.387-.365l-.454-1.224H825.1a5.745,5.745,0,0,0-1.488.2l-.059.016-.11,1.3a4.628,4.628,0,0,0-1.239.723l-1.187-.545-.043.044a5.712,5.712,0,0,0-.909,1.2l-.03.053.842,1a4.622,4.622,0,0,0-.365,1.387l-1.224.454v.062a5.708,5.708,0,0,0,.2,1.488l.016.059,1.3.11a4.623,4.623,0,0,0,.723,1.239l-.544,1.187.043.043a5.724,5.724,0,0,0,1.2.908l.053.031,1-.843a4.622,4.622,0,0,0,1.388.365l.454,1.224h.062a5.757,5.757,0,0,0,1.488-.2l.059-.016.11-1.3a4.623,4.623,0,0,0,1.24-.723l1.187.545.043-.044a5.726,5.726,0,0,0,.909-1.2l.031-.053-.843-1a4.624,4.624,0,0,0,.365-1.388m-4.238,2.387A2.888,2.888,0,1,1,828,653.06a2.888,2.888,0,0,1-2.472,3.252" transform="translate(-717.969 -567.514)" fill="#fff"/>
        <path id="Trazado_777819" data-name="Trazado 777819" d="M853.809,680.608a1.772,1.772,0,1,0,2,1.517,1.772,1.772,0,0,0-2-1.517" transform="translate(-746.882 -596.428)" fill="#fff"/>
        <rect id="Rectángulo_365197" data-name="Rectángulo 365197" width="35.318" height="18.902" transform="translate(120.491 76.485)" fill="#cacddd"/>
        <rect id="Rectángulo_365198" data-name="Rectángulo 365198" width="27.329" height="0.278" transform="translate(125.553 80.63)" fill="#fff"/>
        <rect id="Rectángulo_365199" data-name="Rectángulo 365199" width="27.329" height="0.278" transform="translate(125.553 84.075)" fill="#fff"/>
        <rect id="Rectángulo_365200" data-name="Rectángulo 365200" width="27.329" height="0.278" transform="translate(125.553 87.52)" fill="#fff"/>
        <rect id="Rectángulo_365201" data-name="Rectángulo 365201" width="27.329" height="0.278" transform="translate(125.553 90.965)" fill="#fff"/>
        <rect id="Rectángulo_365202" data-name="Rectángulo 365202" width="58.093" height="52.904" transform="translate(97.716 15.955)" fill="#fff"/>
        <path id="Trazado_777820" data-name="Trazado 777820" d="M966.245,317.41a4.832,4.832,0,0,1,.54-2.22l-2.391-1.38a7.621,7.621,0,0,0,0,7.2l2.391-1.38a4.832,4.832,0,0,1-.54-2.219" transform="translate(-844.343 -275.003)" fill="#f0dcc0"/>
        <path id="Trazado_777821" data-name="Trazado 777821" d="M1030.834,364.2a4.851,4.851,0,0,1-3.844,2.217v2.76a7.607,7.607,0,0,0,6.234-3.6Z" transform="translate(-899.99 -319.162)" fill="#e8c492"/>
        <path id="Trazado_777822" data-name="Trazado 777822" d="M1026.99,284.154a4.85,4.85,0,0,1,3.844,2.216l2.39-1.38a7.608,7.608,0,0,0-6.234-3.6Z" transform="translate(-899.99 -246.595)" fill="#f4a338"/>
        <path id="Trazado_777823" data-name="Trazado 777823" d="M1060.54,317.41a4.832,4.832,0,0,1-.54,2.219l2.391,1.38a7.621,7.621,0,0,0,0-7.2L1060,315.19a4.834,4.834,0,0,1,.54,2.219" transform="translate(-928.918 -275.003)" fill="#e6b046"/>
        <path id="Trazado_777824" data-name="Trazado 777824" d="M975.12,286.37a4.85,4.85,0,0,1,3.844-2.216v-2.761a7.608,7.608,0,0,0-6.234,3.6Z" transform="translate(-852.44 -246.595)" fill="#ecc288"/>
        <path id="Trazado_777825" data-name="Trazado 777825" d="M978.963,366.416a4.85,4.85,0,0,1-3.844-2.217l-2.39,1.38a7.608,7.608,0,0,0,6.234,3.6Z" transform="translate(-852.439 -319.161)" fill="#ecc985"/>
        <path id="Trazado_777826" data-name="Trazado 777826" d="M1098.427,340.947c0,.082.008.163.008.244s-.005.163-.008.244h6.607c0-.081-.012-.162-.012-.244s.008-.163.012-.244Z" transform="translate(-962.593 -298.784)" fill="#cacddd"/>
        <path id="Trazado_777827" data-name="Trazado 777827" d="M1060.042,405.717l3.3,5.721c.068-.044.135-.091.205-.132s.147-.071.219-.108l-3.3-5.724q-.208.128-.423.244" transform="translate(-928.955 -355.331)" fill="#cacddd"/>
        <path id="Trazado_777828" data-name="Trazado 777828" d="M1127.823,242.121a4.365,4.365,0,0,1,.423-.243l-5.651-9.787a4.413,4.413,0,0,1-.423.244Z" transform="translate(-983.403 -203.39)" fill="#cacddd"/>
        <path id="Trazado_777829" data-name="Trazado 777829" d="M904.881,341.435c0-.082-.007-.163-.007-.244s.005-.163.007-.244h-6.607c0,.081.012.162.012.244s-.008.163-.012.244Z" transform="translate(-787.192 -298.784)" fill="#cacddd"/>
        <path id="Trazado_777830" data-name="Trazado 777830" d="M882.235,269.629l-2.979,5.169a4.354,4.354,0,0,0-.428-.245l2.993-5.176c.136.089.272.17.415.252" transform="translate(-770.15 -236.065)" fill="#cacddd"/>
        <path id="Trazado_777831" data-name="Trazado 777831" d="M1127.822,372.644l-5.65,9.786a4.441,4.441,0,0,1,.423.244l5.65-9.787a4.386,4.386,0,0,1-.423-.243" transform="translate(-983.402 -326.562)" fill="#cacddd"/>
        <path id="Trazado_777832" data-name="Trazado 777832" d="M879.27,372.644a4.386,4.386,0,0,1-.423.243l5.65,9.787a4.42,4.42,0,0,1,.423-.244Z" transform="translate(-770.167 -326.562)" fill="#cacddd"/>
        <path id="Trazado_777833" data-name="Trazado 777833" d="M1027.3,200.462c-.007.163-.007.326,0,.483h-6.115c0-.163-.007-.326-.014-.483Z" transform="translate(-894.888 -175.672)" fill="#cacddd"/>
        <path id="Trazado_777834" data-name="Trazado 777834" d="M963.251,405.474l-3.3,5.724c.073.037.148.067.219.108s.138.088.206.133l3.3-5.721q-.215-.116-.423-.244" transform="translate(-841.237 -355.332)" fill="#cacddd"/>
        <path id="Trazado_777835" data-name="Trazado 777835" d="M990.709,481.934a4.4,4.4,0,0,1,0-.488H979.421a4.374,4.374,0,0,1,0,.488Z" transform="translate(-858.303 -421.909)" fill="#cacddd"/>
        <path id="Trazado_777836" data-name="Trazado 777836" d="M1060.465,238.1l3.3-5.724c-.073-.037-.148-.067-.219-.108s-.138-.089-.206-.133l-3.3,5.721q.215.116.423.244" transform="translate(-928.955 -203.426)" fill="#cacddd"/>
        <path id="Trazado_777837" data-name="Trazado 777837" d="M982.093,269.653l.626,1.081c-.143.075-.286.156-.422.245l-.619-1.075Z" transform="translate(-860.281 -236.307)" fill="#cacddd"/>
        <path id="Trazado_777838" data-name="Trazado 777838" d="M1161.343,320.627a3.663,3.663,0,1,1,3.663-3.663,3.667,3.667,0,0,1-3.663,3.663m0-6.838a3.175,3.175,0,1,0,3.175,3.175,3.178,3.178,0,0,0-3.175-3.175" transform="translate(-1014.519 -274.557)" fill="#7a98f8"/>
        <path id="Trazado_777839" data-name="Trazado 777839" d="M836.872,320.627a3.663,3.663,0,1,1,3.663-3.663,3.667,3.667,0,0,1-3.663,3.663m0-6.838a3.175,3.175,0,1,0,3.175,3.175,3.178,3.178,0,0,0-3.175-3.175" transform="translate(-730.172 -274.557)" fill="#7a98f8"/>
        <path id="Trazado_777840" data-name="Trazado 777840" d="M1080.218,180.125a3.663,3.663,0,1,1,1.834-6.836h0a3.663,3.663,0,0,1-1.834,6.836m0-6.838a3.172,3.172,0,0,0-3.067,4,3.17,3.17,0,0,0,3.062,2.353,3.175,3.175,0,0,0,3.069-4,3.175,3.175,0,0,0-3.064-2.353" transform="translate(-943.428 -151.43)" fill="#7a98f8"/>
        <path id="Trazado_777841" data-name="Trazado 777841" d="M917.982,461.123a3.662,3.662,0,1,1,3.175-1.832,3.661,3.661,0,0,1-3.175,1.832m0-6.839a3.188,3.188,0,0,0-2.752,1.588,3.175,3.175,0,0,0,2.747,4.762,3.188,3.188,0,0,0,2.752-1.588,3.175,3.175,0,0,0-2.747-4.762" transform="translate(-801.254 -397.678)" fill="#7a98f8"/>
        <path id="Trazado_777842" data-name="Trazado 777842" d="M1080.223,461.123a3.675,3.675,0,0,1-3.174-1.832,3.664,3.664,0,0,1,3.17-5.495,3.677,3.677,0,0,1,3.175,1.832,3.664,3.664,0,0,1-3.17,5.495m0-6.839a3.173,3.173,0,1,0,2.752,1.588,3.18,3.18,0,0,0-2.752-1.588" transform="translate(-943.428 -397.678)" fill="#7a98f8"/>
        <path id="Trazado_777843" data-name="Trazado 777843" d="M480.039,432.9l3.013-.688c-.416-1.822-1.371-7.839-1.716-10.551-.293-2.307-.631-4.324-.884-5.43l-4.729,1.08c1.16,4.395,2.879,11.247,4.308,15.562Z" transform="translate(-416.894 -364.759)" fill="#ffc4b6"/>
        <path id="Trazado_777844" data-name="Trazado 777844" d="M480.114,403.292a2.426,2.426,0,1,1-2.9-1.825,2.426,2.426,0,0,1,2.9,1.825" transform="translate(-416.544 -351.767)" fill="#ffc4b6"/>
        <path id="Trazado_777845" data-name="Trazado 777845" d="M513.46,537.367a1.545,1.545,0,1,1-1.85-1.162,1.545,1.545,0,0,1,1.85,1.162" transform="translate(-447.29 -469.862)" fill="#ffc4b6"/>
        <path id="Trazado_777846" data-name="Trazado 777846" d="M524.983,290.93a3.4,3.4,0,0,1-4.283,1.852q-.09-.033-.179-.071a3.4,3.4,0,1,1,4.462-1.781" transform="translate(-454.349 -250.8)" fill="#ffc4b6"/>
        <path id="Trazado_777847" data-name="Trazado 777847" d="M480.048,404.838a2.426,2.426,0,1,1-1.272-3.186,2.426,2.426,0,0,1,1.272,3.186" transform="translate(-416.604 -351.81)" fill="#ffc4b6"/>
        <path id="Trazado_777848" data-name="Trazado 777848" d="M482.394,302.836h0a69.172,69.172,0,0,0-5.388,13.6l-.018.065,4.458,1.914c1.972-4.673,4.555-8.486,7.157-12.84l.035-.058Z" transform="translate(-418.003 -265.386)" fill="#ffc4b6"/>
        <path id="Trazado_777849" data-name="Trazado 777849" d="M641.8,286.152a3.4,3.4,0,0,1,2.233,4.1q-.025.093-.055.185a3.4,3.4,0,1,1-2.178-4.282" transform="translate(-558.532 -250.618)" fill="#ffc4b6"/>
        <path id="Trazado_777850" data-name="Trazado 777850" d="M745.857,325.292a2.426,2.426,0,1,1-3.058,1.555,2.426,2.426,0,0,1,3.058-1.555" transform="translate(-650.838 -284.96)" fill="#ffc4b6"/>
        <path id="Trazado_777851" data-name="Trazado 777851" d="M656.323,293.794h0a57.86,57.86,0,0,0,12.287,2.939l.067.012,1.5-4.613h0a75.351,75.351,0,0,1-11.691-4.77l-.061-.029Z" transform="translate(-575.161 -251.8)" fill="#ffc4b6"/>
        <path id="Trazado_777852" data-name="Trazado 777852" d="M759.818,257.463l-2.278-2.088c-1.263,1.378-3.859,3.817-5.894,5.642-1.732,1.553-3.2,2.977-3.965,3.813l3.576,3.278q4.436-5.178,8.545-10.623Z" transform="translate(-655.22 -223.794)" fill="#ffc4b6"/>
        <path id="Trazado_777853" data-name="Trazado 777853" d="M743.46,325.932a2.426,2.426,0,1,1,.149,3.427,2.426,2.426,0,0,1-.149-3.427" transform="translate(-650.964 -284.936)" fill="#ffc4b6"/>
        <path id="Trazado_777854" data-name="Trazado 777854" d="M824.826,251.5a1.545,1.545,0,1,1,.1,2.183,1.545,1.545,0,0,1-.1-2.183" transform="translate(-722.471 -219.959)" fill="#ffc4b6"/>
        <rect id="Rectángulo_365203" data-name="Rectángulo 365203" width="4.138" height="7.673" transform="translate(81.148 117.76)" fill="#ffc4b6"/>
        <path id="Trazado_777855" data-name="Trazado 777855" d="M588.393,186.439a3.58,3.58,0,0,1-1.657-.309,6.276,6.276,0,0,1-2.76-2.534q-.154-.245-.29-.5a5.887,5.887,0,0,1-.279-5.54q.07-.132.148-.26c1.048-1.722,3.594-1.892,5.2-.811,1.253.842,1.423,2.033,1.62,3.34a11.084,11.084,0,0,1-.428,5.446,1.71,1.71,0,0,1-1.555,1.166" transform="translate(-510.761 -154.068)" fill="#ffc4b6"/>
        <path id="Trazado_777856" data-name="Trazado 777856" d="M581.483,236.185h4.683l-.079-1.577-.036-.723-.062-1.226-.116-2.308-4.141.019-.1,2.309-.048,1.142Z" transform="translate(-509.576 -201.866)" fill="#ffc4b6"/>
        <path id="Trazado_777857" data-name="Trazado 777857" d="M601.883,234.171c.117.025.3.06.3.032.034-.526-.269-1.149-.857-1.158a.647.647,0,0,0-.564.233,3.069,3.069,0,0,0-.341.51,14.633,14.633,0,0,0,1.464.384" transform="translate(-526.168 -204.221)" fill="#ea8883"/>
        <path id="Trazado_777858" data-name="Trazado 777858" d="M561.848,174.694c.148.525.188,1.008.443,1.036a6.244,6.244,0,0,0,1.444.011c.158-.011.341.012.423-.152.2-.4.343-.844.568-1.233a3.344,3.344,0,0,1,.808-.91,1.592,1.592,0,0,1,1.252-.539c.447.085.58-.016.64-.5a3.425,3.425,0,0,1,.469-1.5c.568-.67,1.219-.6,1.947-.9,1.656-.689,1.887-2.659,1.241-4.152a1.451,1.451,0,0,0-2.039-.868,6.3,6.3,0,0,1-3.172.275,9.751,9.751,0,0,0-1.423-.318c-1.193-.042-3.466.228-3.053,2.033a2.065,2.065,0,0,0-1.329.858,3.138,3.138,0,0,0-.355,2.486,7.758,7.758,0,0,0,1.133,2.482,8.13,8.13,0,0,1,1.006,1.893" transform="translate(-490.408 -144.465)" fill="#171d51"/>
        <path id="Trazado_777859" data-name="Trazado 777859" d="M607.573,222.437a1.5,1.5,0,0,1-.276,1.787c-.444.272-1.04-.086-1.331-.8a1.5,1.5,0,0,1,.276-1.787c.444-.272,1.04.086,1.331.8" transform="translate(-530.892 -194.148)" fill="#ffc4b6"/>
        <path id="Trazado_777860" data-name="Trazado 777860" d="M611.829,225.228a.909.909,0,0,0-.866-.909.046.046,0,0,1,0-.093,1,1,0,0,1,.959,1c.006.059-.087.059-.093,0" transform="translate(-535.37 -196.498)" fill="#ea8883"/>
        <path id="Trazado_777861" data-name="Trazado 777861" d="M662.244,1005.676l-5.3-3h-4.24l-.377,3.817c0,.3.169.538.377.538h9.342c.273,0,.494-.315.494-.7a.758.758,0,0,0-.3-.647" transform="translate(-571.661 -878.679)" fill="#5573c6"/>
        <rect id="Rectángulo_365204" data-name="Rectángulo 365204" width="4.138" height="7.673" transform="translate(65.158 117.76)" fill="#ffc4b6"/>
        <path id="Trazado_777862" data-name="Trazado 777862" d="M532.937,1005.676l-5.3-3H523.4l-.377,3.817c0,.3.169.538.377.538h9.342c.273,0,.494-.315.494-.7a.758.758,0,0,0-.3-.647" transform="translate(-458.345 -878.679)" fill="#5573c6"/>
        <path id="Trazado_777863" data-name="Trazado 777863" d="M593.907,532.716h-6.014q-.163-1.891-.329-3.782c-.429-4.808-.935-9.609-1.56-14.4-.718-5.5-1.151-10.9-2.566-16.315-1.077-4.116-1.752-8.38-2.6-12.552-.807-3.953-1.883-7.59-1.431-11.671.228-2.063.718-4.345,2.434-5.511a4.976,4.976,0,0,1,1.867-.733,7.084,7.084,0,0,1,6.823,2.614,14.225,14.225,0,0,1,2.351,7.466c.681,8.276.923,13.662,1.573,21.95.761,9.71-.13,23.174-.545,32.928" transform="translate(-507.659 -409.811)" fill="#373f51"/>
        <path id="Trazado_777864" data-name="Trazado 777864" d="M513.636,544.3c0-7.1-.893-14.178-.9-21.273,0-2.309-.37-4.9,1.206-6.8a6.719,6.719,0,0,1,5.513-2.277c3.513.19,6.2,2.85,6,5.942l-2.105,24.93c0,.018-.008.034-.01.052l-3.821,28.415h-6.087l.2-28.925c0-.011,0-.022.005-.033s0-.023,0-.035" transform="translate(-449.299 -450.387)" fill="#373f51"/>
        <path id="Trazado_777865" data-name="Trazado 777865" d="M479.9,277.641c1.206-3.448,3.144-6.659,6.277-8.338a14.75,14.75,0,0,1,6.947-1.63,18.736,18.736,0,0,1,6.6.806c3.739,1.366,7.243,3.339,11,4.651a2.511,2.511,0,0,1,.955.542,2.448,2.448,0,0,1,.581,1.2,7.891,7.891,0,0,1-.141,3.358,10.861,10.861,0,0,1-.456,1.63c-.174.46-.342.973-.913,1.044a1.854,1.854,0,0,1-.58-.049q-3.3-.637-6.536-1.558c-.1,1.239.071,4.639.138,5.475.164,2.053.29,4.108.408,6.164.227,3.944.465,9.826.465,12.078a37.027,37.027,0,0,1-10.18,1.621c-3.736,0-10.138-.581-12.043-1.228.044-1.959.294-3.478.38-5.432.026-.578.036-1.156.05-1.735,0-2.781-.076-7.979.059-10.74a20,20,0,0,1-4.68-1.659,46.245,46.245,0,0,1,1.668-6.2" transform="translate(-419.092 -234.567)" fill="#f4a338"/>
        <rect id="Rectángulo_365205" data-name="Rectángulo 365205" width="0.17" height="10.925" transform="matrix(0.955, -0.297, 0.297, 0.955, 71.556, 74.177)" fill="#183573"/>
        <rect id="Rectángulo_365206" data-name="Rectángulo 365206" width="0.17" height="10.7" transform="translate(63.734 40.238)" fill="#3463b7"/>
        <path id="Trazado_777866" data-name="Trazado 777866" d="M826.325,211.609a3.594,3.594,0,0,0,.518-1.541,3.062,3.062,0,0,1,.478-1.591,2.874,2.874,0,0,1,.523-.47,2.811,2.811,0,0,1,1.4-.726c.048,0,.145.009.145.009s.408-.519.457-.585a2.648,2.648,0,0,1,.454-.5,5.226,5.226,0,0,1,1.313-.87.7.7,0,0,1,.384-.054.392.392,0,0,1,.284.452.763.763,0,0,1-.281.373,8.679,8.679,0,0,0-.747.744,5.711,5.711,0,0,0-.418.611.8.8,0,0,1,.253-.2c.565-.281.679.773.472,1.091a.8.8,0,0,1,.153,1,.621.621,0,0,1,.242.58,1.833,1.833,0,0,1-.213.622,4.1,4.1,0,0,1-.5.849,2.693,2.693,0,0,1-.865.661,4.829,4.829,0,0,0-1.48,1.3c-.227-.1-1.792-1.283-2.573-1.748" transform="translate(-724.14 -179.884)" fill="#ffc4b6"/>
        <path id="Trazado_777867" data-name="Trazado 777867" d="M844.83,222.17l-.1-.088.739-.82.1.088Z" transform="translate(-740.272 -193.901)" fill="#ea8883"/>
        <path id="Trazado_777868" data-name="Trazado 777868" d="M920.791,172.034h-1.516a3.409,3.409,0,0,1,.2-1.192,2.477,2.477,0,0,1,.483-.838q.289-.31.629-.614t.628-.527a1.945,1.945,0,0,0,.484-.556,1.428,1.428,0,0,0,.2-.737,1.282,1.282,0,0,0-.462-1.018,1.84,1.84,0,0,0-1.242-.4,1.889,1.889,0,0,0-1.431.527,2.035,2.035,0,0,0-.506,1.466H916.6a3.33,3.33,0,0,1,.976-2.513,4.152,4.152,0,0,1,5.041-.166,2.511,2.511,0,0,1,.9,2,2.942,2.942,0,0,1-.2,1.119,2.161,2.161,0,0,1-.512.788q-.31.289-.664.592c-.236.2-.455.387-.657.556a1.948,1.948,0,0,0-.5.643,1.9,1.9,0,0,0-.2.866m-1.7,2.08a.915.915,0,0,1,.274-.657.927.927,0,0,1,1.329,0,.915.915,0,0,1,.274.657.934.934,0,0,1-.274.672.927.927,0,0,1-1.329,0,.934.934,0,0,1-.274-.672" transform="translate(-803.252 -144.329)" fill="#4adbd1"/>
        <path id="Trazado_777869" data-name="Trazado 777869" d="M880.136,149.828a8.938,8.938,0,0,1-1.824-.383l.391-1.212a7.579,7.579,0,0,0,1.562.328Zm1.859,0-.131-1.267a7.512,7.512,0,0,0,1.561-.331l.395,1.211a8.868,8.868,0,0,1-1.824.387m-5.388-1.139a9.054,9.054,0,0,1-1.508-1.093l.851-.949a7.743,7.743,0,0,0,1.294.939Zm8.915-.009-.64-1.1a7.7,7.7,0,0,0,1.291-.941l.852.947a9.042,9.042,0,0,1-1.5,1.1m-11.672-2.466a8.9,8.9,0,0,1-.935-1.61l1.162-.521a7.659,7.659,0,0,0,.8,1.38Zm14.421-.015-1.03-.75a7.538,7.538,0,0,0,.8-1.382l1.164.518a8.9,8.9,0,0,1-.933,1.614m-15.936-3.367a8.981,8.981,0,0,1-.2-1.852l1.274,0a7.7,7.7,0,0,0,.169,1.588Zm17.443-.019-1.245-.264a7.7,7.7,0,0,0,.165-1.589l1.274-.035v.035a8.921,8.921,0,0,1-.193,1.852m-16.2-3.426-1.247-.262a8.934,8.934,0,0,1,.572-1.774l1.164.516a7.617,7.617,0,0,0-.489,1.52m14.952-.047a7.65,7.65,0,0,0-.5-1.517l1.161-.522a8.881,8.881,0,0,1,.583,1.77Zm-13.667-2.857-1.032-.746a8.937,8.937,0,0,1,1.243-1.387l.854.944a7.725,7.725,0,0,0-1.065,1.189m12.361-.038a7.632,7.632,0,0,0-1.072-1.182l.849-.95a8.968,8.968,0,0,1,1.251,1.38Zm-10.006-2.1-.64-1.1a8.9,8.9,0,0,1,1.7-.764l.4,1.211a7.623,7.623,0,0,0-1.456.654m7.639-.024a7.665,7.665,0,0,0-1.461-.645l.39-1.212a8.875,8.875,0,0,1,1.7.753Zm-4.622-.964-.136-1.267a9.245,9.245,0,0,1,1.862-.006l-.126,1.267a7.932,7.932,0,0,0-1.6.006" transform="translate(-764.289 -115.713)" fill="#4adbd1"/>
      </g>
    </g>
  </g>
</svg>
