<svg id="Grupo_1032060" data-name="Grupo 1032060" xmlns="http://www.w3.org/2000/svg" xmlns:xlink="http://www.w3.org/1999/xlink" width="296.591" height="227.615" viewBox="0 0 296.591 227.615">
  <defs>
    <clipPath id="clip-path">
      <rect id="Rectángulo_365709" data-name="Rectángulo 365709" width="296.591" height="227.615" fill="none"/>
    </clipPath>
    <clipPath id="clip-path-5">
      <rect id="Rectángulo_365698" data-name="Rectángulo 365698" width="26.988" height="38.635" fill="none"/>
    </clipPath>
    <clipPath id="clip-path-6">
      <rect id="Rectángulo_365699" data-name="Rectángulo 365699" width="22.471" height="24.096" fill="none"/>
    </clipPath>
    <clipPath id="clip-path-7">
      <rect id="Rectángulo_365700" data-name="Rectángulo 365700" width="15.226" height="12.925" fill="none"/>
    </clipPath>
    <clipPath id="clip-path-8">
      <rect id="Rectángulo_365701" data-name="Rectángulo 365701" width="43.129" height="36.115" fill="none"/>
    </clipPath>
    <clipPath id="clip-path-9">
      <rect id="Rectángulo_365702" data-name="Rectángulo 365702" width="6.929" height="8.247" fill="none"/>
    </clipPath>
    <clipPath id="clip-path-10">
      <rect id="Rectángulo_365703" data-name="Rectángulo 365703" width="34.734" height="46.017" fill="none"/>
    </clipPath>
    <clipPath id="clip-path-12">
      <rect id="Rectángulo_365706" data-name="Rectángulo 365706" width="20.91" height="10.593" fill="none"/>
    </clipPath>
    <clipPath id="clip-path-13">
      <rect id="Rectángulo_365707" data-name="Rectángulo 365707" width="22.644" height="2.268" fill="none"/>
    </clipPath>
  </defs>
  <g id="Grupo_1032059" data-name="Grupo 1032059" clip-path="url(#clip-path)">
    <g id="Grupo_1032028" data-name="Grupo 1032028">
      <g id="Grupo_1032027" data-name="Grupo 1032027" clip-path="url(#clip-path)">
        <path id="Trazado_778770" data-name="Trazado 778770" d="M223.909,326.442a17.245,17.245,0,0,1,4.205-1.828l.866-4.162,7.033-.123,1.012,4.129a17.219,17.219,0,0,1,4.267,1.679l3.554-2.33,5.06,4.886-2.2,3.633a17.233,17.233,0,0,1,1.827,4.206l4.162.866.124,7.033-4.129,1.013a17.237,17.237,0,0,1-1.679,4.266l2.329,3.555-4.885,5.06-3.634-2.2a17.221,17.221,0,0,1-4.206,1.828l-.866,4.162-7.033.123-1.013-4.13a17.24,17.24,0,0,1-4.267-1.679l-3.554,2.33-5.061-4.886,2.2-3.633a17.2,17.2,0,0,1-1.827-4.206l-4.162-.866-.123-7.033,4.129-1.013a17.232,17.232,0,0,1,1.679-4.267l-2.33-3.555,4.885-5.06Zm3.749,9.369a7.546,7.546,0,1,0,10.669-.188,7.545,7.545,0,0,0-10.669.188" transform="translate(-106.046 -160.3)" fill="#e6b046"/>
        <path id="Trazado_778771" data-name="Trazado 778771" d="M79.173,21.1a15.668,15.668,0,0,1,3.819-1.66l.787-3.78,6.386-.112.919,3.749a15.643,15.643,0,0,1,3.875,1.525l3.228-2.116,4.6,4.437-2,3.3a15.637,15.637,0,0,1,1.66,3.82l3.78.787.112,6.386-3.75.919a15.639,15.639,0,0,1-1.524,3.875l2.115,3.228-4.436,4.6-3.3-2a15.656,15.656,0,0,1-3.82,1.66l-.787,3.78-6.386.112-.919-3.75a15.659,15.659,0,0,1-3.875-1.525l-3.228,2.116-4.6-4.437,2-3.3a15.638,15.638,0,0,1-1.66-3.819L68.39,38.1l-.112-6.386,3.75-.92a15.647,15.647,0,0,1,1.525-3.875L71.437,23.7l4.436-4.6Zm3.4,8.508a6.852,6.852,0,1,0,9.688-.17,6.852,6.852,0,0,0-9.688.17" transform="translate(-34.168 -7.782)" fill="#e6b046"/>
        <rect id="Rectángulo_365689" data-name="Rectángulo 365689" width="0.5" height="110.74" transform="translate(156.023 24.946) rotate(-59.77)" fill="#ebebeb"/>
        <path id="Trazado_778772" data-name="Trazado 778772" d="M55.206,159.051l-.358-.349c.394-.4,39.591-40.562,56.168-58.674,12.01-13.121,46.961-49.513,47.313-49.879l.36.346c-.352.366-35.3,36.753-47.3,49.87C94.8,118.483,55.6,158.647,55.206,159.051" transform="translate(-27.447 -25.096)" fill="#ebebeb"/>
        <path id="Trazado_778773" data-name="Trazado 778773" d="M24.908,275.5a4.042,4.042,0,0,0,2.408-3.739,3.925,3.925,0,0,0-3.774-4.06,3.92,3.92,0,0,0-3.807,4.025A4.035,4.035,0,0,0,22.15,275.5c-5.833.879-5.569,7.219-5.569,7.219l13.794.063s.315-6.409-5.468-7.282" transform="translate(-8.297 -133.963)" fill="#5573c6"/>
        <path id="Trazado_778774" data-name="Trazado 778774" d="M15.183,283.732A15.183,15.183,0,1,1,30.365,268.55a15.2,15.2,0,0,1-15.183,15.183m0-29.932a14.75,14.75,0,1,0,14.75,14.75,14.766,14.766,0,0,0-14.75-14.75" transform="translate(0 -126.791)" fill="#ebebeb"/>
        <path id="Trazado_778775" data-name="Trazado 778775" d="M524.317,166.25a3.94,3.94,0,0,0,2.348-3.646,3.7,3.7,0,1,0-7.392-.034,3.935,3.935,0,0,0,2.355,3.68c-5.688.857-5.429,7.038-5.429,7.038l13.449.062s.307-6.249-5.331-7.1" transform="translate(-258.318 -79.39)" fill="#5573c6"/>
        <path id="Trazado_778776" data-name="Trazado 778776" d="M516.442,174.192a14.806,14.806,0,1,1,13.11-13.111,14.821,14.821,0,0,1-13.11,13.111m-.047-29.017a14.384,14.384,0,1,0,12.738,12.737,14.4,14.4,0,0,0-12.738-12.737" transform="translate(-250.228 -72.397)" fill="#ebebeb"/>
        <path id="Trazado_778777" data-name="Trazado 778777" d="M275.895,20.29a3.706,3.706,0,0,0,2.208-3.428,3.483,3.483,0,1,0-6.951-.032,3.7,3.7,0,0,0,2.215,3.46c-5.348.806-5.106,6.618-5.106,6.618l12.646.058s.289-5.875-5.013-6.676" transform="translate(-134.244 -6.576)" fill="#5573c6"/>
        <path id="Trazado_778778" data-name="Trazado 778778" d="M268.491,27.758A13.921,13.921,0,1,1,280.818,15.43a13.935,13.935,0,0,1-12.327,12.328M268.446.475a13.524,13.524,0,1,0,11.977,11.976A13.539,13.539,0,0,0,268.446.475" transform="translate(-126.637 0)" fill="#ebebeb"/>
        <path id="Trazado_778779" data-name="Trazado 778779" d="M123.816,380.415a3.449,3.449,0,0,0,2.055-3.19,3.241,3.241,0,1,0-6.468-.03,3.443,3.443,0,0,0,2.061,3.22c-4.977.75-4.751,6.159-4.751,6.159l11.769.054s.268-5.468-4.666-6.213" transform="translate(-58.405 -187.04)" fill="#5573c6"/>
        <path id="Trazado_778780" data-name="Trazado 778780" d="M115.518,387.44a12.954,12.954,0,1,1,12.954-12.954,12.969,12.969,0,0,1-12.954,12.954m0-25.539A12.585,12.585,0,1,0,128.1,374.486,12.6,12.6,0,0,0,115.518,361.9" transform="translate(-51.326 -180.92)" fill="#ebebeb"/>
        <rect id="Rectángulo_365690" data-name="Rectángulo 365690" width="0.5" height="44.038" transform="matrix(0.669, -0.744, 0.744, 0.669, 22.964, 154.873)" fill="#ebebeb"/>
      </g>
    </g>
    <rect id="Rectángulo_365692" data-name="Rectángulo 365692" width="77.914" height="36.594" transform="translate(201.943 4.864)" fill="#5573c6"/>
    <g id="Grupo_1032030" data-name="Grupo 1032030">
      <g id="Grupo_1032029" data-name="Grupo 1032029" clip-path="url(#clip-path)">
        <path id="Trazado_778781" data-name="Trazado 778781" d="M482.015,46.2s-.007-.225-.01-.655-.005-1.071-.01-1.9c-.005-1.673-.013-4.131-.023-7.294-.012-6.322-.029-15.459-.051-26.741l.095.095-77.909.035H404.1l.13-.13c0,12.877,0,25.256-.007,36.594l-.123-.123,55.942.059,16.156.034,4.316.015,1.117.007c.252,0,.384.007.384.007s-.122,0-.369.007l-1.1.007-4.291.015-16.127.034-56.025.059h-.123V46.2c0-11.338,0-23.717-.007-36.594v-.13h.136l77.909.035h.1v.1c-.021,11.306-.039,20.463-.051,26.8-.01,3.154-.018,5.6-.023,7.273,0,.825-.008,1.456-.01,1.886s-.01.636-.01.636" transform="translate(-202.157 -4.742)" fill="#263238"/>
        <path id="Trazado_778782" data-name="Trazado 778782" d="M482.264,31.715c0,.072-17.47.13-39.015.13s-39.019-.058-39.019-.13,17.467-.13,39.019-.13,39.015.058,39.015.13" transform="translate(-202.287 -15.806)" fill="#263238"/>
        <path id="Trazado_778783" data-name="Trazado 778783" d="M415.193,17.462a17.356,17.356,0,0,1-2.117,2.122,17.327,17.327,0,0,1-2.293,1.931,17.274,17.274,0,0,1,2.117-2.122,17.373,17.373,0,0,1,2.293-1.931" transform="translate(-205.566 -8.737)" fill="#263238"/>
        <path id="Trazado_778784" data-name="Trazado 778784" d="M415.193,21.515a17.361,17.361,0,0,1-2.122-2.117,17.326,17.326,0,0,1-1.931-2.293,17.317,17.317,0,0,1,2.122,2.117,17.37,17.37,0,0,1,1.931,2.293" transform="translate(-205.744 -8.559)" fill="#263238"/>
        <path id="Trazado_778785" data-name="Trazado 778785" d="M430.7,21.384a1.889,1.889,0,0,1-.025-.327c-.008-.243-.018-.531-.029-.873-.021-.744-.046-1.787-.057-3.031l.112.112-4.231.017.13-.129h0v.574c0,.19,0,.379,0,.566q0,.56,0,1.094c-.005.707-.009,1.376-.013,2l-.112-.112c1.244.011,2.287.036,3.031.057l.872.029a1.915,1.915,0,0,1,.327.026,10.045,10.045,0,0,1-1.128.055c-.736.021-1.809.046-3.1.057h-.112v-.113c0-.62-.008-1.289-.013-2q0-.534,0-1.094c0-.186,0-.375,0-.566v-.574h0l.13-.131,4.231.017h.113v.112c-.011,1.293-.036,2.366-.057,3.1a9.885,9.885,0,0,1-.055,1.128" transform="translate(-213.339 -8.518)" fill="#263238"/>
        <path id="Trazado_778786" data-name="Trazado 778786" d="M446.351,24.873a19.911,19.911,0,0,1-4.541,0,19.91,19.91,0,0,1,4.541,0" transform="translate(-221.093 -12.382)" fill="#263238"/>
        <rect id="Rectángulo_365693" data-name="Rectángulo 365693" width="70.708" height="49.647" transform="translate(0.573 48.939)" fill="#fafafa"/>
        <path id="Trazado_778787" data-name="Trazado 778787" d="M71.725,147.478s-.007-.312-.011-.907-.006-1.478-.012-2.627c-.006-2.3-.015-5.683-.026-10-.013-8.636-.032-21.035-.055-36.108l.1.1-70.7.025H1.017l.13-.13c0,17.756-.008,34.613-.011,49.647l-.118-.118L52,147.418l14.53.032,3.861.014,1,.007c.224,0,.342.007.342.007s-.108,0-.328.007l-.983.007-3.838.014-14.5.032L1.017,147.6H.9v-.118c0-15.034-.007-31.891-.011-49.647V97.7h.136l70.7.025h.105v.1c-.023,15.1-.041,27.522-.055,36.174-.011,4.311-.02,7.682-.027,9.981,0,1.141-.009,2.014-.011,2.608s-.011.884-.011.884" transform="translate(-0.444 -48.892)" fill="#263238"/>
        <path id="Trazado_778788" data-name="Trazado 778788" d="M71.964,117.9c0,.072-15.854.13-35.406.13s-35.41-.058-35.41-.13,15.851-.13,35.41-.13,35.406.058,35.406.13" transform="translate(-0.574 -58.933)" fill="#263238"/>
        <path id="Trazado_778789" data-name="Trazado 778789" d="M11.1,104.972a14.325,14.325,0,0,1-1.912,1.935,14.359,14.359,0,0,1-2.089,1.743,14.313,14.313,0,0,1,1.913-1.935,14.332,14.332,0,0,1,2.089-1.743" transform="translate(-3.549 -52.53)" fill="#263238"/>
        <path id="Trazado_778790" data-name="Trazado 778790" d="M11.1,108.651a14.327,14.327,0,0,1-1.935-1.912,14.359,14.359,0,0,1-1.744-2.089,14.331,14.331,0,0,1,1.935,1.913,14.346,14.346,0,0,1,1.743,2.089" transform="translate(-3.711 -52.368)" fill="#263238"/>
        <path id="Trazado_778791" data-name="Trazado 778791" d="M25.157,108.52c-.017-.017-.033-.417-.055-1.092s-.046-1.621-.057-2.748l.112.112-3.84.017.13-.129h0v.521q0,.259,0,.513,0,.508,0,.993c0,.641-.009,1.248-.013,1.811l-.112-.112c1.127.011,2.072.036,2.748.057s1.075.038,1.092.055a8.031,8.031,0,0,1-1.02.055c-.668.021-1.643.046-2.82.057h-.112v-.113c0-.564-.008-1.17-.013-1.811q0-.484,0-.993c0-.169,0-.34,0-.513v-.521h0l.13-.131,3.84.018h.113v.112c-.011,1.177-.036,2.151-.057,2.82a8.029,8.029,0,0,1-.055,1.02" transform="translate(-10.588 -52.318)" fill="#263238"/>
        <path id="Trazado_778792" data-name="Trazado 778792" d="M39.372,111.686a8.215,8.215,0,0,1-2.06.131,8.214,8.214,0,0,1-2.061-.131,8.316,8.316,0,0,1,2.061-.129,8.317,8.317,0,0,1,2.06.129" transform="translate(-17.641 -55.826)" fill="#263238"/>
        <path id="Trazado_778793" data-name="Trazado 778793" d="M64.749,140.646a9.921,9.921,0,1,0-18.473,5.012h-.005l.028.037c.38.641.857,1.1,1.338,1.773L53.4,155.1a1.791,1.791,0,0,0,2.86,0l5.664-7.5a21.409,21.409,0,0,0,1.441-1.909l.02-.027h0a9.861,9.861,0,0,0,1.369-5.012m-9.921,4.32a4.366,4.366,0,1,1,4.366-4.366,4.366,4.366,0,0,1-4.366,4.366" transform="translate(-22.472 -65.418)" fill="#4adbd1"/>
        <rect id="Rectángulo_365694" data-name="Rectángulo 365694" width="90.765" height="63.73" transform="translate(205.687 117.851)" fill="#fafafa"/>
        <path id="Trazado_778794" data-name="Trazado 778794" d="M502.359,299.5s-.007-.4-.011-1.161-.007-1.894-.012-3.37c-.006-2.954-.015-7.291-.027-12.839-.013-11.086-.032-27.005-.055-46.36l.1.105L411.6,235.9h-.008l.13-.13c0,22.793-.009,44.431-.012,63.73l-.118-.118,65.45.058,18.647.032,4.953.014,1.277.007c.287,0,.437.007.437.007s-.14,0-.424.007l-1.264.007-4.929.014-18.62.032-65.528.058h-.118V299.5c0-19.3-.007-40.937-.012-63.73v-.13h.137l90.757.025h.105v.1c-.023,19.382-.041,35.325-.055,46.426-.012,5.537-.021,9.866-.026,12.815-.006,1.467-.009,2.59-.012,3.351s-.012,1.138-.012,1.138" transform="translate(-205.907 -117.922)" fill="#263238"/>
        <path id="Trazado_778795" data-name="Trazado 778795" d="M502.629,261.529c0,.072-20.351.13-45.45.13s-45.455-.058-45.455-.13,20.347-.13,45.455-.13,45.45.058,45.45.13" transform="translate(-206.037 -130.811)" fill="#263238"/>
        <path id="Trazado_778796" data-name="Trazado 778796" d="M424.5,244.9a46.775,46.775,0,0,1-5.137,4.721A46.885,46.885,0,0,1,424.5,244.9" transform="translate(-209.857 -122.555)" fill="#263238"/>
        <path id="Trazado_778797" data-name="Trazado 778797" d="M424.5,249.625a46.893,46.893,0,0,1-4.721-5.137,46.9,46.9,0,0,1,4.721,5.137" transform="translate(-210.065 -122.348)" fill="#263238"/>
        <path id="Trazado_778798" data-name="Trazado 778798" d="M442.59,249.494a2.5,2.5,0,0,1-.026-.378c-.008-.274-.017-.609-.029-1.014-.02-.866-.046-2.084-.057-3.537l.112.112-4.928.017c-.029.028.246-.246.129-.129h0v.668q0,.333,0,.659,0,.651,0,1.274c0,.825-.009,1.6-.013,2.325l-.112-.112c1.453.011,2.671.036,3.537.057l1.014.029a2.582,2.582,0,0,1,.378.026,1.494,1.494,0,0,1-.331.025l-.989.029c-.859.021-2.106.046-3.609.057h-.112v-.113c0-.72-.008-1.5-.013-2.325q0-.622,0-1.274,0-.327,0-.659v-.668h0c-.116.116.158-.159.131-.131l4.928.018h.113v.112c-.011,1.5-.036,2.75-.057,3.609-.012.394-.022.722-.029.989a1.507,1.507,0,0,1-.026.331" transform="translate(-218.937 -122.32)" fill="#263238"/>
        <path id="Trazado_778799" data-name="Trazado 778799" d="M460.792,253.558a27,27,0,0,1-5.29,0,26.99,26.99,0,0,1,5.29,0" transform="translate(-227.945 -126.822)" fill="#263238"/>
        <rect id="Rectángulo_365695" data-name="Rectángulo 365695" width="32.453" height="32.453" transform="translate(253.457 138.173)" fill="#e0e0e0"/>
      </g>
    </g>
    <rect id="Rectángulo_365697" data-name="Rectángulo 365697" width="187.83" height="144.407" transform="translate(52.836 23.161)" fill="#fff"/>
    <g id="Grupo_1032050" data-name="Grupo 1032050">
      <g id="Grupo_1032049" data-name="Grupo 1032049" clip-path="url(#clip-path)">
        <path id="Trazado_778800" data-name="Trazado 778800" d="M293.463,190.638c0-.891-.042-57.154-.107-144.406l.107.107-187.814.023h-.016l.13-.13c-.005,52.006-.009,101.218-.013,144.406l-.117-.117,187.83.117-187.83.117h-.117v-.117c0-43.189-.009-92.4-.013-144.406V46.1h.146l187.814.023h.107v.107c-.065,87.253-.107,143.517-.107,144.406" transform="translate(-52.796 -23.07)" fill="#373f51"/>
        <path id="Trazado_778801" data-name="Trazado 778801" d="M267.633,214.442s.16-.225.485-.652l.273-.359c.092-.138.175-.3.275-.473a7.391,7.391,0,0,0,.616-1.232c.1-.243.21-.5.307-.77l.245-.889a6.333,6.333,0,0,0,.2-.99,10.56,10.56,0,0,0,.151-1.09,20.638,20.638,0,0,0-.241-5.257,47.266,47.266,0,0,0-4.827-13.594,106.112,106.112,0,0,0-10.367-16.122A164.989,164.989,0,0,0,239.3,155.652,189.074,189.074,0,0,0,219,138.329c-3.788-2.784-7.784-5.485-12-8.029a115.866,115.866,0,0,0-13.326-6.987,62.271,62.271,0,0,0-14.827-4.648,26.21,26.21,0,0,0-7.906-.194,14.8,14.8,0,0,0-3.82,1.106,9.52,9.52,0,0,0-5.176,5.794,14.822,14.822,0,0,0-.667,3.922,26.129,26.129,0,0,0,1.09,7.835,62.233,62.233,0,0,0,6.3,14.206,115.832,115.832,0,0,0,8.459,12.447c3.007,3.9,6.146,7.56,9.343,11.008A189.046,189.046,0,0,0,206,192.982a165,165,0,0,0,19.011,13.383,106.168,106.168,0,0,0,17.2,8.464,47.27,47.27,0,0,0,14.054,3.248,20.609,20.609,0,0,0,5.249-.359,10.664,10.664,0,0,0,1.066-.274,6.282,6.282,0,0,0,.96-.316l.855-.345c.262-.128.5-.27.73-.393a7.384,7.384,0,0,0,1.153-.752c.159-.119.312-.22.439-.327l.325-.312c.387-.371.592-.556.592-.556s-.189.2-.571.579l-.321.319c-.125.11-.278.213-.436.335a7.28,7.28,0,0,1-1.151.769c-.23.126-.469.271-.731.4l-.857.354a6.321,6.321,0,0,1-.964.325,10.72,10.72,0,0,1-1.07.283,20.615,20.615,0,0,1-5.274.39,47.152,47.152,0,0,1-14.109-3.206,105.849,105.849,0,0,1-17.249-8.438,164.5,164.5,0,0,1-19.061-13.371,188.763,188.763,0,0,1-19.57-18.2c-3.205-3.451-6.352-7.118-9.368-11.021a115.89,115.89,0,0,1-8.488-12.475,62.483,62.483,0,0,1-6.339-14.277,26.452,26.452,0,0,1-1.1-7.93,15.136,15.136,0,0,1,.683-4.01,9.831,9.831,0,0,1,5.34-5.977,15.113,15.113,0,0,1,3.905-1.132,26.509,26.509,0,0,1,8,.2,62.514,62.514,0,0,1,14.9,4.675,115.991,115.991,0,0,1,13.357,7.012c4.22,2.552,8.221,5.261,12.013,8.052a188.674,188.674,0,0,1,20.306,17.37,164.408,164.408,0,0,1,15.452,17.415,105.777,105.777,0,0,1,10.347,16.177,47.151,47.151,0,0,1,4.791,13.654,20.579,20.579,0,0,1,.213,5.284,10.466,10.466,0,0,1-.159,1.1,6.319,6.319,0,0,1-.213.995l-.254.892c-.1.276-.218.529-.317.772a7.294,7.294,0,0,1-.633,1.231c-.1.171-.188.334-.283.471l-.281.356c-.334.422-.51.632-.51.632" transform="translate(-80.549 -59.02)" fill="#373f51"/>
        <path id="Trazado_778802" data-name="Trazado 778802" d="M273.355,192.874s-.03-.274-.072-.809q-.016-.2-.035-.45c-.023-.164-.07-.342-.109-.536a7.339,7.339,0,0,0-.36-1.329c-.09-.245-.173-.51-.283-.78l-.409-.826a6.256,6.256,0,0,0-.506-.875,10.508,10.508,0,0,0-.613-.914,20.6,20.6,0,0,0-3.678-3.762,47.269,47.269,0,0,0-12.651-6.932,106.164,106.164,0,0,0-18.468-5.13,164.949,164.949,0,0,0-23.094-2.668,189.081,189.081,0,0,0-26.676.582c-4.681.445-9.46,1.089-14.3,1.995a115.822,115.822,0,0,0-14.6,3.656,62.245,62.245,0,0,0-14.158,6.4,26.225,26.225,0,0,0-6.03,5.118,14.806,14.806,0,0,0-2.114,3.368,9.518,9.518,0,0,0-.006,7.769,14.81,14.81,0,0,0,2.113,3.37,26.136,26.136,0,0,0,6.029,5.122A62.207,62.207,0,0,0,157.5,211.65a115.788,115.788,0,0,0,14.6,3.657c4.838.906,9.619,1.551,14.3,2a189.129,189.129,0,0,0,26.679.582,165.039,165.039,0,0,0,23.1-2.669,106.151,106.151,0,0,0,18.467-5.13,47.271,47.271,0,0,0,12.65-6.932,20.616,20.616,0,0,0,3.678-3.762,10.548,10.548,0,0,0,.612-.914,6.248,6.248,0,0,0,.506-.875l.409-.826c.11-.27.193-.535.283-.78a7.335,7.335,0,0,0,.36-1.329c.039-.194.086-.372.109-.536s.025-.315.035-.45c.042-.535.072-.809.072-.809s-.008.274-.04.812q-.012.2-.027.452c-.021.166-.065.344-.1.54a7.232,7.232,0,0,1-.347,1.34c-.088.247-.169.515-.277.787l-.4.834a6.276,6.276,0,0,1-.5.884,10.594,10.594,0,0,1-.611.924,20.6,20.6,0,0,1-3.676,3.8,47.148,47.148,0,0,1-12.663,7,105.811,105.811,0,0,1-18.489,5.185,164.487,164.487,0,0,1-23.124,2.71,188.7,188.7,0,0,1-26.718-.554c-4.689-.441-9.479-1.084-14.328-1.988a115.943,115.943,0,0,1-14.638-3.66,62.472,62.472,0,0,1-14.234-6.435,26.447,26.447,0,0,1-6.1-5.185,15.119,15.119,0,0,1-2.159-3.447,9.832,9.832,0,0,1,.006-8.015,15.12,15.12,0,0,1,2.161-3.444,26.505,26.505,0,0,1,6.1-5.18,62.494,62.494,0,0,1,14.232-6.431,115.938,115.938,0,0,1,14.635-3.659c4.848-.9,9.637-1.547,14.325-1.988a188.657,188.657,0,0,1,26.715-.554,164.5,164.5,0,0,1,23.124,2.71A105.771,105.771,0,0,1,254.7,175.5a47.144,47.144,0,0,1,12.665,7,20.589,20.589,0,0,1,3.677,3.8,10.386,10.386,0,0,1,.61.924,6.3,6.3,0,0,1,.5.884l.4.834c.109.272.19.54.278.787a7.254,7.254,0,0,1,.347,1.34c.037.2.082.374.1.54s.019.317.027.452c.032.538.04.812.04.812" transform="translate(-67.088 -83.756)" fill="#373f51"/>
        <path id="Trazado_778803" data-name="Trazado 778803" d="M271.973,100.831s-.235-.145-.683-.439l-.377-.248c-.144-.082-.313-.154-.491-.242a7.342,7.342,0,0,0-1.271-.53c-.249-.079-.509-.176-.789-.254l-.9-.183a6.232,6.232,0,0,0-1-.136,10.471,10.471,0,0,0-1.1-.075,20.621,20.621,0,0,0-5.228.6,47.261,47.261,0,0,0-13.229,5.752,106.155,106.155,0,0,0-15.369,11.453,165.015,165.015,0,0,0-16.258,16.618,189.053,189.053,0,0,0-15.884,21.439c-2.516,3.972-4.936,8.144-7.183,12.522a115.812,115.812,0,0,0-6.053,13.775A62.261,62.261,0,0,0,182.54,196a26.2,26.2,0,0,0,.35,7.9,14.814,14.814,0,0,0,1.367,3.734,9.52,9.52,0,0,0,6.136,4.765,14.811,14.811,0,0,0,3.958.4,26.157,26.157,0,0,0,7.742-1.627,62.222,62.222,0,0,0,13.738-7.268,115.776,115.776,0,0,0,11.834-9.3c3.68-3.268,7.119-6.652,10.338-10.079a189.088,189.088,0,0,0,16.805-20.729,164.987,164.987,0,0,0,12.041-19.888,106.117,106.117,0,0,0,7.26-17.739,47.242,47.242,0,0,0,2.272-14.244,20.605,20.605,0,0,0-.72-5.212,10.481,10.481,0,0,0-.347-1.044,6.254,6.254,0,0,0-.381-.936l-.4-.829c-.146-.252-.3-.48-.443-.7a7.417,7.417,0,0,0-.83-1.1c-.129-.15-.241-.3-.357-.415l-.334-.3c-.4-.361-.595-.553-.595-.553s.212.175.617.529l.34.3c.118.117.232.262.364.412a7.283,7.283,0,0,1,.847,1.1c.141.221.3.449.452.7l.412.831a6.294,6.294,0,0,1,.391.939,10.685,10.685,0,0,1,.356,1.048,20.6,20.6,0,0,1,.752,5.235,47.152,47.152,0,0,1-2.226,14.3,105.831,105.831,0,0,1-7.231,17.789,164.492,164.492,0,0,1-12.025,19.937,188.691,188.691,0,0,1-16.808,20.777c-3.222,3.436-6.664,6.828-10.35,10.105A115.911,115.911,0,0,1,216,204.15a62.474,62.474,0,0,1-13.807,7.308,26.446,26.446,0,0,1-7.835,1.646,15.131,15.131,0,0,1-4.047-.405,9.832,9.832,0,0,1-6.33-4.915,15.121,15.121,0,0,1-1.4-3.818,26.5,26.5,0,0,1-.355-8,62.5,62.5,0,0,1,3.636-15.188,115.949,115.949,0,0,1,6.075-13.808c2.255-4.386,4.681-8.564,7.205-12.539a188.7,188.7,0,0,1,15.93-21.454,164.45,164.45,0,0,1,16.309-16.615,105.832,105.832,0,0,1,15.425-11.437A47.159,47.159,0,0,1,260.1,99.208a20.592,20.592,0,0,1,5.257-.577,10.555,10.555,0,0,1,1.1.083,6.357,6.357,0,0,1,1.007.144l.907.192c.282.081.543.181.792.263a7.291,7.291,0,0,1,1.272.547c.177.091.346.165.49.25l.374.255c.445.3.666.466.666.466" transform="translate(-91.122 -49.351)" fill="#373f51"/>
        <path id="Trazado_778804" data-name="Trazado 778804" d="M128.439,275.137a2.584,2.584,0,1,1-3.654,0,2.583,2.583,0,0,1,3.654,0" transform="translate(-62.067 -137.307)" fill="#373f51"/>
        <path id="Trazado_778805" data-name="Trazado 778805" d="M419.479,113.048a2.584,2.584,0,1,1-2.584-2.584,2.584,2.584,0,0,1,2.584,2.584" transform="translate(-207.332 -55.279)" fill="#373f51"/>
        <path id="Trazado_778806" data-name="Trazado 778806" d="M164.2,292.243a.657.657,0,1,1-.656-.656.657.657,0,0,1,.656.656" transform="translate(-81.513 -145.918)" fill="#373f51"/>
        <path id="Trazado_778807" data-name="Trazado 778807" d="M192.254,147.321a.657.657,0,1,1-.657-.656.657.657,0,0,1,.657.656" transform="translate(-95.552 -73.395)" fill="#373f51"/>
        <path id="Trazado_778808" data-name="Trazado 778808" d="M397.359,217.764a.657.657,0,1,1-.656-.656.657.657,0,0,1,.656.656" transform="translate(-198.192 -108.646)" fill="#373f51"/>
        <path id="Trazado_778809" data-name="Trazado 778809" d="M415.625,156.489a.657.657,0,1,1-.656-.656.657.657,0,0,1,.656.656" transform="translate(-207.332 -77.983)" fill="#373f51"/>
        <path id="Trazado_778810" data-name="Trazado 778810" d="M279.956,160.879a41.174,41.174,0,1,1-41.173-41.452,41.313,41.313,0,0,1,41.173,41.452" transform="translate(-98.889 -59.764)" fill="#f4a338"/>
        <g id="Grupo_1032033" data-name="Grupo 1032033" transform="translate(98.721 97.98)" opacity="0.3">
          <g id="Grupo_1032032" data-name="Grupo 1032032">
            <g id="Grupo_1032031" data-name="Grupo 1032031" clip-path="url(#clip-path-5)">
              <path id="Trazado_778811" data-name="Trazado 778811" d="M223.535,217.739c.215-1.8,1.622-3.635.814-5.263-.906-1.817-3.543-1.525-5.4-2.339-2.593-1.14-3.394-4.358-5.088-6.631-1.518-2.033-5.061-4.267-7.758-3.654a3.288,3.288,0,0,0-2.827,3.042l-.248-.039c-.723-.078-1.57-.117-1.967-.717-.463-.7-.007-1.733-.482-2.416a3.8,3.8,0,0,0-1.03-.768c-.352-.248-.651-.717-.436-1.095.176-.319.632-.384.86-.677a.665.665,0,0,0-.013-.814c-.742-.879-1.57.912-1.98,1.335a3.558,3.558,0,0,1-.332.313v.007c-.007.078-.013.15-.013.228-.01.244-.009.495-.013.743s-.013.5-.013.742c0,.2.007.4.01.6s0,.4.009.6a6.986,6.986,0,0,1,1.27.625c.8.463,1.694,1.075,1.746,2a.763.763,0,0,0,.085.437.626.626,0,0,0,.384.2,11.336,11.336,0,0,0,2.091.293c.013.827.072,1.694.059,2.514a28.415,28.415,0,0,0-.28,3.55c.189,1.668,1.348,3.035,2.358,4.377,3.843,5.133,5.914,11.02,8.162,17.052.417.332,1.012.775,1.442,1.081.339.244.651.457,1,.691s.657.432,1.012.654c.248.156.3.2.556.35-.032-.072.029.051,0-.021-.905-1.987-.908-4.74,1.04-5.724a4.436,4.436,0,0,0,1.1-.579c.866-.821.156-2.514,1.023-3.335.489-.456,1.251-.423,1.856-.7,1.088-.5,1.44-1.9,1.355-3.094a18.906,18.906,0,0,1-.345-3.569" transform="translate(-197.61 -196.127)"/>
            </g>
          </g>
        </g>
        <g id="Grupo_1032036" data-name="Grupo 1032036" transform="translate(99.238 71.513)" opacity="0.3">
          <g id="Grupo_1032035" data-name="Grupo 1032035">
            <g id="Grupo_1032034" data-name="Grupo 1032034" clip-path="url(#clip-path-6)">
              <path id="Trazado_778812" data-name="Trazado 778812" d="M200.685,160.886a1.9,1.9,0,0,1,2.69.084,2.839,2.839,0,0,1,.215,2.1c-.15.964-.3,1.928-.456,2.892a1.5,1.5,0,0,0,.039.867c.287.612,1.29.5,1.674-.052a2.669,2.669,0,0,0,.241-1.96,3.719,3.719,0,0,1,.02-2c.651-1.55,2.963-1.316,4.305-2.326a7.291,7.291,0,0,0,1.7-2.593,2.872,2.872,0,0,1,2.365-1.791c.352.013.7.143,1.049.13a1.4,1.4,0,0,0,.9-2.267,2.6,2.6,0,0,1-.456-.469.854.854,0,0,1,.326-1.023,2.43,2.43,0,0,1,1.094-.352c.879-.143,1.759-.28,2.638-.417.971-.15,2.215-.651,2.078-1.622-.117-.841-1.257-1.218-1.426-2.052a2.778,2.778,0,0,0-.111-.612c-.267-.535-1.068-.319-1.583-.033a1.274,1.274,0,0,0-1.935-.618,3.392,3.392,0,0,0-.768,1.83,8.86,8.86,0,0,1-2.86,3.85,2.382,2.382,0,0,1-1.388.781c-.541.026-1.108-.554-.86-1.029.169-.326.638-.515.592-.879-.065-.456-.86-.424-1.016-.86.313-1.29,1.791-1.824,2.925-2.514a7.081,7.081,0,0,0,2.99-3.674.933.933,0,0,0,.039-.756c-.169-.326-.606-.378-.977-.378-.873-.013-1.961.1-2.28.918a9.683,9.683,0,0,0-.149,1.388c-.306,1.355-2.163,1.5-3.3,2.313a10.334,10.334,0,0,1-1.277.99,4.805,4.805,0,0,1-1.732.28c-.1.006-.37,0-.475.01-.358.5-.64.952-.973,1.468s-.667,1.094-.976,1.624a40.774,40.774,0,0,0-3.5,7.99c-.319.974-.594,2.024-.838,3.029s-.418,1.958-.587,2.991a11.615,11.615,0,0,0,.742-2.593,4.752,4.752,0,0,1,1.3-2.671" transform="translate(-198.645 -143.148)"/>
            </g>
          </g>
        </g>
        <g id="Grupo_1032039" data-name="Grupo 1032039" transform="translate(125.115 62.581)" opacity="0.3">
          <g id="Grupo_1032038" data-name="Grupo 1032038">
            <g id="Grupo_1032037" data-name="Grupo 1032037" clip-path="url(#clip-path-7)">
              <path id="Trazado_778813" data-name="Trazado 778813" d="M261.2,133.315c.389-.511.275-1.244.528-1.834.419-.98,1.721-1.331,2.173-2.3.174-.372.217-.825.52-1.1.253-.23.627-.277.9-.485a1.255,1.255,0,0,0-.289-1.934c-1.614-1.031-4.586.161-5.981,1.171-1.793,1.3-3.548,2.86-5.934,2.708a4.69,4.69,0,0,0-1.958.01c-.616.233-1,1.157-.466,1.548.3.217.714.157,1.047.311a1.328,1.328,0,0,1,.376,1.783c-.3.608-.841,1.063-1.2,1.64a3.106,3.106,0,0,0-.443,1.886,1.721,1.721,0,0,0,.559,1.211c.743.592,1.871.085,2.5-.627a9.329,9.329,0,0,1,1.878-2.12,4.688,4.688,0,0,1,1.337-.466l3.111-.74a2.253,2.253,0,0,0,1.339-.665" transform="translate(-250.444 -125.268)"/>
            </g>
          </g>
        </g>
        <g id="Grupo_1032042" data-name="Grupo 1032042" transform="translate(137.943 68.705)" opacity="0.3">
          <g id="Grupo_1032041" data-name="Grupo 1032041">
            <g id="Grupo_1032040" data-name="Grupo 1032040" clip-path="url(#clip-path-8)">
              <path id="Trazado_778814" data-name="Trazado 778814" d="M319.236,169.623q-.005-.89-.053-1.766c-.031-.585-.054-1.178-.113-1.758-.045-.469-.086-.938-.151-1.4-.063-.489-.128-1.051-.209-1.534a37.509,37.509,0,0,0-.906-4.139c-.153-.538-.414-1.111-.587-1.639s-.357-1.053-.553-1.574v-.006h0c-.208-.391-.43-.775-.67-1.153-2.287-3.621-5.609-6.462-8.123-9.927-.821-1.127-1.459-2.058-2.912-2.28-2.15-.332-3.238.893-4.762-1.147-.41-.547-1.127-1.055-1.732-.729.156.437.319.873.475,1.316a.618.618,0,0,1,.052.287c-.032.306-.489.391-.749.221a2.672,2.672,0,0,1-.573-.736,2.108,2.108,0,0,0-3.094-.254,1.186,1.186,0,0,0-.684-.964,1.412,1.412,0,0,1-1.772,1.14c-.124-.4.586-.469.834-.808.228-.319-.046-.762-.339-1.029a4.522,4.522,0,0,0-2.834-1.1,3.887,3.887,0,0,1-1.941-.228c-.332-.2-.566-.521-.905-.71a2.511,2.511,0,0,0-2.358.371,4.6,4.6,0,0,0-2.378,2.338c-.358,1.082.43,2.547,1.564,2.41a2.2,2.2,0,0,1,.866-.1,1.05,1.05,0,0,1,.618,1,2.937,2.937,0,0,0,.189,1.218c.2.365.788.547,1.016.2a2.26,2.26,0,0,0,.332-2.084,2.779,2.779,0,0,1,.15-2.13c.436-.592,1.674-.4,1.589.326-.052.43-.541.743-.521,1.179s.561.677,1,.658a4.768,4.768,0,0,1,1.322-.065c.437.1.782.671.469.99-.541.612-1.948-.437-2.228.326-.078.2,0,.417-.02.625-.052.638-.853.873-1.492.951a3.514,3.514,0,0,1-1.9-.137,1.2,1.2,0,0,1-.645-1.583.725.725,0,0,0-1,.365,2.089,2.089,0,0,0-.071,1.186c-.677-.15-1.283.424-1.668.99s-.762,1.237-1.42,1.44-1.577-.072-1.922.528c-.45.781.853,1.771.4,2.547-.26.437-.886.424-1.381.561a2.131,2.131,0,0,0-.873,3.309,2.561,2.561,0,0,0,3.621-.013,11.589,11.589,0,0,0,1.4-2.423,2.2,2.2,0,0,1,2.273-1.27,2.752,2.752,0,0,1,.932.586c.436.365.873.73,1.309,1.1.28.234.586.528.56.892-.026.293-.254.521-.352.795-.273.788.866,1.537,1.583,1.108a1.573,1.573,0,0,0,.306-2.208c-.677-.938-2.208-1.407-2.169-2.567.782-.638,2.013.032,2.469.938s.469,1.967.853,2.9,1.459,1.766,2.358,1.309c-.234-.808-.462-1.609-.7-2.41.574-.43,1.231.821,1.915.612.417-.13.469-.729.286-1.133a5.667,5.667,0,0,1-.58-1.179,1.342,1.342,0,0,1,1.557-1.375,2.037,2.037,0,0,1,1.524,1.681,3.733,3.733,0,0,0,.209.932c.3.625,1.075.814,1.713,1.075s1.309.906,1.042,1.544c-.124.28-.417.547-.313.834.1.254.476.365.476.638-.007.182-.2.306-.365.378-.43.176-.9.234-1.316.436a1.188,1.188,0,0,0-.762,1.056c.052.651.827.964,1.192,1.5a7.987,7.987,0,0,1,.521,1.785,6.408,6.408,0,0,0,.984,1.427c1.081,1.472,1.335,3.368,1.863,5.113.234.788.664,1.668,1.472,1.817a2.472,2.472,0,0,0,1.3-.254,7.858,7.858,0,0,0,3.192-1.9,2.686,2.686,0,0,0,.254-3.426.661.661,0,0,0-.4-.254,1.2,1.2,0,0,0-.612.215,1.745,1.745,0,0,1-1.817-.391,5.117,5.117,0,0,1-1.081-1.622c-.319-.645-.638-1.3-.964-1.948a1.138,1.138,0,0,1,1.394.13,7.531,7.531,0,0,1,.951,1.173,6.065,6.065,0,0,0,4.11,1.928,3.908,3.908,0,0,1,1.16.241c1.153.528,1.485,2.228,2.7,2.592a7.737,7.737,0,0,1,1.036.235,1.905,1.905,0,0,1,.866,1.289,20.619,20.619,0,0,0,.762,2.879,2.661,2.661,0,0,0,2.2,1.753,2.285,2.285,0,0,0,1.629-.711c.052-.9.11-1.829.11-2.741,0-.189,0-.378-.013-.566" transform="translate(-276.121 -137.528)"/>
            </g>
          </g>
        </g>
        <g id="Grupo_1032045" data-name="Grupo 1032045" transform="translate(160.157 117.851)" opacity="0.3">
          <g id="Grupo_1032044" data-name="Grupo 1032044">
            <g id="Grupo_1032043" data-name="Grupo 1032043" clip-path="url(#clip-path-9)">
              <path id="Trazado_778815" data-name="Trazado 778815" d="M324.829,235.939c-.614.121-.735.481-1.069.936-.434.591-1.055,1.183-1.45,1.767-.669.989-.066,2.532-.947,3.365a7.12,7.12,0,0,0-.573.468,1.038,1.038,0,0,0,.211,1.437,1.412,1.412,0,0,0,1.534.028,2.245,2.245,0,0,0,.94-1.284,2.163,2.163,0,0,1,.476-1.053c.5-.441,1.287-.114,1.951-.207,2.823-.4,1.61-5.984-1.073-5.456" transform="translate(-320.587 -235.903)"/>
            </g>
          </g>
        </g>
        <g id="Grupo_1032048" data-name="Grupo 1032048" transform="translate(132.138 87.161)" opacity="0.3">
          <g id="Grupo_1032047" data-name="Grupo 1032047">
            <g id="Grupo_1032046" data-name="Grupo 1032046" clip-path="url(#clip-path-10)">
              <path id="Trazado_778816" data-name="Trazado 778816" d="M297.718,197.424c1.624-1.406,2.28-4.583.262-5.317-.764-.278-1.645-.054-2.4-.348a3.78,3.78,0,0,1-1.807-2.491q-1.406-3.931-2.814-7.862c-.565-1.579-1.422-3.408-3.082-3.64a9,9,0,0,0-2.788.487c-3.217.585-8.627-7.2-11.075-1.959-.342-1.425-2.657-.89-3.4.375s-.9,2.94-2.069,3.819c-.894.67-2.206.71-2.937,1.555a3.787,3.787,0,0,0-.666,2.219q-.187,2.247-.372,4.493a6.134,6.134,0,0,0,.416,3.554c.6,1.054,2.16,1.64,3.055.823a9.231,9.231,0,0,0,.922-1.389,2.335,2.335,0,0,1,2.4-.829A4.059,4.059,0,0,1,273.2,192.2c4.188,4.509,5.688,10.929,5.872,17.08a9.788,9.788,0,0,0,.45,3.33c.485,1.227,1.508,2.22,1.809,3.5.231.987.013,2.073.437,2.993.78,1.7,3.383,1.768,4.8.553s1.909-3.175,2.2-5.02.474-3.788,1.507-5.344a18.591,18.591,0,0,0,2.031-2.8c.625-1.493.162-3.262.743-4.772.772-2,3.052-2.892,4.677-4.3" transform="translate(-264.502 -174.471)"/>
            </g>
          </g>
        </g>
        <path id="Trazado_778817" data-name="Trazado 778817" d="M279.837,160.812s-.014-.227-.03-.669-.012-1.1-.087-1.963a42.2,42.2,0,0,0-1.164-7.454,41.077,41.077,0,0,0-1.675-5.19,39.865,39.865,0,0,0-2.845-5.825,41.761,41.761,0,0,0-10.4-11.782,40.736,40.736,0,0,0-17.311-7.779,41.314,41.314,0,0,0-16.141.192,43.614,43.614,0,0,0-5.5,1.589,41.141,41.141,0,0,0-19.056,14.48,40.157,40.157,0,0,0-3.326,5.424c-.5.946-.929,1.933-1.367,2.92-.395,1-.8,2.01-1.123,3.048a40.911,40.911,0,0,0-1.549,6.376,41.686,41.686,0,0,0,0,13.259,41.056,41.056,0,0,0,1.548,6.379c.326,1.038.728,2.044,1.124,3.049.438.986.863,1.974,1.367,2.92a40.19,40.19,0,0,0,3.326,5.427,41.14,41.14,0,0,0,19.058,14.484,43.608,43.608,0,0,0,5.5,1.589,41.3,41.3,0,0,0,16.142.191,40.735,40.735,0,0,0,17.312-7.78,41.759,41.759,0,0,0,10.4-11.783,39.834,39.834,0,0,0,2.844-5.825,41.136,41.136,0,0,0,1.674-5.189,42.177,42.177,0,0,0,1.164-7.453c.076-.861.061-1.521.087-1.963s.03-.669.03-.669,0,.227,0,.67.006,1.1-.061,1.966A40.89,40.89,0,0,1,277,176.132a39.862,39.862,0,0,1-2.834,5.853,41.818,41.818,0,0,1-10.416,11.854,40.867,40.867,0,0,1-17.384,7.847,41.5,41.5,0,0,1-16.232-.173,43.8,43.8,0,0,1-5.536-1.594,41.358,41.358,0,0,1-19.182-14.559,40.384,40.384,0,0,1-3.349-5.459c-.507-.952-.935-1.946-1.376-2.938-.4-1.011-.8-2.023-1.131-3.068A41.244,41.244,0,0,1,198,167.478a41.946,41.946,0,0,1,0-13.341,41.172,41.172,0,0,1,1.56-6.416c.328-1.045.733-2.056,1.132-3.066.441-.992.869-1.986,1.376-2.937a40.413,40.413,0,0,1,3.348-5.457,41.361,41.361,0,0,1,19.18-14.555,43.7,43.7,0,0,1,5.535-1.593,41.489,41.489,0,0,1,16.23-.174,40.887,40.887,0,0,1,17.384,7.845,41.82,41.82,0,0,1,10.416,11.854A39.813,39.813,0,0,1,277,145.49a40.891,40.891,0,0,1,2.776,12.686c.067.862.043,1.524.061,1.966s0,.67,0,.67" transform="translate(-98.817 -59.657)" fill="#373f51"/>
        <path id="Trazado_778818" data-name="Trazado 778818" d="M283.053,203.2c-.072,0-.13-18.4-.13-41.1s.058-41.1.13-41.1.129,18.4.129,41.1-.058,41.1-.129,41.1" transform="translate(-141.582 -60.555)" fill="#373f51"/>
        <path id="Trazado_778819" data-name="Trazado 778819" d="M287.9,202.979s.066-.054.2-.149l.61-.416c.545-.353,1.318-.919,2.294-1.672a44.874,44.874,0,0,0,7.339-7.382,48.34,48.34,0,0,0,7.493-13.454,58.666,58.666,0,0,0,3.314-18.563,66.026,66.026,0,0,0-2.1-18.764,38.046,38.046,0,0,0-6.911-13.708,24.169,24.169,0,0,0-4.24-4.131,22.993,22.993,0,0,0-3.82-2.332,25.7,25.7,0,0,0-2.624-1.073l-.7-.238c-.157-.055-.236-.089-.236-.089s.083.017.244.064l.708.213a23.146,23.146,0,0,1,2.65,1.032,22.525,22.525,0,0,1,3.864,2.308,24.061,24.061,0,0,1,4.3,4.13,37.982,37.982,0,0,1,7,13.759,65.772,65.772,0,0,1,2.132,18.835,58.512,58.512,0,0,1-3.349,18.639,48.091,48.091,0,0,1-7.574,13.487,43.761,43.761,0,0,1-7.421,7.348c-.988.742-1.772,1.3-2.327,1.635l-.625.4c-.142.087-.218.127-.218.127" transform="translate(-144.072 -60.555)" fill="#373f51"/>
        <path id="Trazado_778820" data-name="Trazado 778820" d="M257.61,203.076s-.077-.04-.222-.129l-.638-.4c-.566-.346-1.367-.905-2.381-1.651A51.159,51.159,0,0,1,242.2,187.713a38.768,38.768,0,0,1-3.78-7.554,54,54,0,0,1-2.475-9,64.548,64.548,0,0,1-1.01-9.972A65.238,65.238,0,0,1,237.162,142a39.271,39.271,0,0,1,3.176-7.828,26.928,26.928,0,0,1,4.323-5.953A27.294,27.294,0,0,1,253.4,122.2a28.505,28.505,0,0,1,2.716-1.011l.722-.214c.163-.047.248-.065.248-.065s-.08.035-.241.09l-.713.239c-.626.211-1.543.548-2.691,1.053a27.62,27.62,0,0,0-8.644,6.053,26.905,26.905,0,0,0-4.266,5.928,39.246,39.246,0,0,0-3.136,7.793,65.466,65.466,0,0,0-2.193,19.108,64.714,64.714,0,0,0,1,9.932,54.053,54.053,0,0,0,2.449,8.964,38.757,38.757,0,0,0,3.738,7.522,51.328,51.328,0,0,0,4.359,5.9,52.064,52.064,0,0,0,7.684,7.322c1,.756,1.793,1.328,2.348,1.688l.623.423c.14.1.208.151.208.151" transform="translate(-117.561 -60.509)" fill="#373f51"/>
        <path id="Trazado_778821" data-name="Trazado 778821" d="M280.479,200.9c0,.072-18.32.13-40.915.13s-40.919-.058-40.919-.13,18.317-.13,40.919-.13,40.915.058,40.915.13" transform="translate(-99.407 -100.469)" fill="#373f51"/>
        <path id="Trazado_778822" data-name="Trazado 778822" d="M279.915,158.627c0,.072-15.629.13-34.9.13s-34.908-.058-34.908-.13,15.626-.13,34.908-.13,34.9.058,34.9.13" transform="translate(-105.14 -79.316)" fill="#373f51"/>
        <path id="Trazado_778823" data-name="Trazado 778823" d="M279.222,243.966c0,.072-15.985.13-35.7.13s-35.7-.058-35.7-.13,15.982-.13,35.7-.13,35.7.058,35.7.13" transform="translate(-103.998 -122.022)" fill="#373f51"/>
        <path id="Trazado_778824" data-name="Trazado 778824" d="M266.015,205.5H214.539a13.2,13.2,0,1,1,0-26.4h51.476a13.2,13.2,0,0,1,0,26.4" transform="translate(-100.755 -89.623)" fill="#fff"/>
        <path id="Trazado_778825" data-name="Trazado 778825" d="M265.9,205.366s.162-.017.479-.037a10.552,10.552,0,0,0,1.4-.138,12.834,12.834,0,0,0,5.028-1.849,13.876,13.876,0,0,0,1.505-1.078l.737-.674c.255-.226.469-.5.714-.762a13.243,13.243,0,0,0,2.378-3.943,13.093,13.093,0,0,0,.854-5.209,13.022,13.022,0,0,0-5.929-10.473,12.6,12.6,0,0,0-1.506-.838,12.545,12.545,0,0,0-5.177-1.27c-4.935-.044-10.224,0-15.782-.012l-36.172.01a13.013,13.013,0,0,0-12.913,11.1,12.991,12.991,0,0,0,.072,4.431,13.413,13.413,0,0,0,1.518,4.073,13.221,13.221,0,0,0,6.218,5.52,14,14,0,0,0,3.944.977c1.334.1,2.682.045,4,.061l7.663.006,13.755.016,19.917.041,5.415.024,1.408.013c.317,0,.48.013.48.013s-.162.009-.48.013l-1.408.012-5.415.024-19.917.041-13.755.016-7.663.006c-1.319-.015-2.647.043-4.017-.056a14.232,14.232,0,0,1-4.017-.99,13.458,13.458,0,0,1-6.339-5.617,13.633,13.633,0,0,1-1.55-4.149,13.207,13.207,0,0,1-.076-4.516,13.338,13.338,0,0,1,13.165-11.319l36.172.01c5.561.014,10.839-.017,15.79.036a12.753,12.753,0,0,1,5.258,1.3,12.9,12.9,0,0,1,1.527.855,13.607,13.607,0,0,1,4.443,4.852,13.456,13.456,0,0,1,1.542,5.783,13.2,13.2,0,0,1-3.3,9.24c-.248.259-.466.538-.725.765l-.747.675a13.93,13.93,0,0,1-1.525,1.078,12.715,12.715,0,0,1-5.074,1.815,9.629,9.629,0,0,1-1.4.112c-.317.011-.48.011-.48.011" transform="translate(-100.638 -89.493)" fill="#373f51"/>
        <path id="Trazado_778826" data-name="Trazado 778826" d="M242.843,192.7l-4.07,11.428h-3.88l-2.151-6.22-2.235,6.22h-3.88L222.559,192.7h3.8l2.341,6.916,2.424-6.916h3.416l2.362,6.979,2.425-6.979Z" transform="translate(-111.374 -96.43)" fill="#373f51"/>
        <path id="Trazado_778827" data-name="Trazado 778827" d="M282.473,192.7l-4.07,11.428h-3.879l-2.151-6.22-2.235,6.22h-3.88L262.19,192.7h3.8l2.34,6.916,2.425-6.916h3.416l2.362,6.979,2.425-6.979Z" transform="translate(-131.206 -96.43)" fill="#373f51"/>
        <path id="Trazado_778828" data-name="Trazado 778828" d="M322.1,192.7l-4.069,11.428h-3.88L312,197.9l-2.235,6.22h-3.88l-4.07-11.428h3.8l2.341,6.916,2.424-6.916H313.8l2.362,6.979,2.424-6.979Z" transform="translate(-151.039 -96.43)" fill="#373f51"/>
        <path id="Trazado_778829" data-name="Trazado 778829" d="M218.363,256.385l-17.844,5.193a.959.959,0,0,0-.4,1.611L212.3,274.952a.959.959,0,0,0,1.576-.386l5.669-16.956a.959.959,0,0,0-1.177-1.225" transform="translate(-99.999 -128.282)" fill="#373f51"/>
        <path id="Trazado_778830" data-name="Trazado 778830" d="M187.426,283.427,200,271.743l5.009,4.867-12.515,12Z" transform="translate(-93.793 -135.987)" fill="#373f51"/>
        <path id="Trazado_778831" data-name="Trazado 778831" d="M294.594,72.87c0,.072-41.827.13-93.411.13-51.6,0-93.42-.058-93.42-.13s41.818-.13,93.42-.13c51.584,0,93.411.058,93.411.13" transform="translate(-53.927 -36.401)" fill="#373f51"/>
        <path id="Trazado_778832" data-name="Trazado 778832" d="M120.461,56.719a31.169,31.169,0,0,1-2.867,2.812,31.1,31.1,0,0,1-3.044,2.621,31.1,31.1,0,0,1,2.868-2.813,31.093,31.093,0,0,1,3.043-2.621" transform="translate(-57.323 -28.383)" fill="#373f51"/>
        <path id="Trazado_778833" data-name="Trazado 778833" d="M120.461,62.152a31.169,31.169,0,0,1-2.812-2.867,31.029,31.029,0,0,1-2.621-3.044,31.1,31.1,0,0,1,2.813,2.868,31.092,31.092,0,0,1,2.621,3.043" transform="translate(-57.562 -28.144)" fill="#373f51"/>
        <path id="Trazado_778834" data-name="Trazado 778834" d="M141.306,62.021a3.2,3.2,0,0,1-.026-.431c-.007-.306-.017-.693-.029-1.165-.02-1-.046-2.4-.057-4.076l.112.112-5.672.018.13-.129h0v.77c0,.255,0,.508,0,.758,0,.5,0,.989,0,1.466,0,.95-.008,1.848-.012,2.676l-.113-.112c1.677.011,3.08.036,4.076.057l1.165.029a3.2,3.2,0,0,1,.431.026,2.108,2.108,0,0,1-.385.025l-1.14.029c-.989.021-2.421.046-4.148.057h-.112v-.113c0-.828-.008-1.726-.013-2.676,0-.477,0-.966,0-1.466,0-.25,0-.5,0-.758v-.77h0l.13-.131,5.672.017h.113v.112c-.011,1.726-.036,3.159-.057,4.148-.012.462-.021.84-.029,1.14a2.048,2.048,0,0,1-.025.385" transform="translate(-67.795 -28.132)" fill="#373f51"/>
        <path id="Trazado_778835" data-name="Trazado 778835" d="M162.227,66.7a35.727,35.727,0,0,1-6.087,0,35.727,35.727,0,0,1,6.087,0" transform="translate(-78.136 -33.312)" fill="#373f51"/>
        <rect id="Rectángulo_365704" data-name="Rectángulo 365704" width="1.135" height="4.904" transform="translate(120.05 43.701)" fill="#373f51"/>
        <path id="Trazado_778836" data-name="Trazado 778836" d="M248.6,91.3v2.158h-1.093v-1.99c0-.609-.28-.889-.763-.889-.526,0-.9.322-.9,1.016v1.863h-1.093V89.691h1.044v.442a1.65,1.65,0,0,1,1.247-.5A1.477,1.477,0,0,1,248.6,91.3" transform="translate(-122.48 -44.856)" fill="#373f51"/>
        <path id="Trazado_778837" data-name="Trazado 778837" d="M256.423,92.5a1.561,1.561,0,0,1-.89.238,1.243,1.243,0,0,1-1.408-1.352V89.837h-.581V89h.581v-.918h1.093V89h.939v.84h-.939v1.535a.439.439,0,0,0,.47.5.734.734,0,0,0,.441-.14Z" transform="translate(-126.88 -44.077)" fill="#373f51"/>
        <path id="Trazado_778838" data-name="Trazado 778838" d="M263.694,91.885h-2.851a1,1,0,0,0,1.079.756,1.277,1.277,0,0,0,.946-.364l.582.63a2.2,2.2,0,0,1-3.706-1.331,1.918,1.918,0,0,1,2.01-1.94,1.866,1.866,0,0,1,1.962,1.954c0,.084-.014.2-.021.294m-2.865-.637h1.856a.941.941,0,0,0-1.856,0" transform="translate(-129.982 -44.856)" fill="#373f51"/>
        <path id="Trazado_778839" data-name="Trazado 778839" d="M271.493,89.636v1.009c-.091-.007-.161-.014-.245-.014a.926.926,0,0,0-1,1.051v1.779h-1.093V89.692H270.2v.5a1.52,1.52,0,0,1,1.3-.553" transform="translate(-134.691 -44.856)" fill="#373f51"/>
        <path id="Trazado_778840" data-name="Trazado 778840" d="M278.995,91.3v2.158H277.9v-1.99c0-.609-.28-.889-.763-.889-.525,0-.9.322-.9,1.016v1.863h-1.093V89.691h1.044v.442a1.65,1.65,0,0,1,1.247-.5,1.477,1.477,0,0,1,1.562,1.667" transform="translate(-137.688 -44.856)" fill="#373f51"/>
        <path id="Trazado_778841" data-name="Trazado 778841" d="M288.307,91.885h-2.851a1.006,1.006,0,0,0,1.079.756,1.277,1.277,0,0,0,.946-.364l.582.63a2.2,2.2,0,0,1-3.706-1.331,1.918,1.918,0,0,1,2.01-1.94,1.866,1.866,0,0,1,1.962,1.954c0,.084-.014.2-.021.294m-2.865-.637H287.3a.941.941,0,0,0-1.856,0" transform="translate(-142.299 -44.856)" fill="#373f51"/>
        <path id="Trazado_778842" data-name="Trazado 778842" d="M295.748,92.5a1.561,1.561,0,0,1-.89.238,1.243,1.243,0,0,1-1.408-1.352V89.837h-.581V89h.581v-.918h1.093V89h.939v.84h-.939v1.535a.439.439,0,0,0,.47.5.734.734,0,0,0,.441-.14Z" transform="translate(-146.559 -44.077)" fill="#373f51"/>
        <path id="Trazado_778843" data-name="Trazado 778843" d="M304.1,87.476h2.067a2.459,2.459,0,1,1,0,4.9H304.1Zm2.025,4.294a1.848,1.848,0,1,0,0-3.685H304.8V91.77Z" transform="translate(-152.18 -43.775)" fill="#373f51"/>
        <path id="Trazado_778844" data-name="Trazado 778844" d="M318.145,91.3v2.242h-.638v-.49a1.378,1.378,0,0,1-1.219.532c-.841,0-1.373-.448-1.373-1.093,0-.6.385-1.086,1.492-1.086h1.065v-.133c0-.568-.329-.9-.995-.9a1.88,1.88,0,0,0-1.177.4l-.28-.5a2.474,2.474,0,0,1,1.534-.477c1.016,0,1.591.491,1.591,1.506m-.673,1.107v-.519h-1.037c-.665,0-.855.259-.855.575,0,.371.308.6.819.6a1.077,1.077,0,0,0,1.072-.658" transform="translate(-157.592 -44.933)" fill="#373f51"/>
        <path id="Trazado_778845" data-name="Trazado 778845" d="M326.229,89.86l-1.8,4.084c-.329.785-.756,1.03-1.324,1.03a1.394,1.394,0,0,1-.953-.343l.287-.5a.948.948,0,0,0,.665.273c.322,0,.526-.147.707-.575l.119-.259-1.639-3.706h.7l1.3,2.97,1.282-2.97Z" transform="translate(-161.213 -44.968)" fill="#373f51"/>
      </g>
    </g>
    <g id="Grupo_1032058" data-name="Grupo 1032058">
      <g id="Grupo_1032057" data-name="Grupo 1032057" clip-path="url(#clip-path)">
        <path id="Trazado_778846" data-name="Trazado 778846" d="M388.392,179.392s-6.291,1.7-7.469,6.447c-1.863,7.5-7.562,29.638-7.562,29.638l-6.013,4.867,3.834,6.359s6.7-2.2,9.5-5.806,5.658-17.055,5.658-17.055Z" transform="translate(-183.83 -89.772)" fill="#4adbd1"/>
        <path id="Trazado_778847" data-name="Trazado 778847" d="M406.317,108.558c1.485-1.714,5.254-1.551,6.173-.469a2.873,2.873,0,0,1,3.789,1.16l4.024.78a4.17,4.17,0,0,1,1.941.73,1.435,1.435,0,0,1,.382,1.862,2.176,2.176,0,0,1,1,3.459,1.517,1.517,0,0,1-.173,2.2,15.214,15.214,0,0,1,2.686,4.4,3.1,3.1,0,0,1,.25,2.105,1.234,1.234,0,0,1-1.71.762,1.777,1.777,0,0,1,.129,1.916c.677,0,.9,1.043.451,1.546a2.471,2.471,0,0,1-1.886.574,3.266,3.266,0,0,0-1.96.383.617.617,0,0,0,.231.425,2.786,2.786,0,0,1,.712,3.779c-.078.115-.151.221-.215.317a6.1,6.1,0,0,1-1.935,1.429c-1.513.835-2.428.706-4.132.994.493,1.092-2.226,3.6-5.461,1.275a61.3,61.3,0,0,1-17.421,2.784c-.937.025-2.066-.075-2.5-.9a2.326,2.326,0,0,1-2.157-.65,6.853,6.853,0,0,1-1.3-1.95,4.082,4.082,0,0,1-3.025-3.607,5.044,5.044,0,0,1-1.988-3.542,2.96,2.96,0,0,1-1.793-3.956,17.858,17.858,0,0,1,1.816-5.574,1.949,1.949,0,0,1-1.1-2.662,5.637,5.637,0,0,1,2.293-2.3c-.8.233-1.522-.759-1.35-1.572a3.171,3.171,0,0,1,1.588-1.833,15.1,15.1,0,0,1,3.293-1.564,7.214,7.214,0,0,1,3.425-3.733c5.279-2.653,9-3.382,15.928,1.44" transform="translate(-190.251 -52.559)" fill="#263238"/>
        <path id="Trazado_778848" data-name="Trazado 778848" d="M422.624,123.3a2.166,2.166,0,0,0-1.874-2.251l-11.406-3.231c-3.668-.494-6.244,3.967-6.582,7.653a65.826,65.826,0,0,0-.273,12.184,7.95,7.95,0,0,0,6.3,7.049c0-.008-.093,4.466-.093,4.466l-.151,5.2c1.755-.247,13.021-5.634,13.021-5.634Z" transform="translate(-201.32 -58.938)" fill="#ffbe9d"/>
        <path id="Trazado_778849" data-name="Trazado 778849" d="M413.279,144.607a5.647,5.647,0,0,0-1.373-.288c-.216-.028-.42-.077-.453-.226a1.106,1.106,0,0,1,.163-.639l.688-1.634a28.422,28.422,0,0,0,1.564-4.279,28.448,28.448,0,0,0-1.9,4.143l-.662,1.644a1.258,1.258,0,0,0-.137.848.545.545,0,0,0,.348.327,1.446,1.446,0,0,0,.367.061,5.516,5.516,0,0,0,1.4.042" transform="translate(-205.741 -68.829)" fill="#263238"/>
        <path id="Trazado_778850" data-name="Trazado 778850" d="M415.25,169.755a13.17,13.17,0,0,0,7.5-1.913s-1.123,4.557-7.545,4.041Z" transform="translate(-207.78 -83.992)" fill="#eb996e"/>
        <path id="Trazado_778851" data-name="Trazado 778851" d="M420.965,132.038c.077.233.928.148,1.921.3,1,.128,1.792.443,1.93.24.062-.1-.072-.319-.391-.552a3.382,3.382,0,0,0-2.934-.409c-.37.137-.56.314-.527.424" transform="translate(-210.66 -65.779)" fill="#263238"/>
        <path id="Trazado_778852" data-name="Trazado 778852" d="M406,131.785c.144.2.735.013,1.439.024.7-.014,1.3.167,1.439-.031.063-.1-.025-.292-.281-.482a2.083,2.083,0,0,0-2.319.005c-.254.191-.342.388-.278.484" transform="translate(-203.163 -65.529)" fill="#263238"/>
        <path id="Trazado_778853" data-name="Trazado 778853" d="M397.781,126.037a4.23,4.23,0,0,1,.978-2.666,15.618,15.618,0,0,0,1.123-1.12c.678-.921.56-2.182.835-3.291a4.651,4.651,0,0,1,2.828-3.173c1.148-.431,2.456-.4,3.53-.988.793-.438,1.391-1.185,2.209-1.575,1.593-.76,3.469.033,5,.912.32,1.2-.425,2.253-1.143,3.266A4.3,4.3,0,0,1,410,119.179c-.96.073-2.086-.125-2.751.571-.7.733-.4,2-.974,2.836-.816,1.2-2.723.777-3.96,1.527a5.741,5.741,0,0,0-1.812,2.755c-.469,1.014-1.292,2.078-2.409,2.043a12.6,12.6,0,0,1-.316-2.873" transform="translate(-199.056 -56.508)" fill="#263238"/>
        <path id="Trazado_778854" data-name="Trazado 778854" d="M426.088,119.811a21.816,21.816,0,0,1,8.263,1.354,3.967,3.967,0,0,1,2.053,1.368,3.893,3.893,0,0,1,.464,2.127,21.669,21.669,0,0,1-1.717,7.285l-2.851,1.769c-2.225-.489-1.268-4.331-1.192-6.251a4.529,4.529,0,0,1-2.71-3.957,5.012,5.012,0,0,1-2.312-3.7" transform="translate(-213.225 -59.951)" fill="#263238"/>
        <path id="Trazado_778855" data-name="Trazado 778855" d="M438.543,144.706c.066-1.319,1.68-1.6,2.824-.94a2.48,2.48,0,0,1,1.05,2.493c-.154,3.735-3.872,2.809-3.874,2.7,0-.067-.077-2.711,0-4.255" transform="translate(-219.441 -71.772)" fill="#ffbe9d"/>
        <path id="Trazado_778856" data-name="Trazado 778856" d="M440.974,148.841c.017-.011.063.048.171.1a.65.65,0,0,0,.486.03,1.611,1.611,0,0,0,.8-1.414,2.142,2.142,0,0,0-.143-.939.752.752,0,0,0-.469-.52.332.332,0,0,0-.392.163c-.054.1-.033.178-.053.183s-.078-.066-.041-.219a.414.414,0,0,1,.157-.228.491.491,0,0,1,.364-.08.914.914,0,0,1,.655.607,2.207,2.207,0,0,1,.183,1.051,1.689,1.689,0,0,1-1.016,1.573.7.7,0,0,1-.591-.123c-.112-.1-.128-.181-.115-.188" transform="translate(-220.673 -73.019)" fill="#eb996e"/>
        <path id="Trazado_778857" data-name="Trazado 778857" d="M434.245,137.062a.228.228,0,0,0,.012.049.526.526,0,0,0,.052.141.863.863,0,0,0,.439.38,2.284,2.284,0,0,0,.926.178,3.093,3.093,0,0,0,.6-.048,2.2,2.2,0,0,0,.65-.208l-.045-.022a1.856,1.856,0,0,0,2.974,1.132l-.063-.01a.769.769,0,0,0,.495.318,1.062,1.062,0,0,0,.6-.06.976.976,0,0,0,.48-.4,1.3,1.3,0,0,0,.18-.617,1.906,1.906,0,0,0-.426-1.238,5.6,5.6,0,0,0-1-.942l-.005.086a1.317,1.317,0,0,0,.578-.894,1.917,1.917,0,0,0-.124-1.1,2.954,2.954,0,0,0-.668-.92,8.89,8.89,0,0,0-.9-.734l.008.084a1.4,1.4,0,0,0,.35-1.089,2.019,2.019,0,0,0-.439-1.1,5,5,0,0,0-1.84-1.241l.031.064a2.478,2.478,0,0,0-2.74-3.016l.058.063a2.137,2.137,0,0,0-.534-1.808,2.108,2.108,0,0,0-1.589-.749l.047.046a2.1,2.1,0,0,0-.873-1.614,2.049,2.049,0,0,0-1.567-.406l.043.035a2.056,2.056,0,0,0-.318-.952,2.642,2.642,0,0,0-.578-.676,2.144,2.144,0,0,0-1.285-.53l-.14-.007c-.045,0-.089.008-.131.012a1.851,1.851,0,0,0-.236.031,2.61,2.61,0,0,0-.355.106l-.206.092a.417.417,0,0,0-.068.034.454.454,0,0,0,.072-.025l.209-.082a2.831,2.831,0,0,1,.354-.1,1.866,1.866,0,0,1,.233-.025c.042,0,.084-.009.129-.01l.137.009a2.111,2.111,0,0,1,1.249.535,2.59,2.59,0,0,1,.559.665,2,2,0,0,1,.3.92l0,.043.041-.007a1.976,1.976,0,0,1,1.5.4,2.01,2.01,0,0,1,.83,1.547v.047h.047a2.012,2.012,0,0,1,1.512.722,2.037,2.037,0,0,1,.505,1.721l-.015.073.074-.01a2.37,2.37,0,0,1,2.616,2.886l-.01.044.041.019a4.906,4.906,0,0,1,1.8,1.21,1.911,1.911,0,0,1,.415,1.039,1.286,1.286,0,0,1-.319,1l-.044.046.052.038a4.4,4.4,0,0,1,1.529,1.608,1.807,1.807,0,0,1,.118,1.035,1.208,1.208,0,0,1-.527.824l-.064.039.059.047a5.537,5.537,0,0,1,.983.922,1.81,1.81,0,0,1,.41,1.172,1,1,0,0,1-.6.938.82.82,0,0,1-.99-.221l-.026-.04-.037.029a1.807,1.807,0,0,1-1.877.208,1.831,1.831,0,0,1-.982-1.282l-.007-.041-.037.02a2.147,2.147,0,0,1-.63.208,3.086,3.086,0,0,1-.588.054,2.29,2.29,0,0,1-.913-.16.86.86,0,0,1-.437-.359c-.061-.114-.072-.185-.079-.182" transform="translate(-213.505 -59.679)" fill="#455a64"/>
        <path id="Trazado_778858" data-name="Trazado 778858" d="M449.218,130.749a1.28,1.28,0,0,0,.137-.228,1.91,1.91,0,0,0,.185-.742,1.882,1.882,0,0,0-.324-1.166,1.983,1.983,0,0,0-1.366-.838l.032.044a2.559,2.559,0,0,0-.367-1.836,2.5,2.5,0,0,0-.743-.764,5.865,5.865,0,0,0-1.028-.464,2.058,2.058,0,0,1-.494-.282,1.269,1.269,0,0,1-.348-.454c-.172-.355-.232-.777-.448-1.159a2.268,2.268,0,0,0-2.291-1.09l.065.062a2.99,2.99,0,0,0-3.367-3.335l.063.06a2.625,2.625,0,0,0-4.122-2.387l.06,0a3.585,3.585,0,0,0-1.316-.774,5.4,5.4,0,0,0-1.344-.286,6.258,6.258,0,0,0-2.21.186,4.457,4.457,0,0,0-1.305.568,2.589,2.589,0,0,0-.3.225c-.065.053-.1.084-.1.084s.138-.109.412-.285a4.618,4.618,0,0,1,1.3-.539,6.285,6.285,0,0,1,2.189-.162,5.341,5.341,0,0,1,1.322.29,3.52,3.52,0,0,1,1.28.761l.028.027.033-.022a2.524,2.524,0,0,1,3.957,2.3l-.006.07.069-.009a2.881,2.881,0,0,1,3.241,3.21l-.009.075.075-.013a2.163,2.163,0,0,1,2.179,1.033c.205.357.267.776.448,1.151a1.374,1.374,0,0,0,.377.487,2.134,2.134,0,0,0,.518.295,5.907,5.907,0,0,1,1.016.452,2.418,2.418,0,0,1,.72.733,2.484,2.484,0,0,1,.368,1.774l-.007.039.039.005a1.923,1.923,0,0,1,1.326.8,1.847,1.847,0,0,1,.332,1.131,1.98,1.98,0,0,1-.164.735c-.071.158-.123.233-.118.236" transform="translate(-214.327 -57.593)" fill="#455a64"/>
        <path id="Trazado_778859" data-name="Trazado 778859" d="M396.3,132.674a.367.367,0,0,0,.009-.306.721.721,0,0,0-.223-.306,1.272,1.272,0,0,0-.465-.224,2.182,2.182,0,0,1-.587-.233,1.161,1.161,0,0,1-.43-.592,2.277,2.277,0,0,1-.108-.852c.008-.308.051-.635.045-.984a10.005,10.005,0,0,0-.511-2.2,3.1,3.1,0,0,1-.071-1.226,1.494,1.494,0,0,1,.659-1.061,5.573,5.573,0,0,1,1.3-.465,2.275,2.275,0,0,0,.664-.322,1.508,1.508,0,0,0,.462-.6,7.283,7.283,0,0,0,.368-1.476,2.476,2.476,0,0,1,.247-.712,1.136,1.136,0,0,1,.542-.491,4.155,4.155,0,0,1,1.03-.158,1.628,1.628,0,0,0,.521-.14,1.026,1.026,0,0,0,.407-.355,3.637,3.637,0,0,0,.375-.96,2.292,2.292,0,0,1,.454-.85,2.252,2.252,0,0,1,1.612-.8,2.311,2.311,0,0,1,1.594.547l.05.044.026-.061a3.556,3.556,0,0,1,2.184-1.95,3.28,3.28,0,0,1,1.245-.128,2.975,2.975,0,0,1,1.03.268,2.623,2.623,0,0,1,1.107.984,2.524,2.524,0,0,1,.191.348l.046.091a.137.137,0,0,0,.018.03.132.132,0,0,0-.011-.032l-.039-.095a2.182,2.182,0,0,0-.179-.357,2.6,2.6,0,0,0-1.108-1.02,3.027,3.027,0,0,0-1.049-.286,3.334,3.334,0,0,0-1.274.121,3.63,3.63,0,0,0-2.251,1.988l.076-.017a2.407,2.407,0,0,0-1.662-.578,2.355,2.355,0,0,0-1.692.838,2.408,2.408,0,0,0-.477.887,3.569,3.569,0,0,1-.362.93,1.092,1.092,0,0,1-.849.447,4.2,4.2,0,0,0-1.059.165,1.257,1.257,0,0,0-.6.541,2.583,2.583,0,0,0-.258.744,7.212,7.212,0,0,1-.359,1.453,1.394,1.394,0,0,1-.428.557,2.134,2.134,0,0,1-.63.307,5.633,5.633,0,0,0-1.323.48,1.432,1.432,0,0,0-.481.5,1.885,1.885,0,0,0-.221.634,3.189,3.189,0,0,0,.077,1.265,10.088,10.088,0,0,1,.523,2.178c.008.341-.031.668-.037.981a2.33,2.33,0,0,0,.12.876,1.211,1.211,0,0,0,.46.615,2.191,2.191,0,0,0,.6.231,1.247,1.247,0,0,1,.456.208.716.716,0,0,1,.223.287.458.458,0,0,1,.012.3" transform="translate(-197.083 -57.912)" fill="#455a64"/>
        <path id="Trazado_778860" data-name="Trazado 778860" d="M384.086,124.3a.382.382,0,0,0,.037-.07l.1-.211.372-.815c.163-.353.345-.794.608-1.278a3.326,3.326,0,0,1,1.227-1.36c.3-.169.646-.283.994-.444a2.374,2.374,0,0,0,.5-.307,1.284,1.284,0,0,0,.373-.494c.171-.39.168-.829.3-1.232a1.055,1.055,0,0,1,.351-.516,2.018,2.018,0,0,1,.6-.288,3.852,3.852,0,0,0,.656-.263,1.2,1.2,0,0,0,.5-.537,5.471,5.471,0,0,0,.3-1.453,1.792,1.792,0,0,1,.236-.689.931.931,0,0,1,.586-.4c.489-.11,1.02.052,1.564-.043a1.318,1.318,0,0,0,.712-.392,3.4,3.4,0,0,0,.454-.65,6.921,6.921,0,0,1,.4-.65,1.436,1.436,0,0,1,.541-.479,2.192,2.192,0,0,1,1.41-.011,3.291,3.291,0,0,0,1.419.1,3.781,3.781,0,0,0,1.224-.582,6.437,6.437,0,0,1,1.088-.628,3.856,3.856,0,0,1,2.214-.108,4.128,4.128,0,0,1,1.654.818,4.609,4.609,0,0,1,.923,1.056,5.248,5.248,0,0,1,.4.8l.09.215a.429.429,0,0,0,.034.072.37.37,0,0,0-.023-.076l-.079-.219a4.813,4.813,0,0,0-.385-.811,4.57,4.57,0,0,0-.92-1.082,4.168,4.168,0,0,0-1.676-.847,3.923,3.923,0,0,0-2.267.1,6.432,6.432,0,0,0-1.108.632,3.713,3.713,0,0,1-1.192.564,3.2,3.2,0,0,1-1.375-.1,4.713,4.713,0,0,0-.728-.114,1.424,1.424,0,0,0-1.335.644,7.15,7.15,0,0,0-.407.66,3.3,3.3,0,0,1-.438.627,1.2,1.2,0,0,1-.651.36c-.507.092-1.037-.071-1.569.044a1.045,1.045,0,0,0-.653.447,1.9,1.9,0,0,0-.253.732,5.453,5.453,0,0,1-.283,1.424,1.093,1.093,0,0,1-.457.491,3.765,3.765,0,0,1-.637.258,2.076,2.076,0,0,0-.623.306,1.157,1.157,0,0,0-.383.565c-.138.426-.135.86-.295,1.227a1.527,1.527,0,0,1-.828.758c-.34.161-.689.278-1,.454a3.376,3.376,0,0,0-1.243,1.4c-.26.491-.436.935-.592,1.29l-.352.824-.089.215a.436.436,0,0,0-.026.075" transform="translate(-192.206 -55.197)" fill="#455a64"/>
        <path id="Trazado_778861" data-name="Trazado 778861" d="M390.483,130.364a.293.293,0,0,0-.068-.01.418.418,0,0,0-.2.047.8.8,0,0,0-.36.667,1.954,1.954,0,0,0,.089.557,2.3,2.3,0,0,1,.107.644,1.442,1.442,0,0,1-.251.693c-.141.227-.322.451-.467.721a1.072,1.072,0,0,0-.077.941c.124.316.36.578.478.9a1.394,1.394,0,0,1-.085,1.029c-.139.344-.342.677-.478,1.059a1.685,1.685,0,0,0-.11.608,1.514,1.514,0,0,0,.152.615,7.226,7.226,0,0,0,.727,1.053,1.717,1.717,0,0,1,.414,1.175,5.68,5.68,0,0,1-.431,1.267,1.941,1.941,0,0,0-.127.688,1.541,1.541,0,0,0,.186.668,5.731,5.731,0,0,0,.822,1.043,3.027,3.027,0,0,1,.67,1.046,9.223,9.223,0,0,0,.406,1.156,1.355,1.355,0,0,0,.387.466,1.716,1.716,0,0,0,.532.246,4.535,4.535,0,0,1,.52.176,1.854,1.854,0,0,1,.436.286,3.8,3.8,0,0,1,.624.789c.176.275.34.546.523.787a2.556,2.556,0,0,0,1.316.935,2.745,2.745,0,0,0,1.221.1,2.433,2.433,0,0,0,.74-.23,1.826,1.826,0,0,0,.232-.138,2.84,2.84,0,0,1-.978.325,2.745,2.745,0,0,1-1.2-.113,2.5,2.5,0,0,1-1.27-.923c-.178-.239-.338-.509-.513-.787a3.86,3.86,0,0,0-.635-.811,1.948,1.948,0,0,0-.459-.3,4.677,4.677,0,0,0-.53-.183,1.624,1.624,0,0,1-.5-.233,1.247,1.247,0,0,1-.355-.432,9.315,9.315,0,0,1-.4-1.144,3.131,3.131,0,0,0-.688-1.083,5.653,5.653,0,0,1-.805-1.021,1.426,1.426,0,0,1-.173-.619,1.832,1.832,0,0,1,.121-.647,5.65,5.65,0,0,0,.436-1.293,1.426,1.426,0,0,0-.1-.676,2.743,2.743,0,0,0-.333-.576,7.274,7.274,0,0,1-.719-1.034,1.414,1.414,0,0,1-.143-.571,1.572,1.572,0,0,1,.1-.571c.129-.368.329-.7.472-1.056a1.486,1.486,0,0,0,.081-1.1c-.131-.343-.368-.6-.485-.9a.986.986,0,0,1,.067-.871c.136-.261.315-.487.457-.72a1.5,1.5,0,0,0,.253-.73,2.318,2.318,0,0,0-.118-.66,1.962,1.962,0,0,1-.1-.541.783.783,0,0,1,.327-.649.484.484,0,0,1,.255-.056" transform="translate(-194.697 -65.232)" fill="#455a64"/>
        <path id="Trazado_778862" data-name="Trazado 778862" d="M451.014,127.108a1.376,1.376,0,0,0,.3-.034,2.026,2.026,0,0,0,.781-.35,1.989,1.989,0,0,0,.769-1.112,2.1,2.1,0,0,0-.332-1.757,5.261,5.261,0,0,0-.758-.755,2.519,2.519,0,0,1-.712-.876,1.644,1.644,0,0,1,.039-1.186c.137-.4.349-.8.479-1.241a3.661,3.661,0,0,0-2.828-4.619l.035.087a1.857,1.857,0,0,0,.311-.82,2.339,2.339,0,0,0-.069-.887,2.563,2.563,0,0,0-.387-.815A3.045,3.045,0,0,0,448,112.1a5.78,5.78,0,0,0-2.47-.955,8.743,8.743,0,0,0-2.511-.07l.061.051a2.652,2.652,0,0,0-1.535-2.273,2.706,2.706,0,0,0-1.315-.232,4.373,4.373,0,0,0-1.219.342,2.463,2.463,0,0,1-.574.142,1.518,1.518,0,0,1-.562-.05,4.6,4.6,0,0,1-1-.466,4,4,0,0,0-.95-.418,3.247,3.247,0,0,0-.945-.112,3.149,3.149,0,0,0-1.544.446,3.234,3.234,0,0,0-.9.8,3.093,3.093,0,0,0-.383.648,1.656,1.656,0,0,0-.089.244s.033-.083.106-.236a3.29,3.29,0,0,1,.395-.633,3.242,3.242,0,0,1,.894-.779,3.1,3.1,0,0,1,1.518-.423,3.181,3.181,0,0,1,.923.116,3.967,3.967,0,0,1,.93.416,4.646,4.646,0,0,0,1.012.479,1.6,1.6,0,0,0,.595.056,2.546,2.546,0,0,0,.6-.144,4.3,4.3,0,0,1,1.2-.332,2.61,2.61,0,0,1,1.265.228,2.549,2.549,0,0,1,1.468,2.184l0,.058.058-.006a8.649,8.649,0,0,1,2.479.072,5.682,5.682,0,0,1,2.421.935,2.936,2.936,0,0,1,.62.622,2.448,2.448,0,0,1,.37.778,2.223,2.223,0,0,1,.066.843,1.752,1.752,0,0,1-.29.77l-.049.07.084.016a3.561,3.561,0,0,1,2.755,4.482c-.124.432-.335.827-.473,1.238a1.733,1.733,0,0,0-.032,1.249,2.586,2.586,0,0,0,.739.9,5.231,5.231,0,0,1,.752.739,2.04,2.04,0,0,1,.335,1.7,1.96,1.96,0,0,1-.738,1.095,2.093,2.093,0,0,1-.762.362c-.189.044-.291.047-.291.053" transform="translate(-216.218 -54.072)" fill="#263238"/>
        <path id="Trazado_778863" data-name="Trazado 778863" d="M389.192,114.52a.347.347,0,0,0,.01-.071c0-.053.01-.122.017-.21.014-.192.035-.462.062-.807s.073-.778.16-1.268a7.224,7.224,0,0,1,.469-1.618,4.781,4.781,0,0,1,1.163-1.654,3.526,3.526,0,0,1,.948-.6,10.162,10.162,0,0,1,1.156-.353,3.383,3.383,0,0,0,1.169-.54,5.354,5.354,0,0,0,.936-.961c.284-.354.554-.727.87-1.065a3.806,3.806,0,0,1,1.108-.845,6.74,6.74,0,0,1,2.687-.616,17.559,17.559,0,0,1,2.6.065,13.306,13.306,0,0,1,4.238,1.112,9.417,9.417,0,0,1,2.462,1.634c.126.121.243.225.337.323l.229.253.143.154a.319.319,0,0,0,.052.05.368.368,0,0,0-.043-.057l-.135-.162-.222-.261c-.091-.1-.206-.207-.331-.332a9.188,9.188,0,0,0-2.458-1.674,13.216,13.216,0,0,0-4.261-1.143,17.414,17.414,0,0,0-2.614-.072,6.819,6.819,0,0,0-2.733.626,3.914,3.914,0,0,0-1.138.869c-.322.345-.592.721-.874,1.073a5.259,5.259,0,0,1-.914.944,3.293,3.293,0,0,1-1.133.527,10.031,10.031,0,0,0-1.165.361,3.615,3.615,0,0,0-.972.627,4.844,4.844,0,0,0-1.174,1.692,7.165,7.165,0,0,0-.457,1.639c-.081.495-.118.925-.142,1.275s-.034.624-.041.81c0,.087,0,.157-.005.21a.344.344,0,0,0,0,.072" transform="translate(-194.76 -51.932)" fill="#263238"/>
        <path id="Trazado_778864" data-name="Trazado 778864" d="M417.475,154.215l-2.726,1.052-.259.1a5.71,5.71,0,0,0,.54,1.361,1.466,1.466,0,0,0,1.024.7,1.645,1.645,0,0,0,.981-.262,1.962,1.962,0,0,0,.829-1.358,2.076,2.076,0,0,0-.39-1.59" transform="translate(-207.422 -77.173)" fill="#eb996e"/>
        <path id="Trazado_778865" data-name="Trazado 778865" d="M415.878,157.341a2.11,2.11,0,0,0,1.046-.278,1.748,1.748,0,0,0,.7-.9,2.167,2.167,0,0,0,0-1.4,2.685,2.685,0,0,0-.142-.35.5.5,0,0,0-.079-.131c-.028-.02-.016-.02-.059-.012l-.662.265-1.145.446a5.344,5.344,0,0,1-1.079.355,5.346,5.346,0,0,1,1.014-.511l1.125-.494c.218-.092.424-.185.68-.286a.286.286,0,0,1,.291.068.694.694,0,0,1,.126.194,2.768,2.768,0,0,1,.156.382,2.314,2.314,0,0,1-.019,1.551,1.855,1.855,0,0,1-.82.969,1.575,1.575,0,0,1-.828.2c-.2-.01-.306-.057-.3-.07" transform="translate(-207.405 -77.08)" fill="#263238"/>
        <path id="Trazado_778866" data-name="Trazado 778866" d="M441.938,153.32a1.941,1.941,0,0,1,.564.314,2.526,2.526,0,0,1,.93,1.475,2.674,2.674,0,0,1-.009,1.225,3.007,3.007,0,0,1-.663,1.24,3.067,3.067,0,0,1-1.283.874,2.819,2.819,0,0,1-1.664.064,3.033,3.033,0,0,1-1.437-.844,2.731,2.731,0,0,1-.7-1.385,2.9,2.9,0,0,1,.693-2.467,2.6,2.6,0,0,1,.84-.562,2.627,2.627,0,0,1,.733-.2,1.585,1.585,0,0,1,.481.009.536.536,0,0,1,.16.048,2.048,2.048,0,0,0-.633,0,2.7,2.7,0,0,0-.708.222,2.573,2.573,0,0,0-.8.558,2.813,2.813,0,0,0-.637,2.374,2.61,2.61,0,0,0,.673,1.312,2.91,2.91,0,0,0,1.372.8,2.689,2.689,0,0,0,1.581-.057,2.951,2.951,0,0,0,1.231-.829,2.912,2.912,0,0,0,.646-1.182,2.6,2.6,0,0,0,.025-1.174,2.524,2.524,0,0,0-.866-1.453,5.785,5.785,0,0,0-.529-.357" transform="translate(-219 -76.583)" fill="#e0e0e0"/>
        <path id="Trazado_778867" data-name="Trazado 778867" d="M423.475,142.792a.81.81,0,0,0,.759.838.775.775,0,0,0,.855-.708.811.811,0,0,0-.759-.839.775.775,0,0,0-.855.709" transform="translate(-211.917 -71.101)" fill="#263238"/>
        <path id="Trazado_778868" data-name="Trazado 778868" d="M407.306,141.963a.811.811,0,0,0,.759.838.775.775,0,0,0,.855-.708.811.811,0,0,0-.759-.839.776.776,0,0,0-.855.709" transform="translate(-203.825 -70.686)" fill="#263238"/>
        <path id="Trazado_778869" data-name="Trazado 778869" d="M405.149,137.667c.095.143.822-.369,1.769-.279.948.074,1.583.7,1.7.579.057-.055-.029-.306-.3-.59a2.147,2.147,0,0,0-2.769-.239c-.318.233-.443.466-.4.53" transform="translate(-202.742 -68.428)" fill="#263238"/>
        <path id="Trazado_778870" data-name="Trazado 778870" d="M421.544,138.385c.118.13.83-.443,1.843-.451,1.013-.023,1.759.528,1.868.394.053-.059-.065-.3-.391-.545a2.456,2.456,0,0,0-1.5-.478,2.389,2.389,0,0,0-1.466.523c-.31.259-.415.5-.358.557" transform="translate(-210.944 -68.711)" fill="#263238"/>
        <path id="Trazado_778871" data-name="Trazado 778871" d="M364.3,390.26l5.279,12.813,9.54-3.936-5.354-15.809Z" transform="translate(-182.306 -191.827)" fill="#ffbe9d"/>
        <path id="Trazado_778872" data-name="Trazado 778872" d="M367.5,416.2l3.121,6.6s-9.048,8.611-8.316,10.649l20.8-8.932-5.065-13.2Z" transform="translate(-181.285 -205.837)" fill="#768093"/>
        <path id="Trazado_778873" data-name="Trazado 778873" d="M390.332,426.959a.924.924,0,0,1,1,.717.888.888,0,0,1-.7,1,.975.975,0,0,1-1.059-.765.922.922,0,0,1,.846-.96" transform="translate(-194.952 -213.657)" fill="#e0e0e0"/>
        <g id="Grupo_1032053" data-name="Grupo 1032053" transform="translate(180.909 217.022)" opacity="0.6">
          <g id="Grupo_1032052" data-name="Grupo 1032052">
            <g id="Grupo_1032051" data-name="Grupo 1032051" clip-path="url(#clip-path-12)">
              <path id="Trazado_778874" data-name="Trazado 778874" d="M383.036,436.075l-.781-1.661L362.6,443.6s-.753.8-.368,1.408Z" transform="translate(-362.126 -434.414)" fill="#fff"/>
            </g>
          </g>
        </g>
        <path id="Trazado_778875" data-name="Trazado 778875" d="M378.221,434.011c.047.1.575-.072,1.214.04.643.1,1.09.425,1.166.344.085-.06-.327-.6-1.1-.724s-1.338.256-1.276.34" transform="translate(-189.269 -217.007)" fill="#373f51"/>
        <path id="Trazado_778876" data-name="Trazado 778876" d="M374.632,437.9c.019.108.533.092,1.063.374.538.266.824.693.923.645.1-.025-.082-.65-.748-.987s-1.277-.129-1.238-.032" transform="translate(-187.475 -219.06)" fill="#373f51"/>
        <path id="Trazado_778877" data-name="Trazado 778877" d="M372.843,442.908c.1-.018.025-.586-.475-1.031s-1.07-.462-1.077-.358c-.022.108.415.274.82.645s.626.777.731.744" transform="translate(-185.804 -220.921)" fill="#373f51"/>
        <path id="Trazado_778878" data-name="Trazado 778878" d="M376.472,428.35c.082.074.488-.266,1.079-.474s1.116-.218,1.132-.329-.57-.287-1.263-.033-1.032.777-.948.835" transform="translate(-188.39 -213.876)" fill="#373f51"/>
        <path id="Trazado_778879" data-name="Trazado 778879" d="M349.973,349.135l-12.818-39.882s.615-6.515,1.9-8.527S377.272,288.2,377.272,288.2s9.372-1.849,15.464.641,12.264,5.509,11.467,9.82a11.529,11.529,0,0,1-.557,1.929,15.778,15.778,0,0,1-15.008,10.089l-4.836.339-24.749,3.668a1.885,1.885,0,0,0-1.551,2.332l6.836,26.756a136.119,136.119,0,0,1-14.365,5.363" transform="translate(-168.721 -143.891)" fill="#373f51"/>
        <path id="Trazado_778880" data-name="Trazado 778880" d="M338.611,353.357l-.919,13.828,10.3.679,2.174-16.549Z" transform="translate(-168.99 -175.807)" fill="#ffbe9d"/>
        <path id="Trazado_778881" data-name="Trazado 778881" d="M324.906,379.392l-.753,7.884s-11.92,3.732-12.164,5.884l22.608,1.168,1.281-14.078Z" transform="translate(-156.127 -189.857)" fill="#768093"/>
        <path id="Trazado_778882" data-name="Trazado 778882" d="M334.59,384a.807.807,0,0,1,.03-.4,2.517,2.517,0,0,1,.5-1.009,1.487,1.487,0,0,1,.284-.286.557.557,0,0,1,.514-.082.347.347,0,0,1,.217.212.4.4,0,0,1-.021.274,2.713,2.713,0,0,1-.255.4c-.188.26-.345.519-.583.811a.681.681,0,0,1-.615.219,1.373,1.373,0,0,1-.576-.256,4.892,4.892,0,0,1-.829-.746,4.722,4.722,0,0,1-.322-.41,1.256,1.256,0,0,1-.235-.465.418.418,0,0,1,.279-.485.624.624,0,0,1,.54.133,3.141,3.141,0,0,1,.55.607,3.763,3.763,0,0,1,.522,1,.93.93,0,0,1,.082.4,7.619,7.619,0,0,0-.761-1.3,3.291,3.291,0,0,0-.53-.545.394.394,0,0,0-.32-.09.209.209,0,0,0-.116.25,1.1,1.1,0,0,0,.207.376,4.585,4.585,0,0,0,.311.386,4.834,4.834,0,0,0,.789.7,1.113,1.113,0,0,0,.45.209.4.4,0,0,0,.373-.136c.2-.237.391-.533.574-.777a2.747,2.747,0,0,0,.243-.359c.05-.113.028-.189-.06-.225-.2-.085-.412.116-.56.288a3.644,3.644,0,0,0-.68,1.309" transform="translate(-166.486 -191.042)" fill="#373f51"/>
        <path id="Trazado_778883" data-name="Trazado 778883" d="M349.285,393.885a.924.924,0,0,1,.584,1.087.889.889,0,0,1-1.072.588.975.975,0,0,1-.613-1.154.923.923,0,0,1,1.183-.489" transform="translate(-174.218 -197.086)" fill="#e0e0e0"/>
        <g id="Grupo_1032056" data-name="Grupo 1032056" transform="translate(155.858 202.202)" opacity="0.6">
          <g id="Grupo_1032055" data-name="Grupo 1032055">
            <g id="Grupo_1032054" data-name="Grupo 1032054" clip-path="url(#clip-path-13)">
              <path id="Trazado_778884" data-name="Trazado 778884" d="M334.593,407.017l.033-1.835-21.688-.434s-1.029.386-.952,1.1Z" transform="translate(-311.981 -404.748)" fill="#fff"/>
            </g>
          </g>
        </g>
        <path id="Trazado_778885" data-name="Trazado 778885" d="M335.616,394.819c0,.11.548.189,1.072.572s.79.862.894.824c.1-.017-.028-.685-.671-1.137s-1.314-.361-1.295-.259" transform="translate(-167.95 -197.535)" fill="#373f51"/>
        <path id="Trazado_778886" data-name="Trazado 778886" d="M330.767,396.584c-.031.105.438.318.788.8s.434.986.544.987c.1.023.212-.62-.235-1.216s-1.089-.679-1.1-.574" transform="translate(-165.523 -198.441)" fill="#373f51"/>
        <path id="Trazado_778887" data-name="Trazado 778887" d="M326.99,400.213c.1.029.281-.515.029-1.134s-.756-.887-.807-.8c-.067.087.251.429.451.941s.219.974.328.99" transform="translate(-163.24 -199.302)" fill="#373f51"/>
        <path id="Trazado_778888" data-name="Trazado 778888" d="M336.287,389.247c.041.1.556-.023,1.177.051s1.1.3,1.161.2c.068-.076-.385-.51-1.119-.587s-1.269.241-1.219.331" transform="translate(-168.285 -194.617)" fill="#373f51"/>
        <path id="Trazado_778889" data-name="Trazado 778889" d="M342.152,278.919a6.421,6.421,0,0,0-7.121,5.923c-.966,6.673-5.48,37.6-5.48,37.6l16.925,2.12,3.56-31.866,23.431-8.838s-27.155-5.624-31.315-4.936" transform="translate(-164.916 -139.549)" fill="#373f51"/>
        <path id="Trazado_778890" data-name="Trazado 778890" d="M402.886,262.991s-4.184,10.354-3.519,11.555,10.1,6.421,10.1,6.421l23.735,10.264a20.23,20.23,0,0,0,2.892-9.891c.251-6.053-7.686-17.29-7.686-17.29Z" transform="translate(-199.818 -131.607)" fill="#373f51"/>
        <path id="Trazado_778891" data-name="Trazado 778891" d="M377.176,287.879a.564.564,0,0,1-.116.056l-.349.144-1.36.539-5.1,1.976-17.618,6.733.082-.107c-.35,3.148-.728,6.547-1.119,10.065l-2.462,21.8-.013.109-.108-.014-10.477-1.359-2.884-.391-.753-.11a1.553,1.553,0,0,1-.256-.048,1.622,1.622,0,0,1,.26.016l.757.079,2.892.333,10.488,1.267-.12.095c.663-6,1.5-13.581,2.408-21.805l1.13-10.063.009-.079.074-.028,17.652-6.643,5.131-1.905,1.375-.5.357-.123a.537.537,0,0,1,.124-.035" transform="translate(-167.462 -144.062)" fill="#768093"/>
        <path id="Trazado_778892" data-name="Trazado 778892" d="M440.842,288.293a3.549,3.549,0,0,1-.669-.213l-1.792-.661a39.625,39.625,0,0,0-6.014-1.788,17.824,17.824,0,0,0-6.225-.178,25.226,25.226,0,0,0-2.523.619,3.008,3.008,0,0,1,.64-.291,11.156,11.156,0,0,1,1.85-.515,16.723,16.723,0,0,1,6.31.1,33.794,33.794,0,0,1,6.031,1.875c.749.3,1.35.558,1.763.741a3.482,3.482,0,0,1,.63.31" transform="translate(-211.989 -142.628)" fill="#768093"/>
        <path id="Trazado_778893" data-name="Trazado 778893" d="M438.018,279.915a17.725,17.725,0,0,0-2.108-.1c-.651.018-1.428.086-2.293.15s-1.811.143-2.8.287a12.931,12.931,0,0,0-4.8,1.557,14.584,14.584,0,0,0-1.694,1.252,1.829,1.829,0,0,1,.369-.439,7.234,7.234,0,0,1,1.225-.976,12.1,12.1,0,0,1,4.859-1.661c1-.146,1.952-.216,2.818-.269s1.647-.1,2.308-.093a8.722,8.722,0,0,1,1.558.134,1.818,1.818,0,0,1,.553.156" transform="translate(-212.344 -139.931)" fill="#768093"/>
        <path id="Trazado_778894" data-name="Trazado 778894" d="M372.743,424.3a1,1,0,0,1-.17-.418,3,3,0,0,1-.046-1.233,1.591,1.591,0,0,1,.115-.413.515.515,0,0,1,.421-.311.365.365,0,0,1,.3.116.487.487,0,0,1,.114.284,3.109,3.109,0,0,1-.031.517c-.041.344-.055.674-.127,1.073a.652.652,0,0,1-.444.494,1.3,1.3,0,0,1-.64,0,5.047,5.047,0,0,1-1.107-.378,5.121,5.121,0,0,1-.488-.267,1.458,1.458,0,0,1-.438-.361.48.48,0,0,1,.013-.609.574.574,0,0,1,.548-.107,3.386,3.386,0,0,1,.788.363,4.368,4.368,0,0,1,.956.772c.2.214.28.351.267.362a8.691,8.691,0,0,0-1.317-.968,3.457,3.457,0,0,0-.74-.31.362.362,0,0,0-.33.052.242.242,0,0,0,.018.3,1.268,1.268,0,0,0,.369.284,5.1,5.1,0,0,0,.466.248,5.02,5.02,0,0,0,1.05.353,1.056,1.056,0,0,0,.5.008.38.38,0,0,0,.268-.3c.061-.326.09-.708.136-1.035a3.2,3.2,0,0,0,.042-.468c-.01-.136-.067-.2-.164-.2-.223.006-.312.3-.36.537a4.326,4.326,0,0,0,.029,1.616" transform="translate(-185.206 -211.14)" fill="#373f51"/>
        <path id="Trazado_778895" data-name="Trazado 778895" d="M429.241,184.564s.067-3.877-.311-4.335l-7.94-2.769-5.72,1.713c-1.342.589-3.914,4.415-5.366,4.216-1.621-.221-1.926-4.486-2.594-5.716l-2.927.752s-5.015,13.315-5.078,17.084,1.917,8.849,1.589,16.752c-.171,4.131-.573,7.821,2,7.928l25.525,1.059s5.831-1.355,6.225-4.809-5.4-31.875-5.4-31.875" transform="translate(-199.821 -88.806)" fill="#4adbd1"/>
        <path id="Trazado_778896" data-name="Trazado 778896" d="M448.361,213.087l-4-12.656s-2.406-16.058-7.995-18.284c-2.392-.953-7.622-.787-9.21,2.46s.371,5.615.756,7.219,5.8,12.857,5.8,12.857a54.905,54.905,0,0,1,2.656,6.334l-21.6,11.436,2.723,7.123,27.009-9.828a6.076,6.076,0,0,0,3.819-4,5.022,5.022,0,0,0,.049-2.658" transform="translate(-207.558 -90.897)" fill="#4adbd1"/>
        <path id="Trazado_778897" data-name="Trazado 778897" d="M381.343,268.894l5.557-2.38,10.668-.4.892-.566,2.3,6.018a17.693,17.693,0,0,1-4.307,1.275l-8.929-.642-4.694.3Z" transform="translate(-190.834 -132.886)" fill="#ffbe9d"/>
        <path id="Trazado_778898" data-name="Trazado 778898" d="M319.63,227.688l30.643,1.521a1.925,1.925,0,0,1,2.033,1.548l2.423,22.481,15.789.655a.921.921,0,1,1-.076,1.841l-15.513-.643-2.945-.122-31.97-1.327-2.468-23.723a2.013,2.013,0,0,1,2.085-2.23" transform="translate(-158.901 -113.94)" fill="#e0e0e0"/>
        <path id="Trazado_778899" data-name="Trazado 778899" d="M319.6,227.683a1.636,1.636,0,0,0-.485.025,2.03,2.03,0,0,0-1.623,1.691,5.673,5.673,0,0,0,.06,1.265c.091.908.2,1.954.313,3.13.48,4.712,1.173,11.5,2.023,19.852l.008.081.082,0L368.9,255.79l1.317.054a1.276,1.276,0,0,0,.7-.1,1.045,1.045,0,0,0,.071-1.826,1.276,1.276,0,0,0-.685-.158l-.648-.026-5.124-.212-9.83-.4.114.106-2.42-22.3a1.734,1.734,0,0,0-.519-1.19,2.281,2.281,0,0,0-1.15-.566,10.184,10.184,0,0,0-1.234-.095l-1.2-.058-4.614-.223-8.2-.392L323.8,227.85l-3.124-.135-.806-.029c-.181-.005-.274,0-.274,0s.092.011.273.024l.806.05,3.121.175,11.671.614,8.2.421,4.613.236,1.2.061a9.994,9.994,0,0,1,1.2.094,2.081,2.081,0,0,1,1.049.516,1.526,1.526,0,0,1,.455,1.068c.721,6.739,1.525,14.25,2.387,22.3l.011.1.1,0,9.83.411,5.124.213.648.027a1.029,1.029,0,0,1,.567.123.8.8,0,0,1-.054,1.394,1.028,1.028,0,0,1-.58.077l-1.317-.055-48.924-2,.09.085-2.106-19.844-.338-3.127a5.653,5.653,0,0,1-.073-1.247,1.96,1.96,0,0,1,.4-.938,2,2,0,0,1,1.165-.734,3.962,3.962,0,0,1,.48-.053" transform="translate(-158.868 -113.935)" fill="#373f51"/>
        <path id="Trazado_778900" data-name="Trazado 778900" d="M351.243,252.46a1.921,1.921,0,1,1-1.839-2,1.92,1.92,0,0,1,1.839,2" transform="translate(-173.849 -125.336)" fill="#fff"/>
        <path id="Trazado_778901" data-name="Trazado 778901" d="M386.213,256.346c-.043.005-.783-5.724-1.652-12.8s-1.538-12.811-1.494-12.816.783,5.723,1.652,12.8,1.537,12.81,1.494,12.815" transform="translate(-191.695 -115.465)" fill="#373f51"/>
        <path id="Trazado_778902" data-name="Trazado 778902" d="M442.138,232.126a.571.571,0,0,1-.116.053l-.35.138-1.364.518-5.13,1.9-17.812,6.531-.114.042-.043-.113-2.728-7.121-.041-.107.1-.053,4.271-2.262L436.15,222.5l-.051.141L430.837,209.7l-1.457-3.63-.376-.96-.092-.247a.045.045,0,1,1,.016-.007l.108.241.407.946,1.514,3.606,5.348,12.9.039.094-.09.048-17.322,9.19-4.272,2.261.06-.16,2.718,7.125-.157-.071,17.844-6.444,5.155-1.838,1.378-.48.357-.119a.568.568,0,0,1,.123-.033" transform="translate(-207.396 -102.477)" fill="#263238"/>
        <path id="Trazado_778903" data-name="Trazado 778903" d="M426.724,171.391l-8.155,3.759-2.1,4.708-.319-4.809-2.461-1.956-1.312,1.877,2.374,6.8,3.747.155,9.026-7.256.3-.16Z" transform="translate(-206.362 -85.769)" fill="#455a64"/>
        <path id="Trazado_778904" data-name="Trazado 778904" d="M412.369,178.555a9.747,9.747,0,0,1,.656,1.426c.385.884.868,2.147,1.489,3.462l.046.087-.229.013c.573-1.319.964-2.579,1.277-3.47a9.79,9.79,0,0,1,.535-1.439,8.386,8.386,0,0,1-.361,1.493,29.907,29.907,0,0,1-1.215,3.524l-.105.244-.124-.231-.052-.1c-.641-1.358-1.086-2.609-1.43-3.518a8.978,8.978,0,0,1-.485-1.494" transform="translate(-206.358 -89.353)" fill="#263238"/>
        <path id="Trazado_778905" data-name="Trazado 778905" d="M434.014,177.633a3.012,3.012,0,0,1-.5.4l-1.408,1.015c-1.2.848-2.856,2-4.7,3.268l-2.188,1.491-.178.121-.014-.214c-.105-1.586-.187-2.946-.235-3.909-.018-.445-.033-.818-.046-1.128a1.552,1.552,0,0,1,.011-.406,1.5,1.5,0,0,1,.07.4c.032.307.07.679.117,1.122.091.961.205,2.318.329,3.9l-.192-.093,2.18-1.5c1.843-1.264,3.521-2.4,4.742-3.205l1.454-.947a3.01,3.01,0,0,1,.554-.318" transform="translate(-212.554 -88.891)" fill="#263238"/>
        <path id="Trazado_778906" data-name="Trazado 778906" d="M399.944,228.281a1.008,1.008,0,0,1-.111-.216,3.366,3.366,0,0,1-.188-.678,16.477,16.477,0,0,1-.229-2.608c-.03-1.116,0-2.459.066-3.97s.121-3.2.19-5l.033.09a11.486,11.486,0,0,1-2.3-3.708,11.331,11.331,0,0,1-.734-3.345,14.015,14.015,0,0,1,.2-3.18,46.007,46.007,0,0,1,1.364-5.194,33.959,33.959,0,0,0,.88-3.495c.159-.836.193-1.308.222-1.305a1.677,1.677,0,0,1-.012.343c-.014.225-.042.556-.11.979a28.806,28.806,0,0,1-.8,3.529,49.52,49.52,0,0,0-1.3,5.183,13.953,13.953,0,0,0-.184,3.124,11.205,11.205,0,0,0,.722,3.269,11.361,11.361,0,0,0,2.241,3.63l.036.039,0,.052c-.081,1.8-.157,3.484-.225,5-.085,1.51-.131,2.845-.122,3.957a18.927,18.927,0,0,0,.154,2.6,6.1,6.1,0,0,0,.215.909" transform="translate(-198.494 -97.92)" fill="#263238"/>
        <path id="Trazado_778907" data-name="Trazado 778907" d="M417.7,224.489a1.96,1.96,0,0,1-.041-.367c-.017-.267-.04-.617-.068-1.055-.056-.916-.112-2.243-.159-3.884-.1-3.281-.112-7.819.1-12.824s.613-9.527.985-12.788c.185-1.631.353-2.948.486-3.856.065-.434.117-.781.157-1.045a.185.185,0,1,1,.052.006c-.027.266-.063.615-.108,1.051l-.4,3.863c-.325,3.263-.695,7.779-.908,12.78s-.222,9.53-.173,12.809c.032,1.618.058,2.938.076,3.884.008.439.014.79.019,1.057a1.969,1.969,0,0,1-.011.369" transform="translate(-208.857 -94.234)" fill="#263238"/>
        <path id="Trazado_778908" data-name="Trazado 778908" d="M449.134,183.051c0,.049-.668-.041-1.715.122a7.35,7.35,0,0,0-5.939,5.07c-.325,1.008-.34,1.679-.389,1.674a1.441,1.441,0,0,1-.008-.469,6.18,6.18,0,0,1,.222-1.259,7.14,7.14,0,0,1,6.09-5.2,6.234,6.234,0,0,1,1.278-.022,1.445,1.445,0,0,1,.462.082" transform="translate(-220.724 -91.551)" fill="#263238"/>
        <path id="Trazado_778909" data-name="Trazado 778909" d="M462.187,242.267a6.567,6.567,0,0,0-4.429-1.829,1.549,1.549,0,0,1,.733-.1,4.757,4.757,0,0,1,3.25,1.342c.325.326.47.573.446.592" transform="translate(-229.074 -120.269)" fill="#263238"/>
        <path id="Trazado_778910" data-name="Trazado 778910" d="M437.342,233.109c.007.016-.117.082-.349.187a7.72,7.72,0,0,1-1.014.366,11.079,11.079,0,0,1-7.01-.285,7.653,7.653,0,0,1-.981-.448c-.223-.123-.341-.2-.333-.215.02-.04.523.207,1.375.489a12.518,12.518,0,0,0,6.9.28c.872-.212,1.393-.417,1.41-.376" transform="translate(-214.01 -116.455)" fill="#263238"/>
      </g>
    </g>
  </g>
</svg>
