<svg id="Grupo_1026526" data-name="Grupo 1026526" xmlns="http://www.w3.org/2000/svg" xmlns:xlink="http://www.w3.org/1999/xlink" width="206.667" height="193.106" viewBox="0 0 206.667 193.106">
  <defs>
    <clipPath id="clip-path">
      <rect id="Rectángulo_362187" data-name="Rectángulo 362187" width="206.667" height="193.106" fill="none"/>
    </clipPath>
    <clipPath id="clip-path-5">
      <rect id="Rectángulo_362139" data-name="Rectángulo 362139" width="206.667" height="193.106" fill="#5573c6"/>
    </clipPath>
    <clipPath id="clip-path-6">
      <rect id="Rectángulo_362137" data-name="Rectángulo 362137" width="102.205" height="67.576" fill="none"/>
    </clipPath>
    <clipPath id="clip-path-7">
      <rect id="Rectángulo_362138" data-name="Rectángulo 362138" width="95.393" height="121.068" fill="none"/>
    </clipPath>
    <clipPath id="clip-path-9">
      <rect id="Rectángulo_362140" data-name="Rectángulo 362140" width="101.606" height="58.775" fill="none"/>
    </clipPath>
    <clipPath id="clip-path-10">
      <rect id="Rectángulo_362141" data-name="Rectángulo 362141" width="2.009" height="6.358" fill="none"/>
    </clipPath>
    <clipPath id="clip-path-11">
      <rect id="Rectángulo_362142" data-name="Rectángulo 362142" width="8.121" height="8.442" fill="none"/>
    </clipPath>
    <clipPath id="clip-path-12">
      <rect id="Rectángulo_362143" data-name="Rectángulo 362143" width="8.121" height="8.441" fill="none"/>
    </clipPath>
    <clipPath id="clip-path-20">
      <rect id="Rectángulo_362151" data-name="Rectángulo 362151" width="17.299" height="9.988" fill="none"/>
    </clipPath>
    <clipPath id="clip-path-22">
      <rect id="Rectángulo_362153" data-name="Rectángulo 362153" width="8.65" height="16.242" fill="none"/>
    </clipPath>
    <clipPath id="clip-path-23">
      <rect id="Rectángulo_362156" data-name="Rectángulo 362156" width="206.667" height="193.106" fill="#e6b046"/>
    </clipPath>
    <clipPath id="clip-path-29">
      <rect id="Rectángulo_362163" data-name="Rectángulo 362163" width="8.65" height="10.619" fill="none"/>
    </clipPath>
    <clipPath id="clip-path-31">
      <rect id="Rectángulo_362165" data-name="Rectángulo 362165" width="8.65" height="10.618" fill="none"/>
    </clipPath>
    <clipPath id="clip-path-33">
      <rect id="Rectángulo_362167" data-name="Rectángulo 362167" width="15.843" height="12.738" fill="none"/>
    </clipPath>
    <clipPath id="clip-path-34">
      <rect id="Rectángulo_362168" data-name="Rectángulo 362168" width="17.925" height="14.187" fill="none"/>
    </clipPath>
    <clipPath id="clip-path-35">
      <rect id="Rectángulo_362169" data-name="Rectángulo 362169" width="9.937" height="9.009" fill="none"/>
    </clipPath>
    <clipPath id="clip-path-36">
      <rect id="Rectángulo_362170" data-name="Rectángulo 362170" width="15.845" height="15.955" fill="none"/>
    </clipPath>
    <clipPath id="clip-path-37">
      <rect id="Rectángulo_362171" data-name="Rectángulo 362171" width="17.924" height="14.187" fill="none"/>
    </clipPath>
    <clipPath id="clip-path-38">
      <rect id="Rectángulo_362172" data-name="Rectángulo 362172" width="1.981" height="12.589" fill="none"/>
    </clipPath>
    <clipPath id="clip-path-39">
      <rect id="Rectángulo_362173" data-name="Rectángulo 362173" width="4.33" height="2.5" fill="none"/>
    </clipPath>
    <clipPath id="clip-path-40">
      <rect id="Rectángulo_362174" data-name="Rectángulo 362174" width="2.165" height="2.504" fill="none"/>
    </clipPath>
    <clipPath id="clip-path-47">
      <rect id="Rectángulo_362186" data-name="Rectángulo 362186" width="206.667" height="193.106" fill="#4adbd1"/>
    </clipPath>
    <clipPath id="clip-path-48">
      <rect id="Rectángulo_362182" data-name="Rectángulo 362182" width="5.934" height="14.002" fill="none"/>
    </clipPath>
    <clipPath id="clip-path-49">
      <rect id="Rectángulo_362183" data-name="Rectángulo 362183" width="15.934" height="25.77" fill="#4adbd1"/>
    </clipPath>
    <clipPath id="clip-path-50">
      <rect id="Rectángulo_362184" data-name="Rectángulo 362184" width="4.681" height="2.792" fill="none"/>
    </clipPath>
    <clipPath id="clip-path-51">
      <rect id="Rectángulo_362185" data-name="Rectángulo 362185" width="17.178" height="26.945" fill="#f4a338"/>
    </clipPath>
  </defs>
  <g id="Grupo_1026525" data-name="Grupo 1026525" clip-path="url(#clip-path)">
    <g id="Grupo_1026382" data-name="Grupo 1026382">
      <g id="Grupo_1026381" data-name="Grupo 1026381" clip-path="url(#clip-path)">
        <path id="Trazado_766926" data-name="Trazado 766926" d="M176.4,189.309c40.354,23.3,40.354,61.073,0,84.371s-105.782,23.3-146.135,0-40.354-61.073,0-84.371,105.781-23.3,146.135,0" transform="translate(0 -98.048)" fill="#fafafa"/>
      </g>
    </g>
    <g id="Grupo_1026384" data-name="Grupo 1026384">
      <g id="Grupo_1026383" data-name="Grupo 1026383" clip-path="url(#clip-path)">
        <path id="Trazado_766927" data-name="Trazado 766927" d="M359.6,348.009c8.084,4.668,8.084,12.235,0,16.9s-21.192,4.668-29.277,0-8.084-12.235,0-16.9,21.192-4.668,29.277,0" transform="translate(-185.018 -196.575)" fill="#e0e0e0"/>
        <path id="Trazado_766928" data-name="Trazado 766928" d="M35.55,267.9l-16.975-9.8a1.056,1.056,0,0,1,0-2l98.738-57.006a3.83,3.83,0,0,1,3.466,0l16.976,9.8a1.056,1.056,0,0,1,0,2L39.016,267.9a3.83,3.83,0,0,1-3.466,0" transform="translate(-10.189 -113.362)" fill="#e0e0e0"/>
      </g>
    </g>
    <g id="Grupo_1026386" data-name="Grupo 1026386">
      <g id="Grupo_1026385" data-name="Grupo 1026385" clip-path="url(#clip-path)">
        <path id="Trazado_766929" data-name="Trazado 766929" d="M55.691,19.509l-3.839,2.216a4.553,4.553,0,0,0,.033-.508V20.1c0-1.979-1.39-2.781-3.1-1.791a6,6,0,0,0-1.85,1.779c-.28-2.489-2.233-3.415-4.6-2.047a10.262,10.262,0,0,0-4.643,8.041v1.664a4.375,4.375,0,0,0,.393,1.928l-3.189,1.841A3.806,3.806,0,0,0,33.167,34.5c0,1.1.771,1.542,1.721.994l20.8-12.01A3.8,3.8,0,0,0,57.412,20.5c0-1.1-.771-1.542-1.721-.994" transform="translate(-18.925 -9.935)" fill="#ebebeb"/>
        <path id="Trazado_766930" data-name="Trazado 766930" d="M109.328,41.612l-2.9,1.673a3.431,3.431,0,0,0,.024-.383v-.839c0-1.494-1.049-2.1-2.342-1.352a4.526,4.526,0,0,0-1.4,1.342c-.212-1.878-1.685-2.578-3.475-1.545a7.746,7.746,0,0,0-3.5,6.069v1.256a3.309,3.309,0,0,0,.3,1.454l-2.406,1.389a2.872,2.872,0,0,0-1.3,2.251c0,.828.582,1.164,1.3.75l15.7-9.064a2.872,2.872,0,0,0,1.3-2.25c0-.829-.581-1.165-1.3-.75" transform="translate(-52.682 -22.841)" fill="#ebebeb"/>
      </g>
    </g>
    <g id="Grupo_1026394" data-name="Grupo 1026394">
      <g id="Grupo_1026393" data-name="Grupo 1026393" clip-path="url(#clip-path-5)">
        <path id="Trazado_766931" data-name="Trazado 766931" d="M167.633,262.517l14.593-8.438a3.828,3.828,0,0,0,2.257-3.145c0-1.138.006-2.03.006-2.03l-15.141-8.537a3.212,3.212,0,0,1-1.452-2.516V219.859l-25.489,14.729V252.58a3.211,3.211,0,0,0,1.453,2.516l12.88,7.422a12.042,12.042,0,0,0,10.895,0" transform="translate(-81.255 -125.45)" fill="#263238"/>
        <path id="Trazado_766932" data-name="Trazado 766932" d="M148.522,271.616v2.021l-4.671-2.692a3.215,3.215,0,0,1-1.451-2.516v-17.99l4.856-2.8c.1,1.233.21,2.508.31,3.749l-3.4,1.971v14.057a3.191,3.191,0,0,0,1.451,2.516Z" transform="translate(-81.253 -141.301)"/>
        <path id="Trazado_766933" data-name="Trazado 766933" d="M146.5,255.447a3.21,3.21,0,0,0,1.453,2.516l11.119,6.405a12.045,12.045,0,0,0,10.9,0l14.6-8.437c3.009-1.736,3.009-4.552,0-6.289l-11.127-6.41a3.21,3.21,0,0,1-1.453-2.516V226.66L146.5,241.389Z" transform="translate(-83.592 -129.331)" fill="#37474f"/>
        <path id="Trazado_766934" data-name="Trazado 766934" d="M176.4,244.945v0l-2.959-1.708a3.21,3.21,0,0,1-1.453-2.516V226.66L146.5,241.389v14.059a3.21,3.21,0,0,0,1.453,2.516l2.908,1.679Z" transform="translate(-83.592 -129.331)" fill="#263238"/>
        <path id="Trazado_766935" data-name="Trazado 766935" d="M211.1,287.5v2.03a3.836,3.836,0,0,1-2.256,3.145l-14.6,8.433a10.92,10.92,0,0,1-5.2,1.292v-2.021a10.92,10.92,0,0,0,5.2-1.292l14.6-8.441A3.825,3.825,0,0,0,211.1,287.5" transform="translate(-107.87 -164.048)" fill="#455a64"/>
        <path id="Trazado_766936" data-name="Trazado 766936" d="M48.928,143.59a3.893,3.893,0,0,0,3.519-.065l98.574-56.91a4.013,4.013,0,0,0,1.815-3.145v-80a3.9,3.9,0,0,0-1.7-3.08,3.9,3.9,0,0,0-3.519.065L49.042,57.364a4.012,4.012,0,0,0-1.816,3.145v80a3.893,3.893,0,0,0,1.7,3.08" transform="translate(-26.946 0)" fill="#455a64"/>
        <path id="Trazado_766937" data-name="Trazado 766937" d="M56.976,146.407,155.549,89.5a4.012,4.012,0,0,0,1.816-3.145v-80c0-1.158-.813-1.627-1.816-1.049L56.977,62.213a4.012,4.012,0,0,0-1.816,3.145v80c0,1.158.813,1.627,1.816,1.048" transform="translate(-31.474 -2.884)" fill="#4adbd1"/>
        <path id="Trazado_766938" data-name="Trazado 766938" d="M56.976,146.407,155.549,89.5a4.012,4.012,0,0,0,1.816-3.145v-80c0-1.158-.813-1.627-1.816-1.049L56.977,62.213a4.012,4.012,0,0,0-1.816,3.145v80c0,1.158.813,1.627,1.816,1.048" transform="translate(-31.474 -2.884)" fill="#37474f"/>
        <path id="Trazado_766939" data-name="Trazado 766939" d="M52.181,325.225a3.394,3.394,0,0,1-4.957-3.154v-7.261l3.405,1.971v7.261c0,1.057.671,1.535,1.551,1.183" transform="translate(-26.946 -179.629)" fill="#263238"/>
        <path id="Trazado_766940" data-name="Trazado 766940" d="M55.154,240.972l0,7.258c0,1.158.813,1.627,1.816,1.048l98.574-56.91a4.014,4.014,0,0,0,1.816-3.145V181.95Z" transform="translate(-31.471 -103.82)" fill="#37474f"/>
        <g id="Grupo_1026389" data-name="Grupo 1026389" transform="translate(23.686 78.13)" opacity="0.2">
          <g id="Grupo_1026388" data-name="Grupo 1026388">
            <g id="Grupo_1026387" data-name="Grupo 1026387" clip-path="url(#clip-path-6)">
              <path id="Trazado_766941" data-name="Trazado 766941" d="M55.161,240.956v7.273c0,1.158.813,1.627,1.816,1.049l98.574-56.91a4.014,4.014,0,0,0,1.816-3.145v-7.274Z" transform="translate(-55.161 -181.949)"/>
            </g>
          </g>
        </g>
        <path id="Trazado_766942" data-name="Trazado 766942" d="M63.092,138.346V73.907a2.409,2.409,0,0,1,1.089-1.887l93.21-53.815c.6-.347,1.09-.066,1.09.629l0,64.44a2.409,2.409,0,0,1-1.089,1.887L64.181,138.975c-.6.347-1.089.066-1.089-.629" transform="translate(-36 -10.303)" fill="#5573c6"/>
        <g id="Grupo_1026392" data-name="Grupo 1026392" transform="translate(22.093 5.754)" opacity="0.3">
          <g id="Grupo_1026391" data-name="Grupo 1026391" transform="translate(5 2)">
            <g id="Grupo_1026390" data-name="Grupo 1026390" clip-path="url(#clip-path-7)">
              <path id="Trazado_766943" data-name="Trazado 766943" d="M63.092,138.346V73.907a2.409,2.409,0,0,1,1.089-1.887l93.21-53.815c.6-.347,1.09-.066,1.09.629l0,64.44a2.409,2.409,0,0,1-1.089,1.887L64.181,138.975c-.6.347-1.089.066-1.089-.629" transform="translate(-63.092 -18.057)"/>
            </g>
          </g>
        </g>
        <path id="Trazado_766944" data-name="Trazado 766944" d="M171.9,255.746a3.766,3.766,0,0,0-1.7,2.951c0,1.086.763,1.527,1.7.984a3.766,3.766,0,0,0,1.7-2.951c0-1.086-.763-1.527-1.7-.983" transform="translate(-97.113 -145.794)" fill="#455a64"/>
        <path id="Trazado_766945" data-name="Trazado 766945" d="M51.165,138.7a3.861,3.861,0,0,0-.537,1.8v74.68L47.223,213.2V138.53a3.762,3.762,0,0,1,.537-1.794Z" transform="translate(-26.945 -78.021)" fill="#263238"/>
      </g>
    </g>
    <g id="Grupo_1026426" data-name="Grupo 1026426">
      <g id="Grupo_1026425" data-name="Grupo 1026425" clip-path="url(#clip-path)">
        <path id="Trazado_766946" data-name="Trazado 766946" d="M191.674,7.062a.9.9,0,0,0-.926.073L92.505,63.874a2.813,2.813,0,0,0-1.272,2.2v66.233a1.238,1.238,0,0,0,.536,1.106c.208.112,1.3.748,1.626.922a.729.729,0,0,0,.737-.043l98.24-56.76a2.807,2.807,0,0,0,1.274-2.2V8.792a.88.88,0,0,0-.395-.836c-.228-.12-1.343-.754-1.577-.894" transform="translate(-52.057 -3.974)" fill="#4adbd1"/>
        <path id="Trazado_766947" data-name="Trazado 766947" d="M96.158,135.711c-.353,0-.639-.436-.639-.971V68.506a2.62,2.62,0,0,1,1.165-2.019L194.926,9.75a.946.946,0,0,1,.461-.146c.307,0,.49.259.49.693V76.841a2.611,2.611,0,0,1-1.166,2.016l-98.24,56.76a.632.632,0,0,1-.313.094" transform="translate(-54.503 -5.48)" fill="#fafafa"/>
        <path id="Trazado_766948" data-name="Trazado 766948" d="M195.1,9.533c.239,0,.275.3.275.479V76.555a2.374,2.374,0,0,1-1.059,1.831L96.078,135.145a.426.426,0,0,1-.206.066c-.226,0-.424-.354-.424-.757V68.221a2.378,2.378,0,0,1,1.058-1.832L194.748,9.65a.724.724,0,0,1,.353-.117m0-.429a1.148,1.148,0,0,0-.568.174L96.291,66.017a2.812,2.812,0,0,0-1.272,2.2v66.233c0,.642.356,1.186.853,1.186a.838.838,0,0,0,.42-.123l98.24-56.76a2.807,2.807,0,0,0,1.274-2.2V10.013c0-.575-.287-.909-.7-.909" transform="translate(-54.217 -5.195)" fill="#e0e0e0"/>
        <path id="Trazado_766949" data-name="Trazado 766949" d="M91.765,217.455c.138.073,1.127.638,1.561.885a1.3,1.3,0,0,1-.468-1.069V155.2l-1.629-.953v62.1a1.238,1.238,0,0,0,.536,1.1" transform="translate(-52.055 -88.013)" fill="#f0f0f0"/>
        <path id="Trazado_766950" data-name="Trazado 766950" d="M195.805,10c-.005-.8-.572-1.129-1.271-.725L96.292,66.017a2.812,2.812,0,0,0-1.273,2.2v4.162l100.785-58.2Z" transform="translate(-54.217 -5.195)" fill="#4adbd1"/>
        <g id="Grupo_1026397" data-name="Grupo 1026397" transform="translate(39.562 2.99)" opacity="0.4">
          <g id="Grupo_1026396" data-name="Grupo 1026396">
            <g id="Grupo_1026395" data-name="Grupo 1026395" clip-path="url(#clip-path-9)">
              <path id="Trazado_766951" data-name="Trazado 766951" d="M192.887,8.057,94.646,64.8a2.614,2.614,0,0,0-.9.944L92.133,64.8a2.537,2.537,0,0,1,.885-.928L191.262,7.136a.9.9,0,0,1,.925-.076c.228.14,1.285.741,1.553.885a.92.92,0,0,0-.852.112" transform="translate(-92.133 -6.964)" fill="#fff"/>
            </g>
          </g>
        </g>
        <g id="Grupo_1026400" data-name="Grupo 1026400" transform="translate(39.174 60.83)" opacity="0.15">
          <g id="Grupo_1026399" data-name="Grupo 1026399">
            <g id="Grupo_1026398" data-name="Grupo 1026398" clip-path="url(#clip-path-10)">
              <path id="Trazado_766952" data-name="Trazado 766952" d="M91.229,147.07v-4.137a2.625,2.625,0,0,1,.388-1.273l1.621.933a2.571,2.571,0,0,0-.38,1.264v4.162Z" transform="translate(-91.229 -141.66)"/>
            </g>
          </g>
        </g>
        <path id="Trazado_766953" data-name="Trazado 766953" d="M95.021,79.127v7.495L195.806,28.431V20.923Z" transform="translate(-54.217 -11.939)" fill="#ebebeb"/>
        <path id="Trazado_766954" data-name="Trazado 766954" d="M104.792,150.194l6.518-3.745v3.736l-6.521,3.765Z" transform="translate(-59.792 -83.563)" fill="#e0e0e0"/>
        <path id="Trazado_766955" data-name="Trazado 766955" d="M123.723,141.748v1.477l3.251-1.877v-1.476Z" transform="translate(-70.595 -79.81)" fill="#e0e0e0"/>
        <path id="Trazado_766956" data-name="Trazado 766956" d="M123.723,147.058v1.477l3.251-1.877v-1.476Z" transform="translate(-70.595 -82.84)" fill="#e0e0e0"/>
        <path id="Trazado_766957" data-name="Trazado 766957" d="M135.08,135.19v1.477l3.251-1.877v-1.476Z" transform="translate(-77.076 -76.067)" fill="#e0e0e0"/>
        <path id="Trazado_766958" data-name="Trazado 766958" d="M135.08,140.5v1.477l3.251-1.877v-1.476Z" transform="translate(-77.076 -79.097)" fill="#e0e0e0"/>
        <path id="Trazado_766959" data-name="Trazado 766959" d="M146.437,128.631v1.477l3.251-1.877v-1.476Z" transform="translate(-83.556 -72.325)" fill="#e0e0e0"/>
        <path id="Trazado_766960" data-name="Trazado 766960" d="M146.437,133.941v1.477l3.251-1.877v-1.476Z" transform="translate(-83.556 -75.355)" fill="#e0e0e0"/>
        <path id="Trazado_766961" data-name="Trazado 766961" d="M180.5,108.965v1.477l3.251-1.877v-1.476Z" transform="translate(-102.995 -61.104)" fill="#e0e0e0"/>
        <path id="Trazado_766962" data-name="Trazado 766962" d="M180.5,114.275v1.477l3.251-1.877V112.4Z" transform="translate(-102.995 -64.134)" fill="#e0e0e0"/>
        <path id="Trazado_766963" data-name="Trazado 766963" d="M191.862,102.406v1.477l3.251-1.877v-1.476Z" transform="translate(-109.475 -57.361)" fill="#e0e0e0"/>
        <path id="Trazado_766964" data-name="Trazado 766964" d="M191.862,107.717v1.477l3.251-1.877V105.84Z" transform="translate(-109.475 -60.391)" fill="#e0e0e0"/>
        <path id="Trazado_766965" data-name="Trazado 766965" d="M203.219,95.848v1.477l3.251-1.877V93.971Z" transform="translate(-115.955 -53.619)" fill="#e0e0e0"/>
        <path id="Trazado_766966" data-name="Trazado 766966" d="M203.219,101.158v1.477l3.251-1.877V99.281Z" transform="translate(-115.955 -56.649)" fill="#e0e0e0"/>
        <path id="Trazado_766967" data-name="Trazado 766967" d="M157.791,118.335l8.128-4.693V117.4l-8.126,4.692Z" transform="translate(-90.035 -64.844)" fill="#e0e0e0"/>
        <path id="Trazado_766968" data-name="Trazado 766968" d="M214.579,86.81l6.518-3.745V86.8l-6.521,3.765Z" transform="translate(-122.436 -47.397)" fill="#e0e0e0"/>
        <path id="Trazado_766969" data-name="Trazado 766969" d="M233.509,78.364v1.477l3.251-1.877V76.487Z" transform="translate(-133.239 -43.643)" fill="#e0e0e0"/>
        <path id="Trazado_766970" data-name="Trazado 766970" d="M233.509,83.674v1.477l3.251-1.877V81.8Z" transform="translate(-133.239 -46.673)" fill="#e0e0e0"/>
        <path id="Trazado_766971" data-name="Trazado 766971" d="M244.866,71.806v1.477l3.251-1.877V69.929Z" transform="translate(-139.719 -39.901)" fill="#e0e0e0"/>
        <path id="Trazado_766972" data-name="Trazado 766972" d="M244.866,77.116v1.477l3.251-1.877V75.239Z" transform="translate(-139.719 -42.931)" fill="#e0e0e0"/>
        <path id="Trazado_766973" data-name="Trazado 766973" d="M256.223,65.247v1.477l3.251-1.877V63.37Z" transform="translate(-146.2 -36.159)" fill="#e0e0e0"/>
        <path id="Trazado_766974" data-name="Trazado 766974" d="M256.223,70.558v1.477l3.251-1.877V68.681Z" transform="translate(-146.2 -39.189)" fill="#e0e0e0"/>
        <path id="Trazado_766975" data-name="Trazado 766975" d="M290.293,45.577v1.477l3.251-1.877V43.7Z" transform="translate(-165.64 -24.935)" fill="#e0e0e0"/>
        <path id="Trazado_766976" data-name="Trazado 766976" d="M290.293,50.887v1.477l3.251-1.877V49.01Z" transform="translate(-165.64 -27.965)" fill="#e0e0e0"/>
        <path id="Trazado_766977" data-name="Trazado 766977" d="M301.65,39.018V40.5l3.251-1.877V37.142Z" transform="translate(-172.12 -21.193)" fill="#e0e0e0"/>
        <path id="Trazado_766978" data-name="Trazado 766978" d="M301.65,44.329v1.477l3.251-1.877V42.452Z" transform="translate(-172.12 -24.223)" fill="#e0e0e0"/>
        <path id="Trazado_766979" data-name="Trazado 766979" d="M313.007,32.46v1.477l3.251-1.877V30.583Z" transform="translate(-178.6 -17.451)" fill="#e0e0e0"/>
        <path id="Trazado_766980" data-name="Trazado 766980" d="M313.007,37.77v1.477l3.251-1.877V35.894Z" transform="translate(-178.6 -20.481)" fill="#e0e0e0"/>
        <path id="Trazado_766981" data-name="Trazado 766981" d="M267.581,54.952l8.128-4.693v3.754l-8.126,4.692Z" transform="translate(-152.68 -28.677)" fill="#e0e0e0"/>
        <path id="Trazado_766982" data-name="Trazado 766982" d="M92.858,155.2l-1.629-.953v7.51l1.627.937Z" transform="translate(-52.055 -88.013)" fill="#e0e0e0"/>
        <path id="Trazado_766983" data-name="Trazado 766983" d="M269.161,32.146v.276c0,.442.31.621.693.4l19.747-11.4a1.532,1.532,0,0,0,.693-1.2v-.277c0-.442-.31-.621-.693-.4l-19.746,11.4a1.532,1.532,0,0,0-.693,1.2" transform="translate(-153.582 -11.098)" fill="#f5f5f5"/>
        <path id="Trazado_766984" data-name="Trazado 766984" d="M314.054,20.222v-.277c0-.442-.31-.621-.693-.4L310.8,21.022V22.9l2.558-1.477a1.532,1.532,0,0,0,.693-1.2" transform="translate(-177.342 -11.098)" fill="#455a64"/>
        <path id="Trazado_766985" data-name="Trazado 766985" d="M98.805,101.282l97.537-56.3v3.745l-89.412,51.624v48.8l-8.124,4.69Z" transform="translate(-56.378 -25.665)" fill="#f0f0f0"/>
        <path id="Trazado_766986" data-name="Trazado 766986" d="M117.728,167.692,125.849,163v3.745l-8.121,4.7Z" transform="translate(-67.175 -93.009)" fill="#4adbd1"/>
        <path id="Trazado_766987" data-name="Trazado 766987" d="M117.728,237.623l8.121-4.689v3.745l-8.121,4.7Z" transform="translate(-67.175 -132.911)" fill="#4adbd1"/>
        <path id="Trazado_766988" data-name="Trazado 766988" d="M117.728,246.366l8.121-4.689v3.745l-8.121,4.7Z" transform="translate(-67.175 -137.9)" fill="#4adbd1"/>
        <g id="Grupo_1026403" data-name="Grupo 1026403" transform="translate(50.553 103.777)" opacity="0.8">
          <g id="Grupo_1026402" data-name="Grupo 1026402">
            <g id="Grupo_1026401" data-name="Grupo 1026401" clip-path="url(#clip-path-11)">
              <path id="Trazado_766989" data-name="Trazado 766989" d="M117.728,246.366l8.121-4.689v3.745l-8.121,4.7Z" transform="translate(-117.728 -241.677)" fill="#fff"/>
            </g>
          </g>
        </g>
        <path id="Trazado_766990" data-name="Trazado 766990" d="M231.287,172.053l8.121-4.689v3.745l-8.121,4.7Z" transform="translate(-131.971 -95.497)" fill="#4adbd1"/>
        <g id="Grupo_1026406" data-name="Grupo 1026406" transform="translate(99.316 71.867)" opacity="0.3">
          <g id="Grupo_1026405" data-name="Grupo 1026405">
            <g id="Grupo_1026404" data-name="Grupo 1026404" clip-path="url(#clip-path-12)">
              <path id="Trazado_766991" data-name="Trazado 766991" d="M231.287,172.053l8.121-4.689v3.745l-8.121,4.7Z" transform="translate(-231.287 -167.365)"/>
            </g>
          </g>
        </g>
        <path id="Trazado_766992" data-name="Trazado 766992" d="M231.287,180.8l8.121-4.689v3.745l-8.121,4.7Z" transform="translate(-131.971 -100.486)" fill="#4adbd1"/>
        <g id="Grupo_1026409" data-name="Grupo 1026409" transform="translate(99.316 75.622)" opacity="0.4">
          <g id="Grupo_1026408" data-name="Grupo 1026408">
            <g id="Grupo_1026407" data-name="Grupo 1026407" clip-path="url(#clip-path-12)">
              <path id="Trazado_766993" data-name="Trazado 766993" d="M231.287,180.8l8.121-4.689v3.745l-8.121,4.7Z" transform="translate(-231.287 -176.108)"/>
            </g>
          </g>
        </g>
        <path id="Trazado_766994" data-name="Trazado 766994" d="M231.287,189.54l8.121-4.689V188.6l-8.121,4.7Z" transform="translate(-131.971 -105.475)" fill="#4adbd1"/>
        <g id="Grupo_1026412" data-name="Grupo 1026412" transform="translate(99.316 79.376)" opacity="0.5">
          <g id="Grupo_1026411" data-name="Grupo 1026411">
            <g id="Grupo_1026410" data-name="Grupo 1026410" clip-path="url(#clip-path-12)">
              <path id="Trazado_766995" data-name="Trazado 766995" d="M231.287,189.54l8.121-4.689V188.6l-8.121,4.7Z" transform="translate(-231.287 -184.851)"/>
            </g>
          </g>
        </g>
        <path id="Trazado_766996" data-name="Trazado 766996" d="M231.287,198.283l8.121-4.689v3.745l-8.121,4.7Z" transform="translate(-131.971 -110.464)" fill="#4adbd1"/>
        <g id="Grupo_1026415" data-name="Grupo 1026415" transform="translate(99.316 83.131)" opacity="0.3">
          <g id="Grupo_1026414" data-name="Grupo 1026414">
            <g id="Grupo_1026413" data-name="Grupo 1026413" clip-path="url(#clip-path-12)">
              <path id="Trazado_766997" data-name="Trazado 766997" d="M231.287,198.283l8.121-4.689v3.745l-8.121,4.7Z" transform="translate(-231.287 -193.595)"/>
            </g>
          </g>
        </g>
        <path id="Trazado_766998" data-name="Trazado 766998" d="M212.375,113.041l8.121-4.689v18.771l-8.121,4.7Z" transform="translate(-121.18 -61.825)" fill="#4adbd1"/>
        <path id="Trazado_766999" data-name="Trazado 766999" d="M212.375,165.5l8.121-4.689V187.09l-8.121,4.7Z" transform="translate(-121.18 -91.758)" fill="#4adbd1"/>
        <path id="Trazado_767000" data-name="Trazado 767000" d="M136.641,209.211l8.121-4.689v3.745l-8.121,4.7Z" transform="translate(-77.966 -116.699)" fill="#4adbd1"/>
        <g id="Grupo_1026418" data-name="Grupo 1026418" transform="translate(58.674 87.823)" opacity="0.3">
          <g id="Grupo_1026417" data-name="Grupo 1026417">
            <g id="Grupo_1026416" data-name="Grupo 1026416" clip-path="url(#clip-path-12)">
              <path id="Trazado_767001" data-name="Trazado 767001" d="M136.641,209.211l8.121-4.689v3.745l-8.121,4.7Z" transform="translate(-136.64 -204.522)"/>
            </g>
          </g>
        </g>
        <path id="Trazado_767002" data-name="Trazado 767002" d="M174.519,143.64l8.121-4.689V142.7l-8.121,4.7Z" transform="translate(-99.579 -79.285)" fill="#4adbd1"/>
        <g id="Grupo_1026421" data-name="Grupo 1026421" transform="translate(74.939 59.666)" opacity="0.6">
          <g id="Grupo_1026420" data-name="Grupo 1026420">
            <g id="Grupo_1026419" data-name="Grupo 1026419" clip-path="url(#clip-path-12)">
              <path id="Trazado_767003" data-name="Trazado 767003" d="M174.519,143.64l8.121-4.689V142.7l-8.121,4.7Z" transform="translate(-174.519 -138.951)" fill="#fff"/>
            </g>
          </g>
        </g>
        <path id="Trazado_767004" data-name="Trazado 767004" d="M269.166,141.454l8.121-4.689v3.745l-8.121,4.7Z" transform="translate(-153.584 -78.038)" fill="#4adbd1"/>
        <g id="Grupo_1026424" data-name="Grupo 1026424" transform="translate(115.581 58.728)" opacity="0.8">
          <g id="Grupo_1026423" data-name="Grupo 1026423">
            <g id="Grupo_1026422" data-name="Grupo 1026422" clip-path="url(#clip-path-11)">
              <path id="Trazado_767005" data-name="Trazado 767005" d="M269.166,141.454l8.121-4.689v3.745l-8.121,4.7Z" transform="translate(-269.166 -136.765)" fill="#fff"/>
            </g>
          </g>
        </g>
        <path id="Trazado_767006" data-name="Trazado 767006" d="M269.166,158.947l8.121-4.689V158l-8.121,4.7Z" transform="translate(-153.584 -88.019)" fill="#4adbd1"/>
        <path id="Trazado_767007" data-name="Trazado 767007" d="M98.439,100.644l-.1.058v53.021l97.836-56.487.1-.058V44.158ZM195.874,93.2l-7.725,4.46V94.372l7.725-4.46ZM98.739,104.686l7.727-4.461v3.293l-7.727,4.461Zm48.368-5.395v3.293l-7.728,4.462v-3.293Zm-7.728,4V100l7.728-4.462V98.83Zm8.128-4.231,7.728-4.462v3.293l-7.728,4.462Zm0-.462V95.3l7.728-4.462v3.293Zm0-3.755V91.55l7.728-4.462v3.293Zm0-3.756V87.795l7.728-4.462v3.293Zm-.4.231-7.728,4.462V92.488l7.728-4.462Zm0,.462v3.293l-7.728,4.462V96.243Zm-8.128,7.987-7.728,4.462v-3.294l7.728-4.462Zm0,.462v3.294l-7.728,4.462v-3.293Zm0,3.756v3.293l-7.728,4.462v-3.293Zm0,3.755v3.294l-7.728,4.462V112.2Zm.4-.231,7.728-4.462v3.294l-7.728,4.462Zm7.728-.707v3.293l-7.728,4.462v-3.293Zm.4-.231,7.728-4.462V105.4l-7.728,4.462Zm0-.462v-3.293l7.728-4.462v3.293Zm8.128-7.986,7.728-4.462v3.293l-7.728,4.462Zm0-.462V94.368l7.728-4.462V93.2Zm0-3.755V90.612l7.728-4.462v3.293Zm0-3.755V86.857l7.728-4.462v3.293Zm0-3.755V83.1l7.728-4.462v3.293Zm0-3.755V79.347l7.728-4.462v3.293Zm-.4.231-7.728,4.462V84.039l7.728-4.462Zm-8.128,4.693-7.728,4.462V88.732l7.728-4.462Zm-8.128,4.693-7.728,4.462V93.425l7.728-4.462Zm0,.462v3.293l-7.728,4.462V97.181Zm-8.128,7.986-7.728,4.462v-3.293l7.728-4.462Zm0,.462v3.294l-7.728,4.462v-3.293Zm0,3.756v3.293l-7.728,4.462v-3.293Zm0,3.755v3.293l-7.728,4.462v-3.293Zm0,3.755v3.293l-7.728,4.462v-3.293Zm0,3.755v3.293l-7.728,4.462v-3.293Zm.4-.231,7.728-4.462v3.293l-7.728,4.462Zm7.728-.707v3.294L131.251,123v-3.293Zm.4-.231,7.728-4.462v3.294l-7.728,4.462Zm8.128-4.693,7.728-4.462v3.293l-7.728,4.462Zm8.128-4.693,7.728-4.462v3.293l-7.728,4.462Zm0-.462v-3.293l7.728-4.462v3.293Zm8.128-7.986,7.728-4.462v3.293l-7.728,4.462Zm0-.462V93.43l7.728-4.462v3.293Zm0-3.755V89.675l7.728-4.462v3.293Zm0-3.755V85.919l7.728-4.462v3.293Zm0-3.755V82.164l7.728-4.462V81Zm0-3.755V78.409l7.728-4.462V77.24Zm0-3.755V74.654l7.728-4.462v3.293Zm0-3.755V70.9l7.728-4.462V69.73Zm-.4.231-7.728,4.462V75.592l7.728-4.462Zm-8.128,4.693-7.728,4.462V80.284l7.728-4.462Zm-8.128,4.693-7.728,4.462V84.977l7.728-4.462ZM138.979,88.5l-7.728,4.462V89.67l7.728-4.462Zm-8.128,4.693-7.728,4.462V94.363l7.728-4.462Zm0,.462V96.95l-7.728,4.462V98.118Zm-8.129,7.986-7.728,4.462v-3.294l7.728-4.462Zm0,.462V105.4l-7.728,4.462v-3.293Zm0,3.755v3.294l-7.728,4.462v-3.294Zm0,3.756v3.293l-7.728,4.462v-3.294Zm0,3.755v3.293l-7.728,4.462v-3.293Zm0,3.755v3.293l-7.728,4.462v-3.294Zm0,3.755v3.293l-7.728,4.462v-3.293Zm0,3.755v3.293l-7.728,4.462V129.1Zm.4-.231,7.728-4.462v3.293l-7.728,4.462Zm7.728-.707v3.293l-7.728,4.462V128.16Zm.4-.231L138.979,119V122.3l-7.728,4.462Zm8.128-4.693,7.728-4.462v3.293l-7.728,4.462Zm8.128-4.693,7.728-4.462v3.293l-7.728,4.462Zm8.128-4.693,7.728-4.462v3.294l-7.728,4.462Zm8.128-4.693,7.728-4.462v3.293l-7.728,4.462Zm0-.462V100.94l7.728-4.462v3.293Zm8.129-7.987,7.728-4.462v3.293l-7.728,4.462Zm0-.462V92.492l7.728-4.462v3.293Zm0-3.755V88.737l7.728-4.462v3.293Zm0-3.755V84.982l7.728-4.462v3.293Zm0-3.755V81.226l7.728-4.462v3.293Zm0-3.755V77.471l7.728-4.462V76.3Zm0-3.755V73.716l7.728-4.462v3.293Zm0-3.755V69.961L179.62,65.5v3.293Zm0-3.755V66.206l7.728-4.462v3.293Zm0-3.755V62.451l7.728-4.462v3.293Zm-.4.231-7.728,4.462V67.144l7.728-4.462Zm-8.129,4.693-7.728,4.462V71.837l7.728-4.462Zm-8.128,4.693-7.728,4.462V76.529l7.728-4.462Zm-8.128,4.693-7.728,4.462V81.222l7.728-4.462Zm-8.128,4.693-7.728,4.462V85.915l7.728-4.462Zm-8.128,4.693L123.122,93.9V90.608l7.728-4.462Zm-8.129,4.693-7.728,4.462V95.3l7.728-4.462Zm0,.462v3.293l-7.728,4.462V99.056Zm-8.128,7.986-7.728,4.462v-3.293l7.728-4.462Zm0,.462v3.294l-7.728,4.462V107.5Zm0,3.755v3.293l-7.728,4.462v-3.293Zm0,3.755v3.294l-7.728,4.462v-3.294Zm0,3.755V117.6l-7.728,4.462v-3.294Zm0,3.756v3.293l-7.728,4.462v-3.293Zm0,3.755v3.294l-7.728,4.462V126.28Zm0,3.755v3.294l-7.728,4.462v-3.293Zm0,3.755v3.294l-7.728,4.462V133.79Zm0,3.756v3.293l-7.728,4.462v-3.294Zm.4-.231,7.728-4.462v3.294l-7.728,4.462Zm7.728-.706v3.293l-7.728,4.462v-3.293Zm.4-.231,7.728-4.462v3.293l-7.728,4.462Zm8.129-4.693,7.728-4.462v3.293l-7.728,4.462Zm8.128-4.693,7.728-4.462v3.293l-7.728,4.462Zm8.128-4.693,7.728-4.462v3.293l-7.728,4.462Zm8.128-4.693,7.728-4.462v3.293l-7.728,4.462Zm8.128-4.693,7.728-4.462v3.293l-7.728,4.462Zm8.129-4.693L179.62,99.3v3.293l-7.728,4.462Zm0-.462V100l7.728-4.462v3.293Zm8.128-7.986,7.728-4.462v3.293L180.02,98.6Zm0-.462V91.555l7.728-4.462v3.293Zm0-3.755V87.8l7.728-4.462v3.293Zm0-3.755V84.044l7.728-4.462v3.293Zm0-3.755V80.289l7.728-4.462V79.12Zm0-3.755V76.534l7.728-4.462v3.293Zm0-3.755V72.778l7.728-4.462V71.61Zm0-3.756V69.024l7.728-4.462v3.293Zm0-3.755V65.268l7.728-4.462V64.1Zm0-3.755V61.513l7.728-4.462v3.293Zm0-3.755V57.758l7.728-4.462v3.293Zm0-3.755V54l7.728-4.462v3.291Zm-.4.231-7.728,4.462V58.7l7.728-4.462Zm-8.128,4.693-7.728,4.462V63.39l7.728-4.462Zm-8.129,4.693-7.728,4.462V68.083l7.728-4.462Zm-8.128,4.693-7.728,4.462V72.776l7.728-4.462ZM147.107,76.3l-7.728,4.462V77.469l7.728-4.462Zm-8.128,4.693-7.728,4.462V82.162l7.728-4.462Zm-8.128,4.693-7.728,4.462V86.855l7.728-4.462Zm-8.129,4.693-7.728,4.462V91.548l7.728-4.462Zm-8.128,4.693-7.728,4.462V96.241l7.728-4.462Zm0,.462v3.293l-7.728,4.462V99.994ZM98.739,108.441l7.727-4.461v3.293l-7.727,4.461Zm0,3.755,7.727-4.461v3.293l-7.727,4.461Zm0,3.755,7.727-4.462v3.293l-7.727,4.462Zm0,3.755,7.727-4.461v3.294L98.739,123Zm0,3.756L106.466,119v3.294l-7.727,4.462Zm0,3.755,7.727-4.461v3.293l-7.727,4.461Zm0,3.755,7.727-4.462V129.8l-7.727,4.462Zm0,3.755,7.727-4.461v3.293l-7.728,4.461Zm0,3.755,7.728-4.462v3.294l-7.728,4.462Zm0,3.755,7.728-4.461v3.293l-7.728,4.462Zm0,3.756,7.728-4.462v3.293l-7.728,4.462Zm8.128-4.693,7.728-4.462v3.293l-7.728,4.462Zm7.728-.707v3.282l-7.728,4.462v-3.282Zm.4-.231,7.728-4.462v3.281l-7.728,4.462Zm8.128-4.693,7.728-4.462v3.281l-7.728,4.462Zm8.129-4.693,7.728-4.462V129.8l-7.728,4.462Zm8.128-4.693,7.728-4.462V125.1l-7.728,4.462Zm8.128-4.693,7.728-4.462v3.281l-7.728,4.462Zm8.128-4.693,7.728-4.462v3.281l-7.728,4.462Zm8.128-4.693,7.728-4.462v3.281l-7.728,4.462Zm8.129-4.693,7.728-4.462v3.28l-7.728,4.462Zm8.128-4.693,7.728-4.462v3.28L180.02,106.1Zm0-.462V99.065l7.728-4.462V97.9ZM195.874,89.45l-7.725,4.46V90.617l7.725-4.46Zm0-3.755-7.725,4.46V86.862l7.725-4.46Zm0-3.755-7.725,4.46V83.106l7.725-4.46Zm0-3.755-7.725,4.46V79.351l7.725-4.46Zm0-3.755-7.725,4.46V75.6l7.725-4.46Zm0-3.755-7.725,4.46V71.841l7.725-4.46Zm0-3.755-7.725,4.46V68.086l7.725-4.46Zm0-3.756-7.725,4.46V64.331l7.725-4.46Zm0-3.755-7.725,4.46V60.575l7.725-4.46Zm0-3.755-7.725,4.46V56.82l7.725-4.46Zm0-3.755-7.725,4.46V53.065l7.725-4.46Zm0-3.755L188.149,52.6V49.312l7.725-4.461Zm-89.409,48.33v3.291l-7.727,4.461v-3.291Zm-7.728,53.276,7.728-4.462v3.282l-7.728,4.462Zm89.411-48.341v-3.28l7.725-4.46v3.28Z" transform="translate(-56.111 -25.196)" fill="#e0e0e0"/>
        <path id="Trazado_767008" data-name="Trazado 767008" d="M250.2,72.47l32.527-18.765V72.481L250.2,91.241Z" transform="translate(-142.763 -30.644)" fill="#fafafa"/>
        <path id="Trazado_767009" data-name="Trazado 767009" d="M250.2,72.47l32.527-18.765V72.481L250.2,91.241Z" transform="translate(-142.763 -30.644)" fill="none" stroke="#e0e0e0" stroke-miterlimit="10" stroke-width="1"/>
        <path id="Trazado_767010" data-name="Trazado 767010" d="M254.03,99.827l4.4-12,4.86,2.906,4.887-4.978,4.874,3.213,4.874-12,4.874,2.5" transform="translate(-144.948 -43.915)" fill="none" stroke="#455a64" stroke-linecap="round" stroke-linejoin="round" stroke-width="0.75"/>
        <path id="Trazado_767011" data-name="Trazado 767011" d="M263.615,100.841a1.086,1.086,0,0,0-.49.852c0,.314.219.441.49.284a1.088,1.088,0,0,0,.49-.852c0-.313-.219-.44-.49-.284" transform="translate(-150.138 -57.501)" fill="#4adbd1"/>
        <path id="Trazado_767012" data-name="Trazado 767012" d="M274.965,107.609a1.086,1.086,0,0,0-.49.852c0,.314.219.441.49.284a1.088,1.088,0,0,0,.49-.852c0-.313-.219-.44-.49-.284" transform="translate(-156.614 -61.363)" fill="#4adbd1"/>
        <path id="Trazado_767013" data-name="Trazado 767013" d="M286.316,96.02a1.086,1.086,0,0,0-.49.852c0,.314.219.441.49.284a1.088,1.088,0,0,0,.49-.852c0-.313-.219-.44-.49-.284" transform="translate(-163.091 -54.75)" fill="#4adbd1"/>
        <path id="Trazado_767014" data-name="Trazado 767014" d="M297.666,103.5a1.086,1.086,0,0,0-.49.852c0,.314.219.441.49.284a1.088,1.088,0,0,0,.49-.852c0-.313-.219-.44-.49-.284" transform="translate(-169.567 -59.016)" fill="#4adbd1"/>
        <path id="Trazado_767015" data-name="Trazado 767015" d="M309.016,75.551a1.086,1.086,0,0,0-.49.852c0,.314.219.441.49.284a1.088,1.088,0,0,0,.49-.852c0-.313-.219-.44-.49-.284" transform="translate(-176.043 -43.071)" fill="#4adbd1"/>
        <path id="Trazado_767016" data-name="Trazado 767016" d="M320.366,81.373a1.086,1.086,0,0,0-.49.852c0,.314.219.441.49.284a1.088,1.088,0,0,0,.49-.852c0-.313-.219-.44-.49-.284" transform="translate(-182.519 -46.393)" fill="#4adbd1"/>
      </g>
    </g>
    <path id="Trazado_767017" data-name="Trazado 767017" d="M345.97,214.749l-8.649,4.994,8.65,4.994,8.649-4.994Z" transform="translate(-192.474 -122.535)" fill="#455a64"/>
    <path id="Trazado_767018" data-name="Trazado 767018" d="M366.115,226.353v19.862l-8.649,4.994v-19.85Z" transform="translate(-203.967 -129.156)" fill="#37474f"/>
    <path id="Trazado_767019" data-name="Trazado 767019" d="M345.97,231.36v19.85l-8.65-4.994v-19.86Z" transform="translate(-192.473 -129.157)" fill="#263238"/>
    <path id="Trazado_767020" data-name="Trazado 767020" d="M319.47,250.105l-8.649,4.994,8.65,4.994,8.649-4.994Z" transform="translate(-177.353 -142.709)" fill="#4adbd1"/>
    <g id="Grupo_1026431" data-name="Grupo 1026431">
      <g id="Grupo_1026430" data-name="Grupo 1026430" clip-path="url(#clip-path)">
        <g id="Grupo_1026429" data-name="Grupo 1026429" transform="translate(133.469 107.397)" opacity="0.3">
          <g id="Grupo_1026428" data-name="Grupo 1026428">
            <g id="Grupo_1026427" data-name="Grupo 1026427" clip-path="url(#clip-path-20)">
              <path id="Trazado_767021" data-name="Trazado 767021" d="M319.47,250.105l-8.649,4.994,8.65,4.994,8.649-4.994Z" transform="translate(-310.822 -250.105)" fill="#fff"/>
            </g>
          </g>
        </g>
      </g>
    </g>
    <path id="Trazado_767022" data-name="Trazado 767022" d="M339.615,261.709v11.249l-8.649,4.994V266.714Z" transform="translate(-188.846 -149.329)" fill="#4adbd1"/>
    <path id="Trazado_767023" data-name="Trazado 767023" d="M319.471,266.716v11.238l-8.65-4.994V261.711Z" transform="translate(-177.353 -149.331)" fill="#4adbd1"/>
    <g id="Grupo_1026436" data-name="Grupo 1026436">
      <g id="Grupo_1026435" data-name="Grupo 1026435" clip-path="url(#clip-path)">
        <g id="Grupo_1026434" data-name="Grupo 1026434" transform="translate(133.468 112.38)" opacity="0.1">
          <g id="Grupo_1026433" data-name="Grupo 1026433">
            <g id="Grupo_1026432" data-name="Grupo 1026432" clip-path="url(#clip-path-22)">
              <path id="Trazado_767024" data-name="Trazado 767024" d="M319.471,266.716v11.238l-8.65-4.994V261.711Z" transform="translate(-310.821 -261.711)"/>
            </g>
          </g>
        </g>
      </g>
    </g>
    <path id="Trazado_767025" data-name="Trazado 767025" d="M292.971,254.526l-8.649,4.993,8.65,4.994,8.649-4.994Z" transform="translate(-162.232 -145.231)" fill="#f0dcc0"/>
    <path id="Trazado_767027" data-name="Trazado 767027" d="M313.115,266.13v15.921l-8.649,4.994V271.136Z" transform="translate(-173.726 -151.852)" fill="#e6bf87"/>
    <path id="Trazado_767029" data-name="Trazado 767029" d="M292.971,271.137v15.909l-8.65-4.994V266.132Z" transform="translate(-162.232 -151.854)" fill="#f4a338"/>
    <path id="Trazado_767031" data-name="Trazado 767031" d="M266.471,293.8l-8.649,4.993,8.65,4.994,8.649-4.994Z" transform="translate(-147.112 -167.642)" fill="#5573c6"/>
    <g id="Grupo_1026456" data-name="Grupo 1026456">
      <g id="Grupo_1026455" data-name="Grupo 1026455" clip-path="url(#clip-path)">
        <g id="Grupo_1026454" data-name="Grupo 1026454" transform="translate(110.71 126.16)" opacity="0.3">
          <g id="Grupo_1026453" data-name="Grupo 1026453">
            <g id="Grupo_1026452" data-name="Grupo 1026452" clip-path="url(#clip-path-20)">
              <path id="Trazado_767032" data-name="Trazado 767032" d="M266.471,293.8l-8.649,4.993,8.65,4.994,8.649-4.994Z" transform="translate(-257.822 -293.802)"/>
            </g>
          </g>
        </g>
      </g>
    </g>
    <path id="Trazado_767033" data-name="Trazado 767033" d="M286.616,305.405v5.625l-8.649,4.994v-5.613Z" transform="translate(-158.605 -174.263)" fill="#5573c6"/>
    <g id="Grupo_1026461" data-name="Grupo 1026461">
      <g id="Grupo_1026460" data-name="Grupo 1026460" clip-path="url(#clip-path)">
        <g id="Grupo_1026459" data-name="Grupo 1026459" transform="translate(119.36 131.143)" opacity="0.4">
          <g id="Grupo_1026458" data-name="Grupo 1026458">
            <g id="Grupo_1026457" data-name="Grupo 1026457" clip-path="url(#clip-path-29)">
              <path id="Trazado_767034" data-name="Trazado 767034" d="M286.616,305.405v5.625l-8.649,4.994v-5.613Z" transform="translate(-277.965 -305.406)"/>
            </g>
          </g>
        </g>
      </g>
    </g>
    <path id="Trazado_767035" data-name="Trazado 767035" d="M266.471,310.412v5.613l-8.65-4.994v-5.624Z" transform="translate(-147.112 -174.264)" fill="#5573c6"/>
    <g id="Grupo_1026466" data-name="Grupo 1026466">
      <g id="Grupo_1026465" data-name="Grupo 1026465" clip-path="url(#clip-path)">
        <g id="Grupo_1026464" data-name="Grupo 1026464" transform="translate(110.71 131.144)" opacity="0.55">
          <g id="Grupo_1026463" data-name="Grupo 1026463">
            <g id="Grupo_1026462" data-name="Grupo 1026462" clip-path="url(#clip-path-31)">
              <path id="Trazado_767036" data-name="Trazado 767036" d="M266.471,310.412v5.613l-8.65-4.994v-5.624Z" transform="translate(-257.822 -305.408)"/>
            </g>
          </g>
        </g>
      </g>
    </g>
    <path id="Trazado_767037" data-name="Trazado 767037" d="M163.951,363.485v3.274l-3.233-8.788V354.7l0,0Z" transform="translate(-91.704 -202.39)" fill="#263238"/>
    <path id="Trazado_767038" data-name="Trazado 767038" d="M168.251,369.014v3.272l13.338-4.627v-3.272Z" transform="translate(-96.003 -207.917)" fill="#37474f"/>
    <g id="Grupo_1026510" data-name="Grupo 1026510">
      <g id="Grupo_1026509" data-name="Grupo 1026509" clip-path="url(#clip-path)">
        <path id="Trazado_767039" data-name="Trazado 767039" d="M160.718,354.517l3.235,8.787,13.338-4.627c-3.662-3.2-10.028-4.793-16.573-4.16" transform="translate(-91.705 -202.207)" fill="#455a64"/>
        <path id="Trazado_767040" data-name="Trazado 767040" d="M128.261,376.574a.867.867,0,0,0,0,.1v-.1Z" transform="translate(-73.183 -214.871)" fill="#4adbd1"/>
        <path id="Trazado_767041" data-name="Trazado 767041" d="M144.1,380.229l-1.981,9.316c-8.084-.788-13.927-4.878-13.859-9.552l0,.008v-3.193c0,4.638,5.827,8.683,13.863,9.468l1.36-6.4Z" transform="translate(-73.182 -215.004)" fill="#4adbd1"/>
        <g id="Grupo_1026469" data-name="Grupo 1026469" transform="translate(55.074 161.803)" opacity="0.4">
          <g id="Grupo_1026468" data-name="Grupo 1026468">
            <g id="Grupo_1026467" data-name="Grupo 1026467" clip-path="url(#clip-path-33)">
              <path id="Trazado_767042" data-name="Trazado 767042" d="M144.1,380.229l-1.981,9.316c-8.084-.788-13.927-4.878-13.859-9.552l0,.008v-3.193c0,4.638,5.827,8.683,13.863,9.468l1.36-6.4Z" transform="translate(-128.256 -376.808)"/>
            </g>
          </g>
        </g>
        <path id="Trazado_767043" data-name="Trazado 767043" d="M164.075,384.65v3.272a25.807,25.807,0,0,0,9.843-1.346c3.812-1.323,6.5-3.423,7.58-5.914a5.884,5.884,0,0,0,.5-2.284c0-.31,0-3.382,0-3.382a3.473,3.473,0,0,1-2.006-1.226l-2.5.866L166.057,378.6Z" transform="translate(-93.62 -213.271)" fill="#4adbd1"/>
        <g id="Grupo_1026472" data-name="Grupo 1026472" transform="translate(70.455 160.499)" opacity="0.6">
          <g id="Grupo_1026471" data-name="Grupo 1026471">
            <g id="Grupo_1026470" data-name="Grupo 1026470" clip-path="url(#clip-path-34)">
              <path id="Trazado_767044" data-name="Trazado 767044" d="M164.075,384.65v3.272a25.807,25.807,0,0,0,9.843-1.346c3.812-1.323,6.5-3.423,7.58-5.914a5.884,5.884,0,0,0,.5-2.284c0-.31,0-3.382,0-3.382a3.473,3.473,0,0,1-2.006-1.226l-2.5.866L166.057,378.6Z" transform="translate(-164.075 -373.77)" fill="#fff"/>
            </g>
          </g>
        </g>
        <path id="Trazado_767045" data-name="Trazado 767045" d="M140.894,363.515l9.937,5.737v-3.272l-9.937-5.737Z" transform="translate(-80.393 -205.553)" fill="#4adbd1"/>
        <g id="Grupo_1026475" data-name="Grupo 1026475" transform="translate(60.501 154.691)" opacity="0.1">
          <g id="Grupo_1026474" data-name="Grupo 1026474">
            <g id="Grupo_1026473" data-name="Grupo 1026473" clip-path="url(#clip-path-35)">
              <path id="Trazado_767046" data-name="Trazado 767046" d="M140.894,363.515l9.937,5.737v-3.272l-9.937-5.737Z" transform="translate(-140.894 -360.243)"/>
            </g>
          </g>
        </g>
        <path id="Trazado_767047" data-name="Trazado 767047" d="M128.379,367.006c-1.088,5.114,5.027,9.8,13.739,10.648l1.981-9.317L132.6,361.7c-2.4,1.5-3.783,3.244-4.222,5.307" transform="translate(-73.181 -206.383)" fill="#4adbd1"/>
        <g id="Grupo_1026478" data-name="Grupo 1026478" transform="translate(55.073 155.316)" opacity="0.3">
          <g id="Grupo_1026477" data-name="Grupo 1026477">
            <g id="Grupo_1026476" data-name="Grupo 1026476" clip-path="url(#clip-path-36)">
              <path id="Trazado_767048" data-name="Trazado 767048" d="M128.379,367.006c-1.088,5.114,5.027,9.8,13.739,10.648l1.981-9.317L132.6,361.7c-2.4,1.5-3.783,3.244-4.222,5.307" transform="translate(-128.254 -361.699)"/>
            </g>
          </g>
        </g>
        <path id="Trazado_767049" data-name="Trazado 767049" d="M164.133,380.03l-.058.273a25.825,25.825,0,0,0,9.843-1.346c3.812-1.323,6.5-3.423,7.58-5.914,1.014-2.348.478-4.778-1.5-6.893l-2.5.867-11.439,3.968Z" transform="translate(-93.62 -208.923)" fill="#4adbd1"/>
        <g id="Grupo_1026481" data-name="Grupo 1026481" transform="translate(70.455 157.227)" opacity="0.75">
          <g id="Grupo_1026480" data-name="Grupo 1026480">
            <g id="Grupo_1026479" data-name="Grupo 1026479" clip-path="url(#clip-path-37)">
              <path id="Trazado_767050" data-name="Trazado 767050" d="M164.133,380.03l-.058.273a25.825,25.825,0,0,0,9.843-1.346c3.812-1.323,6.5-3.423,7.58-5.914,1.014-2.348.478-4.778-1.5-6.893l-2.5.867-11.439,3.968Z" transform="translate(-164.075 -366.15)" fill="#fff"/>
            </g>
          </g>
        </g>
        <path id="Trazado_767051" data-name="Trazado 767051" d="M140.894,357.321l9.937,5.737-2.922-7.936a20.366,20.366,0,0,0-7.015,2.2" transform="translate(-80.393 -202.631)" fill="#4adbd1"/>
        <path id="Trazado_767052" data-name="Trazado 767052" d="M162.521,380.43v-3.272l-1.982,9.317v3.272Z" transform="translate(-91.603 -215.204)" fill="#4adbd1"/>
        <g id="Grupo_1026484" data-name="Grupo 1026484" transform="translate(68.937 161.954)" opacity="0.55">
          <g id="Grupo_1026483" data-name="Grupo 1026483">
            <g id="Grupo_1026482" data-name="Grupo 1026482" clip-path="url(#clip-path-38)">
              <path id="Trazado_767053" data-name="Trazado 767053" d="M162.521,380.43v-3.272l-1.982,9.317v3.272Z" transform="translate(-160.54 -377.158)"/>
            </g>
          </g>
        </g>
        <path id="Trazado_767054" data-name="Trazado 767054" d="M191.8,343.266l-2.165,1.25,2.165,1.25,2.165-1.25Z" transform="translate(-108.204 -195.866)" fill="#4adbd1"/>
        <g id="Grupo_1026487" data-name="Grupo 1026487" transform="translate(81.43 147.4)" opacity="0.3">
          <g id="Grupo_1026486" data-name="Grupo 1026486">
            <g id="Grupo_1026485" data-name="Grupo 1026485" clip-path="url(#clip-path-39)">
              <path id="Trazado_767055" data-name="Trazado 767055" d="M191.8,343.266l-2.165,1.25,2.165,1.25,2.165-1.25Z" transform="translate(-189.634 -343.266)"/>
            </g>
          </g>
        </g>
        <path id="Trazado_767056" data-name="Trazado 767056" d="M196.841,346.17v1.254l-2.165,1.25v-1.251Z" transform="translate(-111.081 -197.523)" fill="#4adbd1"/>
        <g id="Grupo_1026490" data-name="Grupo 1026490" transform="translate(83.595 148.647)" opacity="0.4">
          <g id="Grupo_1026489" data-name="Grupo 1026489">
            <g id="Grupo_1026488" data-name="Grupo 1026488" clip-path="url(#clip-path-40)">
              <path id="Trazado_767057" data-name="Trazado 767057" d="M196.841,346.17v1.254l-2.165,1.25v-1.251Z" transform="translate(-194.676 -346.17)"/>
            </g>
          </g>
        </g>
        <path id="Trazado_767058" data-name="Trazado 767058" d="M191.8,347.424v1.251l-2.165-1.25v-1.254Z" transform="translate(-108.204 -197.523)" fill="#4adbd1"/>
        <g id="Grupo_1026493" data-name="Grupo 1026493" transform="translate(81.43 148.648)" opacity="0.55">
          <g id="Grupo_1026492" data-name="Grupo 1026492">
            <g id="Grupo_1026491" data-name="Grupo 1026491" clip-path="url(#clip-path-40)">
              <path id="Trazado_767059" data-name="Trazado 767059" d="M191.8,347.424v1.251l-2.165-1.25v-1.254Z" transform="translate(-189.634 -346.171)"/>
            </g>
          </g>
        </g>
        <path id="Trazado_767060" data-name="Trazado 767060" d="M201.874,334.567l8.021-4.631a1.856,1.856,0,0,1,1.679-.031c.449.259.425.693-.054.97l-8.02,4.631a1.859,1.859,0,0,1-1.679.031c-.449-.259-.425-.693.054-.97" transform="translate(-114.974 -188.136)" fill="#e0e0e0"/>
        <path id="Trazado_767061" data-name="Trazado 767061" d="M203.156,349.823l-2.165,1.25,2.165,1.25,2.165-1.25Z" transform="translate(-114.685 -199.607)" fill="#4adbd1"/>
        <g id="Grupo_1026496" data-name="Grupo 1026496" transform="translate(86.307 150.216)" opacity="0.88">
          <g id="Grupo_1026495" data-name="Grupo 1026495">
            <g id="Grupo_1026494" data-name="Grupo 1026494" clip-path="url(#clip-path-39)">
              <path id="Trazado_767062" data-name="Trazado 767062" d="M203.156,349.823l-2.165,1.25,2.165,1.25,2.165-1.25Z" transform="translate(-200.992 -349.823)" fill="#fff"/>
            </g>
          </g>
        </g>
        <path id="Trazado_767063" data-name="Trazado 767063" d="M208.2,352.727v1.254l-2.165,1.25V353.98Z" transform="translate(-117.561 -201.264)" fill="#4adbd1"/>
        <g id="Grupo_1026499" data-name="Grupo 1026499" transform="translate(88.472 151.463)" opacity="0.75">
          <g id="Grupo_1026498" data-name="Grupo 1026498">
            <g id="Grupo_1026497" data-name="Grupo 1026497" clip-path="url(#clip-path-40)">
              <path id="Trazado_767064" data-name="Trazado 767064" d="M208.2,352.727v1.254l-2.165,1.25V353.98Z" transform="translate(-206.033 -352.727)" fill="#fff"/>
            </g>
          </g>
        </g>
        <path id="Trazado_767065" data-name="Trazado 767065" d="M203.156,353.981v1.251l-2.165-1.25v-1.254Z" transform="translate(-114.684 -201.265)" fill="#4adbd1"/>
        <g id="Grupo_1026502" data-name="Grupo 1026502" transform="translate(86.307 151.463)" opacity="0.6">
          <g id="Grupo_1026501" data-name="Grupo 1026501">
            <g id="Grupo_1026500" data-name="Grupo 1026500" clip-path="url(#clip-path-40)">
              <path id="Trazado_767066" data-name="Trazado 767066" d="M203.156,353.981v1.251l-2.165-1.25v-1.254Z" transform="translate(-200.991 -352.728)" fill="#fff"/>
            </g>
          </g>
        </g>
        <path id="Trazado_767067" data-name="Trazado 767067" d="M213.232,341.124l8.02-4.631a1.857,1.857,0,0,1,1.679-.031c.449.259.425.693-.054.97l-8.02,4.631a1.86,1.86,0,0,1-1.679.031c-.449-.259-.425-.694.054-.97" transform="translate(-121.455 -191.877)" fill="#e0e0e0"/>
        <path id="Trazado_767068" data-name="Trazado 767068" d="M214.514,356.38l-2.165,1.25,2.165,1.25,2.165-1.25Z" transform="translate(-121.165 -203.349)" fill="#4adbd1"/>
        <g id="Grupo_1026505" data-name="Grupo 1026505" transform="translate(91.184 153.032)" opacity="0.3">
          <g id="Grupo_1026504" data-name="Grupo 1026504">
            <g id="Grupo_1026503" data-name="Grupo 1026503" clip-path="url(#clip-path-39)">
              <path id="Trazado_767069" data-name="Trazado 767069" d="M214.514,356.38l-2.165,1.25,2.165,1.25,2.165-1.25Z" transform="translate(-212.349 -356.38)" fill="#fff"/>
            </g>
          </g>
        </g>
        <path id="Trazado_767070" data-name="Trazado 767070" d="M219.556,359.285v1.254l-2.165,1.25v-1.251Z" transform="translate(-124.042 -205.006)" fill="#4adbd1"/>
        <path id="Trazado_767071" data-name="Trazado 767071" d="M214.514,360.538v1.251l-2.165-1.25v-1.254Z" transform="translate(-121.165 -205.006)" fill="#4adbd1"/>
        <g id="Grupo_1026508" data-name="Grupo 1026508" transform="translate(91.184 154.279)" opacity="0.1">
          <g id="Grupo_1026507" data-name="Grupo 1026507">
            <g id="Grupo_1026506" data-name="Grupo 1026506" clip-path="url(#clip-path-40)">
              <path id="Trazado_767072" data-name="Trazado 767072" d="M214.514,360.538v1.251l-2.165-1.25v-1.254Z" transform="translate(-212.349 -359.285)"/>
            </g>
          </g>
        </g>
        <path id="Trazado_767073" data-name="Trazado 767073" d="M224.59,347.681l8.021-4.631a1.857,1.857,0,0,1,1.679-.031c.449.259.425.693-.054.97l-8.02,4.631a1.86,1.86,0,0,1-1.679.031c-.449-.259-.425-.693.054-.97" transform="translate(-127.935 -195.619)" fill="#e0e0e0"/>
        <path id="Trazado_767074" data-name="Trazado 767074" d="M225.871,362.938l-2.165,1.25,2.165,1.25,2.165-1.25Z" transform="translate(-127.646 -207.09)" fill="#455a64"/>
        <path id="Trazado_767075" data-name="Trazado 767075" d="M230.913,365.842V367.1l-2.165,1.25v-1.251Z" transform="translate(-130.522 -208.747)" fill="#37474f"/>
        <path id="Trazado_767076" data-name="Trazado 767076" d="M225.871,367.1v1.251l-2.165-1.25v-1.254Z" transform="translate(-127.645 -208.748)" fill="#263238"/>
        <path id="Trazado_767077" data-name="Trazado 767077" d="M235.947,354.239l8.02-4.631a1.857,1.857,0,0,1,1.679-.031c.449.259.425.693-.054.97l-8.02,4.631a1.86,1.86,0,0,1-1.679.031c-.449-.259-.425-.694.054-.97" transform="translate(-134.416 -199.361)" fill="#e0e0e0"/>
      </g>
    </g>
    <g id="Grupo_1026524" data-name="Grupo 1026524">
      <g id="Grupo_1026523" data-name="Grupo 1026523" clip-path="url(#clip-path-47)">
        <path id="Trazado_767078" data-name="Trazado 767078" d="M386.827,205.032c2.977-.016,4.389.837,5.46,3.687s3.914,9.381,3.969,11.323c.057,2.014-6.427,8.119-6.195,8.014.071-.033-1.976-3.7-1.976-3.7l3.647-4.47-2.091-6.069Z" transform="translate(-220.721 -116.99)" fill="#efc5c5"/>
        <path id="Trazado_767079" data-name="Trazado 767079" d="M384.794,354.85c.182.174.217.343.211.977s.263,1.344-.064,1.937a2.017,2.017,0,0,1-2.119.42,6.559,6.559,0,0,1-1.458-1.311,10.372,10.372,0,0,0-1.277-1.234c-.536-.4-1.159-.665-1.718-1.031a3.429,3.429,0,0,1-1.557-2.572,1.687,1.687,0,0,1,.2-.979,1.117,1.117,0,0,1,1.121-.367,15.463,15.463,0,0,1,3.131,1.571c.595.411,3.342,2.41,3.53,2.589" transform="translate(-215.005 -200.09)" fill="#263238"/>
        <path id="Trazado_767080" data-name="Trazado 767080" d="M384.289,353.6c-.019.456-1.941-.611-2.728-.507a.1.1,0,0,0-.022.01c-.73.352-.124,1.377.557,1.9s2.9,2.156,2.9,2.156l.455-2.634Z" transform="translate(-217.515 -201.468)" fill="#efc5c5"/>
        <path id="Trazado_767081" data-name="Trazado 767081" d="M353.692,371.557c.356,0,.514,1.165.58,2.066a6.3,6.3,0,0,1,.068,2.341c-.246.511-1.184.831-2.631.8a8.49,8.49,0,0,0-3.414,1.143,5.2,5.2,0,0,1-3.252.408,4.073,4.073,0,0,1-2.812-1.467c-.2-.536.07-.789,3.121-2.043a17.424,17.424,0,0,0,4.708-3Z" transform="translate(-195.246 -212.008)" fill="#263238"/>
        <path id="Trazado_767082" data-name="Trazado 767082" d="M348.067,375.1c-.423.173-.787.326-1.109.465-.082.289.028.745,1.376.97,2.055.343,8.094-4.2,8.094-4.2s-.866.238-1.028-.257l-2.625.02a17.424,17.424,0,0,1-4.708,3" transform="translate(-197.961 -212.307)" fill="#efc5c5"/>
        <path id="Trazado_767083" data-name="Trazado 767083" d="M376.185,280.923a26.183,26.183,0,0,0-.59-5.956s.358-7.667.4-12.488c.082-9.532-.1-10.931-2.209-15.044,0,0-12.31-1.441-12.829,4.559-.646,7.471-1.4,19.974-1.378,23.532.015,2.649.315,5.521.461,11.528.094,3.847.5,9.284-.052,13.837.7,1.166,2.58,1.146,3.653.237.309-4.458,2.521-12.993,2.865-15.972a25.219,25.219,0,0,0-.263-6.435s1.631-12.726,1.917-14.662a35.861,35.861,0,0,1,.714,6.216c-.009.845.292,3.68.776,8.447.295,2.9,2.349,14.248,2.794,17.895a1.54,1.54,0,0,0,2.422-.124c.345-4.45,1.319-12.792,1.319-15.569" transform="translate(-205.173 -141.098)" fill="#efc5c5"/>
        <g id="Grupo_1026513" data-name="Grupo 1026513" transform="translate(162.987 114.236)" opacity="0.15">
          <g id="Grupo_1026512" data-name="Grupo 1026512">
            <g id="Grupo_1026511" data-name="Grupo 1026511" clip-path="url(#clip-path-48)">
              <path id="Trazado_767084" data-name="Trazado 767084" d="M379.564,274.756l1.088-6.18a8.45,8.45,0,0,0,4.846-2.544,5.185,5.185,0,0,1-3.851,3.312l-1.273,5.592-.216,5.1Z" transform="translate(-379.564 -266.032)"/>
            </g>
          </g>
        </g>
        <path id="Trazado_767085" data-name="Trazado 767085" d="M372.371,199l.514,5.6,4.92-.3-.377-6.212Z" transform="translate(-212.473 -113.027)" fill="#efc5c5"/>
        <path id="Trazado_767086" data-name="Trazado 767086" d="M375.276,224.831a22.714,22.714,0,0,0-2.128-4.255c2.1-6.774,2.777-9.056,2.368-11.953-.26-1.843-1.708-3.684-3.5-3.589,0,0-.97,0-1.378,0-.081,1.284-3.648,1.347-5,.463l-1.246.033c-.882.312-3.88,4.7-4.21,7.619a6.422,6.422,0,0,0,1.587,4.422,22.468,22.468,0,0,1-.176,3s.009,5.733,0,8.582c0,0,.7,2.2,7.916,1.51,6.423-.611,6.58-2.806,6.58-2.806a13.589,13.589,0,0,0-.81-3.032" transform="translate(-205.501 -116.99)" fill="#4adbd1"/>
        <g id="Grupo_1026516" data-name="Grupo 1026516" transform="translate(154.651 88.042)" opacity="0.3">
          <g id="Grupo_1026515" data-name="Grupo 1026515">
            <g id="Grupo_1026514" data-name="Grupo 1026514" clip-path="url(#clip-path-49)">
              <path id="Trazado_767087" data-name="Trazado 767087" d="M375.276,224.831a22.714,22.714,0,0,0-2.128-4.255c2.1-6.774,2.777-9.056,2.368-11.953-.26-1.843-1.708-3.684-3.5-3.589,0,0-.97,0-1.378,0-.081,1.284-3.648,1.347-5,.463l-1.246.033c-.882.312-3.88,4.7-4.21,7.619a6.422,6.422,0,0,0,1.587,4.422,22.468,22.468,0,0,1-.176,3s.009,5.733,0,8.582c0,0,.7,2.2,7.916,1.51,6.423-.611,6.58-2.806,6.58-2.806a13.589,13.589,0,0,0-.81-3.032" transform="translate(-360.152 -205.032)" fill="#4adbd1"/>
            </g>
          </g>
        </g>
        <path id="Trazado_767088" data-name="Trazado 767088" d="M367.443,169.633a4.574,4.574,0,0,0-3.957,1.434,3.2,3.2,0,0,0,.243,4.922Z" transform="translate(-206.799 -96.77)" fill="#263238"/>
        <path id="Trazado_767089" data-name="Trazado 767089" d="M362.628,185.868s-1.094,1.644-.952,1.819a2.6,2.6,0,0,0,.833.362Z" transform="translate(-206.363 -106.055)" fill="#f2c9c9"/>
        <path id="Trazado_767090" data-name="Trazado 767090" d="M367.019,173.167c-1.061.544-2.893,1.551-3.375,5.45-.493,4,.394,5.4.939,5.924a5.165,5.165,0,0,0,3.262.183,10.318,10.318,0,0,0,5.2-3.767c1.489-2.428,1.8-5.668.1-6.943a6.4,6.4,0,0,0-6.122-.847" transform="translate(-207.411 -98.564)" fill="#efc5c5"/>
        <path id="Trazado_767091" data-name="Trazado 767091" d="M368.178,175.611c-2.218-1.129-1.653-4.074-1.653-4.074s3.17-4.529,9.016-1.6a6.67,6.67,0,0,1-3.158,12.355,3.7,3.7,0,0,1-3.7-3.7v-.245l.187.061a1.88,1.88,0,0,0,1.727-.462c.973-.838,1.09-2.482-.142-2.9s-1.876,1.012-1.876,1.012v0l-.477,1.309a.932.932,0,0,1-.557-1.194.915.915,0,0,1,.633-.563" transform="translate(-209.101 -96.403)" fill="#263238"/>
        <path id="Trazado_767092" data-name="Trazado 767092" d="M325.193,186.566l-10.555,5.287,4.963,14.3,9.857-5.308Z" transform="translate(-179.53 -106.453)" fill="#4adbd1"/>
        <path id="Trazado_767093" data-name="Trazado 767093" d="M326.28,189.789l-8.855,4.435,4.4,12.3,8.269-4.453Z" transform="translate(-181.12 -108.292)" fill="#f5f5f5"/>
        <g id="Grupo_1026519" data-name="Grupo 1026519" transform="translate(138.604 82.226)" opacity="0.15">
          <g id="Grupo_1026518" data-name="Grupo 1026518">
            <g id="Grupo_1026517" data-name="Grupo 1026517" clip-path="url(#clip-path-50)">
              <path id="Trazado_767094" data-name="Trazado 767094" d="M327.463,192.045l-.163-.438c-.09-.242-.823-.111-1.637.293l-1.559.772c-.815.4-1.4.927-1.312,1.168l.163.438Z" transform="translate(-322.782 -191.487)"/>
            </g>
          </g>
        </g>
        <path id="Trazado_767095" data-name="Trazado 767095" d="M326.161,188.5c-.055-.151-.374-.132-.711.043l-.611.317s-.357-.946-1.76-.319-1.1,1.721-1.1,1.721l-.648.344c-.358.19-.615.468-.575.621l.074.278,5.438-2.723s-.047-.13-.1-.281" transform="translate(-183.017 -107.458)" fill="#37474f"/>
        <path id="Trazado_767096" data-name="Trazado 767096" d="M327.036,189.9c-.505.238-.7.354-.567.727.158.426.306.732.306.732l-2.405,1.207s-.19-.541-.273-.75-.256-.311-.639-.119l-.139-.152,3.792-1.855Z" transform="translate(-184.484 -108.237)" fill="#263238"/>
        <path id="Trazado_767097" data-name="Trazado 767097" d="M327.7,192.1l-.163-.438c-.09-.242-.823-.111-1.637.293l-1.559.772c-.815.4-1.4.927-1.312,1.168l.163.438Z" transform="translate(-184.313 -109.294)" fill="#37474f"/>
        <path id="Trazado_767098" data-name="Trazado 767098" d="M353.376,206.193c-1.662-.027-2.667.12-4.936,3.486s-6.474,9.565-6.967,10.368a4.3,4.3,0,0,0-.282,3.878c.522.976,1.439,1.316,4.052-1.462,1.936-2.057,6-7.519,6-7.519s3.165-5.9,2.129-8.751" transform="translate(-194.488 -117.651)" fill="#efc5c5"/>
        <path id="Trazado_767099" data-name="Trazado 767099" d="M326.574,225.949c-1.37.423-6.4-5.559-7.793-7.359a20.725,20.725,0,0,0-3.925-3.982c-1.936-1.481-1.614-3.7-.725-5.726.308-.7,1.3-.225,1.3-.225l.338.973.585,1.686c.409.392.643.522.672.408.056-.215-.286-1.122-.262-2.062.029-1.13.808-.374,1.038.026a14.122,14.122,0,0,1,.8,1.881c.378,1.018.2,2.039.667,2.737s7.3,6.368,7.3,6.368Z" transform="translate(-178.841 -118.968)" fill="#efc5c5"/>
        <path id="Trazado_767100" data-name="Trazado 767100" d="M372.411,241.232s-4.816,2.844-11.558,0a99.534,99.534,0,0,0-1.223,10.686c-.24,4.559-.769,14.346-.769,14.346s1.992,2.321,9.093,1.85c6.825-.452,8.031-2.231,8.031-2.231s.015-8.791.052-12.634c.046-4.915-.643-7.6-3.625-12.017" transform="translate(-204.764 -137.646)" fill="#4adbd1"/>
        <g id="Grupo_1026522" data-name="Grupo 1026522" transform="translate(154.097 103.586)">
          <g id="Grupo_1026521" data-name="Grupo 1026521">
            <g id="Grupo_1026520" data-name="Grupo 1026520" clip-path="url(#clip-path-51)">
              <path id="Trazado_767101" data-name="Trazado 767101" d="M372.411,241.232s-4.816,2.844-11.558,0a99.534,99.534,0,0,0-1.223,10.686c-.24,4.559-.769,14.346-.769,14.346s1.992,2.321,9.093,1.85c6.825-.452,8.031-2.231,8.031-2.231s.015-8.791.052-12.634c.046-4.915-.643-7.6-3.625-12.017" transform="translate(-358.861 -241.232)" fill="#f4a338"/>
            </g>
          </g>
        </g>
        <path id="Trazado_767102" data-name="Trazado 767102" d="M394.347,179.049l1.126-1.031a.984.984,0,0,0-1.667.953c-.14-.012-.28-.021-.423-.021V188a4.7,4.7,0,0,0,4.7,4.7v-9.054a4.7,4.7,0,0,0-3.738-4.6" transform="translate(-224.462 -101.393)" fill="#263238"/>
      </g>
    </g>
  </g>
</svg>
