<svg id="Grupo_1031261" data-name="Grupo 1031261" xmlns="http://www.w3.org/2000/svg" xmlns:xlink="http://www.w3.org/1999/xlink" width="172.864" height="119.925" viewBox="0 0 172.864 119.925">
  <defs>
    <clipPath id="clip-path">
      <rect id="Rectángulo_365122" data-name="Rectángulo 365122" width="172.864" height="119.925" fill="none" stroke="#040404" stroke-width="1"/>
    </clipPath>
  </defs>
  <g id="Grupo_1031260" data-name="Grupo 1031260" transform="translate(0 0)" clip-path="url(#clip-path)">
    <path id="Trazado_777488" data-name="Trazado 777488" d="M88.865,85.029a1.4,1.4,0,0,1-.545,1.337A76.623,76.623,0,0,1,79.467,93.2a2.234,2.234,0,0,1-1.543.354l-4.083-7.1A5.159,5.159,0,0,0,67.529,84.5c-2.555.913-5.23,1.812-7.947,2.675-2.562.814-4.126,3.043-3.722,5.293l1.132,6.468a3.188,3.188,0,0,1-1.069.17H45.047a2.393,2.393,0,0,1-1.076-.17L45.1,92.48c.4-2.257-1.161-4.486-3.715-5.3-2.724-.863-5.4-1.762-7.954-2.675a5.155,5.155,0,0,0-6.305,1.939L23.1,93.471a1.769,1.769,0,0,1-1.592-.262,76.411,76.411,0,0,1-8.867-6.843,1.439,1.439,0,0,1-.559-1.316l6.539-5.513a5.174,5.174,0,0,0,.807-6.6c-1.38-2.371-2.739-4.847-4.041-7.36-1.245-2.392-3.743-3.538-5.923-2.724-2.505.92-4.77,1.755-6.772,2.5a2.7,2.7,0,0,1-.283-.962c-.347-3.2-.679-6.56-1.069-10.884a3.392,3.392,0,0,1,.12-1.288c1.819-.014,4-.021,6.454-.035,2.264,0,4.2-1.918,4.586-4.55.418-2.809.863-5.59,1.337-8.258a5.066,5.066,0,0,0-2.923-5.845c-2.6-.934-4.954-1.783-7.027-2.519a2.4,2.4,0,0,1,.085-1.571A93.927,93.927,0,0,1,8.625,19.3a1.484,1.484,0,0,1,.92-.807l6.532,5.449a5.1,5.1,0,0,0,6.6-.389c2.095-1.8,4.274-3.588,6.489-5.286A4.929,4.929,0,0,0,30.8,11.929L26.9,5.206a1.916,1.916,0,0,1,.885-.467c3.361-.87,6.963-1.677,10.714-2.385a3.224,3.224,0,0,1,1.465.042L41.1,8.772c.375,2.18,2.533,3.751,5.145,3.751h.078c2.76-.035,5.562-.035,8.322,0h.078c2.611,0,4.77-1.571,5.145-3.743L61,2.4a3.214,3.214,0,0,1,1.458-.042c3.751.708,7.36,1.507,10.742,2.392a1.794,1.794,0,0,1,.863.46l-3.9,6.716A4.933,4.933,0,0,0,71.8,18.262c2.208,1.7,4.387,3.475,6.489,5.286a5.1,5.1,0,0,0,6.6.4l6.482-5.428a1.339,1.339,0,0,1,.977.785,94.254,94.254,0,0,1,4.6,10.02l-.2-.007H74.209a31.617,31.617,0,1,0-.955,42.777h8.768c-.163.283-.326.573-.488.849a5.163,5.163,0,0,0,.807,6.588Z" transform="translate(8.083 13.931)" fill="#373f51" stroke="#040404" stroke-width="1"/>
    <path id="Trazado_777489" data-name="Trazado 777489" d="M88.865,85.029a1.4,1.4,0,0,1-.545,1.337A76.623,76.623,0,0,1,79.467,93.2a2.234,2.234,0,0,1-1.543.354l-4.083-7.1A5.159,5.159,0,0,0,67.529,84.5c-2.555.913-5.23,1.812-7.947,2.675-2.562.814-4.126,3.043-3.722,5.293l1.132,6.468a3.188,3.188,0,0,1-1.069.17H45.047a2.393,2.393,0,0,1-1.076-.17L45.1,92.48c.4-2.257-1.161-4.486-3.715-5.3-2.724-.863-5.4-1.762-7.954-2.675a5.155,5.155,0,0,0-6.305,1.939L23.1,93.471a1.769,1.769,0,0,1-1.592-.262,76.411,76.411,0,0,1-8.867-6.843,1.439,1.439,0,0,1-.559-1.316l6.539-5.513a5.174,5.174,0,0,0,.807-6.6c-1.38-2.371-2.739-4.847-4.041-7.36-1.245-2.392-3.743-3.538-5.923-2.724-2.505.92-4.77,1.755-6.772,2.5a2.7,2.7,0,0,1-.283-.962c-.347-3.2-.679-6.56-1.069-10.884a3.392,3.392,0,0,1,.12-1.288c1.819-.014,4-.021,6.454-.035,2.264,0,4.2-1.918,4.586-4.55.418-2.809.863-5.59,1.337-8.258a5.066,5.066,0,0,0-2.923-5.845c-2.6-.934-4.954-1.783-7.027-2.519a2.4,2.4,0,0,1,.085-1.571A93.927,93.927,0,0,1,8.625,19.3a1.484,1.484,0,0,1,.92-.807l6.532,5.449a5.1,5.1,0,0,0,6.6-.389c2.095-1.8,4.274-3.588,6.489-5.286A4.929,4.929,0,0,0,30.8,11.929L26.9,5.206a1.916,1.916,0,0,1,.885-.467c3.361-.87,6.963-1.677,10.714-2.385a3.224,3.224,0,0,1,1.465.042L41.1,8.772c.375,2.18,2.533,3.751,5.145,3.751h.078c2.76-.035,5.562-.035,8.322,0h.078c2.611,0,4.77-1.571,5.145-3.743L61,2.4a3.214,3.214,0,0,1,1.458-.042c3.751.708,7.36,1.507,10.742,2.392a1.794,1.794,0,0,1,.863.46l-3.9,6.716A4.933,4.933,0,0,0,71.8,18.262c2.208,1.7,4.387,3.475,6.489,5.286a5.1,5.1,0,0,0,6.6.4l6.482-5.428a1.339,1.339,0,0,1,.977.785,94.254,94.254,0,0,1,4.6,10.02l-.2-.007H74.209a31.617,31.617,0,1,0-.955,42.777h8.768c-.163.283-.326.573-.488.849a5.163,5.163,0,0,0,.807,6.588Z" transform="translate(8.083 13.931)" fill="none" stroke="#040404" stroke-miterlimit="10" stroke-width="0.25"/>
    <path id="Trazado_777490" data-name="Trazado 777490" d="M14.3,19.384V47a7.589,7.589,0,0,0,7.586,7.579H48.5A27.5,27.5,0,1,1,49.771,11.8H21.883A7.6,7.6,0,0,0,14.3,19.384" transform="translate(26.676 31.442)" fill="#5573c6" stroke="#040404" stroke-width="1"/>
    <path id="Trazado_777491" data-name="Trazado 777491" d="M14.3,19.384V47a7.589,7.589,0,0,0,7.586,7.579H48.5A27.5,27.5,0,1,1,49.771,11.8H21.883A7.6,7.6,0,0,0,14.3,19.384Z" transform="translate(26.676 31.442)" fill="none" stroke="#040404" stroke-miterlimit="10" stroke-width="0.25"/>
    <path id="Trazado_777492" data-name="Trazado 777492" d="M68.624,7.783a3.468,3.468,0,0,0-2.512-1.09H9.832a3.466,3.466,0,0,0-3.46,3.46V37.766a3.472,3.472,0,0,0,3.46,3.467H66.112a3.518,3.518,0,0,0,3.46-3.467V10.153a3.482,3.482,0,0,0-.948-2.371M22.811,21.9a2.059,2.059,0,1,1,0,4.119H19.839v4.168h6.227a2.059,2.059,0,1,1,0,4.119H17.779a2.063,2.063,0,0,1-2.066-2.059V15.68a2.063,2.063,0,0,1,2.066-2.059h8.287a2.059,2.059,0,1,1,0,4.119H19.839V21.9Zm21.732,9.56a2.061,2.061,0,1,1-3.814,1.564l-2.873-7.006H36.4v6.227a2.059,2.059,0,1,1-4.119,0V15.68a2.061,2.061,0,0,1,2.059-2.059H38.5a6.2,6.2,0,0,1,3.39,11.386ZM60.67,22.452a6.244,6.244,0,0,1-1.21,1.741,6.159,6.159,0,0,1-4.387,1.826H52.978v6.227a2.059,2.059,0,0,1-4.119,0V15.68a2.049,2.049,0,0,1,1.125-1.826,1.986,1.986,0,0,1,.934-.234h4.154a6.2,6.2,0,0,1,6.192,6.185,6.227,6.227,0,0,1-.594,2.647" transform="translate(38.719 40.672)" fill="#f4a338" stroke="#040404" stroke-width="1"/>
    <path id="Trazado_777493" data-name="Trazado 777493" d="M68.624,7.783a3.468,3.468,0,0,0-2.512-1.09H9.832a3.466,3.466,0,0,0-3.46,3.46V37.766a3.472,3.472,0,0,0,3.46,3.467H66.112a3.518,3.518,0,0,0,3.46-3.467V10.153A3.482,3.482,0,0,0,68.624,7.783ZM22.811,21.9a2.059,2.059,0,1,1,0,4.119H19.839v4.168h6.227a2.059,2.059,0,1,1,0,4.119H17.779a2.063,2.063,0,0,1-2.066-2.059V15.68a2.063,2.063,0,0,1,2.066-2.059h8.287a2.059,2.059,0,1,1,0,4.119H19.839V21.9Zm21.732,9.56a2.061,2.061,0,1,1-3.814,1.564l-2.873-7.006H36.4v6.227a2.059,2.059,0,1,1-4.119,0V15.68a2.061,2.061,0,0,1,2.059-2.059H38.5a6.2,6.2,0,0,1,3.39,11.386ZM60.67,22.452a6.244,6.244,0,0,1-1.21,1.741,6.159,6.159,0,0,1-4.387,1.826H52.978v6.227a2.059,2.059,0,0,1-4.119,0V15.68a2.049,2.049,0,0,1,1.125-1.826,1.986,1.986,0,0,1,.934-.234h4.154a6.2,6.2,0,0,1,6.192,6.185A6.227,6.227,0,0,1,60.67,22.452Z" transform="translate(38.719 40.672)" fill="none" stroke="#040404" stroke-miterlimit="10" stroke-width="0.25"/>
    <path id="Trazado_777494" data-name="Trazado 777494" d="M12.712,8.254H10.617v4.161h2.095a2.08,2.08,0,0,0,0-4.161" transform="translate(64.514 50.157)" fill="#f4a338" stroke="#040404" stroke-width="1"/>
    <path id="Trazado_777495" data-name="Trazado 777495" d="M12.712,8.254H10.617v4.161h2.095a2.08,2.08,0,0,0,0-4.161Z" transform="translate(64.514 50.157)" fill="none" stroke="#040404" stroke-miterlimit="10" stroke-width="0.25"/>
    <path id="Trazado_777496" data-name="Trazado 777496" d="M15.053,8.254H12.958v4.161h2.095a2.08,2.08,0,0,0,0-4.161" transform="translate(78.739 50.157)" fill="#f4a338" stroke="#040404" stroke-width="1"/>
    <path id="Trazado_777497" data-name="Trazado 777497" d="M15.053,8.254H12.958v4.161h2.095a2.08,2.08,0,0,0,0-4.161Z" transform="translate(78.739 50.157)" fill="none" stroke="#040404" stroke-miterlimit="10" stroke-width="0.25"/>
    <path id="Trazado_777498" data-name="Trazado 777498" d="M15.5.4A3.352,3.352,0,0,0,13.911,0a3.386,3.386,0,0,0-3.248,4.387A3.393,3.393,0,1,0,15.5.4" transform="translate(63.867 0.002)" stroke="#040404" stroke-width="1"/>
    <path id="Trazado_777499" data-name="Trazado 777499" d="M6.567,6.105A3.363,3.363,0,0,0,3.814,3.883a2.878,2.878,0,0,0-.432-.042A3.381,3.381,0,0,0,0,7.216a3.087,3.087,0,0,0,.035.368,3.339,3.339,0,0,0,.849,1.9A3.361,3.361,0,0,0,6.574,8.306a3.27,3.27,0,0,0,.2-1.09,4.107,4.107,0,0,0-.042-.425,3.6,3.6,0,0,0-.163-.686" transform="translate(0 23.342)" stroke="#040404" stroke-width="1"/>
    <path id="Trazado_777500" data-name="Trazado 777500" d="M7.382,16.253a3.475,3.475,0,0,0-1.3-.262,3.515,3.515,0,0,0-2.824,1.514,3.008,3.008,0,0,0-.205.4A3.227,3.227,0,0,0,2.7,19.374a4.224,4.224,0,0,0,.057.6A3.39,3.39,0,0,0,6.08,22.756a2.784,2.784,0,0,0,.425-.042A3.364,3.364,0,0,0,9.42,19.805a2.88,2.88,0,0,0,.057-.432,3.4,3.4,0,0,0-2.095-3.121" transform="translate(16.388 97.171)" stroke="#040404" stroke-width="1"/>
    <path id="Trazado_777501" data-name="Trazado 777501" d="M16.606,12.7a7.879,7.879,0,0,1-2.916,3.149L25.14,28.2a1.97,1.97,0,0,0,1.458.651H38.1V24.4H27.447Z" transform="translate(83.187 77.167)" stroke="#040404" stroke-width="1"/>
    <path id="Trazado_777502" data-name="Trazado 777502" d="M17.722.408V26.846h46.57V.408Zm9.546,18.1a2.5,2.5,0,0,1-.4-.035,2.1,2.1,0,0,1-1.33-.962l-3.552-5.838a2.336,2.336,0,0,1,.587-3.085,1.965,1.965,0,0,1,2.852.637l2.392,3.927,8.216-6.185a1.968,1.968,0,0,1,2.873.552,2.341,2.341,0,0,1-.517,3.1l-9.95,7.494a1.958,1.958,0,0,1-1.175.4m30.811,5.357H33.941a2.232,2.232,0,0,1,0-4.451H58.079a2.232,2.232,0,0,1,0,4.451m0-7.82H42.214a2.152,2.152,0,0,1-2.059-2.229A2.146,2.146,0,0,1,42.214,11.6H58.079a2.141,2.141,0,0,1,2.059,2.222,2.148,2.148,0,0,1-2.059,2.229m0-7.82H46.353A2.148,2.148,0,0,1,44.294,6a2.146,2.146,0,0,1,2.059-2.222H58.079A2.146,2.146,0,0,1,60.138,6a2.148,2.148,0,0,1-2.059,2.229" transform="translate(107.687 2.481)" fill="#4adbd1" stroke="#040404" stroke-width="1"/>
    <path id="Trazado_777503" data-name="Trazado 777503" d="M17.722.408V26.846h46.57V.408Zm9.546,18.1a2.5,2.5,0,0,1-.4-.035,2.1,2.1,0,0,1-1.33-.962l-3.552-5.838a2.336,2.336,0,0,1,.587-3.085,1.965,1.965,0,0,1,2.852.637l2.392,3.927,8.216-6.185a1.968,1.968,0,0,1,2.873.552,2.341,2.341,0,0,1-.517,3.1l-9.95,7.494A1.958,1.958,0,0,1,27.268,18.51Zm30.811,5.357H33.941a2.232,2.232,0,0,1,0-4.451H58.079a2.232,2.232,0,0,1,0,4.451Zm0-7.82H42.214a2.152,2.152,0,0,1-2.059-2.229A2.146,2.146,0,0,1,42.214,11.6H58.079a2.141,2.141,0,0,1,2.059,2.222A2.148,2.148,0,0,1,58.079,16.047Zm0-7.82H46.353A2.148,2.148,0,0,1,44.294,6a2.146,2.146,0,0,1,2.059-2.222H58.079A2.146,2.146,0,0,1,60.138,6,2.148,2.148,0,0,1,58.079,8.228Z" transform="translate(107.687 2.481)" fill="none" stroke="#040404" stroke-miterlimit="10" stroke-width="0.25"/>
    <path id="Trazado_777504" data-name="Trazado 777504" d="M17.722,28.678h46.57V6.09H17.722ZM46.353,9.458H58.079a2.146,2.146,0,0,1,2.059,2.222,2.148,2.148,0,0,1-2.059,2.229H46.353a2.152,2.152,0,0,1-2.059-2.229,2.15,2.15,0,0,1,2.059-2.222m-4.133,7.82H58.079a2.232,2.232,0,0,1,0,4.451H42.221a2.232,2.232,0,0,1,0-4.451M22.576,14.27a1.965,1.965,0,0,1,2.852.637l2.392,3.927,8.216-6.185a1.974,1.974,0,0,1,2.873.552,2.341,2.341,0,0,1-.517,3.1L28.443,23.8a1.958,1.958,0,0,1-1.175.4,2.5,2.5,0,0,1-.4-.035,2.072,2.072,0,0,1-1.33-.962l-3.552-5.838a2.337,2.337,0,0,1,.587-3.085" transform="translate(107.687 37.008)" fill="#5573c6" stroke="#040404" stroke-width="1"/>
    <path id="Trazado_777505" data-name="Trazado 777505" d="M17.722,28.678h46.57V6.09H17.722ZM46.353,9.458H58.079a2.146,2.146,0,0,1,2.059,2.222,2.148,2.148,0,0,1-2.059,2.229H46.353a2.152,2.152,0,0,1-2.059-2.229A2.15,2.15,0,0,1,46.353,9.458Zm-4.133,7.82H58.079a2.232,2.232,0,0,1,0,4.451H42.221a2.232,2.232,0,0,1,0-4.451ZM22.576,14.27a1.965,1.965,0,0,1,2.852.637l2.392,3.927,8.216-6.185a1.974,1.974,0,0,1,2.873.552,2.341,2.341,0,0,1-.517,3.1L28.443,23.8a1.958,1.958,0,0,1-1.175.4,2.5,2.5,0,0,1-.4-.035,2.072,2.072,0,0,1-1.33-.962l-3.552-5.838A2.337,2.337,0,0,1,22.576,14.27Z" transform="translate(107.687 37.008)" fill="none" stroke="#040404" stroke-miterlimit="10" stroke-width="0.25"/>
    <path id="Trazado_777506" data-name="Trazado 777506" d="M22.709,2.571,12.993,13.058a7.879,7.879,0,0,1,2.916,3.149l9.107-9.836H42.332V1.92H24.167a1.982,1.982,0,0,0-1.458.651" transform="translate(78.952 11.669)" stroke="#040404" stroke-width="1"/>
    <path id="Trazado_777507" data-name="Trazado 777507" d="M17.722,25.189V38.21H64.3V11.772H17.722ZM58.079,35.231H33.941a2.232,2.232,0,0,1,0-4.451H58.079a2.232,2.232,0,0,1,0,4.451M46.353,15.14H58.079a2.232,2.232,0,0,1,0,4.451H46.353a2.232,2.232,0,0,1,0-4.451m-4.133,7.82H58.079a2.232,2.232,0,0,1,0,4.451H42.221a2.232,2.232,0,0,1,0-4.451M22.576,19.952a1.971,1.971,0,0,1,2.852.637l2.392,3.927,8.216-6.185a1.974,1.974,0,0,1,2.873.552,2.341,2.341,0,0,1-.517,3.1l-9.95,7.494a1.958,1.958,0,0,1-1.175.4,1.876,1.876,0,0,1-.4-.035,2.072,2.072,0,0,1-1.33-.962l-3.552-5.838a2.337,2.337,0,0,1,.587-3.085" transform="translate(107.687 71.534)" fill="#4adbd1" stroke="#040404" stroke-width="1"/>
    <path id="Trazado_777508" data-name="Trazado 777508" d="M17.722,25.189V38.21H64.3V11.772H17.722ZM58.079,35.231H33.941a2.232,2.232,0,0,1,0-4.451H58.079a2.232,2.232,0,0,1,0,4.451ZM46.353,15.14H58.079a2.232,2.232,0,0,1,0,4.451H46.353a2.232,2.232,0,0,1,0-4.451Zm-4.133,7.82H58.079a2.232,2.232,0,0,1,0,4.451H42.221a2.232,2.232,0,0,1,0-4.451ZM22.576,19.952a1.971,1.971,0,0,1,2.852.637l2.392,3.927,8.216-6.185a1.974,1.974,0,0,1,2.873.552,2.341,2.341,0,0,1-.517,3.1l-9.95,7.494a1.958,1.958,0,0,1-1.175.4,1.876,1.876,0,0,1-.4-.035,2.072,2.072,0,0,1-1.33-.962l-3.552-5.838A2.337,2.337,0,0,1,22.576,19.952Z" transform="translate(107.687 71.534)" fill="none" stroke="#040404" stroke-miterlimit="10" stroke-width="0.25"/>
  </g>
</svg>
