<svg id="Grupo_1031274" data-name="Grupo 1031274" xmlns="http://www.w3.org/2000/svg" xmlns:xlink="http://www.w3.org/1999/xlink" width="213.407" height="179.304" viewBox="0 0 213.407 179.304">
  <defs>
    <clipPath id="clip-path">
      <rect id="Rectángulo_365128" data-name="Rectángulo 365128" width="213.407" height="179.303" fill="none" stroke="#000" stroke-width="1"/>
    </clipPath>
    <clipPath id="clip-path-2">
      <rect id="Rectángulo_365129" data-name="Rectángulo 365129" width="130.304" height="179.303" fill="none" stroke="#000" stroke-width="1"/>
    </clipPath>
  </defs>
  <g id="Grupo_1031269" data-name="Grupo 1031269">
    <g id="Grupo_1031268" data-name="Grupo 1031268" clip-path="url(#clip-path)">
      <path id="Trazado_777560" data-name="Trazado 777560" d="M100.031,7.742c-3.153,18.918,6.306,46.243,6.306,46.243s3.67,2.857,7.357-2.1c2.315,3.466,6.111-16.4,10.51-17.867,5.662,1.71,22.782,3.153,22.782,3.153L160,30.425s7.628,11.627,11.662,19.17,7.188,5.442,11.391-1.915-2.1-24.172-2.1-24.172S165.192,8.793,152.58,4.59s-27.292,4.742-27.292,4.742S100.845-4.508,100.031,7.742" transform="translate(5.066 0.137)" fill="#f4a338" stroke="#000" stroke-width="1"/>
      <path id="Trazado_777561" data-name="Trazado 777561" d="M183.9,135.077H103s6.387-27.213,17.031-28.4,41.514-9.466,53.224,1.183S183.9,135.077,183.9,135.077" transform="translate(5.25 5.225)" fill="#4adbd1" stroke="#000" stroke-width="1"/>
    </g>
  </g>
  <g id="Grupo_1031271" data-name="Grupo 1031271" transform="translate(83.103)">
    <g id="Grupo_1031270" data-name="Grupo 1031270" clip-path="url(#clip-path-2)">
      <path id="Trazado_777562" data-name="Trazado 777562" d="M187.931,41.645a30.676,30.676,0,0,0,.631-9.492,14.547,14.547,0,0,0-1.718-5.806,11.926,11.926,0,0,0-7.788-5.8,2.713,2.713,0,0,1-1.971-1.55A33.13,33.13,0,0,0,161.506,3.628,32.1,32.1,0,0,0,148.31.695,36.757,36.757,0,0,0,135.149,3a40.952,40.952,0,0,1-8.234,2.182,31.692,31.692,0,0,1-9.45-.183,33.9,33.9,0,0,1-7.613-2.466C108,1.759,106.42.386,104.4,0h-.963a2.709,2.709,0,0,1-.39.168,5.332,5.332,0,0,0-4.146,4.267,13.228,13.228,0,0,0-.274,1.759c-.259,2.915-.6,5.828-.721,8.751-.133,3.155-.1,6.315-.055,9.471a2.929,2.929,0,0,0,.168.845,2.557,2.557,0,0,0,3.345,1.561,2.856,2.856,0,0,0,1.683-2.968c-.042-1.893-.14-3.789-.053-5.676.148-3.275.4-6.545.639-9.815.067-.94.218-1.869.337-2.859.259.13.452.22.644.33.713.383,1.417.784,2.136,1.15a35.763,35.763,0,0,0,14.733,3.98A35.17,35.17,0,0,0,134.51,8.916a54.2,54.2,0,0,1,6.738-2.051,34.892,34.892,0,0,1,9.09-.566,24.645,24.645,0,0,1,9.549,2.543A28.2,28.2,0,0,1,172.372,21.22c.437.826.832,1.676,1.225,2.529a2.684,2.684,0,0,0,2.324,1.744,13.164,13.164,0,0,1,1.682.251,6.763,6.763,0,0,1,5.58,5.574,17.275,17.275,0,0,1,.263,5.011,40.864,40.864,0,0,1-1.529,7.916,66.81,66.81,0,0,1-3.6,9.506.546.546,0,0,1-.631.38q-1.963-.11-3.927-.129c-.36,0-.439-.1-.432-.457a27.6,27.6,0,0,0-.484-6.007,22.99,22.99,0,0,0-5.214-10.759,33.125,33.125,0,0,0-2.46-2.474,6.563,6.563,0,0,0-7.974-.738,25.582,25.582,0,0,1-11.884,3.917,26.01,26.01,0,0,1-10.93-1.464,53.5,53.5,0,0,1-5.586-2.695,6.18,6.18,0,0,0-6.912.544,20.18,20.18,0,0,0-5.65,6.592,24.31,24.31,0,0,0-3.1,11.672v1.741c-.1.048-.122.071-.149.071-1.09.024-2.185.058-3.278.058a.506.506,0,0,1-.338-.262c-.269-.522-.525-1.056-.763-1.594a60.253,60.253,0,0,1-4.2-14.281c-.2-1.123-.333-2.262-.581-3.374a2.569,2.569,0,0,0-3.04-2.069,2.634,2.634,0,0,0-2,3.028c.028.257.061.514.1.769a69.043,69.043,0,0,0,2.943,12.772c.782,2.227,1.733,4.389,2.607,6.58.086.22.221.383-.057.621a9.754,9.754,0,0,0,5.118,17.262c1.064.054,2.129.064,3.191.054.376,0,.469.125.463.492-.006.52.039,1.038.075,1.555a30.627,30.627,0,0,0,11.226,21.9c.114.09.21.2.33.308-.154.182-.3.33-.42.5a18.074,18.074,0,0,0-3.5,7.633,1.6,1.6,0,0,1-1.044,1.327,27.861,27.861,0,0,0-7.24,4.643,32.707,32.707,0,0,0-10.636,19.571c-.169,1.111-.3,2.227-.437,3.308l-.056.007a5.385,5.385,0,0,1,.253,1.507,3.837,3.837,0,0,1-.165,4.042c.747-.065,1.5-.1,2.246-.091q19.813-.013,39.622-.013,19.767.021,39.534-.009.746-.017,1.486.033a22.23,22.23,0,0,1,.971-4.828c-.013-.184-.014-.368-.008-.55l-.056-.007c-.387-.035-.453-.2-.465-.536a27.591,27.591,0,0,0-1.405-7.558,37.63,37.63,0,0,0-1.632-4.178,2.259,2.259,0,0,0-2.275-1.335,2.561,2.561,0,0,0-2.329,1.719,2.88,2.88,0,0,0,.176,2.341,25.6,25.6,0,0,1,1.75,5.4c.246,1.305.42,2.631.637,4.027h-.525c-.583-.006-1.168-.018-1.75-.018H108.268q-.59,0-1.18.014c-.21,0-.333-.033-.293-.308.17-1.174.246-2.37.5-3.518a26.211,26.211,0,0,1,12.643-17.728c.139-.071.28-.137.42-.193.045.336.086.6.119.88a23.96,23.96,0,0,0,6.212,13.67,23.547,23.547,0,0,0,6.813,5.12,3.621,3.621,0,0,0,4.819-2.049,3.972,3.972,0,0,0,.285-1.293,17.353,17.353,0,0,1,.176-2.049,8.327,8.327,0,0,1,2.3-4.87,2.96,2.96,0,0,1,4.309,0,7.693,7.693,0,0,1,1.787,2.838,12.037,12.037,0,0,1,.672,4.081,3.779,3.779,0,0,0,3.938,3.638,3.608,3.608,0,0,0,1.544-.465,24.855,24.855,0,0,0,5.914-4.427,24.43,24.43,0,0,0,6.489-12.612c.154-.816.26-1.642.393-2.49a1.566,1.566,0,0,1,.191.075,26.556,26.556,0,0,1,5.058,3.738,4.674,4.674,0,0,0,.986.746,2.514,2.514,0,0,0,3.43-1.235,2.773,2.773,0,0,0,.259-1.08,3.157,3.157,0,0,0-1.225-2.46,28.9,28.9,0,0,0-8.538-5.706.908.908,0,0,1-.58-.763,18.122,18.122,0,0,0-2.476-6.4c-.466-.714-.96-1.408-1.455-2.131.083-.08.165-.168.252-.241a30.687,30.687,0,0,0,10.132-15.491,29.61,29.61,0,0,0,1.156-8.026c0-.409.167-.466.5-.457.86.021,1.721.035,2.58.008a8.972,8.972,0,0,0,5.856-2.2c.174-.144.343-.293.506-.451a9.842,9.842,0,0,0,.561-13.464,1.28,1.28,0,0,1-.2-1.637,68.914,68.914,0,0,0,4.811-14.126m-54.267,84.9a19.247,19.247,0,0,1-6.233-7.147,19.052,19.052,0,0,1-1.445-12.53,20.643,20.643,0,0,0,4.176,7.407A18.927,18.927,0,0,0,136.93,119a13.952,13.952,0,0,0-3.273,7.542m3.423-13.44a13.514,13.514,0,0,1-6.66-11.906,32.35,32.35,0,0,0,25.608.032,13.369,13.369,0,0,1-4.764,10.605,12.735,12.735,0,0,1-14.188,1.27m22.147,5.867a17.362,17.362,0,0,1-6.352,7.471,14.248,14.248,0,0,0-3.334-7.427,19.182,19.182,0,0,0,11-11.985,19,19,0,0,1-1.313,11.941m21.212-54.385a4.066,4.066,0,0,1-3.955,3.458c-1.868.034-3.734-.007-5.6-.016a2.567,2.567,0,0,0-2.232,1.121,2.95,2.95,0,0,0-.539,1.752c0,1.328.025,2.657-.019,3.984a23.857,23.857,0,0,1-1.133,6.311A24.364,24.364,0,0,1,162.942,89a23.319,23.319,0,0,1-13.913,8.819,31.527,31.527,0,0,1-7.754.374,22.251,22.251,0,0,1-11.113-3.232A24.208,24.208,0,0,1,120.52,83.87a26.143,26.143,0,0,1-2.177-11.24c.013-.66.018-1.314-.021-1.968a2.638,2.638,0,0,0-2.508-2.611c-1.779-.052-3.559-.027-5.338-.012a4.277,4.277,0,0,1-2.868-.9,4.485,4.485,0,0,1-1.491-4.487,4.063,4.063,0,0,1,3.512-3.116c1.892-.1,3.784-.059,5.683-.068a3.06,3.06,0,0,0,1.917-.489,2.451,2.451,0,0,0,1.085-1.936c.036-1.068.008-2.137.008-3.2a22.6,22.6,0,0,1,.782-6.877,17.919,17.919,0,0,1,5.14-8.189c1.075-.965,1.539-1.07,2.788-.329a32.909,32.909,0,0,0,7.788,3.419,29.991,29.991,0,0,0,10.43,1.108,31.711,31.711,0,0,0,14.212-4.518,1.852,1.852,0,0,1,2.694.218c.022.026.042.053.062.079A17.439,17.439,0,0,1,168,50.2c.179,1.783.086,3.6.117,5.394,0,.321-.008.641,0,.962v.227a2.7,2.7,0,0,0,2.759,2.662c1.547.025,3.094-.024,4.638.025a7.576,7.576,0,0,1,2.23.33,4.142,4.142,0,0,1,2.7,4.778" transform="translate(-78.117)" fill="#12263f" stroke="#000" stroke-width="1"/>
      <path id="Trazado_777563" data-name="Trazado 777563" d="M117.927,52a22.633,22.633,0,0,1,.783-6.877,17.92,17.92,0,0,1,5.14-8.189c1.076-.968,1.539-1.07,2.788-.33a32.862,32.862,0,0,0,7.787,3.42,29.943,29.943,0,0,0,10.43,1.107,31.7,31.7,0,0,0,14.2-4.521,1.855,1.855,0,0,1,2.7.222l.059.074a17.451,17.451,0,0,1,5.78,11.443c.174,1.782.086,3.6.116,5.394.005.319,0,.641,0,.961a2.73,2.73,0,0,0,2.541,2.89h.218c1.545.029,3.092-.024,4.639.025a7.53,7.53,0,0,1,2.229.33,4.142,4.142,0,0,1,2.7,4.777,4.066,4.066,0,0,1-3.955,3.459c-1.867.033-3.733-.008-5.6-.017a2.566,2.566,0,0,0-2.231,1.121,2.924,2.924,0,0,0-.539,1.753c0,1.327.025,2.655-.02,3.983a23.932,23.932,0,0,1-1.129,6.316,24.338,24.338,0,0,1-4.015,7.807,23.322,23.322,0,0,1-13.917,8.817,31.539,31.539,0,0,1-7.755.375,22.277,22.277,0,0,1-11.114-3.233,24.214,24.214,0,0,1-9.645-11.086,26.148,26.148,0,0,1-2.168-11.234c.013-.66.018-1.314-.021-1.968a2.638,2.638,0,0,0-2.508-2.611c-1.777-.054-3.556-.028-5.338-.012a4.277,4.277,0,0,1-2.864-.9,4.481,4.481,0,0,1-1.492-4.486,4.068,4.068,0,0,1,3.508-3.107c1.892-.1,3.784-.059,5.682-.068a3.046,3.046,0,0,0,1.917-.489,2.453,2.453,0,0,0,1.087-1.937c.036-1.067.008-2.136.008-3.2m24.219,28.588a14.814,14.814,0,0,0,10.987-4.637,12.621,12.621,0,0,0,2.759-4.457,2.724,2.724,0,0,0-1.753-3.357,2.472,2.472,0,0,0-1.2-.064,3.022,3.022,0,0,0-2.057,1.869,8.781,8.781,0,0,1-10.7,4.721,8.671,8.671,0,0,1-5.2-4.4,10.555,10.555,0,0,0-.764-1.276,2.464,2.464,0,0,0-3.574-.358,2.758,2.758,0,0,0-.326.338,2.85,2.85,0,0,0-.188,3.288,14.186,14.186,0,0,0,12.021,8.314M129.43,48.149a10.257,10.257,0,0,0-1.63.412,8.4,8.4,0,0,0-3.95,3.662,2.6,2.6,0,0,0-.33,1.116,2.721,2.721,0,0,0,1.622,2.672,2.434,2.434,0,0,0,2.826-.7c.421-.479.842-.967,1.262-1.453a.445.445,0,0,1,.634-.144.472.472,0,0,1,.143.152c.38.44.747.894,1.121,1.34a2.471,2.471,0,0,0,3.563.44,2.669,2.669,0,0,0,.58-3.611l-.027-.041a11.133,11.133,0,0,0-2.233-2.535,5.458,5.458,0,0,0-3.574-1.3m26.619.009a8.066,8.066,0,0,0-.937.14,7.708,7.708,0,0,0-4.868,4.079,2.727,2.727,0,0,0,1.225,3.556,2.474,2.474,0,0,0,2.955-.6c.4-.439.757-.93,1.156-1.365.437-.468.548-.457.991.014.376.4.719.839,1.084,1.255a2.468,2.468,0,0,0,3.585.332,2.75,2.75,0,0,0,.488-3.508,15.084,15.084,0,0,0-2.225-2.551,5.082,5.082,0,0,0-3.459-1.357" transform="translate(-77.719 1.841)" fill="#f0d1d1" stroke="#000" stroke-width="1"/>
      <path id="Trazado_777564" data-name="Trazado 777564" d="M128.84,96.286a32.346,32.346,0,0,0,25.608.032,13.376,13.376,0,0,1-4.764,10.606,12.735,12.735,0,0,1-14.188,1.269,13.511,13.511,0,0,1-6.66-11.905" transform="translate(-76.535 4.908)" fill="#e8e8e8" stroke="#000" stroke-width="1"/>
      <path id="Trazado_777565" data-name="Trazado 777565" d="M132.316,121.356a19.247,19.247,0,0,1-6.233-7.147,19.052,19.052,0,0,1-1.445-12.525,20.634,20.634,0,0,0,4.176,7.407,18.927,18.927,0,0,0,6.776,4.727,13.955,13.955,0,0,0-3.273,7.542" transform="translate(-76.773 5.183)" fill="#5573c6" stroke="#000" stroke-width="1"/>
      <path id="Trazado_777566" data-name="Trazado 777566" d="M150.364,121.245a14.26,14.26,0,0,0-3.335-7.43,19.186,19.186,0,0,0,11-11.984,18.993,18.993,0,0,1-1.313,11.939,17.371,17.371,0,0,1-6.353,7.477" transform="translate(-75.608 5.191)" fill="#5573c6" stroke="#000" stroke-width="1"/>
      <path id="Trazado_777567" data-name="Trazado 777567" d="M140.98,79.04a14.183,14.183,0,0,1-12.019-8.314,2.848,2.848,0,0,1,.188-3.288,2.46,2.46,0,0,1,3.573-.319,2.53,2.53,0,0,1,.322.341,10.462,10.462,0,0,1,.764,1.275,8.673,8.673,0,0,0,5.2,4.4,8.78,8.78,0,0,0,10.7-4.725,3.022,3.022,0,0,1,2.051-1.874,2.6,2.6,0,0,1,3.015,2.166,2.838,2.838,0,0,1-.061,1.254,12.616,12.616,0,0,1-2.757,4.457,14.818,14.818,0,0,1-10.986,4.628" transform="translate(-76.551 3.389)" fill="#12263f" stroke="#000" stroke-width="1"/>
      <path id="Trazado_777568" data-name="Trazado 777568" d="M128.568,47.58a5.468,5.468,0,0,1,3.572,1.3,11.123,11.123,0,0,1,2.238,2.544,2.667,2.667,0,0,1-.513,3.621h0l-.039.03a2.471,2.471,0,0,1-3.561-.44c-.375-.446-.743-.9-1.122-1.34a.447.447,0,0,0-.631-.16.486.486,0,0,0-.147.149c-.419.488-.841.974-1.261,1.455a2.437,2.437,0,0,1-2.826.7,2.721,2.721,0,0,1-1.621-2.673,2.588,2.588,0,0,1,.33-1.116,8.385,8.385,0,0,1,3.951-3.656,10.273,10.273,0,0,1,1.629-.412" transform="translate(-76.851 2.425)" fill="#12263f" stroke="#000" stroke-width="1"/>
      <path id="Trazado_777569" data-name="Trazado 777569" d="M153.9,47.589a5.075,5.075,0,0,1,3.457,1.357,15.09,15.09,0,0,1,2.226,2.551,2.738,2.738,0,0,1-.739,3.685,2.466,2.466,0,0,1-3.332-.509c-.365-.417-.706-.852-1.082-1.255-.446-.476-.555-.481-.992-.014-.406.44-.761.925-1.155,1.366a2.478,2.478,0,0,1-3.612.133,2.764,2.764,0,0,1-.571-3.093,7.713,7.713,0,0,1,4.869-4.079,8.067,8.067,0,0,1,.937-.14" transform="translate(-75.566 2.426)" fill="#12263f" stroke="#000" stroke-width="1"/>
    </g>
  </g>
  <g id="Grupo_1031273" data-name="Grupo 1031273">
    <g id="Grupo_1031272" data-name="Grupo 1031272" clip-path="url(#clip-path)">
      <rect id="Rectángulo_365130" data-name="Rectángulo 365130" width="202.838" height="11.561" transform="translate(0 138.2)" fill="#f4a338" stroke="#000" stroke-width="1"/>
      <path id="Trazado_777570" data-name="Trazado 777570" d="M108.984,59.43V57.809c-.016-.121-.042-.238-.066-.355-.007-.036-.012-.071-.02-.106a6.46,6.46,0,0,0-4.5-4.414l-.054-.02c-.167-.054-.338-.1-.511-.142-.045-.012-.088-.026-.135-.037-.16-.038-.323-.066-.486-.1-.061-.011-.119-.025-.18-.035-.157-.025-.317-.04-.477-.056-.069-.007-.138-.019-.208-.024q-.345-.027-.7-.027H13.322c-4.067,0-7.377,2.655-7.377,5.919v4.4h.306V119.25H5.924v3.441c0,2.847,2.89,5.162,6.442,5.162H45.4a5.9,5.9,0,0,1-.124,2.6H40.4c-5.92,0-10.738,3.86-10.738,8.6a1.97,1.97,0,0,0,2.148,1.72H79.054a1.97,1.97,0,0,0,2.148-1.72c0-4.744-4.818-8.6-10.738-8.6h-4.88a5.9,5.9,0,0,1-.124-2.6h37.1c3.553,0,6.444-2.315,6.444-5.162V59.43ZM25.273,55.938H89.7a1.763,1.763,0,1,1,0,3.442H25.273a1.763,1.763,0,1,1,0-3.442" transform="translate(0.302 2.676)" fill="#5573c6" stroke="#000" stroke-width="1"/>
      <path id="Trazado_777571" data-name="Trazado 777571" d="M108.984,59.43V57.809c-.016-.121-.042-.238-.066-.355-.007-.036-.012-.071-.02-.106a6.46,6.46,0,0,0-4.5-4.414l-.054-.02c-.167-.054-.338-.1-.511-.142-.045-.012-.088-.026-.135-.037-.16-.038-.323-.066-.486-.1-.061-.011-.119-.025-.18-.035-.157-.025-.317-.04-.477-.056-.069-.007-.138-.019-.208-.024q-.345-.027-.7-.027H13.322c-4.067,0-7.377,2.655-7.377,5.919v4.4h.306V119.25H5.924v3.441c0,2.847,2.89,5.162,6.442,5.162H45.4a5.9,5.9,0,0,1-.124,2.6H40.4c-5.92,0-10.738,3.86-10.738,8.6a1.97,1.97,0,0,0,2.148,1.72H79.054a1.97,1.97,0,0,0,2.148-1.72c0-4.744-4.818-8.6-10.738-8.6h-4.88a5.9,5.9,0,0,1-.124-2.6h37.1c3.553,0,6.444-2.315,6.444-5.162V59.43ZM25.273,55.938H89.7a1.763,1.763,0,1,1,0,3.442H25.273a1.763,1.763,0,1,1,0-3.442Z" transform="translate(0.302 2.676)" fill="none" stroke="#000" stroke-miterlimit="10" stroke-width="1.109"/>
    </g>
  </g>
</svg>
