<svg id="Grupo_1018430" data-name="Grupo 1018430" xmlns="http://www.w3.org/2000/svg" xmlns:xlink="http://www.w3.org/1999/xlink" width="1030" height="228.156" viewBox="0 0 1030 228.156">
  <defs>
    <clipPath id="clip-path">
      <rect id="Rectángulo_352453" data-name="Rectángulo 352453" width="1030" height="228.157" fill="#e8e8e8"/>
    </clipPath>
  </defs>
  <g id="Grupo_1018429" data-name="Grupo 1018429" clip-path="url(#clip-path)">
    <path id="Trazado_731142" data-name="Trazado 731142" d="M0,228.157V54.522H33.237v90.513H46.413V129.2H80.35v79.364h8.768v-87.5h37.336v67.892h13.429V26.832h18.429V0h19.111c0,7.1-.238,14.12.139,21.106.121,2.235,1.873,4.38,2.88,6.567l1.647-.616V162.415c4.2,1.984,4.989-.032,4.974-3.473-.055-13.185-.03-26.371-.035-39.556,0-2.208,0-4.417,0-6.914h41.639v82.017h11.116c.134-3.047.263-5.967.418-9.515h45.079V121.421H328.34v61.773h18.776c.2-2.656.388-5.182.612-8.162h21.044c.154,2.435.3,4.792.493,7.751H380.44v39.541h9.407v-57.8h40.5V91.648h23.837V77.778l8.559-.912c.18-3.1.349-6.012.545-9.378h11.968V89.443l5.48.9V183.2h12.744c.177-3.006.355-6.046.568-9.7h11.687V59.314h35.84c5.374,5.271,4.031,12.169,4.037,18.716q.059,59.612.02,119.223v6.823h34.927V189.893q0-20.335.007-40.669c.012-7.085,7.35-14.238,14.558-14.25,4.659-.008,9.433.646,13.955-.141,8.462-1.475,13.815,2.772,18.35,8.73a10.721,10.721,0,0,1,1.751,6.064c.141,15.6.078,31.2.078,46.8V202.6h6.505V101.183h20.571V90.093h18.72c2.667,2.955-3.156,10.367,5.9,9.51V201.735H688.4v-71.95h39.744v53.408H739.06V103.7h16.555c.151,2.187.3,4.337.49,7.1h18.728v71.809l6.97.482V81.237h23.629V67.878h21.856V79l1.939-.434c1.011,2.7,2.886,5.4,2.9,8.108.2,34.912.132,69.825.132,104.738v7.035l6.489.517V145.554H880.1c0,3.872.167,7.713-.046,11.534-.226,4.043,1.21,5.551,5.831,3.94V110.941h38.845V215.4l6.415.535V132H976.4v55.358h7.825V123.1h15.691c.229-4.3.433-8.087.654-12.223h19.4v9.316l5.748,1.582c0,17.823-.107,35.622.095,53.416.038,3.33-2.361,8.089,3.637,9.4.315.069.526,1.315.527,2.013.03,13.7.022,27.407.022,41.558Z" fill="#e8e8e8"/>
  </g>
</svg>
