<svg xmlns="http://www.w3.org/2000/svg" xmlns:xlink="http://www.w3.org/1999/xlink" width="192.675" height="159.185" viewBox="0 0 192.675 159.185">
  <defs>
    <clipPath id="clip-path">
      <rect id="Rectángulo_365125" data-name="Rectángulo 365125" width="192.675" height="159.184" fill="none" stroke="#0c0c0c" stroke-width="1"/>
    </clipPath>
  </defs>
  <g id="Grupo_1031265" data-name="Grupo 1031265" transform="translate(0 -0.001)">
    <g id="Grupo_1031264" data-name="Grupo 1031264" transform="translate(0 0.001)" clip-path="url(#clip-path)">
      <path id="Trazado_777537" data-name="Trazado 777537" d="M186.682,9.643V9.581a6.209,6.209,0,0,0-.116-.641l-.039-.193c-.826-3.621-3.976-6.6-8.114-7.96l-.093-.031c-.3-.1-.61-.178-.926-.255a2.166,2.166,0,0,0-.239-.069c-.286-.069-.579-.124-.872-.17-.108-.023-.216-.046-.324-.062-.286-.046-.571-.077-.865-.108-.124-.008-.247-.031-.371-.039C174.306.023,173.882,0,173.457,0H14.188C6.854,0,.886,4.794.886,10.677v7.944h185.8ZM151.91,12.414H35.735c-2.139,0-3.868-1.39-3.868-3.1s1.729-3.1,3.868-3.1H151.91c2.139,0,3.876,1.39,3.876,3.1s-1.737,3.1-3.876,3.1" transform="translate(5.954 -0.004)" fill="#373f51" stroke="#0c0c0c" stroke-width="1"/>
      <path id="Trazado_777538" data-name="Trazado 777538" d="M72.517,15.591H.881V21.8c0,5.134,5.211,9.311,11.611,9.311H175.135c6.408,0,11.619-4.177,11.619-9.311V15.591H72.517Z" transform="translate(5.921 104.772)" fill="#373f51" stroke="#0c0c0c" stroke-width="1"/>
      <path id="Trazado_777539" data-name="Trazado 777539" d="M80,23.611H71.206a10.629,10.629,0,0,1,0-6.207H34.581a10.628,10.628,0,0,1,0,6.207H25.787c-10.677,0-19.362,6.956-19.362,15.518,0,1.706,1.729,3.1,3.868,3.1H95.486c2.139,0,3.876-1.39,3.876-3.1,0-8.562-8.685-15.518-19.362-15.518" transform="translate(43.178 116.956)" fill="#373f51" stroke="#0c0c0c" stroke-width="1"/>
      <path id="Trazado_777550" data-name="Trazado 777550" d="M0,0H182.407V92.643H0Z" transform="translate(8.199 24.357)" fill="#afafaf" stroke="#0c0c0c" stroke-width="1"/>
      <path id="Trazado_777540" data-name="Trazado 777540" d="M29.746,82.478l-2.169-8.809-7.906,4.624c-5.01-5.026-9.99-9.99-14.9-15.016a1.776,1.776,0,0,1-.062-1.614c1.212-2.216,2.54-4.37,3.991-6.817L0,52.531V30.451l8.685-2.316L3.991,20.152c.764-.672,1.59-1.328,2.332-2.061,4.146-4.123,8.292-8.245,12.391-12.422a1.474,1.474,0,0,1,2.046-.432l.185.147c2.069,1.336,4.231,2.525,6.578,3.906.8-3.034,1.552-5.852,2.293-8.67H51.927L54.2,9.305c2.254-1.328,4.347-2.478,6.354-3.767a1.748,1.748,0,0,1,2.478.054,1.677,1.677,0,0,1,.185.224c4.74,4.856,9.581,9.627,14.437,14.483l-4.632,7.882,8.824,2.177V52.7l-8.824,2.046,4.37,7.5-15.742,15.8-7.527-4.416-2.054,8.855ZM70.185,61.541c-.95-1.606-2-3.3-2.949-5.064a2.411,2.411,0,0,1-.247-1.729c1.853-4.964,1.876-4.956,6.995-6.246.224-.054.463-.1.695-.139.965-.139,1.359-.625,1.336-1.668-.069-3.482-.062-6.971,0-10.453.015-1.058-.417-1.451-1.382-1.644-1.39-.278-2.733-.741-4.123-1.011a3.084,3.084,0,0,1-2.131-1.76c-2.007-3.212-1.475-6.014.826-8.739a2.633,2.633,0,0,0,.61-1.065c.085-.44.124-1.089-.124-1.343-2.772-2.9-5.613-5.728-8.461-8.616a9.777,9.777,0,0,0-1.822,1.011c-2.9,2.617-5.975,2.787-9.187.672a3.183,3.183,0,0,1-1.289-1.436c-.54-1.621-.834-3.32-1.351-4.949a1.616,1.616,0,0,0-1.1-.988c-4.007-.077-8.014-.046-12.067-.046a12.87,12.87,0,0,0-.587,2.154c-.3,3.5-1.876,5.806-5.489,6.678a3.209,3.209,0,0,1-2.911-.232c-1.513-1-3.127-1.868-4.547-2.7l-9.311,9.218a8.192,8.192,0,0,0,.842,1.444c2.478,2.9,2.988,5.937.726,9.187a3.557,3.557,0,0,1-1.544,1.4c-1.9.618-3.868,1.035-5.775,1.521V47.984a13.349,13.349,0,0,0,1.814.479c3.574.371,6.192,1.845,6.871,5.69.008.062.069.108.069.162a6.191,6.191,0,0,1-.124,2.231c-.7,1.482-1.706,2.833-2.44,4.308a1.751,1.751,0,0,0,.2,1.606q3.729,3.9,7.635,7.643a1.93,1.93,0,0,0,1.737.224c1.529-.757,2.941-1.753,4.447-2.555a2.186,2.186,0,0,1,1.59-.154c4.871,1.807,4.864,1.83,6.168,6.84a5.768,5.768,0,0,1,.208.857c.124,1.019.679,1.336,1.683,1.32,3.312-.054,6.616-.077,9.921.008,1.359.039,2.139-.317,2.216-1.76.208-3.9,2.139-6.392,6.037-7.164a3.157,3.157,0,0,1,1.907.108c1.814.942,3.544,2.038,5.134,2.965l9.272-9.241" transform="translate(0 4.163)" fill="#373f51" stroke="#0c0c0c" stroke-width="1"/>
      <path id="Trazado_777541" data-name="Trazado 777541" d="M65.1,56.585l-9.272,9.249c-1.583-.934-3.32-2.023-5.134-2.965a3.1,3.1,0,0,0-1.907-.116c-3.9.78-5.829,3.266-6.037,7.172-.077,1.444-.857,1.791-2.216,1.76-3.3-.085-6.616-.062-9.913-.008-1.011.015-1.567-.3-1.683-1.32a7.71,7.71,0,0,0-.208-.857c-1.312-5.01-1.3-5.034-6.176-6.84a2.151,2.151,0,0,0-1.59.154c-1.505.8-2.918,1.8-4.447,2.555a1.93,1.93,0,0,1-1.737-.224q-3.9-3.729-7.635-7.651a1.771,1.771,0,0,1-.2-1.606c.733-1.475,1.737-2.818,2.44-4.308A5.991,5.991,0,0,0,9.5,49.359c0-.054-.054-.108-.069-.162-.679-3.845-3.3-5.327-6.871-5.7a11.115,11.115,0,0,1-1.807-.479V30.035c1.907-.494,3.868-.911,5.767-1.529a3.577,3.577,0,0,0,1.552-1.4c2.247-3.243,1.745-6.292-.733-9.187a8.359,8.359,0,0,1-.834-1.444l9.311-9.218c1.421.834,3.026,1.7,4.547,2.71a3.232,3.232,0,0,0,2.911.224c3.613-.872,5.18-3.181,5.489-6.678a12.172,12.172,0,0,1,.587-2.154c4.053,0,8.052-.031,12.059.046a1.612,1.612,0,0,1,1.1.988c.51,1.629.811,3.327,1.343,4.949a3.2,3.2,0,0,0,1.3,1.436c.51.332,1.822.957,1.822.957s4.918.571,7.357-1.629a9.741,9.741,0,0,1,1.822-1c2.856,2.88,5.69,5.713,8.461,8.608a1.773,1.773,0,0,1,.116,1.343,2.424,2.424,0,0,1-.61,1.065c-2.3,2.725-2.826,5.535-.818,8.739a3.071,3.071,0,0,0,2.123,1.76c1.39.27,2.741.733,4.123,1.011.965.193,1.4.587,1.382,1.644q-.081,5.223,0,10.453c.023,1.042-.371,1.529-1.336,1.668q-.347.058-.695.139c-5.119,1.289-5.142,1.282-6.995,6.246a2.414,2.414,0,0,0,.255,1.729c.934,1.76,2,3.459,2.941,5.064M59.183,36.551a23.416,23.416,0,1,0-23.47,23.377,23.416,23.416,0,0,0,23.47-23.377" transform="translate(5.081 9.11)" fill="#f4a338" stroke="#0c0c0c" stroke-width="1"/>
      <path id="Trazado_777542" data-name="Trazado 777542" d="M49.088,26.346a23.408,23.408,0,1,1,0-.124v.124M25.812,8.79a17.377,17.377,0,1,0,.147,0H25.8" transform="translate(15.168 19.324)" fill="#373f51" stroke="#0c0c0c" stroke-width="1"/>
      <path id="Trazado_777543" data-name="Trazado 777543" d="M20.664,3.642A17.556,17.556,0,1,1,3.023,21.113,17.555,17.555,0,0,1,20.664,3.642M32.221,21.159a11.692,11.692,0,1,0-11.7,11.688,11.69,11.69,0,0,0,11.7-11.688" transform="translate(20.315 24.471)" fill="#f0dcc0" stroke="#0c0c0c" stroke-width="1"/>
      <path id="Trazado_777544" data-name="Trazado 777544" d="M27.16,16.112A11.692,11.692,0,1,1,15.494,4.393,11.682,11.682,0,0,1,27.16,16.112m-17.494.062A5.845,5.845,0,0,0,15.533,22a5.924,5.924,0,0,0,5.821-5.906A5.844,5.844,0,0,0,9.666,16.1v.077" transform="translate(25.369 29.518)" fill="#373f51" stroke="#0c0c0c" stroke-width="1"/>
      <path id="Trazado_777545" data-name="Trazado 777545" d="M4.539,11.033a5.794,5.794,0,0,1,5.713-5.875h.077a5.85,5.85,0,0,1,5.9,5.79,5.924,5.924,0,0,1-5.821,5.906,5.85,5.85,0,0,1-5.867-5.821" transform="translate(30.496 34.659)" fill="#faf0e2" stroke="#0c0c0c" stroke-width="1"/>
      <path id="Trazado_777546" data-name="Trazado 777546" d="M13.957,26.3,38.361,6.67v5.674L17.794,28.434V28.6L38.361,44.7v5.659l-24.4-19.625Z" transform="translate(93.798 44.821)" fill="#5573c6" stroke="#0c0c0c" stroke-width="1"/>
      <path id="Trazado_777547" data-name="Trazado 777547" d="M13.957,26.3,38.361,6.67v5.674L17.794,28.434V28.6L38.361,44.7v5.659l-24.4-19.625Z" transform="translate(93.798 44.821)" fill="none" stroke="#0c0c0c" stroke-miterlimit="10" stroke-width="0.25"/>
      <path id="Trazado_777548" data-name="Trazado 777548" d="M40.04,30.819,20.415,50.366V44.7l16.66-16.1v-.154l-16.66-16.1V6.67L40.04,26.217Z" transform="translate(137.197 44.818)" fill="#5573c6" stroke="#0c0c0c" stroke-width="1"/>
      <path id="Trazado_777549" data-name="Trazado 777549" d="M40.04,30.819,20.415,50.366V44.7l16.66-16.1v-.154l-16.66-16.1V6.67L40.04,26.217Z" transform="translate(137.197 44.818)" fill="none" stroke="#0c0c0c" stroke-miterlimit="10" stroke-width="0.25"/>
    </g>
  </g>
</svg>
