<svg xmlns="http://www.w3.org/2000/svg" xmlns:xlink="http://www.w3.org/1999/xlink" width="539.104" height="238.783" viewBox="0 0 539.104 238.783">
  <defs>
    <clipPath id="clip-path">
      <rect id="Rectángulo_34881" data-name="Rectángulo 34881" width="271.333" height="138.421" fill="#12263f"/>
    </clipPath>
    <clipPath id="clip-path-2">
      <rect id="Rectángulo_35398" data-name="Rectángulo 35398" width="498.726" height="229.411" fill="none"/>
    </clipPath>
  </defs>
  <g id="Grupo_1025999" data-name="Grupo 1025999" transform="translate(-915 -404)">
    <g id="Grupo_158066" data-name="Grupo 158066" transform="translate(915 404)">
      <g id="Grupo_157884" data-name="Grupo 157884" transform="translate(0 0)">
        <g id="Enmascarar_grupo_63" data-name="Enmascarar grupo 63" transform="translate(267.77 0)" clip-path="url(#clip-path)">
          <path id="Trazado_151731" data-name="Trazado 151731" d="M129.191,203.986a74.795,74.795,0,1,1,74.795-74.795,74.879,74.879,0,0,1-74.795,74.795m0,54.4A129.191,129.191,0,1,0,0,129.191,129.191,129.191,0,0,0,129.191,258.382Z" transform="translate(5.605 9.231)" fill="#4adbd1"/>
        </g>
        <g id="Grupo_78301" data-name="Grupo 78301" transform="translate(0 0)">
          <path id="Trazado_145969" data-name="Trazado 145969" d="M76.515,0A76.515,76.515,0,1,1,0,76.515,76.515,76.515,0,0,1,76.515,0Z" transform="translate(0 3.883)" fill="#ffca28" opacity="0.444" style="mix-blend-mode: multiply;isolation: isolate"/>
          <rect id="Rectángulo_34812" data-name="Rectángulo 34812" width="539.104" height="227.072" transform="translate(0)" fill="none"/>
          <path id="Trazado_145971" data-name="Trazado 145971" d="M8.733,0A8.733,8.733,0,1,1,0,8.733,8.733,8.733,0,0,1,8.733,0Z" transform="translate(34.5 192.302)" fill="#31313c" opacity="0.444" style="mix-blend-mode: multiply;isolation: isolate"/>
          <g id="Grupo_80270" data-name="Grupo 80270" transform="translate(367.315 66.993)">
            <path id="Trazado_145968" data-name="Trazado 145968" d="M85.895,0A85.895,85.895,0,1,1,0,85.895,85.895,85.895,0,0,1,85.895,0Z" transform="translate(0)" fill="#31313c" opacity="0.444" style="mix-blend-mode: multiply;isolation: isolate"/>
            <g id="Grupo_78276" data-name="Grupo 78276" transform="translate(33.536 35.509)">
              <g id="Grupo_53306" data-name="Grupo 53306">
                <path id="Trazado_99200" data-name="Trazado 99200" d="M416.547,51.339a1.168,1.168,0,1,1-1.167-1.115A1.142,1.142,0,0,1,416.547,51.339Z" transform="translate(-414.214 -50.224)" fill="#fff"/>
                <path id="Trazado_99201" data-name="Trazado 99201" d="M424.993,51.339a1.168,1.168,0,1,1-1.166-1.115A1.141,1.141,0,0,1,424.993,51.339Z" transform="translate(-412.163 -50.224)" fill="#fff"/>
                <path id="Trazado_99202" data-name="Trazado 99202" d="M433.439,51.339a1.168,1.168,0,1,1-1.166-1.115A1.141,1.141,0,0,1,433.439,51.339Z" transform="translate(-410.112 -50.224)" fill="#fff"/>
                <path id="Trazado_99203" data-name="Trazado 99203" d="M441.886,51.339a1.168,1.168,0,1,1-1.167-1.115A1.142,1.142,0,0,1,441.886,51.339Z" transform="translate(-408.062 -50.224)" fill="#fff"/>
                <path id="Trazado_99204" data-name="Trazado 99204" d="M450.332,51.339a1.168,1.168,0,1,1-1.166-1.115A1.142,1.142,0,0,1,450.332,51.339Z" transform="translate(-406.011 -50.224)" fill="#fff"/>
                <path id="Trazado_99205" data-name="Trazado 99205" d="M458.778,51.339a1.168,1.168,0,1,1-1.166-1.115A1.141,1.141,0,0,1,458.778,51.339Z" transform="translate(-403.96 -50.224)" fill="#fff"/>
                <path id="Trazado_99206" data-name="Trazado 99206" d="M467.225,51.339a1.168,1.168,0,1,1-1.167-1.115A1.143,1.143,0,0,1,467.225,51.339Z" transform="translate(-401.909 -50.224)" fill="#fff"/>
                <path id="Trazado_99207" data-name="Trazado 99207" d="M475.671,51.339a1.168,1.168,0,1,1-1.166-1.115A1.141,1.141,0,0,1,475.671,51.339Z" transform="translate(-399.858 -50.224)" fill="#fff"/>
                <path id="Trazado_99208" data-name="Trazado 99208" d="M484.117,51.339a1.168,1.168,0,1,1-1.166-1.115A1.142,1.142,0,0,1,484.117,51.339Z" transform="translate(-397.807 -50.224)" fill="#fff"/>
                <path id="Trazado_99209" data-name="Trazado 99209" d="M492.564,51.339a1.168,1.168,0,1,1-1.167-1.115A1.142,1.142,0,0,1,492.564,51.339Z" transform="translate(-395.757 -50.224)" fill="#fff"/>
                <path id="Trazado_99210" data-name="Trazado 99210" d="M501.01,51.339a1.168,1.168,0,1,1-1.167-1.115A1.142,1.142,0,0,1,501.01,51.339Z" transform="translate(-393.706 -50.224)" fill="#fff"/>
              </g>
              <g id="Grupo_53307" data-name="Grupo 53307" transform="translate(0 8.923)">
                <path id="Trazado_99211" data-name="Trazado 99211" d="M416.547,58.847a1.168,1.168,0,1,1-1.167-1.115A1.142,1.142,0,0,1,416.547,58.847Z" transform="translate(-414.214 -57.732)" fill="#fff"/>
                <path id="Trazado_99212" data-name="Trazado 99212" d="M424.993,58.847a1.168,1.168,0,1,1-1.166-1.115A1.141,1.141,0,0,1,424.993,58.847Z" transform="translate(-412.163 -57.732)" fill="#fff"/>
                <path id="Trazado_99213" data-name="Trazado 99213" d="M433.439,58.847a1.168,1.168,0,1,1-1.166-1.115A1.141,1.141,0,0,1,433.439,58.847Z" transform="translate(-410.112 -57.732)" fill="#fff"/>
                <path id="Trazado_99214" data-name="Trazado 99214" d="M441.886,58.847a1.168,1.168,0,1,1-1.167-1.115A1.142,1.142,0,0,1,441.886,58.847Z" transform="translate(-408.062 -57.732)" fill="#fff"/>
                <path id="Trazado_99215" data-name="Trazado 99215" d="M450.332,58.847a1.168,1.168,0,1,1-1.166-1.115A1.142,1.142,0,0,1,450.332,58.847Z" transform="translate(-406.011 -57.732)" fill="#fff"/>
                <path id="Trazado_99216" data-name="Trazado 99216" d="M458.778,58.847a1.168,1.168,0,1,1-1.166-1.115A1.141,1.141,0,0,1,458.778,58.847Z" transform="translate(-403.96 -57.732)" fill="#fff"/>
                <path id="Trazado_99217" data-name="Trazado 99217" d="M467.225,58.847a1.168,1.168,0,1,1-1.167-1.115A1.143,1.143,0,0,1,467.225,58.847Z" transform="translate(-401.909 -57.732)" fill="#fff"/>
                <path id="Trazado_99218" data-name="Trazado 99218" d="M475.671,58.847a1.168,1.168,0,1,1-1.166-1.115A1.141,1.141,0,0,1,475.671,58.847Z" transform="translate(-399.858 -57.732)" fill="#fff"/>
                <path id="Trazado_99219" data-name="Trazado 99219" d="M484.117,58.847a1.168,1.168,0,1,1-1.166-1.115A1.142,1.142,0,0,1,484.117,58.847Z" transform="translate(-397.807 -57.732)" fill="#fff"/>
                <path id="Trazado_99220" data-name="Trazado 99220" d="M492.564,58.847a1.168,1.168,0,1,1-1.167-1.115A1.142,1.142,0,0,1,492.564,58.847Z" transform="translate(-395.757 -57.732)" fill="#fff"/>
                <path id="Trazado_99221" data-name="Trazado 99221" d="M501.01,58.847a1.168,1.168,0,1,1-1.167-1.115A1.142,1.142,0,0,1,501.01,58.847Z" transform="translate(-393.706 -57.732)" fill="#fff"/>
              </g>
              <g id="Grupo_53308" data-name="Grupo 53308" transform="translate(0 17.847)">
                <ellipse id="Elipse_3955" data-name="Elipse 3955" cx="1.166" cy="1.115" rx="1.166" ry="1.115" fill="#fff"/>
                <path id="Trazado_99222" data-name="Trazado 99222" d="M424.993,66.355a1.168,1.168,0,1,1-1.166-1.115A1.142,1.142,0,0,1,424.993,66.355Z" transform="translate(-412.163 -65.24)" fill="#fff"/>
                <ellipse id="Elipse_3956" data-name="Elipse 3956" cx="1.166" cy="1.115" rx="1.166" ry="1.115" transform="translate(20.994)" fill="#fff"/>
                <path id="Trazado_99223" data-name="Trazado 99223" d="M441.886,66.355a1.168,1.168,0,1,1-1.167-1.115A1.142,1.142,0,0,1,441.886,66.355Z" transform="translate(-408.061 -65.24)" fill="#fff"/>
                <path id="Trazado_99224" data-name="Trazado 99224" d="M450.332,66.355a1.168,1.168,0,1,1-1.166-1.115A1.142,1.142,0,0,1,450.332,66.355Z" transform="translate(-406.011 -65.24)" fill="#fff"/>
                <ellipse id="Elipse_3957" data-name="Elipse 3957" cx="1.166" cy="1.115" rx="1.166" ry="1.115" transform="translate(52.486)" fill="#fff"/>
                <path id="Trazado_99225" data-name="Trazado 99225" d="M467.225,66.355a1.168,1.168,0,1,1-1.167-1.115A1.143,1.143,0,0,1,467.225,66.355Z" transform="translate(-401.909 -65.24)" fill="#fff"/>
                <ellipse id="Elipse_3958" data-name="Elipse 3958" cx="1.166" cy="1.115" rx="1.166" ry="1.115" transform="translate(73.48)" fill="#fff"/>
                <ellipse id="Elipse_3959" data-name="Elipse 3959" cx="1.166" cy="1.115" rx="1.166" ry="1.115" transform="translate(83.977)" fill="#fff"/>
                <path id="Trazado_99226" data-name="Trazado 99226" d="M492.564,66.355A1.168,1.168,0,1,1,491.4,65.24,1.143,1.143,0,0,1,492.564,66.355Z" transform="translate(-395.756 -65.24)" fill="#fff"/>
                <path id="Trazado_99227" data-name="Trazado 99227" d="M501.01,66.355a1.168,1.168,0,1,1-1.167-1.115A1.143,1.143,0,0,1,501.01,66.355Z" transform="translate(-393.706 -65.24)" fill="#fff"/>
              </g>
              <g id="Grupo_53309" data-name="Grupo 53309" transform="translate(0 26.769)">
                <ellipse id="Elipse_3960" data-name="Elipse 3960" cx="1.166" cy="1.115" rx="1.166" ry="1.115" transform="translate(0 0)" fill="#fff"/>
                <path id="Trazado_99228" data-name="Trazado 99228" d="M424.993,73.863a1.167,1.167,0,1,1-1.166-1.116A1.141,1.141,0,0,1,424.993,73.863Z" transform="translate(-412.163 -72.747)" fill="#fff"/>
                <ellipse id="Elipse_3961" data-name="Elipse 3961" cx="1.166" cy="1.115" rx="1.166" ry="1.115" transform="translate(20.994 0)" fill="#fff"/>
                <path id="Trazado_99229" data-name="Trazado 99229" d="M441.886,73.863a1.167,1.167,0,1,1-1.167-1.116A1.142,1.142,0,0,1,441.886,73.863Z" transform="translate(-408.061 -72.747)" fill="#fff"/>
                <path id="Trazado_99230" data-name="Trazado 99230" d="M450.332,73.863a1.168,1.168,0,1,1-1.166-1.116A1.141,1.141,0,0,1,450.332,73.863Z" transform="translate(-406.011 -72.747)" fill="#fff"/>
                <ellipse id="Elipse_3962" data-name="Elipse 3962" cx="1.166" cy="1.115" rx="1.166" ry="1.115" transform="translate(52.486 0)" fill="#fff"/>
                <path id="Trazado_99231" data-name="Trazado 99231" d="M467.225,73.863a1.168,1.168,0,1,1-1.167-1.116A1.142,1.142,0,0,1,467.225,73.863Z" transform="translate(-401.909 -72.747)" fill="#fff"/>
                <ellipse id="Elipse_3963" data-name="Elipse 3963" cx="1.166" cy="1.115" rx="1.166" ry="1.115" transform="translate(73.48 0)" fill="#fff"/>
                <ellipse id="Elipse_3964" data-name="Elipse 3964" cx="1.166" cy="1.115" rx="1.166" ry="1.115" transform="translate(83.977 0)" fill="#fff"/>
                <path id="Trazado_99232" data-name="Trazado 99232" d="M492.564,73.863a1.168,1.168,0,1,1-1.167-1.116A1.142,1.142,0,0,1,492.564,73.863Z" transform="translate(-395.756 -72.747)" fill="#fff"/>
                <path id="Trazado_99233" data-name="Trazado 99233" d="M501.01,73.863a1.167,1.167,0,1,1-1.167-1.116A1.142,1.142,0,0,1,501.01,73.863Z" transform="translate(-393.706 -72.747)" fill="#fff"/>
              </g>
              <g id="Grupo_53310" data-name="Grupo 53310" transform="translate(0 35.693)">
                <path id="Trazado_99234" data-name="Trazado 99234" d="M416.547,81.371a1.168,1.168,0,1,1-1.167-1.116A1.142,1.142,0,0,1,416.547,81.371Z" transform="translate(-414.214 -80.255)" fill="#fff"/>
                <path id="Trazado_99235" data-name="Trazado 99235" d="M424.993,81.371a1.167,1.167,0,1,1-1.166-1.116A1.141,1.141,0,0,1,424.993,81.371Z" transform="translate(-412.163 -80.255)" fill="#fff"/>
                <path id="Trazado_99236" data-name="Trazado 99236" d="M433.439,81.371a1.168,1.168,0,1,1-1.166-1.116A1.141,1.141,0,0,1,433.439,81.371Z" transform="translate(-410.112 -80.255)" fill="#fff"/>
                <path id="Trazado_99237" data-name="Trazado 99237" d="M441.886,81.371a1.167,1.167,0,1,1-1.167-1.116A1.142,1.142,0,0,1,441.886,81.371Z" transform="translate(-408.062 -80.255)" fill="#fff"/>
                <path id="Trazado_99238" data-name="Trazado 99238" d="M450.332,81.371a1.168,1.168,0,1,1-1.166-1.116A1.141,1.141,0,0,1,450.332,81.371Z" transform="translate(-406.011 -80.255)" fill="#fff"/>
                <path id="Trazado_99239" data-name="Trazado 99239" d="M458.778,81.371a1.167,1.167,0,1,1-1.166-1.116A1.141,1.141,0,0,1,458.778,81.371Z" transform="translate(-403.96 -80.255)" fill="#fff"/>
                <path id="Trazado_99240" data-name="Trazado 99240" d="M467.225,81.371a1.168,1.168,0,1,1-1.167-1.116A1.142,1.142,0,0,1,467.225,81.371Z" transform="translate(-401.909 -80.255)" fill="#fff"/>
                <path id="Trazado_99241" data-name="Trazado 99241" d="M475.671,81.371a1.168,1.168,0,1,1-1.166-1.116A1.141,1.141,0,0,1,475.671,81.371Z" transform="translate(-399.858 -80.255)" fill="#fff"/>
                <path id="Trazado_99242" data-name="Trazado 99242" d="M484.117,81.371a1.168,1.168,0,1,1-1.166-1.116A1.141,1.141,0,0,1,484.117,81.371Z" transform="translate(-397.807 -80.255)" fill="#fff"/>
                <path id="Trazado_99243" data-name="Trazado 99243" d="M492.564,81.371a1.168,1.168,0,1,1-1.167-1.116A1.142,1.142,0,0,1,492.564,81.371Z" transform="translate(-395.757 -80.255)" fill="#fff"/>
                <path id="Trazado_99244" data-name="Trazado 99244" d="M501.01,81.371a1.167,1.167,0,1,1-1.167-1.116A1.142,1.142,0,0,1,501.01,81.371Z" transform="translate(-393.706 -80.255)" fill="#fff"/>
              </g>
              <g id="Grupo_53311" data-name="Grupo 53311" transform="translate(0 44.616)">
                <ellipse id="Elipse_3965" data-name="Elipse 3965" cx="1.166" cy="1.115" rx="1.166" ry="1.115" transform="translate(0 0)" fill="#fff"/>
                <path id="Trazado_99245" data-name="Trazado 99245" d="M424.993,88.879a1.167,1.167,0,1,1-1.166-1.116A1.141,1.141,0,0,1,424.993,88.879Z" transform="translate(-412.163 -87.763)" fill="#fff"/>
                <ellipse id="Elipse_3966" data-name="Elipse 3966" cx="1.166" cy="1.115" rx="1.166" ry="1.115" transform="translate(20.994 0)" fill="#fff"/>
                <path id="Trazado_99246" data-name="Trazado 99246" d="M441.886,88.879a1.167,1.167,0,1,1-1.167-1.116A1.142,1.142,0,0,1,441.886,88.879Z" transform="translate(-408.061 -87.763)" fill="#fff"/>
                <path id="Trazado_99247" data-name="Trazado 99247" d="M450.332,88.879a1.168,1.168,0,1,1-1.166-1.116A1.141,1.141,0,0,1,450.332,88.879Z" transform="translate(-406.011 -87.763)" fill="#fff"/>
                <ellipse id="Elipse_3967" data-name="Elipse 3967" cx="1.166" cy="1.115" rx="1.166" ry="1.115" transform="translate(52.486 0)" fill="#fff"/>
                <path id="Trazado_99248" data-name="Trazado 99248" d="M467.225,88.879a1.168,1.168,0,1,1-1.167-1.116A1.142,1.142,0,0,1,467.225,88.879Z" transform="translate(-401.909 -87.763)" fill="#fff"/>
                <ellipse id="Elipse_3968" data-name="Elipse 3968" cx="1.166" cy="1.115" rx="1.166" ry="1.115" transform="translate(73.48 0)" fill="#fff"/>
                <ellipse id="Elipse_3969" data-name="Elipse 3969" cx="1.166" cy="1.115" rx="1.166" ry="1.115" transform="translate(83.977 0)" fill="#fff"/>
                <path id="Trazado_99249" data-name="Trazado 99249" d="M492.564,88.879a1.168,1.168,0,1,1-1.167-1.116A1.142,1.142,0,0,1,492.564,88.879Z" transform="translate(-395.756 -87.763)" fill="#fff"/>
                <path id="Trazado_99250" data-name="Trazado 99250" d="M501.01,88.879a1.167,1.167,0,1,1-1.167-1.116A1.142,1.142,0,0,1,501.01,88.879Z" transform="translate(-393.706 -87.763)" fill="#fff"/>
              </g>
              <g id="Grupo_53312" data-name="Grupo 53312" transform="translate(0 53.539)">
                <ellipse id="Elipse_3970" data-name="Elipse 3970" cx="1.166" cy="1.115" rx="1.166" ry="1.115" fill="#fff"/>
                <path id="Trazado_99251" data-name="Trazado 99251" d="M424.993,96.386a1.168,1.168,0,1,1-1.166-1.115A1.141,1.141,0,0,1,424.993,96.386Z" transform="translate(-412.163 -95.271)" fill="#fff"/>
                <ellipse id="Elipse_3971" data-name="Elipse 3971" cx="1.166" cy="1.115" rx="1.166" ry="1.115" transform="translate(20.994)" fill="#fff"/>
                <path id="Trazado_99252" data-name="Trazado 99252" d="M441.886,96.386a1.168,1.168,0,1,1-1.167-1.115A1.142,1.142,0,0,1,441.886,96.386Z" transform="translate(-408.061 -95.271)" fill="#fff"/>
                <path id="Trazado_99253" data-name="Trazado 99253" d="M450.332,96.386a1.168,1.168,0,1,1-1.166-1.115A1.142,1.142,0,0,1,450.332,96.386Z" transform="translate(-406.011 -95.271)" fill="#fff"/>
                <ellipse id="Elipse_3972" data-name="Elipse 3972" cx="1.166" cy="1.115" rx="1.166" ry="1.115" transform="translate(52.486)" fill="#fff"/>
                <path id="Trazado_99254" data-name="Trazado 99254" d="M467.225,96.386a1.168,1.168,0,1,1-1.167-1.115A1.143,1.143,0,0,1,467.225,96.386Z" transform="translate(-401.909 -95.271)" fill="#fff"/>
                <ellipse id="Elipse_3973" data-name="Elipse 3973" cx="1.166" cy="1.115" rx="1.166" ry="1.115" transform="translate(73.48)" fill="#fff"/>
                <ellipse id="Elipse_3974" data-name="Elipse 3974" cx="1.166" cy="1.115" rx="1.166" ry="1.115" transform="translate(83.977)" fill="#fff"/>
                <path id="Trazado_99255" data-name="Trazado 99255" d="M492.564,96.386a1.168,1.168,0,1,1-1.167-1.115A1.142,1.142,0,0,1,492.564,96.386Z" transform="translate(-395.756 -95.271)" fill="#fff"/>
                <path id="Trazado_99256" data-name="Trazado 99256" d="M501.01,96.386a1.168,1.168,0,1,1-1.167-1.115A1.142,1.142,0,0,1,501.01,96.386Z" transform="translate(-393.706 -95.271)" fill="#fff"/>
              </g>
              <g id="Grupo_53313" data-name="Grupo 53313" transform="translate(0 62.463)">
                <path id="Trazado_99257" data-name="Trazado 99257" d="M416.547,103.894a1.168,1.168,0,1,1-1.167-1.115A1.142,1.142,0,0,1,416.547,103.894Z" transform="translate(-414.214 -102.779)" fill="#fff"/>
                <path id="Trazado_99258" data-name="Trazado 99258" d="M424.993,103.894a1.168,1.168,0,1,1-1.166-1.115A1.141,1.141,0,0,1,424.993,103.894Z" transform="translate(-412.163 -102.779)" fill="#fff"/>
                <path id="Trazado_99259" data-name="Trazado 99259" d="M433.439,103.894a1.168,1.168,0,1,1-1.166-1.115A1.141,1.141,0,0,1,433.439,103.894Z" transform="translate(-410.112 -102.779)" fill="#fff"/>
                <path id="Trazado_99260" data-name="Trazado 99260" d="M441.886,103.894a1.168,1.168,0,1,1-1.167-1.115A1.142,1.142,0,0,1,441.886,103.894Z" transform="translate(-408.062 -102.779)" fill="#fff"/>
                <path id="Trazado_99261" data-name="Trazado 99261" d="M450.332,103.894a1.168,1.168,0,1,1-1.166-1.115A1.142,1.142,0,0,1,450.332,103.894Z" transform="translate(-406.011 -102.779)" fill="#fff"/>
                <path id="Trazado_99262" data-name="Trazado 99262" d="M458.778,103.894a1.168,1.168,0,1,1-1.166-1.115A1.141,1.141,0,0,1,458.778,103.894Z" transform="translate(-403.96 -102.779)" fill="#fff"/>
                <path id="Trazado_99263" data-name="Trazado 99263" d="M467.225,103.894a1.168,1.168,0,1,1-1.167-1.115A1.143,1.143,0,0,1,467.225,103.894Z" transform="translate(-401.909 -102.779)" fill="#fff"/>
                <path id="Trazado_99264" data-name="Trazado 99264" d="M475.671,103.894a1.168,1.168,0,1,1-1.166-1.115A1.141,1.141,0,0,1,475.671,103.894Z" transform="translate(-399.858 -102.779)" fill="#fff"/>
                <path id="Trazado_99265" data-name="Trazado 99265" d="M484.117,103.894a1.168,1.168,0,1,1-1.166-1.115A1.142,1.142,0,0,1,484.117,103.894Z" transform="translate(-397.807 -102.779)" fill="#fff"/>
                <path id="Trazado_99266" data-name="Trazado 99266" d="M492.564,103.894a1.168,1.168,0,1,1-1.167-1.115A1.143,1.143,0,0,1,492.564,103.894Z" transform="translate(-395.757 -102.779)" fill="#fff"/>
                <path id="Trazado_99267" data-name="Trazado 99267" d="M501.01,103.894a1.168,1.168,0,1,1-1.167-1.115A1.142,1.142,0,0,1,501.01,103.894Z" transform="translate(-393.706 -102.779)" fill="#fff"/>
              </g>
              <g id="Grupo_53314" data-name="Grupo 53314" transform="translate(0 71.386)">
                <ellipse id="Elipse_3975" data-name="Elipse 3975" cx="1.166" cy="1.115" rx="1.166" ry="1.115" fill="#fff"/>
                <path id="Trazado_99268" data-name="Trazado 99268" d="M424.993,111.4a1.168,1.168,0,1,1-1.166-1.115A1.142,1.142,0,0,1,424.993,111.4Z" transform="translate(-412.163 -110.287)" fill="#fff"/>
                <ellipse id="Elipse_3976" data-name="Elipse 3976" cx="1.166" cy="1.115" rx="1.166" ry="1.115" transform="translate(20.994)" fill="#fff"/>
                <path id="Trazado_99269" data-name="Trazado 99269" d="M441.886,111.4a1.168,1.168,0,1,1-1.167-1.115A1.143,1.143,0,0,1,441.886,111.4Z" transform="translate(-408.061 -110.287)" fill="#fff"/>
                <path id="Trazado_99270" data-name="Trazado 99270" d="M450.332,111.4a1.168,1.168,0,1,1-1.166-1.115A1.142,1.142,0,0,1,450.332,111.4Z" transform="translate(-406.011 -110.287)" fill="#fff"/>
                <ellipse id="Elipse_3977" data-name="Elipse 3977" cx="1.166" cy="1.115" rx="1.166" ry="1.115" transform="translate(52.486)" fill="#fff"/>
                <path id="Trazado_99271" data-name="Trazado 99271" d="M467.225,111.4a1.168,1.168,0,1,1-1.167-1.115A1.143,1.143,0,0,1,467.225,111.4Z" transform="translate(-401.909 -110.287)" fill="#fff"/>
                <ellipse id="Elipse_3978" data-name="Elipse 3978" cx="1.166" cy="1.115" rx="1.166" ry="1.115" transform="translate(73.48)" fill="#fff"/>
                <ellipse id="Elipse_3979" data-name="Elipse 3979" cx="1.166" cy="1.115" rx="1.166" ry="1.115" transform="translate(83.977)" fill="#fff"/>
                <path id="Trazado_99272" data-name="Trazado 99272" d="M492.564,111.4a1.168,1.168,0,1,1-1.167-1.115A1.143,1.143,0,0,1,492.564,111.4Z" transform="translate(-395.756 -110.287)" fill="#fff"/>
                <path id="Trazado_99273" data-name="Trazado 99273" d="M501.01,111.4a1.168,1.168,0,1,1-1.167-1.115A1.143,1.143,0,0,1,501.01,111.4Z" transform="translate(-393.706 -110.287)" fill="#fff"/>
              </g>
              <g id="Grupo_53315" data-name="Grupo 53315" transform="translate(0 80.308)">
                <path id="Trazado_99274" data-name="Trazado 99274" d="M416.547,118.91a1.168,1.168,0,1,1-1.167-1.116A1.143,1.143,0,0,1,416.547,118.91Z" transform="translate(-414.214 -117.794)" fill="#fff"/>
                <path id="Trazado_99275" data-name="Trazado 99275" d="M424.993,118.91a1.167,1.167,0,1,1-1.166-1.116A1.142,1.142,0,0,1,424.993,118.91Z" transform="translate(-412.163 -117.794)" fill="#fff"/>
                <path id="Trazado_99276" data-name="Trazado 99276" d="M433.439,118.91a1.168,1.168,0,1,1-1.166-1.116A1.142,1.142,0,0,1,433.439,118.91Z" transform="translate(-410.112 -117.794)" fill="#fff"/>
                <path id="Trazado_99277" data-name="Trazado 99277" d="M441.886,118.91a1.167,1.167,0,1,1-1.167-1.116A1.143,1.143,0,0,1,441.886,118.91Z" transform="translate(-408.062 -117.794)" fill="#fff"/>
                <path id="Trazado_99278" data-name="Trazado 99278" d="M450.332,118.91a1.168,1.168,0,1,1-1.166-1.116A1.142,1.142,0,0,1,450.332,118.91Z" transform="translate(-406.011 -117.794)" fill="#fff"/>
                <path id="Trazado_99279" data-name="Trazado 99279" d="M458.778,118.91a1.167,1.167,0,1,1-1.166-1.116A1.142,1.142,0,0,1,458.778,118.91Z" transform="translate(-403.96 -117.794)" fill="#fff"/>
                <path id="Trazado_99280" data-name="Trazado 99280" d="M467.225,118.91a1.168,1.168,0,1,1-1.167-1.116A1.143,1.143,0,0,1,467.225,118.91Z" transform="translate(-401.909 -117.794)" fill="#fff"/>
                <path id="Trazado_99281" data-name="Trazado 99281" d="M475.671,118.91a1.168,1.168,0,1,1-1.166-1.116A1.142,1.142,0,0,1,475.671,118.91Z" transform="translate(-399.858 -117.794)" fill="#fff"/>
                <path id="Trazado_99282" data-name="Trazado 99282" d="M484.117,118.91a1.168,1.168,0,1,1-1.166-1.116A1.142,1.142,0,0,1,484.117,118.91Z" transform="translate(-397.807 -117.794)" fill="#fff"/>
                <path id="Trazado_99283" data-name="Trazado 99283" d="M492.564,118.91a1.168,1.168,0,1,1-1.167-1.116A1.143,1.143,0,0,1,492.564,118.91Z" transform="translate(-395.757 -117.794)" fill="#fff"/>
                <path id="Trazado_99284" data-name="Trazado 99284" d="M501.01,118.91a1.167,1.167,0,1,1-1.167-1.116A1.143,1.143,0,0,1,501.01,118.91Z" transform="translate(-393.706 -117.794)" fill="#fff"/>
              </g>
              <g id="Grupo_53316" data-name="Grupo 53316" transform="translate(0 89.232)">
                <ellipse id="Elipse_3980" data-name="Elipse 3980" cx="1.166" cy="1.115" rx="1.166" ry="1.115" transform="translate(0 0)" fill="#fff"/>
                <path id="Trazado_99285" data-name="Trazado 99285" d="M424.993,126.418a1.167,1.167,0,1,1-1.166-1.116A1.141,1.141,0,0,1,424.993,126.418Z" transform="translate(-412.163 -125.302)" fill="#fff"/>
                <ellipse id="Elipse_3981" data-name="Elipse 3981" cx="1.166" cy="1.115" rx="1.166" ry="1.115" transform="translate(20.994 0)" fill="#fff"/>
                <path id="Trazado_99286" data-name="Trazado 99286" d="M441.886,126.418a1.167,1.167,0,1,1-1.167-1.116A1.142,1.142,0,0,1,441.886,126.418Z" transform="translate(-408.061 -125.302)" fill="#fff"/>
                <path id="Trazado_99287" data-name="Trazado 99287" d="M450.332,126.418a1.168,1.168,0,1,1-1.166-1.116A1.141,1.141,0,0,1,450.332,126.418Z" transform="translate(-406.011 -125.302)" fill="#fff"/>
                <ellipse id="Elipse_3982" data-name="Elipse 3982" cx="1.166" cy="1.115" rx="1.166" ry="1.115" transform="translate(52.486 0)" fill="#fff"/>
                <path id="Trazado_99288" data-name="Trazado 99288" d="M467.225,126.418a1.168,1.168,0,1,1-1.167-1.116A1.142,1.142,0,0,1,467.225,126.418Z" transform="translate(-401.909 -125.302)" fill="#fff"/>
                <ellipse id="Elipse_3983" data-name="Elipse 3983" cx="1.166" cy="1.115" rx="1.166" ry="1.115" transform="translate(73.48 0)" fill="#fff"/>
                <ellipse id="Elipse_3984" data-name="Elipse 3984" cx="1.166" cy="1.115" rx="1.166" ry="1.115" transform="translate(83.977 0)" fill="#fff"/>
                <path id="Trazado_99289" data-name="Trazado 99289" d="M492.564,126.418A1.168,1.168,0,1,1,491.4,125.3,1.142,1.142,0,0,1,492.564,126.418Z" transform="translate(-395.756 -125.302)" fill="#fff"/>
                <path id="Trazado_99290" data-name="Trazado 99290" d="M501.01,126.418a1.167,1.167,0,1,1-1.167-1.116A1.142,1.142,0,0,1,501.01,126.418Z" transform="translate(-393.706 -125.302)" fill="#fff"/>
              </g>
              <g id="Grupo_53317" data-name="Grupo 53317" transform="translate(0 98.156)">
                <ellipse id="Elipse_3985" data-name="Elipse 3985" cx="1.166" cy="1.115" rx="1.166" ry="1.115" transform="translate(0 0)" fill="#fff"/>
                <path id="Trazado_99291" data-name="Trazado 99291" d="M424.993,133.926a1.167,1.167,0,1,1-1.166-1.116A1.141,1.141,0,0,1,424.993,133.926Z" transform="translate(-412.163 -132.81)" fill="#fff"/>
                <ellipse id="Elipse_3986" data-name="Elipse 3986" cx="1.166" cy="1.115" rx="1.166" ry="1.115" transform="translate(20.994 0)" fill="#fff"/>
                <path id="Trazado_99292" data-name="Trazado 99292" d="M441.886,133.926a1.167,1.167,0,1,1-1.167-1.116A1.141,1.141,0,0,1,441.886,133.926Z" transform="translate(-408.061 -132.81)" fill="#fff"/>
                <path id="Trazado_99293" data-name="Trazado 99293" d="M450.332,133.926a1.168,1.168,0,1,1-1.166-1.116A1.141,1.141,0,0,1,450.332,133.926Z" transform="translate(-406.011 -132.81)" fill="#fff"/>
                <ellipse id="Elipse_3987" data-name="Elipse 3987" cx="1.166" cy="1.115" rx="1.166" ry="1.115" transform="translate(52.486 0)" fill="#fff"/>
                <path id="Trazado_99294" data-name="Trazado 99294" d="M467.225,133.926a1.168,1.168,0,1,1-1.167-1.116A1.142,1.142,0,0,1,467.225,133.926Z" transform="translate(-401.909 -132.81)" fill="#fff"/>
                <ellipse id="Elipse_3988" data-name="Elipse 3988" cx="1.166" cy="1.115" rx="1.166" ry="1.115" transform="translate(73.48 0)" fill="#fff"/>
                <ellipse id="Elipse_3989" data-name="Elipse 3989" cx="1.166" cy="1.115" rx="1.166" ry="1.115" transform="translate(83.977 0)" fill="#fff"/>
                <path id="Trazado_99295" data-name="Trazado 99295" d="M492.564,133.926a1.168,1.168,0,1,1-1.167-1.116A1.142,1.142,0,0,1,492.564,133.926Z" transform="translate(-395.756 -132.81)" fill="#fff"/>
                <path id="Trazado_99296" data-name="Trazado 99296" d="M501.01,133.926a1.167,1.167,0,1,1-1.167-1.116A1.142,1.142,0,0,1,501.01,133.926Z" transform="translate(-393.706 -132.81)" fill="#fff"/>
              </g>
            </g>
          </g>
          <line id="Línea_138" data-name="Línea 138" y2="163.066" transform="translate(18.733 39.25)" fill="none" stroke="#31313c" stroke-linecap="round" stroke-width="4" stroke-dasharray="8"/>
        </g>
      </g>
    </g>
    <g id="Grupo_158606" data-name="Grupo 158606" transform="translate(935.283 404)">
      <rect id="Rectángulo_35372" data-name="Rectángulo 35372" width="25.602" height="91.909" transform="translate(0 137.503)" fill="#ebebeb"/>
      <rect id="Rectángulo_35373" data-name="Rectángulo 35373" width="25.602" height="91.909" transform="translate(165.113 137.503)" fill="#ebebeb"/>
      <rect id="Rectángulo_35374" data-name="Rectángulo 35374" width="25.604" height="52.175" transform="translate(36.576 177.236)" fill="#ebebeb"/>
      <rect id="Rectángulo_35375" data-name="Rectángulo 35375" width="25.602" height="52.175" transform="translate(204.823 177.236)" fill="#ebebeb"/>
      <rect id="Rectángulo_35376" data-name="Rectángulo 35376" width="35.008" height="81.574" transform="translate(76.285 147.837)" fill="#ebebeb"/>
      <path id="Trazado_153067" data-name="Trazado 153067" d="M107.036,166.8v47.6h35.008V132.827Z" transform="translate(12.095 15.01)" fill="#ebebeb"/>
      <rect id="Rectángulo_35377" data-name="Rectángulo 35377" width="25.602" height="91.909" transform="translate(268.301 137.503)" fill="#ebebeb"/>
      <rect id="Rectángulo_35378" data-name="Rectángulo 35378" width="25.604" height="91.909" transform="translate(433.413 137.503)" fill="#ebebeb"/>
      <rect id="Rectángulo_35379" data-name="Rectángulo 35379" width="25.602" height="52.175" transform="translate(304.875 177.236)" fill="#ebebeb"/>
      <rect id="Rectángulo_35380" data-name="Rectángulo 35380" width="25.604" height="52.175" transform="translate(473.122 177.236)" fill="#ebc9b1"/>
      <rect id="Rectángulo_35381" data-name="Rectángulo 35381" width="35.007" height="81.574" transform="translate(344.586 147.837)" fill="#ebebeb"/>
      <path id="Trazado_153068" data-name="Trazado 153068" d="M348.1,166.8v47.6H383.1V132.827Z" transform="translate(39.336 15.01)" fill="#ebebeb"/>
      <g id="Grupo_158605" data-name="Grupo 158605">
        <g id="Grupo_158604" data-name="Grupo 158604" clip-path="url(#clip-path-2)">
          <path id="Trazado_153069" data-name="Trazado 153069" d="M16.674,208.278H27.258c-5.484-13.741-15.936-22.408-16.607-21.144-.449.846,3.84,5.437,5.562,13.819a23.691,23.691,0,0,1,.461,7.325" transform="translate(1.2 21.133)" fill="#7894ba"/>
          <path id="Trazado_153070" data-name="Trazado 153070" d="M22.917,207.879a48.236,48.236,0,0,0-8.522-17.334l-.333.453A47.341,47.341,0,0,1,22.4,207.879Z" transform="translate(1.589 21.532)" fill="#333f4f"/>
          <path id="Trazado_153071" data-name="Trazado 153071" d="M32.184,212.379h1.908c.466-33.327-14.4-61.66-14.4-61.66a119.717,119.717,0,0,0,.748,19.1c1.9,15.68,8.532,34.234,11.741,42.557" transform="translate(2.215 17.032)" fill="#7894ba"/>
          <path id="Trazado_153072" data-name="Trazado 153072" d="M37.362,212.379c-.895-13.253-5.617-21-10.286-31.046a85.522,85.522,0,0,1-7.36-30.614c-1.625,15.124,3.774,41.78,8.644,61.66Z" transform="translate(2.195 17.032)" fill="#333f4f"/>
          <path id="Trazado_153073" data-name="Trazado 153073" d="M36.649,214.249H51.387c3.585-11.763,6.288-17.767,4.736-27.969-2.008-13.185-8.5-16.181-8.785-30.627-.246-12.6,4.5-20.207,3.568-21.346-1.563-1.909-16.931,16.935-18.119,42.228-.627,13.36,3.368,14.347,3.843,32.483.05,1.878.052,3.612.018,5.23" transform="translate(3.698 15.162)" fill="#7894ba"/>
          <path id="Trazado_153074" data-name="Trazado 153074" d="M52.425,207.785c.678-5.293,1.3-10.769,1.843-16.409a158.492,158.492,0,0,0-5.844,16.409Z" transform="translate(5.472 21.626)" fill="#333f4f"/>
          <path id="Trazado_153075" data-name="Trazado 153075" d="M40.97,182.207a57.222,57.222,0,0,1,2.362,12.17,63.82,63.82,0,0,1-1.442,19.206h.794a64.818,64.818,0,0,0,1.4-19.33,58.386,58.386,0,0,0-2.413-12.447,47.752,47.752,0,0,1-2.117-11.2c-.562-9.321,1.634-19.394,6.529-29.939l-.636-.591c-4.991,10.752-7.228,21.054-6.65,30.621a48.826,48.826,0,0,0,2.169,11.513" transform="translate(4.375 15.829)" fill="#333f4f"/>
          <path id="Trazado_153076" data-name="Trazado 153076" d="M72.655,209.131c4.474-9.79,6.159-22.3,7.843-25.156a9.248,9.248,0,0,1,5.559-4.505c-21.684,3.141-29.212,13.73-31.914,23.319a42.385,42.385,0,0,0-1.212,6.343Z" transform="translate(5.981 20.281)" fill="#7894ba"/>
          <path id="Trazado_153077" data-name="Trazado 153077" d="M61.006,208.88c.157-.443.331-.877.482-1.322,7.769-22.815,17.12-24.788,17.214-24.8l-.1-1.068c-.4.071-9.836,2.007-17.8,25.405-.2.6-.439,1.192-.652,1.79Z" transform="translate(6.797 20.531)" fill="#333f4f"/>
          <rect id="Rectángulo_35382" data-name="Rectángulo 35382" width="11.596" height="25.44" transform="translate(260.226 203.971)" fill="#ababab"/>
          <path id="Trazado_153078" data-name="Trazado 153078" d="M299.058,218.819V125.188A31.456,31.456,0,0,0,267.6,93.731H229.443a31.455,31.455,0,0,0-31.456,31.457v93.631Z" transform="translate(22.373 10.592)" fill="#31313c"/>
          <path id="Trazado_153079" data-name="Trazado 153079" d="M93.531,214.522c.638-3.734,1.037-6.039,1.037-6.039l20.9-29.233,12.764-41.158L90.979,131.76S73.1,140.914,69.027,148.52c-3.509,6.548-8.862,32.356-11.968,66Z" transform="translate(6.448 14.889)" fill="#31313c"/>
          <path id="Trazado_153080" data-name="Trazado 153080" d="M152.994,213.943c-8.431-30.854-20.889-73.544-20.889-73.544l-29.112-3.519L87.535,174.238l28.452,39.705Z" transform="translate(9.892 15.468)" fill="#31313c"/>
          <path id="Trazado_153081" data-name="Trazado 153081" d="M167,79.4c-35.165-19.294-59.431-5.509-73.449,6.016A22.81,22.81,0,0,0,86.3,109.924l4.711,21.243-3.218,7.6c23.271,26.594,44.571,9.219,44.571,9.219a42.458,42.458,0,0,0,12.606-9.888c15.1-1.617,13.88-16.31,12.914-21.682A144.109,144.109,0,0,0,167,79.4" transform="translate(9.632 7.885)" fill="#6f88da"/>
          <path id="Trazado_153082" data-name="Trazado 153082" d="M119.25,76.245s-13.028,2.893-7.8,14.606,10.774,17.844,10.774,17.844l14.56-8.821,11.286,4.116S162.5,62.746,119.25,76.245" transform="translate(12.455 8.309)" fill="#fff"/>
          <path id="Trazado_153083" data-name="Trazado 153083" d="M159.321,78.426l34.9,56.068-12.585,8.993-28.494-42.181Z" transform="translate(17.306 8.862)" fill="#6f88da"/>
          <path id="Trazado_153084" data-name="Trazado 153084" d="M118.279,84.927s-.827,11.878,17.6,14.587c0,0,12.3-7.355,6.68-18.642s-24.278,4.055-24.278,4.055" transform="translate(13.365 8.67)" fill="#fab39b"/>
          <path id="Trazado_153085" data-name="Trazado 153085" d="M142.582,81.135c-5.616-11.287-24.217-4.988-24.217-4.988s-.752,6.93.061,9.424a24.434,24.434,0,0,0,13.043,7.151c5.659,1.014,9.734-1.408,12.632-5.653a13.392,13.392,0,0,0-1.519-5.933" transform="translate(13.34 8.407)" fill="#de937a"/>
          <path id="Trazado_153086" data-name="Trazado 153086" d="M109.766,67.74s13.61,30.472,30.239,25.961c8.184-2.22,12.817-12.03,13.043-31.191.162-13.9-25.113-38.363-38.993-18.379-9.032,13-4.29,23.609-4.29,23.609" transform="translate(12.263 4.134)" fill="#fab39b"/>
          <path id="Trazado_153087" data-name="Trazado 153087" d="M121.98,49.615a14.812,14.812,0,1,1-2.391-20.81,14.812,14.812,0,0,1,2.391,20.81" transform="translate(10.799 2.892)" fill="#383534"/>
          <path id="Trazado_153088" data-name="Trazado 153088" d="M143.094,50.26s8.07.426,10.247,12.36c0,0,7.215-32.258-26.977-26.271S111.209,73.52,111.209,73.52l6.79.686V67.289S140.715,69.6,143.094,50.26" transform="translate(11.97 4.024)" fill="#383534"/>
          <path id="Trazado_153089" data-name="Trazado 153089" d="M109.743,74.387c.218,4.048,3.359,7.17,7.016,6.973s6.444-3.64,6.225-7.688-3.359-7.17-7.016-6.972-6.443,3.638-6.225,7.686" transform="translate(12.4 7.536)" fill="#fab39b"/>
          <path id="Trazado_153090" data-name="Trazado 153090" d="M115.475,76.149c.3-1.054,2.135-1.685,2.816-1.84l.45-.1-.208-.411a4.937,4.937,0,0,0-3.03-2.862,3.642,3.642,0,0,0-2.793.506l.415.588a2.969,2.969,0,0,1,2.213-.4,3.986,3.986,0,0,1,2.344,2.1c-.828.258-2.533.936-2.9,2.22Z" transform="translate(12.737 8.005)" fill="#38261f"/>
          <path id="Trazado_153091" data-name="Trazado 153091" d="M117.56,76.93a2.088,2.088,0,1,0,1.725,2.4,2.087,2.087,0,0,0-1.725-2.4" transform="translate(13.011 8.69)" fill="#fff"/>
          <path id="Trazado_153092" data-name="Trazado 153092" d="M164.746,117.206l20.966,30.984,15.355-4.274L177.7,106.848c-4.616,0-10.427,4.58-12.958,10.358" transform="translate(18.617 12.074)" fill="#fab39b"/>
          <path id="Trazado_153093" data-name="Trazado 153093" d="M120.806,44.035l-.8-.574a11.582,11.582,0,0,0,2.051-8.418c-1.04-6.349-7.458-8.854-7.524-8.878l.352-.925c.286.109,7.017,2.738,8.148,9.643a12.572,12.572,0,0,1-2.223,9.152" transform="translate(12.942 2.852)" fill="#383534"/>
          <path id="Trazado_153094" data-name="Trazado 153094" d="M123.368,68.04l-.188-.972c1.891-.366,11.534-2.6,15.682-10.641a16.4,16.4,0,0,0,1.661-9.509l.982-.119a17.325,17.325,0,0,1-1.763,10.083c-4.357,8.447-14.4,10.777-16.373,11.159" transform="translate(13.92 5.288)" fill="#383534"/>
          <path id="Trazado_153095" data-name="Trazado 153095" d="M144.742,185.77l-26.212-36.883-3.148-21.619c-8.142-7.836-20.029-1.691-22.337,1.159l5.633,24.694,32.8,39.416a15,15,0,0,0,2.59-.243l2.422-.611c6.08-2.072,8.247-5.913,8.247-5.913" transform="translate(10.514 13.949)" fill="#fab39b"/>
          <path id="Trazado_153096" data-name="Trazado 153096" d="M166.366,120.744l-4.095-4.813a.4.4,0,0,1-.072-.407c.648-1.7,5.1-12.417,13.972-11.545a.4.4,0,0,1,.294.186l3.326,5.315a.4.4,0,0,1-.186.589c-2.088.708-10.636,3.975-12.6,10.521a.366.366,0,0,1-.637.155" transform="translate(18.326 11.744)" fill="#fff"/>
          <path id="Trazado_153097" data-name="Trazado 153097" d="M93.143,129.127l-1.9-7.433a.377.377,0,0,1,.165-.432c1.813-1.119,13.683-7.919,23.676-.725a.549.549,0,0,1,.234.384l.676,7.349a.42.42,0,0,1-.583.414c-2.912-.839-15.06-3.938-21.421.756a.564.564,0,0,1-.848-.314" transform="translate(10.309 13.253)" fill="#fff"/>
          <path id="Trazado_153098" data-name="Trazado 153098" d="M137.806,81a7.621,7.621,0,0,0,2.6-.876l-.393-.639c-.17.1-4.214,2.494-9.948-1l-.391.641A11.743,11.743,0,0,0,137.806,81" transform="translate(14.654 8.869)" fill="#38261f"/>
          <path id="Trazado_153099" data-name="Trazado 153099" d="M139.99,77.148a3.528,3.528,0,0,0,2.37-2.086c.344-1.193-.236-2.613-1.725-4.223l-.552.511c1.279,1.381,1.816,2.591,1.556,3.5-.329,1.149-1.829,1.569-1.843,1.573Z" transform="translate(15.797 8.005)" fill="#38261f"/>
          <path id="Trazado_153100" data-name="Trazado 153100" d="M131.466,71.227c.145.922.7,1.6,1.235,1.517s.855-.9.71-1.823-.7-1.6-1.235-1.516-.855.9-.71,1.822" transform="translate(14.852 7.842)" fill="#38261f"/>
          <path id="Trazado_153101" data-name="Trazado 153101" d="M144.343,68.613c.138.9.674,1.56,1.2,1.479s.836-.874.7-1.771-.674-1.56-1.2-1.48-.835.874-.7,1.772" transform="translate(16.308 7.553)" fill="#38261f"/>
          <path id="Trazado_153102" data-name="Trazado 153102" d="M133.581,65.129a3.6,3.6,0,0,0-.9.018,7.687,7.687,0,0,0-4.306,1.891c-2.461,2.157,1.037.077,3.129-.453a13.914,13.914,0,0,0,1.715-.522,2.037,2.037,0,0,0,.738-.4c.189-.2.08-.357-.141-.462a.968.968,0,0,0-.236-.071" transform="translate(14.412 7.357)" fill="#383534"/>
          <path id="Trazado_153103" data-name="Trazado 153103" d="M143.239,63.244a1.632,1.632,0,0,1,.543-.219,4.486,4.486,0,0,1,3.3.522c2.294,1.233-.591.337-2.043.422a7.26,7.26,0,0,1-1.224-.007,1.283,1.283,0,0,1-.593-.156.29.29,0,0,1-.092-.439.5.5,0,0,1,.113-.124" transform="translate(16.167 7.108)" fill="#383534"/>
          <rect id="Rectángulo_35383" data-name="Rectángulo 35383" width="0.99" height="13.556" transform="translate(122.254 119.625) rotate(-8.284)" fill="#383534"/>
          <path id="Trazado_153104" data-name="Trazado 153104" d="M120.706,133.582c-.235,0-.362,0-.373,0l.018-.989a113.708,113.708,0,0,0,20.74-2.048l.186.972a117.09,117.09,0,0,1-20.571,2.068" transform="translate(13.598 14.752)" fill="#383534"/>
          <rect id="Rectángulo_35384" data-name="Rectángulo 35384" width="6.274" height="0.989" transform="translate(171.653 111.165) rotate(-24.258)" fill="#383534"/>
          <path id="Trazado_153105" data-name="Trazado 153105" d="M105.95,53.609s-2-13.019,17.861-17.021c0,0-20.556-2.084-17.861,17.021" transform="translate(11.945 4.127)" fill="#7894ba"/>
          <path id="Trazado_153106" data-name="Trazado 153106" d="M217.9,49.692c0,.475-2.467,22.936,1.2,25.11S225.6,50.4,225.6,50.4Z" transform="translate(24.532 5.615)" fill="#704c44"/>
          <path id="Trazado_153107" data-name="Trazado 153107" d="M215.846,76.833c.6,3.327,3.523,5.584,6.528,5.042s4.954-3.678,4.354-7.005-3.523-5.584-6.528-5.042-4.954,3.678-4.354,7.005" transform="translate(24.379 7.882)" fill="#de937a"/>
          <rect id="Rectángulo_35385" data-name="Rectángulo 35385" width="3.044" height="0.99" transform="translate(242.047 81.387) rotate(-10.692)" fill="#fff"/>
          <path id="Trazado_153108" data-name="Trazado 153108" d="M289.774,207.956l-1.713-18.1-83.168,2.759.052,15.337Z" transform="translate(23.154 21.455)" fill="#383534"/>
          <path id="Trazado_153109" data-name="Trazado 153109" d="M201.185,218.226h90.009l-2.421-28.307s15.532-63.3,11.97-67.048-24.994-20.7-47.647-23.887l-17.915,1.409s-30.561,9.946-36.972,19.936,3.244,34.071,3.244,34.071Z" transform="translate(22.15 11.185)" fill="#12263f"/>
          <path id="Trazado_153110" data-name="Trazado 153110" d="M227.318,111.072l8.447,22.3,14.148-21.383L237.4,107.611Z" transform="translate(25.688 12.16)" fill="#fff"/>
          <path id="Trazado_153111" data-name="Trazado 153111" d="M231.408,111.438s.691,7.751,2.175,8.3c1.72.637,4.981,1.368,6.832-.107s2.9-7.931,2.9-7.931l-6.031-2.885Z" transform="translate(26.15 12.297)" fill="#383534"/>
          <path id="Trazado_153112" data-name="Trazado 153112" d="M234.705,117.336l-3.309,4.62,3.908,10.315,6.649-10.05-2.978-4.618Z" transform="translate(26.149 13.259)" fill="#383534"/>
          <path id="Trazado_153113" data-name="Trazado 153113" d="M294.891,120.445s8.107,43.677,12.636,60.247a4.992,4.992,0,0,1-3.782,6.2L253.1,197.624l-5.3-23.27,26.515-6.788Z" transform="translate(28.002 13.611)" fill="#12263f"/>
          <rect id="Rectángulo_35386" data-name="Rectángulo 35386" width="0.99" height="19.594" transform="translate(302.651 163.528) rotate(-13.95)" fill="#383534"/>
          <rect id="Rectángulo_35387" data-name="Rectángulo 35387" width="23.066" height="0.988" transform="matrix(0.928, -0.373, 0.373, 0.928, 293.794, 187.975)" fill="#383534"/>
          <path id="Trazado_153114" data-name="Trazado 153114" d="M275.676,191.475H181.184l-3.855-55.1a3.212,3.212,0,0,1,3.063-3.548h96.077a3.212,3.212,0,0,1,3.063,3.548Z" transform="translate(20.038 15.01)" fill="#b3b3b3"/>
          <path id="Trazado_153115" data-name="Trazado 153115" d="M236.175,164.114c0,2.728-5.257,4.938-11.741,4.938s-11.741-2.21-11.741-4.938,5.257-4.938,11.741-4.938,11.741,2.21,11.741,4.938" transform="translate(24.035 17.987)" fill="#d4d4d4"/>
          <path id="Trazado_153116" data-name="Trazado 153116" d="M180.393,135.943H276.47a3.1,3.1,0,0,1,2.929,2.347l.134-1.913a3.212,3.212,0,0,0-3.063-3.548H180.393a3.212,3.212,0,0,0-3.063,3.548l.134,1.913a3.1,3.1,0,0,1,2.929-2.347" transform="translate(20.038 15.01)" fill="#d4d4d4"/>
          <path id="Trazado_153117" data-name="Trazado 153117" d="M223.244,103.273s.343-6.915,16.9-6.921,16.511,4.245,16.511,4.245,1.633,9.585-6.084,15.072l-12.365-5.445-10.876,4.853s-4.432-5.709-4.089-11.8" transform="translate(25.225 10.888)" fill="#fff"/>
          <path id="Trazado_153118" data-name="Trazado 153118" d="M248.6,86.876V104.92a1.875,1.875,0,0,1-.71,1.481c-2.1,1.639-8.645,5.651-16.957-.035a1.886,1.886,0,0,1-.8-1.556V92.6Z" transform="translate(26.006 9.817)" fill="#fab39b"/>
          <path id="Trazado_153119" data-name="Trazado 153119" d="M230.133,98.526c4.127.27,13.789-.11,18.468-8.755v-2.9L230.133,92.6Z" transform="translate(26.006 9.817)" fill="#de937a"/>
          <path id="Trazado_153120" data-name="Trazado 153120" d="M219.936,57.674s-5.179,42.543,12.383,43.269c12.495.518,17.786-2.285,20.527-12.812,1.932-7.416,3.291-19.6,1.478-27.339-.743-3.169,3.258-7.387.933-9.664-5.316-5.21-14.262-7.918-21.468-6.994C226.165,45.111,221,50,219.936,57.674" transform="translate(24.773 4.967)" fill="#fab39b"/>
          <path id="Trazado_153121" data-name="Trazado 153121" d="M253.009,75.108l-1.29-14.235s-23.542,4.915-31.9-1.993c-16.97-14.031.475-31.082,26.99-14.211,6.125,3.9,11.379,5.427,13.458,6.666a5.5,5.5,0,0,1,2.68,4.168c.357,3.574.2,21.3-2.72,27.6Z" transform="translate(24.082 4.254)" fill="#704c44"/>
          <path id="Trazado_153122" data-name="Trazado 153122" d="M260.063,76.848c-.679,3.766-3.988,6.323-7.391,5.71s-5.61-4.166-4.93-7.932,3.988-6.323,7.39-5.709,5.611,4.165,4.931,7.931" transform="translate(27.982 7.778)" fill="#fab39b"/>
          <path id="Trazado_153123" data-name="Trazado 153123" d="M254.283,77.376c-.474-.919-2.291-1.161-2.949-1.176l-.435-.01.116-.42a4.662,4.662,0,0,1,2.269-3.214,3.44,3.44,0,0,1,2.678-.053l-.274.622a2.8,2.8,0,0,0-2.121.048,3.763,3.763,0,0,0-1.777,2.38c.815.083,2.519.392,3.1,1.513Z" transform="translate(28.352 8.165)" fill="#38261f"/>
          <path id="Trazado_153124" data-name="Trazado 153124" d="M235.522,64.479c.62-.948,3.054-.353,4.405.221,1.7.723,3.183,2.053,2.984,2.452-.135.272-.925-.128-2.736-.249-2.457-.166-3.3.415-4.091-.257a1.887,1.887,0,0,1-.562-2.167" transform="translate(26.597 7.23)" fill="#704c44"/>
          <path id="Trazado_153125" data-name="Trazado 153125" d="M226.489,64.131c-.7-.877-3.045-.063-4.324.63-1.609.871-2.947,2.322-2.713,2.7.159.255.9-.213,2.674-.5,2.409-.393,3.289.1,4.01-.636a1.868,1.868,0,0,0,.353-2.189" transform="translate(24.796 7.204)" fill="#704c44"/>
          <path id="Trazado_153126" data-name="Trazado 153126" d="M242.643,78.536h-8.1a2.144,2.144,0,0,1-2.141-2.141V71.467a2.144,2.144,0,0,1,2.141-2.141h8.1a2.144,2.144,0,0,1,2.141,2.141v4.927a2.144,2.144,0,0,1-2.141,2.141m-8.1-8.221a1.154,1.154,0,0,0-1.152,1.152v4.927a1.153,1.153,0,0,0,1.152,1.152h8.1a1.153,1.153,0,0,0,1.152-1.152V71.467a1.154,1.154,0,0,0-1.152-1.152Z" transform="translate(26.262 7.834)" fill="#fff"/>
          <path id="Trazado_153127" data-name="Trazado 153127" d="M225.254,78.536h-6.125a2.144,2.144,0,0,1-2.141-2.141V71.467a2.144,2.144,0,0,1,2.141-2.141h6.125a2.144,2.144,0,0,1,2.141,2.141v4.927a2.144,2.144,0,0,1-2.141,2.141m-6.125-8.221a1.154,1.154,0,0,0-1.152,1.152v4.927a1.153,1.153,0,0,0,1.152,1.152h6.125a1.153,1.153,0,0,0,1.152-1.152V71.467a1.154,1.154,0,0,0-1.152-1.152Z" transform="translate(24.52 7.834)" fill="#fff"/>
          <path id="Trazado_153128" data-name="Trazado 153128" d="M231.44,85.733a8.626,8.626,0,0,1-3.05-.667l.365-.77c.2.1,5.07,2.294,11.112-2.365l.522.674a13.351,13.351,0,0,1-8.95,3.128" transform="translate(25.809 9.259)" fill="#38261f"/>
          <path id="Trazado_153129" data-name="Trazado 153129" d="M228.994,80.509a4,4,0,0,1-2.935-2.062c-.538-1.3-.058-2.981,1.425-4.984l.686.509c-1.272,1.718-1.731,3.152-1.323,4.147a3.2,3.2,0,0,0,2.278,1.547Z" transform="translate(25.521 8.302)" fill="#38261f"/>
          <path id="Trazado_153130" data-name="Trazado 153130" d="M238.543,73.938c-.206,1.041-.864,1.786-1.47,1.667s-.932-1.061-.726-2.1.864-1.786,1.47-1.667.932,1.061.726,2.1" transform="translate(26.701 8.116)" fill="#38261f"/>
          <path id="Trazado_153131" data-name="Trazado 153131" d="M223.807,73.621c-.187.948-.787,1.628-1.34,1.519s-.848-.966-.661-1.914.787-1.628,1.34-1.519.848.966.661,1.914" transform="translate(25.059 8.102)" fill="#38261f"/>
          <path id="Trazado_153132" data-name="Trazado 153132" d="M233.392,73.656c-4.27-3.066-7.13-.184-7.25-.06l-.717-.682c.036-.037,3.558-3.641,8.543-.061Z" transform="translate(25.474 8.054)" fill="#fff"/>
          <rect id="Rectángulo_35388" data-name="Rectángulo 35388" width="7.167" height="0.989" transform="translate(270.389 80.841) rotate(-19.19)" fill="#fff"/>
          <path id="Trazado_153133" data-name="Trazado 153133" d="M251.005,49.7c-3.026-4.035-9.685-11.082-20.268-12.949a30.34,30.34,0,0,0-11.216.157l-.194-.971a31.292,31.292,0,0,1,11.58-.16c10.92,1.925,17.775,9.178,20.889,13.328Z" transform="translate(24.785 3.991)" fill="#704c44"/>
          <path id="Trazado_153134" data-name="Trazado 153134" d="M232.031,88.092s-6.834,6.7-11.3-4.008c0,0-1.239,10.72,4.462,16.641,3.789,3.934,22.2,5.332,27.191-2.2s2.834-21.364,2.834-21.364l-4.685,1.1a3.727,3.727,0,0,0-2.137,2.6c-.916,4.027-4.044,12.936-13.133,7.005Z" transform="translate(24.931 8.719)" fill="#704c44"/>
          <path id="Trazado_153135" data-name="Trazado 153135" d="M226.165,100.573c-2.322-1.592-4.628-3.484-5.774-6.536a12.411,12.411,0,0,1,.409-9.515l.878.455a11.531,11.531,0,0,0-.36,8.713c1.05,2.795,3.218,4.567,5.406,6.066Z" transform="translate(24.82 9.551)" fill="#704c44"/>
          <path id="Trazado_153136" data-name="Trazado 153136" d="M323.623,2.139s17.385-8.618,28.781,8.742,24.7,56.789,24.7,56.789-30.965,1.746-61.951-6.923c0,0-9.773-30.392-8.236-46.13s16.7-12.478,16.7-12.478" transform="translate(34.664 0)" fill="#704c44"/>
          <path id="Trazado_153137" data-name="Trazado 153137" d="M382.375,209.311c.4-10.093-.382-19.358-3.53-24.9-9.988-17.571-34.465,5.8-34.465,5.8s.238,8.1.963,19.092Z" transform="translate(38.916 20.1)" fill="#fab39b"/>
          <path id="Trazado_153138" data-name="Trazado 153138" d="M349.149,214.2a534.02,534.02,0,0,0,26.518-74.606l-43.784-4.952c-9.908,22.186-15.976,54.252-20.239,79.558Z" transform="translate(35.217 15.215)" fill="#fab39b"/>
          <path id="Trazado_153139" data-name="Trazado 153139" d="M396.981,216.734c-2.858-26.689-8.686-78.576-11.314-83.66-8.379-16.214-22.187-20.888-22.187-20.888s-21.845,17.082-38.308,4.481v19.627s-15.587,43.523-20.032,80.44Z" transform="translate(34.482 12.677)" fill="#31313c"/>
          <path id="Trazado_153140" data-name="Trazado 153140" d="M372.053,59.127h0c2.243.847,4.53,2.023,5.782,4.067,8.251,13.467,28.021,45.858,28.021,45.858l-13,12.161L364.3,84.812s-13.125-15.288,7.753-25.685" transform="translate(40.707 6.682)" fill="#636363"/>
          <path id="Trazado_153141" data-name="Trazado 153141" d="M315.2,55.464s-5.877,3.487-6.352,16.287-4.459,39.7-4.459,39.7l-28.62,19.012s8.448,3.39,10.643,11.252l33.155-16.232a3.916,3.916,0,0,0,2.167-3.061l5.338-45.5Z" transform="translate(31.162 6.268)" fill="#636363"/>
          <path id="Trazado_153142" data-name="Trazado 153142" d="M276.923,121.662l4.627-3.706a.358.358,0,0,1,.378-.048c1.533.717,11.19,5.6,9.964,14.14a.382.382,0,0,1-.185.274l-5.053,2.936a.359.359,0,0,1-.532-.213c-.553-2.058-3.152-10.506-9.088-12.758a.363.363,0,0,1-.111-.624" transform="translate(31.278 13.32)" fill="#fff"/>
          <path id="Trazado_153143" data-name="Trazado 153143" d="M311.85,113.188a12.348,12.348,0,0,0-10.363-6.879h0l-.008-.989a13.349,13.349,0,0,1,11.252,7.417Z" transform="translate(34.068 11.901)" fill="#383534"/>
          <path id="Trazado_153144" data-name="Trazado 153144" d="M311.192,56.025s37.358-16.268,71.551,7.024l-11.4,16.327s-.633,28.443-8.865,41.448c0,0-17.1,17.315-37.991,2.813,0,0-12.031-25.566-10.764-36.5Z" transform="translate(35.166 5.707)" fill="#636363"/>
          <path id="Trazado_153145" data-name="Trazado 153145" d="M288.8,134.943c.252-.5,3.34-4.345,3.263-4.931-.87-6.632-15.533-11.769-18.976-6.07a17.311,17.311,0,0,0-2.307,7.469c-.18,5.037,3.172,3.5,3.172,3.5s-.254,2.642,1.731,3.313c2.472.835,2.052-2.362,2.052-2.362s-1.3,4.062.219,5.807c1.3,1.489,2.9-1.2,3.205-1.5,0,0,.086,2.773,3.093,1.2,2.965-1.553,3.682-4.716,4.547-6.423" transform="translate(30.598 13.728)" fill="#fab39b"/>
          <path id="Trazado_153146" data-name="Trazado 153146" d="M274.162,134.69l-.974-.175,1.057-5.886a4.362,4.362,0,0,1,.544-1.463l1.76-2.948.85.508-1.76,2.947a3.367,3.367,0,0,0-.421,1.132Z" transform="translate(30.871 14.037)" fill="#383534"/>
          <path id="Trazado_153147" data-name="Trazado 153147" d="M277.155,137.677l-.946-.295,2-6.409a4.262,4.262,0,0,1,.656-1.288l2.5-3.335.79.593-2.5,3.336a3.286,3.286,0,0,0-.5.988Z" transform="translate(31.213 14.278)" fill="#383534"/>
          <path id="Trazado_153148" data-name="Trazado 153148" d="M280.616,139.48l-.931-.337,2.026-5.577a4.148,4.148,0,0,1,.631-1.149l2.6-3.348.78.607-2.6,3.348a3.235,3.235,0,0,0-.481.878Z" transform="translate(31.605 14.585)" fill="#383534"/>
          <path id="Trazado_153149" data-name="Trazado 153149" d="M289.2,126.923s2.34,5.406,4.6,5.645c5.537.585,3.919,2.631,1.509,3.311-1.537.434-1.677.067-4.009-.142a15.79,15.79,0,0,0-5.4.863Z" transform="translate(32.308 14.343)" fill="#fab39b"/>
          <path id="Trazado_153150" data-name="Trazado 153150" d="M319.358,109.957l-3.119-5.285a9.725,9.725,0,0,1-5.807-5.992c-2.279-6.884,2.747-16.066,3.686-17.69l-4.391-8.783.884-.442,4.634,9.267-.14.234c-.061.1-6.047,10.123-3.733,17.1a8.822,8.822,0,0,0,5.395,5.45l.155.062,3.289,5.572Z" transform="translate(35 8.11)" fill="#383534"/>
          <path id="Trazado_153151" data-name="Trazado 153151" d="M365.035,84.426c-1.456-1.855-5.482-6.733-5.522-6.782l.762-.63c.042.049,4.074,4.936,5.537,6.8Z" transform="translate(40.626 8.703)" fill="#383534"/>
          <path id="Trazado_153152" data-name="Trazado 153152" d="M329.124,45.564l1.158,8.309s-5.194,4.751-2.345,6.413,9.484,3.338,19.458-6.965l-4.24-24.276Z" transform="translate(36.962 3.282)" fill="#fab39b"/>
          <path id="Trazado_153153" data-name="Trazado 153153" d="M331.7,1.515c-23.9-.425-20.018,26.438-19.975,27.114.821,12.539,10.263,26.008,15.86,25.047,16.954-2.909,16.23-20.1,16.23-20.1.171-1.066,4.893-12.31,4.905-13.419.14-13-3.053-18.393-17.02-18.642" transform="translate(35.197 0.171)" fill="#fab39b"/>
          <path id="Trazado_153154" data-name="Trazado 153154" d="M348.977,30.609c-.2,3.663-3.041,6.488-6.349,6.31s-5.831-3.293-5.634-6.956,3.041-6.488,6.35-6.31,5.831,3.293,5.633,6.956" transform="translate(38.08 2.672)" fill="#fab39b"/>
          <path id="Trazado_153155" data-name="Trazado 153155" d="M343.576,31.765c-.561-.817-2.316-.831-2.945-.768l-.415.042.06-.413a4.467,4.467,0,0,1,1.775-3.327,3.3,3.3,0,0,1,2.541-.37l-.187.624a2.675,2.675,0,0,0-2.011.3,3.607,3.607,0,0,0-1.407,2.474c.785-.017,2.442.073,3.125,1.07Z" transform="translate(38.446 3.031)" fill="#38261f"/>
          <path id="Trazado_153156" data-name="Trazado 153156" d="M341.069,32.911a1.889,1.889,0,1,1-1.562,2.169,1.888,1.888,0,0,1,1.562-2.169" transform="translate(38.363 3.716)" fill="#fff"/>
          <path id="Trazado_153157" data-name="Trazado 153157" d="M318.542,10.426s3.166,15.788,23.521,12.685l.89,4.843,4.64-1.563s5.849-12.432.1-19.918c-3.644-4.741-11.56-5.338-12.908-5.463a23.12,23.12,0,0,0-3.377-.059c-2.472.117-8.464.36-13.668,4.313-8.08,6.138-8.821,16.86-8.97,18.836,0,0,6.214,2.917,9.773-13.674" transform="translate(34.892 0.103)" fill="#704c44"/>
          <path id="Trazado_153158" data-name="Trazado 153158" d="M325.712,38.2a7.6,7.6,0,0,1-2.747,0l.169-.731c.194.043,4.789,1.021,9.109-4.119l.575.482a11.744,11.744,0,0,1-7.106,4.369" transform="translate(36.496 3.768)" fill="#38261f"/>
          <path id="Trazado_153159" data-name="Trazado 153159" d="M321.591,35.225A3.525,3.525,0,0,1,318.68,34c-.707-1.021-.61-2.552.289-4.551l.684.307c-.771,1.716-.895,3.035-.358,3.813a2.818,2.818,0,0,0,2.248.9Z" transform="translate(35.959 3.328)" fill="#38261f"/>
          <path id="Trazado_153160" data-name="Trazado 153160" d="M327.782,27.046c.019.933-.407,1.7-.951,1.71s-1-.737-1.018-1.671.407-1.7.95-1.708,1,.737,1.018,1.67" transform="translate(36.818 2.868)" fill="#38261f"/>
          <path id="Trazado_153161" data-name="Trazado 153161" d="M315.915,28.65c.017.85-.371,1.548-.866,1.557s-.912-.671-.928-1.521.371-1.548.866-1.557.912.671.928,1.521" transform="translate(35.497 3.066)" fill="#38261f"/>
          <path id="Trazado_153162" data-name="Trazado 153162" d="M324.294,21.667a3.571,3.571,0,0,1,.857-.269,7.686,7.686,0,0,1,4.684.42c3.021,1.259-.958.4-3.109.568a14.186,14.186,0,0,1-1.793.052,2.011,2.011,0,0,1-.826-.145c-.245-.134-.19-.313-.013-.482a.945.945,0,0,1,.2-.144" transform="translate(36.607 2.396)" fill="#704c44"/>
          <path id="Trazado_153163" data-name="Trazado 153163" d="M315.038,23.448a1.764,1.764,0,0,0-.584-.036,4.547,4.547,0,0,0-2.941,1.363c-1.763,1.694.668.124,2.066-.207a7.831,7.831,0,0,0,1.154-.347,1.276,1.276,0,0,0,.509-.3.246.246,0,0,0-.057-.4.507.507,0,0,0-.147-.075" transform="translate(35.132 2.645)" fill="#704c44"/>
          <path id="Trazado_153164" data-name="Trazado 153164" d="M339.73,37.566A17.286,17.286,0,0,1,329.4,48.446l.516,3.705c8.795-3.487,9.814-14.585,9.814-14.585" transform="translate(37.223 4.245)" fill="#de937a"/>
          <path id="Trazado_153165" data-name="Trazado 153165" d="M338.9,101.831a16.077,16.077,0,0,1-3.8-.412l.264-.954c.539.149,13.265,3.466,19.038-11.07l.919.366c-4.117,10.362-11.807,12.069-16.426,12.069" transform="translate(37.868 10.102)" fill="#383534"/>
          <path id="Trazado_153166" data-name="Trazado 153166" d="M392.617,95.309s-19.82,7.605-30.461,9.229l8.415,11.725s.442.89,8.654,2.5c14.5,2.848,26.028,1.772,28.363-5.921,2.821-9.3-14.971-17.536-14.971-17.536" transform="translate(40.925 10.77)" fill="#636363"/>
          <path id="Trazado_153167" data-name="Trazado 153167" d="M365.473,120.217c.557-.1,6.334-3.214,6.671-4.141.442-1.211,3.579-12.748-10.121-12.064-4.146.207-11.4,4.412-12.215,4.927-4.1,2.59-.953,3.926-.953,3.926s-4.33,1.726-3.576,3.447c.938,2.144,6.055-.148,6.055-.148s-3.884,1.665-2.61,3.4c1.054,1.435,5.626-.308,6.065-.263,0,0-1.547,2.208,1.928,2.548,2.732.267,6.846-1.3,8.756-1.631" transform="translate(39.008 11.75)" fill="#fab39b"/>
          <path id="Trazado_153168" data-name="Trazado 153168" d="M348.7,112.911l-.384-.912,10.462-4.389.384.912Z" transform="translate(39.36 12.16)" fill="#383534"/>
          <rect id="Rectángulo_35389" data-name="Rectángulo 35389" width="10.71" height="0.99" transform="matrix(0.918, -0.396, 0.396, 0.918, 390.148, 127.465)" fill="#383534"/>
          <rect id="Rectángulo_35390" data-name="Rectángulo 35390" width="8.455" height="0.99" transform="translate(393.621 130.592) rotate(-21.024)" fill="#383534"/>
          <path id="Trazado_153169" data-name="Trazado 153169" d="M366.039,105.482a15.293,15.293,0,0,1-6.43-5.013c-3.214-4.754-4.828-5.056-4.977-3.162a5.907,5.907,0,0,0,1.136,4.188c2.031,2.371-.572,5.344-.572,5.344s9.878.117,10.843-1.357" transform="translate(40.072 10.873)" fill="#fab39b"/>
          <path id="Trazado_153170" data-name="Trazado 153170" d="M395.554,101.353c-11.425-5.887-17.664-1.215-17.727-1.169l-.61-.779c.27-.211,6.757-5.128,18.79,1.067Z" transform="translate(42.627 11.002)" fill="#383534"/>
          <path id="Trazado_153171" data-name="Trazado 153171" d="M346.952,51.4l-.356.076a32.716,32.716,0,0,0-15.6,8.133,10.827,10.827,0,0,1,8.985,6.025l15.355-12.91s-.911-6.731-9.326-6.721Z" transform="translate(37.404 5.199)" fill="#fff"/>
          <path id="Trazado_153172" data-name="Trazado 153172" d="M331.982,59.366l-1.154-7.655-.525-3.534s-9.13,5.085-7.944,14.048c0,0,5.45-4.788,9.623-2.859" transform="translate(36.416 5.444)" fill="#fff"/>
          <path id="Trazado_153173" data-name="Trazado 153173" d="M362.364,103.071l5.382-2.484a.355.355,0,0,1,.378.045c1.316,1.064,9.516,8.122,6.271,16.121a.382.382,0,0,1-.245.221l-5.611,1.634a.36.36,0,0,1-.466-.334c-.041-2.131-.532-10.955-5.752-14.57a.362.362,0,0,1,.042-.632" transform="translate(40.925 11.363)" fill="#fff"/>
          <path id="Trazado_153174" data-name="Trazado 153174" d="M305.7,15.9a12.178,12.178,0,0,1,4.728-12.867c5.094-3.652,12.606-3.381,17.863.642l-.6.786C322.768.693,315.749.43,311,3.834a11.2,11.2,0,0,0-4.344,11.828Z" transform="translate(34.504 0.052)" fill="#704c44"/>
          <path id="Trazado_153175" data-name="Trazado 153175" d="M373.354,56.9c-2.5-5.986-5.211-11.995-8.062-17.861C353.315,14.4,348,10.938,346,9.637c-5.684-3.7-12.717-5.426-20.926-5.144l-.034-.989c8.417-.283,15.643,1.5,21.5,5.3,2.065,1.345,7.549,4.912,19.644,29.8,2.86,5.883,5.58,11.91,8.085,17.913Z" transform="translate(36.73 0.393)" fill="#704c44"/>
          <path id="Trazado_153176" data-name="Trazado 153176" d="M135.6,207.241l.6-11.053H120.551v11.053Z" transform="translate(13.623 22.17)" fill="#96665b"/>
          <path id="Trazado_153177" data-name="Trazado 153177" d="M394.575,207.241V196.188H378.927l.6,11.053Z" transform="translate(42.82 22.17)" fill="#96665b"/>
          <path id="Trazado_153178" data-name="Trazado 153178" d="M413.783,206.839v-7.1H395.719l.415,7.1Z" transform="translate(44.718 22.572)" fill="#96665b"/>
          <path id="Trazado_153179" data-name="Trazado 153179" d="M119.074,206.839l.414-7.1H101.425v7.1Z" transform="translate(11.461 22.572)" fill="#96665b"/>
          <rect id="Rectángulo_35391" data-name="Rectángulo 35391" width="345.614" height="21.106" transform="translate(112.886 206.487)" fill="#31313c"/>
          <path id="Trazado_153180" data-name="Trazado 153180" d="M144.349,187.151c-.09-.652.863-6.648.394-7.166-5.306-5.861-23.01-.993-22.524,6.859a20.459,20.459,0,0,0,2.78,8.811c3.211,5.017,5.436,1.27,5.436,1.27s1.53,2.738,3.91,2.056c2.964-.85.407-3.675.407-3.675s1.469,4.82,4.117,5.5c2.261.577,2.011-3.114,2.106-3.615,0,0,2.586,2.9,3.811-.916.92-2.867-.13-6.879-.437-9.12" transform="translate(13.81 20.047)" fill="#fab39b"/>
          <path id="Trazado_153181" data-name="Trazado 153181" d="M129.538,196.319l-2.928-6.43a5.032,5.032,0,0,1-.449-1.757l.151-3.554.988.042-.151,3.5a4.164,4.164,0,0,0,.361,1.36l2.928,6.43Z" transform="translate(14.257 20.858)" fill="#383534"/>
          <path id="Trazado_153182" data-name="Trazado 153182" d="M134.277,197.258l-2.366-7.575a4.9,4.9,0,0,1-.226-1.661l.189-4.923.988.038-.189,4.924a3.959,3.959,0,0,0,.181,1.326l2.366,7.575Z" transform="translate(14.88 20.691)" fill="#383534"/>
          <path id="Trazado_153183" data-name="Trazado 153183" d="M138.837,196.641l-1.782-6.783a4.916,4.916,0,0,1-.157-1.511l.276-5,.988.055-.276,5a3.867,3.867,0,0,0,.126,1.205l1.782,6.783Z" transform="translate(15.469 20.719)" fill="#383534"/>
          <path id="Trazado_153184" data-name="Trazado 153184" d="M139.867,178.063s5.494,1.574,6.523,2.523a12.164,12.164,0,0,0,6.332,2.02c3.641-.237,4.195,2.65-.461,3.545-3.539.68-5.158-.491-6.661-.333a9.284,9.284,0,0,0-3.247,1.259Z" transform="translate(15.805 20.122)" fill="#fab39b"/>
          <path id="Trazado_153185" data-name="Trazado 153185" d="M135.6,206.3l.1-1.819H120.551V206.3Z" transform="translate(13.623 23.108)" fill="#704c44"/>
          <path id="Trazado_153186" data-name="Trazado 153186" d="M394.524,206.3v-1.819H379.378l.1,1.819Z" transform="translate(42.871 23.108)" fill="#704c44"/>
          <path id="Trazado_153187" data-name="Trazado 153187" d="M413.752,206.3v-1.819H396l.107,1.819Z" transform="translate(44.749 23.108)" fill="#704c44"/>
          <path id="Trazado_153188" data-name="Trazado 153188" d="M119.074,206.3l.106-1.819H101.425V206.3Z" transform="translate(11.461 23.108)" fill="#704c44"/>
          <rect id="Rectángulo_35392" data-name="Rectángulo 35392" width="63.526" height="16.88" transform="translate(388.535 189.606)" fill="#6f88da"/>
          <path id="Trazado_153189" data-name="Trazado 153189" d="M360.876,178.328a3.838,3.838,0,1,1-3.838-3.838,3.838,3.838,0,0,1,3.838,3.838" transform="translate(39.913 19.718)" fill="#383534"/>
          <circle id="Elipse_4779" data-name="Elipse 4779" cx="3.838" cy="3.838" r="3.838" transform="translate(393.115 194.208)" fill="none" stroke="#fff" stroke-miterlimit="10" stroke-width="1"/>
          <rect id="Rectángulo_35393" data-name="Rectángulo 35393" width="12.843" height="5.074" transform="translate(433.121 195.408)" fill="#fff"/>
          <rect id="Rectángulo_35394" data-name="Rectángulo 35394" width="63.526" height="16.88" transform="translate(388.535 155.845)" fill="#ffc375"/>
          <path id="Trazado_153190" data-name="Trazado 153190" d="M360.876,147.995a3.838,3.838,0,1,1-3.838-3.838,3.838,3.838,0,0,1,3.838,3.838" transform="translate(39.913 16.29)" fill="#383534"/>
          <circle id="Elipse_4780" data-name="Elipse 4780" cx="3.838" cy="3.838" r="3.838" transform="translate(393.115 160.447)" fill="none" stroke="#fff" stroke-miterlimit="10" stroke-width="1"/>
          <rect id="Rectángulo_35395" data-name="Rectángulo 35395" width="12.843" height="5.074" transform="translate(433.121 161.647)" fill="#fff"/>
          <rect id="Rectángulo_35396" data-name="Rectángulo 35396" width="63.526" height="16.88" transform="translate(378.302 172.726)" fill="#219cd5"/>
          <path id="Trazado_153191" data-name="Trazado 153191" d="M351.682,163.162a3.838,3.838,0,1,1-3.838-3.838,3.838,3.838,0,0,1,3.838,3.838" transform="translate(38.874 18.004)" fill="#383534"/>
          <circle id="Elipse_4781" data-name="Elipse 4781" cx="3.838" cy="3.838" r="3.838" transform="translate(382.881 177.328)" fill="none" stroke="#fff" stroke-miterlimit="10" stroke-width="1"/>
          <rect id="Rectángulo_35397" data-name="Rectángulo 35397" width="12.843" height="5.074" transform="translate(422.888 178.527)" fill="#fff"/>
        </g>
      </g>
    </g>
  </g>
</svg>
