<svg xmlns="http://www.w3.org/2000/svg" xmlns:xlink="http://www.w3.org/1999/xlink" width="401" height="391" viewBox="0 0 401 391">
  <defs>
    <clipPath id="clip-path">
      <rect id="Rectángulo_363313" data-name="Rectángulo 363313" width="344.736" height="233.158" fill="none"/>
    </clipPath>
    <clipPath id="clip-path-3">
      <rect id="Rectángulo_363275" data-name="Rectángulo 363275" width="344.736" height="233.158" fill="none" stroke="#707070" stroke-width="4"/>
    </clipPath>
    <clipPath id="clip-path-6">
      <rect id="Rectángulo_363305" data-name="Rectángulo 363305" width="33.161" height="7.168" fill="none"/>
    </clipPath>
    <clipPath id="clip-path-7">
      <rect id="Rectángulo_363306" data-name="Rectángulo 363306" width="4.774" height="11.036" fill="none"/>
    </clipPath>
    <clipPath id="clip-path-9">
      <rect id="Rectángulo_363308" data-name="Rectángulo 363308" width="37.603" height="46.625" fill="none"/>
    </clipPath>
    <clipPath id="clip-path-10">
      <rect id="Rectángulo_363309" data-name="Rectángulo 363309" width="20.847" height="11.08" fill="none"/>
    </clipPath>
    <clipPath id="clip-path-11">
      <rect id="Rectángulo_363310" data-name="Rectángulo 363310" width="13.131" height="33.544" fill="none"/>
    </clipPath>
  </defs>
  <g id="Grupo_1033337" data-name="Grupo 1033337" transform="translate(8086 -11940)">
    <rect id="Rectángulo_361890" data-name="Rectángulo 361890" width="401" height="391" transform="translate(-8086 11940)" fill="#efeeee"/>
    <g id="Grupo_1028342" data-name="Grupo 1028342" transform="translate(-8058 12019)">
      <g id="Grupo_1028341" data-name="Grupo 1028341" clip-path="url(#clip-path)">
        <g id="Grupo_1028315" data-name="Grupo 1028315">
          <g id="Grupo_1028314" data-name="Grupo 1028314" clip-path="url(#clip-path)">
            <path id="Trazado_771065" data-name="Trazado 771065" d="M210.139,26.222a12.324,12.324,0,1,1-13.964-10.394,12.31,12.31,0,0,1,13.964,10.394" transform="translate(80.725 6.827)" fill="#4adbd1"/>
            <path id="Trazado_771066" data-name="Trazado 771066" d="M206.348,25.757a9.392,9.392,0,1,1-10.641-7.922,9.38,9.38,0,0,1,10.641,7.922" transform="translate(81.614 7.713)" fill="#fff"/>
            <path id="Trazado_771067" data-name="Trazado 771067" d="M206.355,25.575a5.54,5.54,0,0,1-.408-1.082,9.989,9.989,0,0,0-1.487-2.693,9.635,9.635,0,0,0-1.477-1.51,9.416,9.416,0,0,0-2.052-1.268,9.247,9.247,0,0,0-2.553-.735,8.915,8.915,0,0,0-1.4-.082,9.189,9.189,0,0,0-2.845.5,9.379,9.379,0,0,0-1.291.561,8.808,8.808,0,0,0-1.151.723,8.656,8.656,0,0,0-.993.847,9.348,9.348,0,0,0-1.489,1.9,9.616,9.616,0,0,0-.867,1.926,9.988,9.988,0,0,0-.468,3.039,5.359,5.359,0,0,1-.01,1.157,2.758,2.758,0,0,1-.268-1.141,8.663,8.663,0,0,1,.258-3.2,9.5,9.5,0,0,1,.835-2.078,9.6,9.6,0,0,1,1.538-2.071,9.115,9.115,0,0,1,1.05-.927,9.318,9.318,0,0,1,1.231-.795,9.617,9.617,0,0,1,1.389-.616,10.5,10.5,0,0,1,1.512-.4,10.272,10.272,0,0,1,1.557-.146,9.435,9.435,0,0,1,1.515.1,9.2,9.2,0,0,1,1.429.323,9,9,0,0,1,1.306.509,9.421,9.421,0,0,1,3.658,3.076,8.683,8.683,0,0,1,1.343,2.913,2.739,2.739,0,0,1,.141,1.164" transform="translate(81.562 7.606)" fill="#4adbd1"/>
            <path id="Trazado_771068" data-name="Trazado 771068" d="M197.328,31.644l.26,1.616-1.442.231-.253-1.573a6.919,6.919,0,0,1-3.775-.578l.511-1.887a5.889,5.889,0,0,0,2.963.575l-.386-2.408c-1.663-.133-3.537-.38-3.867-2.444-.245-1.528.656-3.019,2.893-3.643l-.257-1.6,1.442-.231.253,1.573a6.6,6.6,0,0,1,3.068.412l-.436,1.89a5.973,5.973,0,0,0-2.327-.4l.393,2.452c1.66.118,3.505.37,3.831,2.4.24,1.5-.649,2.975-2.87,3.61M194.866,25.5l-.329-2.048c-.736.3-.971.762-.9,1.238.08.505.557.71,1.224.809m3.038,3.079c-.08-.505-.542-.712-1.2-.829l.319,1.99c.7-.274.953-.7.88-1.161" transform="translate(83.196 8.568)" fill="#4adbd1"/>
            <path id="Trazado_771069" data-name="Trazado 771069" d="M188.844,30.09A21.393,21.393,0,1,1,164.6,12.046a21.369,21.369,0,0,1,24.24,18.044" transform="translate(63.616 5.141)" fill="#4adbd1"/>
            <path id="Trazado_771070" data-name="Trazado 771070" d="M182.264,29.283a16.3,16.3,0,1,1-18.473-13.752,16.284,16.284,0,0,1,18.473,13.752" transform="translate(65.159 6.68)" fill="#fff"/>
            <path id="Trazado_771071" data-name="Trazado 771071" d="M182.276,28.967a9.7,9.7,0,0,1-.709-1.878,17.311,17.311,0,0,0-2.579-4.675,16.734,16.734,0,0,0-2.563-2.62,16.282,16.282,0,0,0-3.561-2.2,16.044,16.044,0,0,0-4.432-1.276,15.74,15.74,0,0,0-2.439-.142,15.97,15.97,0,0,0-4.939.875,16.084,16.084,0,0,0-2.241.973,15.946,15.946,0,0,0-3.722,2.725,16.319,16.319,0,0,0-2.586,3.293,16.689,16.689,0,0,0-1.5,3.343,17.277,17.277,0,0,0-.812,5.276,9.54,9.54,0,0,1-.017,2.006,4.769,4.769,0,0,1-.468-1.98,15.077,15.077,0,0,1,.449-5.549,16.3,16.3,0,0,1,4.121-7.2,15.716,15.716,0,0,1,1.824-1.61,16,16,0,0,1,2.135-1.38,16.807,16.807,0,0,1,2.411-1.068,16.695,16.695,0,0,1,5.328-.946,16.757,16.757,0,0,1,2.632.174,16.625,16.625,0,0,1,4.747,1.444A16.344,16.344,0,0,1,179.7,21.89a15.1,15.1,0,0,1,2.335,5.055,4.791,4.791,0,0,1,.242,2.022" transform="translate(65.07 6.493)" fill="#4adbd1"/>
            <path id="Trazado_771072" data-name="Trazado 771072" d="M166.608,39.5l.449,2.8-2.5.4-.436-2.728a12.036,12.036,0,0,1-6.555-1l.887-3.276a10.253,10.253,0,0,0,5.143,1l-.67-4.181c-2.887-.23-6.14-.66-6.712-4.24-.425-2.655,1.138-5.24,5.021-6.325l-.445-2.779,2.5-.4.436,2.729a11.461,11.461,0,0,1,5.326.713l-.758,3.28a10.39,10.39,0,0,0-4.039-.689l.682,4.256c2.883.207,6.085.644,6.651,4.174.418,2.6-1.125,5.161-4.979,6.266m-4.275-10.666-.571-3.554c-1.279.512-1.687,1.323-1.555,2.149.141.875.969,1.231,2.126,1.4m5.272,5.345c-.141-.877-.943-1.235-2.079-1.439l.552,3.455c1.208-.476,1.654-1.215,1.527-2.016" transform="translate(67.906 8.164)" fill="#4adbd1"/>
            <path id="Trazado_771073" data-name="Trazado 771073" d="M51.559,78.515A12.324,12.324,0,1,1,37.595,68.12,12.31,12.31,0,0,1,51.559,78.515" transform="translate(11.759 29.569)" fill="#4adbd1"/>
            <path id="Trazado_771074" data-name="Trazado 771074" d="M47.767,78.05a9.392,9.392,0,1,1-10.641-7.922A9.38,9.38,0,0,1,47.767,78.05" transform="translate(12.648 30.455)" fill="#fff"/>
            <path id="Trazado_771075" data-name="Trazado 771075" d="M47.776,77.867a5.428,5.428,0,0,1-.408-1.082,9.961,9.961,0,0,0-1.488-2.693,9.635,9.635,0,0,0-1.477-1.51,9.327,9.327,0,0,0-2.052-1.268,8.581,8.581,0,0,0-1.223-.452,8.679,8.679,0,0,0-1.33-.283,8.917,8.917,0,0,0-1.4-.082,9.674,9.674,0,0,0-1.441.139,10.06,10.06,0,0,0-1.4.364,9.25,9.25,0,0,0-1.293.561,8.889,8.889,0,0,0-1.149.723,8.659,8.659,0,0,0-.993.847,9.348,9.348,0,0,0-1.489,1.9,9.617,9.617,0,0,0-.867,1.926,9.988,9.988,0,0,0-.468,3.039,5.356,5.356,0,0,1-.01,1.157,2.769,2.769,0,0,1-.268-1.141,8.663,8.663,0,0,1,.258-3.2,9.5,9.5,0,0,1,.835-2.078,9.6,9.6,0,0,1,1.538-2.071,9.112,9.112,0,0,1,1.05-.927,9.317,9.317,0,0,1,1.231-.795,9.446,9.446,0,0,1,1.388-.616,10.562,10.562,0,0,1,1.514-.4,10.234,10.234,0,0,1,1.555-.146,9.415,9.415,0,0,1,1.515.1,9.182,9.182,0,0,1,1.431.323,9.068,9.068,0,0,1,1.306.509,9.449,9.449,0,0,1,3.658,3.076A8.7,8.7,0,0,1,47.634,76.7a2.76,2.76,0,0,1,.142,1.164" transform="translate(12.596 30.347)" fill="#4adbd1"/>
            <path id="Trazado_771076" data-name="Trazado 771076" d="M38.748,83.937l.26,1.616-1.442.231-.253-1.573a6.919,6.919,0,0,1-3.775-.578l.511-1.887a5.889,5.889,0,0,0,2.963.575l-.386-2.408c-1.663-.133-3.537-.38-3.867-2.444-.245-1.528.656-3.019,2.893-3.643l-.257-1.6,1.442-.231.253,1.573a6.6,6.6,0,0,1,3.068.412l-.438,1.89a5.962,5.962,0,0,0-2.326-.4l.393,2.452c1.66.118,3.505.37,3.831,2.4.24,1.5-.649,2.973-2.87,3.61m-2.462-6.144-.329-2.048c-.736.3-.971.762-.9,1.238.08.505.557.71,1.224.809m3.038,3.079c-.08-.505-.542-.712-1.2-.829l.319,1.99c.7-.274.953-.7.88-1.161" transform="translate(14.23 31.31)" fill="#4adbd1"/>
            <path id="Trazado_771077" data-name="Trazado 771077" d="M33.134,60.9a8.018,8.018,0,1,1,2.49-11.049A8.009,8.009,0,0,1,33.134,60.9" transform="translate(9.068 20.051)" fill="#4adbd1"/>
            <path id="Trazado_771078" data-name="Trazado 771078" d="M31.538,58.71a6.11,6.11,0,1,1,1.9-8.42,6.1,6.1,0,0,1-1.9,8.42" transform="translate(9.645 20.629)" fill="#fff"/>
            <path id="Trazado_771079" data-name="Trazado 771079" d="M30.887,58.66c-.022-.029.192-.194.535-.527a6.557,6.557,0,0,0,1.208-1.6,6.22,6.22,0,0,0,.508-1.277,6.134,6.134,0,0,0,.212-1.555,5.721,5.721,0,0,0-.055-.848,5.874,5.874,0,0,0-.184-.864,5.973,5.973,0,0,0-.323-.857,6.476,6.476,0,0,0-.463-.821,6.6,6.6,0,0,0-.588-.738,5.941,5.941,0,0,0-.674-.62,5.561,5.561,0,0,0-.735-.492,5.743,5.743,0,0,0-.765-.369,6.114,6.114,0,0,0-1.522-.385,6.281,6.281,0,0,0-1.373,0,6.486,6.486,0,0,0-1.93.524,3.436,3.436,0,0,1-.69.3c-.016-.022.182-.209.607-.461a5.624,5.624,0,0,1,1.969-.692,6.156,6.156,0,0,1,3.094.314,6.173,6.173,0,0,1,2.359,1.565,6.511,6.511,0,0,1,.636.795,6.692,6.692,0,0,1,.5.887,6.113,6.113,0,0,1,.342.927,5.86,5.86,0,0,1,.185.933,5.965,5.965,0,0,1,.043.911,6.248,6.248,0,0,1-.271,1.657,6.16,6.16,0,0,1-.591,1.332,5.687,5.687,0,0,1-1.376,1.57c-.392.3-.641.413-.656.389" transform="translate(10.458 20.574)" fill="#4adbd1"/>
            <path id="Trazado_771080" data-name="Trazado 771080" d="M24.966,55.142l-.891.581-.519-.8.868-.565a4.5,4.5,0,0,1-.653-2.4l1.257-.194a3.839,3.839,0,0,0,.439,1.913l1.33-.867c-.36-1.023-.709-2.2.43-2.944.845-.55,1.969-.408,2.931.758l.884-.575.518.8-.868.565a4.3,4.3,0,0,1,.567,1.933l-1.24.24A3.86,3.86,0,0,0,29.64,52.1l-1.353.881c.369,1.019.706,2.182-.418,2.913-.828.54-1.939.4-2.9-.752m3-3.088,1.131-.736c-.37-.359-.71-.376-.973-.205-.278.182-.274.519-.158.941m-1.027,2.62c.278-.182.28-.511.176-.931l-1.1.716c.347.34.667.382.923.215" transform="translate(10.244 21.555)" fill="#4adbd1"/>
            <path id="Trazado_771081" data-name="Trazado 771081" d="M183.016,14.8a8.017,8.017,0,1,1,2.49-11.049,8.007,8.007,0,0,1-2.49,11.049" transform="translate(74.252 0)" fill="#4adbd1"/>
            <path id="Trazado_771082" data-name="Trazado 771082" d="M181.421,12.6a6.11,6.11,0,1,1,1.9-8.42,6.1,6.1,0,0,1-1.9,8.42" transform="translate(74.829 0.578)" fill="#fff"/>
            <path id="Trazado_771083" data-name="Trazado 771083" d="M180.769,12.556c-.022-.03.192-.2.535-.528a6.5,6.5,0,0,0,1.208-1.6,6.076,6.076,0,0,0,.72-2.832,5.988,5.988,0,0,0-.238-1.712,6.036,6.036,0,0,0-.323-.857,6.478,6.478,0,0,0-.463-.821,6.6,6.6,0,0,0-.588-.738,6.078,6.078,0,0,0-.674-.62,5.709,5.709,0,0,0-.735-.492,5.563,5.563,0,0,0-.765-.367,6.114,6.114,0,0,0-1.522-.385A6.286,6.286,0,0,0,176.55,1.6a6.481,6.481,0,0,0-1.93.525,3.663,3.663,0,0,1-.69.3c-.016-.023.182-.211.607-.462a5.627,5.627,0,0,1,1.969-.69,6.171,6.171,0,0,1,1.456-.053,6.238,6.238,0,0,1,1.637.367,5.945,5.945,0,0,1,.829.38,6.028,6.028,0,0,1,.8.521,6.22,6.22,0,0,1,.732.663,6.625,6.625,0,0,1,.636.795,6.694,6.694,0,0,1,.5.887,6.17,6.17,0,0,1,.342.927,5.878,5.878,0,0,1,.185.934,5.955,5.955,0,0,1,.043.911,6.267,6.267,0,0,1-.271,1.657,6.178,6.178,0,0,1-.591,1.33,5.686,5.686,0,0,1-1.376,1.57,1.793,1.793,0,0,1-.656.39" transform="translate(75.642 0.523)" fill="#4adbd1"/>
            <path id="Trazado_771084" data-name="Trazado 771084" d="M174.849,9.038l-.891.581-.519-.8.868-.565a4.5,4.5,0,0,1-.653-2.4l1.257-.194a3.839,3.839,0,0,0,.439,1.913l1.33-.867c-.36-1.023-.709-2.2.43-2.944.845-.55,1.969-.408,2.931.758l.884-.575.518.8-.868.565a4.3,4.3,0,0,1,.567,1.933l-1.24.24A3.86,3.86,0,0,0,179.523,6l-1.353.881c.369,1.019.706,2.182-.418,2.913-.828.54-1.939.4-2.9-.752m3-3.088,1.131-.736c-.37-.359-.71-.376-.973-.205-.278.181-.274.519-.158.941m-1.027,2.62c.278-.182.28-.511.176-.931l-1.1.716c.347.34.667.382.923.215" transform="translate(75.428 1.504)" fill="#4adbd1"/>
          </g>
        </g>
        <path id="Trazado_771085" data-name="Trazado 771085" d="M.232,157.511h0Z" transform="translate(0.101 68.501)" fill="#373f51"/>
        <g id="Grupo_1028317" data-name="Grupo 1028317" transform="translate(0.333 2)">
          <g id="Grupo_1028316" data-name="Grupo 1028316" clip-path="url(#clip-path-3)">
            <path id="Trazado_771086" data-name="Trazado 771086" d="M344.635,157.551c0,.075-77.1.133-172.193.133-95.122,0-172.209-.059-172.209-.133s77.087-.133,172.209-.133c95.091,0,172.193.06,172.193.133" transform="translate(0.101 68.461)" fill="#373f51" stroke="#707070" stroke-width="4"/>
          </g>
        </g>
        <g id="Grupo_1028319" data-name="Grupo 1028319">
          <g id="Grupo_1028318" data-name="Grupo 1028318" clip-path="url(#clip-path)">
            <path id="Trazado_771087" data-name="Trazado 771087" d="M286.6,37.339H91.049a6.1,6.1,0,0,0-6.1,6.1V181.565a6.1,6.1,0,0,0,6.1,6.1H166.1s4.774,14.764-10.026,22.4h70.178s-16.709-5.728-12.413-22.4H286.6a6.1,6.1,0,0,0,6.1-6.1V43.443a6.1,6.1,0,0,0-6.1-6.1" transform="translate(36.942 16.239)" fill="#373f51"/>
            <path id="Trazado_771088" data-name="Trazado 771088" d="M161.121,132.336c2.66,3.8-1.5,7.965-5.306,5.306a1.363,1.363,0,0,1-.326-.329c-2.653-3.8,1.505-7.958,5.3-5.3a1.337,1.337,0,0,1,.327.327" transform="translate(67.257 57.046)" fill="#5573c6"/>
            <path id="Trazado_771089" data-name="Trazado 771089" d="M288.318,161.634H87.292V44.083A4.981,4.981,0,0,1,92.273,39.1H283.338a4.98,4.98,0,0,1,4.981,4.981Z" transform="translate(37.963 17.005)" fill="#fff"/>
            <rect id="Rectángulo_363276" data-name="Rectángulo 363276" width="6.593" height="73.633" transform="translate(142.287 83.769)" fill="#f4a338"/>
            <rect id="Rectángulo_363277" data-name="Rectángulo 363277" width="6.593" height="48.624" transform="translate(155.015 108.778)" fill="#f4a338"/>
            <rect id="Rectángulo_363278" data-name="Rectángulo 363278" width="6.593" height="64.856" transform="translate(167.744 92.921)" fill="#f4a338"/>
            <rect id="Rectángulo_363279" data-name="Rectángulo 363279" width="6.593" height="70.791" transform="translate(180.473 86.612)" fill="#f4a338"/>
            <rect id="Rectángulo_363280" data-name="Rectángulo 363280" width="6.593" height="47.128" transform="translate(193.202 110.275)" fill="#f4a338"/>
            <rect id="Rectángulo_363281" data-name="Rectángulo 363281" width="6.593" height="37.886" transform="translate(205.931 119.517)" fill="#f4a338"/>
            <rect id="Rectángulo_363282" data-name="Rectángulo 363282" width="6.593" height="66.076" transform="translate(218.66 91.327)" fill="#f4a338"/>
            <rect id="Rectángulo_363283" data-name="Rectángulo 363283" width="6.593" height="54.163" transform="translate(231.389 103.239)" fill="#f4a338"/>
            <rect id="Rectángulo_363284" data-name="Rectángulo 363284" width="6.593" height="63.682" transform="translate(244.118 93.72)" fill="#f4a338"/>
            <rect id="Rectángulo_363285" data-name="Rectángulo 363285" width="6.593" height="43.386" transform="translate(256.847 114.017)" fill="#f4a338"/>
            <rect id="Rectángulo_363286" data-name="Rectángulo 363286" width="6.593" height="66.076" transform="translate(282.236 91.327)" fill="#f4a338"/>
            <rect id="Rectángulo_363287" data-name="Rectángulo 363287" width="6.593" height="22.608" transform="translate(309.269 133.839)" fill="#f4a338"/>
            <rect id="Rectángulo_363288" data-name="Rectángulo 363288" width="6.593" height="43.386" transform="translate(296.091 114.017)" fill="#f4a338"/>
            <rect id="Rectángulo_363289" data-name="Rectángulo 363289" width="6.593" height="51.642" transform="translate(269.576 105.761)" fill="#f4a338"/>
            <path id="Trazado_771090" data-name="Trazado 771090" d="M273.484,65.382a3.432,3.432,0,0,1-.58-.093c-.413-.083-.969-.2-1.677-.343a25.51,25.51,0,0,0-2.744-.436,33.822,33.822,0,0,0-3.778-.316,43.568,43.568,0,0,0-10.32.887,45.51,45.51,0,0,0-12.8,4.849,52.3,52.3,0,0,0-12.966,10.323c-4.039,4.427-7.444,9.9-10.928,15.686-3.517,5.754-7.1,12-12.278,17.355a32.188,32.188,0,0,1-9.048,6.768,19.083,19.083,0,0,1-5.576,1.7,18.019,18.019,0,0,1-5.915-.2,24.116,24.116,0,0,1-10.3-5.4,48.045,48.045,0,0,1-7.629-8.324c-4.425-5.959-7.571-12.383-10.934-18.233-3.322-5.869-6.741-11.357-10.925-15.642a29.608,29.608,0,0,0-6.755-5.312,28.341,28.341,0,0,0-3.649-1.772,28.981,28.981,0,0,0-3.724-1.1,27.031,27.031,0,0,0-13.537.379,30.5,30.5,0,0,0-9.291,4.468A33.811,33.811,0,0,0,103.252,75l-1.136,1.28a3.511,3.511,0,0,1-.408.422,3.3,3.3,0,0,1,.349-.469c.264-.326.626-.768,1.083-1.332a31.666,31.666,0,0,1,4.82-4.507,30.368,30.368,0,0,1,9.347-4.63,27.335,27.335,0,0,1,13.766-.494,28.44,28.44,0,0,1,14.451,8.269c4.267,4.333,7.731,9.858,11.077,15.734,3.389,5.859,6.543,12.257,10.925,18.139a47.456,47.456,0,0,0,7.519,8.192,23.462,23.462,0,0,0,9.977,5.242,17.336,17.336,0,0,0,5.659.191,18.26,18.26,0,0,0,5.365-1.639,31.48,31.48,0,0,0,8.845-6.608c5.107-5.253,8.683-11.456,12.217-17.2,3.5-5.781,6.946-11.281,11.056-15.747a52.575,52.575,0,0,1,13.165-10.367,45.486,45.486,0,0,1,12.973-4.8,43.057,43.057,0,0,1,10.417-.769,32.685,32.685,0,0,1,3.792.385,23.778,23.778,0,0,1,2.745.508l1.666.416a3.365,3.365,0,0,1,.561.166" transform="translate(44.232 27.773)" fill="#373f51"/>
            <path id="Trazado_771091" data-name="Trazado 771091" d="M94.186,141.7c-.149,0-.271-21-.271-46.892s.122-46.9.271-46.9.271,20.991.271,46.9-.122,46.892-.271,46.892" transform="translate(40.843 20.835)" fill="#373f51"/>
            <path id="Trazado_771092" data-name="Trazado 771092" d="M273.684,113.352c0,.149-39.559.271-88.344.271-48.8,0-88.354-.122-88.354-.271s39.55-.271,88.354-.271c48.785,0,88.344.122,88.344.271" transform="translate(42.179 49.179)" fill="#373f51"/>
            <path id="Trazado_771093" data-name="Trazado 771093" d="M108.682,117.391a22.349,22.349,0,0,1-4.893.271,22.349,22.349,0,0,1-4.893-.271,22.352,22.352,0,0,1,4.893-.271,22.352,22.352,0,0,1,4.893.271" transform="translate(43.01 50.935)" fill="#373f51"/>
            <path id="Trazado_771094" data-name="Trazado 771094" d="M120.572,117.6a31.819,31.819,0,0,1-5.847.271,31.829,31.829,0,0,1-5.849-.271,31.831,31.831,0,0,1,5.849-.271,31.821,31.821,0,0,1,5.847.271" transform="translate(47.35 51.025)" fill="#373f51"/>
            <path id="Trazado_771095" data-name="Trazado 771095" d="M130.219,117.6a31.82,31.82,0,0,1-5.847.271,31.829,31.829,0,0,1-5.849-.271,31.831,31.831,0,0,1,5.849-.271,31.821,31.821,0,0,1,5.847.271" transform="translate(51.545 51.025)" fill="#373f51"/>
            <path id="Trazado_771096" data-name="Trazado 771096" d="M139.867,117.6a31.82,31.82,0,0,1-5.847.271,31.829,31.829,0,0,1-5.849-.271,31.831,31.831,0,0,1,5.849-.271,31.821,31.821,0,0,1,5.847.271" transform="translate(55.741 51.025)" fill="#373f51"/>
            <path id="Trazado_771097" data-name="Trazado 771097" d="M149.513,117.6a31.819,31.819,0,0,1-5.847.271,31.807,31.807,0,0,1-5.847-.271,31.808,31.808,0,0,1,5.847-.271,31.821,31.821,0,0,1,5.847.271" transform="translate(59.937 51.025)" fill="#373f51"/>
            <path id="Trazado_771098" data-name="Trazado 771098" d="M159.161,117.6a31.819,31.819,0,0,1-5.847.271,31.807,31.807,0,0,1-5.847-.271,31.809,31.809,0,0,1,5.847-.271,31.821,31.821,0,0,1,5.847.271" transform="translate(64.133 51.025)" fill="#373f51"/>
            <path id="Trazado_771099" data-name="Trazado 771099" d="M168.809,117.6a31.819,31.819,0,0,1-5.847.271,31.807,31.807,0,0,1-5.847-.271,31.808,31.808,0,0,1,5.847-.271,31.821,31.821,0,0,1,5.847.271" transform="translate(68.329 51.025)" fill="#373f51"/>
            <path id="Trazado_771100" data-name="Trazado 771100" d="M178.457,117.6a31.819,31.819,0,0,1-5.847.271,31.83,31.83,0,0,1-5.849-.271,31.831,31.831,0,0,1,5.849-.271,31.821,31.821,0,0,1,5.847.271" transform="translate(72.524 51.025)" fill="#373f51"/>
            <path id="Trazado_771101" data-name="Trazado 771101" d="M188.1,117.6a31.82,31.82,0,0,1-5.847.271,31.807,31.807,0,0,1-5.847-.271,31.808,31.808,0,0,1,5.847-.271,31.821,31.821,0,0,1,5.847.271" transform="translate(76.72 51.025)" fill="#373f51"/>
            <path id="Trazado_771102" data-name="Trazado 771102" d="M197.752,117.6a31.819,31.819,0,0,1-5.847.271,31.829,31.829,0,0,1-5.849-.271,31.831,31.831,0,0,1,5.849-.271,31.821,31.821,0,0,1,5.847.271" transform="translate(80.915 51.025)" fill="#373f51"/>
            <path id="Trazado_771103" data-name="Trazado 771103" d="M206.725,117.6a31.819,31.819,0,0,1-5.847.271,31.829,31.829,0,0,1-5.849-.271,31.829,31.829,0,0,1,5.849-.271,31.819,31.819,0,0,1,5.847.271" transform="translate(84.818 51.026)" fill="#373f51"/>
            <path id="Trazado_771104" data-name="Trazado 771104" d="M215.7,117.6a31.822,31.822,0,0,1-5.847.271A31.832,31.832,0,0,1,204,117.6a31.827,31.827,0,0,1,5.849-.271,31.817,31.817,0,0,1,5.847.271" transform="translate(88.72 51.027)" fill="#373f51"/>
            <path id="Trazado_771105" data-name="Trazado 771105" d="M224.671,117.607a31.822,31.822,0,0,1-5.847.271,31.832,31.832,0,0,1-5.849-.271,31.827,31.827,0,0,1,5.849-.271,31.817,31.817,0,0,1,5.847.271" transform="translate(92.622 51.029)" fill="#373f51"/>
            <path id="Trazado_771106" data-name="Trazado 771106" d="M141.789,82.367c.006-.112.809.169,1.066,1.274a2.721,2.721,0,0,1-.2,1.9,1.644,1.644,0,0,1-.961.811,1.74,1.74,0,0,1-1.34-.158,2.238,2.238,0,0,1-1.144-2.1,2.333,2.333,0,0,1,.917-1.7,1.512,1.512,0,0,1,1.261-.311c.3.092.409.24.389.273-.033.1-.67-.2-1.314.438a1.929,1.929,0,0,0-.574,1.326,1.618,1.618,0,0,0,.816,1.425.967.967,0,0,0,1.362-.346,2.39,2.39,0,0,0,.278-1.466,3.319,3.319,0,0,0-.552-1.367" transform="translate(60.537 35.683)" fill="#373f51"/>
            <path id="Trazado_771107" data-name="Trazado 771107" d="M202.189,65.473c0-.042.207-.109.571,0a2.209,2.209,0,0,1,1.177,1.019,2.922,2.922,0,0,1,.291,2.312,2.434,2.434,0,0,1-2.256,1.8,1.945,1.945,0,0,1-1.436-.749,3.113,3.113,0,0,1-.607-1.283,2.954,2.954,0,0,1,.372-2.293c.811-1.148,1.815-1.089,1.778-1,.049.108-.791.268-1.329,1.271a2.548,2.548,0,0,0-.161,1.864c.175.679.7,1.452,1.406,1.458a1.812,1.812,0,0,0,1.587-1.278,2.518,2.518,0,0,0-.108-1.857,2.667,2.667,0,0,0-1.286-1.261" transform="translate(86.913 28.371)" fill="#373f51"/>
            <rect id="Rectángulo_363290" data-name="Rectángulo 363290" width="132.319" height="102.98" transform="translate(81.97 18.735)" fill="#fff"/>
            <path id="Trazado_771108" data-name="Trazado 771108" d="M189.49,116.082c0-1.027-.049-40.834-.123-102.98l.123.123-132.308.026h-.011l.151-.149c-.006,37.119-.011,72.228-.016,102.98l-.135-.135,132.319.135-132.319.135h-.133v-.135c0-30.751-.01-65.86-.016-102.98v-.149h.161l132.308.026h.123V13.1c-.075,62.145-.122,101.952-.123,102.98" transform="translate(24.799 5.633)" fill="#373f51"/>
            <rect id="Rectángulo_363291" data-name="Rectángulo 363291" width="21.42" height="1.192" transform="translate(88.424 32.264)" fill="#373f51"/>
            <rect id="Rectángulo_363292" data-name="Rectángulo 363292" width="10.585" height="1.192" transform="translate(88.424 35.053)" fill="#373f51"/>
            <rect id="Rectángulo_363293" data-name="Rectángulo 363293" width="3.88" height="1.118" transform="translate(100.638 106.919)" fill="#373f51"/>
            <rect id="Rectángulo_363294" data-name="Rectángulo 363294" width="4.962" height="1.118" transform="translate(109.415 112.896)" fill="#373f51"/>
            <rect id="Rectángulo_363295" data-name="Rectángulo 363295" width="4.962" height="1.118" transform="translate(126.689 112.896)" fill="#373f51"/>
            <rect id="Rectángulo_363296" data-name="Rectángulo 363296" width="4.962" height="1.118" transform="translate(143.962 112.896)" fill="#373f51"/>
            <rect id="Rectángulo_363297" data-name="Rectángulo 363297" width="4.962" height="1.118" transform="translate(161.235 112.896)" fill="#373f51"/>
            <rect id="Rectángulo_363298" data-name="Rectángulo 363298" width="4.962" height="1.118" transform="translate(178.508 112.896)" fill="#373f51"/>
            <rect id="Rectángulo_363299" data-name="Rectángulo 363299" width="4.962" height="1.118" transform="translate(195.783 112.896)" fill="#373f51"/>
            <rect id="Rectángulo_363300" data-name="Rectángulo 363300" width="3.88" height="1.118" transform="translate(100.638 91.986)" fill="#373f51"/>
            <rect id="Rectángulo_363301" data-name="Rectángulo 363301" width="3.88" height="1.118" transform="translate(100.638 63.88)" fill="#373f51"/>
            <rect id="Rectángulo_363302" data-name="Rectángulo 363302" width="3.88" height="1.118" transform="translate(100.638 49.755)" fill="#373f51"/>
            <rect id="Rectángulo_363303" data-name="Rectángulo 363303" width="3.88" height="1.118" transform="translate(100.835 77.932)" fill="#373f51"/>
            <path id="Trazado_771109" data-name="Trazado 771109" d="M168.355,95.621s-.142.009-.418.014l-1.221.013-4.695.024-17.265.043-56.965.039H74.158v-.132c.019-19.053.034-35.818.046-47.828.017-6,.03-10.806.04-14.124.009-1.65.017-2.927.022-3.8.006-.428.01-.755.013-.984s.011-.334.011-.334.009.113.013.334.007.557.011.984c.006.875.013,2.152.023,3.8.01,3.317.023,8.126.04,14.124.011,12.01.027,28.775.044,47.828l-.132-.132h13.5l56.965.039,17.265.043,4.695.024,1.221.013c.275.006.418.014.418.014" transform="translate(32.251 12.415)" fill="#373f51"/>
            <path id="Trazado_771110" data-name="Trazado 771110" d="M168.269,54.742c0,.073-20.463.133-45.7.133s-45.7-.06-45.7-.133,20.459-.133,45.7-.133,45.7.06,45.7.133" transform="translate(33.428 23.749)" fill="#373f51"/>
            <path id="Trazado_771111" data-name="Trazado 771111" d="M168.269,44.948c0,.075-20.463.133-45.7.133s-45.7-.059-45.7-.133,20.459-.133,45.7-.133,45.7.06,45.7.133" transform="translate(33.428 19.49)" fill="#373f51"/>
            <path id="Trazado_771112" data-name="Trazado 771112" d="M168.269,35.105c0,.075-20.463.133-45.7.133s-45.7-.059-45.7-.133,20.459-.133,45.7-.133,45.7.06,45.7.133" transform="translate(33.428 15.209)" fill="#373f51"/>
            <path id="Trazado_771113" data-name="Trazado 771113" d="M168.269,64.535c0,.075-20.463.133-45.7.133s-45.7-.059-45.7-.133,20.459-.133,45.7-.133,45.7.06,45.7.133" transform="translate(33.428 28.008)" fill="#373f51"/>
            <path id="Trazado_771114" data-name="Trazado 771114" d="M77.522,92.283V79.815L85.294,67.75,90.567,71.8,101.39,54.983l6.384,4.5,8.882-15.51,7.216,5.879L134.7,29.271l11.657,23,9.436-11.506,11.1-3.177v54.7Z" transform="translate(33.714 12.73)" fill="#5573c6"/>
            <path id="Trazado_771115" data-name="Trazado 771115" d="M167.984,32s-.066.007-.2.01l-.58.01-2.253.02c-1.98.007-4.863.019-8.519.034l.059-.029L147.36,43.972l-.032.042h-.053l-22.855.023.109-.063c-3.008,5.008-6.253,10.412-9.61,16l-9.433,15.681-.1.166-.115-.156c-4.517-6.209-8.7-11.948-12.386-17.021l.181,0c-4.7,7.334-8.575,13.382-11.28,17.6-1.353,2.1-2.414,3.742-3.141,4.87q-.54.829-.831,1.273c-.188.287-.293.429-.293.429s.086-.155.265-.446l.8-1.29c.716-1.136,1.758-2.791,3.091-4.9l11.2-17.655.085-.135.095.129c3.7,5.064,7.889,10.8,12.418,17l-.214.01c2.989-4.976,6.154-10.244,9.424-15.686l9.62-15.992.037-.062h.073l22.855.023-.083.04c3.579-4.63,6.691-8.657,9.186-11.887l.023-.029h.036c3.656.016,6.539.027,8.519.034l2.253.02.58.01c.129,0,.2.01.2.01" transform="translate(33.714 13.885)" fill="#373f51"/>
            <path id="Trazado_771116" data-name="Trazado 771116" d="M91.433,53.541a.877.877,0,1,1-.877-.844.861.861,0,0,1,.877.844" transform="translate(39.002 22.918)" fill="#373f51"/>
            <path id="Trazado_771117" data-name="Trazado 771117" d="M109.805,43.1a.877.877,0,1,1-.877-.842.861.861,0,0,1,.877.842" transform="translate(46.992 18.377)" fill="#373f51"/>
            <path id="Trazado_771118" data-name="Trazado 771118" d="M124.088,40.533a.877.877,0,1,1-.877-.844.861.861,0,0,1,.877.844" transform="translate(53.203 17.261)" fill="#373f51"/>
            <path id="Trazado_771119" data-name="Trazado 771119" d="M61.6,16.32A1.019,1.019,0,1,1,60.579,15.3,1.019,1.019,0,0,1,61.6,16.32" transform="translate(25.903 6.654)" fill="#373f51"/>
            <path id="Trazado_771120" data-name="Trazado 771120" d="M63.662,16.32A1.019,1.019,0,1,1,62.643,15.3a1.019,1.019,0,0,1,1.019,1.019" transform="translate(26.8 6.654)" fill="#373f51"/>
            <path id="Trazado_771121" data-name="Trazado 771121" d="M65.727,16.32A1.019,1.019,0,1,1,64.708,15.3a1.019,1.019,0,0,1,1.019,1.019" transform="translate(27.698 6.654)" fill="#373f51"/>
            <line id="Línea_3584" data-name="Línea 3584" x2="132.059" transform="translate(82.119 26.983)" fill="#373f51"/>
            <path id="Trazado_771122" data-name="Trazado 771122" d="M189.289,18.845c0,.073-29.565.133-66.027.133s-66.033-.06-66.033-.133,29.559-.133,66.033-.133,66.027.06,66.027.133" transform="translate(24.889 8.138)" fill="#373f51"/>
          </g>
        </g>
        <g id="Grupo_1028327" data-name="Grupo 1028327">
          <g id="Grupo_1028326" data-name="Grupo 1028326" clip-path="url(#clip-path)">
            <path id="Trazado_771123" data-name="Trazado 771123" d="M.425,143.145,3.2,153.1a11.478,11.478,0,0,0,12.871,8.251s5.262,7.487,7.489,8.7l2.023,15.986h12l.951-6.476a63.1,63.1,0,0,0,27.3,4.857c15.2-.809,18.837-5.262,18.837-5.262l1.821,6.88h13.56l2.226-17.606s16.595-14.772,12.344-31.972c0,0,11.94-8.15,7.892-19.76l-2.428-1.085s-3.846,6.882-7.892,8.3c0,0-10.892-35.012-51.89-32.178A63.665,63.665,0,0,0,33.68,97.207S19.311,89.72,8.586,95.182c0,0-.2,12.344,5.867,19.429,0,0-5.262,11.737-5.666,14.164l-1.57.628A11.477,11.477,0,0,0,.425,143.145" transform="translate(0 39.827)" fill="#f4a338"/>
            <path id="Trazado_771124" data-name="Trazado 771124" d="M22.535,118.054a3.354,3.354,0,1,1-3.353-3.353,3.353,3.353,0,0,1,3.353,3.353" transform="translate(6.883 49.883)" fill="#373f51"/>
            <g id="Grupo_1028322" data-name="Grupo 1028322" transform="translate(44.868 137.519)" opacity="0.6">
              <g id="Grupo_1028321" data-name="Grupo 1028321">
                <g id="Grupo_1028320" data-name="Grupo 1028320" clip-path="url(#clip-path-6)">
                  <path id="Trazado_771125" data-name="Trazado 771125" d="M31.269,98.786l1.507,4.22s18.239-5.425,30,0l1.659-4.22s-14.32-6.632-33.162,0" transform="translate(-31.27 -95.839)"/>
                </g>
              </g>
            </g>
            <path id="Trazado_771126" data-name="Trazado 771126" d="M66.487,103.514a2.152,2.152,0,0,1-.337-.2c-.214-.138-.535-.331-.953-.573a22.729,22.729,0,0,0-3.714-1.683A28.527,28.527,0,0,0,55.6,99.707a47.2,47.2,0,0,0-7.407-.277,72.346,72.346,0,0,0-7.4.578,29.83,29.83,0,0,0-5.886,1.37,19.294,19.294,0,0,0-3.689,1.725c-.827.5-1.25.828-1.268.8a2.086,2.086,0,0,1,.3-.247,10.413,10.413,0,0,1,.911-.644,18.03,18.03,0,0,1,3.681-1.814,29.105,29.105,0,0,1,5.916-1.438,69.548,69.548,0,0,1,7.427-.6,45.767,45.767,0,0,1,7.447.3,27.676,27.676,0,0,1,5.919,1.422,20.847,20.847,0,0,1,3.7,1.772c.412.255.726.463.93.617a2.064,2.064,0,0,1,.307.24" transform="translate(13.023 43.111)" fill="#373f51"/>
            <g id="Grupo_1028325" data-name="Grupo 1028325" transform="translate(4.602 176.758)" opacity="0.2">
              <g id="Grupo_1028324" data-name="Grupo 1028324">
                <g id="Grupo_1028323" data-name="Grupo 1028323" clip-path="url(#clip-path-7)">
                  <path id="Trazado_771127" data-name="Trazado 771127" d="M6.7,124.964a3.733,3.733,0,0,0-.9-1.382,1.43,1.43,0,0,0-1.541-.273,2.174,2.174,0,0,0-.766,1.23,12.114,12.114,0,0,0,1.479,8.932,1.569,1.569,0,0,0,1.042.732c.92.156,1.4-.683,1.627-1.442a11.5,11.5,0,0,0-.941-7.8" transform="translate(-3.207 -123.185)"/>
                </g>
              </g>
            </g>
            <path id="Trazado_771128" data-name="Trazado 771128" d="M12.822,135.492a4.208,4.208,0,0,1,.013-.769c.016-.247.032-.548.024-.9s.016-.749-.02-1.188c-.02-.441-.046-.921-.115-1.435-.043-.517-.148-1.059-.244-1.633a23.305,23.305,0,0,0-1.036-3.632,23.261,23.261,0,0,0-1.662-3.392c-.313-.491-.6-.964-.911-1.376-.293-.428-.6-.8-.877-1.142s-.548-.634-.779-.9-.443-.478-.62-.65a4.291,4.291,0,0,1-.525-.564,4.315,4.315,0,0,1,.6.488,8.184,8.184,0,0,1,.656.623c.244.254.537.532.816.878s.607.707.91,1.134c.324.41.621.885.943,1.378a22.019,22.019,0,0,1,1.7,3.425,21.972,21.972,0,0,1,1.029,3.683c.09.581.188,1.132.222,1.654.06.519.075,1.007.083,1.452s-.009.845-.02,1.2a7.954,7.954,0,0,1-.07.9,4.193,4.193,0,0,1-.116.762" transform="translate(2.64 51.281)" fill="#373f51"/>
            <path id="Trazado_771129" data-name="Trazado 771129" d="M16.5,128.465c-.053.014-.251-.849-.818-2.145a15.819,15.819,0,0,0-1.177-2.182,17.419,17.419,0,0,0-1.881-2.378,17.384,17.384,0,0,0-2.3-1.979A15.976,15.976,0,0,0,8.2,118.516c-1.273-.621-2.127-.854-2.111-.905a2.653,2.653,0,0,1,.606.142,5.863,5.863,0,0,1,.692.227c.264.1.574.205.894.366a14.3,14.3,0,0,1,2.193,1.235,16.313,16.313,0,0,1,2.35,1.995,16.352,16.352,0,0,1,1.9,2.431,14.415,14.415,0,0,1,1.142,2.24c.146.327.237.64.329.91a5.811,5.811,0,0,1,.2.7,2.783,2.783,0,0,1,.118.61" transform="translate(2.646 51.147)" fill="#373f51"/>
            <path id="Trazado_771130" data-name="Trazado 771130" d="M3.611,124.356c0,.017-.1-.238.172-.527a1.04,1.04,0,0,1,.61-.291,1.129,1.129,0,0,1,.857.264,4.946,4.946,0,0,1,1.161,1.936,13.831,13.831,0,0,1,.775,2.634,13.667,13.667,0,0,1,.244,2.736,4.475,4.475,0,0,1-.4,2.218A1.341,1.341,0,0,1,5.686,134c-.377-.072-.492-.287-.481-.284a1.245,1.245,0,0,0,.494.181,1.244,1.244,0,0,0,1.164-.664,4.5,4.5,0,0,0,.321-2.124,14.6,14.6,0,0,0-.261-2.685,14.972,14.972,0,0,0-.74-2.593,5.057,5.057,0,0,0-1.052-1.881.968.968,0,0,0-1.274-.044.8.8,0,0,0-.245.452" transform="translate(1.562 53.722)" fill="#373f51"/>
            <path id="Trazado_771131" data-name="Trazado 771131" d="M22.978,125.743c.014-.007.083.1.171.307a3.376,3.376,0,0,1,.227.928,3.928,3.928,0,0,1-3.673,4.382,3.424,3.424,0,0,1-.954-.062c-.22-.05-.334-.1-.331-.115a10.951,10.951,0,0,0,1.268-.011,3.927,3.927,0,0,0,3.5-4.18,10.374,10.374,0,0,0-.209-1.25" transform="translate(8.009 54.685)" fill="#373f51"/>
            <path id="Trazado_771132" data-name="Trazado 771132" d="M22.305,111.681A13.057,13.057,0,0,0,19,110.82a13.121,13.121,0,0,0-3.406.294,2.762,2.762,0,0,1,.959-.366,7.628,7.628,0,0,1,4.873.412,2.745,2.745,0,0,1,.884.521" transform="translate(6.78 48.068)" fill="#373f51"/>
            <path id="Trazado_771133" data-name="Trazado 771133" d="M75.158,97.454a.581.581,0,0,1-.132-.04l-.375-.143L73.222,96.7l-1.03-.42c-.38-.145-.8-.278-1.25-.435-.9-.3-1.911-.692-3.071-.986l-1.805-.507c-.63-.172-1.3-.293-1.983-.451-1.365-.337-2.853-.545-4.411-.8a64.256,64.256,0,0,0-10.248-.524,64.406,64.406,0,0,0-10.185,1.271c-1.537.367-3,.683-4.342,1.119-.672.207-1.329.377-1.944.594s-1.2.435-1.763.637c-1.135.379-2.112.844-2.99,1.208-.435.189-.845.353-1.214.525l-1,.5L24.6,99.1l-.363.171a.539.539,0,0,1-.128.05.486.486,0,0,1,.115-.075l.35-.194c.33-.175.786-.416,1.363-.723l.989-.517c.366-.179.775-.352,1.208-.547.874-.379,1.85-.858,2.985-1.248l1.763-.656c.616-.224,1.274-.4,1.946-.611,1.34-.448,2.812-.772,4.353-1.148a62.984,62.984,0,0,1,10.228-1.3,62.714,62.714,0,0,1,10.293.547c1.564.26,3.056.478,4.425.825.686.162,1.356.29,1.986.468l1.807.525c1.161.306,2.168.713,3.068,1.026.446.164.867.3,1.245.456l1.023.443c.6.264,1.07.472,1.412.621.149.069.268.125.364.168a.563.563,0,0,1,.121.066" transform="translate(10.487 40.132)" fill="#fff"/>
            <path id="Trazado_771134" data-name="Trazado 771134" d="M64.887,98.655a5.434,5.434,0,0,1-1.611-.527,5.494,5.494,0,0,1-1.507-.772,5.4,5.4,0,0,1,1.609.525,5.447,5.447,0,0,1,1.51.773" transform="translate(26.863 42.335)" fill="#fff"/>
            <path id="Trazado_771135" data-name="Trazado 771135" d="M6.087,119.767c.017.046-.469.241-1.177.687a9.279,9.279,0,0,0-3.883,5.065c-.248.8-.31,1.319-.357,1.313-.019,0-.017-.133,0-.37a5.718,5.718,0,0,1,.174-1,8.421,8.421,0,0,1,3.967-5.174,6.057,6.057,0,0,1,.915-.428,1.056,1.056,0,0,1,.359-.1" transform="translate(0.286 52.085)" fill="#fff"/>
            <path id="Trazado_771136" data-name="Trazado 771136" d="M30.235,155.556c-.017.012-.089-.125-.307-.29a1.575,1.575,0,0,0-1.111-.27,1.923,1.923,0,0,0-1.462.934,4.184,4.184,0,0,0-.505,2.277l-.235-.01a2.851,2.851,0,0,0-.753-2.233,2.249,2.249,0,0,0-2.455-.509,1.751,1.751,0,0,0-1.046,1.29,1.707,1.707,0,0,0,.375,1.514l-.211.132a6.519,6.519,0,0,0-1.451-2.64,2.286,2.286,0,0,0-2.135-.669,1.724,1.724,0,0,0-1.118.981,2.245,2.245,0,0,0-.112.55.935.935,0,0,1,.033-.577,1.778,1.778,0,0,1,1.149-1.1,2.44,2.44,0,0,1,2.329.661,6.6,6.6,0,0,1,1.541,2.711l.209.573-.419-.442a1.959,1.959,0,0,1-.449-1.742,2.013,2.013,0,0,1,1.2-1.482,2.5,2.5,0,0,1,2.746.574,3.075,3.075,0,0,1,.8,2.438l-.234-.011a4.3,4.3,0,0,1,.578-2.385,2.131,2.131,0,0,1,.759-.72,2.073,2.073,0,0,1,.854-.247,1.6,1.6,0,0,1,1.168.35.877.877,0,0,1,.261.347" transform="translate(7.689 67.341)" fill="#373f51"/>
          </g>
        </g>
        <g id="Grupo_1028338" data-name="Grupo 1028338">
          <g id="Grupo_1028337" data-name="Grupo 1028337" clip-path="url(#clip-path)">
            <path id="Trazado_771137" data-name="Trazado 771137" d="M79.123,154.652l-.885,3.719s-6.084,7.9-7.961,7.516c-1.23-.254.283-2.314,2.6-8.317l.486-2.48Z" transform="translate(30.373 67.258)" fill="#5573c6"/>
            <path id="Trazado_771138" data-name="Trazado 771138" d="M69.972,163.863a.782.782,0,0,0,.324.311,1.131,1.131,0,0,0,1.165-.162,34.242,34.242,0,0,0,3.028-2.868c1.126-1.182,2.072-2.32,2.738-3.157l.776-1c.076-.1.145-.188.211-.274a.434.434,0,0,1,.08-.09.526.526,0,0,1-.062.1c-.062.09-.125.184-.2.286-.171.245-.425.6-.749,1.025a39.639,39.639,0,0,1-2.721,3.184,29.746,29.746,0,0,1-3.064,2.858,1.429,1.429,0,0,1-.687.253,1,1,0,0,1-.541-.118.668.668,0,0,1-.255-.238.346.346,0,0,1-.049-.11" transform="translate(30.431 68.114)" fill="#373f51"/>
            <path id="Trazado_771139" data-name="Trazado 771139" d="M70.572,159.916a.979.979,0,0,1,.5-.055,2.611,2.611,0,0,1,1.146.4,2.1,2.1,0,0,1,.834.881,1.091,1.091,0,0,1,.131.486c-.019,0-.057-.185-.2-.452a2.23,2.23,0,0,0-.821-.822,2.9,2.9,0,0,0-1.1-.415c-.3-.042-.489,0-.492-.022" transform="translate(30.692 69.521)" fill="#373f51"/>
            <path id="Trazado_771140" data-name="Trazado 771140" d="M74.654,159.741a.6.6,0,0,1-.073-.178,3.269,3.269,0,0,1-.119-.509,2.76,2.76,0,0,1,.283-1.692,2.619,2.619,0,0,1,1.23-1.2,1.977,1.977,0,0,1,.5-.155.518.518,0,0,1,.192-.012,4.174,4.174,0,0,0-.66.237,2.68,2.68,0,0,0-1.165,1.174,2.857,2.857,0,0,0-.306,1.633c.05.432.136.692.116.7" transform="translate(32.369 67.842)" fill="#373f51"/>
            <path id="Trazado_771141" data-name="Trazado 771141" d="M76.2,155.092c.027.01-.11.529-.225,1.187a4.052,4.052,0,0,1-.316,1.169c-.024-.009.1-.529.208-1.19a3.962,3.962,0,0,1,.333-1.167" transform="translate(32.904 67.449)" fill="#373f51"/>
            <path id="Trazado_771142" data-name="Trazado 771142" d="M71.878,157.066a1.823,1.823,0,0,1,1.485.343c-.016.027-.321-.135-.73-.227s-.753-.083-.755-.116" transform="translate(31.26 68.288)" fill="#373f51"/>
            <path id="Trazado_771143" data-name="Trazado 771143" d="M71.791,157.514a1.234,1.234,0,0,1,1.234.293c-.019.027-.261-.132-.6-.21s-.628-.052-.633-.083" transform="translate(31.222 68.475)" fill="#373f51"/>
            <path id="Trazado_771144" data-name="Trazado 771144" d="M71.452,158.088a1,1,0,0,1,1.257.286,1.694,1.694,0,0,0-1.257-.286" transform="translate(31.074 68.702)" fill="#373f51"/>
            <path id="Trazado_771145" data-name="Trazado 771145" d="M72.17,157.329c0-.019.281-.076.715-.244a5.3,5.3,0,0,0,.733-.353c.133-.076.27-.164.4-.258s.26-.227.255-.37-.185-.224-.324-.188a.883.883,0,0,0-.376.251c-.224.211-.415.412-.571.585-.31.347-.484.581-.5.571a.685.685,0,0,1,.1-.176c.073-.109.185-.264.334-.445a7.954,7.954,0,0,1,.56-.608.957.957,0,0,1,.422-.283.355.355,0,0,1,.458.286.61.61,0,0,1-.3.463,4.486,4.486,0,0,1-.418.26,4.8,4.8,0,0,1-.756.339,4.312,4.312,0,0,1-.538.146.621.621,0,0,1-.2.024" transform="translate(31.387 67.756)" fill="#373f51"/>
            <path id="Trazado_771146" data-name="Trazado 771146" d="M72.731,157.419a6.779,6.779,0,0,1-.112-.679,2.808,2.808,0,0,0-.207-.7,1.547,1.547,0,0,0-.227-.357c-.093-.106-.234-.2-.349-.129s-.129.232-.112.37a1.645,1.645,0,0,0,.119.409,2.344,2.344,0,0,0,.4.611c.283.313.5.463.491.479a.535.535,0,0,1-.161-.095,2.756,2.756,0,0,1-.386-.331,2.2,2.2,0,0,1-.433-.624,1.741,1.741,0,0,1-.132-.436.465.465,0,0,1,.165-.479.4.4,0,0,1,.481.152,1.559,1.559,0,0,1,.24.389,2.689,2.689,0,0,1,.192.733c.027.214.034.386.04.505a.658.658,0,0,1-.006.187" transform="translate(31.144 67.591)" fill="#373f51"/>
            <path id="Trazado_771147" data-name="Trazado 771147" d="M99.467,157.393l.029-4.96-9.292-.113-.119,7.258.577.044c2.561.172,13.04.7,14.761.2,1.918-.557-5.955-2.431-5.955-2.431" transform="translate(39.177 66.243)" fill="#5573c6"/>
            <path id="Trazado_771148" data-name="Trazado 771148" d="M89.995,157.228a.887.887,0,0,0,.159.02l.459.033,1.687.095c1.426.069,3.4.139,5.575.168s4.151.013,5.579-.019q1-.028,1.689-.049l.459-.02a.9.9,0,0,0,.161-.016.874.874,0,0,0-.161-.007h-.459l-1.69.013c-1.426.01-3.4.014-5.576-.014s-4.147-.088-5.573-.136l-1.689-.059-.459-.011a.861.861,0,0,0-.161,0" transform="translate(39.139 68.377)" fill="#373f51"/>
            <path id="Trazado_771149" data-name="Trazado 771149" d="M98.722,157.954a3.832,3.832,0,0,1,.326-.8,3.719,3.719,0,0,1,.584-.639,1.5,1.5,0,0,0-.91,1.441" transform="translate(42.927 68.066)" fill="#373f51"/>
            <path id="Trazado_771150" data-name="Trazado 771150" d="M96.819,156.756c.026.017.159-.141.3-.353s.23-.4.2-.415-.159.142-.3.353-.23.4-.2.415" transform="translate(42.105 67.839)" fill="#373f51"/>
            <path id="Trazado_771151" data-name="Trazado 771151" d="M96.3,156.4c.02.023.166-.073.329-.214s.277-.277.257-.3-.169.073-.331.215-.276.275-.254.3" transform="translate(41.879 67.791)" fill="#373f51"/>
            <path id="Trazado_771152" data-name="Trazado 771152" d="M95.974,155.637a2.135,2.135,0,0,0,.971.023,1.112,1.112,0,0,0-.485-.067,1.076,1.076,0,0,0-.486.044" transform="translate(41.739 67.666)" fill="#373f51"/>
            <path id="Trazado_771153" data-name="Trazado 771153" d="M95.866,155.194a.924.924,0,0,0,.54.164.959.959,0,0,0,.56-.066,2.887,2.887,0,0,0-.551-.046,3.151,3.151,0,0,0-.548-.052" transform="translate(41.692 67.49)" fill="#373f51"/>
            <path id="Trazado_771154" data-name="Trazado 771154" d="M97.045,156.21a1.731,1.731,0,0,0,.6,0,3.612,3.612,0,0,0,.637-.132,1.723,1.723,0,0,0,.366-.146.321.321,0,0,0,.151-.184.237.237,0,0,0-.088-.24,1.1,1.1,0,0,0-1.359.3,1.065,1.065,0,0,0-.2.395.336.336,0,0,0-.017.162,1.68,1.68,0,0,1,.278-.507,1.076,1.076,0,0,1,.514-.324.924.924,0,0,1,.712.057c.093.07.056.182-.05.244a1.833,1.833,0,0,1-.337.139,4.3,4.3,0,0,1-.617.152c-.359.059-.587.056-.587.075" transform="translate(42.205 67.578)" fill="#373f51"/>
            <path id="Trazado_771155" data-name="Trazado 771155" d="M97.386,156.335a.584.584,0,0,0,.075-.413.991.991,0,0,0-.158-.439.6.6,0,0,0-.494-.31.238.238,0,0,0-.188.273.657.657,0,0,0,.1.268,1.738,1.738,0,0,0,.277.364.865.865,0,0,0,.339.247c.011-.014-.118-.109-.28-.3a2.135,2.135,0,0,1-.245-.362c-.08-.128-.133-.354.017-.38s.3.138.389.258a.979.979,0,0,1,.165.39,2.294,2.294,0,0,1,0,.4" transform="translate(42.019 67.484)" fill="#373f51"/>
            <path id="Trazado_771156" data-name="Trazado 771156" d="M90.15,155.474c0,.022.267-.022.686.033a2.91,2.91,0,0,1,2.409,1.972c.136.4.146.667.168.664a.51.51,0,0,0,0-.187,2.478,2.478,0,0,0-.095-.5,2.825,2.825,0,0,0-2.477-2.026,2.4,2.4,0,0,0-.511.006.517.517,0,0,0-.184.04" transform="translate(39.206 67.591)" fill="#373f51"/>
            <path id="Trazado_771157" data-name="Trazado 771157" d="M90.892,152.771a16.232,16.232,0,0,0-.1,1.907,16.476,16.476,0,0,0,.007,1.911,15.915,15.915,0,0,0,.1-1.908,16.085,16.085,0,0,0-.007-1.91" transform="translate(39.475 66.44)" fill="#373f51"/>
            <path id="Trazado_771158" data-name="Trazado 771158" d="M93.256,156.737a7.616,7.616,0,0,0,2.715.06c0-.033-.61,0-1.357-.022s-1.353-.072-1.357-.039" transform="translate(40.557 68.16)" fill="#373f51"/>
            <path id="Trazado_771159" data-name="Trazado 771159" d="M91.988,156.717c-.023.023.047.129.108.27s.093.264.125.261.05-.145-.022-.307-.191-.247-.211-.224" transform="translate(40.004 68.154)" fill="#373f51"/>
            <path id="Trazado_771160" data-name="Trazado 771160" d="M91.518,156.115c-.023.022.036.119.131.218s.191.161.212.139-.036-.119-.131-.218-.189-.161-.212-.139" transform="translate(39.799 67.892)" fill="#373f51"/>
            <path id="Trazado_771161" data-name="Trazado 771161" d="M90.835,155.85c.006.032.129.032.265.082s.234.123.258.1-.052-.151-.221-.21-.311,0-.3.024" transform="translate(39.504 67.756)" fill="#373f51"/>
            <path id="Trazado_771162" data-name="Trazado 771162" d="M90.351,155.705c-.013.029.042.077.116.108s.149.033.161,0-.042-.077-.119-.108-.148-.033-.158,0" transform="translate(39.292 67.707)" fill="#373f51"/>
            <path id="Trazado_771163" data-name="Trazado 771163" d="M114.832,89.644l-3.564,93.126-14.47.3,2.4-80.691L82.926,183.691H69.168L86.89,89.833Z" transform="translate(30.081 38.986)" fill="#373f51"/>
            <path id="Trazado_771164" data-name="Trazado 771164" d="M93.506,92.005a9.313,9.313,0,0,1-.166,1.535c-.135.943-.339,2.243-.58,3.675a15.4,15.4,0,0,1-.413,2.023,2.86,2.86,0,0,1-.946,1.421,2.21,2.21,0,0,1-1.05.469.821.821,0,0,1-.42-.007,2.746,2.746,0,0,0,1.357-.6,2.781,2.781,0,0,0,.835-1.353,17.832,17.832,0,0,0,.386-1.993c.241-1.433.472-2.728.653-3.663a9.319,9.319,0,0,1,.344-1.505" transform="translate(39.11 40.013)" fill="#5573c6"/>
            <path id="Trazado_771165" data-name="Trazado 771165" d="M90.385,92.389c.032.023-.088.172-.019.419a.485.485,0,0,0,.242.31.438.438,0,0,0,.571-.5.49.49,0,0,0-.277-.281c-.235-.1-.4,0-.418-.034-.03-.014.133-.212.472-.138a.647.647,0,0,1,.443.372.655.655,0,0,1-.9.791.642.642,0,0,1-.31-.486c-.032-.346.187-.482.2-.451" transform="translate(39.221 40.075)" fill="#5573c6"/>
            <path id="Trazado_771166" data-name="Trazado 771166" d="M84.972,94.026a2.72,2.72,0,0,1,.276-2.584c.067.03-.142.578-.214,1.284s.01,1.284-.062,1.3" transform="translate(36.862 39.767)" fill="#5573c6"/>
            <path id="Trazado_771167" data-name="Trazado 771167" d="M86.186,93.981a2.255,2.255,0,0,1-.208-1.367,2.286,2.286,0,0,1,.4-1.327,11.648,11.648,0,0,1-.142,1.346,11.818,11.818,0,0,1-.046,1.349" transform="translate(37.387 39.7)" fill="#5573c6"/>
            <path id="Trazado_771168" data-name="Trazado 771168" d="M96.55,94.277a8.419,8.419,0,0,1,.082-1.4,8.4,8.4,0,0,1,.063-1.4,3.834,3.834,0,0,1-.145,2.8" transform="translate(41.979 39.784)" fill="#5573c6"/>
            <path id="Trazado_771169" data-name="Trazado 771169" d="M97.864,94.222c-.069-.03.156-.639.207-1.421s-.08-1.415-.007-1.435a3.012,3.012,0,0,1-.2,2.855" transform="translate(42.555 39.735)" fill="#5573c6"/>
            <path id="Trazado_771170" data-name="Trazado 771170" d="M87.381,69.73l8.934-.712c.056-1.045-.019-5.08-.019-5.08s3.716-.578,3.762-4.295-.6-12.25-.6-12.25a12.91,12.91,0,0,0-12.979,1.633l-.55.422Z" transform="translate(37.372 20.155)" fill="#ffbe9d"/>
            <path id="Trazado_771171" data-name="Trazado 771171" d="M94.628,58.987a8.644,8.644,0,0,1-4.846-1.378s1.146,2.675,4.854,2.34Z" transform="translate(39.046 25.054)" fill="#eb996e"/>
            <path id="Trazado_771172" data-name="Trazado 771172" d="M94.673,51.28a.531.531,0,0,1-.514.535.507.507,0,0,1-.547-.478.532.532,0,0,1,.511-.537.511.511,0,0,1,.55.479" transform="translate(40.712 22.093)" fill="#373f51"/>
            <path id="Trazado_771173" data-name="Trazado 771173" d="M95.506,50.889c-.066.069-.468-.228-1.039-.227s-.99.287-1.052.217c-.03-.03.037-.155.22-.288a1.455,1.455,0,0,1,.841-.26,1.412,1.412,0,0,1,.828.267c.175.135.235.26.2.291" transform="translate(40.623 21.889)" fill="#373f51"/>
            <path id="Trazado_771174" data-name="Trazado 771174" d="M90.652,51.375a.531.531,0,0,1-.512.535.507.507,0,0,1-.547-.478A.531.531,0,0,1,90.1,50.9a.509.509,0,0,1,.548.479" transform="translate(38.964 22.134)" fill="#373f51"/>
            <path id="Trazado_771175" data-name="Trazado 771175" d="M91.593,50.963c-.066.069-.469-.228-1.039-.227s-.99.287-1.052.217c-.03-.03.036-.155.22-.288a1.455,1.455,0,0,1,.841-.26,1.412,1.412,0,0,1,.828.267c.175.135.234.26.2.291" transform="translate(38.921 21.921)" fill="#373f51"/>
            <path id="Trazado_771176" data-name="Trazado 771176" d="M92.483,55.188a3.8,3.8,0,0,1,.927-.168c.146-.014.284-.043.309-.143a.741.741,0,0,0-.1-.432q-.207-.529-.432-1.111a19.1,19.1,0,0,1-.969-2.9,18.93,18.93,0,0,1,1.2,2.82c.145.39.283.762.413,1.118a.838.838,0,0,1,.076.573.365.365,0,0,1-.24.212.978.978,0,0,1-.248.034,3.666,3.666,0,0,1-.94,0" transform="translate(40.104 21.932)" fill="#373f51"/>
            <path id="Trazado_771177" data-name="Trazado 771177" d="M91.259,54.021c.093-.006.095.614.624,1.055s1.191.372,1.2.458c.009.039-.146.121-.426.129a1.546,1.546,0,0,1-1-.349,1.336,1.336,0,0,1-.484-.884c-.024-.258.044-.413.088-.409" transform="translate(39.648 23.494)" fill="#373f51"/>
            <path id="Trazado_771178" data-name="Trazado 771178" d="M91.85,49.364c-.056.155-.627.082-1.3.162s-1.211.264-1.3.125c-.04-.067.055-.212.273-.363A2.26,2.26,0,0,1,91.5,49.07c.247.1.37.221.346.294" transform="translate(38.812 21.282)" fill="#373f51"/>
            <path id="Trazado_771179" data-name="Trazado 771179" d="M95.312,49.747c-.1.129-.494,0-.967-.011-.472-.023-.874.088-.966-.049-.04-.066.023-.2.2-.319a1.4,1.4,0,0,1,1.557.049c.168.133.222.267.178.33" transform="translate(40.605 21.378)" fill="#373f51"/>
            <path id="Trazado_771180" data-name="Trazado 771180" d="M87,51.226c-.065-.027-2.556-.755-2.474,1.785a1.912,1.912,0,0,0,2.619,1.862c0-.073-.145-3.648-.145-3.648" transform="translate(36.76 22.227)" fill="#ffbe9d"/>
            <path id="Trazado_771181" data-name="Trazado 771181" d="M86.142,53.685c-.011-.007-.043.033-.116.069a.442.442,0,0,1-.331.017,1.094,1.094,0,0,1-.538-.966,1.461,1.461,0,0,1,.1-.639.513.513,0,0,1,.323-.35.224.224,0,0,1,.264.113c.037.07.023.121.036.125s.053-.044.03-.148a.284.284,0,0,0-.106-.156.335.335,0,0,0-.247-.057.624.624,0,0,0-.449.409,1.5,1.5,0,0,0-.131.713,1.149,1.149,0,0,0,.68,1.076.471.471,0,0,0,.4-.08c.076-.065.088-.122.079-.126" transform="translate(36.956 22.48)" fill="#eb996e"/>
            <path id="Trazado_771182" data-name="Trazado 771182" d="M101.751,45.837a3.931,3.931,0,0,0-6.1-1.174,3.847,3.847,0,0,0-6.322-.821c-.712.808-1.08,1.9-1.916,2.584-.722.587-1.7.783-2.428,1.366a2.805,2.805,0,0,0,1,4.89,3.013,3.013,0,0,0,1.482,4.092l.37-.154a5.287,5.287,0,0,0,.769-5.834c.046,0,.089-.006.133-.006A2.971,2.971,0,0,0,92.6,49.9a3.3,3.3,0,0,0,3.541.149,1.394,1.394,0,0,1,.534-.243,1.273,1.273,0,0,1,.666.2,3.123,3.123,0,0,0,1.8.363,1.736,1.736,0,0,0,1.35-.966l.043-.006a2,2,0,0,0,1.488-1.441,2.977,2.977,0,0,0-.274-2.116" transform="translate(36.503 18.502)" fill="#373f51"/>
            <path id="Trazado_771183" data-name="Trazado 771183" d="M111.4,83.348l.324-16.748c-2.972-2.92-4.559-3.794-8.7-4.283-.436-.052-.808-.09-1.126-.125l-.354-2.758L91.4,58.859l.507,3.273a25.009,25.009,0,0,0-3.943.756,9.862,9.862,0,0,0-7.571,6.281c-.65,2.184-4.817,18.368-4.817,18.368l-.848,4.886,9.31-3.379-.007,3.517.023,12.924h28.275c.075-3.081-.924-22.136-.924-22.136" transform="translate(32.497 25.598)" fill="#f4a338"/>
            <g id="Grupo_1028330" data-name="Grupo 1028330" transform="translate(107.22 84.457)" opacity="0.2">
              <g id="Grupo_1028329" data-name="Grupo 1028329">
                <g id="Grupo_1028328" data-name="Grupo 1028328" clip-path="url(#clip-path-9)">
                  <path id="Trazado_771184" data-name="Trazado 771184" d="M111.4,83.348l.324-16.748c-2.972-2.92-4.559-3.794-8.7-4.283-.436-.052-.808-.09-1.126-.125l-.354-2.758L91.4,58.859l.507,3.273a25.009,25.009,0,0,0-3.943.756,9.862,9.862,0,0,0-7.571,6.281c-.65,2.184-4.817,18.368-4.817,18.368l-.848,4.886,9.31-3.379-.007,3.517.023,12.924h28.275c.075-3.081-.924-22.136-.924-22.136" transform="translate(-74.723 -58.859)"/>
                </g>
              </g>
            </g>
            <path id="Trazado_771185" data-name="Trazado 771185" d="M78.979,79.609l13.937-1.98,2.649,4.744L82.609,88.214a5.595,5.595,0,0,1-7.473-2.976l-.419-1.022Z" transform="translate(32.494 33.761)" fill="#f4a338"/>
            <g id="Grupo_1028333" data-name="Grupo 1028333" transform="translate(107.212 111.389)" opacity="0.2">
              <g id="Grupo_1028332" data-name="Grupo 1028332">
                <g id="Grupo_1028331" data-name="Grupo 1028331" clip-path="url(#clip-path-10)">
                  <path id="Trazado_771186" data-name="Trazado 771186" d="M78.979,79.609l13.937-1.98,2.649,4.744L82.609,88.214a5.595,5.595,0,0,1-7.473-2.976l-.419-1.022Z" transform="translate(-74.718 -77.629)"/>
                </g>
              </g>
            </g>
            <path id="Trazado_771187" data-name="Trazado 771187" d="M98.183,61.982a10.283,10.283,0,0,1,5.592,5.13c1.079,2.471,2.665,14.366,2.665,14.366l2,3.857a6.5,6.5,0,0,1,.73,2.995v.588a6.5,6.5,0,0,1-5.929,6.479c-2,.178-4.411.257-4.927-.333a24.989,24.989,0,0,1-2.274-3.835l5.821-3.092-2.507-4.643Z" transform="translate(41.767 26.956)" fill="#f4a338"/>
            <g id="Grupo_1028336" data-name="Grupo 1028336" transform="translate(137.806 88.938)" opacity="0.2">
              <g id="Grupo_1028335" data-name="Grupo 1028335">
                <g id="Grupo_1028334" data-name="Grupo 1028334" clip-path="url(#clip-path-11)">
                  <path id="Trazado_771188" data-name="Trazado 771188" d="M98.183,61.982a10.283,10.283,0,0,1,5.592,5.13c1.079,2.471,2.665,14.366,2.665,14.366l2,3.857a6.5,6.5,0,0,1,.73,2.995v.588a6.5,6.5,0,0,1-5.929,6.479c-2,.178-4.411.257-4.927-.333a24.989,24.989,0,0,1-2.274-3.835l5.821-3.092-2.507-4.643Z" transform="translate(-96.039 -61.982)"/>
                </g>
              </g>
            </g>
            <path id="Trazado_771189" data-name="Trazado 771189" d="M82.41,87.817a1.138,1.138,0,0,1,.225-.126l.667-.324L85.8,86.2l8.539-3.9-.057.175-1.636-2.923-1.014-1.821.123.065-10.209,1-3.035.271-.819.062a1.284,1.284,0,0,1-.287.006,1.281,1.281,0,0,1,.281-.053l.815-.106,3.028-.347,10.2-1.086.082-.009.042.073,1.017,1.819c.558,1,1.1,1.982,1.63,2.926l.066.121-.123.055L85.87,86.347l-2.531,1.1-.684.286a1.187,1.187,0,0,1-.244.085" transform="translate(33.665 33.72)" fill="#373f51"/>
            <path id="Trazado_771190" data-name="Trazado 771190" d="M82.657,81.422c-.07,0-.128-2.491-.128-5.565s.057-5.565.128-5.565.128,2.491.128,5.565-.057,5.565-.128,5.565" transform="translate(35.892 30.57)" fill="#373f51"/>
            <path id="Trazado_771191" data-name="Trazado 771191" d="M100.364,80.667a1.266,1.266,0,0,1,.423-.067,3.9,3.9,0,0,1,1.175.072,1.391,1.391,0,0,1,.738.416,1.933,1.933,0,0,1,.386.888,2.075,2.075,0,0,1-.1,1.062,1.971,1.971,0,0,1-.7.9,5.261,5.261,0,0,1-2.019.72,9.231,9.231,0,0,1-1.728.168,3.125,3.125,0,0,1-1.568-.274,8.108,8.108,0,0,0,1.565.093,10.357,10.357,0,0,0,1.685-.218,5.327,5.327,0,0,0,1.916-.7,1.819,1.819,0,0,0,.4-2.512,1.237,1.237,0,0,0-.623-.377,4.619,4.619,0,0,0-1.125-.145,1.536,1.536,0,0,1-.426-.033" transform="translate(42.172 35.046)" fill="#373f51"/>
            <path id="Trazado_771192" data-name="Trazado 771192" d="M102.676,86.156a2.945,2.945,0,0,1-1,.119,6.358,6.358,0,0,1-2.406-.4,5.182,5.182,0,0,1-1.2-.637,2.865,2.865,0,0,1-.74-.837,2.186,2.186,0,0,1-.357-.948c.04-.016.172.35.508.851a3.009,3.009,0,0,0,.729.745,5.681,5.681,0,0,0,1.151.59,7.559,7.559,0,0,0,2.319.456,6.1,6.1,0,0,1,1,.062" transform="translate(42.171 36.293)" fill="#373f51"/>
            <path id="Trazado_771193" data-name="Trazado 771193" d="M104.44,76.925a4.94,4.94,0,0,1-.687.826c-.448.491-1.079,1.157-1.786,1.883s-1.357,1.373-1.838,1.834a4.532,4.532,0,0,1-.815.707,4.59,4.59,0,0,1,.686-.834c.448-.492,1.078-1.159,1.785-1.885a24.757,24.757,0,0,1,2.656-2.531" transform="translate(43.191 33.453)" fill="#373f51"/>
            <path id="Trazado_771194" data-name="Trazado 771194" d="M98.5,77.041a19.962,19.962,0,0,1-.128-3.181,19.947,19.947,0,0,1,.128-3.181,19.944,19.944,0,0,1,.128,3.181,19.958,19.958,0,0,1-.128,3.181" transform="translate(42.783 30.738)" fill="#373f51"/>
            <path id="Trazado_771195" data-name="Trazado 771195" d="M108.4,63.525c0,.073-6.272.133-14.006.133s-14.006-.06-14.006-.133,6.269-.133,14.006-.133,14.006.06,14.006.133" transform="translate(34.961 27.569)" fill="#fafafa"/>
            <path id="Trazado_771196" data-name="Trazado 771196" d="M96.4,61.3a43.771,43.771,0,0,1-4.831.106,43.791,43.791,0,0,1-4.83-.161,43.368,43.368,0,0,1,4.831-.106,43.79,43.79,0,0,1,4.83.161" transform="translate(37.721 26.587)" fill="#373f51"/>
            <path id="Trazado_771197" data-name="Trazado 771197" d="M112.345,67.469c0,.075-7.616.133-17.009.133s-17.011-.059-17.011-.133,7.614-.133,17.011-.133,17.009.06,17.009.133" transform="translate(34.063 29.284)" fill="#fafafa"/>
            <path id="Trazado_771198" data-name="Trazado 771198" d="M113.91,71.524c0,.075-8.232.133-18.382.133s-18.385-.059-18.385-.133,8.229-.133,18.385-.133,18.382.06,18.382.133" transform="translate(33.549 31.048)" fill="#fafafa"/>
            <path id="Trazado_771199" data-name="Trazado 771199" d="M114.985,75.466c0,.073-8.687.133-19.4.133s-19.4-.06-19.4-.133,8.685-.133,19.4-.133,19.4.06,19.4.133" transform="translate(33.132 32.762)" fill="#fafafa"/>
            <path id="Trazado_771200" data-name="Trazado 771200" d="M118.125,81.886c0,.073-9.654.133-21.561.133S75,81.96,75,81.886s9.653-.133,21.562-.133,21.561.06,21.561.133" transform="translate(32.618 35.554)" fill="#fafafa"/>
            <path id="Trazado_771201" data-name="Trazado 771201" d="M109.359,86.391c0,.073-6.368.133-14.221.133s-14.224-.06-14.224-.133,6.368-.133,14.224-.133,14.221.06,14.221.133" transform="translate(35.189 37.513)" fill="#fafafa"/>
            <path id="Trazado_771202" data-name="Trazado 771202" d="M99.921,76.53l-.3-.227a6.962,6.962,0,0,0-5.484-1.268,9.546,9.546,0,0,0-4.27,2.006l-2.388,1.966,2.54,4.549,1.728-2.418s1.613,2.188,1.9,1.957a3.689,3.689,0,0,0,.634-.921L93.125,80.56l2.765.577,4.031-1.844-1.728-2.188,1.728.577Z" transform="translate(38.043 32.579)" fill="#ffbe9d"/>
            <path id="Trazado_771203" data-name="Trazado 771203" d="M95.871,76.371,87,87.112l.68.736,14.393-2.194,7.139-10.742-.663-.6Z" transform="translate(37.837 32.32)" fill="#373f51"/>
            <path id="Trazado_771204" data-name="Trazado 771204" d="M103.9,77.724h0a1.371,1.371,0,0,0-1.28.874,2.947,2.947,0,0,1-.871,1.393,3.081,3.081,0,0,1-2.326.343c-.583-.284-2.909-2.378-3.315-2.145s-.756.756-.349,1.221,2.558,1.861,2.151,2.326-4.943-1.583-5.641-1.4-1.1.61-.7.89,3.488,1.443,3.663,1.85c0,0-4.652-1.221-4.827-.93s-.465.756,0,.93,4.478,1.221,4.827,1.4a8.5,8.5,0,0,0,1.794.524,19.02,19.02,0,0,1,1.873.594,4.112,4.112,0,0,0,2.894-.077l.471-.192a1.846,1.846,0,0,0,1.146-1.821l-.095-1.586.507-1.309Z" transform="translate(39.212 33.802)" fill="#ffbe9d"/>
            <path id="Trazado_771205" data-name="Trazado 771205" d="M109.018,74.8a1.148,1.148,0,0,1-.267.065l-.768.136-2.84.456-4.21.643-2.487.376a4.768,4.768,0,0,0-2.408.976,16.129,16.129,0,0,0-1.756,2.016c-.544.68-1.072,1.337-1.574,1.963-1,1.241-1.907,2.363-2.676,3.316L88.209,86.97c-.2.241-.37.438-.505.6a1.15,1.15,0,0,1-.188.2,1.03,1.03,0,0,1,.148-.228c.123-.166.278-.373.469-.626.438-.565,1.032-1.334,1.759-2.273.756-.961,1.649-2.095,2.633-3.349.5-.628,1.022-1.289,1.563-1.972a15.873,15.873,0,0,1,1.786-2.055,4.962,4.962,0,0,1,2.531-1.027l2.492-.363c1.58-.221,3.008-.42,4.221-.588l2.85-.376.776-.089a1.061,1.061,0,0,1,.273-.014" transform="translate(38.06 32.529)" fill="#5573c6"/>
            <path id="Trazado_771206" data-name="Trazado 771206" d="M97.955,76.441a1.222,1.222,0,0,0-.4.324.415.415,0,0,0-.017.482.446.446,0,0,0,.594.01.58.58,0,0,0,.23-.344.408.408,0,0,0-.123-.385.315.315,0,0,0-.39-.016" transform="translate(42.389 33.244)" fill="#fafafa"/>
          </g>
        </g>
        <g id="Grupo_1028340" data-name="Grupo 1028340">
          <g id="Grupo_1028339" data-name="Grupo 1028339" clip-path="url(#clip-path)">
            <path id="Trazado_771207" data-name="Trazado 771207" d="M76.214,66.676l-2.607-4.595a12.308,12.308,0,1,0-2.949,3.28l0,.006Z" transform="translate(22.114 18.855)" fill="#f4a338"/>
            <path id="Trazado_771208" data-name="Trazado 771208" d="M56.429,51.427a1.623,1.623,0,1,1,1.616,1.817,1.63,1.63,0,0,1-1.616-1.817m2.294,0c0-.706-.27-1.045-.679-1.045s-.677.349-.677,1.045.278,1.045.677,1.045.679-.339.679-1.045m3.194-1.741h1.1l-4.438,6.589H57.478ZM60.85,54.533a1.623,1.623,0,1,1,1.607,1.817,1.629,1.629,0,0,1-1.607-1.817m2.284,0c0-.7-.27-1.045-.677-1.045s-.679.339-.679,1.045.278,1.045.679,1.045.677-.349.677-1.045" transform="translate(24.541 21.575)" fill="#fff"/>
          </g>
        </g>
      </g>
    </g>
  </g>
</svg>
