<svg xmlns="http://www.w3.org/2000/svg" xmlns:xlink="http://www.w3.org/1999/xlink" width="401" height="391" viewBox="0 0 401 391">
  <defs>
    <clipPath id="clip-path">
      <rect id="Rectángulo_363273" data-name="Rectángulo 363273" width="398.358" height="223.537" fill="none"/>
    </clipPath>
    <clipPath id="clip-path-2">
      <rect id="Rectángulo_363272" data-name="Rectángulo 363272" width="398.358" height="223.538" fill="none"/>
    </clipPath>
    <clipPath id="clip-path-3">
      <rect id="Rectángulo_363261" data-name="Rectángulo 363261" width="15.972" height="15.971" fill="none"/>
    </clipPath>
    <clipPath id="clip-path-4">
      <rect id="Rectángulo_363262" data-name="Rectángulo 363262" width="15.971" height="15.971" fill="none"/>
    </clipPath>
    <clipPath id="clip-path-5">
      <rect id="Rectángulo_363267" data-name="Rectángulo 363267" width="93.092" height="92.041" fill="none"/>
    </clipPath>
  </defs>
  <g id="Grupo_1033336" data-name="Grupo 1033336" transform="translate(8086 -11368)">
    <rect id="Rectángulo_361888" data-name="Rectángulo 361888" width="401" height="391" transform="translate(-8086 11368)" fill="#efeeee"/>
    <g id="Grupo_1028313" data-name="Grupo 1028313" transform="translate(-8085 11452)">
      <g id="Grupo_1028312" data-name="Grupo 1028312" clip-path="url(#clip-path)">
        <g id="Grupo_1028311" data-name="Grupo 1028311" transform="translate(0 -0.001)">
          <g id="Grupo_1028310" data-name="Grupo 1028310" clip-path="url(#clip-path-2)">
            <path id="Trazado_770948" data-name="Trazado 770948" d="M57.768,102.543c54.412-20.2,109.714-2.341,147.221,36.555s116.221-26.847,157.967,11.986c28.49,26.5,15.44,94.639-23.624,124.151-53.1,40.113-214.573,19.759-249.5,12.933C49.588,280.3,20.168,256.441,8.215,227.48c-28.8-69.782,25.508-116.011,49.554-124.937" transform="translate(0 -81.82)" fill="#fff"/>
            <path id="Trazado_770949" data-name="Trazado 770949" d="M1270.278,48.78a45.148,45.148,0,0,0,.282-5.015c0-.895-.029-1.783-.081-2.665l-8.287-2.681a36.434,36.434,0,0,0-2.934-9.929l5.495-6.762A44.759,44.759,0,0,0,1260.4,15.4l-8.288,2.7a36.818,36.818,0,0,0-8.2-6.307l.472-8.708a44.311,44.311,0,0,0-7.235-2.564l-5.118,7.062a36.854,36.854,0,0,0-10.346-.271L1216.941,0a44.318,44.318,0,0,0-7.361,2.175l.011,8.721a36.758,36.758,0,0,0-8.527,5.865l-8.131-3.137a44.843,44.843,0,0,0-4.682,6.088l5.131,7.044a36.429,36.429,0,0,0-3.459,9.759l-8.416,2.239a45.116,45.116,0,0,0-.282,5.015c0,.895.029,1.782.081,2.664l8.287,2.681a36.428,36.428,0,0,0,2.934,9.929l-5.495,6.762a44.771,44.771,0,0,0,4.353,6.327l8.288-2.7a36.826,36.826,0,0,0,8.2,6.307l-.471,8.707A44.344,44.344,0,0,0,1214.64,87l5.118-7.062a36.867,36.867,0,0,0,10.346.271l4.738,7.324a44.322,44.322,0,0,0,7.361-2.175l-.011-8.721a36.771,36.771,0,0,0,8.527-5.865l8.131,3.137a44.848,44.848,0,0,0,4.683-6.088l-5.131-7.044a36.418,36.418,0,0,0,3.459-9.759Zm-44.386,12.5a17.52,17.52,0,1,1,17.52-17.519,17.52,17.52,0,0,1-17.52,17.519" transform="translate(-1026.527 0.005)" fill="#4adbd1"/>
            <path id="Trazado_770950" data-name="Trazado 770950" d="M1700.408,284.459a.655.655,0,0,1-.5-1.074,29.639,29.639,0,0,0,5.222-28.548.655.655,0,1,1,1.238-.426,30.949,30.949,0,0,1-5.453,29.812.654.654,0,0,1-.5.236" transform="translate(-1477.149 -220.708)" fill="#4adbd1"/>
            <path id="Trazado_770951" data-name="Trazado 770951" d="M1611.946,119.78a.653.653,0,0,1-.449-.178,29.418,29.418,0,0,0-10.187-6.277.655.655,0,0,1,.447-1.231,30.725,30.725,0,0,1,10.638,6.554.655.655,0,0,1-.449,1.132" transform="translate(-1391.223 -97.379)" fill="#4adbd1"/>
            <path id="Trazado_770952" data-name="Trazado 770952" d="M1466.063,100.5a.655.655,0,0,1-.16-1.29,31.017,31.017,0,0,1,7.586-.938.655.655,0,0,1,0,1.31,29.706,29.706,0,0,0-7.265.9.653.653,0,0,1-.161.02" transform="translate(-1273.494 -85.402)" fill="#4adbd1"/>
            <path id="Trazado_770953" data-name="Trazado 770953" d="M376.715,995.319a31.271,31.271,0,0,0,.2-3.474c0-.62-.02-1.235-.056-1.845l-5.74-1.857a25.23,25.23,0,0,0-2.032-6.877l3.806-4.683a31,31,0,0,0-3.015-4.383l-5.741,1.873a25.511,25.511,0,0,0-5.683-4.368l.327-6.031a30.728,30.728,0,0,0-5.011-1.776l-3.545,4.892a25.531,25.531,0,0,0-7.166-.188l-3.282-5.073a30.711,30.711,0,0,0-5.1,1.507l.008,6.04a25.467,25.467,0,0,0-5.906,4.063l-5.632-2.173a31.075,31.075,0,0,0-3.243,4.217l3.554,4.879a25.231,25.231,0,0,0-2.4,6.76l-5.829,1.551a31.273,31.273,0,0,0-.2,3.474c0,.62.02,1.235.056,1.845l5.74,1.857a25.223,25.223,0,0,0,2.032,6.877l-3.806,4.683a31.009,31.009,0,0,0,3.015,4.383l5.741-1.873a25.5,25.5,0,0,0,5.683,4.368l-.327,6.031a30.717,30.717,0,0,0,5.011,1.776l3.545-4.892a25.512,25.512,0,0,0,7.166.188l3.282,5.073a30.7,30.7,0,0,0,5.1-1.507l-.007-6.04a25.46,25.46,0,0,0,5.906-4.063l5.632,2.173a31.042,31.042,0,0,0,3.243-4.217l-3.554-4.879a25.228,25.228,0,0,0,2.4-6.76Zm-30.744,8.661a12.135,12.135,0,1,1,12.135-12.135,12.135,12.135,0,0,1-12.135,12.135" transform="translate(-273.775 -835.603)" fill="#4adbd1"/>
            <path id="Trazado_770954" data-name="Trazado 770954" d="M673.305,1157.426a.655.655,0,0,1-.5-1.073,20.328,20.328,0,0,0,3.582-19.579.655.655,0,1,1,1.238-.426,21.639,21.639,0,0,1-3.813,20.843.654.654,0,0,1-.5.236" transform="translate(-584.558 -987.142)" fill="#4adbd1"/>
            <path id="Trazado_770955" data-name="Trazado 770955" d="M612.032,1043.36a.653.653,0,0,1-.449-.178,20.174,20.174,0,0,0-6.986-4.3.655.655,0,1,1,.447-1.231,21.483,21.483,0,0,1,7.438,4.582.655.655,0,0,1-.449,1.132" transform="translate(-525.042 -901.718)" fill="#4adbd1"/>
            <path id="Trazado_770956" data-name="Trazado 770956" d="M510.988,1030.009a.655.655,0,0,1-.16-1.29,21.687,21.687,0,0,1,5.3-.656.655.655,0,0,1,0,1.31,20.38,20.38,0,0,0-4.983.616.663.663,0,0,1-.161.02" transform="translate(-443.499 -893.424)" fill="#4adbd1"/>
            <path id="Trazado_770957" data-name="Trazado 770957" d="M1790.528,478.927c0-.339-.01-.675-.028-1.009l4.3-3.453a22.894,22.894,0,0,0-1.562-4.941l-5.553-.42a18.476,18.476,0,0,0-4.807-5.1l-.018-5.533a22.919,22.919,0,0,0-4.924-1.9l-3.795,4.084a18.582,18.582,0,0,0-1.992-.108,18.4,18.4,0,0,0-4.832.643l-4.352-3.447a23.049,23.049,0,0,0-4.6,2.67l.823,5.486a18.412,18.412,0,0,0-3.876,5.657l-5.414,1.255a23.053,23.053,0,0,0-.8,5.219l4.768,2.757a18.257,18.257,0,0,0,2.04,6.738l-2.387,5a23.2,23.2,0,0,0,3.508,3.818l5.113-2a18.269,18.269,0,0,0,6.742,2.675l2.41,4.962c.287.011.575.018.865.018a23.2,23.2,0,0,0,4.228-.388l1.625-5.256a18.357,18.357,0,0,0,6.344-3.683l5.374,1.208a23.1,23.1,0,0,0,2.863-4.228l-3.115-4.575a18.347,18.347,0,0,0,1.054-6.146m-18.58,8.1a7.741,7.741,0,1,1,7.741-7.741,7.741,7.741,0,0,1-7.741,7.741" transform="translate(-1520.028 -396.777)" fill="#4adbd1"/>
            <g id="Grupo_1028303" data-name="Grupo 1028303" transform="translate(330.743 21.583)" opacity="0.8">
              <g id="Grupo_1028302" data-name="Grupo 1028302">
                <g id="Grupo_1028301" data-name="Grupo 1028301" clip-path="url(#clip-path-3)">
                  <path id="Trazado_770958" data-name="Trazado 770958" d="M2536.787,180.771h-6.653a4.664,4.664,0,0,1-4.659-4.659v-6.653a4.664,4.664,0,0,1,4.659-4.659h6.653a4.664,4.664,0,0,1,4.659,4.659v6.653a4.664,4.664,0,0,1-4.659,4.659m-6.653-14.138a2.829,2.829,0,0,0-2.826,2.826v6.653a2.829,2.829,0,0,0,2.826,2.826h6.653a2.829,2.829,0,0,0,2.826-2.826v-6.653a2.829,2.829,0,0,0-2.826-2.826Z" transform="translate(-2525.474 -164.8)" fill="#5573c6"/>
                </g>
              </g>
            </g>
            <g id="Grupo_1028306" data-name="Grupo 1028306" transform="translate(299.439 21.583)" opacity="0.8">
              <g id="Grupo_1028305" data-name="Grupo 1028305">
                <g id="Grupo_1028304" data-name="Grupo 1028304" clip-path="url(#clip-path-4)">
                  <path id="Trazado_770959" data-name="Trazado 770959" d="M2297.751,180.771H2291.1a4.664,4.664,0,0,1-4.659-4.659v-6.653a4.664,4.664,0,0,1,4.659-4.659h6.653a4.664,4.664,0,0,1,4.659,4.659v6.653a4.664,4.664,0,0,1-4.659,4.659m-6.653-14.138a2.829,2.829,0,0,0-2.826,2.826v6.653a2.829,2.829,0,0,0,2.826,2.826h6.653a2.829,2.829,0,0,0,2.826-2.826v-6.653a2.829,2.829,0,0,0-2.826-2.826Z" transform="translate(-2286.439 -164.8)" fill="#5573c6"/>
                </g>
              </g>
            </g>
            <path id="Trazado_770960" data-name="Trazado 770960" d="M2313.645,163.971h-.038a.785.785,0,0,1-.585-.307l-4.782-6.237a.786.786,0,0,1,1.247-.956l4.217,5.5,11.01-11.8a.786.786,0,0,1,1.149,1.072l-11.643,12.475a.786.786,0,0,1-.574.25" transform="translate(-2005.804 -130.289)" fill="#f4a338"/>
            <path id="Trazado_770961" data-name="Trazado 770961" d="M544.554,1575.761c-27.237-1.331-119.892.924-148.071,1.8s-60.889-1.16-77.88-4.16-115.2.255-110.748,8.32,43.759,3.608,88.328,6.849,144.806-.405,167.416,0,43.344-.81,72.481-2.431,24.261-9.61,8.474-10.382" transform="translate(-180.506 -1366.391)" fill="#c1c1c1"/>
            <rect id="Rectángulo_363263" data-name="Rectángulo 363263" width="56.936" height="93.321" transform="translate(28.718 40.734)" fill="#5573c6"/>
            <rect id="Rectángulo_363264" data-name="Rectángulo 363264" width="52.082" height="87.862" transform="translate(31.7 42.636)" fill="#fff"/>
            <path id="Trazado_770962" data-name="Trazado 770962" d="M361,557.632c1.96-4.217,5.278-5.568,10.726-5.568,6.487,0,9.855,2.35,10.81,5.771-11.617.159-21.537-.2-21.537-.2" transform="translate(-313.723 -479.763)" fill="#9bd6e8"/>
            <path id="Trazado_770963" data-name="Trazado 770963" d="M371.2,394.2c-2.746.771-2.626,2.314-3.541,3.746s-2.9,2.387-3.143,3.342.613,2.944-.4,4.058-1.353,1.671-.955,2.785,1.273,2.864,1.353,3.1a4.459,4.459,0,0,0,2.546,2.148,28.7,28.7,0,0,1,5.172,1.194c1.273.557,5.366-.713,7.639-.633s3.819-1.594,3.66-2.708,1.676-3.342,1.671-5.251c0-2.051-2.387-3.581-3.024-4.933s.08-3.74-2.307-5.154c-1.509-.894-2.546-.814-3.74-1.212a8.853,8.853,0,0,0-4.933-.484" transform="translate(-315.466 -342.407)" fill="#373f51"/>
            <path id="Trazado_770964" data-name="Trazado 770964" d="M428.947,486.954c-.621.917-1.076.955-1.751,0a8.717,8.717,0,0,1-1.591-3.359v-8.735a1.6,1.6,0,0,1,1.591-1.591h1.751a1.6,1.6,0,0,1,1.591,1.591v8.735c0,.875-1.034,2.537-1.591,3.359" transform="translate(-369.866 -411.287)" fill="#f09959"/>
            <path id="Trazado_770965" data-name="Trazado 770965" d="M428.947,473.268H427.2a1.6,1.6,0,0,0-1.591,1.591v7.794c1.966.626,3.759-.618,4.933-2.02v-5.774a1.6,1.6,0,0,0-1.591-1.591" transform="translate(-369.866 -411.287)" fill="#e38540"/>
            <path id="Trazado_770966" data-name="Trazado 770966" d="M414.62,426.1c0,3.982-2.369,7.21-5.291,7.21s-5.291-3.228-5.291-7.21,2.369-7.21,5.291-7.21,5.291,3.228,5.291,7.21" transform="translate(-351.123 -364.031)" fill="#f09959"/>
            <path id="Trazado_770967" data-name="Trazado 770967" d="M408.364,411.244c-3.342,5.649-8.275,5.092-8.275,5.092s.119-7.479,4.038-7.877,6.226,1.175,7.022,3.77a6.4,6.4,0,0,1,0,4.306,6.87,6.87,0,0,1-1.91-2.586,18.578,18.578,0,0,1-.875-2.705" transform="translate(-347.692 -354.912)" fill="#373f51"/>
            <path id="Trazado_770968" data-name="Trazado 770968" d="M389.578,463.923c.495,1.042.333,2.154-.362,2.484s-1.659-.247-2.154-1.289-.333-2.154.362-2.484,1.659.247,2.154,1.289" transform="translate(-336.123 -401.965)" fill="#f09959"/>
            <path id="Trazado_770969" data-name="Trazado 770969" d="M476.982,463.923c-.495,1.042-.333,2.154.362,2.484s1.659-.247,2.154-1.289.333-2.154-.362-2.484-1.659.247-2.154,1.289" transform="translate(-414.266 -401.965)" fill="#f09959"/>
            <path id="Trazado_770970" data-name="Trazado 770970" d="M433.229,503.8a2.291,2.291,0,0,1-3.978,0Z" transform="translate(-373.035 -437.821)" fill="#fff"/>
            <path id="Trazado_770971" data-name="Trazado 770971" d="M393.556,661.29H380.194a1.554,1.554,0,0,1,0-3.108h13.362a1.554,1.554,0,0,1,0,3.108" transform="translate(-329.052 -571.984)" fill="#5573c6"/>
            <path id="Trazado_770972" data-name="Trazado 770972" d="M379.767,697.742H361.512a1.554,1.554,0,1,1,0-3.107h18.256a1.554,1.554,0,1,1,0,3.107" transform="translate(-312.817 -603.663)" fill="#5573c6"/>
            <path id="Trazado_770973" data-name="Trazado 770973" d="M310.405,837.493H266a.9.9,0,0,1,0-1.8h44.407a.9.9,0,0,1,0,1.8" transform="translate(-230.379 -726.245)" fill="#5573c6"/>
            <path id="Trazado_770974" data-name="Trazado 770974" d="M310.405,869.488H266a.9.9,0,0,1,0-1.8h44.407a.9.9,0,0,1,0,1.8" transform="translate(-230.379 -754.05)" fill="#5573c6"/>
            <path id="Trazado_770975" data-name="Trazado 770975" d="M310.405,901.484H266a.9.9,0,0,1,0-1.8h44.407a.9.9,0,0,1,0,1.8" transform="translate(-230.379 -781.855)" fill="#5573c6"/>
            <path id="Trazado_770976" data-name="Trazado 770976" d="M340.709,385.518H308.725a1.611,1.611,0,0,1-1.61-1.61V354.43a1.612,1.612,0,0,1,1.61-1.61h31.985a1.611,1.611,0,0,1,1.61,1.61v29.478a1.611,1.611,0,0,1-1.61,1.61M308.725,354.13a.3.3,0,0,0-.3.3v29.478a.3.3,0,0,0,.3.3h31.985a.3.3,0,0,0,.3-.3V354.43a.3.3,0,0,0-.3-.3Z" transform="translate(-266.894 -306.613)" fill="#5573c6"/>
            <path id="Trazado_770977" data-name="Trazado 770977" d="M334.764,749.315l.926,1.876,2.071.3-1.5,1.461.354,2.062-1.852-.974-1.852.974.354-2.062-1.5-1.461,2.07-.3Z" transform="translate(-288.318 -651.181)" fill="#5573c6"/>
            <path id="Trazado_770978" data-name="Trazado 770978" d="M392.678,749.315l.926,1.876,2.071.3-1.5,1.461.354,2.062-1.852-.974-1.852.974.354-2.062-1.5-1.461,2.071-.3Z" transform="translate(-338.648 -651.181)" fill="#5573c6"/>
            <path id="Trazado_770979" data-name="Trazado 770979" d="M450.593,749.315l.926,1.876,2.07.3-1.5,1.461.354,2.062-1.852-.974-1.852.974.354-2.062-1.5-1.461,2.07-.3Z" transform="translate(-388.978 -651.181)" fill="#5573c6"/>
            <path id="Trazado_770980" data-name="Trazado 770980" d="M508.507,749.315l.926,1.876,2.071.3-1.5,1.461.354,2.062-1.852-.974-1.852.974.354-2.062-1.5-1.461,2.071-.3Z" transform="translate(-439.307 -651.181)" fill="#5573c6"/>
            <rect id="Rectángulo_363265" data-name="Rectángulo 363265" width="56.935" height="93.321" transform="translate(155.649 40.734)" fill="#5573c6"/>
            <rect id="Rectángulo_363266" data-name="Rectángulo 363266" width="52.082" height="87.862" transform="translate(158.631 42.636)" fill="#fff"/>
            <path id="Trazado_770981" data-name="Trazado 770981" d="M1349.1,470.31c0,4.18,2.517,10.924,8.454,10.708s7.25-6.645,7.48-8.459-15.933-2.248-15.933-2.248" transform="translate(-1172.422 -408.716)" fill="#7a4e34"/>
            <path id="Trazado_770982" data-name="Trazado 770982" d="M1330.215,557.632c1.96-4.217,5.278-5.568,10.726-5.568,6.487,0,9.855,2.35,10.81,5.771-11.617.159-21.537-.2-21.537-.2" transform="translate(-1156.006 -479.763)" fill="#4adbd1"/>
            <path id="Trazado_770983" data-name="Trazado 770983" d="M1398.161,486.954c-.621.917-1.076.955-1.75,0a8.716,8.716,0,0,1-1.591-3.359v-8.735a1.6,1.6,0,0,1,1.591-1.591h1.75a1.6,1.6,0,0,1,1.591,1.591v8.735c0,.875-1.034,2.537-1.591,3.359" transform="translate(-1212.149 -411.287)" fill="#f09959"/>
            <path id="Trazado_770984" data-name="Trazado 770984" d="M1398.161,473.268h-1.75a1.6,1.6,0,0,0-1.591,1.591v7.794c1.965.626,3.759-.618,4.933-2.02v-5.774a1.6,1.6,0,0,0-1.591-1.591" transform="translate(-1212.149 -411.287)" fill="#e38540"/>
            <path id="Trazado_770985" data-name="Trazado 770985" d="M1383.833,426.1c0,3.982-2.369,7.21-5.291,7.21s-5.291-3.228-5.291-7.21,2.369-7.21,5.291-7.21,5.291,3.228,5.291,7.21" transform="translate(-1193.406 -364.031)" fill="#f09959"/>
            <path id="Trazado_770986" data-name="Trazado 770986" d="M1360.348,402.719c-.629,2.217-2.007,2.192-3.928,2.92s-2.84,1.461-3.468,2.879c-.8,1.809.364,7.082.364,7.082s-4.865-3.64-4.3-9.366,3.938-7.943,7.115-7.943a5.093,5.093,0,0,1,4.385,1.936,4.758,4.758,0,0,1,3.293,1.9c2.151,2.548,1.489,8.737,0,10.954s-2.482,2.912-2.449,2.813,1.39-5.191.662-8.34a20.126,20.126,0,0,0-1.672-4.839" transform="translate(-1172.303 -346.13)" fill="#7a4e34"/>
            <path id="Trazado_770987" data-name="Trazado 770987" d="M1402.443,503.8a2.291,2.291,0,0,1-3.978,0Z" transform="translate(-1215.318 -437.821)" fill="#fff"/>
            <path id="Trazado_770988" data-name="Trazado 770988" d="M1362.77,661.29h-13.362a1.554,1.554,0,0,1,0-3.108h13.362a1.554,1.554,0,0,1,0,3.108" transform="translate(-1171.335 -571.984)" fill="#5573c6"/>
            <path id="Trazado_770989" data-name="Trazado 770989" d="M1348.981,697.742h-18.256a1.554,1.554,0,0,1,0-3.107h18.256a1.554,1.554,0,0,1,0,3.107" transform="translate(-1155.1 -603.663)" fill="#5573c6"/>
            <path id="Trazado_770990" data-name="Trazado 770990" d="M1279.618,837.493h-44.407a.9.9,0,1,1,0-1.8h44.407a.9.9,0,0,1,0,1.8" transform="translate(-1072.661 -726.245)" fill="#5573c6"/>
            <path id="Trazado_770991" data-name="Trazado 770991" d="M1279.618,869.488h-44.407a.9.9,0,1,1,0-1.8h44.407a.9.9,0,0,1,0,1.8" transform="translate(-1072.661 -754.05)" fill="#5573c6"/>
            <path id="Trazado_770992" data-name="Trazado 770992" d="M1279.618,901.484h-44.407a.9.9,0,1,1,0-1.8h44.407a.9.9,0,0,1,0,1.8" transform="translate(-1072.661 -781.855)" fill="#5573c6"/>
            <path id="Trazado_770993" data-name="Trazado 770993" d="M1309.923,385.518h-31.985a1.611,1.611,0,0,1-1.609-1.61V354.43a1.611,1.611,0,0,1,1.609-1.61h31.985a1.612,1.612,0,0,1,1.61,1.61v29.478a1.611,1.611,0,0,1-1.61,1.61m-31.985-31.388a.3.3,0,0,0-.3.3v29.478a.3.3,0,0,0,.3.3h31.985a.3.3,0,0,0,.3-.3V354.43a.3.3,0,0,0-.3-.3Z" transform="translate(-1109.177 -306.613)" fill="#5573c6"/>
            <path id="Trazado_770994" data-name="Trazado 770994" d="M1303.977,749.315l.926,1.876,2.071.3-1.5,1.461.354,2.062-1.852-.974-1.852.974.354-2.062-1.5-1.461,2.071-.3Z" transform="translate(-1130.6 -651.181)" fill="#5573c6"/>
            <path id="Trazado_770995" data-name="Trazado 770995" d="M1361.892,749.315l.926,1.876,2.071.3-1.5,1.461.354,2.062-1.852-.974-1.852.974.354-2.062-1.5-1.461,2.071-.3Z" transform="translate(-1180.93 -651.181)" fill="#5573c6"/>
            <path id="Trazado_770996" data-name="Trazado 770996" d="M1419.806,749.315l.926,1.876,2.071.3-1.5,1.461.354,2.062-1.852-.974-1.852.974.354-2.062-1.5-1.461,2.071-.3Z" transform="translate(-1231.26 -651.181)" fill="#5573c6"/>
            <path id="Trazado_770997" data-name="Trazado 770997" d="M1477.72,749.315l.926,1.876,2.071.3-1.5,1.461.354,2.062-1.852-.974-1.852.974.354-2.062-1.5-1.461,2.071-.3Z" transform="translate(-1281.589 -651.181)" fill="#5573c6"/>
            <g id="Grupo_1028309" data-name="Grupo 1028309" transform="translate(72.196 41.08)" opacity="0.2">
              <g id="Grupo_1028308" data-name="Grupo 1028308">
                <g id="Grupo_1028307" data-name="Grupo 1028307" clip-path="url(#clip-path-5)">
                  <path id="Trazado_770998" data-name="Trazado 770998" d="M641.126,405.715H551.273l6.356-92.04h86.737Z" transform="translate(-551.273 -313.674)" fill="#99bbeb"/>
                </g>
              </g>
            </g>
            <rect id="Rectángulo_363268" data-name="Rectángulo 363268" width="77.765" height="127.462" transform="translate(81.635 23.663)" fill="#f4a338"/>
            <rect id="Rectángulo_363269" data-name="Rectángulo 363269" width="71.136" height="120.006" transform="translate(85.707 26.261)" fill="#fff"/>
            <path id="Trazado_770999" data-name="Trazado 770999" d="M865.8,296.473c-.05-.149-1.295-7.3-1.444-10.077s4.468-3.177,4.468-3.177,3.773-2.035,6.5-.993a11.007,11.007,0,0,1,5.829,4.981c1.241,2.184-1.092,8.991-1.092,8.991Z" transform="translate(-751.156 -245.006)" fill="#373f51"/>
            <path id="Trazado_771000" data-name="Trazado 771000" d="M810.048,497.792c-.017-.117.319-2.931.331-3.045.629-5.924,7.931-7.59,15.217-7.59,8.561,0,14.369,1.567,15.3,7.722.027.18.521,3,.5,3.191-15.867.217-31.34-.278-31.34-.278" transform="translate(-703.961 -423.357)" fill="#d5e1e8"/>
            <path id="Trazado_771001" data-name="Trazado 771001" d="M903.054,398.227c-.848,1.252-1.47,1.3-2.391,0-.732-1.037-3.177-3.4-3.177-4.6l1-11.921a2.18,2.18,0,0,1,2.174-2.173h2.391a2.18,2.18,0,0,1,2.174,2.173l.466,11.921c0,1.2-1.879,3.475-2.64,4.6" transform="translate(-779.948 -329.828)" fill="#f09959"/>
            <path id="Trazado_771002" data-name="Trazado 771002" d="M903.932,379.533h-2.391a2.18,2.18,0,0,0-2.174,2.174l-.871,10.576c2.685.855,6.31-.882,7.913-2.8l-.3-7.779a2.18,2.18,0,0,0-2.174-2.174" transform="translate(-780.827 -329.827)" fill="#e38540"/>
            <path id="Trazado_771003" data-name="Trazado 771003" d="M868.219,492.273l3.833,7.085S874.1,497.67,874.3,498a30.323,30.323,0,0,1-.364,4.507,39.3,39.3,0,0,0,4.766-.137c.2-.2-.927-4.536-.463-4.536s1.857,1.258,1.857,1.258l4.28-6.82-.941-.229-7.012,3.773-7.5-3.69Z" transform="translate(-754.514 -427.604)" fill="#bdccd4"/>
            <path id="Trazado_771004" data-name="Trazado 771004" d="M901.69,511.789l2.847,1.91-.882,5.07,3.839-.214-.959-4.612,2.359-2.154-1.109-1.045H902.8Z" transform="translate(-783.602 -443.855)" fill="#f4a338"/>
            <path id="Trazado_771005" data-name="Trazado 771005" d="M875.639,465.084l-3.521,3.35s3.587,6.38,3.785,6.38,3.044-3.517,3.044-3.517l1.822-.032,2.878,3.02,3.344-5.916-3.411-3.615s-2.912,5.626-3.442,5.758-.533.2-.961-.132-3.539-5.3-3.539-5.3" transform="translate(-757.903 -403.887)" fill="#d5e1e8"/>
            <path id="Trazado_771006" data-name="Trazado 771006" d="M890.142,315.11c0,5.439-3.236,9.848-7.227,9.848s-7.227-4.409-7.227-9.848,3.236-9.847,7.227-9.847,7.227,4.409,7.227,9.847" transform="translate(-761.005 -265.284)" fill="#f09959"/>
            <path id="Trazado_771007" data-name="Trazado 771007" d="M855.939,366.77c.676,1.423.455,2.942-.494,3.393s-2.266-.338-2.942-1.761-.455-2.942.494-3.393,2.266.338,2.942,1.761" transform="translate(-740.516 -317.096)" fill="#f09959"/>
            <path id="Trazado_771008" data-name="Trazado 771008" d="M975.319,366.77c-.676,1.423-.455,2.942.494,3.393s2.266-.338,2.942-1.761.455-2.942-.494-3.393-2.266.338-2.942,1.761" transform="translate(-847.248 -317.096)" fill="#f09959"/>
            <path id="Trazado_771009" data-name="Trazado 771009" d="M912.8,411.308s-1.435,2.325-3.206,2.325-3.206-2.325-3.206-2.325Z" transform="translate(-787.685 -357.441)" fill="#fff"/>
            <path id="Trazado_771010" data-name="Trazado 771010" d="M878.431,302.447c2.979-2.085,4.319-1.737,6.553,1.688s4.914,3.486,4.914,3.486l.348-3.552s-3.327-6.437-7.794-5.593a11.79,11.79,0,0,0-7.007,4.865s-.218,7.537.406,7.794.695-2.432,1.142-2.978-.447-3.128.149-4.319,1.291-1.39,1.291-1.39" transform="translate(-760.761 -259.32)" fill="#373f51"/>
            <path id="Trazado_771011" data-name="Trazado 771011" d="M971.653,358.872c1.04,1.139.645,5.659,1.191,5.61s.745-4.319.6-4.766-1.787-.844-1.787-.844" transform="translate(-844.402 -311.872)" fill="#373f51"/>
            <path id="Trazado_771012" data-name="Trazado 771012" d="M819.257,659.086h-33.2a2.122,2.122,0,1,1,0-4.244h33.2a2.122,2.122,0,0,1,0,4.244" transform="translate(-681.271 -569.081)" fill="#5573c6"/>
            <path id="Trazado_771013" data-name="Trazado 771013" d="M842.539,708.874H817.6a2.122,2.122,0,1,1,0-4.244h24.934a2.122,2.122,0,0,1,0,4.244" transform="translate(-708.684 -612.349)" fill="#5573c6"/>
            <path id="Trazado_771014" data-name="Trazado 771014" d="M747.8,899.752H687.147a1.232,1.232,0,0,1,0-2.463H747.8a1.232,1.232,0,0,1,0,2.463" transform="translate(-596.086 -779.777)" fill="#5573c6"/>
            <path id="Trazado_771015" data-name="Trazado 771015" d="M747.8,943.453H687.147a1.231,1.231,0,1,1,0-2.463H747.8a1.231,1.231,0,0,1,0,2.463" transform="translate(-596.086 -817.754)" fill="#5573c6"/>
            <path id="Trazado_771016" data-name="Trazado 771016" d="M747.8,987.154H687.147a1.232,1.232,0,0,1,0-2.463H747.8a1.232,1.232,0,0,1,0,2.463" transform="translate(-596.086 -855.732)" fill="#5573c6"/>
            <path id="Trazado_771017" data-name="Trazado 771017" d="M790.781,283.773H747.095a1.961,1.961,0,0,1-1.959-1.959V241.551a1.961,1.961,0,0,1,1.959-1.959h43.686a1.961,1.961,0,0,1,1.959,1.959v40.263a1.961,1.961,0,0,1-1.959,1.959M747.095,240.9a.65.65,0,0,0-.649.649v40.263a.65.65,0,0,0,.649.649h43.686a.65.65,0,0,0,.649-.649V241.551a.65.65,0,0,0-.649-.649Z" transform="translate(-647.551 -208.214)" fill="#5573c6"/>
            <path id="Trazado_771018" data-name="Trazado 771018" d="M740.891,779.314l1.265,2.563,2.828.411-2.047,1.995.483,2.817-2.53-1.33-2.53,1.33.483-2.817-2.046-1.995,2.828-.411Z" transform="translate(-640.305 -677.252)" fill="#5573c6"/>
            <path id="Trazado_771019" data-name="Trazado 771019" d="M819.992,779.314l1.265,2.563,2.828.411-2.047,1.995.483,2.817-2.529-1.33-2.53,1.33.483-2.817-2.047-1.995,2.828-.411Z" transform="translate(-709.047 -677.252)" fill="#5573c6"/>
            <path id="Trazado_771020" data-name="Trazado 771020" d="M899.1,779.314l1.265,2.563,2.828.411-2.046,1.995.483,2.817-2.53-1.33-2.53,1.33.483-2.817L895,782.287l2.828-.411Z" transform="translate(-777.79 -677.252)" fill="#5573c6"/>
            <path id="Trazado_771021" data-name="Trazado 771021" d="M978.2,779.314l1.265,2.563,2.828.411-2.047,1.995.483,2.817-2.53-1.33-2.53,1.33.483-2.817-2.047-1.995,2.828-.411Z" transform="translate(-846.532 -677.252)" fill="#5573c6"/>
            <path id="Trazado_771022" data-name="Trazado 771022" d="M1058.556,779.314l1.265,2.563,2.828.411-2.046,1.995.483,2.817-2.529-1.33-2.53,1.33.483-2.817-2.046-1.995,2.828-.411Z" transform="translate(-916.367 -677.252)" fill="#5573c6"/>
            <path id="Trazado_771023" data-name="Trazado 771023" d="M1501.41,1097.451h-99.789a1.086,1.086,0,0,1-1.086-1.086v-1.627a1.086,1.086,0,0,1,1.086-1.086h99.789a1.086,1.086,0,0,1,1.086,1.086v1.627a1.086,1.086,0,0,1-1.086,1.086" transform="translate(-1217.116 -950.423)" fill="#373f51"/>
            <path id="Trazado_771024" data-name="Trazado 771024" d="M2276.637,658.626c1.352,4.767-1.95,9.679-5.588,10.711s-6.234-2.207-7.586-6.974.5-9.468,4.139-10.5,7.683,2,9.035,6.762" transform="translate(-1966.649 -566.318)" fill="#f09959"/>
            <path id="Trazado_771025" data-name="Trazado 771025" d="M2183.3,1410.142s9.323,14.48,10.583,15.11,4.407.787,3.227,3.148-1.653,11.647-2.755,12.12-10.546,1.574-9.129,0,2.288-.787,3-3.62,1.719-8.185.381-9.286-9.522-11.018-9.522-11.018Z" transform="translate(-1893.704 -1225.465)" fill="#f09959"/>
            <path id="Trazado_771026" data-name="Trazado 771026" d="M1727.069,1457.625s-11.333,18.679-13.432,20.357-9.025,4.2-3.358,4.617,8.395-1.889,11.963-2.938,7.975-1.679,6.3-4.407-.982-8.684,2.638-12.462-4.107-5.167-4.107-5.167" transform="translate(-1484.401 -1266.729)" fill="#f09959"/>
            <path id="Trazado_771027" data-name="Trazado 771027" d="M1878.851,1126.8s-28.055-.734-39.178,8.395c-6.506,9.864-22.245,38.968-23.469,42.175.84.839,5.562,2.354,7.661,2.144,6.191-7.382,14.375-13.764,17.629-19.555,4.011-7.136,5.247-10.7,11.753-11.333s21.2-2.728,25.6-2.728,0-19.1,0-19.1" transform="translate(-1578.348 -979.22)" fill="#4066bc"/>
            <path id="Trazado_771028" data-name="Trazado 771028" d="M2401.632,1356.753h-1.47l-10.546-44h3.235Z" transform="translate(-2076.665 -1140.832)" fill="#373f51"/>
            <path id="Trazado_771029" data-name="Trazado 771029" d="M2144.991,1346.431h1.47l12.1-45.553h-3.235Z" transform="translate(-1864.077 -1130.51)" fill="#373f51"/>
            <path id="Trazado_771030" data-name="Trazado 771030" d="M2050.566,1112.222l-16.311,2.815s-21.675.2-31.583,2.045c-9.014,1.679-10.343,11.921,0,26.024,5.875,8.011,10.843,14.4,21,21.608,2.584-1.9,3.573-2.615,4.287-7.18-.735-1.008-2.638-7.317-3.229-8.552-5.619-11.745-13.118-16.016-13.222-17.172,1.259-2.046,33.354,10.666,39.735,3.188,6.093-7.139-.677-22.777-.677-22.777" transform="translate(-1734.081 -966.561)" fill="#5573c6"/>
            <path id="Trazado_771031" data-name="Trazado 771031" d="M2283.669,829.028a17.067,17.067,0,0,0-12.762,3.176c-3.576,3.645-7.621,9.655-7.374,19.57.315,12.592-1.948,13.4.413,16.863,9.847,4.066,26.688,21.537,22.722,2.807-2.872-13.562,6.3-23.671-1.1-38.715-.6-1.224-1.354-2.412-1.9-3.7" transform="translate(-1966.506 -720.294)" fill="#f4a338"/>
            <path id="Trazado_771032" data-name="Trazado 771032" d="M2263.534,877.387c-.191,6.564-1.118,8.5-.41,10.556,4.014.41,11.358,2.016,13.192,4.585,2.1,2.938,4.2,3.358,3.218,1.189s-3.568-5.247.42-15.81,5.876-17.7,1.959-25.045Z" transform="translate(-1966.51 -741.169)" fill="#f4a338"/>
            <path id="Trazado_771033" data-name="Trazado 771033" d="M2337.084,742.019a51.233,51.233,0,0,1-3.295-13.3l-6.925,2.046s3.935,8.814.157,11.962a36.126,36.126,0,0,0-2.7,2.466,17.067,17.067,0,0,1,12.763-3.176" transform="translate(-2019.921 -633.285)" fill="#f09959"/>
            <path id="Trazado_771034" data-name="Trazado 771034" d="M2350.938,732.848c-.41-.365-.923-.821-1.463-1.3l-5.649,1.669-.012.031a23.065,23.065,0,0,1,1.765,6.9,19.916,19.916,0,0,0,5.634-5.6c-.114-.645-.2-1.221-.275-1.706" transform="translate(-2036.862 -635.744)" fill="#e38540"/>
            <path id="Trazado_771035" data-name="Trazado 771035" d="M2105.405,843.983c-7.133,2.495-6.342,10.009-12.906,21.091-3.4,5.735-6.553,5.65-6.553,5.65a151.974,151.974,0,0,1-17.6-1.115c-6.035-.738-6.418,1.059-2.221,2.559,8.465,3.027,17.25,6.284,24.332,5.5s19.2-18.859,19.822-23.563c.864-6.506-1.277-11.376-4.869-10.12" transform="translate(-1793.111 -733.279)" fill="#f09959"/>
            <path id="Trazado_771036" data-name="Trazado 771036" d="M2190.155,1011.368q-.665,0-1.364-.017a67.833,67.833,0,0,1-12.95-1.594c-3.712-.755-5.757-1.17-8.138-.033a1.833,1.833,0,1,1-1.581-3.308c3.488-1.667,6.408-1.074,10.449-.252a64.606,64.606,0,0,0,12.31,1.522c6.145.153,9.891-.758,11.79-2.864,1.692-1.876,2.187-5.029,1.558-9.921-.215-1.674-.431-3.067-.621-4.3a29.721,29.721,0,0,1-.451-9.3c.407-3.287,1.5-7.666,4.017-16.157a1.833,1.833,0,1,1,3.515,1.044c-4.7,15.822-4.46,17.363-3.457,23.849.193,1.25.413,2.668.634,4.388.776,6.033-.01,10.114-2.472,12.844-2.535,2.811-6.65,4.091-13.24,4.091" transform="translate(-1881.534 -837.611)" fill="#373f51"/>
            <path id="Trazado_771037" data-name="Trazado 771037" d="M1727.84,1577.833c-7.52,3.678-11.567,5.785-13.978,5.584-.569-.047-1.041-.106-1.437-.167-2.682,1.585-6.962,3.458-2.146,3.815,5.667.42,8.395-1.889,11.963-2.938s7.975-1.679,6.3-4.407a5.736,5.736,0,0,1-.7-1.886" transform="translate(-1484.401 -1371.194)" fill="#f4a338"/>
            <path id="Trazado_771038" data-name="Trazado 771038" d="M2234.472,1527.863c-.184,5.954-1,11.854-4.644,12.968a6.118,6.118,0,0,1-2.624.234c-.573.708-1.271.716-2.209,1.758-1.417,1.574,8.027.472,9.129,0s1.574-9.758,2.754-12.12c.97-1.939-.981-2.392-2.407-2.841" transform="translate(-1933.478 -1327.769)" fill="#f4a338"/>
            <path id="Trazado_771039" data-name="Trazado 771039" d="M1842.387,935.419H1818.5a1.834,1.834,0,0,1-1.663-1.061l-9.654-20.777a1.833,1.833,0,1,1,3.325-1.545l9.161,19.716h22.72a1.833,1.833,0,0,1,0,3.667" transform="translate(-1570.358 -791.669)" fill="#5573c6"/>
            <path id="Trazado_771040" data-name="Trazado 771040" d="M1974.349,1025.515c-4.827-.07-9.615-2.947-11.993-2.527s-10.144,5.807-9.165,6.016,7.136-2.981,7.346-3.03a10.353,10.353,0,0,0,4.827,3.04c3.288.829.023-2.464,10.215.614,6.627,2-1.23-4.113-1.23-4.113" transform="translate(-1697.321 -888.977)" fill="#f09959"/>
            <path id="Trazado_771041" data-name="Trazado 771041" d="M2307.923,786.625l.71,5.715s-6.246.372-9.355,2.121-7.7,6.8-7.7,6.8l3.748-6.452.54-4.127Z" transform="translate(-1991.47 -683.605)" fill="#e2c39f"/>
            <path id="Trazado_771042" data-name="Trazado 771042" d="M2154.608,839.284c-4.64-.869-6.786,3.288-9.794,10.074s-8.143,15.028-9.164,16.09-17.209,0-17.209,0-.49,4.687,0,5.247,3.288.49,3.288.49,1.119.894,2.168,1.6,9.934,2.037,14.062,1.827,7.905-.56,8.465-1.189,11.823-17.979,12.522-24.205-1.969-9.49-4.337-9.934" transform="translate(-1840.813 -729.269)" fill="#e2c39f"/>
            <path id="Trazado_771043" data-name="Trazado 771043" d="M2241.969,601.108c-8.775.42-7.4,13.62-7.4,13.62s2.279.7,7.053-.083a26.349,26.349,0,0,1-.21-5.037,32.97,32.97,0,0,0,1.259,4.722c1.009.463,2.151.052,4.093-.417a8.635,8.635,0,0,0,5.743,6.573c2.131.67,4.387,1.469,6.906.21s1.133-14.131-.2-16.72c-2.007-3.886-5.344-7.363-11.115-5.527a42.883,42.883,0,0,0-6.126,2.658" transform="translate(-1941.856 -519.635)" fill="#373f51"/>
            <path id="Trazado_771044" data-name="Trazado 771044" d="M2408.1,735.54l3.587,5.24s-3.976,9.934,7.587,14.435c9.056,3.525,7.99,9.735,3.9,15.981s2.448,11.7,2.448,11.7,1-6.919,9.8-8.225c12-1.781,15.395-17.889,6.434-25.943-7.416-6.665-9.672-1.145-14.691-7.127s-14.5-1.941-14.5-1.941l-3.473-5.065Z" transform="translate(-2092.728 -638.39)" fill="#373f51"/>
            <path id="Trazado_771045" data-name="Trazado 771045" d="M2474.149,783.418a.319.319,0,0,1-.28-.472c3.017-5.513.555-12.193-.683-14-.131-.192-.256-.386-.387-.592-1.217-1.9-2.73-4.262-10.809-5.716a12.855,12.855,0,0,1-5.189-2.731c-3.445-2.529-7.349-5.4-15.833-1.491a.319.319,0,1,1-.267-.58c8.824-4.062,12.89-1.077,16.477,1.556a12.4,12.4,0,0,0,4.924,2.617c8.353,1.5,9.95,4,11.233,6,.129.2.251.392.377.576,1.3,1.9,3.876,8.894.716,14.669a.319.319,0,0,1-.28.166" transform="translate(-2120.899 -656.853)" fill="#373f51"/>
            <path id="Trazado_771046" data-name="Trazado 771046" d="M2331.26,699.985a12.623,12.623,0,0,1-1.864-.15c-3.07-.46-7.188-2.2-7.511-12a.319.319,0,1,1,.638-.021c.133,4.038.934,7.026,2.381,8.88a6.692,6.692,0,0,0,4.587,2.511c2.841.425,4.724-.1,5.6-1.559a.319.319,0,0,1,.548.327c-.8,1.339-2.268,2.013-4.376,2.013" transform="translate(-2017.804 -597.466)" fill="#373f51"/>
            <path id="Trazado_771047" data-name="Trazado 771047" d="M1482.213,1183.514h2.357l9.171-70.1h-5.187Z" transform="translate(-1288.098 -967.593)" fill="#373f51"/>
            <path id="Trazado_771048" data-name="Trazado 771048" d="M2016.563,1183.514h-2.358l-9.171-70.1h5.187Z" transform="translate(-1742.449 -967.593)" fill="#373f51"/>
            <path id="Trazado_771049" data-name="Trazado 771049" d="M2770.773,1196.863c4.079,3.724,2.305,7.448-.709,14.365s-3.547,32.453-3.547,32.453l2.483-.355s-.355-26.246,3.015-33.34,4.788-10.641,7.8-8.335-9.044-4.788-9.044-4.788" transform="translate(-2404.206 -1040.118)" fill="#3aafa3"/>
            <path id="Trazado_771050" data-name="Trazado 771050" d="M2780.445,1083.674c.5-2.207,3.437-4.6,7.371-6.621-.585,3.255-2.46,8.578-.52,9.669,2.617,1.472.255-5.959,1.265-10.043a48.6,48.6,0,0,1,12.229-4.012c-.006.015-.01.03-.017.045-2.305,5.852-5.32,8.158-4.079,9.044.934.667,3.976-6.093,7.993-9.558,3.015-.161,5.566.248,7.075,1.443,2.333,1.846,3.9,3.484,1.552,9.107a10.54,10.54,0,0,1-5.093,1.846c-5.32.532-7.8.709-4.079,2.483,1.824.868,4.881-.049,7.359-.608-.8,1.482-1.792,3.158-2.993,5.068a18.816,18.816,0,0,1-2.492,3.172,7.869,7.869,0,0,1-4-.007c-2.483-1.064-8.867-4.434-10.463-3.015-1.562,1.389,11.824,2.268,10.9,5.8-6.488,3.738-13.913,1.96-15.225-1.473-1.762-4.61-8.27-5.694-6.779-12.338" transform="translate(-2416.118 -931.751)" fill="#4adbd1"/>
            <path id="Trazado_771051" data-name="Trazado 771051" d="M2751.125,1337.528c-7.094-5.32-14.365-.355-18.089,5.32s-1.064,18.443-1.064,18.443,1.418,0,1.418-.532-3.9-15.074,5.32-21.636c5.769-4.1,9.931-2.128,10.463-.177s-2.305,5.5-2.305,5.5Z" transform="translate(-2373.385 -1160.388)" fill="#3aafa3"/>
            <path id="Trazado_771052" data-name="Trazado 771052" d="M2757.654,1269.082c7.094,0,9.4,11,7.448,17.38s-4.611,18.266-4.611,18.266l-1.773-1.773s6.739-16.67,5.143-24.118-5.5-8.69-6.207-8.69,0-1.064,0-1.064" transform="translate(-2396.229 -1102.878)" fill="#4adbd1"/>
            <path id="Trazado_771053" data-name="Trazado 771053" d="M2793.363,1391.753a5.14,5.14,0,0,1,1.867-1.569,14,14,0,0,1-.369,1.52c-.889,2.909-1.925,6.959-2.79,10.506l-.387-2.234c-.044-.255-.079-.532-.1-.825a68.845,68.845,0,0,0,1.78-7.4" transform="translate(-2425.989 -1208.12)" fill="#3aafa3"/>
            <path id="Trazado_771054" data-name="Trazado 771054" d="M2795.647,1336.221c13.478-5.675,6.377-13.462,18.259-8.319a8.817,8.817,0,0,1,2.878,2.535,8.849,8.849,0,0,1-3.765.3c-3.547-.532-2.305,2.306,3.547,3.015a13.145,13.145,0,0,1,2.743.579c2.788,5.355,4.044,12.4-1.856,14.85a13.363,13.363,0,0,1-4.2.862c-1.821-1.447.445-9.821-2.362-8.665-2.7,1.11.845,7.178.36,8.707a38.871,38.871,0,0,1-8.42-1.18,4.192,4.192,0,0,1-2.226-2.561c-.886-3.724,4.966-6.03,5.143-9.222.163-2.935-2.145,6.456-8.26,7.838-5.529-2.583-8.142-6.088-1.842-8.74" transform="translate(-2426.333 -1152.535)" fill="#4adbd1"/>
            <path id="Trazado_771055" data-name="Trazado 771055" d="M2603.087,1240.645c1.419-3.015-2.305-3.724-2.128-1.419.157,2.043.175,7.009-1.92,8.361a32.876,32.876,0,0,1-12.246-4.067,1.506,1.506,0,0,1,.156-.924c1.6-3.192,11.882-5.852,8.69-6.917-2.542-.847-7,4.155-10.587,6.674-2.156-1.636-3.6-3.586-3.6-5.762,0-2.946,3.58-6.281,8.209-7.875,2.084.21,4.019,1.349,7.042,3.062,4.466,2.531,3.433-1.561-.789-3.989a12.718,12.718,0,0,1,9.959,5.467s-.253,1.591,1.43,4.05c4.592,6.711-.708,10.629-7.042,10.375a41.622,41.622,0,0,1,2.826-7.035" transform="translate(-2243.376 -1066.993)" fill="#4adbd1"/>
            <path id="Trazado_771056" data-name="Trazado 771056" d="M2870.541,1349.993c3.468,2.68,7.321,5.813,12.05,7.941s3.783,9.065,3.783,9.065.709-5.991-3.231-8.04-6.542-4.493-9.538-4.966a43.36,43.36,0,0,1-4.65-.946s.946-1.892.394-2.6,1.192-.453,1.192-.453" transform="translate(-2493.228 -1173.154)" fill="#3aafa3"/>
            <path id="Trazado_771057" data-name="Trazado 771057" d="M2842.656,1110c-12.691,3.389-21.992,11.508-23.726,13.479S2817.2,1126,2817.2,1126l1.34,2.522.63-.315s-1.025-2.128,1.656-4.887a48.508,48.508,0,0,1,14.109-10.168c3.862-1.655,7.725-3.153,7.725-3.153" transform="translate(-2448.247 -964.628)" fill="#3aafa3"/>
            <path id="Trazado_771058" data-name="Trazado 771058" d="M2702.7,1531.019h4.848a6.243,6.243,0,0,0,6.243-6.243v-11.14h-17.333v11.14a6.243,6.243,0,0,0,6.242,6.243" transform="translate(-2343.318 -1315.406)" fill="#373f51"/>
            <rect id="Rectángulo_363270" data-name="Rectángulo 363270" width="17.333" height="1.22" transform="translate(353.136 200.223)" fill="#fff"/>
            <rect id="Rectángulo_363271" data-name="Rectángulo 363271" width="17.333" height="0.718" transform="translate(353.136 202.447)" fill="#fff"/>
            <path id="Trazado_771059" data-name="Trazado 771059" d="M319.266,1486.978H323.4a1.581,1.581,0,0,0,1.581-1.581v-3.406a1.581,1.581,0,0,0-1.581-1.582h-4.136a1.581,1.581,0,0,0-1.581,1.582v3.406a1.581,1.581,0,0,0,1.581,1.581" transform="translate(-276.08 -1286.529)" fill="#f4a338"/>
            <path id="Trazado_771060" data-name="Trazado 771060" d="M217.936,1486.978h4.136a1.581,1.581,0,0,0,1.581-1.581v-3.406a1.581,1.581,0,0,0-1.581-1.582h-4.136a1.581,1.581,0,0,0-1.581,1.582v3.406a1.581,1.581,0,0,0,1.581,1.581" transform="translate(-188.02 -1286.529)" fill="#f4a338"/>
            <path id="Trazado_771061" data-name="Trazado 771061" d="M116.606,1486.978h4.136a1.581,1.581,0,0,0,1.581-1.581v-3.406a1.581,1.581,0,0,0-1.581-1.582h-4.136a1.581,1.581,0,0,0-1.581,1.582v3.406a1.581,1.581,0,0,0,1.581,1.581" transform="translate(-99.961 -1286.529)" fill="#f4a338"/>
            <path id="Trazado_771062" data-name="Trazado 771062" d="M2967.215,557.912v-4.136a1.581,1.581,0,0,0-1.581-1.581h-3.406a1.581,1.581,0,0,0-1.582,1.581v4.136a1.581,1.581,0,0,0,1.582,1.581h3.406a1.581,1.581,0,0,0,1.581-1.581" transform="translate(-2572.911 -479.877)" fill="#f4a338"/>
            <path id="Trazado_771063" data-name="Trazado 771063" d="M2967.215,659.242v-4.136a1.581,1.581,0,0,0-1.581-1.581h-3.406a1.581,1.581,0,0,0-1.582,1.581v4.136a1.581,1.581,0,0,0,1.582,1.581h3.406a1.581,1.581,0,0,0,1.581-1.581" transform="translate(-2572.911 -567.937)" fill="#f4a338"/>
            <path id="Trazado_771064" data-name="Trazado 771064" d="M2967.215,760.572v-4.136a1.581,1.581,0,0,0-1.581-1.581h-3.406a1.581,1.581,0,0,0-1.582,1.581v4.136a1.581,1.581,0,0,0,1.582,1.581h3.406a1.581,1.581,0,0,0,1.581-1.581" transform="translate(-2572.911 -655.996)" fill="#f4a338"/>
          </g>
        </g>
      </g>
    </g>
  </g>
</svg>
