<svg xmlns="http://www.w3.org/2000/svg" xmlns:xlink="http://www.w3.org/1999/xlink" width="406" height="391" viewBox="0 0 406 391">
  <defs>
    <clipPath id="clip-path">
      <rect id="Rectángulo_363014" data-name="Rectángulo 363014" width="406" height="206.631" fill="none"/>
    </clipPath>
    <clipPath id="clip-path-3">
      <rect id="Rectángulo_362997" data-name="Rectángulo 362997" width="92.189" height="11.452" fill="none"/>
    </clipPath>
    <clipPath id="clip-path-4">
      <path id="Trazado_769315" data-name="Trazado 769315" d="M441.984,63.573,377.85,194.513a8.317,8.317,0,0,0,4.522,11.628l58.077,22.486a10.239,10.239,0,0,0,12.656-4.977L517.239,92.711a8.317,8.317,0,0,0-4.523-11.628L454.64,58.6a9.628,9.628,0,0,0-3.483-.644,10.282,10.282,0,0,0-9.174,5.62" transform="translate(-376.934 -57.953)" fill="#373f51"/>
    </clipPath>
    <clipPath id="clip-path-6">
      <rect id="Rectángulo_363000" data-name="Rectángulo 363000" width="55.98" height="101.389" fill="none"/>
    </clipPath>
    <clipPath id="clip-path-7">
      <rect id="Rectángulo_363001" data-name="Rectángulo 363001" width="56.197" height="109.862" fill="none"/>
    </clipPath>
    <clipPath id="clip-path-8">
      <path id="Trazado_769384" data-name="Trazado 769384" d="M489.7,249.785l.039-.012c.086-.073.164-.145.24-.218Z" transform="translate(-489.697 -249.555)" fill="none"/>
    </clipPath>
    <linearGradient id="linear-gradient" x1="-971.021" y1="264.419" x2="-969.038" y2="264.419" gradientUnits="objectBoundingBox">
      <stop offset="0" stop-color="#efecf4"/>
      <stop offset="1" stop-color="#e38c89"/>
    </linearGradient>
    <clipPath id="clip-path-11">
      <path id="Trazado_769403" data-name="Trazado 769403" d="M162.13,53.7,102.274,70.9a8.546,8.546,0,0,0-5.752,11.236l48.894,137.092a9.946,9.946,0,0,0,11.953,6.149l59.856-17.2a8.546,8.546,0,0,0,5.753-11.236L174.084,59.849a9.983,9.983,0,0,0-9.339-6.516,9.453,9.453,0,0,0-2.615.366" transform="translate(-95.992 -53.333)" fill="#373f51"/>
    </clipPath>
    <clipPath id="clip-path-13">
      <rect id="Rectángulo_363009" data-name="Rectángulo 363009" width="71.238" height="103.705" fill="none"/>
    </clipPath>
    <clipPath id="clip-path-14">
      <rect id="Rectángulo_363010" data-name="Rectángulo 363010" width="71.464" height="77.03" fill="none"/>
    </clipPath>
  </defs>
  <g id="Grupo_1033328" data-name="Grupo 1033328" transform="translate(-950 -19064)">
    <rect id="Rectángulo_361872" data-name="Rectángulo 361872" width="401" height="391" transform="translate(953 19064)" fill="#efeeee"/>
    <path id="Trazado_771210" data-name="Trazado 771210" d="M57.768,102.543c54.412-20.2,109.714-2.341,147.221,36.555s116.221-26.847,157.967,11.986c28.49,26.5,15.44,94.639-23.624,124.151-53.1,40.113-214.573,19.759-249.5,12.933C49.588,280.3,20.168,256.441,8.215,227.48c-28.8-69.782,25.508-116.011,49.554-124.937" transform="translate(964 19046.453)" fill="#fff"/>
    <g id="Grupo_1027959" data-name="Grupo 1027959" transform="translate(950 19139.234)">
      <g id="Grupo_1027958" data-name="Grupo 1027958" clip-path="url(#clip-path)">
        <g id="Grupo_1027930" data-name="Grupo 1027930">
          <g id="Grupo_1027929" data-name="Grupo 1027929" clip-path="url(#clip-path)">
            <path id="Trazado_769294" data-name="Trazado 769294" d="M230.188,13.261a.573.573,0,0,1,.672-.913c1.03.548,2.044,1.127,3.014,1.722a.573.573,0,0,1-.6.976c-.95-.583-1.943-1.15-2.952-1.687a.566.566,0,0,1-.134-.1" transform="translate(-98.309 -5.249)" fill="#303949"/>
            <path id="Trazado_769295" data-name="Trazado 769295" d="M153.359,69.477a.574.574,0,0,1-.1-.127,32.632,32.632,0,0,1-2.607-6.259.573.573,0,0,1,1.094-.341,31.471,31.471,0,0,0,2.511,6.038.572.572,0,0,1-.9.689m-4.145-12.628a.572.572,0,0,1-.16-.3c-.4-2.1-.727-4.332-.979-6.647a.573.573,0,1,1,1.138-.124c.25,2.284.574,4.491.967,6.557a.573.573,0,0,1-.966.514m-1.465-13.258a.571.571,0,0,1-.169-.386c-.034-.922-.052-1.778-.05-2.543a27.575,27.575,0,0,1,.328-4.224.573.573,0,1,1,1.131.178,26.377,26.377,0,0,0-.314,4.048c0,.75.015,1.591.049,2.5a.573.573,0,0,1-.975.429m2.67-7.649c-.282-.279-.555-.568-.814-.858a.573.573,0,0,1,.857-.76,17.553,17.553,0,0,0,5.074,3.936.573.573,0,0,1-.526,1.018,18.8,18.8,0,0,1-4.592-3.334m-4.025-6.6a.57.57,0,0,1-.146-.244,18.668,18.668,0,0,1-.68-6.8.573.573,0,1,1,1.142.09,17.533,17.533,0,0,0,.637,6.389.573.573,0,0,1-.952.569M150,30.595a.574.574,0,0,1-.108-.667,15.886,15.886,0,0,1,2.846-4.005,13.921,13.921,0,0,1,1.5-1.313.572.572,0,1,1,.69.913,12.857,12.857,0,0,0-1.374,1.2,14.737,14.737,0,0,0-2.639,3.718.572.572,0,0,1-.77.252.586.586,0,0,1-.144-.1m11.244,10.369a.573.573,0,0,1,.431-.98,11.986,11.986,0,0,0,1.385-.01,10.028,10.028,0,0,0,4.627-1.565.573.573,0,1,1,.609.97,11.171,11.171,0,0,1-5.16,1.737,13.224,13.224,0,0,1-1.516.011.569.569,0,0,1-.374-.164m-13.9-24.656a.573.573,0,0,1-.123-.634,20.912,20.912,0,0,1,2.061-3.7c.5-.713,1.033-1.4,1.59-2.052a.572.572,0,1,1,.869.746c-.532.62-1.043,1.28-1.52,1.962a19.824,19.824,0,0,0-1.949,3.5.573.573,0,0,1-.928.181M160.33,23.1a.572.572,0,0,1,.328-.974,15.131,15.131,0,0,1,6.85.612.572.572,0,1,1-.378,1.081,13.986,13.986,0,0,0-6.322-.558.571.571,0,0,1-.478-.161m11.582,11.264a.573.573,0,0,1-.125-.629,7.389,7.389,0,0,0-.053-6.012.572.572,0,0,1,1.039-.48,8.535,8.535,0,0,1,.069,6.936.572.572,0,0,1-.75.306.581.581,0,0,1-.181-.12M155.894,6.318a.6.6,0,0,1-.078-.1.572.572,0,0,1,.168-.792,24.563,24.563,0,0,1,6.167-2.866.573.573,0,1,1,.337,1.094,23.461,23.461,0,0,0-5.881,2.732.573.573,0,0,1-.714-.072M168.463,2.33a.572.572,0,0,1,.363-.979,38,38,0,0,1,6.76.163.573.573,0,0,1-.125,1.138,36.844,36.844,0,0,0-6.555-.159.57.57,0,0,1-.442-.164m13.211,1.378a.573.573,0,0,1,.545-.962,55.7,55.7,0,0,1,6.405,2.083.573.573,0,1,1-.419,1.066,54.6,54.6,0,0,0-6.273-2.04.565.565,0,0,1-.259-.147" transform="translate(-62.188 -0.542)" fill="#303949"/>
            <path id="Trazado_769296" data-name="Trazado 769296" d="M166.794,128.282a.573.573,0,0,1,.7-.9,7.224,7.224,0,0,0,2.987,1.027.573.573,0,0,1-.124,1.139,8.356,8.356,0,0,1-3.457-1.188.581.581,0,0,1-.106-.082" transform="translate(-71.215 -54.409)" fill="#303949"/>
            <path id="Trazado_769297" data-name="Trazado 769297" d="M226.615,4.986,223.3,14.858l20.4,4.065Z" transform="translate(-95.437 -2.131)" fill="#96bdff"/>
            <path id="Trazado_769298" data-name="Trazado 769298" d="M221.63,4.08l-5.907,5.433,24.742,7.279L227,0l-3.627,2.856,11.805,10.863Z" transform="translate(-92.199 0)" fill="#5573c6"/>
            <path id="Trazado_769299" data-name="Trazado 769299" d="M394.941,71.428a.561.561,0,0,1-.19-.025.572.572,0,0,1-.382-.714,28.6,28.6,0,0,1,1.223-3.284.573.573,0,0,1,1.047.464,27.165,27.165,0,0,0-1.173,3.152.573.573,0,0,1-.525.407" transform="translate(-168.541 -28.664)" fill="#303949"/>
            <path id="Trazado_769300" data-name="Trazado 769300" d="M431.689,51a.586.586,0,0,1-.15-.014,10.237,10.237,0,0,1-5.834-3.9.573.573,0,1,1,.907-.7,8.984,8.984,0,0,0,5.179,3.48.573.573,0,0,1-.1,1.131m6.565-.945a.573.573,0,0,1-.286-1.082,10.337,10.337,0,0,0,4.491-4.431.573.573,0,0,1,1.021.519,11.5,11.5,0,0,1-4.988,4.931.574.574,0,0,1-.238.063m49.982-9.494a.573.573,0,0,1-.583-.45,20.284,20.284,0,0,0-2.466-6.069.573.573,0,0,1,.983-.589,21.455,21.455,0,0,1,2.6,6.413.573.573,0,0,1-.437.681.588.588,0,0,1-.1.013m-64.722.608a.572.572,0,0,1-.589-.484,14.876,14.876,0,0,1-.164-1.674,16.53,16.53,0,0,1,.652-5.273.572.572,0,1,1,1.1.317,15.394,15.394,0,0,0-.608,4.908,13.793,13.793,0,0,0,.151,1.545.572.572,0,0,1-.477.654.628.628,0,0,1-.065.006m-20.454-.484a.573.573,0,0,1-.478-.92,30.139,30.139,0,0,1,4.778-4.957.573.573,0,1,1,.728.885,28.935,28.935,0,0,0-4.6,4.768.572.572,0,0,1-.432.224m40.413-1.867a.574.574,0,0,1-.562-.377,10.54,10.54,0,0,0-3.739-4.714c-.088-.066-.175-.131-.262-.194a.573.573,0,1,1,.672-.927q.142.1.281.208a11.652,11.652,0,0,1,4.124,5.236.572.572,0,0,1-.344.734.562.562,0,0,1-.171.034m-30.046-6.65a.573.573,0,0,1-.275-1.087,27.493,27.493,0,0,1,6.525-2.222.572.572,0,1,1,.23,1.122,26.392,26.392,0,0,0-6.255,2.131.574.574,0,0,1-.226.057M481.537,29a.573.573,0,0,1-.432-.171,36.338,36.338,0,0,0-5.1-4.284.572.572,0,1,1,.656-.938,37.477,37.477,0,0,1,5.258,4.42.573.573,0,0,1-.385.973M433.2,30.7a.572.572,0,0,1-.192-.025,27.475,27.475,0,0,0-6.516-1.152.573.573,0,0,1-.539-.6.579.579,0,0,1,.6-.539l.18.011a.609.609,0,0,1-.057-.038.573.573,0,0,1-.116-.8,26.377,26.377,0,0,1,4.842-4.917.572.572,0,1,1,.707.9,25.19,25.19,0,0,0-4.632,4.7.574.574,0,0,1-.246.189,28.472,28.472,0,0,1,6.109,1.154.573.573,0,0,1-.144,1.12m37.31-9.453a.577.577,0,0,1-.268-.054q-.621-.294-1.241-.559A38.232,38.232,0,0,0,463.99,18.9a.573.573,0,0,1,.3-1.105,39.425,39.425,0,0,1,5.161,1.788q.638.274,1.28.576a.573.573,0,0,1-.222,1.09m-32.926-1.044a.573.573,0,0,1-.246-1.1l.164-.069a35.629,35.629,0,0,1,6.406-1.942.573.573,0,1,1,.231,1.122,34.414,34.414,0,0,0-6.2,1.878l-.159.066a.565.565,0,0,1-.2.045m19.936-2.544a.654.654,0,0,1-.088,0,44.486,44.486,0,0,0-6.673-.239.572.572,0,0,1-.046-1.144h0a45.576,45.576,0,0,1,6.845.245.573.573,0,0,1-.039,1.141" transform="translate(-172.012 -6.942)" fill="#303949"/>
            <path id="Trazado_769301" data-name="Trazado 769301" d="M550.477,73a.582.582,0,0,1-.225-.036.572.572,0,0,1-.335-.737,18.131,18.131,0,0,0,.882-3.208.573.573,0,1,1,1.128.2,19.347,19.347,0,0,1-.938,3.41.573.573,0,0,1-.512.372" transform="translate(-235.017 -29.296)" fill="#303949"/>
            <rect id="Rectángulo_362996" data-name="Rectángulo 362996" width="20.996" height="14.697" transform="matrix(0.999, -0.042, 0.042, 0.999, 214.455, 47.249)" fill="#5573c6"/>
            <path id="Trazado_769302" data-name="Trazado 769302" d="M394.916,76.371l-7.986,5.491-8.606-4.8-.732-17.545,16.591-.692Z" transform="translate(-161.382 -25.142)" fill="#f4e3b8"/>
            <path id="Trazado_769303" data-name="Trazado 769303" d="M393.187,64.589l-11.335.473a.515.515,0,0,0,.043,1.028l11.335-.473a.515.515,0,0,0-.043-1.028" transform="translate(-163 -27.605)" fill="#303949"/>
            <path id="Trazado_769304" data-name="Trazado 769304" d="M393.436,70.571l-11.335.473a.515.515,0,0,0,.043,1.028l11.335-.473a.515.515,0,0,0-.043-1.028" transform="translate(-163.106 -30.161)" fill="#303949"/>
            <path id="Trazado_769305" data-name="Trazado 769305" d="M393.686,76.553l-11.335.473a.514.514,0,0,0,.043,1.027l11.335-.472a.515.515,0,0,0-.043-1.028" transform="translate(-163.213 -32.718)" fill="#303949"/>
            <path id="Trazado_769306" data-name="Trazado 769306" d="M393.935,82.535l-11.335.473a.514.514,0,0,0,.043,1.027l11.335-.472a.515.515,0,0,0-.043-1.028" transform="translate(-163.319 -35.275)" fill="#303949"/>
            <path id="Trazado_769307" data-name="Trazado 769307" d="M395.216,89.122q-4.369,2.595-8.535,5.5-4.395-2.55-8.964-4.773c-.332-.161-.6.345-.268.506q4.559,2.217,8.943,4.761a.362.362,0,0,0,.617-.026q4.159-2.9,8.516-5.49c.317-.188.008-.671-.309-.482" transform="translate(-161.256 -38.072)" fill="#303949"/>
            <g id="Grupo_1027928" data-name="Grupo 1027928" transform="translate(218.601 195.179)" style="mix-blend-mode: multiply;isolation: isolate">
              <g id="Grupo_1027927" data-name="Grupo 1027927">
                <g id="Grupo_1027926" data-name="Grupo 1027926" clip-path="url(#clip-path-3)">
                  <path id="Trazado_769308" data-name="Trazado 769308" d="M473.956,346.589c0,3.163-20.637,5.726-46.095,5.726s-46.095-2.564-46.095-5.726,20.637-5.726,46.095-5.726,46.095,2.564,46.095,5.726" transform="translate(-381.767 -340.863)" fill="#e6e6e6"/>
                </g>
              </g>
            </g>
            <path id="Trazado_769309" data-name="Trazado 769309" d="M574.28,193.447a30.545,30.545,0,0,0-1.621,7.238c-.021.59-.36,2.389.093,2.871.451.5,1.926-.258,2.576-.437,1.784-.49,3.622-.693,5.417-1.2a44.684,44.684,0,0,1,7.062-1.34c.228-.024.466-.044.7-.051a6.764,6.764,0,0,1,2.494.295,2.985,2.985,0,0,1,2.068,2.351c.438,2.114-1.718,5.079-2.821,6.73-.092.134-.178.27-.272.409-1.393,2.1-2.853,4.287-3.3,6.778a5.794,5.794,0,0,0,.5,3.587,5.953,5.953,0,0,0,1.167,1.669,6.875,6.875,0,0,0,1.429,1.125,6.356,6.356,0,0,0,3.535.825,14.637,14.637,0,0,0,2.084-.229,10.049,10.049,0,0,0,1.02-.227,14.853,14.853,0,0,0,3.943-1.764c.435-.257.857-.533,1.273-.822.94-.637,1.848-1.328,2.75-1.995.677-.5,1.353-1.042,2.024-1.6.959-.8,1.9-1.649,2.809-2.521,1.031-.977,2.025-1.982,2.963-2.968,1.554-1.65,3.03-3.451,4.469-5.257.386-.481.77-.968,1.151-1.451a45.108,45.108,0,0,1-6.018-.841c-2.344-.493-5.17-1.67-2.762-4.225,1.346-1.439,3.737-1.9,5.646-2.252a46.425,46.425,0,0,1,8.453-.959c.321.009.643.006.961-.015.33-.5.658-1,.972-1.507,1.316-2.139,2.483-4.325,3.561-6.541a12.655,12.655,0,0,0-4.625.118c-1.6.433-4.276,1.682-5.708.527-2.041-1.646.115-3.179,1.608-4.057,2.057-1.19,4.353-1.216,6.624-1.649.8-.153,1.586-.275,2.37-.363a4.157,4.157,0,0,0,3.344-2.395l.006-.026c1.3-2.917,3.044-6.682,5.951-8.391a6.429,6.429,0,0,1,.989-.488,12.712,12.712,0,0,1,3.869-.782c-.627-.221-1.265-.43-1.912-.621a53.916,53.916,0,0,0-17.431-1.71.532.532,0,0,1-.065,0,3.942,3.942,0,0,0-3.378,2.418c-.171.4-.344.8-.54,1.208-.8,1.693-1.824,4.784-3.727,5.475-2.233.8-2.372-2.858-2.2-4.325a9.844,9.844,0,0,1,1.391-3.377c-2.6.5-5.208.762-7.807,1.383-2.684.655-5.407,1.354-8.058,2.121-.563,2.179-.733,4.5-1.079,6.694-.56,3.614-.233,7.977-3.015,10.791-1.469,1.484-2.86,2.011-4.429.467-1.466-1.445-1.662-3.25-1.462-5.2.284-2.847,1.442-5.208,2.516-7.8a27.471,27.471,0,0,1,1.281-2.624c-1.082.2-2.163.432-3.243.677-2.4.553-5.409.439-7.543,1.73-1.531.924-2.838,2.958-3.785,4.448a40.643,40.643,0,0,0-4.273,10.078" transform="translate(-244.692 -72.315)" fill="#4adbd1"/>
            <path id="Trazado_769310" data-name="Trazado 769310" d="M569.213,223.769l-.011.023c-.522,1.108,1.172,1.866,1.75.842a.463.463,0,0,0,.042-.077,38.326,38.326,0,0,1,3.857-6.311,75.615,75.615,0,0,1,5.1-6.09c2.177-2.379,4.43-4.653,6.5-6.858q1.518-1.606,3.09-3.153a119.442,119.442,0,0,1,13.963-11.808c6.136-4.443,12.519-8.816,19.483-11.853,2.661-1.162,5.459-1.878,8.207-2.788a30.346,30.346,0,0,1,5.524-1.493,6.45,6.45,0,0,1,.989-.488,12.7,12.7,0,0,1,3.87-.782c-.627-.221-1.265-.431-1.912-.621a20.557,20.557,0,0,0-4.913.3,73.716,73.716,0,0,0-22.471,9.429,136.023,136.023,0,0,0-23.632,18.248c-.524.518-1.06,1.037-1.6,1.566-2.849,2.787-5.862,5.754-8.678,8.894q-1.389,1.531-2.688,3.126a48.959,48.959,0,0,0-6.473,9.9" transform="translate(-243.233 -73.633)" fill="#2cb8ae"/>
            <path id="Trazado_769311" data-name="Trazado 769311" d="M569.534,235.616c2.834-1.757,4.052,2.911,3.919,4.932-.262,3.935-3.582,11.549-4.939,13.43q1.113-.484,2.264-.905,2.131-.78,4.259-1.573a18.193,18.193,0,0,1,2.23-13.368c.607-1.034,1.507-2.353,2.836-2.378,1.848-.033,1.338,1.85.983,3.032-.609,2.022-3.167,8.8-4.182,12.025,2.844-1.048,5.687-2.1,8.534-3.134.152-4.533.368-10.035,3.633-13.579,2.139-2.319,3.509.693,3.369,2.66-.253,3.523-2.175,7.1-4.456,10q2.014-.721,4.029-1.427l.725-.254c-.117-2.233-.467-4.371.206-6.587a8.847,8.847,0,0,1,4.213-4.955c.855-.5,1.821-1.218,2.887-.987,1.493.322.365,1.656-.227,2.5a61.13,61.13,0,0,0-3.484,5.612c-.575,1.057-1.151,2.029-1.8,3a8.578,8.578,0,0,0-.523.995c1.919-.647,3.86-1.257,5.812-1.826,1.143-3.66,2.557-8.075,6-10.227,2.265-1.406,2.706,1.354,2.149,2.929a15.393,15.393,0,0,1-4.885,6.377c.852-.231,1.71-.456,2.565-.674,2.592-3.669,5.742-8.257,10.375-9.387,2.945-.721,2.43,2.484,1.265,4.016a14.868,14.868,0,0,1-4.43,3.737c.391-.08.784-.157,1.175-.232.938-.182,1.876-.323,2.811-.439,1.77-3.41,3.934-7.549,7.728-9.069,2.477-.993,2.427,1.807,1.6,3.26a15.562,15.562,0,0,1-6.094,5.516c1.434-.091,2.866-.13,4.3-.145,1.855-2.53,4.119-5.575,7.359-6.323,2.13-.488,1.737,1.766.889,2.839a12.274,12.274,0,0,1-5.073,3.488c1.573.007,3.145.023,4.724.014,1.178-.786,2.485-1.517,3.629-2.131,1.356-.722,2.975-1.32,4.489-.652,1.994.877,1.9,2.466.2,3.673a5.027,5.027,0,0,1-2.552.876,4.34,4.34,0,0,1,1.721,1.608,1.486,1.486,0,0,1,.092,1.529,2.424,2.424,0,0,1-2.392.771c-1.738-.245-3.208-1.437-4.688-2.289a9.819,9.819,0,0,0-1.456-.662c-.689-.261-1.4-.492-2.056-.787q-1.557-.009-3.115-.011h0a13.465,13.465,0,0,1,6.648,3.758c.888,1.04,1.361,3.282-.783,2.868-3.441-.664-5.89-3.914-7.893-6.442l.025-.17q-.711.01-1.431.029c-.027,0-.052,0-.074,0a57.053,57.053,0,0,0-7.321.63h-.007a10.548,10.548,0,0,1,2.353,1.12c1.3.849,2.544,3.142.07,3.382-3.179.309-6.2-1.4-8.816-3.177-3.156.739-6.3,1.576-9.411,2.507a16.192,16.192,0,0,1,8.781,2.1c1.4.91,2.727,3.369.075,3.626-4.256.413-8.243-2.543-11.462-4.807l-.016-.11h0c-1.453.458-2.9.94-4.329,1.438q-1.056.37-2.107.747l0,0c4.217-.129,8.742.463,12.064,2.446,1.9,1.131,3.652,4.264-.006,4.676-5.847.658-11.228-3-15.581-5.825l0,0c-1.983.734-3.961,1.484-5.941,2.226,3.743,1.137,11.634,3.03,14.131,3.851,1.168.385,3.8,1.6,2.506,3.244-.719.913-3.125,1.072-4.22.967-2.442-.235-10.474-3.847-15.481-6.927h0c-1.409.519-2.825,1.028-4.247,1.515-.526.18-1.045.372-1.559.568,5.687,1.2,16.627,4.275,18.919,6.011,1.166.883,2.848,2.624,1.948,4.187-.932,1.619-3.554.609-5.013.422-3.359-.43-12.722-5.523-14.317-6.713-1.236-.922-2.32-2.147-3.485-3.119-.021.01-.042.019-.062.03-1.138.487-2.249,1.009-3.341,1.555l.241.144c4.115,2.395,13.165,6.943,15.943,8.644,1.288.791,4.1,2.977,2.087,4.589-1.115.888-4.043.4-5.324-.033-2.664-.9-10.328-6.69-15.509-11.6-.1-.089-.187-.179-.278-.268-3.5,1.9-6.891,3.964-10.516,5.9-1.093.587-2.1-1.064-1.007-1.651,5.236-2.794,10-6.051,15.362-8.465-1.745-6.711.493-17.9,1.775-18.693" transform="translate(-235.891 -98.15)" fill="#373f51"/>
            <path id="Trazado_769312" data-name="Trazado 769312" d="M518.789,276.22c.11.737,1.938.953,2.649,1.19,1.947.655,3.771,1.61,5.734,2.255a49.524,49.524,0,0,1,7.338,3.142c.229.119.459.25.684.391a7.389,7.389,0,0,1,2.116,1.813,3.326,3.326,0,0,1,.448,3.449c-.907,2.217-4.734,3.613-6.769,4.453-2.735,1.139-5.662,2.262-7.748,4.41a6.624,6.624,0,0,0-1.722,5.877c.612,3.212,2.611,4.691,5.433,5.951,3.534,1.59,7.492,1.312,11.264,1.136a70.655,70.655,0,0,0,11.576-1.71c3.113-.7,6.256-1.714,9.337-2.7a50.105,50.105,0,0,1-5.027-4.5c-1.854-1.907-3.728-4.743.072-5.609,2.136-.5,4.615.569,6.6,1.423a51.431,51.431,0,0,1,8.384,4.354,10.606,10.606,0,0,0,.9.578c.614-.248,1.223-.51,1.831-.783,2.539-1.157,4.963-2.448,7.33-3.824a13.878,13.878,0,0,0-4.334-2.755c-1.742-.593-4.981-1.1-5.586-3.054-.861-2.781,2.077-2.859,4-2.742,2.629.176,4.763,1.575,7.126,2.585.831.357,1.633.729,2.41,1.129a4.594,4.594,0,0,0,4.564-.135l.023-.013c3.006-1.884,6.951-4.282,10.689-4.057a7.59,7.59,0,0,1,1.206.168,14.081,14.081,0,0,1,4.054,1.675c-.444-.6-.909-1.188-1.391-1.763l0,0a59.709,59.709,0,0,0-14.99-12.36c-.023-.011-.04-.024-.063-.035a4.353,4.353,0,0,0-4.611.136c-.4.262-.817.523-1.246.778-1.787,1.066-4.645,3.278-6.828,2.735a1.479,1.479,0,0,1-1.159-1.917,8.455,8.455,0,0,1,1.812-3.436,6.252,6.252,0,0,1,1.6-1.292c.577-.34,1.189-.634,1.776-.957-.338-.142-.67-.287-1-.439l-.005,0c-2.34-1.045-4.612-2.212-7.046-3.118-.412-.155-.827-.3-1.247-.456-2.213-.808-4.457-1.6-6.69-2.322-.266-.091-.533-.178-.8-.261-.315.28-.622.569-.918.87-.411.4-.809.819-1.2,1.241-.595.645-1.169,1.306-1.745,1.959-.43.488-.856.968-1.286,1.433-.151.163-.307.336-.455.505-.817.935-1.614,1.959-2.457,2.949-1.8,2.111-3.78,4.062-6.557,4.621-2.271.456-3.877.082-4.363-2.317a5.507,5.507,0,0,1-.11-1.44,6.077,6.077,0,0,1,.93-2.8,11.613,11.613,0,0,1,1.047-1.46c2.025-2.444,4.558-3.907,7.158-5.63.533-.354,1.075-.681,1.625-.988.39-.222.785-.43,1.18-.638-.427-.184-.857-.364-1.293-.541q-1.047-.433-2.116-.842c-.483-.188-.973-.407-1.466-.645-.573-.275-1.153-.571-1.74-.865a12.684,12.684,0,0,0-4.817-1.572c-1.987-.1-4.449.972-6.245,1.753a45.226,45.226,0,0,0-10.177,6.646,33.816,33.816,0,0,0-5.98,5.664c-.388.531-1.807,1.982-1.7,2.707" transform="translate(-221.726 -110.885)" fill="#f4a338"/>
            <path id="Trazado_769313" data-name="Trazado 769313" d="M495.768,309.848c7.643-4.562,17.609-6.224,26.182-8.166q2.4-.541,4.8-1a132.9,132.9,0,0,1,20.181-2.238c2.293-.079,4.6-.14,6.911-.16,2.3-.022,4.6.005,6.885.1a83.691,83.691,0,0,1,11.507,1.2c3.17.579,6.194,1.655,9.3,2.515a34.678,34.678,0,0,1,6.018,2.041,7.6,7.6,0,0,1,1.206.168,14.087,14.087,0,0,1,4.054,1.675c-.444-.6-.909-1.188-1.391-1.763l0,0a22.858,22.858,0,0,0-4.695-2.765,81.73,81.73,0,0,0-26.2-5.211l-.358-.014c-3.239-.121-6.489-.155-9.733-.1a142.535,142.535,0,0,0-23.351,2.275l-2.442.455c-10.013,1.846-21.432,4.024-30.051,9.165-1.2.715-.015,2.529,1.18,1.812" transform="translate(-211.172 -126.557)" fill="#de8c20"/>
            <path id="Trazado_769314" data-name="Trazado 769314" d="M448.926,231.909,390.85,209.423a8.317,8.317,0,0,1-4.523-11.628l64.134-130.94a10.239,10.239,0,0,1,12.656-4.976l58.076,22.486a8.317,8.317,0,0,1,4.523,11.628L461.583,226.932a10.239,10.239,0,0,1-12.656,4.977" transform="translate(-164.724 -26.172)" fill="#5573c6"/>
          </g>
        </g>
        <g id="Grupo_1027932" data-name="Grupo 1027932" transform="translate(215.833 33.184)">
          <g id="Grupo_1027931" data-name="Grupo 1027931" clip-path="url(#clip-path-4)">
            <rect id="Rectángulo_362999" data-name="Rectángulo 362999" width="224.373" height="222.685" transform="translate(-87.286 93.443) rotate(-47.39)" fill="#373f51"/>
          </g>
        </g>
        <g id="Grupo_1027940" data-name="Grupo 1027940">
          <g id="Grupo_1027939" data-name="Grupo 1027939" clip-path="url(#clip-path)">
            <path id="Trazado_769316" data-name="Trazado 769316" d="M519.761,98.9l-16.5,33.7-19.645,40.117-11.444,23.361-3.37,6.875-7.88,16.089a1.09,1.09,0,0,1-1.342.526l-3.425-1.33-.314-.119-19.485-7.543-.257-.1-44.37-17.182a.887.887,0,0,1-.482-1.235l21.357-43.6L431.55,109.77l15.728-32.1,2.814-5.751a1.09,1.09,0,0,1,1.342-.531L483.8,83.92l35.486,13.741a.885.885,0,0,1,.476,1.235" transform="translate(-167.176 -30.484)" fill="#96bdff"/>
            <g id="Grupo_1027935" data-name="Grupo 1027935" transform="translate(280.102 40.84)" style="mix-blend-mode: screen;isolation: isolate">
              <g id="Grupo_1027934" data-name="Grupo 1027934">
                <g id="Grupo_1027933" data-name="Grupo 1027933" clip-path="url(#clip-path-6)">
                  <path id="Trazado_769317" data-name="Trazado 769317" d="M545.153,132.6l-19.645,40.117-36.335-95.04,2.815-5.751a1.091,1.091,0,0,1,1.342-.531l32.365,12.53Z" transform="translate(-489.173 -71.324)" fill="#96bdff"/>
                </g>
              </g>
            </g>
            <g id="Grupo_1027938" data-name="Grupo 1027938" transform="translate(245.426 79.285)" style="mix-blend-mode: screen;isolation: isolate">
              <g id="Grupo_1027937" data-name="Grupo 1027937">
                <g id="Grupo_1027936" data-name="Grupo 1027936" clip-path="url(#clip-path-7)">
                  <path id="Trazado_769318" data-name="Trazado 769318" d="M484.811,231.645l-7.88,16.089a1.091,1.091,0,0,1-1.342.526l-3.425-1.33-.314-.118-19.485-7.543-23.751-62.119,18.949-38.684Z" transform="translate(-428.614 -138.465)" fill="#96bdff"/>
                </g>
              </g>
            </g>
            <path id="Trazado_769319" data-name="Trazado 769319" d="M563.115,86.507,533.915,75.2a.662.662,0,0,1-.36-.926.815.815,0,0,1,1.007-.4l29.2,11.306a.662.662,0,0,1,.36.925.815.815,0,0,1-1.007.4" transform="translate(-228.009 -31.554)" fill="#f9faff"/>
            <path id="Trazado_769320" data-name="Trazado 769320" d="M446.241,317.647a7.033,7.033,0,0,1-8.7,3.391,5.713,5.713,0,0,1-3.137-7.976,7.033,7.033,0,0,1,8.7-3.391,5.713,5.713,0,0,1,3.137,7.976" transform="translate(-185.395 -132.162)" fill="#99ace3"/>
            <path id="Trazado_769321" data-name="Trazado 769321" d="M504.067,185.979a48.8,48.8,0,0,0-2.349-5.831c-1.157-2.4-2.115-4.939-3.275-7.333a63.423,63.423,0,0,1-3.164-7.512,57.838,57.838,0,0,1-2.324-6.894c-.4-2.017-1.117-3.911-1.592-5.905a26.619,26.619,0,0,0-1.078-3.654l-15.847,6.114c-1.174,3.543-1.2,7.745-.9,11.5.42,5.274.756,10.683-.318,15.89-.756,3.665-2.972,7.01-4.7,10.027a6.705,6.705,0,0,0,2.3.654c.976.241,1.945.535,2.909.827a65.622,65.622,0,0,0,7.537,1.5c4.3.778,8.606,1.633,12.9,2.477,2.458.483,4.979.809,7.4,1.5a11.373,11.373,0,0,0,3.375.917c.066-2.1-.033-4.217.064-6.314a21.185,21.185,0,0,0-.941-7.975" transform="translate(-200.245 -63.618)" fill="#f4a338"/>
            <path id="Trazado_769322" data-name="Trazado 769322" d="M481.813,163.329c.009-.184-.277-.171-.286.012-.248,5.061,1.51,9.861,1.8,14.881a50.012,50.012,0,0,1-2.187,16.379c-.05.178.229.242.279.065a51.648,51.648,0,0,0,2.24-15.386c-.151-5.382-2.111-10.552-1.845-15.95" transform="translate(-205.635 -69.75)" fill="#303949"/>
            <path id="Trazado_769323" data-name="Trazado 769323" d="M488.331,166.733c-.029-.18-.316-.17-.286.012a114.691,114.691,0,0,1,.8,30.776c-.02.181.259.247.279.064a114.971,114.971,0,0,0-.788-30.852" transform="translate(-208.588 -71.206)" fill="#303949"/>
            <path id="Trazado_769324" data-name="Trazado 769324" d="M493.127,160.5c-.036-.18-.308-.092-.273.088,2.527,12.743,6.835,25.235,6.755,38.359,0,.184.285.172.286-.012.081-13.152-4.235-25.664-6.768-38.434" transform="translate(-210.643 -68.557)" fill="#303949"/>
            <path id="Trazado_769325" data-name="Trazado 769325" d="M506.127,186.585c-1.707-5.862-2.422-11.957-4.065-17.837-.049-.177-.322-.09-.273.088,1.55,5.546,2.278,11.276,3.783,16.832,1.56,5.76,4.64,11.17,4.471,17.281-.005.184.281.172.286-.012.16-5.806-2.617-10.9-4.2-16.351" transform="translate(-214.461 -72.081)" fill="#303949"/>
            <path id="Trazado_769326" data-name="Trazado 769326" d="M515.135,193.947c-.076-.165-.35-.08-.273.088a62.919,62.919,0,0,1,5.435,19.4c.021.182.307.171.286-.012a63.213,63.213,0,0,0-5.449-19.479" transform="translate(-220.045 -82.854)" fill="#303949"/>
            <path id="Trazado_769327" data-name="Trazado 769327" d="M503.776,156.366c-.037-.18-.31-.092-.273.088a134.326,134.326,0,0,0,3.7,13.99.143.143,0,0,0,.273-.088,134.3,134.3,0,0,1-3.7-13.99" transform="translate(-215.195 -66.788)" fill="#303949"/>
            <path id="Trazado_769328" data-name="Trazado 769328" d="M474.275,190.375h0a4.971,4.971,0,0,1-.829,5.973l-16.7,16.566a3.907,3.907,0,0,1-6.1-.766L440.405,195.06l5.013-1.51,8.01,9.912,12.853-14.006a4.972,4.972,0,0,1,7.994.919" transform="translate(-188.228 -80.285)" fill="#5573c6"/>
            <path id="Trazado_769329" data-name="Trazado 769329" d="M443.391,193.477c.006-.066.018-.131.026-.2.007-.116.02-.231.027-.346a.506.506,0,0,1-.048-.21,35.511,35.511,0,0,1,.871-8.549,6.671,6.671,0,0,1,.558-2.285.47.47,0,0,1,.412-.232,4.175,4.175,0,0,1,.975.189.467.467,0,0,1,.282.233.371.371,0,0,1,.192.287c.385,2.8,2.835,11.012-.242,13.348a1.669,1.669,0,0,1-1.481.558c-1.419-.128-1.685-1.588-1.572-2.8" transform="translate(-189.494 -77.64)" fill="#5573c6"/>
            <path id="Trazado_769330" data-name="Trazado 769330" d="M446.233,187.376c-.017-.184.27-.18.287,0a46.4,46.4,0,0,1-.033,8.926c-.018.182-.305.182-.287,0a46.445,46.445,0,0,0,.032-8.926" transform="translate(-190.705 -80.026)" fill="#303949"/>
            <path id="Trazado_769331" data-name="Trazado 769331" d="M440.73,194.663l-1.59.225-2.021-3.363s-1.346-2.224,1.4-3.992a6.585,6.585,0,0,1,5.495-.673l1.462.449s1.059,1.5-3.449,1.044c0,0,3.488-.114,3.571,1.282,0,0,.546,1.539-4.651.1,0,0,4.275.357,4.588,2.033,0,0,.036,1.488-4.973-.316.137,0,.12.6.169,3.205" transform="translate(-186.683 -79.73)" fill="#ebadab"/>
            <path id="Trazado_769332" data-name="Trazado 769332" d="M431.689,165.067c-.321-.029-19.743-9.887-19.743-9.887l-.176,23.839,19.7-6.728c3.03.25,3.471-6.932.218-7.225" transform="translate(-175.989 -66.324)" fill="#5e80cc"/>
            <path id="Trazado_769333" data-name="Trazado 769333" d="M406.088,166.807c-.049,6.646,1.275,12.042,2.959,12.054,1.332.01,2.5-3.373,2.94-8.093.121-1.228.186-2.544.2-3.916a43.621,43.621,0,0,0-.234-4.972c-.448-4.161-1.488-7.064-2.724-7.073-1.683-.013-3.087,5.362-3.137,12" transform="translate(-173.56 -66.164)" fill="#5573c6"/>
            <path id="Trazado_769334" data-name="Trazado 769334" d="M410.555,171.57a4.362,4.362,0,0,0,3.342,4.477c.121-1.228.187-2.544.2-3.917a43.734,43.734,0,0,0-.235-4.972,4.388,4.388,0,0,0-3.3,4.412" transform="translate(-175.47 -71.443)" fill="#5e80cc"/>
            <path id="Trazado_769335" data-name="Trazado 769335" d="M445.671,179.746l1.986.015a3.812,3.812,0,0,0,.057-7.624l-1.987-.015c2.329,2.7,2.109,5.228-.056,7.624" transform="translate(-190.479 -73.564)" fill="#5573c6"/>
            <path id="Trazado_769336" data-name="Trazado 769336" d="M419.134,160.17q7.174,3.5,14.3,7.1c.165.084.018.33-.147.247q-7.125-3.6-14.3-7.1c-.166-.081-.018-.328.147-.247" transform="translate(-179.043 -68.449)" fill="#303949"/>
            <path id="Trazado_769337" data-name="Trazado 769337" d="M413.348,178.6c2.7-6.366,2.143-13.706.6-20.271-.042-.18.235-.254.278-.074,1.562,6.631,2.125,13.994-.6,20.424-.071.168-.349.092-.277-.078" transform="translate(-176.659 -67.594)" fill="#303949"/>
            <path id="Trazado_769338" data-name="Trazado 769338" d="M410.341,157.886c.082-.165.329-.018.247.147a9.809,9.809,0,0,0-1.041,4.165.144.144,0,0,1-.287,0,10.184,10.184,0,0,1,1.082-4.309" transform="translate(-174.916 -67.449)" fill="#303949"/>
            <path id="Trazado_769339" data-name="Trazado 769339" d="M408.433,161.128a.144.144,0,0,1,.277.078,19.8,19.8,0,0,0-.675,5.359.144.144,0,0,1-.287,0,20.036,20.036,0,0,1,.685-5.435" transform="translate(-174.27 -68.823)" fill="#303949"/>
            <path id="Trazado_769340" data-name="Trazado 769340" d="M413.3,170.486c.136-.124.338.08.2.2-1.011.914-1.019,3.248-.374,4.333a.144.144,0,0,1-.25.143c-.725-1.22-.694-3.672.423-4.68" transform="translate(-176.254 -72.849)" fill="#303949"/>
            <path id="Trazado_769341" data-name="Trazado 769341" d="M445.32,180.371a4.619,4.619,0,0,0,.977-6.59c-.109-.149.141-.291.249-.143a4.9,4.9,0,0,1-1.083,6.982c-.148.11-.29-.14-.143-.249" transform="translate(-190.302 -74.186)" fill="#303949"/>
            <path id="Trazado_769342" data-name="Trazado 769342" d="M442.633,188.28a16.684,16.684,0,0,1,3.6.748.144.144,0,0,1-.078.276,16.358,16.358,0,0,0-3.522-.736c-.184-.012-.183-.3,0-.287" transform="translate(-189.12 -80.47)" fill="#303949"/>
            <path id="Trazado_769343" data-name="Trazado 769343" d="M442.973,191.114a27.143,27.143,0,0,1,3.438.98c.173.062.1.339-.078.277a27.118,27.118,0,0,0-3.439-.98c-.18-.039-.1-.315.078-.277" transform="translate(-189.248 -81.68)" fill="#303949"/>
            <path id="Trazado_769344" data-name="Trazado 769344" d="M439.231,192.671a19.331,19.331,0,0,0,2.364,1.249c.012.005.01.015.019.022.087-.026.19.009.178.122q-.057.508-.112,1.015-.008.423-.015.846c0,.157-.25.2-.282.036l-.047-.239,0-.006a12.868,12.868,0,0,1-.506-1.658.137.137,0,0,1,.076-.157,19.476,19.476,0,0,1-1.816-.983c-.156-.1-.01-.345.147-.247" transform="translate(-187.635 -82.338)" fill="#303949"/>
            <path id="Trazado_769345" data-name="Trazado 769345" d="M505.717,280.954l-11.249,22.964a1.09,1.09,0,0,1-1.342.526l-3.425-1.33-.314-.119-19.741-7.641a117.576,117.576,0,0,1,7.382-23.748l24.292-1.684a91.961,91.961,0,0,1,4.4,11.032" transform="translate(-200.725 -115.364)" fill="#4adbd1"/>
            <path id="Trazado_769346" data-name="Trazado 769346" d="M478.682,235.579s2.526-11.232.982-14.454l-4.674-9.766a15.354,15.354,0,0,1-.912-10.662,14.637,14.637,0,0,1,1.445-3.448L479.746,190a8.734,8.734,0,0,1,4.85-4.009,7.6,7.6,0,0,1,2.363-.362l1.89.014a7.617,7.617,0,0,1,3.008.65,7.9,7.9,0,0,1,1.323.719,15.249,15.249,0,0,1,4.268,4.419,14.825,14.825,0,0,1,1.671,6.3,31.994,31.994,0,0,1-.56,9.187,36.433,36.433,0,0,0-.273,11.848,45.69,45.69,0,0,0,2.061,9.238,32.233,32.233,0,0,0,1.918,4.438c.263.5.9,1.131.6,1.687-.278.515-1.624.715-2.145.839s-.829.23-1.358.322a91.25,91.25,0,0,1-15.819,1.382c-.7,0-1.4-.057-2.1-.113a4.7,4.7,0,0,1-2.489-.569c-.13-.12-.273-.214-.271-.412" transform="translate(-202.382 -79.338)" fill="#5573c6"/>
            <path id="Trazado_769347" data-name="Trazado 769347" d="M493.57,196.863a17.016,17.016,0,0,1-2.6,2.491c-.783.556-2.848,1.807-3.77.982-.137-.123-.342.078-.2.2.743.665,2.1.139,2.888-.219a12.658,12.658,0,0,0,3.887-3.251c.124-.136-.076-.34-.2-.2" transform="translate(-208.121 -84.12)" fill="#303949"/>
            <path id="Trazado_769348" data-name="Trazado 769348" d="M487.384,192.128a12.581,12.581,0,0,0-1.549,5.256.143.143,0,0,0,.286,0,12.214,12.214,0,0,1,1.509-5.112c.078-.165-.168-.313-.246-.146" transform="translate(-207.645 -82.084)" fill="#303949"/>
            <path id="Trazado_769349" data-name="Trazado 769349" d="M504.046,188.453a.143.143,0,0,0-.277.074,2.862,2.862,0,0,1-1.048,2.589c-.123.136.077.341.2.2a3.153,3.153,0,0,0,1.123-2.866" transform="translate(-214.845 -80.5)" fill="#303949"/>
            <path id="Trazado_769350" data-name="Trazado 769350" d="M487.243,227.707a6.111,6.111,0,0,1-3.828-.77c-.844-.468-2.613-1.5-2.617-2.617a.207.207,0,0,0-.413,0c0,1.277,1.651,2.29,2.637,2.868a6.644,6.644,0,0,0,4.327.921c.262-.034.154-.433-.106-.4" transform="translate(-205.315 -95.788)" fill="#303949"/>
            <path id="Trazado_769351" data-name="Trazado 769351" d="M449.452,255.816l-6.483-3.531-4.382,3.544c-.882.657-1.762,1.35-2.621,2.089l-.838-.189a9.01,9.01,0,0,0-3.883-.049l-3.02.595c-.527.166-.613.838.053.934l2.4-.181-1.707.823a23.48,23.48,0,0,0-2.751,1.6l-1.374.946a.5.5,0,0,0,.516.826l3.882-2.017-2.293,1.42-2.368,1.646c-.493.439.052,1.061.455.816l2.1-1.3,2.687-1.392-1.72,1.524a5.78,5.78,0,0,0-.988,1.133l-.938,1.439c-.166.8.254.822.8.644l.882-1.226a4.705,4.705,0,0,1,1.2-1.18l1.847-1.281-2.314,3.591a.489.489,0,0,0,.886.413,21.064,21.064,0,0,1,2.61-3.336,9.378,9.378,0,0,0,4.971-1.97l1.97-1.538Z" transform="translate(-181.38 -107.826)" fill="#ebadab"/>
            <path id="Trazado_769352" data-name="Trazado 769352" d="M475.291,197.883l-7.313,14.74-21.062,18.646.814,4.952,16.7-9.038a43.408,43.408,0,0,0,15.353-14.033l5.454-8.134a11.328,11.328,0,0,0,1.537-9.608c-1.271-4.047-3.891-4.892-8.328-1.424a11.342,11.342,0,0,0-3.156,3.9" transform="translate(-191.011 -81.981)" fill="#5573c6"/>
            <path id="Trazado_769353" data-name="Trazado 769353" d="M400.1,257.132l-37.288-.276a1.735,1.735,0,0,1-1.687-1.39l-4.49-22.179a1.734,1.734,0,0,1,1.713-2.079l37.288.276a1.734,1.734,0,0,1,1.687,1.39l4.49,22.179a1.735,1.735,0,0,1-1.713,2.079" transform="translate(-152.41 -98.818)" fill="#b0c0d2"/>
            <path id="Trazado_769354" data-name="Trazado 769354" d="M388.991,252.527a3.349,3.349,0,1,0,3.359-3.034,3.206,3.206,0,0,0-3.359,3.034" transform="translate(-166.254 -106.633)" fill="#7b92ba"/>
            <rect id="Rectángulo_363002" data-name="Rectángulo 363002" width="2.227" height="35.266" transform="translate(212.876 160.284) rotate(-89.576)" fill="#7b92ba"/>
            <rect id="Rectángulo_363003" data-name="Rectángulo 363003" width="2.227" height="18.376" transform="matrix(0.007, -1, 1, 0.007, 248.141, 160.545)" fill="#d2e0e6"/>
            <path id="Trazado_769355" data-name="Trazado 769355" d="M408.407,233.876q-9.395-.179-18.788.047a.143.143,0,0,0,.012.286q9.394-.226,18.788-.048c.184,0,.172-.282-.012-.286" transform="translate(-166.465 -99.924)" fill="#303949"/>
            <path id="Trazado_769356" data-name="Trazado 769356" d="M425.164,234.679c-.033-.18-.305-.092-.273.088q2.049,11.328,3.96,22.68c.03.18.317.17.286-.011q-1.918-11.39-3.973-22.756" transform="translate(-181.596 -100.259)" fill="#303949"/>
            <path id="Trazado_769357" data-name="Trazado 769357" d="M394.133,249.17c-.179.042-.091.315.088.273,4.188-.989,4.544,6.387.177,5.9-.182-.021-.247.258-.065.279a3.191,3.191,0,0,0,3.568-3.309c-.086-2.108-1.688-3.633-3.768-3.141" transform="translate(-168.409 -106.455)" fill="#303949"/>
            <path id="Trazado_769358" data-name="Trazado 769358" d="M451.508,279.108l-16.154-.127c-.184,0-.172.285.012.286l16.154.128c.184,0,.172-.285-.012-.286" transform="translate(-186.012 -119.236)" fill="#303949"/>
            <path id="Trazado_769359" data-name="Trazado 769359" d="M496.746,180.355c.17.881-3.794,4.283-5.869,6.08a3.428,3.428,0,0,1-1.713.837c-3.637.552.342-4.765-.019-6.688l-.2-1.133-.348-1.925-1.049-3.676,5.929-4.185,1.032-1.409.127.66.486,2.661.929,5.026Z" transform="translate(-208.376 -71.913)" fill="#ebadab"/>
            <path id="Trazado_769360" data-name="Trazado 769360" d="M495.12,171.579a9.787,9.787,0,0,1-6.175,7.873l-.348-1.925-1.05-3.676,5.929-4.185,1.031-1.409.127.66Z" transform="translate(-208.376 -71.913)" fill="#e79092"/>
            <path id="Trazado_769361" data-name="Trazado 769361" d="M493.7,155.859c.377-1.649-.09-3.813-1.49-3.917a2.421,2.421,0,0,0-1.357.4c-1.067-4.666-4.635-9.84-8.135-10.1-4.58-.338-8.535,1.91-9.182,13.511-.256,4.59,2.946,9.391,7.444,10.114,3.38.543,7.305-3.051,9.144-6.817,1.49-.432,3.1-1.1,3.576-3.193" transform="translate(-202.382 -60.781)" fill="#ebadab"/>
            <path id="Trazado_769362" data-name="Trazado 769362" d="M482.65,172.571a4.326,4.326,0,0,1-.468-.014.279.279,0,1,1,.068-.554c.143.017,3.546.349,4.362-2.9a.285.285,0,0,1,.345-.206.276.276,0,0,1,.208.336,4.439,4.439,0,0,1-4.516,3.335" transform="translate(-205.976 -72.184)" fill="#303949"/>
            <path id="Trazado_769363" data-name="Trazado 769363" d="M488.473,162.77a.838.838,0,1,1-.89-.842.873.873,0,0,1,.89.842" transform="translate(-208.058 -69.207)" fill="#303949"/>
            <path id="Trazado_769364" data-name="Trazado 769364" d="M478.763,163.184a.838.838,0,1,1-.89-.842.872.872,0,0,1,.89.842" transform="translate(-203.908 -69.384)" fill="#303949"/>
            <path id="Trazado_769365" data-name="Trazado 769365" d="M489.8,159.285a.286.286,0,0,1-.276-.132,1.808,1.808,0,0,0-2.43-.751.289.289,0,0,1-.386-.113.277.277,0,0,1,.12-.377,2.369,2.369,0,0,1,3.186.952.276.276,0,0,1-.1.383.284.284,0,0,1-.115.039" transform="translate(-208.005 -67.375)" fill="#303949"/>
            <path id="Trazado_769366" data-name="Trazado 769366" d="M478.292,158.976a.244.244,0,0,1-.251.065,1.519,1.519,0,0,0-1.974.831.244.244,0,0,1-.31.136.231.231,0,0,1-.136-.3,2,2,0,0,1,2.569-1.11.232.232,0,0,1,.1.381" transform="translate(-203.272 -67.73)" fill="#303949"/>
            <path id="Trazado_769367" data-name="Trazado 769367" d="M481.793,169.175a.256.256,0,1,0-.072-.508c-.005,0-.5.06-.667-.182-.077-.112-.188-.478.405-1.46a.252.252,0,0,0-.092-.35.268.268,0,0,0-.36.092c-.555.92-.684,1.576-.391,2.005a1.3,1.3,0,0,0,1.174.4Z" transform="translate(-205.35 -71.222)" fill="#303949"/>
            <path id="Trazado_769368" data-name="Trazado 769368" d="M499.71,316.246l-.314-.119c-1.177-5.4-4.151-10.195-6.316-15.262-.076-.168.176-.311.246-.142,2.2,5.158,5.22,10.018,6.385,15.523" transform="translate(-210.735 -128.496)" fill="#303949"/>
            <path id="Trazado_769369" data-name="Trazado 769369" d="M504.892,270.486a78.379,78.379,0,0,1-15.692.834c-.184-.009-.186.278,0,.286a78.828,78.828,0,0,0,15.767-.843c.182-.028.107-.3-.074-.277" transform="translate(-209.024 -115.604)" fill="#303949"/>
            <path id="Trazado_769370" data-name="Trazado 769370" d="M510.057,267.178a39.107,39.107,0,0,1-10.587,1.4.143.143,0,0,0,0,.286,39.276,39.276,0,0,0,10.663-1.413.143.143,0,0,0-.074-.277" transform="translate(-213.412 -114.188)" fill="#303949"/>
            <path id="Trazado_769371" data-name="Trazado 769371" d="M449.785,260.781c-.01-.183-.3-.187-.286,0a16.749,16.749,0,0,0,.5,3.27.143.143,0,0,0,.277-.074,16.314,16.314,0,0,1-.489-3.193" transform="translate(-192.114 -111.398)" fill="#303949"/>
            <path id="Trazado_769372" data-name="Trazado 769372" d="M451.447,259.472l-.022,3.028a.143.143,0,0,0,.286,0l.022-3.029a.143.143,0,0,0-.286,0" transform="translate(-192.938 -110.839)" fill="#303949"/>
            <path id="Trazado_769373" data-name="Trazado 769373" d="M475.977,210.085a11.3,11.3,0,0,0-1.825,9.929c.05.178.322.09.273-.088a10.987,10.987,0,0,1,1.763-9.648c.108-.147-.1-.342-.211-.194" transform="translate(-202.463 -89.767)" fill="#303949"/>
            <path id="Trazado_769374" data-name="Trazado 769374" d="M497.277,217.217c-1.678,6.951-6.767,12.4-11.1,17.852-.115.144.114.317.228.172,4.376-5.507,9.463-10.969,11.157-17.986.043-.179-.241-.215-.284-.038" transform="translate(-207.777 -92.788)" fill="#303949"/>
            <path id="Trazado_769375" data-name="Trazado 769375" d="M490.76,201.656q-4.918,8.879-10.306,17.485c-.085.136.14.244.224.109q5.387-8.605,10.306-17.485c.078-.14-.146-.249-.223-.109" transform="translate(-205.337 -86.16)" fill="#303949"/>
            <path id="Trazado_769376" data-name="Trazado 769376" d="M491.321,144.519c-.01-.022-.021-.044-.032-.066-1.731-3.571-6.748-5.342-10.476-4.844-6.885.919-10.077,8.057-9.908,14.321.035,1.307.285,2.643.276,3.933a9.914,9.914,0,0,1,2.8-6.763,8.833,8.833,0,0,1,3.927-2.3c1.317-.382,7.4-1.027,7.4-1.027s-.339,1.263-.549,1.749l-.011.026c-.661,1.474.081,3.04.68,4.392.277.626,1.245,2.964.1,3.252,5.356-1.35,8.1-7.789,5.79-12.672" transform="translate(-201.261 -59.633)" fill="#f4a338"/>
            <path id="Trazado_769377" data-name="Trazado 769377" d="M485.864,147.295c-5.148,1.54-11.459,3.255-14.091,8.433a.143.143,0,0,0,.253.134c2.6-5.1,8.854-6.777,13.926-8.295a.143.143,0,0,0-.088-.273" transform="translate(-201.627 -62.951)" fill="#303949"/>
            <path id="Trazado_769378" data-name="Trazado 769378" d="M499.314,151.308a11.148,11.148,0,0,0,.013,8.505c.061.174.334.087.273-.088a10.926,10.926,0,0,1-.033-8.284c.068-.169-.185-.305-.253-.134" transform="translate(-213.047 -64.635)" fill="#303949"/>
            <path id="Trazado_769379" data-name="Trazado 769379" d="M501.564,152.816a18.189,18.189,0,0,1-.52,5.048.144.144,0,0,0,.279.065,18.451,18.451,0,0,0,.527-5.125.143.143,0,0,0-.286.012" transform="translate(-214.143 -65.252)" fill="#303949"/>
            <path id="Trazado_769380" data-name="Trazado 769380" d="M503.2,147.544c-.048-.178-.321-.09-.273.088.748,2.8,1.424,5.695-.036,8.391a.144.144,0,0,0,.254.134c1.493-2.757.824-5.736.055-8.613" transform="translate(-214.925 -63.018)" fill="#303949"/>
            <path id="Trazado_769381" data-name="Trazado 769381" d="M490.8,150.215a30.093,30.093,0,0,0-4.729,1.479c-.169.069-.084.342.088.273a30.093,30.093,0,0,1,4.729-1.479c.179-.04.091-.313-.088-.273" transform="translate(-207.708 -64.2)" fill="#303949"/>
            <path id="Trazado_769382" data-name="Trazado 769382" d="M485.164,141.431a11,11,0,0,0-7.292,2.221c-2.274,1.748-3.194,4.248-4.628,6.632-.1.158.159.291.253.134,1.332-2.215,2.22-4.6,4.269-6.293a10.7,10.7,0,0,1,7.409-2.408c.184.007.171-.278-.011-.286" transform="translate(-202.254 -60.443)" fill="#303949"/>
            <path id="Trazado_769383" data-name="Trazado 769383" d="M492.073,145.221c-3.216-2.312-9.048-.463-11.2,2.574-.107.15.148.283.253.134,1.971-2.788,7.727-4.67,10.748-2.5.148.107.344-.1.194-.211" transform="translate(-205.515 -61.623)" fill="#303949"/>
          </g>
        </g>
        <g id="Grupo_1027942" data-name="Grupo 1027942" transform="translate(280.402 142.896)">
          <g id="Grupo_1027941" data-name="Grupo 1027941" clip-path="url(#clip-path-8)">
            <rect id="Rectángulo_363005" data-name="Rectángulo 363005" width="0.289" height="0.241" transform="matrix(0.999, -0.042, 0.042, 0.999, -0.01, 0)" fill="url(#linear-gradient)"/>
          </g>
        </g>
        <g id="Grupo_1027947" data-name="Grupo 1027947">
          <g id="Grupo_1027946" data-name="Grupo 1027946" clip-path="url(#clip-path)">
            <path id="Trazado_769385" data-name="Trazado 769385" d="M498.841,88.24a6.724,6.724,0,0,0-3.513-3.209.6.6,0,0,1-.01-1.089,5.9,5.9,0,0,0,3.121-3.245.6.6,0,0,1,1.087-.065A5.992,5.992,0,0,0,503.2,83.54a.6.6,0,0,1,.07,1.1,6.333,6.333,0,0,0-3.339,3.532.6.6,0,0,1-1.091.071" transform="translate(-211.548 -34.325)" fill="#fff"/>
            <path id="Trazado_769386" data-name="Trazado 769386" d="M509.914,99.713a3.754,3.754,0,0,0-1.962-1.792.332.332,0,0,1-.006-.608,3.293,3.293,0,0,0,1.742-1.812.334.334,0,0,1,.608-.036,3.345,3.345,0,0,0,2.053,1.623.334.334,0,0,1,.039.613,3.538,3.538,0,0,0-1.865,1.973.333.333,0,0,1-.61.04" transform="translate(-217.011 -40.725)" fill="#fff"/>
            <path id="Trazado_769387" data-name="Trazado 769387" d="M207.434,91.383a6.719,6.719,0,0,1,3.233-3.491.6.6,0,0,0-.081-1.086,5.9,5.9,0,0,1-3.38-2.974.6.6,0,0,0-1.09.026,5.99,5.99,0,0,1-3.422,3.2.6.6,0,0,0,.022,1.1A6.333,6.333,0,0,1,206.34,91.4a.6.6,0,0,0,1.094-.021" transform="translate(-86.481 -35.685)" fill="#fff"/>
            <path id="Trazado_769388" data-name="Trazado 769388" d="M200.087,103.627a3.754,3.754,0,0,1,1.806-1.95.332.332,0,0,0-.045-.606,3.29,3.29,0,0,1-1.887-1.661.334.334,0,0,0-.609.014,3.348,3.348,0,0,1-1.911,1.789.333.333,0,0,0,.012.614,3.536,3.536,0,0,1,2.023,1.811.333.333,0,0,0,.611-.011" transform="translate(-84.301 -42.407)" fill="#fff"/>
            <path id="Trazado_769389" data-name="Trazado 769389" d="M537.788,116.386a1.7,1.7,0,0,0,1.7-1.9,1.729,1.729,0,0,0-1.721-1.5l-6.366-.036a10.917,10.917,0,0,0,.555-4.242c-.145-2.035-.81-3.171-2.019-3.364A1.169,1.169,0,0,0,528.6,106.5a12.616,12.616,0,0,1-1.416,5.72l-1.171,2.257a3.953,3.953,0,0,1-1.981,1.826l-.048,8.366a13.537,13.537,0,0,0,4.466.8l6.89.064a1.7,1.7,0,0,0,1.267-2.838,1.7,1.7,0,0,0,1.141-2.913h.021a1.7,1.7,0,0,0,.019-3.4" transform="translate(-223.949 -45.016)" fill="#fff"/>
            <path id="Trazado_769390" data-name="Trazado 769390" d="M518.626,132.922l-3.414-.019a1.391,1.391,0,0,1-1.379-1.4l.046-8.012a1.392,1.392,0,0,1,1.4-1.38l3.414.019a1.392,1.392,0,0,1,1.379,1.4l-.046,8.012a1.392,1.392,0,0,1-1.4,1.379" transform="translate(-219.61 -52.192)" fill="#f4a338"/>
            <path id="Trazado_769391" data-name="Trazado 769391" d="M521.459,123.128a5.89,5.89,0,0,0-2.391.013c-.469.1-.223.8.242.705a4.857,4.857,0,0,1,1.578-.053q.008,2.4.015,4.8c0,.48.746.433.744-.046q-.007-2.4-.014-4.794a.369.369,0,0,0-.174-.626" transform="translate(-221.74 -52.575)" fill="#303949"/>
            <path id="Trazado_769392" data-name="Trazado 769392" d="M535.067,106.69c-.258-.4-.879.01-.62.416,1.386,2.17,1,4.757.048,7.017-.186.441.48.779.666.336,1.061-2.519,1.443-5.364-.094-7.769" transform="translate(-228.395 -45.528)" fill="#303949"/>
            <path id="Trazado_769393" data-name="Trazado 769393" d="M545.135,122.938q-1.888-.086-3.776-.057c-.48.007-.433.752.046.745q1.89-.029,3.776.057c.479.022.429-.723-.046-.744" transform="translate(-231.231 -52.516)" fill="#303949"/>
            <path id="Trazado_769394" data-name="Trazado 769394" d="M544.751,129.206l-2.606.16a.373.373,0,0,0,.046.745l2.606-.161a.373.373,0,0,0-.046-.744" transform="translate(-231.567 -55.222)" fill="#303949"/>
            <path id="Trazado_769395" data-name="Trazado 769395" d="M544.829,134.966l-1.448.089a.373.373,0,0,0,.046.744l1.448-.089a.373.373,0,0,0-.046-.744" transform="translate(-232.095 -57.684)" fill="#303949"/>
            <g id="Grupo_1027945" data-name="Grupo 1027945" transform="translate(88.047 194.034)" style="mix-blend-mode: multiply;isolation: isolate">
              <g id="Grupo_1027944" data-name="Grupo 1027944">
                <g id="Grupo_1027943" data-name="Grupo 1027943" clip-path="url(#clip-path-3)">
                  <path id="Trazado_769396" data-name="Trazado 769396" d="M245.956,344.589c0,3.162-20.637,5.726-46.095,5.726s-46.095-2.564-46.095-5.726,20.637-5.726,46.095-5.726,46.095,2.564,46.095,5.726" transform="translate(-153.767 -338.863)" fill="#e6e6e6"/>
                </g>
              </g>
            </g>
            <path id="Trazado_769397" data-name="Trazado 769397" d="M86.561,195.408a30.569,30.569,0,0,1,.884,7.364c-.039.589.117,2.414-.382,2.847-.5.45-1.89-.451-2.519-.695-1.726-.668-3.534-1.055-5.269-1.735a44.751,44.751,0,0,0-6.891-2.045c-.224-.047-.459-.09-.695-.122a6.759,6.759,0,0,0-2.511.042,2.984,2.984,0,0,0-2.295,2.13c-.649,2.059,1.2,5.226,2.128,6.979.078.143.151.287.23.434,1.175,2.227,2.407,4.553,2.6,7.076a5.8,5.8,0,0,1-.857,3.519,5.94,5.94,0,0,1-1.33,1.543,6.85,6.85,0,0,1-1.535.975,6.355,6.355,0,0,1-3.6.464,14.542,14.542,0,0,1-2.05-.438,9.988,9.988,0,0,1-.993-.329,14.85,14.85,0,0,1-3.745-2.152c-.407-.3-.8-.617-1.184-.947-.87-.728-1.7-1.508-2.534-2.261-.623-.57-1.241-1.173-1.852-1.8-.874-.892-1.72-1.831-2.541-2.791-.928-1.075-1.815-2.176-2.649-3.251-1.379-1.8-2.667-3.739-3.916-5.681-.336-.517-.669-1.041-1-1.56a45.079,45.079,0,0,0,6.072-.23c2.381-.254,5.312-1.141,3.173-3.925-1.194-1.568-3.527-2.262-5.391-2.81A46.375,46.375,0,0,0,37.6,194.2c-.321-.023-.64-.059-.955-.112-.279-.526-.555-1.059-.815-1.6-1.094-2.261-2.034-4.553-2.883-6.867a12.647,12.647,0,0,1,4.589.583c1.551.593,4.084,2.1,5.626,1.1,2.2-1.432.206-3.174-1.191-4.2-1.926-1.391-4.209-1.649-6.425-2.308-.784-.233-1.551-.433-2.321-.6a4.156,4.156,0,0,1-3.085-2.719l0-.026c-1-3.034-2.355-6.955-5.074-8.948a6.436,6.436,0,0,0-.935-.585,12.7,12.7,0,0,0-3.771-1.168c.646-.157,1.3-.3,1.965-.425a53.933,53.933,0,0,1,17.514.056.447.447,0,0,0,.064.01,3.943,3.943,0,0,1,3.117,2.747c.129.415.261.834.416,1.256.622,1.764,1.333,4.943,3.156,5.823,2.14,1.02,2.648-2.605,2.625-4.082a9.846,9.846,0,0,0-1.043-3.5c2.536.76,5.1,1.284,7.628,2.163,2.6.922,5.242,1.892,7.8,2.923.341,2.225.276,4.554.4,6.768.193,3.652-.572,7.96,1.912,11.04,1.312,1.624,2.643,2.289,4.359.911,1.6-1.29,1.981-3.066,1.979-5.027,0-2.862-.91-5.328-1.717-8.018a27.466,27.466,0,0,0-1.01-2.739c1.056.307,2.108.648,3.158,1,2.334.792,5.338.982,7.33,2.482,1.431,1.073,2.526,3.229,3.318,4.807a40.631,40.631,0,0,1,3.235,10.457" transform="translate(-8.699 -70.793)" fill="#f4a338"/>
            <path id="Trazado_769398" data-name="Trazado 769398" d="M87.228,225.144l.009.024c.407,1.155-1.354,1.738-1.827.661a.481.481,0,0,1-.034-.081,38.326,38.326,0,0,0-3.2-6.667,75.392,75.392,0,0,0-4.462-6.573c-1.926-2.586-3.938-5.076-5.778-7.479q-1.349-1.751-2.757-3.449a119.447,119.447,0,0,0-12.7-13.156c-5.657-5.039-11.567-10.033-18.189-13.756-2.53-1.425-5.242-2.419-7.884-3.6a30.382,30.382,0,0,0-5.345-2.042,6.437,6.437,0,0,0-.935-.585,12.7,12.7,0,0,0-3.771-1.168c.646-.156,1.3-.3,1.965-.425a20.579,20.579,0,0,1,4.859.79,73.735,73.735,0,0,1,21.406,11.646A136.086,136.086,0,0,1,70.255,199.82c.469.569.949,1.139,1.434,1.718,2.553,3.061,5.252,6.316,7.737,9.724q1.227,1.663,2.36,3.381a48.973,48.973,0,0,1,5.442,10.5" transform="translate(-8.699 -71.31)" fill="#df922b"/>
            <path id="Trazado_769399" data-name="Trazado 769399" d="M72.182,236.645c-2.643-2.034-4.325,2.487-4.4,4.512-.136,3.942,2.4,11.852,3.559,13.859q-1.058-.593-2.161-1.129-2.042-.99-4.078-1.994a18.2,18.2,0,0,0-.873-13.525c-.5-1.089-1.261-2.493-2.581-2.652-1.836-.219-1.518,1.705-1.284,2.917.4,2.073,2.263,9.079,2.949,12.385-2.724-1.328-5.447-2.663-8.175-3.978.305-4.525.645-10.021-2.245-13.876-1.894-2.523-3.561.336-3.619,2.307-.1,3.53,1.449,7.279,3.425,10.4q-1.931-.921-3.864-1.826l-.7-.325c.342-2.21.905-4.3.46-6.573a8.849,8.849,0,0,0-3.693-5.355c-.8-.58-1.688-1.395-2.772-1.272-1.517.169-.53,1.611-.025,2.507a61.289,61.289,0,0,1,2.9,5.934c.467,1.109.942,2.135,1.493,3.165a8.74,8.74,0,0,1,.421,1.042q-2.767-1.256-5.6-2.4c-.77-3.756-1.731-8.291-4.944-10.78-2.112-1.627-2.828,1.074-2.433,2.7a15.393,15.393,0,0,0,4.217,6.836c-.825-.316-1.655-.626-2.485-.929-2.208-3.912-4.88-8.795-9.376-10.386-2.858-1.014-2.668,2.226-1.664,3.868a14.9,14.9,0,0,0,4.031,4.165q-.571-.178-1.145-.349c-.915-.276-1.833-.511-2.753-.721-1.418-3.571-3.153-7.908-6.774-9.8-2.364-1.237-2.6,1.553-1.925,3.082a15.559,15.559,0,0,0,5.507,6.1c-1.417-.235-2.839-.419-4.267-.578-1.59-2.7-3.536-5.962-6.684-7.033-2.069-.7-1.906,1.582-1.17,2.735a12.269,12.269,0,0,0,4.7,3.981c-1.567-.151-3.132-.294-4.7-.462-1.094-.9-2.32-1.76-3.4-2.486-1.277-.855-2.828-1.614-4.4-1.1-2.072.672-2.138,2.261-.567,3.634a5.033,5.033,0,0,0,2.451,1.128,4.344,4.344,0,0,0-1.874,1.427,1.484,1.484,0,0,0-.246,1.512,2.422,2.422,0,0,0,2.3,1.008c1.755-.068,3.337-1.105,4.9-1.8A9.84,9.84,0,0,1,10.137,236c.713-.191,1.441-.349,2.126-.577,1.034.1,2.067.2,3.1.3h0A13.46,13.46,0,0,0,8.373,238.8c-.988.945-1.685,3.128.49,2.932,3.491-.314,6.255-3.3,8.5-5.614l-.009-.171q.708.082,1.422.172c.026,0,.052,0,.073.007a57.134,57.134,0,0,1,7.219,1.365l.007,0a10.534,10.534,0,0,0-2.454.877c-1.382.713-2.848,2.87-.411,3.358,3.132.628,6.307-.767,9.091-2.271,3.065,1.053,6.111,2.2,9.11,3.442a16.193,16.193,0,0,0-8.947,1.205c-1.482.764-3.054,3.077-.44,3.6,4.192.839,8.457-1.7,11.887-3.627l.027-.108h0q2.1.9,4.162,1.867c.676.317,1.351.634,2.02.956l.005,0c-4.183-.554-8.744-.421-12.249,1.217-2,.934-4.063,3.874-.466,4.652,5.751,1.245,11.473-1.858,16.088-4.225l0,0c1.9.93,3.791,1.876,5.687,2.814-3.839.754-11.88,1.842-14.446,2.407-1.2.265-3.944,1.2-2.821,2.975.624.98,3,1.382,4.1,1.387,2.452.012,10.808-2.773,16.1-5.331l0,0c1.35.659,2.707,1.307,4.072,1.935.5.232,1,.475,1.494.722-5.779.618-16.973,2.577-19.428,4.074-1.249.761-3.1,2.323-2.36,3.969.764,1.705,3.475.964,4.944.925,3.386-.09,13.214-4.213,14.92-5.236,1.322-.792,2.525-1.9,3.782-2.752l.059.036c1.082.6,2.136,1.231,3.167,1.884l-.254.119c-4.336,1.967-13.8,5.581-16.734,6.993-1.361.657-4.38,2.548-2.538,4.356,1.019,1,3.98.808,5.3.5,2.742-.626,10.95-5.615,16.6-9.974.1-.08.2-.159.3-.239,3.286,2.239,6.457,4.639,9.869,6.928,1.029.694,2.2-.847,1.168-1.541-4.927-3.307-9.34-7.029-14.43-9.97,2.412-6.5,1.313-17.855.118-18.777" transform="translate(0 -96.188)" fill="#373f51"/>
            <path id="Trazado_769400" data-name="Trazado 769400" d="M120.845,285.882c-.183.722-2.025.752-2.755.917-2,.455-3.914,1.222-5.932,1.666a49.532,49.532,0,0,0-7.618,2.387c-.24.1-.482.2-.72.32a7.385,7.385,0,0,0-2.288,1.591,3.328,3.328,0,0,0-.794,3.387c.679,2.3,4.346,4.071,6.285,5.113,2.607,1.409,5.406,2.821,7.264,5.168a6.621,6.621,0,0,1,1.122,6.02c-.933,3.134-3.071,4.4-6,5.373-3.677,1.226-7.586.551-11.321-.005a70.533,70.533,0,0,1-11.345-2.868c-3.026-1.014-6.051-2.336-9.017-3.629a50.1,50.1,0,0,0,5.454-3.968c2.037-1.71,4.188-4.343.494-5.587-2.075-.709-4.649.1-6.71.751A51.371,51.371,0,0,0,68.179,306c-.311.175-.63.342-.952.484-.586-.309-1.165-.63-1.742-.963-2.409-1.407-4.691-2.936-6.907-4.544a13.887,13.887,0,0,1,4.589-2.3c1.793-.413,5.067-.593,5.866-2.475,1.136-2.68-1.779-3.054-3.7-3.132-2.635-.09-4.9,1.087-7.351,1.854-.863.271-1.7.561-2.511.881a4.593,4.593,0,0,1-4.527-.594l-.022-.014c-2.8-2.179-6.484-4.961-10.226-5.114a7.516,7.516,0,0,0-1.217.046,14.085,14.085,0,0,0-4.2,1.257c.5-.549,1.024-1.09,1.562-1.614l.005,0A59.7,59.7,0,0,1,53,278.982c.025-.009.042-.021.066-.029a4.355,4.355,0,0,1,4.573.6c.374.3.76.6,1.161.9,1.671,1.24,4.291,3.729,6.518,3.409a1.479,1.479,0,0,0,1.346-1.79,8.459,8.459,0,0,0-1.457-3.6,6.268,6.268,0,0,0-1.458-1.447c-.539-.4-1.119-.75-1.67-1.131.351-.107.7-.218,1.043-.335l.005,0c2.434-.8,4.812-1.736,7.325-2.393.426-.112.854-.219,1.287-.328,2.283-.581,4.6-1.139,6.891-1.637.273-.064.549-.122.819-.179.285.31.562.629.826.958.369.44.721.9,1.064,1.356.527.7,1.031,1.417,1.539,2.125.378.53.754,1.05,1.135,1.556.134.178.271.365.4.549.719,1.012,1.408,2.111,2.147,3.182,1.578,2.281,3.352,4.422,6.058,5.259,2.213.682,3.848.472,4.574-1.866a5.5,5.5,0,0,0,.255-1.421,6.068,6.068,0,0,0-.644-2.88,11.59,11.59,0,0,0-.895-1.558c-1.768-2.636-4.142-4.347-6.553-6.323-.494-.407-1-.786-1.517-1.147-.366-.26-.738-.507-1.11-.754.444-.14.889-.275,1.341-.407.723-.217,1.455-.426,2.19-.625.5-.138,1.009-.307,1.524-.494.6-.216,1.2-.452,1.819-.685a12.676,12.676,0,0,1,4.95-1.078c1.988.1,4.329,1.415,6.037,2.373a45.236,45.236,0,0,1,9.456,7.639,33.817,33.817,0,0,1,5.379,6.238c.332.568,1.6,2.154,1.416,2.865" transform="translate(-15.077 -114.012)" fill="#4adbd1"/>
            <path id="Trazado_769401" data-name="Trazado 769401" d="M131.437,318.452c-7.144-5.309-16.892-7.968-25.226-10.764q-2.329-.78-4.68-1.477a132.832,132.832,0,0,0-19.852-4.26c-2.273-.31-4.563-.6-6.86-.856-2.281-.253-4.572-.458-6.86-.593a83.6,83.6,0,0,0-11.569.038c-3.213.257-6.329,1.022-9.5,1.566A34.672,34.672,0,0,0,40.7,303.53a7.52,7.52,0,0,0-1.217.046,14.07,14.07,0,0,0-4.2,1.258c.5-.55,1.024-1.09,1.562-1.614l.005,0a22.848,22.848,0,0,1,4.949-2.278A81.735,81.735,0,0,1,68.383,298.4l.358.022c3.235.207,6.472.5,9.693.886a142.616,142.616,0,0,1,23,4.617l2.383.7c9.776,2.846,20.918,6.164,28.974,12.148,1.121.832-.24,2.518-1.356,1.684" transform="translate(-15.077 -127.461)" fill="#2cb8ae"/>
            <path id="Trazado_769402" data-name="Trazado 769402" d="M209.07,210.52l-59.856,17.2a9.947,9.947,0,0,1-11.953-6.15L88.367,84.474A8.547,8.547,0,0,1,94.12,73.238l59.856-17.2a9.947,9.947,0,0,1,11.954,6.15l48.893,137.092a8.546,8.546,0,0,1-5.752,11.236" transform="translate(-37.541 -23.796)" fill="#5573c6"/>
          </g>
        </g>
        <g id="Grupo_1027949" data-name="Grupo 1027949" transform="translate(54.965 30.539)">
          <g id="Grupo_1027948" data-name="Grupo 1027948" clip-path="url(#clip-path-11)">
            <rect id="Rectángulo_363008" data-name="Rectángulo 363008" width="189.966" height="211.624" transform="matrix(0.911, -0.413, 0.413, 0.911, -66.473, 29.643)" fill="#373f51"/>
          </g>
        </g>
        <g id="Grupo_1027957" data-name="Grupo 1027957">
          <g id="Grupo_1027956" data-name="Grupo 1027956" clip-path="url(#clip-path)">
            <path id="Trazado_769404" data-name="Trazado 769404" d="M218.969,195.453,192.6,203.029,149.04,215.54a1.048,1.048,0,0,1-1.271-.652l-5.582-15.648-9.9-27.744v-.006l-15.875-44.515v-.006L102.909,89.108a.913.913,0,0,1,.609-1.194l68.586-19.7h.006l1.342-.388a1.056,1.056,0,0,1,1.265.652l12.935,36.265,12.053,33.809,13.947,39.088,5.926,16.625a.9.9,0,0,1-.609,1.189" transform="translate(-43.959 -28.972)" fill="#96bdff"/>
            <g id="Grupo_1027952" data-name="Grupo 1027952" transform="translate(72.455 38.815)" style="mix-blend-mode: screen;isolation: isolate">
              <g id="Grupo_1027951" data-name="Grupo 1027951">
                <g id="Grupo_1027950" data-name="Grupo 1027950" clip-path="url(#clip-path-13)">
                  <path id="Trazado_769405" data-name="Trazado 769405" d="M197.775,104.742l-55.362,66.749-15.875-44.515v-.006l55.69-58.757h.006l1.342-.388a1.055,1.055,0,0,1,1.265.652Z" transform="translate(-126.537 -67.787)" fill="#96bdff"/>
                </g>
              </g>
            </g>
            <g id="Grupo_1027955" data-name="Grupo 1027955" transform="translate(98.229 109.579)" style="mix-blend-mode: screen;isolation: isolate">
              <g id="Grupo_1027954" data-name="Grupo 1027954">
                <g id="Grupo_1027953" data-name="Grupo 1027953" clip-path="url(#clip-path-14)">
                  <path id="Trazado_769406" data-name="Trazado 769406" d="M243.012,230.458l-21.056,25.39L178.4,268.359a1.048,1.048,0,0,1-1.271-.652l-5.582-15.648,57.517-60.69Z" transform="translate(-171.548 -191.37)" fill="#96bdff"/>
                </g>
              </g>
            </g>
            <path id="Trazado_769407" data-name="Trazado 769407" d="M165.063,68.118l-30.095,8.646a.792.792,0,0,1-.952-.49.68.68,0,0,1,.458-.894l30.094-8.646a.792.792,0,0,1,.952.49.68.68,0,0,1-.457.894" transform="translate(-57.26 -28.51)" fill="#f9faff"/>
            <path id="Trazado_769408" data-name="Trazado 769408" d="M250.582,315.157a5.871,5.871,0,0,1-3.98,7.7,6.833,6.833,0,0,1-8.225-4.2,5.871,5.871,0,0,1,3.98-7.7,6.833,6.833,0,0,1,8.224,4.2" transform="translate(-101.728 -132.794)" fill="#99ace3"/>
            <path id="Trazado_769409" data-name="Trazado 769409" d="M203.5,257.884l25.489-1.17s8.918,13.4,10.124,25.361L199.964,293.4s-3.524-20.966,3.532-35.517" transform="translate(-85.088 -109.719)" fill="#12263f"/>
            <path id="Trazado_769410" data-name="Trazado 769410" d="M235.76,270.569c-.034-.18-.307-.092-.273.088a35.352,35.352,0,0,1,.675,7.217,15.252,15.252,0,0,1-.247,3.6q.169,1.487-1.545,1.654-.731.046-1.464.058a.143.143,0,0,0,.012.286c.715-.02,1.265-.028,1.695-.074,0,.006-.006.009-.006.015a57.174,57.174,0,0,1-.614,9.821c-.027.182.252.247.279.065a57.589,57.589,0,0,0,.621-9.9c0-.018-.013-.026-.018-.041,1.044-.181,1.227-.737,1.419-2.729a35.286,35.286,0,0,0-.534-10.064" transform="translate(-99.487 -115.598)" fill="#303949"/>
            <path id="Trazado_769411" data-name="Trazado 769411" d="M233.27,262.39l-.364-1.7c-.039-.18-.311-.092-.273.088q.183.85.365,1.7a.115.115,0,0,0,.061.084.127.127,0,0,0-.1.015c-.136.084-.278.155-.416.234l-.527-1.65a.143.143,0,0,0-.273.088l.545,1.705c-4.733,2.54-10.812,1.954-16.235,1.1a8.164,8.164,0,0,1,.072-1.909c.029-.181-.25-.247-.279-.065a8.521,8.521,0,0,0-.083,1.927l-.594-.1c.006-.016.02-.026.02-.046a7.409,7.409,0,0,1,.212-1.7.143.143,0,0,0-.279-.065,7.716,7.716,0,0,0-.219,1.77c-.824-.136-1.629-.273-2.407-.4-.181-.03-.246.249-.064.279,1.075.176,2.2.369,3.354.553,0,.023,0,.046.005.069.021.182.307.171.286-.012v-.011c5.46.857,11.531,1.429,16.316-1.123a.138.138,0,0,0,.245-.119l-.005-.016c.161-.09.324-.173.482-.271a.141.141,0,0,0-.033-.251.151.151,0,0,0,.186-.176" transform="translate(-90.748 -111.376)" fill="#303949"/>
            <path id="Trazado_769412" data-name="Trazado 769412" d="M235.084,263.336a.767.767,0,0,0-.9.241c-.316.459.177.92.61,1.011a.809.809,0,0,0,1.028-.684.573.573,0,0,0-.735-.568m.355.8a.651.651,0,0,1-.806.093c-.3-.164-.358-.543.023-.65a.628.628,0,0,1,.317.009.137.137,0,0,0,.1.028,3.287,3.287,0,0,1,.322.14.126.126,0,0,0,.089,0,.409.409,0,0,1-.049.376" transform="translate(-100.045 -112.528)" fill="#303949"/>
            <path id="Trazado_769413" data-name="Trazado 769413" d="M250.238,180.5h0a4.971,4.971,0,0,0,.448,6.013L266.3,204.1a3.908,3.908,0,0,0,6.14-.377l11.3-16.4-4.908-1.825-8.622,9.384-11.939-14.794a4.972,4.972,0,0,0-8.036.41" transform="translate(-106.607 -76.179)" fill="#303949"/>
            <path id="Trazado_769414" data-name="Trazado 769414" d="M302.91,186.87c0-.066-.01-.133-.014-.2,0-.116-.005-.232-.005-.348a.5.5,0,0,0,.062-.206,35.511,35.511,0,0,0-.327-8.587,6.668,6.668,0,0,0-.412-2.316.469.469,0,0,0-.4-.258,4.188,4.188,0,0,0-.985.127.466.466,0,0,0-.3.214.369.369,0,0,0-.21.275c-.562,2.772-3.528,10.81-.605,13.336a1.669,1.669,0,0,0,1.442.651c1.425-.037,1.782-1.478,1.746-2.69" transform="translate(-127.558 -74.775)" fill="#f4a338"/>
            <path id="Trazado_769415" data-name="Trazado 769415" d="M303.7,180.683c.029-.183-.258-.2-.287-.016a46.458,46.458,0,0,0-.534,8.91c.007.183.294.2.287.016a46.458,46.458,0,0,1,.534-8.91" transform="translate(-129.435 -77.161)" fill="#303949"/>
            <path id="Trazado_769416" data-name="Trazado 769416" d="M302.634,188.058l1.572.325,2.23-3.228s1.484-2.134-1.141-4.073a6.586,6.586,0,0,0-5.441-1.02l-1.488.355s-1.151,1.426,3.375,1.26c0,0-3.474-.334-3.645,1.053,0,0-.643,1.5,4.635.4,0,0-4.29.085-4.708,1.738,0,0-.13,1.483,4.983,0-.137-.009-.159.591-.372,3.188" transform="translate(-127.374 -76.875)" fill="#ebadab"/>
            <path id="Trazado_769417" data-name="Trazado 769417" d="M303.134,159.341c.322-.009,20.331-8.614,20.331-8.614l-1.336,23.8-19.235-7.964c-3.039.057-3.024-7.139.241-7.225" transform="translate(-128.496 -64.42)" fill="#f4e3b8"/>
            <path id="Trazado_769418" data-name="Trazado 769418" d="M340.566,162.56c-.373,6.636-2.037,11.936-3.717,11.842-1.331-.074-2.28-3.524-2.421-8.263-.043-1.233-.025-2.551.052-3.921a43.641,43.641,0,0,1,.55-4.947c.711-4.124,1.933-6.956,3.168-6.887,1.681.094,2.741,5.548,2.369,12.176" transform="translate(-142.924 -64.273)" fill="#f4a338"/>
            <path id="Trazado_769419" data-name="Trazado 769419" d="M338.047,167.024a4.363,4.363,0,0,1-3.62,4.256c-.042-1.233-.024-2.551.053-3.921a43.654,43.654,0,0,1,.549-4.947,4.387,4.387,0,0,1,3.018,4.612" transform="translate(-142.924 -69.414)" fill="#f4e3b8"/>
            <path id="Trazado_769420" data-name="Trazado 769420" d="M300.882,173.022l-1.984-.111a3.812,3.812,0,0,1,.427-7.613l1.983.112c-2.495,2.547-2.436,5.084-.427,7.612" transform="translate(-126.211 -70.645)" fill="#f4a338"/>
            <path id="Trazado_769421" data-name="Trazado 769421" d="M321.925,155.252q-7.381,3.041-14.72,6.181c-.17.073-.039.328.131.256q7.338-3.141,14.72-6.181c.171-.07.039-.326-.131-.256" transform="translate(-131.265 -66.349)" fill="#303949"/>
            <path id="Trazado_769422" data-name="Trazado 769422" d="M335.566,173.985c-2.287-6.524-1.269-13.814.691-20.268.053-.177-.219-.269-.273-.092-1.98,6.519-3.009,13.831-.7,20.421.06.172.342.114.281-.061" transform="translate(-142.735 -65.618)" fill="#303949"/>
            <path id="Trazado_769423" data-name="Trazado 769423" d="M341.047,153.481c-.072-.17-.328-.039-.256.131a9.805,9.805,0,0,1,.775,4.222.144.144,0,0,0,.287.016,10.18,10.18,0,0,0-.806-4.37" transform="translate(-145.648 -65.563)" fill="#303949"/>
            <path id="Trazado_769424" data-name="Trazado 769424" d="M343.026,156.856a.144.144,0,0,0-.281.061,19.827,19.827,0,0,1,.333,5.391.143.143,0,0,0,.286.016,20.045,20.045,0,0,0-.338-5.468" transform="translate(-146.487 -66.993)" fill="#303949"/>
            <path id="Trazado_769425" data-name="Trazado 769425" d="M337.43,165.877c-.129-.132-.344.059-.214.191.951.976.811,3.306.1,4.348a.144.144,0,0,0,.24.159c.8-1.172.926-3.621-.124-4.7" transform="translate(-144.108 -70.876)" fill="#303949"/>
            <path id="Trazado_769426" data-name="Trazado 769426" d="M303.864,173.7a4.62,4.62,0,0,1-.558-6.638c.118-.143-.123-.3-.239-.159a4.9,4.9,0,0,0,.638,7.036c.141.12.3-.121.159-.239" transform="translate(-129.018 -71.312)" fill="#303949"/>
            <path id="Trazado_769427" data-name="Trazado 769427" d="M305,181.815a16.71,16.71,0,0,0-3.638.518.144.144,0,0,0,.061.281,16.321,16.321,0,0,1,3.561-.512c.184,0,.2-.287.016-.287" transform="translate(-128.755 -77.707)" fill="#303949"/>
            <path id="Trazado_769428" data-name="Trazado 769428" d="M304.559,184.622a27.287,27.287,0,0,0-3.494.76c-.176.051-.117.332.061.281a27.254,27.254,0,0,1,3.494-.76c.183-.027.122-.308-.061-.281" transform="translate(-128.629 -78.906)" fill="#303949"/>
            <path id="Trazado_769429" data-name="Trazado 769429" d="M308.883,186.413a19.394,19.394,0,0,1-2.439,1.1c-.011,0-.011.014-.021.02-.085-.031-.19,0-.184.111q.024.509.047,1.02-.019.423-.039.845c-.007.157.237.215.279.054.021-.078.042-.156.062-.235,0,0,0,0,.005-.006a12.9,12.9,0,0,0,.61-1.622.138.138,0,0,0-.065-.163,19.312,19.312,0,0,0,1.874-.865.144.144,0,0,0-.131-.256" transform="translate(-130.886 -79.665)" fill="#303949"/>
            <path id="Trazado_769430" data-name="Trazado 769430" d="M240.942,177.264l-1.378,7.557a69.024,69.024,0,0,1-4.573,15.065l-3.411,7.87.074,16.717c-10.092,5.623-24.866-3.795-24.866-3.795l2.524-33.671c.935-12,5.762-15.8,9.238-16.75a16.806,16.806,0,0,1,5.826-.536l.51.048a15.928,15.928,0,0,1,2.155.387l4.517,1.112a16.633,16.633,0,0,1,4.257,1.708l.054.029c.252.143.5.287.743.446a19.3,19.3,0,0,1,4.329,3.813" transform="translate(-88.381 -72.513)" fill="#4adbd1"/>
            <path id="Trazado_769431" data-name="Trazado 769431" d="M249.323,173.056c.234,5.776-1.131,10.5-3.484,11.28-2.839.934-6.034-4.265-7.14-11.6-.141-.979-.251-1.944-.305-2.888a15.807,15.807,0,0,1,2.155.387l4.517,1.112a16.581,16.581,0,0,1,4.257,1.707" transform="translate(-101.889 -72.593)" fill="#303949"/>
            <path id="Trazado_769432" data-name="Trazado 769432" d="M237.938,249.463l7.369-.433,2.455,5.073c.518.97,1.019,1.972,1.481,3.007l.838.186a9.021,9.021,0,0,1,3.535,1.61l2.478,1.825c.406.374.2,1.019-.445.822l-2.091-1.184,1.193,1.472a23.5,23.5,0,0,1,1.808,2.62l.841,1.441a.5.5,0,0,1-.819.528l-2.653-3.479,1.47,2.262,1.441,2.5c.259.608-.5.938-.759.545l-1.345-2.065-1.837-2.4.907,2.111a5.767,5.767,0,0,1,.411,1.446l.236,1.7c-.192.8-.58.636-1,.242l-.275-1.485a4.694,4.694,0,0,0-.583-1.579l-1.125-1.945.565,4.234a.489.489,0,0,1-.977,0,21.05,21.05,0,0,0-.941-4.13,9.385,9.385,0,0,1-3.658-3.9l-1.127-2.231Z" transform="translate(-101.694 -106.435)" fill="#ebadab"/>
            <path id="Trazado_769433" data-name="Trazado 769433" d="M227.112,180.21l.338,16.451L238.563,222.5l-2.846,4.134-11.26-15.291a43.416,43.416,0,0,1-7.913-19.235l-1.469-9.683a11.328,11.328,0,0,1,2.7-9.347c2.873-3.121,5.6-2.769,8.141,2.259a11.343,11.343,0,0,1,1.195,4.871" transform="translate(-91.864 -73.117)" fill="#303949"/>
            <path id="Trazado_769434" data-name="Trazado 769434" d="M249.776,160.953l-2.589,4.005-.538.836c-.075.124-3.065,4.067-4.912.807-.959-1.691-1.545-3.116-1.4-3.351l3.405-5.741,2.217-3.732Z" transform="translate(-102.709 -65.724)" fill="#ebadab"/>
            <path id="Trazado_769435" data-name="Trazado 769435" d="M252.334,160.953l-2.589,4.005a10.142,10.142,0,0,1-3.441-7.336l0-.115,2.217-3.732Z" transform="translate(-105.268 -65.724)" fill="#e79092"/>
            <path id="Trazado_769436" data-name="Trazado 769436" d="M252.375,148.645a7.117,7.117,0,0,1-2.728,1.448c-3.149.874-7.061-2.344-9.02-5.937-1.423-.289-2.983-.8-3.556-2.856-.448-1.612-.138-3.826,1.176-4.067a2.117,2.117,0,0,1,1.3.27c.733-4.78,3.786-10.317,7.069-10.913,4.3-.788,8.154,1.075,9.45,12.643a11.063,11.063,0,0,1-3.692,9.412" transform="translate(-101.241 -54.037)" fill="#ebadab"/>
            <path id="Trazado_769437" data-name="Trazado 769437" d="M260.014,154.329a1.794,1.794,0,0,0,1.247.262,1.1,1.1,0,0,0,.55-.306,1.136,1.136,0,0,0,.317-.645,2.653,2.653,0,0,0-.385-1.682l-1.4-3.3a.238.238,0,0,0-.324-.125.257.257,0,0,0-.128.333l1.408,3.325a1.976,1.976,0,0,1,.31,1.481.564.564,0,0,1-.144.258.936.936,0,0,1-1.106.006.462.462,0,0,1-.058-.03.268.268,0,0,0-.354.087.072.072,0,0,0-.014.034.236.236,0,0,0,.084.3" transform="translate(-111.067 -63.473)" fill="#303949"/>
            <path id="Trazado_769438" data-name="Trazado 769438" d="M265.346,147.938a.832.832,0,1,1-.983-.741.873.873,0,0,1,.983.741" transform="translate(-112.705 -62.906)" fill="#303949"/>
            <path id="Trazado_769439" data-name="Trazado 769439" d="M255.465,148.658a.832.832,0,1,1-.983-.741.872.872,0,0,1,.983.741" transform="translate(-108.482 -63.214)" fill="#303949"/>
            <path id="Trazado_769440" data-name="Trazado 769440" d="M257.034,158.151a28.167,28.167,0,0,0-3.259-2.242.345.345,0,0,0-.287.4,2.85,2.85,0,0,0,3.284,2.367.346.346,0,0,0,.308-.38.333.333,0,0,0-.046-.14" transform="translate(-108.339 -66.635)" fill="#fff"/>
            <path id="Trazado_769441" data-name="Trazado 769441" d="M262.492,143.448a.233.233,0,0,0,.254.044,1.469,1.469,0,0,1,2.022.678.235.235,0,0,0,.318.112.249.249,0,0,0,.114-.326,1.928,1.928,0,0,0-2.635-.912.248.248,0,0,0-.13.32.222.222,0,0,0,.057.085" transform="translate(-112.156 -61.048)" fill="#303949"/>
            <path id="Trazado_769442" data-name="Trazado 769442" d="M254.677,144.3a.233.233,0,0,1-.249.065,1.47,1.47,0,0,0-1.959.844.235.235,0,0,1-.307.137.249.249,0,0,1-.141-.316,1.928,1.928,0,0,1,2.549-1.127.247.247,0,0,1,.156.307.227.227,0,0,1-.05.09" transform="translate(-107.707 -61.444)" fill="#303949"/>
            <path id="Trazado_769443" data-name="Trazado 769443" d="M224.75,260.161a19.15,19.15,0,0,1-13.392-3.957c-.2-.15-.457.132-.261.283a19.574,19.574,0,0,0,13.669,4.058c.246-.02.231-.4-.016-.384" transform="translate(-90.193 -109.483)" fill="#303949"/>
            <path id="Trazado_769444" data-name="Trazado 769444" d="M228.975,259.124c-3.1.134-7.681.632-10.273-1.375-.195-.151-.456.131-.261.283,2.692,2.084,7.363,1.614,10.55,1.477a.192.192,0,0,0-.016-.384" transform="translate(-93.332 -110.143)" fill="#303949"/>
            <path id="Trazado_769445" data-name="Trazado 769445" d="M247.9,206.016a31.036,31.036,0,0,0-3.055,12.3c-.01.247.374.23.384-.016a30.461,30.461,0,0,1,3.01-12.1c.107-.223-.232-.4-.34-.18" transform="translate(-104.648 -88.007)" fill="#303949"/>
            <path id="Trazado_769446" data-name="Trazado 769446" d="M248.952,175.16a22.482,22.482,0,0,1-.934,6.236,7.508,7.508,0,0,1-1.666,3.039c-2.93,2.707-5.077.842-6.685-1.261a20.586,20.586,0,0,1-3.773-11.983c0-.247-.379-.231-.384.016-.082,4.414,2.04,13.536,7.171,14.94,5.52,1.512,6.481-7.644,6.655-11,.013-.247-.372-.229-.384.016" transform="translate(-100.655 -73.091)" fill="#303949"/>
            <path id="Trazado_769447" data-name="Trazado 769447" d="M266.043,261.987l37.136-3.381a1.734,1.734,0,0,0,1.565-1.526l2.626-22.476a1.734,1.734,0,0,0-1.88-1.929l-37.136,3.381a1.735,1.735,0,0,0-1.566,1.526l-2.626,22.476a1.735,1.735,0,0,0,1.88,1.929" transform="translate(-112.897 -99.441)" fill="#b0c0d2"/>
            <path id="Trazado_769448" data-name="Trazado 769448" d="M304.108,256.567a3.349,3.349,0,1,1-3.6-2.743,3.207,3.207,0,0,1,3.6,2.743" transform="translate(-127.13 -108.477)" fill="#7b92ba"/>
            <rect id="Rectángulo_363011" data-name="Rectángulo 363011" width="35.266" height="2.227" transform="translate(152.681 162.588) rotate(-5.203)" fill="#7b92ba"/>
            <rect id="Rectángulo_363012" data-name="Rectángulo 363012" width="18.376" height="2.227" transform="translate(134.381 164.254) rotate(-5.203)" fill="#d2e0e6"/>
            <path id="Trazado_769449" data-name="Trazado 769449" d="M273.82,239.5q9.347-.961,18.726-1.518a.143.143,0,0,1,.012.286q-9.379.557-18.726,1.519c-.183.019-.195-.267-.012-.286" transform="translate(-116.974 -101.714)" fill="#303949"/>
            <path id="Trazado_769450" data-name="Trazado 769450" d="M269.615,241.607c.018-.183.3-.117.279.065q-1.1,11.46-2.057,22.932c-.015.181-.3.2-.286.012q.963-11.51,2.064-23.008" transform="translate(-114.35 -103.216)" fill="#303949"/>
            <path id="Trazado_769451" data-name="Trazado 769451" d="M300.808,253.5c.182.027.117.306-.065.279-4.256-.636-4,6.744.315,5.893.179-.036.268.237.088.273a3.191,3.191,0,0,1-3.832-3c-.089-2.108,1.379-3.76,3.493-3.444" transform="translate(-127.07 -108.328)" fill="#303949"/>
            <path id="Trazado_769452" data-name="Trazado 769452" d="M236.6,288.073l16.087-1.473c.184-.017.2.269.012.286l-16.087,1.473c-.184.017-.2-.27-.012-.286" transform="translate(-101.065 -122.492)" fill="#303949"/>
            <path id="Trazado_769453" data-name="Trazado 769453" d="M260.018,126.675a3.587,3.587,0,0,1-2.309.062c-1.075-.349-1.529-1.263-2.156-2.166-1.092-1.572-2.636-3.418-4.64-3.425a5.662,5.662,0,0,0-2.7.65c-.691.35-.554.08-1.09-.42a3.215,3.215,0,0,0-1.4-.736,4.986,4.986,0,0,0-4.825,1.66c-1.017,1.035-1.671,2.412-2.659,3.5a6.168,6.168,0,0,1-3.543,1.924,7.707,7.707,0,0,0,3.451.817,6.72,6.72,0,0,0-.306,1.925c-.03,1.816.068,3.711-1.673,4.609.955-.064,1.763-.38,2.45-.1a9.863,9.863,0,0,0,.642,2.42c.294,1.014.952,2.661,1.959,3.14.192-2.075-1.046-4.178.49-6.016,1.273-1.523,3.992-2.189,4.532-4.316-.121,1.371-.1,2.419-.973,3.56,2.191.107,5.017-1.831,6.036-3.781-.287,1.427.42,2.124,1.346,3.026a5.2,5.2,0,0,1,1.785,3.25,3.382,3.382,0,0,0,.53-2.109c.207.572.421,1.133.562,1.663a8.617,8.617,0,0,1,.065,3.947c1.139-2.281,2.259-4.657,2.254-7.3a9.5,9.5,0,0,0-1.446-4.715c1.327.864,2.717.12,3.625-1.071" transform="translate(-100.306 -51.512)" fill="#f4a338"/>
            <path id="Trazado_769454" data-name="Trazado 769454" d="M259.031,134.132a6.806,6.806,0,0,1-3.917,4.38c-.165.082-.009.322.155.241a7.062,7.062,0,0,0,4.041-4.557.143.143,0,0,0-.279-.065" transform="translate(-109.005 -57.282)" fill="#303949"/>
            <path id="Trazado_769455" data-name="Trazado 769455" d="M267.331,138.626c-1.566-1.26-2.771-2.67-2.328-4.818a.143.143,0,0,0-.279-.065c-.462,2.241.755,3.759,2.412,5.093.143.115.338-.1.194-.211" transform="translate(-113.1 -57.116)" fill="#303949"/>
            <path id="Trazado_769456" data-name="Trazado 769456" d="M269.723,132.086c-.135-.127-.328.084-.194.211,2.675,2.522,2.694,6.149,1.3,9.343-.074.168.179.3.253.134,1.453-3.318,1.41-7.08-1.354-9.687" transform="translate(-115.177 -56.436)" fill="#303949"/>
            <path id="Trazado_769457" data-name="Trazado 769457" d="M266.43,127.87c-2-.892-1.929-3.63-3.987-4.5a3.434,3.434,0,0,0-3.936.988.143.143,0,0,0,.211.194,3.115,3.115,0,0,1,3.6-.892A4.455,4.455,0,0,1,264.371,126a4.1,4.1,0,0,0,1.925,2.123c.168.075.3-.178.134-.253" transform="translate(-110.469 -52.616)" fill="#303949"/>
            <path id="Trazado_769458" data-name="Trazado 769458" d="M248.674,123.757a3.576,3.576,0,0,0-3.928-.807c-2.19.968-2.468,3.869-4.816,4.687-.173.061-.087.334.088.273a4.966,4.966,0,0,0,2.464-2.094,7.936,7.936,0,0,1,1.984-2.39,3.281,3.281,0,0,1,4.015.542c.134.128.328-.084.194-.211" transform="translate(-102.505 -52.428)" fill="#303949"/>
            <path id="Trazado_769459" data-name="Trazado 769459" d="M244.183,129.081a5.2,5.2,0,0,0-2.411,2.845c-.676,1.748-.316,4.915-2.06,6.009a.143.143,0,0,0,.155.241c1.117-.7,1.285-1.879,1.488-3.1.369-2.231.806-4.592,2.982-5.751.163-.086.007-.328-.155-.241" transform="translate(-102.425 -55.161)" fill="#303949"/>
            <path id="Trazado_769460" data-name="Trazado 769460" d="M251.142,131.114a10.03,10.03,0,0,1-3.676,5.545,11.867,11.867,0,0,0-2.513,1.967c-1.161,1.5-.815,3.395-.459,5.122.037.18.31.092.273-.088-.438-2.123-.534-3.944,1.143-5.542.792-.755,1.817-1.228,2.626-1.975a10.2,10.2,0,0,0,2.885-4.965c.049-.179-.231-.242-.279-.065" transform="translate(-104.351 -55.993)" fill="#303949"/>
            <path id="Trazado_769461" data-name="Trazado 769461" d="M251.854,127.392c-3.535.133-4.859,3.705-5.689,6.591-.052.178.228.241.279.065.791-2.75,2.017-6.242,5.422-6.37a.143.143,0,0,0-.012-.286" transform="translate(-105.208 -54.447)" fill="#303949"/>
            <path id="Trazado_769462" data-name="Trazado 769462" d="M261.541,127.471a1.23,1.23,0,0,0-1.725-.006.143.143,0,0,0,.211.194c.555-.6,1.351-.09,1.672.48a5.715,5.715,0,0,1,.555,1.933c.027.18.313.17.286-.012a4.327,4.327,0,0,0-1-2.589" transform="translate(-111.028 -54.328)" fill="#303949"/>
            <path id="Trazado_769463" data-name="Trazado 769463" d="M183.276,116.339a1.7,1.7,0,0,0,1.184-2.254,1.728,1.728,0,0,0-2.034-1.041l-6.184,1.509a10.922,10.922,0,0,0-.491-4.25c-.634-1.939-1.555-2.878-2.775-2.773a1.169,1.169,0,0,0-1.011,1.452,12.613,12.613,0,0,1,.014,5.893l-.589,2.474a3.951,3.951,0,0,1-1.479,2.252l1.983,8.128a13.535,13.535,0,0,0,4.528-.305l6.7-1.61a1.7,1.7,0,0,0,.541-3.06,1.7,1.7,0,0,0,.4-3.1l.021,0a1.7,1.7,0,0,0-.807-3.306" transform="translate(-72.62 -45.954)" fill="#fff"/>
            <path id="Trazado_769464" data-name="Trazado 769464" d="M166.927,137.205l-3.318.809A1.391,1.391,0,0,1,161.933,137l-1.9-7.784a1.392,1.392,0,0,1,1.019-1.677l3.317-.809a1.391,1.391,0,0,1,1.677,1.019l1.9,7.784a1.392,1.392,0,0,1-1.018,1.677" transform="translate(-68.381 -54.145)" fill="#f4a338"/>
            <path id="Trazado_769465" data-name="Trazado 769465" d="M167.115,127.517a5.9,5.9,0,0,0-2.317.592c-.431.206-.022.831.407.626a4.872,4.872,0,0,1,1.519-.435l1.178,4.655c.119.466.829.239.712-.225q-.589-2.324-1.177-4.648a.369.369,0,0,0-.321-.565" transform="translate(-70.356 -54.5)" fill="#303949"/>
            <path id="Trazado_769466" data-name="Trazado 769466" d="M176.324,108.584c-.349-.33-.85.223-.5.553,1.871,1.769,2.124,4.374,1.749,6.8-.073.473.654.64.728.165.418-2.7.1-5.553-1.976-7.514" transform="translate(-75.096 -46.365)" fill="#303949"/>
            <path id="Trazado_769467" data-name="Trazado 769467" d="M190.026,121.28q-1.852.374-3.677.861c-.464.124-.238.835.225.711q1.826-.486,3.677-.861c.47-.1.241-.806-.225-.711" transform="translate(-79.536 -51.831)" fill="#303949"/>
            <path id="Trazado_769468" data-name="Trazado 769468" d="M191.2,127.613l-2.489.788a.373.373,0,0,0,.225.711l2.489-.788a.373.373,0,0,0-.225-.711" transform="translate(-80.549 -54.533)" fill="#303949"/>
            <path id="Trazado_769469" data-name="Trazado 769469" d="M192.664,133.391l-1.383.438a.373.373,0,0,0,.225.711l1.383-.438a.373.373,0,0,0-.225-.711" transform="translate(-81.646 -57.002)" fill="#303949"/>
          </g>
        </g>
      </g>
    </g>
  </g>
</svg>
