<svg xmlns="http://www.w3.org/2000/svg" xmlns:xlink="http://www.w3.org/1999/xlink" width="401" height="391" viewBox="0 0 401 391">
  <defs>
    <clipPath id="clip-path">
      <rect id="Rectángulo_363241" data-name="Rectángulo 363241" width="400.824" height="254.512" fill="none"/>
    </clipPath>
    <clipPath id="clip-path-3">
      <rect id="Rectángulo_363215" data-name="Rectángulo 363215" width="240.934" height="181.807" fill="none"/>
    </clipPath>
    <clipPath id="clip-path-4">
      <rect id="Rectángulo_363214" data-name="Rectángulo 363214" width="40.812" height="9.768" fill="none"/>
    </clipPath>
  </defs>
  <g id="Grupo_1033334" data-name="Grupo 1033334" transform="translate(8086 -10234)">
    <rect id="Rectángulo_361884" data-name="Rectángulo 361884" width="401" height="391" transform="translate(-8086 10234)" fill="#efeeee"/>
    <g id="Grupo_1028250" data-name="Grupo 1028250" transform="translate(-8085.824 10281.42)">
      <g id="Grupo_1028249" data-name="Grupo 1028249" clip-path="url(#clip-path)">
        <g id="Grupo_1028248" data-name="Grupo 1028248">
          <g id="Grupo_1028247" data-name="Grupo 1028247" clip-path="url(#clip-path)">
            <path id="Trazado_770720" data-name="Trazado 770720" d="M28.737,254.056S-21.19,207.179,10.573,152.028,85,124.612,82.932,60.421s98.11-69.706,130-51.094,31.694,41.03,97.52,33.613,78.4,54.411,61.276,85.922c-24.3,44.709,67.437,37.335,9.634,125.193Z" transform="translate(0 0)" fill="#e8e8e8"/>
            <g id="Grupo_1028246" data-name="Grupo 1028246" transform="translate(115.484 71.613)" opacity="0.5">
              <g id="Grupo_1028245" data-name="Grupo 1028245">
                <g id="Grupo_1028244" data-name="Grupo 1028244" clip-path="url(#clip-path-3)">
                  <path id="Trazado_770721" data-name="Trazado 770721" d="M374.531,231.809l-9.516,113.15s-1,6.859,4.1,6.871c8.389.02,41.753,0,41.753,0s-6.314-1.428-6.237-4.64c.09-3.787,11.122-116.451,11.122-116.451Z" transform="translate(-271.198 -170.066)" fill="#759be0"/>
                  <path id="Trazado_770722" data-name="Trazado 770722" d="M415.621,348.249c-1.65,0-33.516.1-41.686,0-3.56-.044-4.184-3.165-4.214-5.186a10.153,10.153,0,0,1,.108-1.684l.248-2.941.631-7.5.557-6.622.716-8.51.6-7.182,6.762-80.4,41.226-1.07s-4.646,47.149-7.933,81.47c-.367,3.824-.716,7.491-1.039,10.913q-.157,1.64-.3,3.2c-.3,3.247-.583,6.229-.826,8.862-.128,1.388-.246,2.677-.352,3.858-.42,4.628-.666,7.584-.668,8.146a4.759,4.759,0,0,0,.08.916c.677,3.606,5.471,3.724,6.09,3.724" transform="translate(-273.239 -168.538)" fill="#aec3ff"/>
                  <path id="Trazado_770723" data-name="Trazado 770723" d="M207.037,125.21l23.18,93.108,3.174,12.751,10.8,43.367H444.758L404.966,125.21Z" transform="translate(-203.824 -125.039)" fill="#aec3ff"/>
                  <path id="Trazado_770724" data-name="Trazado 770724" d="M204.645,125.21l-3.213,1.071,36.092,151.395,4.271-3.239Z" transform="translate(-201.433 -125.039)" fill="#759be0"/>
                  <path id="Trazado_770725" data-name="Trazado 770725" d="M264.385,388.738H463.722l5.5-3.239H268.657Z" transform="translate(-228.294 -236.101)" fill="#759be0"/>
                  <rect id="Rectángulo_363213" data-name="Rectángulo 363213" width="43.16" height="2.051" transform="translate(106.093 179.756)" fill="#aec3ff"/>
                  <g id="Grupo_1028243" data-name="Grupo 1028243" transform="translate(97.468 152.636)" opacity="0.7">
                    <g id="Grupo_1028242" data-name="Grupo 1028242" transform="translate(0 0)">
                      <g id="Grupo_1028241" data-name="Grupo 1028241" clip-path="url(#clip-path-4)">
                        <path id="Trazado_770726" data-name="Trazado 770726" d="M412.255,391.147l-.223,1.568-40.589,8.2.557-6.622.265-3.146Z" transform="translate(-371.442 -391.147)" fill="#759be0"/>
                      </g>
                    </g>
                  </g>
                  <path id="Trazado_770727" data-name="Trazado 770727" d="M415.621,428.855c-1.65,0-33.516.1-41.686,0-3.56-.044-4.184-3.165-4.214-5.186l40.4-7.6c-.42,4.628-.666,7.584-.668,8.146a4.758,4.758,0,0,0,.08.916c.677,3.606,5.471,3.724,6.09,3.724" transform="translate(-273.24 -249.144)" fill="#94b0ed"/>
                  <path id="Trazado_770728" data-name="Trazado 770728" d="M351.908,323.013,263.8,353.223,253,309.855Z" transform="translate(-223.438 -203.824)" fill="#94b0ed"/>
                  <path id="Trazado_770729" data-name="Trazado 770729" d="M207.036,125.21H404.965l31.871,119.931H236.9Z" transform="translate(-203.824 -125.039)" fill="#d2e0ff"/>
                  <path id="Trazado_770730" data-name="Trazado 770730" d="M436.947,245.013H435.29l-13.569-51.771L404.28,126.69H209.5l29.506,118.324-2.106.022L207.038,125.084l198.614-.172.174.662,17.435,66.91Z" transform="translate(-203.824 -124.911)" fill="#94b0ed"/>
                  <path id="Trazado_770731" data-name="Trazado 770731" d="M597.026,296.458l-1.6.214L581.5,243.532l1.539-.758Z" transform="translate(-363.603 -175.202)" fill="#aec3ff"/>
                </g>
              </g>
            </g>
            <path id="Trazado_770732" data-name="Trazado 770732" d="M114.672,236.559c-.33-.994,4.5,1.295,10.255-.634,4.96-1.662.487-4.9,1.751-9.008.9-2.924.616-10.782-7.051-11.1a5.676,5.676,0,0,0-4.506-.232c-6.056,2.011-18.65,22.406-.449,20.972" transform="translate(-44.893 -91.843)" fill="#163560"/>
            <path id="Trazado_770733" data-name="Trazado 770733" d="M136.366,270.382a20.12,20.12,0,0,0,2.05,3.1c1.593,1.995,9.952-2.74,9.231-3.1s-4.921-12.46-5.921-13.981-4.409-2.31-4.409-2.31Z" transform="translate(-58.186 -108.417)" fill="#f4a338"/>
            <path id="Trazado_770734" data-name="Trazado 770734" d="M85.739,424.121s-2.307,2.106-1.857,3.6,2.532,2.494,2.813,4.322,1.407,2.826,2.42,2.826h4.829s.745-1.287-1.055-1.675-2.48-2.536-2.367-4.531a35.159,35.159,0,0,0-.169-4.654l-3.826-.887Z" transform="translate(-35.766 -180.541)" fill="#373f51"/>
            <path id="Trazado_770735" data-name="Trazado 770735" d="M120.986,426.422s-.83,8.919.183,9.418l12.963-.026s0-1.5-2.082-1.828-5.739-1.551-6.359-4.267-4.7-3.3-4.7-3.3" transform="translate(-51.487 -181.949)" fill="#373f51"/>
            <path id="Trazado_770736" data-name="Trazado 770736" d="M103.768,263.84a51.613,51.613,0,0,0,0,5.991c.128,2.167,2.32,5.068,2.631,5.785.78,1.8,1.659,2.093,1.659,2.093l6.806,1.668,2.393.585,7.546-2.254s3.437-9.594,2.057-14.994a41.509,41.509,0,0,0-3.489-9.151s-5.128-1.153-14.176-.511Z" transform="translate(-44.24 -107.892)" fill="#f4a338"/>
            <path id="Trazado_770737" data-name="Trazado 770737" d="M102.7,278.229c.128,2.166,2.968,4.992,3.279,5.71.78,1.8,1.66,2.093,1.66,2.093l6.806,1.668,1.229-3.522s-9.944-2.612-8.345-11.816Z" transform="translate(-43.821 -116.213)" fill="#e8932e"/>
            <path id="Trazado_770738" data-name="Trazado 770738" d="M130.367,298.745s3.737,11.632,3.977,15.592S127.2,370.6,126.9,372.423c-.28,1.72-2.416,2.817-2.416,2.817a3.234,3.234,0,0,1-2.384.183,5.9,5.9,0,0,1-2.56-1.207s-2.908-37.3-1.109-50.625a211.019,211.019,0,0,0,1.821-24.847Z" transform="translate(-50.283 -127.471)" fill="#4263bc"/>
            <path id="Trazado_770739" data-name="Trazado 770739" d="M102.028,298.14s-5.7,7.648-6.232,12.819-.834,23.332-1.966,28.373-5.292,14.74-5.292,30.462a3.137,3.137,0,0,0,1.768,1.381,14.651,14.651,0,0,0,1.554.429,2.444,2.444,0,0,0,2.734-1.3c2.812-5.662,11.771-23.925,12.23-27.716.325-2.683,3.154-20.439,9.324-30.858,1.481-2.5-.909-12.449-.909-12.449Z" transform="translate(-37.778 -127.213)" fill="#5573c6"/>
            <path id="Trazado_770740" data-name="Trazado 770740" d="M127.9,295.613a7.835,7.835,0,0,1-4.481,1.247c-3.56.072-12.381-.908-12.381-.908a7.29,7.29,0,0,0-.376,2.251s10.774,2.718,17.016.4a3.946,3.946,0,0,0,.222-2.988" transform="translate(-47.217 -126.134)" fill="#233862"/>
            <path id="Trazado_770741" data-name="Trazado 770741" d="M131.568,298.564a1.637,1.637,0,1,1,1.624,1.838,1.743,1.743,0,0,1-1.624-1.838m.538,0a1.1,1.1,0,1,0,1.086-1.3,1.209,1.209,0,0,0-1.086,1.3" transform="translate(-56.138 -126.609)" fill="#fff"/>
            <path id="Trazado_770742" data-name="Trazado 770742" d="M120.826,295.036l16.193.151,7.968-18.726-16.193-.151Z" transform="translate(-51.555 -117.898)" fill="#b0c0d2"/>
            <path id="Trazado_770743" data-name="Trazado 770743" d="M124.519,292.006l1.187-1.459a4.168,4.168,0,0,1,1.386-.838c.583-.122,1.814-.832,1.933-.632s-.945,1.627-.945,1.627l-.054.007c1.222.92,4.309.108,4.69.483.462.455-.636,1.438-1.225,1.99a4.322,4.322,0,0,1-3.585,1.063c-.959-.3-2.47-.6-2.47-.6Z" transform="translate(-53.131 -123.331)" fill="#ffb27d"/>
            <path id="Trazado_770744" data-name="Trazado 770744" d="M159.428,281.76s-1.018-1.156-1.665-.6.17,3.285.787,3.006,1.233-2.066.879-2.405" transform="translate(-67.214 -119.903)" fill="#ffb27d"/>
            <path id="Trazado_770745" data-name="Trazado 770745" d="M103.067,253.2s-4.636.511-7.962,6.556c-2.623,4.766-7.108,13.553-5.416,16.035.743,1.09,7.864,4.967,21.6,2.751A4.153,4.153,0,0,0,109.964,276s-11.559-3.712-11.539-4.449c.037-1.4,1.562-2.6,8.018-9.062,1.755-1.756-3.376-9.292-3.376-9.292" transform="translate(-38.11 -108.036)" fill="#f4a338"/>
            <path id="Trazado_770746" data-name="Trazado 770746" d="M119.48,248.351c-.159-.214.046-.894.3-2.163a23.729,23.729,0,0,0,.613-4.925l.342.057,5.745.967s-.131,1.536-.135,2.983v.036c-.007,1.257.339,3.156-.085,3.4-2.177,1.276-6.169.463-6.781-.36" transform="translate(-50.957 -102.944)" fill="#ffb27d"/>
            <path id="Trazado_770747" data-name="Trazado 770747" d="M127.457,242.33s-.114,2.166-.118,3.613c-3.215-.077-4.93-3.2-5.627-4.58Z" transform="translate(-51.933 -102.986)" fill="#e8945b"/>
            <path id="Trazado_770748" data-name="Trazado 770748" d="M127.245,237.669s-7.532-1.073-6.791-5.753.267-7.97,5.107-7.483,5.489,2.421,5.622,4.042-1.96,9.352-3.938,9.194" transform="translate(-51.374 -95.742)" fill="#ffb27d"/>
            <path id="Trazado_770749" data-name="Trazado 770749" d="M127.408,224.254s-2.931,5.162-6.217,5.471-4.52-.754-4.52-.754a9.053,9.053,0,0,0,3.765-4.815s5.837-2.76,6.972.1" transform="translate(-49.782 -95.133)" fill="#163560"/>
            <path id="Trazado_770750" data-name="Trazado 770750" d="M134.386,225.335a4.718,4.718,0,0,1,1.885,2.025,7.66,7.66,0,0,1,.331,4.458s2.144-3.485.739-5.873c-1.49-2.532-2.955-.61-2.955-.61" transform="translate(-57.341 -95.85)" fill="#163560"/>
            <path id="Trazado_770751" data-name="Trazado 770751" d="M18.092,321.974l4.092-.461a.912.912,0,0,1,.859.411q.355.551.761,1.081a15.258,15.258,0,0,0,1.62,1.809.9.9,0,0,1,.222.991l-1.569,4.006a.884.884,0,0,0,.436,1.121l3.525,1.746a.874.874,0,0,0,1.121-.311l2.132-3.34a.877.877,0,0,1,.983-.38,15.926,15.926,0,0,0,4.99.5.906.906,0,0,1,.908.628l.722,2.3a.915.915,0,0,0,1.04.618l3.828-.775a.817.817,0,0,0,.221-.073.878.878,0,0,0,.49-.9l-.341-3.057-.085-.745a15.679,15.679,0,0,0,1.856-1.226,15.944,15.944,0,0,0,2.179-2.016.877.877,0,0,1,.979-.236l3.227,1.268a.91.91,0,0,0,1.148-.445l1.335-2.7.38-.773a.92.92,0,0,0-.327-1.187l-2.79-1.784a.875.875,0,0,1-.393-.955,15.826,15.826,0,0,0,.425-3.35,2.786,2.786,0,0,0,.009-.284.479.479,0,0,1,.006-.1.9.9,0,0,1,.633-.769l3.731-1.181a.636.636,0,0,0,.122-.048.914.914,0,0,0,.492-.99l-.766-3.817a.909.909,0,0,0-.991-.724l-4.267.483a.879.879,0,0,1-.881-.462,16.03,16.03,0,0,0-1.336-2.044q-.4-.524-.838-1a.924.924,0,0,1-.175-.959L49.31,298a.884.884,0,0,0-.43-1.115l-3.49-1.722a.923.923,0,0,0-1.191.33l-1.687,2.642a.907.907,0,0,1-1.055.374,15.861,15.861,0,0,0-4.814-.865.9.9,0,0,1-.849-.634l-1.063-3.363a.932.932,0,0,0-1.067-.631l-3.8.761a.891.891,0,0,0-.712.976l.018.179.4,3.551a.912.912,0,0,1-.492.916l0,0a15.8,15.8,0,0,0-2.36,1.5c-.4.309-.782.634-1.151.973a.894.894,0,0,1-.94.184l-3.275-1.287a.925.925,0,0,0-1.168.449l-1.717,3.474a.985.985,0,0,0-.088.306.92.92,0,0,0,.412.862l2.232,1.418a.921.921,0,0,1,.417.8.983.983,0,0,1-.046.25,15.8,15.8,0,0,0-.8,6.2.883.883,0,0,1-.62.912l-3.022.955a.9.9,0,0,0-.614,1.037l.017.089.743,3.721a.922.922,0,0,0,1.006.729m26.175-11.618a10.568,10.568,0,0,1,.556,1.89,8.316,8.316,0,0,1-.592,4.491c-.061.126-.126.249-.19.372a8.59,8.59,0,0,1-15.918-6.348,5.628,5.628,0,0,1,.314-.773,9.756,9.756,0,0,1,1.953-2.687,8.528,8.528,0,0,1,13.878,3.055" transform="translate(-6.959 -125.019)" fill="#afafaf"/>
            <path id="Trazado_770752" data-name="Trazado 770752" d="M179.943,70.522l3.444-.388a.768.768,0,0,1,.723.346q.3.464.64.909a12.942,12.942,0,0,0,1.364,1.523.758.758,0,0,1,.187.834l-1.321,3.372a.745.745,0,0,0,.367.944l2.967,1.469a.735.735,0,0,0,.943-.261l1.794-2.811a.737.737,0,0,1,.827-.32,13.386,13.386,0,0,0,4.2.418.762.762,0,0,1,.763.53l.608,1.935a.77.77,0,0,0,.875.52l3.222-.651a.687.687,0,0,0,.186-.062.738.738,0,0,0,.412-.755l-.287-2.572-.071-.627a13.281,13.281,0,0,0,1.563-1.033,13.431,13.431,0,0,0,1.833-1.7.74.74,0,0,1,.824-.2l2.715,1.067a.765.765,0,0,0,.966-.374l1.124-2.269.32-.651a.776.776,0,0,0-.276-1l-2.348-1.5a.738.738,0,0,1-.331-.8,13.307,13.307,0,0,0,.358-2.82,2.227,2.227,0,0,0,.007-.239.421.421,0,0,1,.005-.08.756.756,0,0,1,.533-.647l3.14-.994a.564.564,0,0,0,.1-.041.768.768,0,0,0,.415-.832l-.645-3.213a.765.765,0,0,0-.834-.609l-3.592.406a.739.739,0,0,1-.741-.389,13.547,13.547,0,0,0-1.125-1.72q-.338-.441-.706-.845a.78.78,0,0,1-.147-.807l1.268-3.242a.743.743,0,0,0-.362-.938l-2.937-1.449a.778.778,0,0,0-1,.278l-1.42,2.224a.764.764,0,0,1-.889.315,13.367,13.367,0,0,0-4.052-.728.758.758,0,0,1-.714-.533l-.894-2.831a.786.786,0,0,0-.9-.531l-3.2.641a.75.75,0,0,0-.6.822l.015.151.334,2.989a.765.765,0,0,1-.415.771l0,0a13.292,13.292,0,0,0-1.987,1.262c-.339.26-.658.533-.968.819a.752.752,0,0,1-.792.155l-2.756-1.083a.778.778,0,0,0-.983.377l-1.445,2.924a.847.847,0,0,0-.075.257.775.775,0,0,0,.347.725l1.879,1.194a.775.775,0,0,1,.351.674.829.829,0,0,1-.039.211,13.307,13.307,0,0,0-.676,5.218.749.749,0,0,1-.4.718.788.788,0,0,1-.119.049l-2.544.8a.762.762,0,0,0-.517.873l.014.075.625,3.133a.776.776,0,0,0,.847.613m22.031-9.779a8.9,8.9,0,0,1,.467,1.591,7,7,0,0,1-.5,3.78c-.052.106-.105.21-.16.313a7.23,7.23,0,0,1-13.4-5.343,4.786,4.786,0,0,1,.264-.65,8.226,8.226,0,0,1,1.644-2.262,7.178,7.178,0,0,1,11.681,2.571" transform="translate(-76.139 -19.685)" fill="#afafaf"/>
            <path id="Trazado_770753" data-name="Trazado 770753" d="M392.746,149.687V260.476a7.141,7.141,0,0,1-6.931,7.333h-196a7.141,7.141,0,0,1-6.931-7.333V149.687a7.14,7.14,0,0,1,6.931-7.333h196a7.14,7.14,0,0,1,6.931,7.333" transform="translate(-78.033 -60.741)" fill="#fff"/>
            <path id="Trazado_770754" data-name="Trazado 770754" d="M392.746,149.285v5.077H182.881v-5.077a6.931,6.931,0,0,1,6.931-6.931h196a6.931,6.931,0,0,1,6.931,6.931" transform="translate(-78.033 -60.741)" fill="#373f51"/>
            <path id="Trazado_770755" data-name="Trazado 770755" d="M319.81,226.8c3.276,4.2-.646,10.651,1.614,15.451.432.917,1.078,1.733,1.438,2.681.6,1.566.35,3.318.718,4.95s1.85,3.311,3.49,2.875c1.421-.378,1.992-2.086,1.952-3.532s-.447-2.929-.024-4.316a4.613,4.613,0,0,1,4.02-3.009,6.967,6.967,0,0,1,4.931,1.7c1.5,1.238,3.15,3.1,4.994,2.442,1.767-.63,1.911-3.139,1.046-4.781s-2.373-2.929-3.015-4.666c-.808-2.185-.065-4.673,1.246-6.606a38.343,38.343,0,0,1,4.788-5.127,3.69,3.69,0,0,0,1.233-2c.1-.789-.534-1.7-1.335-1.6-.54.071-.916.539-1.332.885-1.8,1.5-4.792.619-6.163-1.27s-1.487-4.387-1.25-6.7c2.819.658,5.374-3.229,8.1-2.251,1.705.613,2.174,2.7,2.628,4.432.807,3.078,2.345,5.974,2.745,9.128.764,6.013-2.607,12.618.4,17.907a12.835,12.835,0,0,0,5.027,4.573c4.781,2.7,10.873,3.745,15.818,1.35,5.7-2.763,11.11-9.232,11.155-9.62.561-4.832-.164-7.768.708-9.265,3.283-5.637,13.065-1.472,17.782-1.19,13.021.777,12.271-7.63,12.229-11.52-.1-9.4-1.927-11.119-11.4-12.292-4.961-.614-10.074.388-14.957-.676-4.275-.932-8.033-3.374-12.119-4.924a30.607,30.607,0,0,0-23.468.865,19.037,19.037,0,0,1-4.822,1.894,4.567,4.567,0,0,1-4.617-1.646c-1.088-1.727-.253-4.006.918-5.68s2.7-3.226,3.09-5.221c.54-2.77-1.463-5.6-4.1-6.71a11.982,11.982,0,0,0-8.406.125c-4.955,1.68-9.034,5.186-12.708,8.862-4.354,4.355-8.522,9.476-9.131,15.555-.24,2.392.091,4.866-.745,7.173-.625,1.725-2.164,3.02-1.563,4.936,1.151,3.673,6.877,3.978,9.091,6.812" transform="translate(-132.522 -77.924)" fill="#5573c6"/>
            <path id="Trazado_770756" data-name="Trazado 770756" d="M457.741,201.967l2.581,2.011a4.7,4.7,0,0,0,1.853,1.053c1.366.251,2.62-1.4,2.548-3.352s-1.451-3.788-2.805-3.731c-.838.036-1.683.67-2.469.117-1.643-1.156-2.755-6.756-4.195-2.971-1.068,2.809.756,5.57,2.486,6.872" transform="translate(-194.115 -82.692)" fill="#5573c6"/>
            <path id="Trazado_770757" data-name="Trazado 770757" d="M258.281,217.263l5.411,3.436c1,.636,2.146,1.656,1.729,2.754-.521,1.367-2.544.949-4.014,1.145a3.743,3.743,0,0,0-3.055,4.4c.357,1.445,1.543,3.14.463,4.18-.978.941-2.7.057-3.958.587-.745.314-1.213,1.084-1.959,1.395-.638.266-1.4.161-2.007.493-.752.413-1.015,1.354-1.642,1.935-1.9,1.762-5.32-.792-7.545.553-1.7,1.026-1.413,3.688-.087,5.15s3.289,2.163,4.972,3.211,3.237,2.827,2.872,4.753c-.378,1.993-2.713,3.729-1.878,5.582a6.737,6.737,0,0,0,1.185,1.456,4.875,4.875,0,0,1,.855,4.566,6.13,6.13,0,0,1-3.155,3.545c-.931.461-1.958.711-2.891,1.17-2.528,1.242-4.044,3.814-5.383,6.262-1.665,3.041-3.306,6.175-3.86,9.585-.184,1.129-.359,2.458-1.375,3.015-1.191.654-2.72-.308-3.3-1.524a20.561,20.561,0,0,1-.882-3.92c-.615-2.454-2.434-4.483-3.071-6.931-1.524-5.856,4.069-11.673,3-17.626-.222-1.242-.731-2.424-.926-3.671a7.628,7.628,0,0,1,2.47-6.781c2.042-1.8,5.194-2.713,6.012-5.285.9-2.837-1.723-5.763-1.264-8.7.147-.941.605-1.815.738-2.757a7.7,7.7,0,0,0-.447-3.231c-.877-2.957-1.94-6.261-.467-8.979a9.081,9.081,0,0,1,4.265-3.544,24.9,24.9,0,0,1,12.749-2.276c1.833.147,3.532-.367,3.78,1.673.267,2.207.6,3.068,2.66,4.378" transform="translate(-96.193 -90.085)" fill="#5573c6"/>
            <path id="Trazado_770758" data-name="Trazado 770758" d="M297.1,187.8a33.981,33.981,0,0,1,3.168-1.6,3.651,3.651,0,0,0,2.1-2.659,3.038,3.038,0,0,0-1.108-2.407,8.063,8.063,0,0,0-2.405-1.346,42.036,42.036,0,0,0-5.172-1.713,5.284,5.284,0,0,0-2.97-.154,5.134,5.134,0,0,0-2.085,1.606,8.246,8.246,0,0,0-1.943,3.086,7.717,7.717,0,0,0,.726,5.093c.573,1.327,4.127,8.384,5.954,7.6.716-.31.979-3.366,1.269-4.1a7.248,7.248,0,0,1,2.469-3.4" transform="translate(-122.241 -75.85)" fill="#5573c6"/>
            <path id="Trazado_770759" data-name="Trazado 770759" d="M473.819,296.805a52.911,52.911,0,0,1,4.928-2.49c1.612-.891,3.121-2.323,3.263-4.136a4.723,4.723,0,0,0-1.724-3.744,12.53,12.53,0,0,0-3.741-2.094,65.387,65.387,0,0,0-8.046-2.665,8.222,8.222,0,0,0-4.62-.238,7.99,7.99,0,0,0-3.244,2.5,12.834,12.834,0,0,0-3.023,4.8c-.751,2.618.048,5.42,1.13,7.924.892,2.063,6.421,13.042,9.262,11.814,1.114-.481,1.523-5.236,1.973-6.374a11.276,11.276,0,0,1,3.842-5.293" transform="translate(-195.131 -119.981)" fill="#5573c6"/>
            <path id="Trazado_770760" data-name="Trazado 770760" d="M197.207,152.947a1.378,1.378,0,1,1,1.378,1.378,1.378,1.378,0,0,1-1.378-1.378" transform="translate(-84.146 -64.673)" fill="#ebf3fa"/>
            <path id="Trazado_770761" data-name="Trazado 770761" d="M210.123,152.947a1.378,1.378,0,1,1,1.378,1.378,1.378,1.378,0,0,1-1.378-1.378" transform="translate(-89.657 -64.673)" fill="#ebf3fa"/>
            <path id="Trazado_770762" data-name="Trazado 770762" d="M223.038,152.947a1.378,1.378,0,1,1,1.378,1.378,1.378,1.378,0,0,1-1.378-1.378" transform="translate(-95.167 -64.673)" fill="#ebf3fa"/>
            <path id="Trazado_770763" data-name="Trazado 770763" d="M306.45,207.771c0,4.746,7.992,12.334,7.992,12.334s7.993-7.587,7.993-12.334-3.579-8.6-7.993-8.6-7.992,3.849-7.992,8.6m3.283-.5a4.71,4.71,0,1,1,4.71,4.71,4.717,4.717,0,0,1-4.71-4.71" transform="translate(-130.758 -84.986)" fill="#f4a338"/>
            <path id="Trazado_770764" data-name="Trazado 770764" d="M312.176,209.784a4.709,4.709,0,1,1,4.71,4.71,4.709,4.709,0,0,1-4.71-4.71" transform="translate(-133.202 -87.503)" fill="#ebf3fa"/>
            <path id="Trazado_770765" data-name="Trazado 770765" d="M236.407,287.133c0,3.381,5.695,8.788,5.695,8.788s5.7-5.406,5.7-8.788a5.71,5.71,0,1,0-11.39,0m2.339-.359a3.356,3.356,0,1,1,3.356,3.356,3.362,3.362,0,0,1-3.356-3.356" transform="translate(-100.872 -119.903)" fill="#f4a338"/>
            <path id="Trazado_770766" data-name="Trazado 770766" d="M240.487,288.567a3.356,3.356,0,1,1,3.356,3.356,3.356,3.356,0,0,1-3.356-3.356" transform="translate(-102.613 -121.696)" fill="#ebf3fa"/>
            <path id="Trazado_770767" data-name="Trazado 770767" d="M194.856,229.66H159.208a5.134,5.134,0,0,1-5.119-5.119v-36.8a5.134,5.134,0,0,1,5.119-5.119h35.647a5.134,5.134,0,0,1,5.119,5.119v36.8a5.134,5.134,0,0,1-5.119,5.119" transform="translate(-65.748 -77.923)" fill="#d2e1f1"/>
            <path id="Trazado_770768" data-name="Trazado 770768" d="M197.651,210.665a13.849,13.849,0,1,1-11.309-13.621c-1.73,6.3-4.025,14.65-4.179,15.171.286-.449,8.712-4.227,14.467-6.773a13.779,13.779,0,0,1,1.02,5.223" transform="translate(-72.51 -83.976)" fill="#5573c6"/>
            <path id="Trazado_770769" data-name="Trazado 770769" d="M207.592,203.116c-5.082,2.239-13.5,5.992-13.769,6.417.146-.5,2.474-8.959,4.034-14.633a15.222,15.222,0,0,1,9.735,8.216" transform="translate(-82.702 -83.161)" fill="#4adbd1"/>
            <path id="Trazado_770770" data-name="Trazado 770770" d="M307.952,113.071H261a6.322,6.322,0,0,1-6.3-6.3V64.42a6.322,6.322,0,0,1,6.3-6.3h46.951a6.322,6.322,0,0,1,6.3,6.3v42.347a6.322,6.322,0,0,1-6.3,6.3" transform="translate(-108.676 -24.797)" fill="#4adbd1"/>
            <path id="Trazado_770771" data-name="Trazado 770771" d="M312.385,127.21H266.3V112.546h46.084Zm-45.519-.565h44.953V113.111H266.866Z" transform="translate(-113.627 -48.022)" fill="#8c9df4"/>
            <rect id="Rectángulo_363216" data-name="Rectángulo 363216" width="17.826" height="1.162" transform="translate(156.013 68.465)" fill="#8c9df4"/>
            <rect id="Rectángulo_363217" data-name="Rectángulo 363217" width="12.648" height="1.162" transform="translate(175.716 68.465)" fill="#8c9df4"/>
            <rect id="Rectángulo_363218" data-name="Rectángulo 363218" width="9.838" height="1.162" transform="translate(156.013 71.784)" fill="#8c9df4"/>
            <rect id="Rectángulo_363219" data-name="Rectángulo 363219" width="12.648" height="1.162" transform="translate(167.515 71.784)" fill="#8c9df4"/>
            <rect id="Rectángulo_363220" data-name="Rectángulo 363220" width="12.648" height="1.162" transform="translate(181.473 71.784)" fill="#8c9df4"/>
            <rect id="Rectángulo_363221" data-name="Rectángulo 363221" width="4.806" height="6.682" transform="translate(152.957 53.366)" fill="#2a4e96"/>
            <rect id="Rectángulo_363222" data-name="Rectángulo 363222" width="4.807" height="11.111" transform="translate(161.189 48.936)" fill="#2a4e96"/>
            <rect id="Rectángulo_363223" data-name="Rectángulo 363223" width="4.806" height="14.741" transform="translate(169.423 45.307)" fill="#f4a338"/>
            <rect id="Rectángulo_363224" data-name="Rectángulo 363224" width="4.807" height="11.796" transform="translate(177.655 48.252)" fill="#2a4e96"/>
            <rect id="Rectángulo_363225" data-name="Rectángulo 363225" width="4.806" height="18.073" transform="translate(185.889 41.975)" fill="#2a4e96"/>
            <rect id="Rectángulo_363226" data-name="Rectángulo 363226" width="4.806" height="21.297" transform="translate(194.122 38.75)" fill="#f4a338"/>
            <path id="Trazado_770772" data-name="Trazado 770772" d="M567.843,239.584H507.09a6.21,6.21,0,0,1-6.192-6.192V202.6a6.21,6.21,0,0,1,6.192-6.192h60.753a6.21,6.21,0,0,1,6.192,6.192v30.791a6.21,6.21,0,0,1-6.192,6.192" transform="translate(-213.727 -83.806)" fill="#373f51"/>
            <path id="Trazado_770773" data-name="Trazado 770773" d="M538.554,252.007H511.512v-8.6h27.042Zm-26.71-.332h26.378v-7.941H511.844Z" transform="translate(-218.256 -103.857)" fill="#c0d4ff"/>
            <rect id="Rectángulo_363227" data-name="Rectángulo 363227" width="10.46" height="0.682" transform="translate(295.215 141.858)" fill="#c0d4ff"/>
            <rect id="Rectángulo_363228" data-name="Rectángulo 363228" width="7.422" height="0.682" transform="translate(306.777 141.858)" fill="#c0d4ff"/>
            <rect id="Rectángulo_363229" data-name="Rectángulo 363229" width="5.773" height="0.682" transform="translate(295.215 143.806)" fill="#c0d4ff"/>
            <rect id="Rectángulo_363230" data-name="Rectángulo 363230" width="7.422" height="0.682" transform="translate(301.964 143.806)" fill="#c0d4ff"/>
            <rect id="Rectángulo_363231" data-name="Rectángulo 363231" width="7.422" height="0.682" transform="translate(310.155 143.806)" fill="#c0d4ff"/>
            <path id="Trazado_770774" data-name="Trazado 770774" d="M594.8,252.007H567.755v-8.6H594.8Zm-26.71-.332h26.377v-7.941H568.086Z" transform="translate(-242.254 -103.857)" fill="#c0d4ff"/>
            <rect id="Rectángulo_363232" data-name="Rectángulo 363232" width="10.46" height="0.682" transform="translate(327.46 141.858)" fill="#c0d4ff"/>
            <rect id="Rectángulo_363233" data-name="Rectángulo 363233" width="7.422" height="0.682" transform="translate(339.022 141.858)" fill="#c0d4ff"/>
            <rect id="Rectángulo_363234" data-name="Rectángulo 363234" width="5.773" height="0.682" transform="translate(327.46 143.806)" fill="#c0d4ff"/>
            <rect id="Rectángulo_363235" data-name="Rectángulo 363235" width="7.422" height="0.682" transform="translate(334.209 143.806)" fill="#c0d4ff"/>
            <rect id="Rectángulo_363236" data-name="Rectángulo 363236" width="7.422" height="0.682" transform="translate(342.4 143.806)" fill="#c0d4ff"/>
            <path id="Trazado_770775" data-name="Trazado 770775" d="M572.479,233.77H511.512v-4.944h60.967Zm-60.388-.578H571.9V229.4H512.091Z" transform="translate(-218.256 -97.637)" fill="#c0d4ff"/>
            <rect id="Rectángulo_363237" data-name="Rectángulo 363237" width="47.324" height="4.365" transform="translate(293.545 131.478)" fill="#4adbd1"/>
            <path id="Trazado_770776" data-name="Trazado 770776" d="M572.479,216.623H511.512v-4.944h60.967Zm-60.388-.578H571.9v-3.787H512.091Z" transform="translate(-218.256 -90.321)" fill="#c0d4ff"/>
            <rect id="Rectángulo_363238" data-name="Rectángulo 363238" width="31.701" height="4.944" transform="translate(293.256 121.358)" fill="#4adbd1"/>
            <path id="Trazado_770777" data-name="Trazado 770777" d="M462.556,174.992a.982.982,0,0,0-.175,1.05l0,.005a6.528,6.528,0,0,0,2.062,2.262c.124.1.235.191.331.276.026.022.051.044.075.067l.057.052c.906.835.565,1.027,2.194,2.722,1.857,1.932,3.135,1.967,3.5,1.791.308-.15-.318-1.175-1.01-2.326-.033-.056-.066-.112-.1-.168-.092-.153-.183-.308-.275-.463-.812-1.386-.6-2.036-.411-4.1.156-1.676,2.608-9.364,2.608-9.364l-3.559-.613s-1.072,6.122-2.252,7.065c-.632.5-1.338.509-1.945.881-.042.026-.085.052-.126.08a4.662,4.662,0,0,0-.974.783" transform="translate(-197.259 -70.909)" fill="#ffb27d"/>
            <path id="Trazado_770778" data-name="Trazado 770778" d="M462.556,180.966a.982.982,0,0,0-.175,1.05l0,.005a7.565,7.565,0,0,0,2.066,2.255c.123.1.232.2.327.283.026.022.051.044.075.067l.057.052c.906.835.565,1.027,2.194,2.722,1.857,1.932,3.135,1.967,3.5,1.791.308-.15-.318-1.175-1.01-2.326a7.911,7.911,0,0,1-3.31-2.439c-1.077-1.375-1.809-3.127-2.542-4.2l-.209-.039a4.663,4.663,0,0,0-.974.783" transform="translate(-197.259 -76.882)" fill="#233862"/>
            <path id="Trazado_770779" data-name="Trazado 770779" d="M510.672,171.964c.22,1.1,1.785.915,3.534.488s1.334.081,3.823-.195,3.244-1.2,3.32-1.574c.068-.329-1.162-.444-2.481-.6-.166-.018-.333-.039-.5-.06-1.49-.187-2.581-1.148-3.934-1.938-1.281-.748-3.194-3.794-3.194-3.794l-3.414.271s1.792,2.721,2.485,3.9a4.127,4.127,0,0,1,.335,2.327,4.377,4.377,0,0,0,.026,1.168" transform="translate(-216.683 -70.103)" fill="#ffb27d"/>
            <path id="Trazado_770780" data-name="Trazado 770780" d="M516.286,176.763c1.749-.428,1.333.081,3.823-.195s3.244-1.2,3.32-1.574c.068-.329-1.162-.445-2.481-.6l-.012.025a7.024,7.024,0,0,1-3.565,1.108c-1.689.041-3.478-.443-4.644-.424a4.382,4.382,0,0,0,.026,1.168c.22,1.1,1.785.915,3.534.488" transform="translate(-218.762 -74.413)" fill="#233862"/>
            <path id="Trazado_770781" data-name="Trazado 770781" d="M481.252,135.522l-3.192,8.588-4.167,11.213a6.747,6.747,0,0,1-2.214-.2,9.615,9.615,0,0,1-2.141-1.042s1.157-12.04,3.315-18.951a12.314,12.314,0,0,1,1.857-4.017c3.346-3.954,6.54,4.412,6.54,4.412" transform="translate(-200.346 -55.49)" fill="#e8932e"/>
            <path id="Trazado_770782" data-name="Trazado 770782" d="M461.334,114.528c-1.817-.586-6.557-.009-11.7.921a3.487,3.487,0,0,1-3.6-1.626L433.1,112.813s-4.269,9.469-1.932,15.5a2.269,2.269,0,0,0,2.261,1.459h0s7.819.011,10.32.011c6.435,0,13.618-4.423,14.548-4.609,1.521-.3,2.129,2.738,3.65,5.932s14.3,14.146,14.3,14.146a11.257,11.257,0,0,0,2.775-.284,2.736,2.736,0,0,0,1.192-.752s-14.157-28.167-18.873-29.688" transform="translate(-183.673 -48.136)" fill="#f4a338"/>
            <path id="Trazado_770783" data-name="Trazado 770783" d="M439.546,47.73a4.591,4.591,0,0,0-2.472-.643,6.867,6.867,0,0,1-1.193-.072c-4.939-.724-7.913,6.449-8.087,8.616-.319,3.979-2.425,4.586-5.387,7.078-5.941,5-4.2,10.8-.951,12.961,1.949,1.295,5.385,0,5.385,0,.048.034,9.4-5.226,14-7.763,6.908-.982,1.476-18.525-1.3-20.177" transform="translate(-178.56 -20.039)" fill="#152949"/>
            <path id="Trazado_770784" data-name="Trazado 770784" d="M446.062,74.336a6.088,6.088,0,0,1-3.8.116c-1.439-.636-2.529-3-2.508-3,.655-.03,1.373-.6,1.927-4.357l.279.1,4.686,1.686s-.34,1.5-.56,2.935c-.185,1.2-.284,2.354-.028,2.524" transform="translate(-187.639 -28.627)" fill="#ffb27d"/>
            <path id="Trazado_770785" data-name="Trazado 770785" d="M448.291,68.951s-.187.811-.46,2.327a5.292,5.292,0,0,1-4.226-4.013Z" transform="translate(-189.281 -28.701)" fill="#ed975d"/>
            <path id="Trazado_770786" data-name="Trazado 770786" d="M448.639,64.416s-6.411-.861-5.815-4.845.173-6.779,4.291-6.4,4.685,2.02,4.809,3.4-1.6,7.966-3.286,7.845" transform="translate(-188.931 -22.673)" fill="#ffb27d"/>
            <path id="Trazado_770787" data-name="Trazado 770787" d="M450.322,54.125s-4.1,3.537-6.9,3.822-3.849-.611-3.849-.611a10.9,10.9,0,0,0,2.635-3.571,1.963,1.963,0,0,1,1.618-1.157c1.994-.173,5.773-.251,6.491,1.517" transform="translate(-187.562 -22.411)" fill="#152949"/>
            <path id="Trazado_770788" data-name="Trazado 770788" d="M453.845,54.194a10.1,10.1,0,0,1,1.8,2.312,7.758,7.758,0,0,1,.21,4.126s2.14-4.159.928-6.181c-1.284-2.143-2.943-.257-2.943-.257" transform="translate(-193.65 -22.797)" fill="#152949"/>
            <path id="Trazado_770789" data-name="Trazado 770789" d="M447.367,86.911c-.194,12.979-.054,10.267-1.473,11.5a5.459,5.459,0,0,1-2.57.557c-3.98.264-10.975-.392-11.242-1.127-.918-2.545-.269-3.336-1.035-7.232-.08-.414-.178-.862-.294-1.351-.639-2.676-1.26-3.586,1-7.885,2.055-3.894,4.189-7.055,4.381-6.941,5.421,3.217,5.858.513,5.858.513s5.466,5.637,5.371,11.967" transform="translate(-183.544 -31.757)" fill="#5573c6"/>
            <path id="Trazado_770790" data-name="Trazado 770790" d="M478.06,147.889,473.893,159.1a6.738,6.738,0,0,1-2.214-.2,9.625,9.625,0,0,1-2.141-1.042s1.157-12.04,3.315-18.952Z" transform="translate(-200.346 -59.269)" fill="#f4a338"/>
            <path id="Trazado_770791" data-name="Trazado 770791" d="M450.8,75.326s5.577.945,6.232,3.347,2.81,16.977,2.81,16.977-1.573,1.535-2.882.226-4.122-13.637-4.122-13.637Z" transform="translate(-192.352 -32.141)" fill="#5573c6"/>
            <path id="Trazado_770792" data-name="Trazado 770792" d="M443.984,106.986c-3.981.264-10.976-.392-11.242-1.127-.918-2.545-.27-3.336-1.036-7.232l1.919-5.4s-.317,6.019,1.458,7.6,7.268,3.056,8.131,4.38a4.841,4.841,0,0,1,.769,1.782" transform="translate(-184.203 -39.777)" fill="#3657b2"/>
            <path id="Trazado_770793" data-name="Trazado 770793" d="M445.167,112.361s3.926-.874,4.56-.526a9.227,9.227,0,0,1,2.376,2.059c.194.442-1.41-.335-1.932-.475a4.624,4.624,0,0,0-1.668.365,5.545,5.545,0,0,1-2.989.3Z" transform="translate(-189.947 -47.683)" fill="#ffb27d"/>
            <path id="Trazado_770794" data-name="Trazado 770794" d="M431.115,74.428s-5.272.325-7.1,2.87c-2.569,3.583-7.665,18.853-4.744,20.89,3.289,2.293,14.97.6,14.97.6a4.745,4.745,0,0,0-.152-2.7c-.541-.879-9.33-2.3-9.735-2.7s5.07-7.909,5.07-9.127,1.688-9.833,1.688-9.833" transform="translate(-178.525 -31.757)" fill="#5573c6"/>
            <path id="Trazado_770795" data-name="Trazado 770795" d="M453.452,113.8a7.585,7.585,0,0,0,1.093,1.188.8.8,0,0,0,.444.095l-.554-1Z" transform="translate(-193.482 -48.558)" fill="#ffb27d"/>
            <path id="Trazado_770796" data-name="Trazado 770796" d="M453.121,111.9l2.392,1.162a.426.426,0,0,1-.4.153,5.719,5.719,0,0,1-1.038-.285Z" transform="translate(-193.341 -47.745)" fill="#ffb27d"/>
            <path id="Trazado_770797" data-name="Trazado 770797" d="M470.151,116.659H445.167v.552h24.762Z" transform="translate(-189.947 -49.777)" fill="#152949"/>
            <path id="Trazado_770798" data-name="Trazado 770798" d="M455.358,107.087h18.92l5.691-14.153H461.078Z" transform="translate(-194.295 -39.654)" fill="#152949"/>
            <path id="Trazado_770799" data-name="Trazado 770799" d="M478.66,104.607a.655.655,0,0,0-.643-.9,1.289,1.289,0,0,0-1.159.9.655.655,0,0,0,.642.9,1.291,1.291,0,0,0,1.159-.9" transform="translate(-203.454 -44.25)" fill="#ebf3fa"/>
            <path id="Trazado_770800" data-name="Trazado 770800" d="M367.9,189.312c0,7.03,11.838,18.267,11.838,18.267s11.838-11.238,11.838-18.267-5.3-12.73-11.838-12.73-11.838,5.7-11.838,12.73m4.863-.746a6.975,6.975,0,1,1,6.976,6.976,6.988,6.988,0,0,1-6.976-6.976" transform="translate(-156.98 -75.345)" fill="#f4a338"/>
            <path id="Trazado_770801" data-name="Trazado 770801" d="M376.386,192.293a6.976,6.976,0,1,1,6.975,6.976,6.976,6.976,0,0,1-6.975-6.976" transform="translate(-160.599 -79.073)" fill="#ebf3fa"/>
            <path id="Trazado_770802" data-name="Trazado 770802" d="M392.411,229.208a14.764,14.764,0,0,0-1.131-4.376c-.767-1.21-3.667-1.988-3.85-1.81-.568.55,1.677,2.5,1.765,3.211s-1.14.221-.55,1.618a10.907,10.907,0,0,0,2.139,2.71Z" transform="translate(-165.272 -95.15)" fill="#ffb27d"/>
            <path id="Trazado_770803" data-name="Trazado 770803" d="M392.9,232.61c1.058-.83,1.283-.814,1.283-.814s9.783,8.475,10.735,9.23,15.646,5.015,15.646,5.015l2.335,11.944s-19.881-9.6-22.257-11.563c-3.926-3.238-8.879-12.3-8.879-12.3a3.746,3.746,0,0,1,1.138-1.512" transform="translate(-167.16 -98.904)" fill="#31bfb5"/>
            <path id="Trazado_770804" data-name="Trazado 770804" d="M433.724,432.162s-.169,4.083-.952,5.075l-10.9.063a1.706,1.706,0,0,1,1.63-1.658,7.315,7.315,0,0,0,5.3-4.179c1.215-2.649,4.931.7,4.931.7" transform="translate(-180.005 -183.664)" fill="#163560"/>
            <path id="Trazado_770805" data-name="Trazado 770805" d="M470.325,431.182s.76,5.424-.272,5.518c-.138.013-4.394.081-6.238.112-2.168.036-5.73-.04-5.73-.04a.567.567,0,0,1-.514-.852,2.285,2.285,0,0,1,1.638-1.051c1.9-.366,5.064-1.761,6.174-4.3,1.167-2.67,4.941.612,4.941.612" transform="translate(-195.206 -183.272)" fill="#163560"/>
            <path id="Trazado_770806" data-name="Trazado 770806" d="M432.659,327.742a170.227,170.227,0,0,0,6.341,17c1.39,3.31,3.209,7.428,5.382,12.034,8.69,18.425,9.066,27.3,9.066,27.3a7.62,7.62,0,0,0,3.06.28,8.237,8.237,0,0,0,3.221-1.044s-.563-21.931-4.668-31.229-4.941-34.742-4.941-34.742Z" transform="translate(-184.61 -135.408)" fill="#373f51"/>
            <path id="Trazado_770807" data-name="Trazado 770807" d="M424.164,319.556a264.625,264.625,0,0,0,2.6,36.6c2.843,20.173,1.514,29.554,1.514,29.554a5.665,5.665,0,0,0,3.071.54,6.891,6.891,0,0,0,4.1-1.132s4.068-20.179,2.9-30.276,5.571-34.646,5.571-34.646Z" transform="translate(-180.983 -136.35)" fill="#555e71"/>
            <path id="Trazado_770808" data-name="Trazado 770808" d="M441.756,246.45l-3.211,2.378-4.641-.977c.064-.423.371-2.177.65-3.766l.049-.279c.239-1.352.445-2.513.445-2.513l4.335-2.16,1.616-.8c0,.028-.126,1.5-.142,1.715a13.877,13.877,0,0,0,.9,6.407" transform="translate(-185.141 -101.692)" fill="#ffb27d"/>
            <path id="Trazado_770809" data-name="Trazado 770809" d="M446.353,291.944c-1.05,4.8-23.521,2.694-23.228-.237.011-.1.07-1.454.151-3.283.17-3.956.43-10.137.464-10.621,0-.008,0-.017,0-.025.4-4.082.793-8.074.818-10.681a37.082,37.082,0,0,1,.748-6.673c.382-1.937.852-3.7,1.26-5.067a5.6,5.6,0,0,1,3.283-3.6,4.943,4.943,0,0,1,.545-.19c2.644-.768,6.3-1.717,7.295-1.426,2.685.79,4.682,5.519,6.094,11.546,2.644,11.282,3.255,27.125,2.568,30.255" transform="translate(-180.541 -106.71)" fill="#4adbd1"/>
            <path id="Trazado_770810" data-name="Trazado 770810" d="M441.015,240.708c-.952,1.821-4.5,3.4-5.978,3.975.017-.093.034-.187.05-.279.238-1.351.445-2.513.445-2.513l4.334-2.16c.959-.015,1.542.228,1.149.977" transform="translate(-185.625 -102.29)" fill="#fca56b"/>
            <path id="Trazado_770811" data-name="Trazado 770811" d="M431.5,233.479s7.819,2.439,9.263-2.454,3.426-7.873-1.5-9.638-6.457-.185-7.337,1.331-2.419,10-.421,10.761" transform="translate(-183.698 -94.131)" fill="#ffb27d"/>
            <path id="Trazado_770812" data-name="Trazado 770812" d="M432.951,220.258s.5,5.694,1.676,5.447,2.245-.431,2.073,1.285-1.805,3.7,1.824,4,8.846-9.055,7.849-10.827c-2.876-5.113-17.579-6.145-13.422.092" transform="translate(-184.421 -92.142)" fill="#163560"/>
            <path id="Trazado_770813" data-name="Trazado 770813" d="M423.391,303.125c.17-3.956.43-10.137.464-10.62,0-.009,0-.017,0-.025l13.275-7.937s.514,18.529-13.741,18.582" transform="translate(-180.655 -121.411)" fill="#31bfb5"/>
            <path id="Trazado_770814" data-name="Trazado 770814" d="M400.07,286.324a35.191,35.191,0,0,0-3.211-1.984,6.736,6.736,0,0,0-2.267-.2c-.078.132-.308.537-.014.674s.658.089.548.185-1.213-.429-1.467.133-.478,2.489.816,3.073,4.488.057,4.718.124c1.953.568.876-2.005.876-2.005" transform="translate(-167.886 -121.219)" fill="#ffb27d"/>
            <path id="Trazado_770815" data-name="Trazado 770815" d="M404.31,274.885s13.167,2.239,14.334,1.671c1.863-.907-.722-14.266-.722-14.266a3.842,3.842,0,0,1,3.426-3.742c3.074-.621,6.039,1.681,6.039,1.681s2.7,2.413,2.352,5.089c-.764,5.933-1.952,18-5.919,19.849-5.118,2.386-19.928-6.615-19.928-6.615a2.59,2.59,0,0,1-.423-1.725,4.022,4.022,0,0,1,.843-1.941" transform="translate(-172.151 -110.273)" fill="#4adbd1"/>
            <path id="Trazado_770816" data-name="Trazado 770816" d="M388.758,229.543s-.843-1.675-.977-1.99.193-.247.518-.071.767,1.148,1.267,1.031c.4-.093-.807,1.03-.807,1.03" transform="translate(-165.448 -97)" fill="#ffb27d"/>
            <path id="Trazado_770817" data-name="Trazado 770817" d="M195.292,427.516a5.541,5.541,0,0,0,.044.707,5.8,5.8,0,0,0,5.758,5.1H282.7a5.8,5.8,0,0,0,0-11.606H201.095a5.8,5.8,0,0,0-5.8,5.8" transform="translate(-83.329 -179.939)" fill="#373f51"/>
            <path id="Trazado_770818" data-name="Trazado 770818" d="M205.486,418.555h27.98a.891.891,0,1,0,0-1.781h-27.98a.891.891,0,0,0,0,1.781" transform="translate(-87.298 -177.832)" fill="#2b478b"/>
            <rect id="Rectángulo_363239" data-name="Rectángulo 363239" width="3.033" height="1.05" transform="translate(119.734 240.723)" fill="#233862"/>
            <path id="Trazado_770819" data-name="Trazado 770819" d="M196.52,436.676a5.813,5.813,0,0,0,5.1,3.027H218.9v-3.027Z" transform="translate(-83.853 -186.324)" fill="#233862"/>
            <path id="Trazado_770820" data-name="Trazado 770820" d="M307.347,425.815v3.4a4.1,4.1,0,0,1-4.1,4.1H218.237a4.1,4.1,0,0,1-4.1-4.1v-3.4a4.1,4.1,0,0,1,4.1-4.1h85.008a4.1,4.1,0,0,1,4.1,4.1" transform="translate(-91.369 -179.939)" fill="#f99746"/>
            <path id="Trazado_770821" data-name="Trazado 770821" d="M307.31,436.676a4.1,4.1,0,0,1-3.959,3.027H218.344a4.1,4.1,0,0,1-3.959-3.027Z" transform="translate(-91.475 -186.324)" fill="#ef873a"/>
            <path id="Trazado_770822" data-name="Trazado 770822" d="M361.993,427.536a6.449,6.449,0,0,0,1.688,4.48l.069.071a4.117,4.117,0,0,0,2.912,1.271c1.721,0,5.987-2.6,8.63-4.32,1.317-.86,2.231-1.5,2.231-1.5s-.914-.643-2.231-1.5c-2.644-1.726-6.909-4.322-8.63-4.322a3.859,3.859,0,0,0-1.429.276,4.678,4.678,0,0,0-1.968,1.553,6.406,6.406,0,0,0-1.182,2.84.276.276,0,0,0,0,.038,7.182,7.182,0,0,0-.087,1.117" transform="translate(-154.458 -179.939)" fill="#f0dcc0"/>
            <path id="Trazado_770823" data-name="Trazado 770823" d="M361.993,431.039a6.449,6.449,0,0,0,1.688,4.48l13.084-4.5-14.685-1.1a7.182,7.182,0,0,0-.087,1.117" transform="translate(-154.458 -183.442)" fill="#e6b046"/>
            <path id="Trazado_770824" data-name="Trazado 770824" d="M364.213,423.747l13.052,3.564-11.084-5.117a4.675,4.675,0,0,0-1.968,1.553" transform="translate(-155.405 -180.145)" fill="#e6b046"/>
            <path id="Trazado_770825" data-name="Trazado 770825" d="M383.7,430.753a1.612,1.612,0,0,0,.852,1.5c1.317-.86,2.231-1.5,2.231-1.5s-.914-.643-2.231-1.5a1.608,1.608,0,0,0-.852,1.5" transform="translate(-163.722 -183.155)" fill="#182d4c"/>
            <path id="Trazado_770826" data-name="Trazado 770826" d="M402.47,443.12H24.071a.449.449,0,0,1-.448-.448v-.2a.449.449,0,0,1,.448-.448h378.4a.449.449,0,0,1,.448.448v.2a.449.449,0,0,1-.448.448" transform="translate(-10.08 -188.607)" fill="#2e3552"/>
          </g>
        </g>
      </g>
    </g>
  </g>
</svg>
