<svg xmlns="http://www.w3.org/2000/svg" xmlns:xlink="http://www.w3.org/1999/xlink" width="401" height="391" viewBox="0 0 401 391">
  <defs>
    <clipPath id="clip-path">
      <rect id="Rectángulo_363212" data-name="Rectángulo 363212" width="400.824" height="250.81" fill="none"/>
    </clipPath>
    <clipPath id="clip-path-3">
      <rect id="Rectángulo_363191" data-name="Rectángulo 363191" width="323.16" height="200.142" fill="none"/>
    </clipPath>
    <clipPath id="clip-path-4">
      <rect id="Rectángulo_363188" data-name="Rectángulo 363188" width="320.64" height="171.852" fill="none"/>
    </clipPath>
    <clipPath id="clip-path-5">
      <rect id="Rectángulo_363189" data-name="Rectángulo 363189" width="8.914" height="9.594" fill="none"/>
    </clipPath>
    <clipPath id="clip-path-6">
      <rect id="Rectángulo_363190" data-name="Rectángulo 363190" width="11.733" height="11.732" fill="none"/>
    </clipPath>
    <clipPath id="clip-path-7">
      <rect id="Rectángulo_363192" data-name="Rectángulo 363192" width="314.107" height="189.557" fill="#b0c0d2"/>
    </clipPath>
    <clipPath id="clip-path-8">
      <path id="Trazado_770546" data-name="Trazado 770546" d="M78.352,5.818c0,49.569.025,49.5.025,49.923L78.352,124.2c0,.418,0,0,.783-2.395l153.186-.007L232.3,5.818Z" transform="translate(-78.352 -5.818)" fill="none"/>
    </clipPath>
    <clipPath id="clip-path-10">
      <rect id="Rectángulo_363199" data-name="Rectángulo 363199" width="2.266" height="1.86" fill="none"/>
    </clipPath>
  </defs>
  <g id="Grupo_1033333" data-name="Grupo 1033333" transform="translate(8086 -9667)">
    <rect id="Rectángulo_361882" data-name="Rectángulo 361882" width="401" height="391" transform="translate(-8086 9667)" fill="#efeeee"/>
    <g id="Grupo_1028240" data-name="Grupo 1028240" transform="translate(-8085.824 9737)">
      <g id="Grupo_1028239" data-name="Grupo 1028239" clip-path="url(#clip-path)">
        <g id="Grupo_1028231" data-name="Grupo 1028231">
          <g id="Grupo_1028230" data-name="Grupo 1028230" clip-path="url(#clip-path)">
            <g id="Grupo_1028226" data-name="Grupo 1028226" transform="translate(33.282 0.865)" opacity="0.8">
              <g id="Grupo_1028225" data-name="Grupo 1028225">
                <g id="Grupo_1028224" data-name="Grupo 1028224" clip-path="url(#clip-path-3)">
                  <g id="Grupo_1028217" data-name="Grupo 1028217" transform="translate(0 28.29)" opacity="0.5">
                    <g id="Grupo_1028216" data-name="Grupo 1028216">
                      <g id="Grupo_1028215" data-name="Grupo 1028215" clip-path="url(#clip-path-4)">
                        <path id="Trazado_770418" data-name="Trazado 770418" d="M185.395,56.949a86.487,86.487,0,0,1-39.438-16.714C128.537,27.088,92.084,4.715,57.308,15.86,9.344,31.233,9.128,75.7,21.622,99.853s101.092,94.891,215.952,83.637C340.355,173.418,360.386,58.132,305.568,37.268,258.024,19.175,241.8,65.28,185.395,56.949" transform="translate(-14.662 -12.843)" fill="#ced3e6"/>
                      </g>
                    </g>
                  </g>
                  <g id="Grupo_1028220" data-name="Grupo 1028220" transform="translate(314.246 50.536)" opacity="0.5">
                    <g id="Grupo_1028219" data-name="Grupo 1028219">
                      <g id="Grupo_1028218" data-name="Grupo 1028218" clip-path="url(#clip-path-5)">
                        <path id="Trazado_770419" data-name="Trazado 770419" d="M162.013,27.44a4.469,4.469,0,1,1-8.914,0,4.469,4.469,0,1,1,8.914,0" transform="translate(-153.099 -22.644)" fill="#ced3e6"/>
                      </g>
                    </g>
                  </g>
                  <path id="Trazado_770420" data-name="Trazado 770420" d="M28.229,10.863a2.89,2.89,0,0,1,3.232,1.809c.822,2.229-1.328,4.722-4.224,3.6a2.937,2.937,0,0,1,.992-5.412" transform="translate(-0.497 12.87)" fill="#ced3e6"/>
                  <path id="Trazado_770421" data-name="Trazado 770421" d="M158.756,9.118a5.805,5.805,0,1,1-5.807-5.807,5.806,5.806,0,0,1,5.807,5.807" transform="translate(153.585 3.34)" fill="#ced3e6"/>
                  <g id="Grupo_1028223" data-name="Grupo 1028223" transform="translate(33.816 14.873)" opacity="0.8">
                    <g id="Grupo_1028222" data-name="Grupo 1028222">
                      <g id="Grupo_1028221" data-name="Grupo 1028221" clip-path="url(#clip-path-6)">
                        <path id="Trazado_770422" data-name="Trazado 770422" d="M41.074,11.216a5.865,5.865,0,1,1-7.23-4.063,5.864,5.864,0,0,1,7.23,4.063" transform="translate(-29.559 -6.933)" fill="#ced3e6"/>
                      </g>
                    </g>
                  </g>
                  <path id="Trazado_770423" data-name="Trazado 770423" d="M137.914,85.9a2.891,2.891,0,0,1,3.514,1.178c1.219,2.034-.429,4.883-3.482,4.322a2.936,2.936,0,0,1-.032-5.5" transform="translate(139.461 107.979)" fill="#ced3e6"/>
                  <path id="Trazado_770424" data-name="Trazado 770424" d="M150.321,84.194a5.866,5.866,0,1,1-7.861-2.649,5.865,5.865,0,0,1,7.861,2.649" transform="translate(143.495 101.917)" fill="#ced3e6"/>
                  <path id="Trazado_770425" data-name="Trazado 770425" d="M150.454,3.953A3.572,3.572,0,1,1,146.883.382a3.57,3.57,0,0,1,3.571,3.571" transform="translate(148.715 -0.38)" fill="#ced3e6"/>
                </g>
              </g>
            </g>
            <g id="Grupo_1028229" data-name="Grupo 1028229" transform="translate(27.857)" opacity="0.8">
              <g id="Grupo_1028228" data-name="Grupo 1028228">
                <g id="Grupo_1028227" data-name="Grupo 1028227" clip-path="url(#clip-path-7)">
                  <path id="Trazado_770426" data-name="Trazado 770426" d="M326.379,69.139c0-31.906-26.57-66.868-59.634-68.979-.581-.036-1.167-.07-1.759-.1-47.4-2.209-51.01,55.6-93.9,62.122s-75.635-26.4-126.95-4.919C-1.947,76.552-14.43,184.934,120.982,189.278c108.34,3.478,205.411-24.947,205.4-120.14" transform="translate(-12.272 0)" fill="#b0c0d2"/>
                </g>
              </g>
            </g>
            <path id="Trazado_770427" data-name="Trazado 770427" d="M276.171,101.057c0,2.976-46.781,5.391-104.491,5.391S67.19,104.033,67.19,101.057s46.782-5.391,104.491-5.391,104.491,2.415,104.491,5.391" transform="translate(85.328 121.492)" fill="#b0c0d2"/>
            <path id="Trazado_770428" data-name="Trazado 770428" d="M152.5,91.4h-14.48v15.059h16.932V93.847A2.451,2.451,0,0,0,152.5,91.4" transform="translate(175.282 116.068)" fill="#ced3e6"/>
            <rect id="Rectángulo_363193" data-name="Rectángulo 363193" width="50.264" height="32.267" transform="translate(235.844 175.195)" fill="#ced3e6"/>
            <path id="Trazado_770429" data-name="Trazado 770429" d="M220.548,106.454H81.885v-5.591A9.467,9.467,0,0,1,91.353,91.4H211.08a9.468,9.468,0,0,1,9.468,9.468Z" transform="translate(103.99 116.068)" fill="#fff"/>
            <rect id="Rectángulo_363194" data-name="Rectángulo 363194" width="50.264" height="32.267" transform="translate(229.683 175.195)" fill="#fff"/>
            <path id="Trazado_770430" data-name="Trazado 770430" d="M101.184,87.088l50.264-4.025.007-5.884h-50.2Z" transform="translate(128.5 98.014)" fill="#ced3e6"/>
            <path id="Trazado_770431" data-name="Trazado 770431" d="M290.209,22.236V148.777a6.717,6.717,0,0,1-6.717,6.717H68.884a6.717,6.717,0,0,1-6.717-6.717V22.236a6.717,6.717,0,0,1,6.717-6.717H283.492a6.717,6.717,0,0,1,6.717,6.717" transform="translate(78.949 19.708)" fill="#ced3e6"/>
            <path id="Trazado_770432" data-name="Trazado 770432" d="M174.243,22.236V139.42H153.482V15.519h14.044a6.717,6.717,0,0,1,6.717,6.717" transform="translate(194.915 19.708)" fill="#585859"/>
            <path id="Trazado_770433" data-name="Trazado 770433" d="M281.669,22.236V148.777a6.717,6.717,0,0,1-6.717,6.717H68.882a6.717,6.717,0,0,1-6.715-6.717V22.236a6.717,6.717,0,0,1,6.715-6.717H274.953c.1,0,.2,0,.3.007.073,0,.145.007.218.014h.007c.052,0,.1.009.157.016.086.007.173.018.259.03q.085.01.17.027l.079.014c.057.009.109.018.163.032a6.718,6.718,0,0,1,5.364,6.578" transform="translate(78.949 19.708)" fill="#fff"/>
            <path id="Trazado_770434" data-name="Trazado 770434" d="M276.307,15.657a1.384,1.384,0,0,0-.163-.032.511.511,0,0,0-.082-.014c-.057-.011-.111-.02-.168-.027-.089-.011-.173-.023-.261-.03-.05-.007-.1-.011-.154-.016h-.009c-.073-.007-.143-.009-.218-.014-.1,0-.2-.007-.3-.007H68.883a6.717,6.717,0,0,0-6.717,6.717V139.42h219.5V22.236a6.718,6.718,0,0,0-5.364-6.578m-3.344,112.056a1.826,1.826,0,0,1-1.827,1.827H72.7a1.826,1.826,0,0,1-1.827-1.827V26.052A1.826,1.826,0,0,1,72.7,24.227H271.136a1.826,1.826,0,0,1,1.827,1.825Z" transform="translate(78.948 19.708)" fill="#373f51"/>
            <path id="Trazado_770435" data-name="Trazado 770435" d="M268.092,21.182V122.845a1.826,1.826,0,0,1-1.827,1.825H67.829A1.826,1.826,0,0,1,66,122.845V21.182a1.826,1.826,0,0,1,1.827-1.827H266.264a1.826,1.826,0,0,1,1.827,1.827" transform="translate(83.82 24.58)" fill="#ced3e6"/>
            <path id="Trazado_770436" data-name="Trazado 770436" d="M268.092,21.182v9.593H66V21.182a1.826,1.826,0,0,1,1.827-1.827H266.264a1.826,1.826,0,0,1,1.827,1.827" transform="translate(83.82 24.58)" fill="#fff"/>
            <path id="Trazado_770437" data-name="Trazado 770437" d="M149.871,22.672a1.551,1.551,0,1,1-1.553-1.553,1.552,1.552,0,0,1,1.553,1.553" transform="translate(186.389 26.82)" fill="#768ec1"/>
            <path id="Trazado_770438" data-name="Trazado 770438" d="M152.086,22.672a1.552,1.552,0,1,1-1.553-1.553,1.552,1.552,0,0,1,1.553,1.553" transform="translate(189.202 26.82)" fill="#5573c6"/>
            <path id="Trazado_770439" data-name="Trazado 770439" d="M233.1,24.364H75.224a1.45,1.45,0,0,1-1.448-1.446v-.39a1.454,1.454,0,0,1,1.448-1.448H233.1a1.454,1.454,0,0,1,1.448,1.448v.39a1.45,1.45,0,0,1-1.448,1.446" transform="translate(93.692 26.769)" fill="#d2dcec"/>
            <path id="Trazado_770440" data-name="Trazado 770440" d="M71,22.809v1.519a.279.279,0,0,1-.418.243l-1.317-.76-1.317-.76a.277.277,0,0,1,0-.481l1.317-.76,1.317-.76a.279.279,0,0,1,.418.243Z" transform="translate(86.118 26.682)"/>
            <path id="Trazado_770441" data-name="Trazado 770441" d="M70.235,22.809v1.519a.279.279,0,0,0,.418.243l1.317-.76,1.317-.76a.277.277,0,0,0,0-.481l-1.317-.76-1.317-.76a.279.279,0,0,0-.418.243Z" transform="translate(89.195 26.682)"/>
            <path id="Trazado_770442" data-name="Trazado 770442" d="M151.375,23.95l-.07-.07a.388.388,0,0,1,0-.549l2.086-2.084a.388.388,0,0,1,.549,0l.07.068a.39.39,0,0,1,0,.552l-2.086,2.084a.388.388,0,0,1-.549,0" transform="translate(192.006 26.838)" fill="#373f51"/>
            <path id="Trazado_770443" data-name="Trazado 770443" d="M153.94,23.95l.07-.07a.388.388,0,0,0,0-.549l-2.086-2.084a.388.388,0,0,0-.549,0l-.07.068a.39.39,0,0,0,0,.552l2.086,2.084a.388.388,0,0,0,.549,0" transform="translate(192.006 26.838)" fill="#373f51"/>
            <path id="Trazado_770444" data-name="Trazado 770444" d="M228.108,112.895H79.884a3.818,3.818,0,0,1-3.818-3.82V29.226a3.82,3.82,0,0,1,3.818-3.82H228.108a3.82,3.82,0,0,1,3.818,3.82v79.848a3.818,3.818,0,0,1-3.818,3.82" transform="translate(96.6 32.264)" fill="#fff"/>
            <path id="Trazado_770445" data-name="Trazado 770445" d="M115.59,46.189H81.418a.949.949,0,1,1,0-1.9H115.59a.949.949,0,0,1,0,1.9" transform="translate(102.19 56.248)" fill="#ced3e6"/>
            <path id="Trazado_770446" data-name="Trazado 770446" d="M115.59,42.65H81.418a.949.949,0,1,1,0-1.9H115.59a.949.949,0,0,1,0,1.9" transform="translate(102.19 51.753)" fill="#ced3e6"/>
            <path id="Trazado_770447" data-name="Trazado 770447" d="M115.59,49.727H81.418a.949.949,0,1,1,0-1.9H115.59a.949.949,0,0,1,0,1.9" transform="translate(102.19 60.741)" fill="#ced3e6"/>
            <path id="Trazado_770448" data-name="Trazado 770448" d="M161.847,46.189H127.675a.949.949,0,1,1,0-1.9h34.172a.949.949,0,1,1,0,1.9" transform="translate(160.934 56.248)" fill="#ced3e6"/>
            <path id="Trazado_770449" data-name="Trazado 770449" d="M161.847,42.65H127.675a.949.949,0,1,1,0-1.9h34.172a.949.949,0,1,1,0,1.9" transform="translate(160.934 51.753)" fill="#ced3e6"/>
            <path id="Trazado_770450" data-name="Trazado 770450" d="M161.847,49.727H127.675a.949.949,0,1,1,0-1.9h34.172a.949.949,0,1,1,0,1.9" transform="translate(160.934 60.741)" fill="#ced3e6"/>
            <path id="Trazado_770451" data-name="Trazado 770451" d="M76.066,57.963h155.86V70.741a.807.807,0,0,1-.808.808H76.876a.809.809,0,0,1-.81-.808Z" transform="translate(96.6 73.61)" fill="#5573c6"/>
            <path id="Trazado_770452" data-name="Trazado 770452" d="M138.558,61.4V60.248H140V59.222h-1.954a.514.514,0,0,0-.513.513V61.4Z" transform="translate(174.66 75.209)" fill="#fff"/>
            <path id="Trazado_770453" data-name="Trazado 770453" d="M138.558,61.084h-1.026v1.752a.515.515,0,0,0,.513.513H140V62.323h-1.441Z" transform="translate(174.66 77.574)" fill="#fff"/>
            <path id="Trazado_770454" data-name="Trazado 770454" d="M140.7,61.4h1.026V59.735a.514.514,0,0,0-.513-.513h-1.88v1.026H140.7Z" transform="translate(176.953 75.209)" fill="#fff"/>
            <path id="Trazado_770455" data-name="Trazado 770455" d="M140.7,61.084v1.239h-1.367v1.026h1.88a.515.515,0,0,0,.513-.513V61.084Z" transform="translate(176.953 77.574)" fill="#fff"/>
            <path id="Trazado_770456" data-name="Trazado 770456" d="M80.066,62.56V59.324l2.8,1.618,2.8,1.618-2.8,1.618-2.8,1.618Z" transform="translate(101.68 75.338)" fill="#fff"/>
            <path id="Trazado_770457" data-name="Trazado 770457" d="M87.6,65.36h-.738a.5.5,0,0,1-.5-.5V59.966a.5.5,0,0,1,.5-.5H87.6a.5.5,0,0,1,.5.5V64.86a.5.5,0,0,1-.5.5" transform="translate(109.682 75.52)" fill="#fff"/>
            <path id="Trazado_770458" data-name="Trazado 770458" d="M89.2,65.36h-.738a.5.5,0,0,1-.5-.5V59.966a.5.5,0,0,1,.5-.5H89.2a.5.5,0,0,1,.5.5V64.86a.5.5,0,0,1-.5.5" transform="translate(111.713 75.52)" fill="#fff"/>
            <rect id="Rectángulo_363195" data-name="Rectángulo 363195" width="155.862" height="2.556" transform="translate(172.664 129.017)" fill="#ced3e6"/>
            <rect id="Rectángulo_363196" data-name="Rectángulo 363196" width="79.975" height="2.554" transform="translate(172.664 129.02)" fill="#768ec1"/>
            <path id="Trazado_770459" data-name="Trazado 770459" d="M133.749,52.458h1.759V56.31h2.354v1.364h-4.113Z" transform="translate(169.855 66.619)" fill="#373f51"/>
            <rect id="Rectángulo_363197" data-name="Rectángulo 363197" width="1.759" height="5.216" transform="translate(308.201 119.077)" fill="#373f51"/>
            <path id="Trazado_770460" data-name="Trazado 770460" d="M142.813,52.458l-2.206,5.216h-1.727l-2.206-5.216h1.893L139.81,55.5l1.276-3.046Z" transform="translate(173.568 66.619)" fill="#373f51"/>
            <path id="Trazado_770461" data-name="Trazado 770461" d="M143.789,56.347v1.326h-4.336V52.459h4.238v1.326h-2.511v.611h2.206v1.267h-2.206v.686Z" transform="translate(177.099 66.62)" fill="#373f51"/>
            <path id="Trazado_770462" data-name="Trazado 770462" d="M134.874,54.788a2.145,2.145,0,1,1-2.145-2.145,2.145,2.145,0,0,1,2.145,2.145" transform="translate(165.836 66.854)" fill="#768ec1"/>
            <path id="Trazado_770463" data-name="Trazado 770463" d="M87.529,56.715c0,1.192-1.13,1.961-2.749,1.961s-2.749-.77-2.749-1.961a1.6,1.6,0,0,1,.822-1.407,1.5,1.5,0,0,1-.6-1.21c0-1.11,1.042-1.83,2.531-1.83s2.529.72,2.529,1.83a1.493,1.493,0,0,1-.6,1.21,1.6,1.6,0,0,1,.824,1.407m-2.075-.068a.675.675,0,1,0-.674.638.622.622,0,0,0,.674-.638M84.29,54.186a.491.491,0,1,0,.49-.524.477.477,0,0,0-.49.524" transform="translate(104.176 66.378)" fill="#373f51"/>
            <path id="Trazado_770464" data-name="Trazado 770464" d="M84.622,55.473c0-2.032,1.155-3.205,2.776-3.205s2.774,1.174,2.774,3.205-1.155,3.2-2.774,3.2-2.776-1.171-2.776-3.2m3.475,0c0-1.183-.3-1.55-.7-1.55s-.7.368-.7,1.55.3,1.55.7,1.55.7-.368.7-1.55" transform="translate(107.466 66.378)" fill="#373f51"/>
            <path id="Trazado_770465" data-name="Trazado 770465" d="M82.556,53.976a1.884,1.884,0,1,1-1.884-1.884,1.885,1.885,0,0,1,1.884,1.884" transform="translate(100.057 66.155)" fill="#768ec1"/>
            <path id="Trazado_770466" data-name="Trazado 770466" d="M85.109,56.274H78.068a3.641,3.641,0,0,1,3.466-2.238l.054,0,.052,0a3.646,3.646,0,0,1,3.468,2.238" transform="translate(99.143 68.623)" fill="#768ec1"/>
          </g>
        </g>
        <g id="Grupo_1028233" data-name="Grupo 1028233" transform="translate(177.856 13.207)">
          <g id="Grupo_1028232" data-name="Grupo 1028232" clip-path="url(#clip-path-8)">
            <path id="Trazado_770467" data-name="Trazado 770467" d="M98.785,40.785s-.942,5.745-5.173,6.776c-3.416.829-6.637-2.454-7.752-3.745-.266-.309-.411-.5-.411-.5a5.624,5.624,0,0,1-.633.02c-.892-.011-2.477-.193-3.1-1.289-.883-1.562,2.334-2.626,2.334-2.626s-1.65-1.473-1.237-2.545c.409-1.053,2.62-1.273,2.62-1.273s-2.381-1.546-1.584-2.894c1.2-2.027,3.664.2,3.859.325-.154-.177-3.242-3.371-1.553-3.945,1.475-.5,3.9,1.158,5.493,2.8.252.259.395.411.395.411s.1-.073.263-.184c.8-.533,3.244-1.961,4.8-.658,1.884,1.571,1.673,9.332,1.673,9.332" transform="translate(-74.27 23.612)" fill="#ea9b7a"/>
            <path id="Trazado_770468" data-name="Trazado 770468" d="M89.2,39.823a.337.337,0,0,1-.427-.49,3.017,3.017,0,0,0,.513-2.515c-.558-2.152-3.437-3.639-3.466-3.655a.337.337,0,0,1,.306-.6c.129.068,3.176,1.646,3.809,4.086a3.662,3.662,0,0,1-.6,3.058.322.322,0,0,1-.132.116" transform="translate(-69.099 28.101)" fill="#b76e6e"/>
            <path id="Trazado_770469" data-name="Trazado 770469" d="M89.616,32.952a1.043,1.043,0,0,1-.474.915,1.222,1.222,0,0,1-.218.111,2.466,2.466,0,0,1-.6.136,2.4,2.4,0,0,1,.429.352,1.176,1.176,0,0,1,.261.393.879.879,0,0,1-.15.849,4.293,4.293,0,0,1-2.8,1.126,3.561,3.561,0,0,1,1.566,1.591,1.054,1.054,0,0,1-.132,1.024,1.994,1.994,0,0,1-.726.533,10.943,10.943,0,0,1-2.726.754c-.268-.309-.411-.5-.411-.5a6,6,0,0,1-.638.023.325.325,0,0,1,.175-.073c1.244-.145,3.373-.581,3.791-1.137A.381.381,0,0,0,87,38.65a4.032,4.032,0,0,0-2.483-1.75.329.329,0,0,1-.252-.365.335.335,0,0,1,.338-.3c.831.016,3.114-.125,3.723-.937.089-.116.066-.182.052-.213a1.119,1.119,0,0,0-.508-.465,8.262,8.262,0,0,0-1.988-.747.325.325,0,0,1-.173-.107.32.32,0,0,1-.077-.3.336.336,0,0,1,.406-.25c.116.027.356.089.656.182a7.418,7.418,0,0,0,1.519.054,1.33,1.33,0,0,0,.567-.154.382.382,0,0,0,.168-.359,2.137,2.137,0,0,0-.361-1.019.329.329,0,0,1,.027-.375l.007-.009a.33.33,0,0,1,.543.034,2.826,2.826,0,0,1,.456,1.376" transform="translate(-72.453 26.691)" fill="#b76e6e"/>
            <path id="Trazado_770470" data-name="Trazado 770470" d="M87.308,43.594a9.2,9.2,0,0,1,1.573,1.155c.479.456.781.686,1.108.985.023-.039-.023.036,0,0L83.531,18.343a.332.332,0,0,0-.649.134l4.426,25.117h0" transform="translate(-72.608 9.761)" fill="#373f51"/>
            <path id="Trazado_770471" data-name="Trazado 770471" d="M89.709,40.808c-2.238,1.444-2.865.375-2.865.375l-1.135-6.433c.032-.034.064-.073.093-.111a.873.873,0,0,0,.148-.847,1.122,1.122,0,0,0-.259-.395,2,2,0,0,0-.261-.229l-.025-.141a2.438,2.438,0,0,0,.461-.116,1.222,1.222,0,0,0,.218-.111.994.994,0,0,0,.415-.543,1.665,1.665,0,0,0,1.006.449,2.238,2.238,0,0,0,.327.011Z" transform="translate(-69.395 27.758)" fill="#373f51"/>
            <path id="Trazado_770472" data-name="Trazado 770472" d="M91.432,33.292a11.08,11.08,0,0,1-2.2,1.48,3.779,3.779,0,0,1-1.943.465,1.684,1.684,0,0,1-1.217-.688c-1.065-1.43-.152-3.3.486-4.283.254.261.395.411.395.411s.1-.073.266-.184c-.552.813-1.471,2.5-.606,3.655a1,1,0,0,0,.745.42c1.185.125,3.026-1.242,3.634-1.78a.336.336,0,1,1,.445.5" transform="translate(-69.173 25.23)" fill="#b76e6e"/>
            <path id="Trazado_770473" data-name="Trazado 770473" d="M126.384,28.683v-.011s0-.014,0,0l-.009.036-.016.082-.041.2-.089.438c-.032.148-.064.3-.1.454s-.068.309-.107.465c-.143.624-.3,1.262-.47,1.9-.347,1.271-.717,2.551-1.149,3.809s-.878,2.508-1.389,3.73c-.259.611-.513,1.219-.79,1.816s-.554,1.194-.835,1.789c-.588,1.169-1.2,2.322-1.87,3.432-.157.286-.334.554-.5.831s-.334.554-.515.819c-.356.533-.7,1.078-1.081,1.594-.724,1.058-1.525,2.045-2.324,3.03-.829.953-1.668,1.9-2.567,2.769-.225.22-.445.445-.672.661l-.695.629-.347.318-.086.077.043-.039.061-.052a2.319,2.319,0,0,1,.259-.184,4.068,4.068,0,0,1,1.251-.579c.109-.027.2-.057.3-.075.048-.009.1-.016.148-.023l.127-.02a1.879,1.879,0,0,1,.247-.02,1.435,1.435,0,0,1,.2-.007c.03,0,.07.007.091,0l.07,0a1.031,1.031,0,0,1,.129.014.5.5,0,0,1,.084.011l.036.011h.016c.1.032-.1,0-.386-.125a10.223,10.223,0,0,1-1.121-.586c-.429-.257-.894-.563-1.371-.9-.956-.674-1.959-1.487-2.965-2.347s-2.013-1.791-3.017-2.756-2.011-1.954-3-2.976-1.984-2.054-2.958-3.11Q98.237,43,97.513,42.2l-1.4-1.534L85.273,48.795l.363.545.34.506.686.994q.691.981,1.4,1.945c.953,1.28,1.927,2.545,2.942,3.793s2.063,2.477,3.16,3.693c.552.606,1.11,1.21,1.689,1.811s1.169,1.192,1.782,1.784a50.355,50.355,0,0,0,3.991,3.484c.733.567,1.507,1.13,2.356,1.684a24.306,24.306,0,0,0,2.853,1.607,17.283,17.283,0,0,0,3.9,1.332l.3.059c.1.018.213.034.318.052.216.032.429.061.645.089s.465.041.7.054l.352.018c.118.007.252,0,.377,0q.381,0,.763-.02c.268-.018.543-.048.813-.082.136-.018.27-.034.409-.057s.284-.052.424-.082c.286-.061.563-.12.851-.2a11.752,11.752,0,0,0,3.3-1.537c.241-.17.477-.347.708-.529l.173-.138.157-.127.125-.111.5-.443.992-.888c.322-.3.638-.615.956-.924,1.283-1.226,2.458-2.545,3.6-3.882,1.117-1.36,2.2-2.749,3.171-4.2,1-1.432,1.9-2.924,2.753-4.426l.62-1.14c.2-.381.393-.767.59-1.151s.388-.77.567-1.16l.547-1.167a62.994,62.994,0,0,0,3.441-9.622c.436-1.641.826-3.3,1.126-4.98.15-.844.293-1.689.4-2.556.03-.216.057-.436.082-.656s.052-.44.075-.665.045-.456.066-.688l.064-.829Z" transform="translate(-69.563 23.194)" fill="#f4a338"/>
            <path id="Trazado_770474" data-name="Trazado 770474" d="M88.395,37.371a.934.934,0,1,0,.851-1.01.934.934,0,0,0-.851,1.01" transform="translate(-65.602 32.966)" fill="#c97c1f"/>
            <path id="Trazado_770475" data-name="Trazado 770475" d="M97.176,48.136a.4.4,0,0,0,.386-.3,29.988,29.988,0,0,0,.651-6.921.4.4,0,1,0-.8.023,29.641,29.641,0,0,1-.627,6.7.4.4,0,0,0,.291.486.5.5,0,0,0,.1.011" transform="translate(-54.954 38.258)" fill="#c97c1f"/>
            <path id="Trazado_770476" data-name="Trazado 770476" d="M99.37,44.947a.412.412,0,0,0,.177-.041.4.4,0,0,0,.179-.536,32.4,32.4,0,0,0-1.954-3.459.4.4,0,0,0-.627.495,33.122,33.122,0,0,1,1.868,3.321.4.4,0,0,0,.356.22" transform="translate(-54.593 38.556)" fill="#c97c1f"/>
            <path id="Trazado_770477" data-name="Trazado 770477" d="M87.352,45.7a.406.406,0,0,0,.286-.12c3.344-3.448,10.887-8.894,10.962-8.948a.4.4,0,0,0,.091-.558.4.4,0,0,0-.554-.091c-.079.054-7.682,5.543-11.073,9.041a.4.4,0,0,0,.011.563.39.39,0,0,0,.277.113" transform="translate(-67.429 32.393)" fill="#c97c1f"/>
            <path id="Trazado_770478" data-name="Trazado 770478" d="M91.032,42.077a.393.393,0,0,0,.257-.093.4.4,0,0,0,.05-.561L87.3,36.582a.4.4,0,0,0-.615.511l4.036,4.842a.4.4,0,0,0,.306.143" transform="translate(-67.881 33.067)" fill="#c97c1f"/>
            <path id="Trazado_770479" data-name="Trazado 770479" d="M119.028,103.727,124.437,71.8l.443-2.61-15.572-5.5-.888-.313-3.709-1.307s-.3,1.364-.758,3.714c-.054.281-.113.581-.173.892-1.462,7.55-4.2,23.11-4.946,37.046Z" transform="translate(-52.341 65.627)" fill="#373f51"/>
            <path id="Trazado_770480" data-name="Trazado 770480" d="M106.993,98.834c2.34-12.73,5.348-31.33,5.523-32.413a.421.421,0,1,0-.831-.136c-.043.266-3.164,19.578-5.55,32.549Z" transform="translate(-43.069 70.521)" fill="#585859"/>
            <path id="Trazado_770481" data-name="Trazado 770481" d="M147.284,62.413s1.171,11.118-1.357,17.308-35.275,3.005-43.619-2.567c-3.423-2.284,3.866-23.369,3.866-23.369Z" transform="translate(-49.092 55.098)" fill="#373f51"/>
            <path id="Trazado_770482" data-name="Trazado 770482" d="M101.013,71.322a9.505,9.505,0,0,0,1.451-.372,9.708,9.708,0,0,0,2.152-1.044,11.275,11.275,0,0,0,1.925-1.569c3.609-3.641,4.672-9.146,4.722-9.416a.42.42,0,0,0-.826-.154c-.011.066-1.119,5.791-4.783,9.257a10.235,10.235,0,0,1-1.5,1.178,8.992,8.992,0,0,1-2.057.981,8.9,8.9,0,0,1-.915.245c-.054.284-.113.581-.173.894" transform="translate(-49.574 60.989)" fill="#585859"/>
            <path id="Trazado_770483" data-name="Trazado 770483" d="M109.914,77.786a.412.412,0,0,0,.4.424l0,0a.415.415,0,0,0,.44-.386c.075-1.521.163-3.078.261-4.631.018-.275.034-.549.054-.822.329-5.082.749-10.07,1.067-13.592.025-.284.05-.561.075-.826.07-.772.134-1.457.188-2.038-.279-.043-.558-.089-.833-.134-.054.579-.118,1.271-.188,2.052-.027.266-.05.543-.077.826-.313,3.491-.729,8.437-1.06,13.488-.02.277-.036.558-.057.835-.1,1.612-.193,3.228-.27,4.8" transform="translate(-38.27 57.635)" fill="#585859"/>
            <path id="Trazado_770484" data-name="Trazado 770484" d="M109.517,72.142a10.967,10.967,0,0,0,1.469.563,8.54,8.54,0,0,0,.831.209,6.29,6.29,0,0,0,.794.1,2.913,2.913,0,0,0,1.412-.222,1.716,1.716,0,0,0,.956-1.283c.306-1.569.947-8.04,1.38-12.619.027-.281.052-.556.077-.824.068-.731.129-1.4.182-1.964-.277-.034-.556-.068-.835-.1-.052.57-.114,1.244-.186,1.986-.025.263-.05.54-.075.822-.434,4.567-1.074,11.03-1.369,12.551a.909.909,0,0,1-.506.708,2.959,2.959,0,0,1-1.777.023c-.281-.061-.565-.141-.826-.225a10.323,10.323,0,0,1-1.155-.452.424.424,0,0,0-.561.182.4.4,0,0,0,.191.545" transform="translate(-39.071 57.915)" fill="#585859"/>
            <path id="Trazado_770485" data-name="Trazado 770485" d="M131.143,105.453c1.3-11.849,2.794-27.7,3.639-36.891.03-.288.054-.565.077-.84.375-4.052.6-6.606.6-6.606-2.009-.838-5.652-.261-9.529.84-.281.077-.563.157-.844.243A116.085,116.085,0,0,0,110.9,67.747v37.706Z" transform="translate(-37.021 63.901)" fill="#373f51"/>
            <path id="Trazado_770486" data-name="Trazado 770486" d="M119.417,98.832c1.119-13.173,2.442-32.2,2.463-32.454a.421.421,0,0,0-.84-.059c-.018.252-1.348,19.351-2.467,32.513Z" transform="translate(-27.273 70.522)" fill="#585859"/>
            <path id="Trazado_770487" data-name="Trazado 770487" d="M116.131,58.921a22.016,22.016,0,0,0,2.322,6.19,13.578,13.578,0,0,0,4.324,4.794,9.849,9.849,0,0,0,5.371,1.571c.027-.288.052-.567.077-.842a9.046,9.046,0,0,1-4.992-1.435,12.571,12.571,0,0,1-3.936-4.331,21.653,21.653,0,0,1-2.34-6.1.42.42,0,1,0-.826.152" transform="translate(-30.384 60.989)" fill="#585859"/>
            <path id="Trazado_770488" data-name="Trazado 770488" d="M101.289,100.1c9.064,8.462,30.5,12.961,47.022,4.914,1.814-4.953,3.807-22.629,4.34-27.914.109-1.053.193-2.1.263-3.158a138.668,138.668,0,0,0,.016-15.517l-.041-.872c-.216-4.395-.538-8.953-.844-13.79-.6-9.577-3.8-15.479-9.352-16.362a22.716,22.716,0,0,1-6.131-1.848c-.184-.089-.359-.173-.527-.261a17.414,17.414,0,0,1-2.806-1.734H120.842a9.456,9.456,0,0,1-3.854,3.223c-.161.075-.322.148-.486.22-4.4,1.9-9.525,1.519-10.583,6.823-.663,3.328,1.886,10.176,1.618,24.064q-.027,1.529-.107,3.169-.072,1.539-.2,3.182c-.075,1.019-.166,2.075-.275,3.155q-.14,1.423-.32,2.917c-.125,1.024-.261,2.07-.418,3.146-.824,5.77-3.035,19.22-4.935,26.64" transform="translate(-49.223 16.711)" fill="#f4a338"/>
            <path id="Trazado_770489" data-name="Trazado 770489" d="M120.2,87.636a.362.362,0,0,1-.1-.014.372.372,0,0,1-.261-.456c6.88-25.226,5.491-50.865,5.475-51.122a.372.372,0,1,1,.742-.043c.016.257,1.41,26.018-5.5,51.36a.373.373,0,0,1-.359.275" transform="translate(-25.679 32.068)" fill="#c97c1f"/>
            <path id="Trazado_770490" data-name="Trazado 770490" d="M103.772,56.823a.4.4,0,0,0,.395-.354c.822-7.3.831-21.81.831-21.955a.4.4,0,1,0-.8,0c0,.145-.011,14.614-.829,21.864a.4.4,0,0,0,.352.443l.048,0" transform="translate(-46.58 30.117)" fill="#c97c1f"/>
            <path id="Trazado_770491" data-name="Trazado 770491" d="M111.024,56.79a.934.934,0,1,0,.851-1.01.934.934,0,0,0-.851,1.01" transform="translate(-36.864 57.627)" fill="#c97c1f"/>
            <path id="Trazado_770492" data-name="Trazado 770492" d="M110.958,58.781a.934.934,0,1,0,.851-1.01.934.934,0,0,0-.851,1.01" transform="translate(-36.948 60.155)" fill="#c97c1f"/>
            <path id="Trazado_770493" data-name="Trazado 770493" d="M107.092,41.756c-2.431-2.824-1.519-9.112-1.48-9.377a.4.4,0,0,1,.395-.34h8.249a.4.4,0,0,1,.395.34c.041.266.951,6.553-1.48,9.377a4.091,4.091,0,0,1-6.079,0m-.733-8.919c-.152,1.328-.558,6.2,1.339,8.4a3.294,3.294,0,0,0,4.867,0c1.9-2.2,1.491-7.071,1.339-8.4Z" transform="translate(-43.987 27.48)" fill="#c97c1f"/>
            <path id="Trazado_770494" data-name="Trazado 770494" d="M129.355,14.244C127.042,12.75,119.774,12,119.774,12s-1.2-3.142-2.542-4.041c-3.064-2.043-3.444,2.1-3.444,2.1S110.8,5.863,108.1,7.059s.749,5.089.749,5.089-4.043-.749-3.593,2.694,4.34,4.937,4.34,4.937a7.558,7.558,0,0,0-.6,5.089c.6,3.144,1.945,3.291,1.945,3.291l16.761,1.5s3.441,0,4.34-4.34-2.093-6.136-2.093-6.136,1.943-3.294-.6-4.939" transform="translate(-44.227 -4.515)" fill="#373f51"/>
            <path id="Trazado_770495" data-name="Trazado 770495" d="M109.822,26.976v3.148a9.746,9.746,0,0,0,1.115.781c5.468,3.285,11.366-.781,11.366-.781V19.208L111.311,26.05Z" transform="translate(-38.387 11.187)" fill="#ea9b7a"/>
            <path id="Trazado_770496" data-name="Trazado 770496" d="M109.822,24.105v3.239a9.746,9.746,0,0,0,1.115.781c4.656-1.843,8.045-6.728,8.045-6.728l-7.67,1.873Z" transform="translate(-38.387 13.967)" fill="#373f51"/>
            <path id="Trazado_770497" data-name="Trazado 770497" d="M119.331,22.608a6.23,6.23,0,0,1,4.69,4.828c-3.584,3.75-6.755,7-11.883,7.952V27.854a13.279,13.279,0,0,0,7.193-5.246" transform="translate(-35.445 15.505)" fill="#f4a338"/>
            <path id="Trazado_770498" data-name="Trazado 770498" d="M112.324,23.088A6.779,6.779,0,0,0,107.761,28c3.312,4.031,5.082,5.548,9.936,6.78V27.244s-2.706-.043-5.373-4.156" transform="translate(-41.004 16.114)" fill="#f4a338"/>
            <path id="Trazado_770499" data-name="Trazado 770499" d="M108.955,73.953l2.129,5.144.958,2.311,2.7,6.528,1.305-2.522.463-.892,1.046-2.02.463-.892,1.046-2.023.461-.892,1.049-2.02v0l.463-.892.983-1.9-.02-.2-.154-1.507L121.5,68.75l-.152-1.507L121,63.827l-.152-1.507L120.5,58.9l-.152-1.507L120,53.975l-.154-1.507-.347-3.416-.154-1.507L119,44.128l-.154-1.51-.347-3.414-.154-1.51-.347-3.416-.152-1.507-.361-3.532-2.61-.1-.075.588-.159,1.2-.359,2.71-.157,1.2-.359,2.71-.157,1.2-.359,2.71-.159,1.2-.356,2.71-.159,1.2-.356,2.713-.159,1.2-.359,2.71-.157,1.2-.359,2.71-.157,1.2-.359,2.71-.159,1.2-.356,2.71-.159,1.2-.356,2.71-.159,1.2-.359,2.71-.157,1.2Z" transform="translate(-39.487 23.796)" fill="#373f51"/>
            <path id="Trazado_770500" data-name="Trazado 770500" d="M111.457,30.592l3.357,3.357-.152-1.507L111.616,29.4Z" transform="translate(-36.31 24.125)" fill="#585859"/>
            <path id="Trazado_770501" data-name="Trazado 770501" d="M111.23,32.313,115.6,36.69l-.152-1.51-4.063-4.063Z" transform="translate(-36.599 26.311)" fill="#585859"/>
            <path id="Trazado_770502" data-name="Trazado 770502" d="M111,34.035l5.391,5.391-.152-1.507-5.08-5.08Z" transform="translate(-36.887 28.497)" fill="#585859"/>
            <path id="Trazado_770503" data-name="Trazado 770503" d="M110.775,35.756l6.408,6.408-.152-1.507-6.1-6.1Z" transform="translate(-37.176 30.683)" fill="#585859"/>
            <path id="Trazado_770504" data-name="Trazado 770504" d="M110.548,37.477l7.425,7.425-.152-1.507-7.114-7.114Z" transform="translate(-37.464 32.869)" fill="#585859"/>
            <path id="Trazado_770505" data-name="Trazado 770505" d="M110.321,39.2l8.442,8.442-.152-1.507L110.48,38Z" transform="translate(-37.753 35.056)" fill="#585859"/>
            <path id="Trazado_770506" data-name="Trazado 770506" d="M110.094,40.92l9.459,9.459-.152-1.507-9.148-9.148Z" transform="translate(-38.041 37.241)" fill="#585859"/>
            <path id="Trazado_770507" data-name="Trazado 770507" d="M109.867,42.644l10.476,10.478-.152-1.51L110.026,41.445Z" transform="translate(-38.33 39.427)" fill="#585859"/>
            <path id="Trazado_770508" data-name="Trazado 770508" d="M109.64,44.363l11.5,11.5-.154-1.507L109.8,43.167Z" transform="translate(-38.618 41.614)" fill="#585859"/>
            <path id="Trazado_770509" data-name="Trazado 770509" d="M109.412,46.087,120,56.669l.463-.892L109.571,44.888Z" transform="translate(-38.907 43.799)" fill="#585859"/>
            <path id="Trazado_770510" data-name="Trazado 770510" d="M109.185,47.806l9.591,9.591.461-.892-9.892-9.895Z" transform="translate(-39.195 45.986)" fill="#585859"/>
            <path id="Trazado_770511" data-name="Trazado 770511" d="M108.958,49.53l8.6,8.6.461-.892-8.9-8.9Z" transform="translate(-39.484 48.172)" fill="#585859"/>
            <path id="Trazado_770512" data-name="Trazado 770512" d="M109.893,51.146l.956,2.311,4.009,4.006.463-.892Z" transform="translate(-38.296 51.747)" fill="#585859"/>
            <path id="Trazado_770513" data-name="Trazado 770513" d="M114.3,29.24,113,31.171l-1.312-2.034-.229,1.737,1.521,1.548,1.455-1.836Z" transform="translate(-36.307 23.797)" fill="#585859"/>
            <path id="Trazado_770514" data-name="Trazado 770514" d="M117.487,30.172l-3.482,5.176-3.337-5.176,3.337-4.324Z" transform="translate(-37.312 19.619)" fill="#373f51"/>
            <path id="Trazado_770515" data-name="Trazado 770515" d="M123.422,35.351a.4.4,0,0,0,.25-.086c3.446-2.749,6.383-9.854,6.506-10.156a.4.4,0,1,0-.738-.3c-.03.07-2.794,6.76-5.95,9.566l-5.244-7.123a.393.393,0,0,0-.325-.163.4.4,0,0,0-.322.17L112.706,34.2c-.747-1.348-2.71-4.93-4.361-8.251a.4.4,0,0,0-.715.356c2.084,4.19,4.662,8.794,4.687,8.839a.4.4,0,0,0,.676.034l4.939-7.012,5.166,7.019a.411.411,0,0,0,.27.161l.052,0" transform="translate(-41.223 17.982)" fill="#c97c1f"/>
            <path id="Trazado_770516" data-name="Trazado 770516" d="M112.366,27.468a.4.4,0,0,0,.4-.4V25.287a.4.4,0,1,0-.8,0v1.782a.4.4,0,0,0,.4.4" transform="translate(-35.664 18.399)" fill="#c97c1f"/>
            <path id="Trazado_770517" data-name="Trazado 770517" d="M109.892,17.008s-1.789-2.113-2.8,0-.234,6.39,2.488,5.689Z" transform="translate(-42.392 7.201)" fill="#b76e6e"/>
            <path id="Trazado_770518" data-name="Trazado 770518" d="M107.248,30.8s-.009,6.51,6.762,6.494c6.728-.011,11.316-5.3,11.554-5.541l.007-.007.073-1.369.384-7.1.2-3.8s.86-6.835-5.634-8.081c-4.746-.91-9.2-.123-11.443,2.352-.073.082-.143.163-.209.247a5.842,5.842,0,0,0-1.278,3.182L107.459,24l-.052,1.671Z" transform="translate(-41.655 0.813)" fill="#ea9b7a"/>
            <path id="Trazado_770519" data-name="Trazado 770519" d="M110.9,15.686s2.84,2.116,4.533.767-2.25-2.819-3.546-2.708-1.832,1.462-.987,1.941" transform="translate(-37.533 4.242)" fill="#373f51"/>
            <path id="Trazado_770520" data-name="Trazado 770520" d="M112.079,15.686s-2.84,2.116-4.533.767,2.25-2.819,3.546-2.708,1.832,1.462.987,1.941" transform="translate(-41.804 4.242)" fill="#373f51"/>
            <path id="Trazado_770521" data-name="Trazado 770521" d="M110.832,20.763a2.811,2.811,0,0,0,1.936-.622.3.3,0,0,0-.39-.454,2.076,2.076,0,0,1-2.082.325.3.3,0,0,0-.395.152.3.3,0,0,0,.152.395,2.448,2.448,0,0,0,.779.2" transform="translate(-38.318 11.704)" fill="#b76e6e"/>
            <path id="Trazado_770522" data-name="Trazado 770522" d="M115.068,18.074a30.641,30.641,0,0,1-6.217.645,3.156,3.156,0,0,0,6.217-.645" transform="translate(-39.62 9.747)" fill="#fff"/>
            <path id="Trazado_770523" data-name="Trazado 770523" d="M108,14c1.062-.375,1.83-.025,3.484.7,2.393,1.051,5.069.1,7.432-1.1s3.784.472,2.978,1.575-.717,2,.175,3.4-1.689,2.059-.263,3.162a1.46,1.46,0,0,1,.322,1.8.975.975,0,0,0,1.1,1.292c.772-.193,1.857-1.559,1.857-1.559l.2-3.8s.86-6.833-5.636-8.079c-4.744-.913-9.2-.125-11.441,2.354-.073.077-.143.161-.209.243" transform="translate(-40.705 0.813)" fill="#373f51"/>
            <path id="Trazado_770524" data-name="Trazado 770524" d="M111.231,17.6c0,.474.976.858,2.181.858s2.179-.384,2.179-.858-.976-.858-2.179-.858-2.181.384-2.181.858" transform="translate(-36.597 8.055)" fill="#b76e6e"/>
            <path id="Trazado_770525" data-name="Trazado 770525" d="M107.318,18.433c.168.016.345.025.524.025,1.205,0,2.181-.384,2.181-.858s-.976-.858-2.181-.858c-.161,0-.32.007-.472.02Z" transform="translate(-41.566 8.055)" fill="#b76e6e"/>
            <path id="Trazado_770526" data-name="Trazado 770526" d="M110.815,16.63c0,.651.3,1.178.661,1.178s.658-.527.658-1.178-.3-1.178-.658-1.178-.661.527-.661,1.178" transform="translate(-37.125 6.417)" fill="#373f51"/>
            <path id="Trazado_770527" data-name="Trazado 770527" d="M107.934,16.63c0,.651.293,1.178.658,1.178s.658-.527.658-1.178-.3-1.178-.658-1.178-.658.527-.658,1.178" transform="translate(-40.784 6.417)" fill="#373f51"/>
            <path id="Trazado_770528" data-name="Trazado 770528" d="M114.383,19a5.93,5.93,0,0,0,2.12,2.642l.007-.007.073-1.369a4.661,4.661,0,0,1-2.2-1.267" transform="translate(-32.594 10.926)" fill="#373f51"/>
            <path id="Trazado_770529" data-name="Trazado 770529" d="M114.908,18.019s2.6-3.5,4.51-.749c1.571,2.263-1.4,8.165-4.51,6.143Z" transform="translate(-31.928 7.389)" fill="#ea9b7a"/>
            <path id="Trazado_770530" data-name="Trazado 770530" d="M115.215,21.364a.268.268,0,0,0,.266-.238,4.475,4.475,0,0,1,2.6-3.607.268.268,0,0,0-.2-.5,5.009,5.009,0,0,0-2.933,4.045.265.265,0,0,0,.236.3l.03,0" transform="translate(-31.878 8.386)" fill="#373f51"/>
            <path id="Trazado_770531" data-name="Trazado 770531" d="M117.231,18.85a.271.271,0,0,0,.209-.1.267.267,0,0,0-.039-.375,2.577,2.577,0,0,0-1.873-.638.267.267,0,1,0,.134.518c.461-.118,1.167.347,1.4.536a.275.275,0,0,0,.168.059" transform="translate(-31.395 9.275)" fill="#373f51"/>
            <path id="Trazado_770532" data-name="Trazado 770532" d="M111.1,20.833a.268.268,0,0,0,0-.536,1.839,1.839,0,0,1-1.6-.745c1.067-2.2,2.129-4.422,2.141-4.445a.267.267,0,0,0-.127-.356.264.264,0,0,0-.356.125c-.011.023-1.115,2.329-2.2,4.569a.267.267,0,0,0,0,.232,2.29,2.29,0,0,0,2.145,1.155" transform="translate(-39.522 5.492)" fill="#373f51"/>
            <path id="Trazado_770533" data-name="Trazado 770533" d="M140.447,39.095s3.607,3.641,7.166,2.222c2.874-1.149,3.512-5.146,3.65-6.64.034-.359.039-.572.039-.572a5.454,5.454,0,0,0,.465-.309c.633-.463,1.675-1.4,1.562-2.5-.161-1.571-3.012-.7-3.012-.7s.431-1.9-.411-2.454-2.529.422-2.529.422.922-2.324-.338-2.885c-1.9-.842-2.524,2.013-2.6,2.2.023-.207.924-8.966-.581-8.517-1.312.393-2.522,7.713-2.828,9.7l-.075.5s-.1,0-.281,0c-.844.025-3.328.247-3.782,1.977-.549,2.088,3.559,7.548,3.559,7.548" transform="translate(-4.079 11.367)" fill="#ea9b7a"/>
            <path id="Trazado_770534" data-name="Trazado 770534" d="M143.438,26.834a3.124,3.124,0,0,0-.311,1.941.922.922,0,0,0,.615.667,1.769,1.769,0,0,0,.794.014,9.731,9.731,0,0,0,2.34-.849c.034-.361.039-.572.039-.572a5.453,5.453,0,0,0,.465-.309.316.316,0,0,0-.161.036c-.965.533-2.715,1.3-3.3,1.117a.337.337,0,0,1-.227-.266,3.553,3.553,0,0,1,.89-2.52.3.3,0,0,0-.4-.431c-.588.434-2.3,1.5-3.148,1.226-.125-.039-.141-.1-.148-.127a.986.986,0,0,1,.127-.592,7.382,7.382,0,0,1,1.046-1.55.286.286,0,0,0,.07-.163.291.291,0,0,0-.1-.254.3.3,0,0,0-.42.03,8.132,8.132,0,0,0-1.065,1.539,2.556,2.556,0,0,0-.247.735,1.009,1.009,0,0,0,.014.415.767.767,0,0,0,.54.531,3.744,3.744,0,0,0,2.579-.617" transform="translate(0.307 17.437)" fill="#b76e6e"/>
            <path id="Trazado_770535" data-name="Trazado 770535" d="M139.9,24.309a.291.291,0,0,1,.211.254,1.9,1.9,0,0,0,.259.917.347.347,0,0,0,.3.17,1.177,1.177,0,0,0,.488-.179,8.761,8.761,0,0,0,1.58-1.312.292.292,0,0,1-.07.163,7.369,7.369,0,0,0-1.046,1.548q-.089.058-.177.109a2.249,2.249,0,0,1-.536.229,1.034,1.034,0,0,1-.213.032.92.92,0,0,1-.806-.415,2.488,2.488,0,0,1-.375-1.219.29.29,0,0,1,.372-.3l.009,0" transform="translate(-0.674 17.474)" fill="#b76e6e"/>
            <path id="Trazado_770536" data-name="Trazado 770536" d="M137.969,28.29a9.592,9.592,0,0,0,2.336-.064,3.319,3.319,0,0,0,1.632-.656,1.486,1.486,0,0,0,.522-1.112c.034-1.569-1.573-2.445-2.533-2.826-.05.316-.075.5-.075.5s-.107,0-.284,0c.81.3,2.329,1.042,2.3,2.313a.893.893,0,0,1-.32.681c-.788.692-2.806.651-3.516.577a.3.3,0,0,0-.061.588" transform="translate(-2.977 16.805)" fill="#b76e6e"/>
            <path id="Trazado_770537" data-name="Trazado 770537" d="M141.952,32.049a.3.3,0,0,0,.057-.567,2.661,2.661,0,0,1-1.65-1.544c-.7-1.83.608-4.363.622-4.39a.3.3,0,0,0-.524-.272c-.059.113-1.441,2.8-.651,4.874a3.229,3.229,0,0,0,2,1.884.271.271,0,0,0,.152.016" transform="translate(-0.618 18.689)" fill="#b76e6e"/>
            <path id="Trazado_770538" data-name="Trazado 770538" d="M126.907,26.176l6.163,5.353q1.478,1.379,2.967,2.738c.987.91,1.975,1.818,2.967,2.71s1.979,1.78,2.969,2.649,1.982,1.718,2.962,2.533,1.954,1.609,2.869,2.29c.454.338.9.647,1.253.881l.238.152.1.061a.182.182,0,0,1,.036.03.585.585,0,0,1,.077.082c.032.041.027.073.068.107a.453.453,0,0,0,.3.045,4.642,4.642,0,0,0,1.727-.67,14.848,14.848,0,0,0,2.368-1.771,32.132,32.132,0,0,0,2.436-2.442A60.655,60.655,0,0,0,161,35c1.464-2.111,2.5-3.741,3.82-5.988a9.891,9.891,0,0,0,8.98,3.432,80.377,80.377,0,0,1-3.473,8.015,62.235,62.235,0,0,1-4.572,7.766A39.653,39.653,0,0,1,162.795,52a27.91,27.91,0,0,1-3.863,3.607,19.3,19.3,0,0,1-2.515,1.632,16.375,16.375,0,0,1-3.121,1.3,14.212,14.212,0,0,1-3.766.595,13.615,13.615,0,0,1-3.991-.508,14.437,14.437,0,0,1-1.848-.654l-.427-.193-.361-.177c-.125-.059-.227-.116-.338-.173s-.227-.116-.325-.17c-.835-.452-1.548-.888-2.231-1.319-1.357-.865-2.579-1.721-3.773-2.585s-2.331-1.748-3.459-2.631-2.234-1.768-3.321-2.672-2.17-1.8-3.237-2.719S124.1,43.5,123.05,42.574s-2.082-1.868-3.11-2.815L118.4,38.332l-.765-.724c-.259-.245-.5-.481-.774-.745Z" transform="translate(-29.446 20.036)" fill="#f4a338"/>
            <path id="Trazado_770539" data-name="Trazado 770539" d="M130.437,42.7a.377.377,0,0,1-.213-.068c-4.068-2.847-11.3-8.848-11.375-8.907a.372.372,0,1,1,.474-.572c.073.059,7.284,6.04,11.327,8.871a.371.371,0,0,1,.091.518.367.367,0,0,1-.3.159" transform="translate(-27.095 28.79)" fill="#c97c1f"/>
            <path id="Trazado_770540" data-name="Trazado 770540" d="M121.984,35.1l-.057,0-2.865-.415a.372.372,0,1,1,.107-.735l2.865.415a.372.372,0,0,1-.05.74" transform="translate(-27.057 29.9)" fill="#c97c1f"/>
            <path id="Trazado_770541" data-name="Trazado 770541" d="M146.147,33.738a.379.379,0,0,0-.257-.706c-5.4,1.176-8.086-3.972-8.111-4.025a.38.38,0,0,0-.508-.166l0,0a.379.379,0,0,0-.163.506c.03.059,2.987,5.72,8.948,4.424a.437.437,0,0,0,.1-.036" transform="translate(-3.791 23.369)" fill="#c97c1f"/>
            <path id="Trazado_770542" data-name="Trazado 770542" d="M140.153,33.741a.364.364,0,0,0,.173-.186l1.777-4.149a.378.378,0,1,0-.695-.3l-1.777,4.147a.379.379,0,0,0,.522.486" transform="translate(-0.571 23.467)" fill="#c97c1f"/>
            <path id="Trazado_770543" data-name="Trazado 770543" d="M138.483,29.8a.656.656,0,1,0,.279-.885.655.655,0,0,0-.279.885" transform="translate(-2.083 23.419)" fill="#c97c1f"/>
            <path id="Trazado_770544" data-name="Trazado 770544" d="M131.2,39.426a.378.378,0,0,0,.2-.275,16.283,16.283,0,0,1,1.105-3.768.379.379,0,0,0-.676-.343,16.757,16.757,0,0,0-1.176,3.988.376.376,0,0,0,.311.434.364.364,0,0,0,.236-.036" transform="translate(-11.934 31.031)" fill="#c97c1f"/>
            <path id="Trazado_770545" data-name="Trazado 770545" d="M133.07,38.385a.355.355,0,0,0,.068-.045.378.378,0,0,0,.048-.533,6.946,6.946,0,0,1-1.317-2.52.379.379,0,0,0-.742.15,7.646,7.646,0,0,0,1.478,2.856.381.381,0,0,0,.465.093" transform="translate(-11.339 31.221)" fill="#c97c1f"/>
          </g>
        </g>
        <g id="Grupo_1028238" data-name="Grupo 1028238">
          <g id="Grupo_1028237" data-name="Grupo 1028237" clip-path="url(#clip-path)">
            <path id="Trazado_770547" data-name="Trazado 770547" d="M172.269,111.114c0,2.894-38.564,5.241-86.136,5.241S0,114.009,0,111.114s38.564-5.241,86.133-5.241,86.136,2.347,86.136,5.241" transform="translate(0 134.454)" fill="#b0c0d2"/>
            <path id="Trazado_770548" data-name="Trazado 770548" d="M42.958,46.675l8.7,31.813-3.1-3.575a15.747,15.747,0,0,0,3.95,1.41,28.444,28.444,0,0,0,4.753.608c1.677.089,3.425.073,5.214,0s3.614-.209,5.468-.365l.011,0a4.973,4.973,0,0,1,1.205,9.865c-1.914.306-3.859.595-5.854.826s-4.043.4-6.161.449a39.392,39.392,0,0,1-6.581-.361,27.346,27.346,0,0,1-6.91-1.909,5.42,5.42,0,0,1-2.992-3.246l-.109-.329L30.114,50.57a6.713,6.713,0,0,1,12.737-4.249c.036.111.075.243.107.354" transform="translate(37.803 52.997)" fill="#ea9b7a"/>
            <path id="Trazado_770549" data-name="Trazado 770549" d="M63.2,105.2a1.179,1.179,0,0,1-.39-.068L17.229,88.693a1.148,1.148,0,1,1,.779-2.161l45.581,16.432a1.15,1.15,0,0,1-.39,2.231" transform="translate(20.913 109.805)" fill="#c97c1f"/>
            <path id="Trazado_770550" data-name="Trazado 770550" d="M16.784,105.347a1.15,1.15,0,0,1-.39-2.231l46.119-16.7a1.149,1.149,0,1,1,.783,2.161l-46.121,16.7a1.169,1.169,0,0,1-.39.068" transform="translate(19.855 109.654)" fill="#c97c1f"/>
            <path id="Trazado_770551" data-name="Trazado 770551" d="M70.535,145.2a1.966,1.966,0,0,1-1.948-1.707l-8.233-61.47H25.9l-8.1,61.466a1.967,1.967,0,1,1-3.9-.513L22.228,79.8a1.968,1.968,0,0,1,1.95-1.709h37.9a1.968,1.968,0,0,1,1.95,1.7l8.46,63.177a1.964,1.964,0,0,1-1.689,2.211,2.084,2.084,0,0,1-.263.018" transform="translate(17.63 99.17)" fill="#f4a338"/>
            <path id="Trazado_770552" data-name="Trazado 770552" d="M54.715,116.9H30.1c-7.8,0-16.148-4.268-17.345-11.972a146.208,146.208,0,0,1-1.55-29.439A35.848,35.848,0,0,1,24.8,49.078s4.914,21.426-1.267,51C25.894,111.313,54.715,116.9,54.715,116.9" transform="translate(14.015 62.327)" fill="#f4a338"/>
            <path id="Trazado_770553" data-name="Trazado 770553" d="M40.74,26.891s-2.928-7.05-10.673-5.723c-5.414.928-7.72,7.672-7.4,18.087C23.13,54.414,18,63.548,18,63.548L24.81,65.1S42.132,39.11,40.74,26.891" transform="translate(22.862 26.671)" fill="#373f51"/>
            <path id="Trazado_770554" data-name="Trazado 770554" d="M95.019,136.647H84.026s-2.545-12.2-3.4-19.045-1.3-23.065-1.3-23.065-8.762,2.847-27.1,1.773C11.6,93.937,27,64.083,27,64.083c1.371,1.9,9.781.581,15.531,1.487,17.642,1.693,32.942,8.617,42.124,12.58a45.628,45.628,0,0,1,5.9,3.024c2.215,1.364,3.6,5.5,4.433,10.95,2.511,16.366.029,44.523.029,44.523" transform="translate(30.655 81.383)" fill="#373f51"/>
            <path id="Trazado_770555" data-name="Trazado 770555" d="M83.777,130.5a.4.4,0,0,1-.386-.316c-1.584-7.85-2.118-17.619-2.545-25.471-.356-6.51-.69-12.657-1.528-13.4-.676-.6-3.489-.132-7.048.461-7.082,1.176-17.785,2.951-29.589.207-6.429-1.5-11.155-4.619-14.046-9.284-4.989-8.04-2.715-18.012-2.69-18.11a.393.393,0,1,1,.765.179c-.023.1-2.22,9.763,2.6,17.522,2.778,4.476,7.339,7.48,13.554,8.925,11.649,2.71,22.259.949,29.28-.216,4.2-.7,6.742-1.119,7.7-.275,1.035.915,1.326,5.412,1.791,13.944.427,7.825.958,17.565,2.531,25.358a.393.393,0,0,1-.306.463.329.329,0,0,1-.079.009" transform="translate(32.265 81.646)" fill="#585859"/>
            <path id="Trazado_770556" data-name="Trazado 770556" d="M62.516,94.138h-.009l-12.224-.263a.393.393,0,0,1-.386-.4.387.387,0,0,1,.4-.384l12.226.261a.394.394,0,0,1-.009.788" transform="translate(63.367 118.219)" fill="#585859"/>
            <path id="Trazado_770557" data-name="Trazado 770557" d="M60.865,110.135H53.106l-1.5-9.1-.817-4.98h9.64l.152,4.98Z" transform="translate(64.505 121.98)" fill="#ea9b7a"/>
            <path id="Trazado_770558" data-name="Trazado 770558" d="M60.408,107.349H52.649l-1.115-6.778-.381-2.327h8.975l.075,2.413Z" transform="translate(64.962 124.766)" fill="#f4a338"/>
            <path id="Trazado_770559" data-name="Trazado 770559" d="M60.2,100.656l-8.669-.086-.381-2.324h8.975Z" transform="translate(64.962 124.767)" fill="#c97c1f"/>
            <path id="Trazado_770560" data-name="Trazado 770560" d="M80.316,115.717H50.966a4.088,4.088,0,0,1-.384-1.63c-.184-2.483.606-6.444.994-8.944.048-.291.089-.563.12-.81a8.989,8.989,0,0,0,.086-1.019,1.5,1.5,0,0,1,1.8-1.691c2.971,2.915,6.333-1.453,8.3-.02,0,0,.079.059.259.2s.415.331.763.624c.5.418,1.2,1.026,2.154,1.88,2.329,2.1,6.292,3.48,9.665,4.892q.647.269,1.2.538c.281.136.547.272.8.406,2.758,1.489,3.634,2.912,3.834,3.947a2.292,2.292,0,0,1-.241,1.63" transform="translate(64.203 128.653)" fill="#5573c6"/>
            <path id="Trazado_770561" data-name="Trazado 770561" d="M71.932,109.864c-.756.6-2.438,1.8-3.786,1.8a1.54,1.54,0,0,1-.177-.007c-.951-.079-4.449-1.8-7.3-3.362-1.63-.9-3.119-1.777-4.19-2.486-1.757-1.158-2.061-1.6-2.131-1.907-.257-1.158,1.659-1.966,3-2.383.166.129.415.331.765.624-1.668.454-3.039,1.167-2.976,1.573.163.343,1.9,1.666,6.054,3.941a37.406,37.406,0,0,0,6.842,3.192,5.845,5.845,0,0,0,3.1-1.4c.281.134.547.27.8.406" transform="translate(68.994 128.931)" fill="#3a67cc"/>
            <path id="Trazado_770562" data-name="Trazado 770562" d="M80.3,108.566H50.953a4.1,4.1,0,0,1-.386-1.63H80.542a2.292,2.292,0,0,1-.241,1.63" transform="translate(64.218 135.804)" fill="#3a67cc"/>
            <path id="Trazado_770563" data-name="Trazado 770563" d="M53.391,114.023h-.872a6.444,6.444,0,0,0,1.578-4.7,8.273,8.273,0,0,0-3.092-5.875c.048-.291.089-.563.12-.81a9,9,0,0,1,3.671,6.649,7.135,7.135,0,0,1-1.405,4.735" transform="translate(64.774 130.347)" fill="#3a67cc"/>
            <path id="Trazado_770564" data-name="Trazado 770564" d="M57,104.185a.484.484,0,0,1-.116-.953l1.834-.454a.483.483,0,1,1,.232.938l-1.834.456a.5.5,0,0,1-.116.014" transform="translate(71.769 130.504)" fill="#fff"/>
            <path id="Trazado_770565" data-name="Trazado 770565" d="M56.194,103.513a.484.484,0,0,1-.116-.953l1.834-.454a.483.483,0,1,1,.232.938l-1.834.456a.5.5,0,0,1-.116.014" transform="translate(70.749 129.65)" fill="#fff"/>
            <path id="Trazado_770566" data-name="Trazado 770566" d="M57.8,104.655a.484.484,0,0,1-.116-.953l1.834-.454a.483.483,0,1,1,.232.938l-1.832.456a.538.538,0,0,1-.118.014" transform="translate(72.794 131.101)" fill="#fff"/>
            <path id="Trazado_770567" data-name="Trazado 770567" d="M58.612,105.106a.484.484,0,0,1-.116-.953l1.834-.454a.483.483,0,1,1,.232.937l-1.834.456a.5.5,0,0,1-.116.014" transform="translate(73.82 131.673)" fill="#fff"/>
            <path id="Trazado_770568" data-name="Trazado 770568" d="M59.493,105.523a.484.484,0,0,1-.116-.953l1.832-.454a.483.483,0,1,1,.234.937l-1.834.456a.5.5,0,0,1-.116.014" transform="translate(74.939 132.203)" fill="#fff"/>
            <path id="Trazado_770569" data-name="Trazado 770569" d="M60.448,105.879a.484.484,0,0,1-.116-.953l1.834-.454a.483.483,0,1,1,.232.938l-1.832.456a.54.54,0,0,1-.118.014" transform="translate(76.151 132.655)" fill="#fff"/>
            <path id="Trazado_770570" data-name="Trazado 770570" d="M16.441,61.771s-.347,2.37,2.828,3.037l33.11,1.1a3.731,3.731,0,0,0,1.834-3.9s-13.978-7.852-37.772-.243" transform="translate(20.865 74.231)" fill="#3a67cc"/>
            <path id="Trazado_770571" data-name="Trazado 770571" d="M52.582,72.347C35.4,81.8,16.63,74.188,16.63,74.188a52.181,52.181,0,0,0,2.091-7.9c.572-2.985.894-5.627,1.04-7.014,7.312-.4,25.231-1.164,32.254.5l.054,2.812Z" transform="translate(21.119 74.606)" fill="#ea9b7a"/>
            <path id="Trazado_770572" data-name="Trazado 770572" d="M27.64,63.694c-.127.885-.527,1.562-.894,1.51s-.561-.815-.434-1.7.529-1.562.894-1.51.561.815.434,1.7" transform="translate(33.365 78.726)" fill="#b76e6e"/>
            <path id="Trazado_770573" data-name="Trazado 770573" d="M50.9,62.588c-7.318-.445-21.719-.6-33.35,3.7.574-2.99.894-5.629,1.042-7.019,7.312-.4,25.231-1.162,32.252.5Z" transform="translate(22.288 74.605)" fill="#b76e6e"/>
            <path id="Trazado_770574" data-name="Trazado 770574" d="M61.231,75.382a4.016,4.016,0,0,1-.247.6c-.034.07-.07.141-.109.209a16.232,16.232,0,0,1-3.539,4.24c-.247.218-.486.418-.706.6-.44.359-.815.636-1.071.819-.238.168-.377.257-.377.257l0,.052q-.017.191-.034.4c-.041.54-.077,1.187-.1,1.92-.023.592-.039,1.239-.054,1.936-.009.518-.02,1.058-.025,1.621-9.713-4.34-29.716-1.6-37.772-.245.148-.7.281-1.376.4-2.043a63.593,63.593,0,0,0,1.017-8.317,87.258,87.258,0,0,0-.915-14.957c-.048-.375-.1-.742-.154-1.115-.036-.243-.073-.484-.111-.726-.275-1.8-.595-3.6-.96-5.346-1.589-7.62-.472-15.622,7.255-16.568.561-.068,1.112-.129,1.65-.188,3.641-.388,6.637-.52,7.47-.552l.232-.009L48.011,42.3l1.421.413q1.226.392,2.27.765c.3.107.588.213.865.316q1.086.409,1.977.8a16.523,16.523,0,0,1,2.894,1.578c3.276,2.327,2.767,4.955,2.685,10.147l0,.07c0,.064,0,.129,0,.2,0,.03,0,.059,0,.089,0,.211,0,.422,0,.636q.007,1,.068,2c.057.981.143,1.954.25,2.91.043.381.086.763.134,1.14.043.354.089.708.136,1.058.6,4.544,1.339,8.526.527,10.953" transform="translate(20.122 48.215)" fill="#5573c6"/>
            <path id="Trazado_770575" data-name="Trazado 770575" d="M37.484,46.085c0,.066,0,.132,0,.2,0,.03,0,.061,0,.089,0,.213,0,.424,0,.636l-3.137,1.97a.431.431,0,0,1-.309.061.438.438,0,0,1-.3-.2.442.442,0,0,1,.138-.606L37.2,46.148a.446.446,0,0,1,.281-.064" transform="translate(42.759 58.522)" fill="#3a67cc"/>
            <path id="Trazado_770576" data-name="Trazado 770576" d="M26.478,55.451a.445.445,0,0,1-.327-.145.438.438,0,0,1,.034-.617l2.921-2.631a.438.438,0,0,1,.586.651l-2.921,2.629a.429.429,0,0,1-.293.114" transform="translate(33.07 65.969)" fill="#3a67cc"/>
            <path id="Trazado_770577" data-name="Trazado 770577" d="M37.136,50.216l-2,1.8a.439.439,0,1,1-.588-.651L37,49.158c.043.356.089.708.136,1.058" transform="translate(43.69 62.428)" fill="#3a67cc"/>
            <path id="Trazado_770578" data-name="Trazado 770578" d="M23.668,49.219a.437.437,0,0,1,.459-.676l3.825.9a.438.438,0,0,1-.2.854l-3.827-.9a.435.435,0,0,1-.257-.177" transform="translate(29.957 61.632)" fill="#3a67cc"/>
            <path id="Trazado_770579" data-name="Trazado 770579" d="M17.857,54.1a.445.445,0,0,1-.327-.145.438.438,0,0,1,.034-.617l2.921-2.629a.437.437,0,1,1,.586.649L18.15,53.986a.429.429,0,0,1-.293.113" transform="translate(22.121 64.254)" fill="#3a67cc"/>
            <path id="Trazado_770580" data-name="Trazado 770580" d="M32.6,52.031A.438.438,0,0,1,33.418,52l1.569,3.6a.438.438,0,0,1-.8.35l-1.569-3.6a.428.428,0,0,1-.014-.313" transform="translate(41.372 65.697)" fill="#3a67cc"/>
            <path id="Trazado_770581" data-name="Trazado 770581" d="M37.4,54.853a4.016,4.016,0,0,1-.247.6c-.034.07-.07.141-.109.209l-2.134-.672a.442.442,0,0,1-.286-.549.435.435,0,0,1,.549-.286Z" transform="translate(43.949 68.743)" fill="#3a67cc"/>
            <path id="Trazado_770582" data-name="Trazado 770582" d="M32.223,54.588a.438.438,0,0,1,.368.731l-2.64,2.91a.436.436,0,0,1-.617.03.44.44,0,0,1-.032-.62l2.642-2.91a.442.442,0,0,1,.279-.141" transform="translate(37.069 69.322)" fill="#3a67cc"/>
            <path id="Trazado_770583" data-name="Trazado 770583" d="M30.044,53.287a.429.429,0,0,1-.3-.2.434.434,0,0,1,.136-.6l3.33-2.091a.438.438,0,0,1,.465.742l-3.328,2.088a.431.431,0,0,1-.309.061" transform="translate(37.694 63.914)" fill="#3a67cc"/>
            <path id="Trazado_770584" data-name="Trazado 770584" d="M33.39,46.377a.439.439,0,0,1-.375.729l-3.907-.427a.438.438,0,0,1,.1-.872l3.907.427a.439.439,0,0,1,.279.143" transform="translate(36.471 58.17)" fill="#3a67cc"/>
            <path id="Trazado_770585" data-name="Trazado 770585" d="M28.282,42.511a.431.431,0,0,1,.216-.281.437.437,0,0,1,.592.177l1.864,3.462a.445.445,0,0,1-.179.595.437.437,0,0,1-.592-.179l-1.864-3.462a.427.427,0,0,1-.036-.311" transform="translate(35.899 53.563)" fill="#3a67cc"/>
            <path id="Trazado_770586" data-name="Trazado 770586" d="M34.825,57.405c-.25.218-.486.418-.706.6L33.6,56.695a.445.445,0,0,1,0-.316.45.45,0,0,1,.25-.254.438.438,0,0,1,.567.247Z" transform="translate(42.635 71.238)" fill="#3a67cc"/>
            <path id="Trazado_770587" data-name="Trazado 770587" d="M18.329,54.1a.437.437,0,0,1,.533-.62l3.7,1.33a.438.438,0,0,1-.3.824l-3.7-1.33a.434.434,0,0,1-.238-.2" transform="translate(23.211 67.885)" fill="#3a67cc"/>
            <path id="Trazado_770588" data-name="Trazado 770588" d="M20.992,55.94a.439.439,0,0,1,.286.767l-2.942,2.6a.438.438,0,1,1-.581-.656L20.7,56.049a.459.459,0,0,1,.293-.109" transform="translate(22.36 71.041)" fill="#3a67cc"/>
            <path id="Trazado_770589" data-name="Trazado 770589" d="M24.051,58.224a.438.438,0,0,1-.418.7l-3.873-.661a.438.438,0,1,1,.148-.863l3.873.661a.435.435,0,0,1,.27.159" transform="translate(24.632 72.893)" fill="#3a67cc"/>
            <path id="Trazado_770590" data-name="Trazado 770590" d="M22.885,41.866a.424.424,0,0,1,.052-.352.437.437,0,0,1,.606-.132l3.3,2.131a.438.438,0,0,1-.477.735l-3.3-2.129a.427.427,0,0,1-.184-.254" transform="translate(29.041 52.465)" fill="#3a67cc"/>
            <path id="Trazado_770591" data-name="Trazado 770591" d="M33.662,42.691a.438.438,0,0,1,.622.531l-1.314,3.7a.438.438,0,0,1-.826-.293l1.314-3.7a.443.443,0,0,1,.2-.238" transform="translate(40.79 54.149)" fill="#3a67cc"/>
            <path id="Trazado_770592" data-name="Trazado 770592" d="M33.6,40.713l-2.029,2.6a.438.438,0,0,1-.692-.538L32.731,40.4c.3.109.588.213.865.318" transform="translate(39.093 51.3)" fill="#3a67cc"/>
            <path id="Trazado_770593" data-name="Trazado 770593" d="M23.29,57.075a.356.356,0,0,0,.27.236.331.331,0,0,0,.182-.009,20.642,20.642,0,0,1,13.109.69,22.351,22.351,0,0,0,8.862,1.9q.014-.211.034-.4l0-.05s.138-.091.375-.259a21.319,21.319,0,0,1-9-1.848,20.974,20.974,0,0,0-13.608-.708.357.357,0,0,0-.227.452" transform="translate(29.554 70.88)" fill="#3a67cc"/>
            <path id="Trazado_770594" data-name="Trazado 770594" d="M38.5,42.3c-.835,1.3-2.565,2.767-6.061,2.513-4.824-.35-8-4.951-9.107-6.844l.229-.007Z" transform="translate(29.632 48.215)" fill="#3a67cc"/>
            <path id="Trazado_770595" data-name="Trazado 770595" d="M33.442,51.043a3.45,3.45,0,0,0,.427.061,3.722,3.722,0,0,0,3.212-1.151C39.4,47.42,38.447,41.643,38.4,41.4a.357.357,0,1,0-.7.12c.009.057.935,5.677-1.149,7.954a3.009,3.009,0,0,1-2.626.919c-4.674-.377-9.911-12.249-9.963-12.369a.358.358,0,0,0-.656.286c.216.493,5.18,11.731,10.135,12.734" transform="translate(29.56 48.015)" fill="#fff"/>
            <path id="Trazado_770596" data-name="Trazado 770596" d="M34.2,41.582A26.076,26.076,0,0,0,36.949,54.73q-.078-1.318-.066-2.64c0-.03,0-.059,0-.089,0-.091,0-.182,0-.272.084-5.189.59-7.82-2.685-10.147" transform="translate(43.357 52.807)" fill="#ea9b7a"/>
            <path id="Trazado_770597" data-name="Trazado 770597" d="M29.96,51.892C28.247,58.5,21.981,63.811,17.7,62.154c-.05-.37-.1-.74-.159-1.112-.034-.243-.07-.484-.109-.726-.275-1.8-.595-3.6-.96-5.346C14.879,47.35,16,39.35,23.723,38.4c.561-.07,1.112-.134,1.65-.191,3.868,1.65,6.56,6.065,4.588,13.679" transform="translate(20.122 48.529)" fill="#ea9b7a"/>
            <path id="Trazado_770598" data-name="Trazado 770598" d="M30.968,45.21,41.01,81.927,37.43,77.8a18.266,18.266,0,0,0,4.558,1.628,32.994,32.994,0,0,0,5.484.7c1.936.1,3.957.084,6.018,0s4.174-.241,6.315-.422l.011,0a5.739,5.739,0,0,1,1.389,11.386c-2.206.352-4.451.686-6.755.951s-4.665.465-7.11.522a45.62,45.62,0,0,1-7.6-.42,31.565,31.565,0,0,1-7.974-2.2,6.257,6.257,0,0,1-3.453-3.745l-.127-.381L16.147,49.7a7.746,7.746,0,1,1,14.7-4.9c.043.127.089.281.125.409" transform="translate(19.997 50.169)" fill="#ea9b7a"/>
            <path id="Trazado_770599" data-name="Trazado 770599" d="M24.6,58.808a.3.3,0,0,1-.148-.556,12.546,12.546,0,0,1,4.585-1.471.3.3,0,1,1,.045.595,12.092,12.092,0,0,0-4.336,1.394.318.318,0,0,1-.148.039" transform="translate(30.861 72.109)" fill="#b76e6e"/>
            <path id="Trazado_770600" data-name="Trazado 770600" d="M28,57.988a.294.294,0,0,1-.154-.043,7.863,7.863,0,0,0-3.078-.969.3.3,0,0,1,.043-.592,8.31,8.31,0,0,1,3.344,1.053.3.3,0,0,1-.154.552" transform="translate(31.106 71.603)" fill="#b76e6e"/>
            <path id="Trazado_770601" data-name="Trazado 770601" d="M36.781,53.98c4.445.9,6.388-3.7,6.406-3.741a.357.357,0,1,0-.661-.272c-.073.175-1.746,4.1-5.6,3.312-4.05-.819-11.6-8.787-11.677-8.866a.357.357,0,0,0-.52.49c.316.336,7.786,8.213,12.053,9.078" transform="translate(31.279 56.26)" fill="#3a67cc"/>
            <path id="Trazado_770602" data-name="Trazado 770602" d="M32.519,51.566s-7.13-1.344-9.141-8.54c-1.914-6.851-.44-10.405,1.55-14.108,1.5-2.788,6.254-6.553,12.925-5.2,6.733,1.364,11.767,4.821,12.51,10.358,1.394,10.36-6.966,23-17.844,17.492" transform="translate(28.557 29.758)" fill="#373f51"/>
            <path id="Trazado_770603" data-name="Trazado 770603" d="M24.118,44.346a.37.37,0,0,1-.322-.188,16.14,16.14,0,0,1-.64-12.721,11.635,11.635,0,0,1,6.921-7.3,12.479,12.479,0,0,1,4.662-.86.372.372,0,1,1-.036.742,11.994,11.994,0,0,0-4.388.822,10.818,10.818,0,0,0-6.458,6.846,15.694,15.694,0,0,0,.583,12.108.373.373,0,0,1-.322.556" transform="translate(28.155 29.548)" fill="#f4a338"/>
            <path id="Trazado_770604" data-name="Trazado 770604" d="M33.492,32.976s2.32-1.832,2.931.595S35.312,40.31,32.611,39Z" transform="translate(41.415 41.036)" fill="#b76e6e"/>
            <path id="Trazado_770605" data-name="Trazado 770605" d="M33.4,34.6a3.691,3.691,0,0,0-2.431,2.672,3.49,3.49,0,1,0,4.12-2.731l-.036,0a.57.57,0,0,0,.1.577,2.951,2.951,0,1,1-3.65,2.268,2.865,2.865,0,0,1,2.175-2.243Z" transform="translate(39.241 43.866)" fill="#f4a338"/>
            <path id="Trazado_770606" data-name="Trazado 770606" d="M37.637,40.322,36.666,46.4s-4.549,4.642-12.855-3.686c2.229-1.659,3.08-5.509,2.819-8a11.975,11.975,0,0,1,1.664,1.305,6.183,6.183,0,0,0,.7.488c2.2,1.494,5.559,3.437,8.644,3.816" transform="translate(30.239 44.084)" fill="#ea9b7a"/>
            <path id="Trazado_770607" data-name="Trazado 770607" d="M35.129,39.592l-.461,2.881c-2.492-1.108-6.9-3.484-8.882-7.184.218.154.449.318.7.488,2.2,1.494,5.559,3.437,8.644,3.816" transform="translate(32.747 44.814)" fill="#373f51"/>
            <path id="Trazado_770608" data-name="Trazado 770608" d="M45.341,39.627c-.129.642-.252,1.255-.372,1.836q-.194.947-.379,1.786c-.919,4.2-1.68,6.456-2.906,7.3-6.2,4.265-16.294-4.37-16.618-4.649l-.009-.007c-.009-.495-.009-.987,0-1.469a37.874,37.874,0,0,1,1.877-11.164,8.566,8.566,0,0,1,7.137-7.243c3.843-.579,6.733,1.646,8.54,2.629,2.728,1.489,3.8,5.62,2.728,10.982" transform="translate(31.813 32.919)" fill="#ea9b7a"/>
            <path id="Trazado_770609" data-name="Trazado 770609" d="M26.029,31.069s4.34-8.347,13-6.015,9.118,6.349,9.271,8.36-4.483-1.55-4.483-1.55-.159,4.02-1.7,2.781a25.143,25.143,0,0,1-4.016-4.8s-5.157,5.064-10.058,3.7c-2.783-.776-2.009-2.477-2.009-2.477" transform="translate(32.93 31.295)" fill="#373f51"/>
            <path id="Trazado_770610" data-name="Trazado 770610" d="M31.792,36.318a2.919,2.919,0,0,1-1.936-.817.31.31,0,1,1,.445-.431,2.141,2.141,0,0,0,2.111.524.309.309,0,1,1,.2.586,2.544,2.544,0,0,1-.819.138" transform="translate(37.805 44.418)" fill="#b76e6e"/>
            <path id="Trazado_770611" data-name="Trazado 770611" d="M29.522,33.34a31.615,31.615,0,0,0,6.342,1.237,3.262,3.262,0,0,1-6.342-1.237" transform="translate(37.483 42.34)" fill="#fff"/>
            <path id="Trazado_770612" data-name="Trazado 770612" d="M33.452,29.512s-1.085-.109-.908.94,2.526.409,3.691,2.517c0,0,1.121-2.209-2.783-3.457" transform="translate(41.305 37.475)" fill="#373f51"/>
            <path id="Trazado_770613" data-name="Trazado 770613" d="M33,29.1s1.042.32.472,1.219-2.488-.606-4.379.881c0,0-.177-2.472,3.907-2.1" transform="translate(36.94 36.909)" fill="#373f51"/>
            <path id="Trazado_770614" data-name="Trazado 770614" d="M32.539,33.224c-.1.5-1.205.692-2.465.436s-2.2-.865-2.1-1.362,1.205-.69,2.465-.436,2.2.865,2.1,1.362" transform="translate(35.514 40.322)" fill="#b76e6e"/>
            <path id="Trazado_770615" data-name="Trazado 770615" d="M37.356,32.865l-3.373-.574c-.018.143-.052.281-.084.422a.3.3,0,0,1-.023.068l3.4.579a.251.251,0,0,0,.291-.2.247.247,0,0,0-.207-.291" transform="translate(43.021 41.008)" fill="#fff"/>
            <path id="Trazado_770616" data-name="Trazado 770616" d="M36.2,33.655a3.831,3.831,0,0,0-.03-.511,4.238,4.238,0,0,0-1.137-2.413,4.173,4.173,0,0,0-2.179-1.23l-.041-.014a4.259,4.259,0,0,0-4.724,2.395,3.793,3.793,0,0,0-.182.47,3.874,3.874,0,0,0-.116.438,4.249,4.249,0,0,0,8.322,1.718V34.5a4.133,4.133,0,0,0,.086-.844m-5.005,3.661L31.13,37.3a3.749,3.749,0,0,1-2.849-4.413,3.39,3.39,0,0,1,.161-.554l.014-.036a3.749,3.749,0,0,1,3.269-2.39,3.806,3.806,0,0,1,.983.07,3.68,3.68,0,0,1,1.823.958,3.742,3.742,0,0,1-3.339,6.376" transform="translate(35.178 37.336)" fill="#fff"/>
            <path id="Trazado_770617" data-name="Trazado 770617" d="M38.254,30.782c-.116-.061-.234-.114-.354-.166a4.24,4.24,0,0,0-.443-.152c-.107-.032-.211-.057-.32-.082a4.549,4.549,0,0,0-.595-.079,4.113,4.113,0,0,0-.71.016,4.26,4.26,0,0,0-3.251,2.134,3.874,3.874,0,0,0-.243.5l-.009.027A4.231,4.231,0,0,0,33.68,37.9a4.178,4.178,0,0,0,1.382.708c.077.025.157.045.236.064.039.011.077.018.118.027a4.264,4.264,0,0,0,1.219.073q.1-.007.191-.02a3.971,3.971,0,0,0,.515-.1,4.3,4.3,0,0,0,.91-.352,4.249,4.249,0,0,0,0-7.523M39.945,35.3a2.032,2.032,0,0,1-.059.238,3.1,3.1,0,0,1-.107.329,3.746,3.746,0,0,1-1.532,1.859,3.909,3.909,0,0,1-.808.377,4.009,4.009,0,0,1-.547.134c-.054.009-.107.016-.161.02a3.7,3.7,0,0,1-1.212-.048l-.111-.025-.068-.016a3.713,3.713,0,0,1-1.571-.849c-.064-.057-.127-.116-.186-.179a3.742,3.742,0,0,1-.974-3.357,3.9,3.9,0,0,1,.263-.8A3.763,3.763,0,0,1,36.279,30.8c.091,0,.179,0,.272.011a3.923,3.923,0,0,1,.484.066c.116.025.232.054.343.089a3.712,3.712,0,0,1,.452.173,3.662,3.662,0,0,1,.338.175A3.751,3.751,0,0,1,39.945,35.3" transform="translate(40.674 38.472)" fill="#fff"/>
            <path id="Trazado_770618" data-name="Trazado 770618" d="M25.615,31.74a.272.272,0,0,1-.084-.034.251.251,0,0,1-.077-.347c1.689-2.64,5.748-.27,5.788-.245a.251.251,0,1,1-.257.431c-.036-.023-3.682-2.145-5.107.084a.252.252,0,0,1-.263.111" transform="translate(32.275 38.241)" fill="#fff"/>
            <path id="Trazado_770619" data-name="Trazado 770619" d="M33.477,32.176a.244.244,0,0,1-.159-.109c-.54-.835-1.7-.461-1.709-.456a.251.251,0,1,1-.159-.477,1.99,1.99,0,0,1,2.288.658.249.249,0,0,1-.073.347.245.245,0,0,1-.188.036" transform="translate(39.722 39.394)" fill="#fff"/>
            <g id="Grupo_1028236" data-name="Grupo 1028236" transform="translate(74.514 74.309)" opacity="0.8">
              <g id="Grupo_1028235" data-name="Grupo 1028235">
                <g id="Grupo_1028234" data-name="Grupo 1028234" clip-path="url(#clip-path-10)">
                  <path id="Trazado_770620" data-name="Trazado 770620" d="M35.094,32.809c-.132.631-.257,1.226-.381,1.786-1.144-.277-1.973-.844-1.88-1.312s1.087-.667,2.261-.474" transform="translate(-32.827 -32.736)" fill="#b76e6e"/>
                </g>
              </g>
            </g>
            <path id="Trazado_770621" data-name="Trazado 770621" d="M31.167,32.075c-.138.681-.558,1.171-.94,1.094s-.579-.692-.44-1.373.558-1.171.94-1.094.579.692.44,1.373" transform="translate(37.772 38.979)" fill="#373f51"/>
            <path id="Trazado_770622" data-name="Trazado 770622" d="M34.138,32.677c-.138.681-.558,1.171-.94,1.094s-.579-.692-.44-1.373.558-1.171.94-1.094.579.692.44,1.373" transform="translate(41.545 39.744)" fill="#373f51"/>
            <path id="Trazado_770623" data-name="Trazado 770623" d="M32.554,34.78a2.428,2.428,0,0,0,.579.054.276.276,0,0,0,.2-.1.282.282,0,0,0,.064-.222l-.436-3.182a.285.285,0,1,0-.565.077l.386,2.835a2.244,2.244,0,0,1-1.1-.481.287.287,0,0,0-.368.44,2.782,2.782,0,0,0,1.233.581" transform="translate(39.647 39.47)" fill="#373f51"/>
            <path id="Trazado_770624" data-name="Trazado 770624" d="M27.842,33.7c-.048.07-1.364,1.966-2.778,2.315h0l0-.007c-.009-.5-.009-.985,0-1.469a5.321,5.321,0,0,0,2.785-.84" transform="translate(31.812 42.8)" fill="#373f51"/>
            <path id="Trazado_770625" data-name="Trazado 770625" d="M29.209,32.915s-1.986-4.213-4.565-1.741c-2.127,2.038-.268,8.846,3.419,7.389Z" transform="translate(30.157 38.602)" fill="#ea9b7a"/>
            <path id="Trazado_770626" data-name="Trazado 770626" d="M25.4,33.142a3.691,3.691,0,0,0-2.431,2.672,3.49,3.49,0,1,0,4.12-2.731l-.036,0a.571.571,0,0,0,.1.577,2.951,2.951,0,1,1-3.65,2.268,2.865,2.865,0,0,1,2.175-2.243Z" transform="translate(29.082 42.008)" fill="#f4a338"/>
            <path id="Trazado_770627" data-name="Trazado 770627" d="M26.878,36.362l.032,0a.288.288,0,0,0,.311-.259,5.35,5.35,0,0,0-2.213-4.858.286.286,0,1,0-.316.477,4.786,4.786,0,0,1,1.959,4.329.286.286,0,0,0,.227.306" transform="translate(31.194 39.625)" fill="#373f51"/>
            <path id="Trazado_770628" data-name="Trazado 770628" d="M24.711,33.015a.275.275,0,0,0,.188-.027,2.242,2.242,0,0,1,1.58-.261.286.286,0,1,0,.25-.515,2.749,2.749,0,0,0-2.1.27.286.286,0,0,0,.077.533" transform="translate(31.09 40.74)" fill="#373f51"/>
            <path id="Trazado_770629" data-name="Trazado 770629" d="M29.614,29.449S26.944,36.7,26.8,38.161c-.2,1.991-2.831-4.835-.182-10.662Z" transform="translate(32.311 34.923)" fill="#373f51"/>
            <path id="Trazado_770630" data-name="Trazado 770630" d="M86.587,136.664H75.594s-2.545-12.2-3.4-19.045-1.3-23.065-1.3-23.065S62.138,97.4,43.8,96.327C3.164,93.954,18.573,64.1,18.573,64.1c1.371,1.9,11.67,4.508,17.417,5.416C53.634,71.21,67.045,74.2,76.227,78.167a45.634,45.634,0,0,1,5.9,3.024c2.215,1.364,3.6,5.5,4.435,10.95,2.508,16.366.027,44.523.027,44.523" transform="translate(19.946 81.404)" fill="#373f51"/>
            <path id="Trazado_770631" data-name="Trazado 770631" d="M75.346,130.521a.4.4,0,0,1-.386-.316c-1.584-7.85-2.118-17.619-2.545-25.471-.356-6.51-.69-12.657-1.528-13.4-.676-.6-3.489-.132-7.048.461-7.082,1.176-17.785,2.951-29.589.207-6.429-1.5-11.155-4.619-14.046-9.284-4.989-8.04-2.715-18.012-2.69-18.11a.393.393,0,1,1,.765.179c-.023.1-2.22,9.763,2.6,17.522,2.778,4.476,7.339,7.479,13.554,8.925,11.649,2.71,22.259.949,29.28-.216,4.2-.7,6.742-1.119,7.7-.275,1.035.915,1.326,5.412,1.791,13.944.427,7.827.958,17.565,2.531,25.358a.393.393,0,0,1-.306.463.329.329,0,0,1-.079.009" transform="translate(21.558 81.667)" fill="#585859"/>
            <path id="Trazado_770632" data-name="Trazado 770632" d="M54.085,94.155h-.009l-12.224-.263a.393.393,0,0,1-.386-.4.389.389,0,0,1,.4-.384l12.226.261a.394.394,0,0,1-.009.788" transform="translate(52.66 118.24)" fill="#585859"/>
            <path id="Trazado_770633" data-name="Trazado 770633" d="M52.433,110.152H44.675l-1.5-9.1-.817-4.98H52l.152,4.98Z" transform="translate(53.797 122.001)" fill="#ea9b7a"/>
            <path id="Trazado_770634" data-name="Trazado 770634" d="M51.976,107.366H44.218L43.1,100.588l-.381-2.327H51.7l.075,2.413Z" transform="translate(54.255 124.787)" fill="#f4a338"/>
            <path id="Trazado_770635" data-name="Trazado 770635" d="M51.772,100.673l-8.669-.086-.381-2.324H51.7Z" transform="translate(54.255 124.788)" fill="#c97c1f"/>
            <path id="Trazado_770636" data-name="Trazado 770636" d="M71.885,115.734H42.535a4.088,4.088,0,0,1-.384-1.63c-.184-2.483.606-6.444.994-8.944.048-.291.089-.563.12-.81a8.988,8.988,0,0,0,.086-1.019,1.5,1.5,0,0,1,1.8-1.691c2.971,2.915,6.333-1.453,8.3-.02,0,0,.079.057.259.2s.415.331.763.624c.5.418,1.2,1.026,2.154,1.88,2.329,2.1,6.292,3.48,9.665,4.892q.647.269,1.2.538c.281.136.547.272.8.406,2.758,1.489,3.634,2.912,3.834,3.947a2.292,2.292,0,0,1-.241,1.63" transform="translate(53.496 128.674)" fill="#5573c6"/>
            <path id="Trazado_770637" data-name="Trazado 770637" d="M63.5,109.88c-.756.6-2.438,1.8-3.786,1.8a1.537,1.537,0,0,1-.177-.007c-.951-.079-4.449-1.8-7.3-3.362-1.63-.9-3.119-1.777-4.19-2.486-1.757-1.158-2.061-1.6-2.131-1.907-.257-1.158,1.659-1.966,3-2.383.166.129.415.331.765.624-1.668.454-3.039,1.167-2.976,1.573.163.343,1.9,1.666,6.054,3.941A37.405,37.405,0,0,0,59.6,110.87a5.845,5.845,0,0,0,3.1-1.4c.281.134.547.27.8.406" transform="translate(58.286 128.951)" fill="#3a67cc"/>
            <path id="Trazado_770638" data-name="Trazado 770638" d="M71.869,108.583H42.521a4.1,4.1,0,0,1-.386-1.63H72.11a2.292,2.292,0,0,1-.241,1.63" transform="translate(53.51 135.826)" fill="#3a67cc"/>
            <path id="Trazado_770639" data-name="Trazado 770639" d="M44.959,114.04h-.872a6.444,6.444,0,0,0,1.578-4.7,8.273,8.273,0,0,0-3.092-5.875c.048-.291.089-.563.12-.81a9,9,0,0,1,3.671,6.649,7.135,7.135,0,0,1-1.405,4.735" transform="translate(54.066 130.369)" fill="#3a67cc"/>
            <path id="Trazado_770640" data-name="Trazado 770640" d="M48.565,104.2a.484.484,0,0,1-.116-.953l1.832-.454a.483.483,0,1,1,.234.937l-1.832.456a.539.539,0,0,1-.118.014" transform="translate(61.061 130.525)" fill="#fff"/>
            <path id="Trazado_770641" data-name="Trazado 770641" d="M47.763,103.529a.484.484,0,0,1-.116-.953l1.834-.454a.483.483,0,1,1,.232.938l-1.834.456a.5.5,0,0,1-.116.014" transform="translate(60.042 129.671)" fill="#fff"/>
            <path id="Trazado_770642" data-name="Trazado 770642" d="M49.373,104.671a.484.484,0,0,1-.116-.953l1.834-.454a.483.483,0,1,1,.232.938l-1.834.456a.5.5,0,0,1-.116.014" transform="translate(62.087 131.121)" fill="#fff"/>
            <path id="Trazado_770643" data-name="Trazado 770643" d="M50.181,105.123a.484.484,0,0,1-.116-.953l1.834-.454a.483.483,0,1,1,.232.938l-1.834.456a.5.5,0,0,1-.116.014" transform="translate(63.113 131.695)" fill="#fff"/>
            <path id="Trazado_770644" data-name="Trazado 770644" d="M51.061,105.54a.484.484,0,0,1-.116-.953l1.834-.454a.483.483,0,1,1,.232.938l-1.834.456a.5.5,0,0,1-.116.014" transform="translate(64.23 132.225)" fill="#fff"/>
            <path id="Trazado_770645" data-name="Trazado 770645" d="M52.016,105.9a.484.484,0,0,1-.116-.953l1.832-.454a.483.483,0,1,1,.234.937l-1.834.456a.5.5,0,0,1-.116.014" transform="translate(65.443 132.677)" fill="#fff"/>
            <path id="Trazado_770646" data-name="Trazado 770646" d="M140.573,65.327v2.438c0,1.4-.847,2.538-1.893,2.538H6.977c-1.044,0-1.891-1.137-1.891-2.538V65.327c0-1.4.847-2.538,1.891-2.538h131.7c1.046,0,1.893,1.137,1.893,2.538" transform="translate(6.459 79.739)" fill="#4adbd1"/>
            <rect id="Rectángulo_363200" data-name="Rectángulo 363200" width="135.487" height="1.115" transform="translate(11.545 145.838)" fill="#2da599"/>
            <path id="Trazado_770647" data-name="Trazado 770647" d="M132.851,72.379H9.052a1,1,0,0,1-1-1V66.087H133.854v5.289a1,1,0,0,1-1,1" transform="translate(10.222 83.928)" fill="#2da599"/>
            <rect id="Rectángulo_363201" data-name="Rectángulo 363201" width="110.71" height="4.315" transform="translate(26.804 187.376)" fill="#2da599"/>
            <path id="Trazado_770648" data-name="Trazado 770648" d="M12.5,157.729,33.937,68.858H26.41L4.975,157.729Z" transform="translate(6.318 87.447)" fill="#4adbd1"/>
            <path id="Trazado_770649" data-name="Trazado 770649" d="M76.024,157.729,54.589,68.858h7.529l21.433,88.871Z" transform="translate(69.325 87.447)" fill="#4adbd1"/>
            <rect id="Rectángulo_363202" data-name="Rectángulo 363202" width="2.35" height="17.726" transform="translate(21.249 122.453) rotate(-8.717)" fill="#f4a338"/>
            <path id="Trazado_770650" data-name="Trazado 770650" d="M11.685,55.1l-2.324.356.511-1.775.266-.919.529.8Z" transform="translate(11.888 67)" fill="#ea9b7a"/>
            <rect id="Rectángulo_363203" data-name="Rectángulo 363203" width="2.352" height="1.288" transform="translate(23.738 138.701) rotate(-8.717)" fill="#373f51"/>
            <path id="Trazado_770651" data-name="Trazado 770651" d="M12.868,62.546l-2.016.309a.156.156,0,0,1-.177-.132l-.132-.86,2.324-.356.132.86a.158.158,0,0,1-.132.179" transform="translate(13.39 78.11)" fill="#768ec1"/>
            <path id="Trazado_770652" data-name="Trazado 770652" d="M10.379,53.555l-.792.123.263-.919Z" transform="translate(12.175 67.001)" fill="#373f51"/>
            <rect id="Rectángulo_363204" data-name="Rectángulo 363204" width="2.352" height="0.923" transform="translate(23.599 137.788) rotate(-8.717)" fill="#c97c1f"/>
            <path id="Trazado_770653" data-name="Trazado 770653" d="M9.675,54.4l1.988,12.975a.179.179,0,1,0,.354-.054L10.029,54.347a.179.179,0,0,0-.354.054" transform="translate(12.284 68.825)" fill="#c97c1f"/>
            <path id="Trazado_770654" data-name="Trazado 770654" d="M10.075,54.34l1.988,12.975a.179.179,0,1,0,.354-.054L10.429,54.285a.179.179,0,1,0-.354.054" transform="translate(12.792 68.746)" fill="#c97c1f"/>
            <rect id="Rectángulo_363205" data-name="Rectángulo 363205" width="2.351" height="17.726" transform="translate(25.428 122.184) rotate(-0.166)" fill="#4adbd1"/>
            <path id="Trazado_770655" data-name="Trazado 770655" d="M13.552,55.245l-2.352.007.77-1.68.4-.867.4.865Z" transform="translate(14.224 66.932)" fill="#ea9b7a"/>
            <rect id="Rectángulo_363206" data-name="Rectángulo 363206" width="2.352" height="1.287" transform="translate(25.478 138.623) rotate(-0.166)" fill="#373f51"/>
            <path id="Trazado_770656" data-name="Trazado 770656" d="M13.423,62.659l-2.038.007a.157.157,0,0,1-.157-.157l0-.869,2.352-.007,0,.869a.157.157,0,0,1-.157.157" transform="translate(14.257 78.271)" fill="#768ec1"/>
            <path id="Trazado_770657" data-name="Trazado 770657" d="M12.342,53.571l-.8,0,.4-.869Z" transform="translate(14.654 66.931)" fill="#373f51"/>
            <rect id="Rectángulo_363207" data-name="Rectángulo 363207" width="2.352" height="0.923" transform="translate(25.475 137.699) rotate(-0.166)" fill="#2da599"/>
            <path id="Trazado_770658" data-name="Trazado 770658" d="M11.459,54.311,11.5,67.439a.179.179,0,1,0,.359,0l-.043-13.127a.176.176,0,0,0-.179-.177.178.178,0,0,0-.179.179" transform="translate(14.552 68.745)" fill="#2da599"/>
            <path id="Trazado_770659" data-name="Trazado 770659" d="M11.864,54.309l.043,13.127a.179.179,0,0,0,.359,0l-.043-13.129a.176.176,0,0,0-.179-.177.178.178,0,0,0-.179.179" transform="translate(15.067 68.743)" fill="#2da599"/>
            <rect id="Rectángulo_363208" data-name="Rectángulo 363208" width="17.726" height="2.351" transform="translate(27.009 139.645) rotate(-81.901)" fill="#5573c6"/>
            <path id="Trazado_770660" data-name="Trazado 770660" d="M15.326,55.436,13,55.1l1-1.55.52-.8.275.917Z" transform="translate(16.506 66.991)" fill="#ea9b7a"/>
            <rect id="Rectángulo_363209" data-name="Rectángulo 363209" width="1.287" height="2.352" transform="translate(27.011 139.645) rotate(-81.901)" fill="#373f51"/>
            <path id="Trazado_770661" data-name="Trazado 770661" d="M14,62.845l-2.018-.286a.159.159,0,0,1-.134-.177l.123-.863,2.329.331-.123.86a.157.157,0,0,1-.177.134" transform="translate(15.042 78.126)" fill="#768ec1"/>
            <path id="Trazado_770662" data-name="Trazado 770662" d="M14.234,53.666l-.794-.113.52-.8Z" transform="translate(17.068 66.991)" fill="#373f51"/>
            <rect id="Rectángulo_363210" data-name="Rectángulo 363210" width="0.924" height="2.35" transform="matrix(0.141, -0.99, 0.99, 0.141, 27.193, 138.371)" fill="#3a67cc"/>
            <path id="Trazado_770663" data-name="Trazado 770663" d="M14.232,54.291l-1.845,13a.179.179,0,0,0,.354.05l1.848-13a.18.18,0,0,0-.356-.05" transform="translate(15.729 68.752)" fill="#3a67cc"/>
            <path id="Trazado_770664" data-name="Trazado 770664" d="M14.634,54.347l-1.845,13a.179.179,0,1,0,.354.05l1.848-13a.181.181,0,0,0-.154-.2.179.179,0,0,0-.2.152" transform="translate(16.238 68.823)" fill="#3a67cc"/>
            <path id="Trazado_770665" data-name="Trazado 770665" d="M21.456,56.912l-.123.951-.111.863-.17,1.312-.109.854-.17,1.323-.109.842-.173,1.332-.107.831-.175,1.344-.1.822-.175,1.355-.107.81-.091.7H10.495l-.091-.7-.1-.81-.175-1.355-.107-.822L9.845,65.22l-.109-.831-.17-1.332-.111-.842-.17-1.323-.109-.854-.17-1.312-.111-.863-.123-.951Z" transform="translate(11.14 72.276)" fill="#768ec1"/>
            <path id="Trazado_770666" data-name="Trazado 770666" d="M21.265,57.331l-.111.863H8.937l-.111-.863Z" transform="translate(11.208 72.808)" fill="#373f51"/>
            <path id="Trazado_770667" data-name="Trazado 770667" d="M20.826,58.29l-.109.854H9.059L8.95,58.29Z" transform="translate(11.366 74.025)" fill="#373f51"/>
            <path id="Trazado_770668" data-name="Trazado 770668" d="M20.389,59.248l-.109.842H9.182l-.109-.842Z" transform="translate(11.523 75.242)" fill="#373f51"/>
            <path id="Trazado_770669" data-name="Trazado 770669" d="M19.952,60.207l-.107.831H9.306L9.2,60.207Z" transform="translate(11.679 76.46)" fill="#373f51"/>
            <path id="Trazado_770670" data-name="Trazado 770670" d="M19.513,61.165l-.1.822H9.427l-.107-.822Z" transform="translate(11.837 77.676)" fill="#373f51"/>
            <path id="Trazado_770671" data-name="Trazado 770671" d="M19.076,62.123l-.1.81H9.549l-.1-.81Z" transform="translate(11.994 78.894)" fill="#373f51"/>
            <path id="Trazado_770672" data-name="Trazado 770672" d="M101.331,43.507,93.45,76.832l-.207.876-.529,2.243a2.151,2.151,0,0,1-2.1,1.659H37.536a2.154,2.154,0,0,1-2.1-2.649l8.617-36.444a2.152,2.152,0,0,1,2.1-1.657H99.236a2.152,2.152,0,0,1,2.1,2.647" transform="translate(44.934 51.89)" fill="#373f51"/>
            <path id="Trazado_770673" data-name="Trazado 770673" d="M91.916,56.707l-.207.876H36.59v-.876Z" transform="translate(46.468 72.015)" fill="#585859"/>
            <path id="Trazado_770674" data-name="Trazado 770674" d="M50.582,46.886a5.392,5.392,0,0,1-5.076,4.277,3.451,3.451,0,0,1-3.478-4.277A5.391,5.391,0,0,1,47.1,42.609a3.451,3.451,0,0,1,3.48,4.277" transform="translate(53.28 54.112)" fill="#f4a338"/>
            <path id="Trazado_770675" data-name="Trazado 770675" d="M44.062,44.612c-.089.472-.327.856-.531.856s-.3-.384-.213-.856.327-.856.531-.856.3.384.213.856" transform="translate(54.969 55.568)" fill="#373f51"/>
            <path id="Trazado_770676" data-name="Trazado 770676" d="M45.045,44.612c-.089.472-.327.856-.531.856s-.3-.384-.213-.856.327-.856.531-.856.3.384.213.856" transform="translate(56.218 55.568)" fill="#373f51"/>
            <path id="Trazado_770677" data-name="Trazado 770677" d="M44.789,46.576a1.9,1.9,0,0,1-1.918-1.857.236.236,0,0,1,.184-.222.154.154,0,0,1,.2.143A1.576,1.576,0,0,0,44.86,46.2a2.536,2.536,0,0,0,2.193-1.564A.227.227,0,0,1,47.3,44.5a.153.153,0,0,1,.1.22,3.048,3.048,0,0,1-2.61,1.857" transform="translate(54.444 56.505)" fill="#373f51"/>
            <path id="Trazado_770678" data-name="Trazado 770678" d="M56.565,54.6c.045,2.213,3.8,4.983,3.8,4.983s4.352-2.769,4.88-4.983c.574-2.4-2.166-3.135-4.193-1.326-1.634-1.809-4.533-1.071-4.483,1.326" transform="translate(71.835 66.37)" fill="#768ec1"/>
            <path id="Trazado_770679" data-name="Trazado 770679" d="M57.734,52.788a4.758,4.758,0,0,1-4.61,4.154,3.651,3.651,0,0,1-3.7-4.154,4.758,4.758,0,0,1,4.613-4.154,3.65,3.65,0,0,1,3.7,4.154" transform="translate(62.737 61.763)" fill="#585859"/>
            <path id="Trazado_770680" data-name="Trazado 770680" d="M48.255,40.86,39.08,81.61H37.534a2.153,2.153,0,0,1-2.093-2.649l8.617-36.444a2.151,2.151,0,0,1,2.093-1.657Z" transform="translate(44.934 51.89)" fill="#585859"/>
            <path id="Trazado_770681" data-name="Trazado 770681" d="M48.727,58.812l-1.609,9.055h5.319l1.609-9.055Z" transform="translate(59.838 74.688)" fill="#fff"/>
            <path id="Trazado_770682" data-name="Trazado 770682" d="M43.714,63.459l1.09-1.53a2.069,2.069,0,0,1,1.689-.872H61.075a2.074,2.074,0,0,1,1.836,1.112l.733,1.405a.985.985,0,0,1-.874,1.441H44.518a.985.985,0,0,1-.8-1.557" transform="translate(55.281 77.54)" fill="#fff"/>
            <path id="Trazado_770683" data-name="Trazado 770683" d="M30.226,64.886H74.032l.474-1.653a1.627,1.627,0,0,0-1.562-2.077H32.523a1.631,1.631,0,0,0-1.564,1.178Z" transform="translate(38.386 77.665)" fill="#fff"/>
            <path id="Trazado_770684" data-name="Trazado 770684" d="M67.129,44.258l-19.374-.014a1.361,1.361,0,0,1-1.36-1.362l.007-11.9a1.363,1.363,0,0,1,1.362-1.36l19.374.014a1.36,1.36,0,0,1,1.36,1.362l-.007,11.9a1.363,1.363,0,0,1-1.362,1.36" transform="translate(58.92 37.615)" fill="#768ec1"/>
            <path id="Trazado_770685" data-name="Trazado 770685" d="M57.738,35.1l-1.768,6.671L52.882,35.5Z" transform="translate(67.158 44.575)" fill="#768ec1"/>
            <path id="Trazado_770686" data-name="Trazado 770686" d="M58.916,33.846c-.395,2.5-5.06,5.627-5.06,5.627s-4.492-3.133-4.746-5.634c-.277-2.71,2.933-3.541,4.944-1.5,2.127-2.041,5.291-1.208,4.862,1.5" transform="translate(62.345 39.626)" fill="#fff"/>
            <path id="Trazado_770687" data-name="Trazado 770687" d="M213.491,110.113c0,1.8-14.771,3.26-32.992,3.26s-32.989-1.46-32.989-3.26,14.771-3.26,32.989-3.26,32.992,1.46,32.992,3.26" transform="translate(187.331 135.699)" fill="#b0c0d2"/>
            <path id="Trazado_770688" data-name="Trazado 770688" d="M195.046,99.878H153.4a1.435,1.435,0,0,1-1.435-1.435v-.658a1.434,1.434,0,0,1,1.435-1.432h41.649a1.434,1.434,0,0,1,1.435,1.432v.658a1.435,1.435,0,0,1-1.435,1.435" transform="translate(192.985 122.364)" fill="#373f51"/>
            <path id="Trazado_770689" data-name="Trazado 770689" d="M153.51,79.141H194.2a1.225,1.225,0,0,1,1.223,1.226v5a1.224,1.224,0,0,1-1.223,1.226H153.51a1.226,1.226,0,0,1-1.226-1.226v-5a1.226,1.226,0,0,1,1.226-1.226" transform="translate(193.394 100.506)" fill="#585859"/>
            <path id="Trazado_770690" data-name="Trazado 770690" d="M169.791,83.1S152.632,79.7,147.845,67.733s12.719-20.949,21.946-14.521c9.872,6.878,0,29.884,0,29.884" transform="translate(186.722 64.857)" fill="#4adbd1"/>
            <path id="Trazado_770691" data-name="Trazado 770691" d="M175.562,113.581a.31.31,0,0,1-.306-.266c-1.643-11.118-8.269-27.117-13.538-38.578-5.713-12.43-11.1-22.35-11.159-22.448a.31.31,0,1,1,.545-.3c.054.1,5.457,10.038,11.177,22.486,5.287,11.5,11.935,27.555,13.588,38.746a.311.311,0,0,1-.261.354l-.045,0" transform="translate(191.154 65.822)" fill="#373f51"/>
            <path id="Trazado_770692" data-name="Trazado 770692" d="M168.013,78.543a.312.312,0,0,1-.275-.163c-7.461-13.9-19.581-23.987-19.7-24.087a.31.31,0,0,1,.395-.479c.123.1,12.333,10.26,19.855,24.273a.31.31,0,0,1-.125.42.315.315,0,0,1-.148.036" transform="translate(187.855 68.253)" fill="#373f51"/>
            <path id="Trazado_770693" data-name="Trazado 770693" d="M169.243,74.4a.306.306,0,0,1-.236-.109,59.608,59.608,0,0,0-14.734-12.6,37.022,37.022,0,0,0-6.835-3.3.309.309,0,1,1,.186-.59,36.711,36.711,0,0,1,6.946,3.348A60.131,60.131,0,0,1,169.48,73.894a.309.309,0,0,1-.034.436.314.314,0,0,1-.2.075" transform="translate(186.965 73.385)" fill="#373f51"/>
            <path id="Trazado_770694" data-name="Trazado 770694" d="M158.055,79.075a.314.314,0,0,1-.3-.211c-4.184-12.278-2.642-27.2-2.626-27.348a.309.309,0,0,1,.615.066c-.014.148-1.539,14.936,2.6,27.083a.31.31,0,0,1-.2.395.293.293,0,0,1-.1.016" transform="translate(196.644 65.071)" fill="#373f51"/>
            <path id="Trazado_770695" data-name="Trazado 770695" d="M157.232,78.715a.311.311,0,0,1-.306-.261,43.258,43.258,0,0,1,.754-18.062,28.689,28.689,0,0,1,2.629-6.805.308.308,0,0,1,.424-.107.311.311,0,0,1,.109.424,28.632,28.632,0,0,0-2.567,6.674,42.618,42.618,0,0,0-.735,17.776.309.309,0,0,1-.257.356l-.05,0" transform="translate(198.518 67.861)" fill="#373f51"/>
            <path id="Trazado_770696" data-name="Trazado 770696" d="M166.878,84.216s17.329-2.37,22.818-14.037-11.456-21.664-21.049-15.794c-10.262,6.281-1.768,29.832-1.768,29.832" transform="translate(207.735 66.866)" fill="#4adbd1"/>
            <path id="Trazado_770697" data-name="Trazado 770697" d="M162.309,110.3h0a.311.311,0,0,1-.306-.313A64.369,64.369,0,0,1,165.709,90.6a127.765,127.765,0,0,1,7.861-18.151,166.738,166.738,0,0,1,11.338-18.714.311.311,0,0,1,.5.363,166.464,166.464,0,0,0-11.3,18.645c-5.162,9.911-11.345,24.418-11.5,37.252a.31.31,0,0,1-.311.3" transform="translate(205.73 68.081)" fill="#373f51"/>
            <path id="Trazado_770698" data-name="Trazado 770698" d="M165.526,79.259a.336.336,0,0,1-.163-.045.31.31,0,0,1-.1-.427c8.338-13.543,21.129-22.961,21.256-23.054a.311.311,0,1,1,.368.5c-.127.093-12.823,9.443-21.095,22.877a.312.312,0,0,1-.266.148" transform="translate(209.816 70.703)" fill="#373f51"/>
            <path id="Trazado_770699" data-name="Trazado 770699" d="M165.352,75.057a.31.31,0,0,1-.216-.086.313.313,0,0,1-.011-.438,60.227,60.227,0,0,1,15.64-11.842,36.838,36.838,0,0,1,7.13-2.931.31.31,0,1,1,.152.6,37.025,37.025,0,0,0-7.016,2.892,59.476,59.476,0,0,0-15.454,11.708.315.315,0,0,1-.225.1" transform="translate(209.595 75.879)" fill="#373f51"/>
            <path id="Trazado_770700" data-name="Trazado 770700" d="M166.11,80.391a.31.31,0,0,1-.288-.429c4.851-11.879,4.206-26.731,4.2-26.881a.311.311,0,0,1,.622-.03c.007.15.661,15.138-4.243,27.146a.312.312,0,0,1-.288.193" transform="translate(210.557 66.998)" fill="#373f51"/>
            <path id="Trazado_770701" data-name="Trazado 770701" d="M166.634,80.2a.347.347,0,0,1-.068-.007.313.313,0,0,1-.236-.372,42.609,42.609,0,0,0,.32-17.79,28.7,28.7,0,0,0-2.168-6.812.311.311,0,0,1,.552-.286,28.659,28.659,0,0,1,2.22,6.951,43.21,43.21,0,0,1-.318,18.073.308.308,0,0,1-.3.243" transform="translate(208.84 69.551)" fill="#373f51"/>
            <path id="Trazado_770702" data-name="Trazado 770702" d="M170.314,75.439s-14.682-9.5-14.7-22.4,19.572-14.75,25.764-5.362C188,57.724,170.314,75.439,170.314,75.439" transform="translate(197.625 53.066)" fill="#4adbd1"/>
            <path id="Trazado_770703" data-name="Trazado 770703" d="M161.55,108.4a.277.277,0,0,1-.073-.009.308.308,0,0,1-.229-.372c2.59-10.939,2.358-28.252,1.709-40.85-.7-13.663-2.041-24.872-2.054-24.985a.311.311,0,0,1,.617-.073c.014.111,1.351,11.343,2.057,25.026.651,12.639.883,30.016-1.725,41.025a.31.31,0,0,1-.3.238" transform="translate(204.337 53.125)" fill="#373f51"/>
            <path id="Trazado_770704" data-name="Trazado 770704" d="M167.511,73.053a.311.311,0,0,1-.309-.275c-1.784-15.676-9.307-29.532-9.384-29.671a.311.311,0,0,1,.545-.3c.077.141,7.657,14.1,9.457,29.9a.308.308,0,0,1-.272.343l-.036,0" transform="translate(200.374 54.16)" fill="#373f51"/>
            <path id="Trazado_770705" data-name="Trazado 770705" d="M170.187,69.665a.314.314,0,0,1-.3-.211,59.592,59.592,0,0,0-9.019-17.163,36.939,36.939,0,0,0-5.128-5.6.311.311,0,0,1,.393-.481,36.854,36.854,0,0,1,5.212,5.682,60.236,60.236,0,0,1,9.132,17.363.312.312,0,0,1-.2.393.316.316,0,0,1-.1.016" transform="translate(197.646 58.598)" fill="#373f51"/>
            <path id="Trazado_770706" data-name="Trazado 770706" d="M162.194,69.8h-.016a.312.312,0,0,1-.3-.327c.661-12.955,7.616-26.245,7.686-26.377a.31.31,0,0,1,.549.288c-.07.132-6.962,13.306-7.616,26.12a.309.309,0,0,1-.309.3" transform="translate(205.584 54.519)" fill="#373f51"/>
            <path id="Trazado_770707" data-name="Trazado 770707" d="M162.229,68.492a.6.6,0,0,1-.066,0,.312.312,0,0,1-.238-.37,43.793,43.793,0,0,1,7.409-16.577,29.3,29.3,0,0,1,4.978-5.43.31.31,0,1,1,.381.488,29.694,29.694,0,0,0-4.876,5.33,43.176,43.176,0,0,0-7.287,16.321.31.31,0,0,1-.3.243" transform="translate(205.629 58.474)" fill="#373f51"/>
            <path id="Trazado_770708" data-name="Trazado 770708" d="M190.89,71.5l-.513,1.357-.322.86-.928,2.465-.325.86-.953,2.533-.325.858-4.088,10.862H161.088L157,80.431l-.325-.858-.953-2.533-.325-.86-.928-2.465-.322-.86-.513-1.357a1.422,1.422,0,0,1,1.33-1.925h34.594A1.424,1.424,0,0,1,190.89,71.5" transform="translate(194.989 88.353)" fill="#5573c6"/>
            <path id="Trazado_770709" data-name="Trazado 770709" d="M190.04,71.019l-.322.86H154.131l-.325-.86Z" transform="translate(195.328 90.19)" fill="#3a67cc"/>
            <path id="Trazado_770710" data-name="Trazado 770710" d="M188.087,72.483l-.325.86h-33.08l-.325-.86Z" transform="translate(196.028 92.051)" fill="#3a67cc"/>
            <path id="Trazado_770711" data-name="Trazado 770711" d="M186.094,73.978l-.322.86H155.246l-.325-.86Z" transform="translate(196.743 93.948)" fill="#3a67cc"/>
            <path id="Trazado_770712" data-name="Trazado 770712" d="M171.382,82.423l-1.239,4-17.249,55.6H149.52l10.941-54.468,1.031-5.13Z" transform="translate(189.883 104.673)" fill="#373f51"/>
            <path id="Trazado_770713" data-name="Trazado 770713" d="M186.331,142.021H182.96L165.2,84.772l-.731-2.349h9.89l.25,1.244Z" transform="translate(208.868 104.673)" fill="#373f51"/>
            <path id="Trazado_770714" data-name="Trazado 770714" d="M195.046,96.5H153.4a1.435,1.435,0,0,1-1.435-1.435v-.658a1.434,1.434,0,0,1,1.435-1.432h41.649a1.434,1.434,0,0,1,1.435,1.432v.658a1.435,1.435,0,0,1-1.435,1.435" transform="translate(192.985 118.074)" fill="#585859"/>
            <path id="Trazado_770715" data-name="Trazado 770715" d="M76.444,21.37A16.127,16.127,0,1,1,60.318,5.444,16.026,16.026,0,0,1,76.444,21.37" transform="translate(56.122 6.914)" fill="#ced3e6"/>
            <path id="Trazado_770716" data-name="Trazado 770716" d="M76.444,20.457A16.127,16.127,0,1,1,60.318,4.531,16.026,16.026,0,0,1,76.444,20.457" transform="translate(56.122 5.754)" fill="#5573c6"/>
            <path id="Trazado_770717" data-name="Trazado 770717" d="M58.632,31.736A13.045,13.045,0,0,1,45.521,18.791a13.11,13.11,0,0,1,26.218,0A13.044,13.044,0,0,1,58.632,31.736" transform="translate(57.81 7.42)" fill="#fff"/>
            <path id="Trazado_770718" data-name="Trazado 770718" d="M71.74,18.79c0,.345-.014.686-.041,1.024a13.123,13.123,0,0,0-26.136,0c-.027-.338-.041-.679-.041-1.024a13.11,13.11,0,0,1,26.218,0" transform="translate(57.811 7.422)" fill="#ced3e6"/>
            <path id="Trazado_770719" data-name="Trazado 770719" d="M55.078,17.286a.324.324,0,0,1-.263-.132L48.384,8.606a.321.321,0,0,1,.068-.454.331.331,0,0,1,.459.066l6.274,8.344,7.132-3.092a.327.327,0,0,1,.431.168.323.323,0,0,1-.168.427L55.21,17.259a.334.334,0,0,1-.132.027" transform="translate(61.363 10.271)" fill="#373f51"/>
          </g>
        </g>
      </g>
    </g>
  </g>
</svg>
