<svg id="Grupo_1028908" data-name="Grupo 1028908" xmlns="http://www.w3.org/2000/svg" xmlns:xlink="http://www.w3.org/1999/xlink" width="371.531" height="522.672" viewBox="0 0 371.531 522.672">
  <defs>
    <clipPath id="clip-path">
      <rect id="Rectángulo_363603" data-name="Rectángulo 363603" width="371.531" height="522.672" fill="none"/>
    </clipPath>
    <clipPath id="clip-path-3">
      <rect id="Rectángulo_363573" data-name="Rectángulo 363573" width="328.048" height="389.275" fill="none"/>
    </clipPath>
    <linearGradient id="linear-gradient" x1="0.5" x2="0.5" y2="1" gradientUnits="objectBoundingBox">
      <stop offset="0" stop-color="#dedede"/>
      <stop offset="0.517" stop-color="#fff"/>
      <stop offset="1" stop-color="#dedede"/>
    </linearGradient>
    <clipPath id="clip-path-4">
      <rect id="Rectángulo_363584" data-name="Rectángulo 363584" width="36.137" height="3.212" fill="none"/>
    </clipPath>
  </defs>
  <g id="Grupo_1028907" data-name="Grupo 1028907" clip-path="url(#clip-path)">
    <line id="Línea_3593" data-name="Línea 3593" y1="195.313" x2="112.341" transform="translate(188.935 286.14)" fill="none" stroke="#afafaf" stroke-miterlimit="10" stroke-width="3.046"/>
    <g id="Grupo_1028901" data-name="Grupo 1028901">
      <g id="Grupo_1028900" data-name="Grupo 1028900" clip-path="url(#clip-path)">
        <g id="Grupo_1028899" data-name="Grupo 1028899" transform="translate(26.189 81.943)" opacity="0.3" style="mix-blend-mode: multiply;isolation: isolate">
          <g id="Grupo_1028898" data-name="Grupo 1028898">
            <g id="Grupo_1028897" data-name="Grupo 1028897" clip-path="url(#clip-path-3)">
              <path id="Trazado_772033" data-name="Trazado 772033" d="M351.716,88.61v5.569c-3.129.445-5.243,1.167-3.483,2.73,3.265,2.9-5.438,5.442-.721,7.983s3.268,8.344-1.448,8.344.363,3.264-3.264,6.892-2.538,6.167-7.617,6.167,6.168,7.983.363,7.983-7.619,7.256-1.814,6.53,5.442,1.814-.726,4.716-15.963,2.9-18.864,7.619-13.786,4.354-13.786,8.707-1.814,20.316-10.158,17.414-10.158-11.248-13.422-16.326,1.814-10.52-1.451-12.336,7.255-10.157,3.627-7.617-9.432-1.089-4.353-2.177,3.264-6.167-.363-5.079-7.619-.726-2.9-4.353,2.8-2.54-.468-3.627c-1.568-.523-2.589-2.384-2.589-4.335V85.074c6.258,1.1,7.513,5.978,11.659,4.943,4.353-1.089-5.207-10.522,5.677-3.99s2.837-.727,7.553-.727-3.3-6.893,5.047-6.53,8.328-4.717,18.849-4.717c12.7,0,35.544,10.522,23.936,9.071s-27.212-1.815-19.957,2.537,8.7-3.989,11.244,0,6.884,0,9.786,2.542c2.673,2.338,6.52,1.908,9.649.406M268.274,411.9V316.583a12.294,12.294,0,0,0,7.305,3.076c4.716,0,3.862,4.716,3.862,9.433s6.1,4.715,12.633,6.893,9.4,1.813,15.931,5.8,7.964,6.167,4.7,10.883-10.166,11.972-10.529,18.866-4.721,13.423-9.436,14.148-9.073,4.353-9.073,7.619-4.354,1.814-4.717,7.98-5.548,13.061-8.088,11.973c-.638-.272-1.547-.8-2.589-1.352m0-193.238V206.995c3.129.969,3.977,4.442,5.324,7.356,1.629,3.533.671,7.065-4.763,4.62-.235-.105-.561-.208-.561-.3m0-133.592v38.337a8.454,8.454,0,0,0-5.978-5.1c-3.3-.735-6.539-.447-10.711-.36V90.33c8.344-.572,7.154-6.08,15.065-5.393.4.035.581.081,1.624.137m0,121.92v11.672c-5.215-2.151-7.9-2.365-5.818-7.3,2.174-5.163-.415-4.891,3.118-4.62a9.974,9.974,0,0,1,2.7.252m0,109.588V411.9c-4.173-1.647-8.109-3.539-5.392.264,3.628,5.078,4,7.618.012,9.432-3.675,1.669-8.18,8.258-11.309,7.312V308.425a16.677,16.677,0,0,1,7.809,2.526c3.035,1.786,5.751,3.923,8.88,5.631M251.585,226.24v-4.683c3.129-.186,3.439,4.75.659,4.75-.228,0,.384-.024-.659-.068m0-16.5c0,.944,1.891,1.289,2.836-.365,1.452-2.538,4.464-4.352,10.632-4.352s-2.847-6.167-1.758-8.707-4.548-3.627-7.45-6.53c-2.11-2.11-2.172-7.29-4.259-10.1Zm0-51.411v-4.535c2.087,2,2.087,4.11,0,4.535m0-73.689c1.043-.143.764-.283,1.162-.424,2.408-.85,1.967-1.7-1.162-2.377Zm0-2.8v2.8c-1.042.686-3.129,1.381-4.172,2.132v-5.8a18.582,18.582,0,0,1,4.172.863m0,8.495v27.624a23.822,23.822,0,0,1-4.172-.165V102.155c2.086-1.359,2.086-3.867,0-5.089v-6.41a15.726,15.726,0,0,1,3.07-.277,6.755,6.755,0,0,0,1.1-.049m0,63.46v4.535c0,.124-.73.105-1.465-.105a9.11,9.11,0,0,0-2.707-.489v-7.677c0,.068.013.131.167.186,1.84.656,4,2.077,4,3.551m0,25.893v30.053c0-.506-.942-1.182-1.828-1.815a3.155,3.155,0,0,0-2.344-.355V177.978c0-.164.745-.233,1.618-.167,1.287.1,2.554.82,2.554,1.873m0,41.873v4.683c-2.086-.534-3.711-4.05-.7-4.553.248-.074.7-.116.7-.129m0,86.868V428.914c0-.08-.227-.218-.429-.421-2.54-2.537-2.014.364-2.014,2.9a14.935,14.935,0,0,1-1.728,6.687V308.307a21.051,21.051,0,0,1,4.172.118m-4.276-15.772V291.7c.357.365.415.728,0,.955m.1-64.639a1.555,1.555,0,0,0,.488.049c2.06,0,1.6-3.656-.488-3.52Zm0-6.13c0-.175.294-.353.442-.539a4.985,4.985,0,0,0-.442-7.2Zm0-51.121v-6.728a5.327,5.327,0,0,1,0,6.728m0-89.791v5.8c-1.043.8-3.129,1.67-4.173,2.655V80.6a36.632,36.632,0,0,1,4.173.367m0,9.683v6.41c0-.219-.643-.4-1.01-.519-2.8-.935-4.2-4.816,1.01-5.891m0,11.5v15.634a14.713,14.713,0,0,1-4.173-1.165v-3.809c2.087-1.657,4.736-3,1.967-3.208a14.032,14.032,0,0,0-1.967.011v-6.553a9.227,9.227,0,0,0,4.173-.911m0,47.9v7.677c-3.129-.073-4.722,1.779-1.01,5.205.391.361,1.01.728,1.01,1.1v6.728a3.52,3.52,0,0,1-3.421.518l-.751-.206V143.731c1.043,2.578,2.087,5.243,4.173,6.323m0,27.924v29.589a19.957,19.957,0,0,0-4.173.988V182.3c1.043-.041.575-.085.751-.137,2.957-.887,1.336-3.46,3.421-4.187m0,36.163v7.744a8.039,8.039,0,0,1-4.173,3.2V211.4a7.743,7.743,0,0,1,4.173,2.74m0,10.4c0,.009-.335.042-.519.1-2.232.373-1.567,2.979.519,3.374Zm0,67.155v.955c0,.175-1.15.271-2.1.23-.654-.029-1.027-.114-2.07-.236v-2.215l.38.008a7.436,7.436,0,0,1,3.793,1.258m0,16.608V438.083c-1.043.575-1.284.933-2.15.933-3.265,0,2.692,9.069.88,10.159a12.474,12.474,0,0,0-2.9,3.406V308.435c1.043-.014.833-.024,1.114-.024.861,0,2.015-.061,3.059-.1M243.24,80.6v8.818c-1.042.828-1.29,1.742-2.011,2.771-1.243,1.775-4.247,3.463-6.333,4.682V80.71c0-.022.66-.063,1.254-.127a41.478,41.478,0,0,1,7.09.022m0,22.461v6.553c-3.128.19-6.258.983-8.343.688V104.6c1.042-1.52,2.922-1.52,8.148-1.52.2,0,.2,0,.2-.011m0,9.75v3.809c0-.04-.139-.082-.209-.124-1.948-1.2-.833-2.521.209-3.685m0,30.916v27.344c-2.086-.775-5.215-2.1-8.343-3.3V136.758a31.388,31.388,0,0,0,4.156,1.147,5.678,5.678,0,0,1,4.187,5.826m0,38.571v26.253c-2.086.972-4.289,2.27-2.386,2.27.707,0,2.386.207,2.386.577v13.684c-2.086,1.638-4.7,2.21-6.365,3.88-1.006,1.006-1.979,2.3-1.979,3.489V173.107c2.086,1.745,3.793,3.694,3.793,5.067,0,3.1,1.422,4.9,4.55,4.129m0,108.131v2.215c-3.128-.673-4.172-2.485,0-2.215m0,18V452.581c-2.086,3.331-4.38,7.839-4.38,7.839s.646,5.078-3.344,1.815c-.308-.252-.62-.547-.62-.873V392.154c1.042-1.853,3.9-3.218,2.525-5.743-2.178-3.99.458-8.707-2.081-10.885-.176-.149-.444-.322-.444-.509V307.533c2.086,1.756,5.215,1.046,8.343.9M234.9,292.268v-4.974a5.456,5.456,0,0,1,.969-.048c3.193-.188,2.914,5.071-.467,5.071a1.552,1.552,0,0,1-.5-.05m0-211.558V96.876c-3.129,1.273-6.321,2.034-8.359,1.848-3.991-.363-1.569,9.432-4.472,9.432-.2,0-.729.039-.729.108V79.115a21.9,21.9,0,0,1,2.639.018c5.3,0,5.705,1.817,10.921,1.577m0,23.887c0,.7-1.067,1.713-1.637,3.2-.633,1.648-.45,2.32,1.637,2.514Zm0,32.161v31.018a55.391,55.391,0,0,0-11.645-2.661c-.615-.036-.871-.121-1.914-.24v-5.609c5.215-.582,3.635-4.749,6.8-7.211,3.265-2.541,3.254-2.541-1.826-6.168a14.741,14.741,0,0,0-4.975-2.347V132.474c2.086,1.363,8.344,3.06,13.56,4.283m0,36.349v59.346c-1.043,1.816-2.322,3.4-4.732,3.4-3.989,0-6.285,9.071-6.285,12.336,0,1.271-1.5,2.376-2.543,3.425v-82.18c1.043-.157,1.286-.269,1.914-.331,3.364-.42,7.473,1.6,11.645,4m0,114.188v4.974c-3.129-.5-6.259-4.511,0-4.974m0,20.239v67.484c-3.129-2.5-5.734-7.832-9.448-7.832-3.99,0-3.383-3.992-3.383-7.258,0-.548-.729-1.169-.729-1.842V308.726c2.086.147,3.652.158,4.986-.677,2.9-1.813,6.009-5.44,7.459-1.813.215.537.071.96,1.114,1.3m0,84.621v69.207c-4.173-3.915-6.293-12.775-7.633-15.453-1.452-2.9.266-3.267,2.443-6.893s1.766-6.53-.411-13.059-1.476-11.611,1.789-14.149,1.631-10.884,1.631-15.6c0-1.734,1.136-2.977,2.18-4.053m-13.56-106.6v-2.8c3.129.237,5.779,3.186,2.272,3.186a9.251,9.251,0,0,1-2.272-.384m0-8.477v-4.541c4.172,1.354,6.375,6.589,3.586,4.948a4.192,4.192,0,0,0-3.586-.407m0-124.292c0-.124.923-.335,1.419-.655,3.292-2.116,1.711-4.231-1.419-4.059Zm0-22.069v-2.472c2.086.916,2.619,1.85.249,2.408-.089.022-.249.042-.249.064m0-51.6v29.149c-2.086.8-5.215,5.824-8.344,7.175V95.575c3.129-1.1,4.173-2.707,0-3.218v-11.5a33.064,33.064,0,0,1,8.344-1.742m0,49.125v2.472c-1.043.417-1.043,1.043,0,1.762v11.064a37.459,37.459,0,0,0-8.344-1.47V125.918a35.709,35.709,0,0,1,8.344,2.323m0,19.827v4.714c-3.129.823-4.609-2.33-1.3-4.458.439-.146,1.3-.228,1.3-.256m0,11.2v5.609c-4.172-1.089-5.377-5.238-.477-5.566a3.154,3.154,0,0,0,.477-.043m0,10.17v82.18c-2.086,1.643-5.151,3.146-6.26,4.92-1.814,2.9-.323,5.8-.323,10.883,0,2.821-.718,3.849-1.762,3.215v-67.3c1.043,1.766,2.316,2.263,2.5-1.218.363-6.893.349-11.247,3.25-11.247s.334-3.627-.755-8.705c-.994-4.641-1.865-11.1,3.351-12.73m0,103.1v4.541c-1.043.376-2.374,1.037-3.529.407-2.067-1.125-1.514-4.7,1.868-5.258.571,0,1.661.115,1.661.31m0,10.217v2.8c-2.086-.849-3.677-2.811-.734-2.811a5.292,5.292,0,0,1,.734.009m0,25.977v11.683c0-1.466-1.223-3.07-1.877-4.379-.769-1.538-3.338-1.446-6.468-1.452V308.9a4.068,4.068,0,0,0,2.476-.126c1.567-.586,3.782-.221,5.868-.048m0,14.2v35.154c-2.086-2.816-6.259-6.559-8.344-9.835V332.9c0-.066.2-.126.322-.181,3.991-1.815,2.141-7.257,6.131-8.344,1.045-.286,1.891-.795,1.891-1.444M212.993,282.1v-3.749c3.129.716,5.056,4.35,1.327,4.011-.46-.043-1.327-.134-1.327-.262m0-115.736v-2.193c1.043,1.184,1.043,2.132,0,2.193m0-42.848v-4.267c3.129.759,5.124,1.8,3.253,3.053a10.1,10.1,0,0,1-3.253,1.214m0-42.662v11.5a27.4,27.4,0,0,0-3.019-.164c-1.19,0-2.2.019-3.239.048V82.966c2.086-.721,4.172-1.467,6.258-2.109m0,14.718v19.864a8.809,8.809,0,0,1-1.93.335c-1.2,0-2.242.16-4.328.351V96.608a6.616,6.616,0,0,1,.7-.061,22.7,22.7,0,0,0,5.558-.972m0,23.677v4.267a26.868,26.868,0,0,1-6.258.169v-5.4q3.129.344,6.258.962m0,6.666v16.151c-2.086-.142-3.787-.175-5.2-.175a6.464,6.464,0,0,1-1.062-.059V125.644c1.042-.032.969-.056,1.424-.074a25.125,25.125,0,0,1,4.833.349m0,38.256v2.193a5.3,5.3,0,0,1-1.205-.165c-1.84-.526-2.967-.051-5.052.56v-7.185c2.086.747,5.215,2.909,6.258,4.6m0,39.162v67.3c-1.042-.508-2.533-2.083-4.469-4.665-.528-.7-.746-1.292-1.788-1.788V193.348c2.086,1.031,3.965,2.162,3.965,3.689,0,1.618,1.25,4.568,2.293,6.3m0,75.018V282.1c-3.129-1.018-5.119-4.371-1.114-3.871a3.355,3.355,0,0,1,1.114.122m0,30.546v5.679c-2.086,0-5.069-.086-5.921-1.451-.08-.128-.336-.267-.336-.415v-8.8c2.086,2.523,4.172,4.48,6.258,4.991m0,24V348.25c0-.6-.82-1.185-1.1-1.746-2.111-4.22-3.072-11.511,1.1-13.6m-6.258-162.666v-.671c0-.439.989-.851,2.4-1.133,4.62-1.088,4.038,2.444,1.865,3.26-1.325.5-3.224-.419-4.267-1.456m0-13.577V144.388s.7.016,1.034.045c3.99.364,6.129,11.973,1.776,11.973a18.739,18.739,0,0,0-2.81.251m0-73.692v9.275c-6.259.188-6.812.8-11.54-.775a16.134,16.134,0,0,0-2.019-.706V86.036c1.042-.007.663-.009.932-.009,3.828,0,8.455-1.473,12.628-3.061m0,13.642v19.517c-5.215.614-10.769,1.527-10.215-1.8a10.9,10.9,0,0,1,7.582-9.068c4.252-1.42-5.712-7.683,2.632-8.647m0,21.683c0-.335-6.546-.461-8.638-.34-2.2.129-2.836-.386-4.922-1.038v6.2a11.918,11.918,0,0,1,4.2-.44c2.46.176,6.233.777,9.362,1.02Zm0,7.353v16.192c-4.173-.554-11.015-4.9-11.015-8.285,0-3.459,2.67-7.248,11.015-7.907m0,18.745v12.269a32.712,32.712,0,0,0-6.223,1.925s-1.288,6.893-5.279,6.893a7.023,7.023,0,0,0-2.057.4V147.729l.282-.029c2.54-1.815,5.2-.364,5.56,2.54s2.887,2.175,2.887-1.089c0-2.991,1.7-4.765,4.83-4.763m0,15.188c0-.17-1-.269-1.506-.269-3.991.727-6.568,2.9-4.392,7.257,1.389,2.775,3.811,1.275,5.9.2Zm.15,9.988v.671a.756.756,0,0,1,0-.671m-.15,23.783v70.831c-4.173-3.582-10.166-2.027-13.354-.751l-.206.017V188.722c1.042.328,2.014.677,3.108,1.06,3.86,1.35,8.364,2.395,10.451,3.565m0,110.562v8.8c-1.043-3.209-2.38-10.831-8.275-10.831-1.924,0-3.2-.565-5.285-1.354V283.419c4.172-3.041,7.728-5.633,7.728-3.132,0,3.627-3.7,15.792,1.743,15.792s1.8,3.988,3.974,7.617Zm-13.56-192.082v-3.161c2.086.749,2.086,2.7,0,3.161m0-6.168c1.042-.212.993-.467,1.495-.768,5.266-3.16,2.677-9.037-1.495-9.743Zm0-19.623v4.725c-4.173-1.846-6.259-4.538,0-4.725m0,9.112c0-.023.024-.042-.081-.053-3.265-.363-2.421-5.8-9.314-5.078-5.8-.363,2,7.255,1.273,11.609-.658,3.951,3.949,6.109,8.122,4.033Zm0,13.518v3.161c0,.086-.534.119-1.047.086-4.075-.272-4.194-3.532-.391-3.532.593-.054,1.437.063,1.437.284m0,8.247v6.2c-1.043.525-2.433,1.07-4.072-.8-2.54-2.9-5.2-7.983-.481-7.256,1.868-.934,3.51.685,4.553,1.863m0,30.816v18.148c-1.043.886-.511,2.942-3.346,3.227-3.627.363-2.783,6.893-4.6,7.982s.91,3.265,1.271,6.167c.308,2.464,2.5,3.621,6.671,5.47v74.722c-3.129,1.414-7.876-1.094-11.129,1.8a3.319,3.319,0,0,0-1.388,2.2V150.15c4.172-.2,6.526-.813,4.89-2.45-2.177-2.178-2.44-4.717-4.254-5.08-.273-.054-.636-.176-.636-.344V138.33c0-.294.449-.563.9-.789,2.9-1.451,3.529-3.989,5.342-1.088s-1.375,6.893,2.615,6.53c3.967-.361,1.574,6.448,3.659,4.746m0,135.69v17.108c-3.129-1.737-6.024-4.562-10.767-4.813a5.162,5.162,0,0,1-1.749-.246V284.206c2.086,3,5.874,5.933,8.643,3.165a44.927,44.927,0,0,0,3.873-3.951M180.659,147.846c0-.443,1.042-1.529,0-2.545Zm0-25.446c0,.225,2.79.382,4.225.382,4,0-1.1-2.858-4.225-3.619Zm0-6.955c0,.757,7.3-2.174,4.841-2.174-2.989,0,.914-4.89-2.075-4.89-.97,0-2.766.707-2.766,1.832Zm0-5.94v-4.37c1.042,1.517,1.042,3.613,0,4.37M185.3,125.77c-4.619.272-4.347,3.262-3.26,5.979s2.445,2.717,3.26,1.086,5.163-2.172,6.25-4.889-2.989-2.175-6.25-2.175m-4.642-20.634v4.37a3.952,3.952,0,0,1-2.657.1,28.016,28.016,0,0,0-5.688-.775v-5.785a22.183,22.183,0,0,0,4.236.393,5.787,5.787,0,0,1,4.109,1.7m0,5.078v5.232c-1.043-.165-.841-.5-.939-1.088a4.582,4.582,0,0,1,.939-4.144m0,8.949c0-.116-1.083-.185-1.409-.185-2.445,0-3.016-4.075-6.821-4.075l-.115-.009v6.049c2.086.264,5.215,1,8.344,1.457Zm0,19.168v3.946c-1.043-.783-2.087-2.627,0-3.946m0,6.971v2.545a13.663,13.663,0,0,1-2.151.206c-2.854,0-5.15-.8-6.193-1.749v-2.746c0-.246,1.392-.4,2.388-.4,1.993,0,3.87,1.027,5.957,2.14m0,4.849V267.441c-3.129,4.147-5.205,11.452-2.53,14.125.772.775,1.486,1.71,2.53,2.64v11.262a31.069,31.069,0,0,1-8.344-2.626V150.116c1.043.077,1.811.124,2.785.124,2.069,0,3.472-.023,5.559-.09m-8.344-11.924V125.868c0-.154.839-.28,1.375-.37,4.075,0,2.138,7.609,4.311,7.335s-.761,5.436-5.109,5.436a2.336,2.336,0,0,1-.578-.044m0-40.864V95.129c0-.246.955-.4,1.861-.4,3.99-.363,6.566,4.716,2.575,4.716a6.313,6.313,0,0,1-4.436-2.087m0-2.233v2.233c-1.043-.844-1.043-1.734,0-2.233m0,7.918v5.785c-2.086-.033-3.129.079-5.215.116v-6.963c2.086.378,3.129.778,5.215,1.062m0,11.846v6.049a5.3,5.3,0,0,0-.728-.062c-4.05-.272-3.444-6.441.728-5.988m0,10.975v12.358c-2.086-.231-3.129-1.351-5.215-2.6v-3.893c3.129-.118,5.494-1.155,3.7-2.433-1.589-1.136-.574-2.651,1.512-3.436m0,17.688V146.3c-1.043-.993-1.043-2.152,0-2.746m0,6.56V292.843a36.545,36.545,0,0,0-5.215-1.8V149.1a38.38,38.38,0,0,0,5.215,1.016m-4.877-6.811v-1.5a4.112,4.112,0,0,0,.862.094c1.606,0,.989.778-.862,1.411m-.339-41.32v6.963a23.786,23.786,0,0,1-2.76-.069,5.355,5.355,0,0,1-3.5-2.173v-5.792a32.078,32.078,0,0,1,6.259,1.07m0,29.752v3.893c-1.043-1.809-2.6-3.882-.613-3.882.208,0,.613,0,.613-.011m0,10.063c0-.553-5.215-3.551-6.259-8.253v10.507s.037.006.233.017a13.947,13.947,0,0,0,6.025-.766Zm0,7.3V291.038c0-.2-1.024-.349-1.671-.4-2.823-.238-3.544-4.285-4.588-7.695V147.025A25.836,25.836,0,0,1,167.1,149.1m-6.657-27.494V119.8c3.282.1,3.031,1.41,0,1.806m.4-5.234v-2.811a3.255,3.255,0,0,1,.477-.018c3.8,0,4.719,2.988.915,2.988a3.789,3.789,0,0,1-1.392-.159m0-15.456v5.792c-3.129-2.7-3.637-6.822-.849-5.807.288,0-.194.006.849.015m0,12.646v2.811c-3.129-.586-4.172-2.593,0-2.811m0,6.239s-.468-.007-.61-.007c-4.62,0-4.718-5.978-8.252-5.978-2.989-.272-2.665.814-3.751,3.8-.778,2.137-3.033-.032-6.161-1.342v8.1a10.444,10.444,0,0,0,4.209-2.414c2.445-1.9,5.719-.543,11.424-.271a21.093,21.093,0,0,0,3.14-.09Zm0,13.748v10.507c-6.258-.008-13.559,4.267-18.774,2.463V128.555a16.538,16.538,0,0,0,5.747,1.369c5.079,0,10.8-2.177,12.619,3.263.041.123.407.242.407.361m0,13.478a13.005,13.005,0,0,0-1.411-.051c-5.8,0-5.348,6.53-9.7,5.079-3.192-1.064-5.575-.373-7.661-1.216V271.386c3.128,4.218,5.088,7.986,7.561,7.278,2.54-.725.085-4.715-2.091-7.982s7.86,5.807,10.762,7.982c1.02.766,1.5,2.428,2.542,4.279Zm-18.774-40.306V104.3a4.561,4.561,0,0,1,3.733-1.083c4.03,0,6.823,6.909,1.642,6.909a6.519,6.519,0,0,1-5.376-3.408m0-2.418v0Zm0,11.975v8.1c-1.043.631-2.579.766-2.436-.24.195-1.363-1.737-.633-3.823-1.11v-6.343a5.524,5.524,0,0,1,3.008-1.243,6.447,6.447,0,0,1,3.251.831m0,12.278v17.963c0-.077-.353-.167-.543-.269-2.3-1.239-4.672-1.961-5.715-2.543v-1.676c0-.044.2-.089.319-.135,1.527-.61.725-.707-.319-.883V126.08a30.485,30.485,0,0,1,6.259,2.475m0,22.283V271.386l-.18-.341c-2.133-3.2-3.992-5.81-6.078-8.844V147.118c3.129-.227,4.219-.278,4.989,2.033.29.87,1.269,1.378,1.269,1.686M135.809,112.5v-3.171c2.086.432,2.086,1.865,0,3.171m0-3.171V112.5c-1.043,1.264-3.995,2.407-6.062,2.407-4.619,0-3.47,3.26-7,3.26s-5.675-4.347-.241-4.619,5.6-4.077,11.848-4.348a4.714,4.714,0,0,1,1.457.128m0,7.364c0,1.257-1.647,3.246-1.295,5.007.154.769,1.295,1.147,1.295,1.336Zm0,9.391v14.932c-1.043-.246-4.579-.642-5-2.745-.726-3.626-11.184,0-14.086-3.626s-.332-11.247,5.835-11.247c5.08-.363,7.51,2.541,11.864,2.541a4.188,4.188,0,0,1,1.386.146m.248,15.95v1.676c-1.224-.574-1.506-1.011,0-1.676m-.248,5.089c-1.043.1-2.169.218-3.548.218-4.716,0-2.479-3.99-8.645-3.99s-3.234,1.452-8.675-2.177-3.613,1.451-10.869,1.451-8.7,1.451-8.7,4.716-10.155-5.078-20.675-5.8-21.766-3.991-28.3-3.991-9.794,6.893-17.413,7.982.727,3.265,2.9,7.256,1.451,3.628-5.8,4.353,3.628,5.441,8.707,5.441-.363,3.629-3.991,5.806-5.078,9.8.727,10.158,2.9,3.628,10.157,3.628.726,5.442-3.99,9.069-4.353,8.343-1.814,6.168,9.069-7.62,12.335-8.707,5.441-6.894,8.343-8.709,5.079,3.629,6.893.727,5.442-.363,8.707-1.09,10.158.727,13.061,1.452,6.167,3.628,10.52,3.265,4.716,6.894,7.619,9.433,6.168,2.177,5.442,5.8,5.079,8.706,10.521,10.884,7.619,8.706,3.264,6.53-4.716-1.451-3.264,2.54,2.177,6.529,0,7.619-2.178,11.61.726,16.689S132.986,254,134.438,258.71c.384,1.252,1.371,2.4,1.371,3.491Z" transform="translate(-23.667 -74.053)" fill="#bcbdc1" fill-rule="evenodd"/>
            </g>
          </g>
        </g>
      </g>
    </g>
    <line id="Línea_3594" data-name="Línea 3594" x2="67.478" y2="137.841" transform="translate(205.283 79.98)" fill="none" stroke="#afafaf" stroke-miterlimit="10" stroke-width="3.046"/>
    <line id="Línea_3595" data-name="Línea 3595" x1="93.277" y2="123.213" transform="translate(66.8 21.075)" fill="none" stroke="#fff" stroke-miterlimit="10" stroke-width="3.046"/>
    <line id="Línea_3596" data-name="Línea 3596" y1="91.633" x2="159.895" transform="translate(63.776 245.566)" fill="none" stroke="#afafaf" stroke-miterlimit="10" stroke-width="3.046"/>
    <g id="Grupo_1028906" data-name="Grupo 1028906" transform="translate(14.604 0)">
      <g id="Grupo_1028909" data-name="Grupo 1028909">
        <path id="Trazado_772035" data-name="Trazado 772035" d="M102.087,344.739a7.36,7.36,0,0,0-7.232,7.179,5.629,5.629,0,0,0,5.775,5.72,7.015,7.015,0,0,0,3.791-1.149l-.33-.474a6.249,6.249,0,0,1-3.387,1.02,5.053,5.053,0,0,1-5.212-5.155,6.715,6.715,0,0,1,6.541-6.523,4.926,4.926,0,0,1,5.157,5.155c0,2.516-1.276,3.317-1.985,3.317a.859.859,0,0,1-.858-.948,2.532,2.532,0,0,1,.037-.376l1.038-4.934h-1.238l-.237,1.125a2.447,2.447,0,0,0-2.331-1.424,4.577,4.577,0,0,0-4.283,4.572,2.7,2.7,0,0,0,2.763,2.97,3.723,3.723,0,0,0,2.869-1.6v.126a1.568,1.568,0,0,0,1.684,1.477c1.531,0,3.165-1.458,3.165-4.3a5.578,5.578,0,0,0-5.725-5.774m1.112,7.415a3.431,3.431,0,0,1-2.7,1.64,1.826,1.826,0,0,1-1.859-2.024,3.417,3.417,0,0,1,3.206-3.479,1.98,1.98,0,0,1,1.877,1.331Z" transform="translate(-4.497 36.731)" fill="#fff"/>
        <path id="Trazado_772039" data-name="Trazado 772039" d="M179.543,270.161v-100.6a4.054,4.054,0,0,1,3.818-4.145H348.316a4.283,4.283,0,0,1,4.085,4.145v100.6Z" transform="translate(4.526 17.624)" fill="#373f51" fill-rule="evenodd"/>
        <path id="Trazado_772040" data-name="Trazado 772040" d="M348.317,275.5H183.362a3.6,3.6,0,0,1-3.818-3.617v-11.8H352.4v11.8a3.836,3.836,0,0,1-4.085,3.617" transform="translate(4.526 27.71)" stroke="#373f51" stroke-width="1" fill-rule="evenodd" fill="url(#linear-gradient)"/>
        <path id="Trazado_772041" data-name="Trazado 772041" d="M232.97,294.576V292.5l6.66-.686,4.546-17.8H279.04l4.823,17.8,6.94.686v2.077Z" transform="translate(10.218 29.195)" stroke="#373f51" stroke-width="1" fill-rule="evenodd" fill="url(#linear-gradient)"/>
        <rect id="Rectángulo_363583" data-name="Rectángulo 363583" width="161.934" height="91.248" transform="translate(189.21 190.111)" fill="#aab3c1"/>
        <g id="Grupo_1028904" data-name="Grupo 1028904" transform="translate(253.757 303.208)" opacity="0.08">
          <g id="Grupo_1028903" data-name="Grupo 1028903">
            <g id="Grupo_1028902" data-name="Grupo 1028902" clip-path="url(#clip-path-4)">
              <path id="Trazado_772042" data-name="Trazado 772042" d="M242.521,277.226l.637-3.213h34.864l.635,3.213Z" transform="translate(-242.521 -274.013)" fill="#3f3f3f" fill-rule="evenodd"/>
            </g>
          </g>
        </g>
        <rect id="Rectángulo_363585" data-name="Rectángulo 363585" width="120.165" height="71.328" transform="translate(139.088 161.194)" fill="#fff"/>
        <rect id="Rectángulo_363586" data-name="Rectángulo 363586" width="121.45" height="71.328" transform="translate(138.767 160.873)" fill="none" stroke="#999" stroke-miterlimit="10" stroke-width="2.904"/>
        <rect id="Rectángulo_363587" data-name="Rectángulo 363587" width="120.165" height="8.996" transform="translate(139.088 161.194)" fill="#aab3c1"/>
        <path id="Trazado_772043" data-name="Trazado 772043" d="M150.343,150.413a1.991,1.991,0,1,1-1.991-1.991,1.99,1.99,0,0,1,1.991,1.991" transform="translate(0.991 15.814)" fill="#c62c2c"/>
        <path id="Trazado_772044" data-name="Trazado 772044" d="M155.826,150.413a1.991,1.991,0,1,1-1.991-1.991,1.99,1.99,0,0,1,1.991,1.991" transform="translate(1.575 15.814)" fill="#f9d426"/>
        <path id="Trazado_772045" data-name="Trazado 772045" d="M161.309,150.413a1.991,1.991,0,1,1-1.991-1.991,1.991,1.991,0,0,1,1.991,1.991" transform="translate(2.159 15.814)" fill="#f4a338"/>
        <rect id="Rectángulo_363588" data-name="Rectángulo 363588" width="64.902" height="3.213" transform="translate(161.578 164.406)" fill="#fff"/>
        <rect id="Rectángulo_363589" data-name="Rectángulo 363589" width="26.347" height="3.213" transform="translate(230.336 164.406)" fill="#fff"/>
        <path id="Trazado_772046" data-name="Trazado 772046" d="M174.262,181.213c-1.614.955-.492,2.869.2,1.769.676,1.035-1.132,4.2-4.4,1.7s1.5-7.444,4.2-3.471" transform="translate(3.399 19.149)" fill="#a46a50" fill-rule="evenodd"/>
        <path id="Trazado_772047" data-name="Trazado 772047" d="M164.443,181.095c1.613.955.492,2.87-.2,1.77-.676,1.034,1.131,4.2,4.4,1.7s-1.5-7.444-4.2-3.471" transform="translate(2.88 19.136)" fill="#a46a50" fill-rule="evenodd"/>
        <path id="Trazado_772048" data-name="Trazado 772048" d="M164.96,183.111c1.356,1.3-.17,2.907-.6,1.679-.893.854.152,4.344,3.9,2.652s.226-7.59-3.3-4.331" transform="translate(2.877 19.407)" fill="#a46a50" fill-rule="evenodd"/>
        <path id="Trazado_772049" data-name="Trazado 772049" d="M173.756,183.111c-1.357,1.3.17,2.907.6,1.679.892.854-.152,4.344-3.9,2.652s-.226-7.59,3.3-4.331" transform="translate(3.386 19.407)" fill="#a46a50" fill-rule="evenodd"/>
        <path id="Trazado_772050" data-name="Trazado 772050" d="M163.688,189.644c-1.663,1.08-2.353,3.636-3.329,6.207h19.275c-.972-2.57-1.649-5.154-3.331-6.207-2.88-1.8-4.614-2.236-6.314-2.258-1.738-.024-3.441.4-6.3,2.258" transform="translate(2.482 19.965)" fill="#f4a338" fill-rule="evenodd"/>
        <path id="Trazado_772051" data-name="Trazado 772051" d="M166.767,181.678h5.141v7.069c0,1.928-5.141,2.571-5.141,0Z" transform="translate(3.165 19.357)" fill="#f5dbb7" fill-rule="evenodd"/>
        <path id="Trazado_772052" data-name="Trazado 772052" d="M171.908,185.618v-1.037h-5.141v3.4Z" transform="translate(3.165 19.666)" fill="#ddc39f" fill-rule="evenodd"/>
        <path id="Trazado_772053" data-name="Trazado 772053" d="M169.681,173.672c10.282,0,5.784,13.347,0,13.347s-10.282-13.347,0-13.347" transform="translate(2.821 18.504)" fill="#f5dbb7" fill-rule="evenodd"/>
        <path id="Trazado_772054" data-name="Trazado 772054" d="M169.3,193.795c0-.875-2.358-3.8-2.358-5.73h4.716c0,1.929-2.358,4.854-2.358,5.73" transform="translate(3.183 20.038)" fill="#f5dbb7" fill-rule="evenodd"/>
        <path id="Trazado_772055" data-name="Trazado 772055" d="M169.622,194.277c-1.5-2.221-3.127-2.943-4.125-2.946a6.354,6.354,0,0,1,1.138-2.5,3.9,3.9,0,0,0-2.8.847c.21-1.274,2.1-2.781,3.4-3.317,0,.939-.1,2.739.825,3.947a5.7,5.7,0,0,1,1.558,3.973" transform="translate(2.852 19.856)" fill="#fff" fill-rule="evenodd"/>
        <path id="Trazado_772056" data-name="Trazado 772056" d="M169.065,194.277c1.5-2.221,3.127-2.943,4.125-2.946a6.354,6.354,0,0,0-1.138-2.5,3.9,3.9,0,0,1,2.8.847c-.21-1.274-2.1-2.781-3.4-3.317,0,.939.1,2.739-.825,3.947a5.7,5.7,0,0,0-1.558,3.973" transform="translate(3.41 19.856)" fill="#fff" fill-rule="evenodd"/>
        <path id="Trazado_772057" data-name="Trazado 772057" d="M169.541,175.511c3.389,0,5.029,2.226,5.138,3.942s.707,1.877,1.44.312-1.062-8.308-6.3-8.308a6.8,6.8,0,0,0-6.653,8.024c.733,2.835,1.641,1.227,1.606.011s1.017-3.883,4.773-3.98" transform="translate(2.766 18.268)" fill="#a46a50" fill-rule="evenodd"/>
        <path id="Trazado_772058" data-name="Trazado 772058" d="M175.04,177.824c.367.082.512.839.323,1.691s-.642,1.475-1.009,1.393-.512-.839-.323-1.69.642-1.476,1.009-1.394" transform="translate(3.93 18.946)" fill="#f5dbb7" fill-rule="evenodd"/>
        <path id="Trazado_772059" data-name="Trazado 772059" d="M163.244,177.824c-.367.082-.512.839-.323,1.691s.642,1.475,1.009,1.393.512-.839.323-1.69-.642-1.476-1.009-1.394" transform="translate(2.746 18.946)" fill="#edd4b1" fill-rule="evenodd"/>
        <path id="Trazado_772060" data-name="Trazado 772060" d="M165.2,174.087c-.328,2.005,3.5,4.852,7.907,5.044.4-5.209-4.459-6.981-7.907-5.044" transform="translate(2.996 18.467)" fill="#a46a50" fill-rule="evenodd"/>
        <path id="Trazado_772061" data-name="Trazado 772061" d="M169.055,195.284c.019-1.285.055-1.915.112-2.586a9.889,9.889,0,0,0-.359,2.586Z" transform="translate(3.382 20.531)" fill="#fff" fill-rule="evenodd"/>
        <rect id="Rectángulo_363590" data-name="Rectángulo 363590" width="79.681" height="5.784" transform="translate(156.438 219.028)" fill="#aab3c1"/>
        <path id="Trazado_772156" data-name="Trazado 772156" d="M0,0H80.967V15.422H0Z" transform="translate(156.437 174.046)" fill="#4adbd1"/>
        <line id="Línea_3597" data-name="Línea 3597" x2="19.278" transform="translate(192.423 194.288)" fill="none" stroke="#a0a0a0" stroke-miterlimit="10" stroke-width="0.581"/>
        <line id="Línea_3598" data-name="Línea 3598" x2="19.278" transform="translate(192.423 196.215)" fill="none" stroke="#a0a0a0" stroke-miterlimit="10" stroke-width="0.581"/>
        <line id="Línea_3599" data-name="Línea 3599" x2="19.278" transform="translate(192.423 199.428)" fill="none" stroke="#a0a0a0" stroke-miterlimit="10" stroke-width="0.581"/>
        <line id="Línea_3600" data-name="Línea 3600" x2="19.278" transform="translate(192.423 201.356)" fill="none" stroke="#a0a0a0" stroke-miterlimit="10" stroke-width="0.581"/>
        <line id="Línea_3601" data-name="Línea 3601" x2="19.278" transform="translate(192.423 204.569)" fill="none" stroke="#a0a0a0" stroke-miterlimit="10" stroke-width="0.581"/>
        <line id="Línea_3602" data-name="Línea 3602" x2="19.278" transform="translate(192.423 206.497)" fill="none" stroke="#a0a0a0" stroke-miterlimit="10" stroke-width="0.581"/>
        <line id="Línea_3603" data-name="Línea 3603" x2="19.278" transform="translate(192.423 208.425)" fill="none" stroke="#a0a0a0" stroke-miterlimit="10" stroke-width="0.581"/>
        <line id="Línea_3604" data-name="Línea 3604" x2="19.278" transform="translate(192.423 211.638)" fill="none" stroke="#a0a0a0" stroke-miterlimit="10" stroke-width="0.581"/>
        <line id="Línea_3605" data-name="Línea 3605" x2="19.278" transform="translate(192.423 214.851)" fill="none" stroke="#a0a0a0" stroke-miterlimit="10" stroke-width="0.581"/>
        <line id="Línea_3606" data-name="Línea 3606" x2="20.563" transform="translate(215.556 194.288)" fill="none" stroke="#a0a0a0" stroke-miterlimit="10" stroke-width="0.581"/>
        <line id="Línea_3607" data-name="Línea 3607" x2="20.563" transform="translate(215.556 196.215)" fill="none" stroke="#a0a0a0" stroke-miterlimit="10" stroke-width="0.581"/>
        <line id="Línea_3608" data-name="Línea 3608" x2="20.563" transform="translate(215.556 199.428)" fill="none" stroke="#a0a0a0" stroke-miterlimit="10" stroke-width="0.581"/>
        <line id="Línea_3609" data-name="Línea 3609" x2="20.563" transform="translate(215.556 201.356)" fill="none" stroke="#a0a0a0" stroke-miterlimit="10" stroke-width="0.581"/>
        <line id="Línea_3610" data-name="Línea 3610" x2="20.563" transform="translate(215.556 204.569)" fill="none" stroke="#a0a0a0" stroke-miterlimit="10" stroke-width="0.581"/>
        <line id="Línea_3611" data-name="Línea 3611" x2="20.563" transform="translate(215.556 206.497)" fill="none" stroke="#a0a0a0" stroke-miterlimit="10" stroke-width="0.581"/>
        <line id="Línea_3612" data-name="Línea 3612" x2="20.563" transform="translate(215.556 208.425)" fill="none" stroke="#a0a0a0" stroke-miterlimit="10" stroke-width="0.581"/>
        <line id="Línea_3613" data-name="Línea 3613" x2="20.563" transform="translate(215.556 211.638)" fill="none" stroke="#a0a0a0" stroke-miterlimit="10" stroke-width="0.581"/>
        <line id="Línea_3614" data-name="Línea 3614" x2="20.563" transform="translate(215.556 214.851)" fill="none" stroke="#a0a0a0" stroke-miterlimit="10" stroke-width="0.581"/>
        <path id="Trazado_772062" data-name="Trazado 772062" d="M201.1,314.169a22.233,22.233,0,1,1-22.233-22.233A22.233,22.233,0,0,1,201.1,314.169" transform="translate(2.085 31.105)" fill="#4adbd1"/>
        <path id="Trazado_772063" data-name="Trazado 772063" d="M184.371,310.418l-.98,0,0-2.919a5.615,5.615,0,1,0-11.226-.018l-.006,2.919H171.1c-.464,0-1.181.553-1.181,1.017L169.9,322.56c0,.462.715.56,1.178.56l13.273.021c.463,0,.517-.1.518-.558l.017-11.146c0-.464-.052-1.019-.515-1.019m-3.226-.006-6.736-.011,0-2.919a3.376,3.376,0,1,1,6.736.011Z" transform="translate(3.498 32.146)" fill="#fff"/>
        <path id="Trazado_772064" data-name="Trazado 772064" d="M110.144,415.222l-.033,57.328a6.52,6.52,0,0,0,6.53,6.527l83.135.049a6.525,6.525,0,0,0,6.535-6.52l.033-57.328a6.532,6.532,0,0,0-6.528-6.53l-83.134-.049a6.528,6.528,0,0,0-6.539,6.522" transform="translate(-2.872 43.545)" fill="#373f51"/>
        <path id="Trazado_772065" data-name="Trazado 772065" d="M195.6,440.92a3.88,3.88,0,1,1-3.875-3.882,3.876,3.876,0,0,1,3.875,3.882" transform="translate(5.41 46.565)" fill="#fff"/>
        <rect id="Rectángulo_363592" data-name="Rectángulo 363592" width="74.744" height="57.17" transform="translate(115.105 458.87)" fill="#fff"/>
        <rect id="Rectángulo_363593" data-name="Rectángulo 363593" width="37.133" height="31.372" transform="translate(133.768 460.114)" fill="#4adbd1"/>
        <line id="Línea_3615" data-name="Línea 3615" x2="34.573" transform="translate(135.688 498.208)" fill="none" stroke="#a0a0a0" stroke-miterlimit="10" stroke-width="0.579"/>
        <line id="Línea_3616" data-name="Línea 3616" x2="38.414" transform="translate(133.767 501.409)" fill="none" stroke="#a0a0a0" stroke-miterlimit="10" stroke-width="0.579"/>
        <line id="Línea_3617" data-name="Línea 3617" x2="38.414" transform="translate(133.767 504.61)" fill="none" stroke="#a0a0a0" stroke-miterlimit="10" stroke-width="0.579"/>
        <line id="Línea_3618" data-name="Línea 3618" x2="38.414" transform="translate(133.767 507.171)" fill="none" stroke="#a0a0a0" stroke-miterlimit="10" stroke-width="0.579"/>
        <line id="Línea_3619" data-name="Línea 3619" x2="38.414" transform="translate(133.767 509.092)" fill="none" stroke="#a0a0a0" stroke-miterlimit="10" stroke-width="0.579"/>
        <line id="Línea_3620" data-name="Línea 3620" x2="38.414" transform="translate(133.767 511.653)" fill="none" stroke="#a0a0a0" stroke-miterlimit="10" stroke-width="0.579"/>
        <line id="Línea_3621" data-name="Línea 3621" x2="38.414" transform="translate(133.767 515.494)" fill="none" stroke="#a0a0a0" stroke-miterlimit="10" stroke-width="0.579"/>
        <path id="Trazado_772066" data-name="Trazado 772066" d="M145.858,435.2c-1.586,1.029-2.242,3.241-3.172,5.861a16.06,16.06,0,0,0,4.182,2.087c1.389-1.17,3.263-.751,5.014-.751,1.476-2.3,3.437-.694,5.015.751a16.034,16.034,0,0,0,4.167-2.079c-.928-2.631-1.574-4.864-3.179-5.869-2.745-1.72-4.4-2.131-6.019-2.153-1.658-.023-3.281.383-6.007,2.153" transform="translate(0.599 46.14)" fill="#fff" fill-rule="evenodd"/>
        <path id="Trazado_772067" data-name="Trazado 772067" d="M149.128,427.383h4.482v7.042c0,1.921-4.482,1.921-4.482,0Z" transform="translate(1.285 45.536)" fill="#f5dbb7" fill-rule="evenodd"/>
        <path id="Trazado_772068" data-name="Trazado 772068" d="M153.61,431.431v-1.155h-4.482v3.41Z" transform="translate(1.285 45.844)" fill="#ddc39f" fill-rule="evenodd"/>
        <path id="Trazado_772069" data-name="Trazado 772069" d="M151.427,420.027c9.6,0,5.762,12.723,0,12.723s-9.6-12.723,0-12.723" transform="translate(0.907 44.752)" fill="#f5dbb7" fill-rule="evenodd"/>
        <path id="Trazado_772070" data-name="Trazado 772070" d="M151.438,421.418c3.23,0,4.795,2.122,4.9,3.758s.674,1.788,1.372.3-1.012-7.921-6.007-7.921a6.485,6.485,0,0,0-6.343,7.648c.7,2.7,1.565,1.171,1.531.011s.969-3.7,4.549-3.794" transform="translate(0.869 44.489)" fill="#755f55" fill-rule="evenodd"/>
        <path id="Trazado_772071" data-name="Trazado 772071" d="M146.821,426c-.164,1.142-1.187.389-1.263-.666a3.522,3.522,0,0,1,.443-2.214c.415-.98,2.62-3.6,5.4-3.6s5.376,3,5.791,3.752a3.033,3.033,0,0,1,.319,2.248c-.188.679-.629,1.15-.866.316-.812-2.852-3.106-4.573-5.171-4.61-2.538-.044-4.358,2.7-4.656,4.775" transform="translate(0.902 44.698)" fill="#755f55" fill-rule="evenodd"/>
        <path id="Trazado_772072" data-name="Trazado 772072" d="M156.681,423.985c.351.077.488.8.308,1.611s-.611,1.408-.962,1.329-.488-.8-.308-1.611.611-1.406.962-1.329" transform="translate(1.979 45.173)" fill="#f5dbb7" fill-rule="evenodd"/>
        <path id="Trazado_772073" data-name="Trazado 772073" d="M145.437,423.985c-.351.077-.489.8-.309,1.611s.612,1.408.962,1.329.489-.8.308-1.611-.611-1.406-.96-1.329" transform="translate(0.851 45.173)" fill="#edd4b1" fill-rule="evenodd"/>
        <path id="Trazado_772074" data-name="Trazado 772074" d="M148.156,433.775v7.011H155.2v-6.967c.641.195.641.433,1.281.719v8.531a15.226,15.226,0,0,1-5.122.8,18.076,18.076,0,0,1-5.122-.8v-8.551a15.547,15.547,0,0,1,1.921-.739" transform="translate(0.977 46.217)" fill="#415b76" fill-rule="evenodd"/>
        <path id="Trazado_772075" data-name="Trazado 772075" d="M155.126,421.46c.312,1.911-3.337,4.625-7.538,4.808-.38-4.964,4.251-6.655,7.538-4.808" transform="translate(1.119 44.827)" fill="#755f55" fill-rule="evenodd"/>
        <rect id="Rectángulo_363594" data-name="Rectángulo 363594" width="34.573" height="3.841" transform="translate(135.048 491.486)" fill="#f4a338"/>
        <path id="Trazado_772076" data-name="Trazado 772076" d="M31.39,450.478A11.522,11.522,0,0,0,42.82,462.05H78.185a11.568,11.568,0,0,0,1.8-22.973,7.511,7.511,0,0,0,.107-1.259,7.275,7.275,0,0,0-7.243-7.3,7.162,7.162,0,0,0-4.68,1.728c-2.249-5.105-5.132-9.767-13.219-9.767-9.808,0-14.456,7.621-14.456,15.664,0,.336.014.7.036,1.027a11.529,11.529,0,0,0-9.136,11.311" transform="translate(-18.947 23.296)" fill="#f4a338"/>
        <path id="Trazado_772077" data-name="Trazado 772077" d="M62.255,461.1l1.545.526a1.278,1.278,0,0,0,1.621-.8l.322-.945a.824.824,0,0,1,.727-.479,8.125,8.125,0,0,0,.858-.058.817.817,0,0,1,.781.379l.444.9a1.281,1.281,0,0,0,1.711.583l1.466-.722a1.276,1.276,0,0,0,.582-1.71l-.444-.9a.729.729,0,0,1-.009-.542.818.818,0,0,1,.185-.308,8.087,8.087,0,0,0,.57-.646.823.823,0,0,1,.823-.284l.946.322a1.28,1.28,0,0,0,1.621-.8l.525-1.545a1.279,1.279,0,0,0-.8-1.621l-.946-.322a.825.825,0,0,1-.479-.727,7.916,7.916,0,0,0-.058-.858.8.8,0,0,1,.041-.357.728.728,0,0,1,.337-.423l.9-.444a1.278,1.278,0,0,0,.582-1.711l-.722-1.466a1.279,1.279,0,0,0-1.711-.583l-.9.444a.816.816,0,0,1-.849-.175,7.587,7.587,0,0,0-.645-.57.825.825,0,0,1-.284-.824l.322-.945a1.279,1.279,0,0,0-.8-1.621l-1.546-.526a1.279,1.279,0,0,0-1.621.8l-.322.946a.824.824,0,0,1-.727.479,7.919,7.919,0,0,0-.858.058.816.816,0,0,1-.78-.379l-.444-.9a1.276,1.276,0,0,0-1.71-.582l-1.466.721a1.28,1.28,0,0,0-.582,1.711l.444.9a.734.734,0,0,1,.008.542.82.82,0,0,1-.184.308,7.767,7.767,0,0,0-.57.646.825.825,0,0,1-.824.284l-.945-.322a1.279,1.279,0,0,0-1.621.8l-.526,1.545a1.279,1.279,0,0,0,.8,1.621l.945.322a.824.824,0,0,1,.479.727,7.933,7.933,0,0,0,.059.86.826.826,0,0,1-.041.357.728.728,0,0,1-.336.422l-.9.444a1.278,1.278,0,0,0-.583,1.71l.722,1.465a1.279,1.279,0,0,0,1.71.582l.9-.444a.815.815,0,0,1,.849.177,8.065,8.065,0,0,0,.645.57.825.825,0,0,1,.284.824l-.322.945a1.28,1.28,0,0,0,.8,1.621m.59-10.822a3.744,3.744,0,1,1,2.339,4.751,3.75,3.75,0,0,1-2.339-4.751" transform="translate(-22.793 20.379)" fill="#fff"/>
        <path id="Trazado_772078" data-name="Trazado 772078" d="M59.153,438.989a.205.205,0,0,1,.173.072l.222.451a.852.852,0,0,0,1.14.389l.732-.361a.852.852,0,0,0,.388-1.141l-.222-.451a.166.166,0,0,1,.007-.107.188.188,0,0,1,.042-.074,4.059,4.059,0,0,0,.3-.34.206.206,0,0,1,.176-.073l.473.161a.853.853,0,0,0,1.081-.532l.264-.773a.853.853,0,0,0-.532-1.081l-.473-.161a.206.206,0,0,1-.1-.165,4.09,4.09,0,0,0-.03-.453.189.189,0,0,1,.011-.084.164.164,0,0,1,.061-.089l.451-.222a.852.852,0,0,0,.388-1.141l-.36-.732a.851.851,0,0,0-1.141-.389l-.451.222a.2.2,0,0,1-.181-.049,4.225,4.225,0,0,0-.34-.3.206.206,0,0,1-.073-.175l.161-.474a.853.853,0,0,0-.532-1.081l-.773-.264a.853.853,0,0,0-1.081.532l-.161.474a.209.209,0,0,1-.165.095,4.3,4.3,0,0,0-.453.03.2.2,0,0,1-.172-.071l-.222-.451a.853.853,0,0,0-1.141-.389l-.732.361a.852.852,0,0,0-.388,1.141l.222.451a.166.166,0,0,1-.007.107.206.206,0,0,1-.041.073,4.11,4.11,0,0,0-.3.34.208.208,0,0,1-.175.073l-.474-.161a.852.852,0,0,0-1.081.532l-.264.772a.854.854,0,0,0,.532,1.081l.474.161a.21.21,0,0,1,.095.165,4.077,4.077,0,0,0,.03.453.191.191,0,0,1-.011.084.164.164,0,0,1-.061.089l-.45.221a.851.851,0,0,0-.389,1.141l.36.732a.852.852,0,0,0,1.141.388l.451-.221a.2.2,0,0,1,.181.048,4.075,4.075,0,0,0,.34.3.206.206,0,0,1,.073.176l-.161.474a.853.853,0,0,0,.532,1.081l.773.263a.852.852,0,0,0,1.081-.532l.161-.473a.208.208,0,0,1,.165-.1,4.1,4.1,0,0,0,.453-.03m-2.067-4.675a1.66,1.66,0,1,1,1.037,2.105,1.662,1.662,0,0,1-1.037-2.105" transform="translate(-22.353 22.202)" fill="#fff"/>
        <path id="Trazado_772079" data-name="Trazado 772079" d="M68.969,258.56a1.806,1.806,0,0,1-1.6,1.931h-3.1v6.592l-8.09-6.592H35.48c-.928,0-1.5-.939-1.5-1.931V238.2a1.542,1.542,0,0,1,1.5-1.726H67.373a1.615,1.615,0,0,1,1.6,1.726Z" transform="translate(-10.983 25.195)" fill="#5573c6"/>
        <path id="Trazado_772080" data-name="Trazado 772080" d="M21.237,252.744a1.38,1.38,0,0,0,1.461,1.562h3.239v6.961l7.951-6.961h20.7a1.511,1.511,0,0,0,1.638-1.562V232.381a1.52,1.52,0,0,0-1.638-1.575H22.7a1.389,1.389,0,0,0-1.461,1.575Z" transform="translate(-12.341 24.591)" fill="#4adbd1"/>
        <rect id="Rectángulo_363595" data-name="Rectángulo 363595" width="24.544" height="1.567" transform="translate(14.119 261.664)" fill="#fff"/>
        <rect id="Rectángulo_363596" data-name="Rectángulo 363596" width="24.544" height="1.567" transform="translate(14.119 266.363)" fill="#fff"/>
        <rect id="Rectángulo_363597" data-name="Rectángulo 363597" width="18.8" height="1.567" transform="translate(14.119 271.586)" fill="#fff"/>
        <path id="Trazado_772081" data-name="Trazado 772081" d="M138.661,266.673H9.622a3.322,3.322,0,0,0-3.486,3.033v89.047a3.935,3.935,0,0,0,3.486,3.718H138.668c1.767,0,3.18-1.953,3.18-3.718V269.707a3.051,3.051,0,0,0-3.188-3.033" transform="translate(5.396 42.077)" fill="#373f51"/>
        <path id="Trazado_772082" data-name="Trazado 772082" d="M129.657,347.853c0,1.94.538,2.428-1.291,2.428H13.762c-1.829,0-3.851-.489-3.851-2.428V273.89c0-1.941,2.022-3.441,3.851-3.441h114.6c1.829,0,1.291,1.5,1.291,3.441Z" transform="translate(8.717 45.397)" fill="#fff"/>
        <rect id="Rectángulo_363598" data-name="Rectángulo 363598" width="157.888" height="7.984" rx="0.716" transform="translate(0 406.321)" fill="#373f51"/>
        <rect id="Rectángulo_363599" data-name="Rectángulo 363599" width="107.328" height="6.21" transform="translate(25.722 357.535)" fill="#aab3c1"/>
        <line id="Línea_3622" data-name="Línea 3622" x2="31.933" transform="translate(25.722 368.626)" fill="none" stroke="#a0a0a0" stroke-miterlimit="10" stroke-width="0.472"/>
        <line id="Línea_3623" data-name="Línea 3623" x2="31.933" transform="translate(25.722 372.173)" fill="none" stroke="#a0a0a0" stroke-miterlimit="10" stroke-width="0.472"/>
        <line id="Línea_3624" data-name="Línea 3624" x2="31.933" transform="translate(25.722 374.832)" fill="none" stroke="#a0a0a0" stroke-miterlimit="10" stroke-width="0.472"/>
        <line id="Línea_3625" data-name="Línea 3625" x2="31.933" transform="translate(25.722 376.609)" fill="none" stroke="#a0a0a0" stroke-miterlimit="10" stroke-width="0.472"/>
        <line id="Línea_3626" data-name="Línea 3626" x2="31.933" transform="translate(25.722 378.382)" fill="none" stroke="#a0a0a0" stroke-miterlimit="10" stroke-width="0.472"/>
        <line id="Línea_3627" data-name="Línea 3627" x2="31.933" transform="translate(25.722 381.041)" fill="none" stroke="#a0a0a0" stroke-miterlimit="10" stroke-width="0.472"/>
        <line id="Línea_3628" data-name="Línea 3628" x2="31.933" transform="translate(25.722 385.477)" fill="none" stroke="#a0a0a0" stroke-miterlimit="10" stroke-width="0.472"/>
        <line id="Línea_3629" data-name="Línea 3629" x2="31.933" transform="translate(25.722 387.25)" fill="none" stroke="#a0a0a0" stroke-miterlimit="10" stroke-width="0.472"/>
        <line id="Línea_3630" data-name="Línea 3630" x2="31.933" transform="translate(25.722 389.024)" fill="none" stroke="#a0a0a0" stroke-miterlimit="10" stroke-width="0.472"/>
        <line id="Línea_3631" data-name="Línea 3631" x2="31.933" transform="translate(62.091 368.626)" fill="none" stroke="#a0a0a0" stroke-miterlimit="10" stroke-width="0.472"/>
        <line id="Línea_3632" data-name="Línea 3632" x2="31.933" transform="translate(62.091 372.173)" fill="none" stroke="#a0a0a0" stroke-miterlimit="10" stroke-width="0.472"/>
        <line id="Línea_3633" data-name="Línea 3633" x2="31.933" transform="translate(62.091 374.832)" fill="none" stroke="#a0a0a0" stroke-miterlimit="10" stroke-width="0.472"/>
        <line id="Línea_3634" data-name="Línea 3634" x2="31.933" transform="translate(62.091 376.609)" fill="none" stroke="#a0a0a0" stroke-miterlimit="10" stroke-width="0.472"/>
        <line id="Línea_3635" data-name="Línea 3635" x2="31.933" transform="translate(62.091 378.382)" fill="none" stroke="#a0a0a0" stroke-miterlimit="10" stroke-width="0.472"/>
        <line id="Línea_3636" data-name="Línea 3636" x2="31.933" transform="translate(62.091 381.041)" fill="none" stroke="#a0a0a0" stroke-miterlimit="10" stroke-width="0.472"/>
        <line id="Línea_3637" data-name="Línea 3637" x2="31.933" transform="translate(62.091 385.477)" fill="none" stroke="#a0a0a0" stroke-miterlimit="10" stroke-width="0.472"/>
        <line id="Línea_3638" data-name="Línea 3638" x2="31.933" transform="translate(62.091 387.25)" fill="none" stroke="#a0a0a0" stroke-miterlimit="10" stroke-width="0.472"/>
        <line id="Línea_3639" data-name="Línea 3639" x2="31.933" transform="translate(62.091 389.024)" fill="none" stroke="#a0a0a0" stroke-miterlimit="10" stroke-width="0.472"/>
        <line id="Línea_3640" data-name="Línea 3640" x2="33.707" transform="translate(99.346 368.626)" fill="none" stroke="#a0a0a0" stroke-miterlimit="10" stroke-width="0.472"/>
        <line id="Línea_3641" data-name="Línea 3641" x2="33.707" transform="translate(99.346 372.173)" fill="none" stroke="#a0a0a0" stroke-miterlimit="10" stroke-width="0.472"/>
        <line id="Línea_3642" data-name="Línea 3642" x2="33.707" transform="translate(99.346 374.832)" fill="none" stroke="#a0a0a0" stroke-miterlimit="10" stroke-width="0.472"/>
        <line id="Línea_3643" data-name="Línea 3643" x2="33.707" transform="translate(99.346 376.609)" fill="none" stroke="#a0a0a0" stroke-miterlimit="10" stroke-width="0.472"/>
        <line id="Línea_3644" data-name="Línea 3644" x2="33.707" transform="translate(99.346 378.382)" fill="none" stroke="#a0a0a0" stroke-miterlimit="10" stroke-width="0.472"/>
        <line id="Línea_3645" data-name="Línea 3645" x2="33.707" transform="translate(99.346 381.041)" fill="none" stroke="#a0a0a0" stroke-miterlimit="10" stroke-width="0.472"/>
        <line id="Línea_3646" data-name="Línea 3646" x2="33.707" transform="translate(99.346 385.477)" fill="none" stroke="#a0a0a0" stroke-miterlimit="10" stroke-width="0.472"/>
        <line id="Línea_3647" data-name="Línea 3647" x2="33.707" transform="translate(99.346 387.25)" fill="none" stroke="#a0a0a0" stroke-miterlimit="10" stroke-width="0.472"/>
        <line id="Línea_3648" data-name="Línea 3648" x2="33.707" transform="translate(99.346 389.024)" fill="none" stroke="#a0a0a0" stroke-miterlimit="10" stroke-width="0.472"/>
        <path id="Trazado_772083" data-name="Trazado 772083" d="M48.575,302.513A12.711,12.711,0,1,1,61.286,289.8a12.711,12.711,0,0,1-12.711,12.711" transform="translate(31.543 51.24)" fill="#f4a338" fill-rule="evenodd"/>
        <path id="Trazado_772084" data-name="Trazado 772084" d="M41.271,287.737c-1.252.816-1.77,2.562-2.505,4.631a12.636,12.636,0,0,0,3.3,1.65c1.1-.925,2.577-.594,3.96-.594,1.167-1.816,2.716-.551,3.962.594a12.72,12.72,0,0,0,3.291-1.643c-.733-2.079-1.242-3.844-2.511-4.639a8.714,8.714,0,0,0-4.753-1.7c-1.31-.015-2.592.3-4.746,1.7" transform="translate(34.094 59.105)" fill="#fff" fill-rule="evenodd"/>
        <path id="Trazado_772085" data-name="Trazado 772085" d="M41.531,283.663h3.548v5.323c0,.887-3.548,1.774-3.548,0Z" transform="translate(36.526 57.019)" fill="#f5dbb7" fill-rule="evenodd"/>
        <path id="Trazado_772086" data-name="Trazado 772086" d="M45.079,285.368v-.289H41.531v2.071Z" transform="translate(36.525 58.264)" fill="#ddc39f" fill-rule="evenodd"/>
        <path id="Trazado_772087" data-name="Trazado 772087" d="M44.525,279.981c7.982,0,4.436,10.05,0,10.05s-7.1-10.05,0-10.05" transform="translate(35.306 53.782)" fill="#f5dbb7" fill-rule="evenodd"/>
        <path id="Trazado_772088" data-name="Trazado 772088" d="M44.854,281.884c2.552,0,3.787,1.676,3.868,2.968s.534,1.413,1.084.235-.8-6.257-4.746-6.257a5.122,5.122,0,0,0-5.009,6.043c.551,2.135,1.235.925,1.209.009s.765-2.925,3.594-3" transform="translate(35.133 52.767)" fill="#755f55" fill-rule="evenodd"/>
        <path id="Trazado_772089" data-name="Trazado 772089" d="M41.106,284.865c-.13.9-.938.308-1-.526a2.8,2.8,0,0,1,.35-1.75,5.409,5.409,0,0,1,4.27-2.844c2.2,0,4.246,2.368,4.573,2.964a2.391,2.391,0,0,1,.252,1.776c-.148.536-.5.908-.684.25a4.7,4.7,0,0,0-4.084-3.641c-2.005-.036-3.443,2.128-3.678,3.77" transform="translate(35.26 53.573)" fill="#755f55" fill-rule="evenodd"/>
        <path id="Trazado_772090" data-name="Trazado 772090" d="M45.612,281.824c.276.062.385.632.242,1.272s-.483,1.111-.759,1.049-.385-.632-.242-1.272.483-1.111.759-1.049" transform="translate(39.393 55.396)" fill="#f5dbb7" fill-rule="evenodd"/>
        <path id="Trazado_772091" data-name="Trazado 772091" d="M40.17,281.824c-.276.062-.385.632-.242,1.272s.483,1.111.759,1.049.385-.632.242-1.272-.483-1.111-.759-1.049" transform="translate(35.061 55.396)" fill="#edd4b1" fill-rule="evenodd"/>
        <path id="Trazado_772092" data-name="Trazado 772092" d="M41.474,286.375v5.548h6.21v-5.514c0,.156,0,.342.887.57v6.74a15.627,15.627,0,0,1-3.992.632,11.114,11.114,0,0,1-3.992-.635V286.96c0-.235.887-.427.887-.585" transform="translate(35.697 59.405)" fill="#415b76" fill-rule="evenodd"/>
        <path id="Trazado_772093" data-name="Trazado 772093" d="M47.006,280.884c.246,1.509-2.637,3.654-5.954,3.8-.3-3.923,3.359-5.257,5.954-3.8" transform="translate(36.089 54.071)" fill="#755f55" fill-rule="evenodd"/>
        <path id="Trazado_772094" data-name="Trazado 772094" d="M27.588,302.5a12.7,12.7,0,1,1,12.7-12.7,12.7,12.7,0,0,1-12.7,12.7" transform="translate(13.092 51.244)" fill="#4adbd1" fill-rule="evenodd"/>
        <path id="Trazado_772095" data-name="Trazado 772095" d="M19.544,283.67a1.6,1.6,0,0,1-1.269,2.193c.6,2.3,3.287,5.219,7.813,3.548s-2.287-8.961-6.544-5.742" transform="translate(16.073 56.312)" fill="#755f55" fill-rule="evenodd"/>
        <path id="Trazado_772096" data-name="Trazado 772096" d="M28.122,283.67c-.466,1.865.4,2.421,1.269,2.193-.812,2.131-3.325,5.21-7.851,3.539s2.325-8.952,6.582-5.732" transform="translate(17.635 56.312)" fill="#755f55" fill-rule="evenodd"/>
        <path id="Trazado_772097" data-name="Trazado 772097" d="M19.981,288.946a5.458,5.458,0,0,0-1.844,2.784,12.716,12.716,0,0,0,13.187,0,5.3,5.3,0,0,0-1.849-2.782,8.693,8.693,0,0,0-4.751-1.7c-1.308-.019-2.59.3-4.742,1.7" transform="translate(15.952 60.171)" fill="#3e5e82" fill-rule="evenodd"/>
        <path id="Trazado_772098" data-name="Trazado 772098" d="M20.765,284.607h3.548v5.323c0,1.774-3.548,1.774-3.548,0Z" transform="translate(18.263 57.849)" fill="#f5dbb7" fill-rule="evenodd"/>
        <path id="Trazado_772099" data-name="Trazado 772099" d="M24.314,286.813v-.789H20.765v2.569Z" transform="translate(18.264 59.095)" fill="#ddc39f" fill-rule="evenodd"/>
        <path id="Trazado_772100" data-name="Trazado 772100" d="M23.931,281.2c7.1,0,4.436,10.042,0,10.042s-7.982-10.042,0-10.042" transform="translate(16.872 54.849)" fill="#f5dbb7" fill-rule="evenodd"/>
        <path id="Trazado_772101" data-name="Trazado 772101" d="M22.474,291.75c0-.66-1.774-2.537-1.774-4.312h3.548c0,1.774-1.774,3.652-1.774,4.312" transform="translate(18.205 60.341)" fill="#f5dbb7" fill-rule="evenodd"/>
        <path id="Trazado_772102" data-name="Trazado 772102" d="M23.68,292.773c-1.126-1.671-2.353-2.214-3.1-2.216a4.748,4.748,0,0,1,.855-1.883,2.922,2.922,0,0,0-2.107.637c.158-.959,1.577-2.092,2.562-2.5a4.892,4.892,0,0,0,.62,2.968,4.292,4.292,0,0,1,1.173,2.99" transform="translate(16.996 59.793)" fill="#fff" fill-rule="evenodd"/>
        <path id="Trazado_772103" data-name="Trazado 772103" d="M21.642,292.773c1.126-1.671,2.353-2.214,3.1-2.216a4.774,4.774,0,0,0-.855-1.883,2.926,2.926,0,0,1,2.107.637c-.158-.959-1.577-2.092-2.562-2.5a4.892,4.892,0,0,1-.62,2.968,4.292,4.292,0,0,0-1.173,2.99" transform="translate(19.034 59.793)" fill="#fff" fill-rule="evenodd"/>
        <path id="Trazado_772104" data-name="Trazado 772104" d="M23.87,283.264c2.55,0,3.783,1.675,3.866,2.966s.532,1.411,1.083.235-.8-6.251-4.742-6.251a5.117,5.117,0,0,0-5.005,6.037c.551,2.133,1.233.923,1.207.008s.767-2.921,3.592-2.994" transform="translate(16.68 53.986)" fill="#755f55" fill-rule="evenodd"/>
        <path id="Trazado_772105" data-name="Trazado 772105" d="M24.627,283.037c.276.062.385.632.242,1.272s-.481,1.109-.759,1.049-.385-.631-.242-1.272.483-1.111.759-1.049" transform="translate(20.935 56.464)" fill="#f5dbb7" fill-rule="evenodd"/>
        <path id="Trazado_772106" data-name="Trazado 772106" d="M19.189,283.037c-.276.062-.385.632-.242,1.272s.483,1.109.759,1.049.385-.631.242-1.272-.483-1.111-.759-1.049" transform="translate(16.609 56.464)" fill="#edd4b1" fill-rule="evenodd"/>
        <path id="Trazado_772107" data-name="Trazado 772107" d="M19.934,281.583c-.246,1.507,3.975,4.776,7.291,4.921.472-4.648-4.7-6.379-7.291-4.921" transform="translate(17.522 54.748)" fill="#755f55" fill-rule="evenodd"/>
        <path id="Trazado_772108" data-name="Trazado 772108" d="M69.734,303.062a13.085,13.085,0,1,0-13.085-13.085,13.085,13.085,0,0,0,13.085,13.085" transform="translate(49.823 51.065)" fill="#373f51" fill-rule="evenodd"/>
        <path id="Trazado_772109" data-name="Trazado 772109" d="M72.026,287.852c1.286.835,1.819,2.624,2.573,4.746a13.091,13.091,0,0,1-14.944.049c.759-2.15,1.284-3.975,2.592-4.795a8.961,8.961,0,0,1,4.894-1.752c1.348-.017,2.669.312,4.885,1.752" transform="translate(52.466 59.163)" fill="#aab3c1" fill-rule="evenodd"/>
        <path id="Trazado_772110" data-name="Trazado 772110" d="M66.316,283.663H62.768v5.016c0,.938.923,4.007,1.883,4,.887-.011,1.665-3.028,1.665-4Z" transform="translate(55.205 57.019)" fill="#f5dbb7" fill-rule="evenodd"/>
        <path id="Trazado_772111" data-name="Trazado 772111" d="M62.768,285.444v-.365h3.548v2.2Z" transform="translate(55.205 58.265)" fill="#ddc39f" fill-rule="evenodd"/>
        <path id="Trazado_772112" data-name="Trazado 772112" d="M65.934,279.867c-7.982,0-4.436,10.347,0,10.347s7.982-10.347,0-10.347" transform="translate(53.813 53.681)" fill="#f5dbb7" fill-rule="evenodd"/>
        <path id="Trazado_772113" data-name="Trazado 772113" d="M63.808,281.7c-1.267.538-1.784,2.163-2.077,3.259-.425,1.592-.186,1.455-.754.242s.823-6.441,4.887-6.441a5.273,5.273,0,0,1,5.155,6.221c-.568,2.2-.568,1.675-.923.008-.912-4.287-4.127-2.41-6.289-3.289" transform="translate(53.522 52.711)" fill="#f4a338" fill-rule="evenodd"/>
        <path id="Trazado_772114" data-name="Trazado 772114" d="M63.373,281.3c.7.306,3.158,1.87,4.169,1.9s-.184-.184-.46-.491,1.932.7,2.453.737,0-.062-.246-.4.889.184.7,1.105.759.575.821-.284a2.876,2.876,0,0,0-.361-1.8c-.336-.8-4.781-1.9-6.191-1.9a3.929,3.929,0,0,0-2.913,2.022,2.465,2.465,0,0,0-.257,1.829c.152.551.626.806.626.1s1.135-1.532,1.656-2.819" transform="translate(53.662 53.947)" fill="#f4a338" fill-rule="evenodd"/>
        <path id="Trazado_772115" data-name="Trazado 772115" d="M61.082,281.764c-.286.064-.4.65-.25,1.31s.5,1.145.782,1.081.4-.65.25-1.31-.5-1.145-.782-1.081" transform="translate(53.444 55.345)" fill="#f5dbb7" fill-rule="evenodd"/>
        <path id="Trazado_772116" data-name="Trazado 772116" d="M66.684,281.764c.286.064.4.65.25,1.31s-.5,1.145-.782,1.081-.4-.65-.25-1.31.5-1.145.782-1.081" transform="translate(57.904 55.345)" fill="#edd4b1" fill-rule="evenodd"/>
        <path id="Trazado_772117" data-name="Trazado 772117" d="M67.018,287.326a12.981,12.981,0,0,1,1.96,4.235,13.06,13.06,0,0,1-2.733,1.459,8.347,8.347,0,0,1-.2-1.838,7.8,7.8,0,0,1,.975-3.855" transform="translate(58.084 60.241)" fill="#f5dbb7" fill-rule="evenodd"/>
        <path id="Trazado_772118" data-name="Trazado 772118" d="M62.388,293.025a13.131,13.131,0,0,1-2.733-1.455,12.766,12.766,0,0,1,1.958-4.248,7.82,7.82,0,0,1,.977,3.861,8.37,8.37,0,0,1-.2,1.842" transform="translate(52.466 60.238)" fill="#f5dbb7" fill-rule="evenodd"/>
        <path id="Trazado_772119" data-name="Trazado 772119" d="M188.188,24.867a13.613,13.613,0,0,0,1.6-6.572c-.075-7.241-5.7-13.044-12.557-12.958l-.528.019C175.351,2.191,171.71-.052,167.451,0c-4.791.055-8.738,3-9.5,6.813a18.247,18.247,0,0,0-2.538-.148,17.329,17.329,0,0,0-7.692,1.867,9.6,9.6,0,0,0-8.413-5,9.752,9.752,0,0,0-8.737,6.089,12.767,12.767,0,0,0-7.177-2.107,13.449,13.449,0,0,0-13.022,13.823,13.787,13.787,0,0,0,4.966,10.531,11.021,11.021,0,0,0-1.845,6.233,10.806,10.806,0,0,0,10.852,10.782,19.2,19.2,0,0,0,3.19-.532c4.643,8.047,17.691,4.261,16.571,2.838C158.845,69.9,174.794,67.564,175.176,67.4c-6.284-1.619-9.666-7.15-12.3-13.908a15.492,15.492,0,0,0,5.466.913,15.064,15.064,0,0,0,12.383-6.553,13.628,13.628,0,0,0,5.031.883c7.132-.087,12.855-5.555,12.784-12.207-.06-5.792-4.494-10.575-10.35-11.66" transform="translate(-2.844 0)" fill="#f4a338"/>
        <path id="Trazado_772120" data-name="Trazado 772120" d="M179.451,90.139c-3.633,2.358-5.142,7.414-7.269,13.409a36.983,36.983,0,0,0,42.23.139c-2.144-6.074-3.625-11.233-7.324-13.549-6.312-3.953-10.109-4.9-13.832-4.95-3.809-.051-7.541.881-13.805,4.95" transform="translate(3.742 9.076)" fill="#3e5e82" fill-rule="evenodd"/>
        <path id="Trazado_772121" data-name="Trazado 772121" d="M186.481,72.885h10.642V87.733c0,2.65-2.915,11.323-5.626,11.29-2.507-.03-5.016-8.557-5.016-11.29Z" transform="translate(5.265 7.765)" fill="#f5dbb7" fill-rule="evenodd"/>
        <path id="Trazado_772122" data-name="Trazado 772122" d="M197.122,81.4V79.543H186.481v7.035Z" transform="translate(5.265 8.475)" fill="#ddc39f" fill-rule="evenodd"/>
        <path id="Trazado_772123" data-name="Trazado 772123" d="M192.21,55.266c22.1,0,13.916,29.239,0,29.239-13.1,0-22.1-29.239,0-29.239" transform="translate(4.447 5.888)" fill="#f5dbb7" fill-rule="evenodd"/>
        <path id="Trazado_772124" data-name="Trazado 772124" d="M199.03,58.27c3.582,1.523,5.04,6.117,5.869,9.214,1.2,4.5.525,4.111,2.13.684s-2.327-18.2-13.806-18.2-16.181,11.366-14.575,17.576,1.606,4.736,2.609.025c2.579-12.118,11.666-6.813,17.773-9.3" transform="translate(4.398 5.324)" fill="#f4a338" fill-rule="evenodd"/>
        <path id="Trazado_772125" data-name="Trazado 772125" d="M199.827,59.928c-1.993.866-8.922,5.285-11.78,5.371s.519-.519,1.3-1.386-5.459,1.993-6.931,2.079,0-.173.694-1.126-2.512.52-1.993,3.118-2.143,1.628-2.317-.8.065-2.838,1.018-5.089,13.513-5.371,17.5-5.371,7.277,3.985,8.229,5.718a6.977,6.977,0,0,1,.733,5.169c-.434,1.559-1.773,2.281-1.773.289s-3.2-4.332-4.677-7.97" transform="translate(4.441 6.043)" fill="#f4a338" fill-rule="evenodd"/>
        <path id="Trazado_772126" data-name="Trazado 772126" d="M204.433,64.361c.806.179,1.122,1.837.707,3.7s-1.405,3.232-2.211,3.052-1.121-1.837-.706-3.7,1.4-3.233,2.21-3.054" transform="translate(6.923 6.856)" fill="#f5dbb7" fill-rule="evenodd"/>
        <path id="Trazado_772127" data-name="Trazado 772127" d="M178.593,64.361c-.806.179-1.122,1.837-.707,3.7s1.405,3.232,2.211,3.052,1.122-1.837.707-3.7-1.405-3.233-2.211-3.054" transform="translate(4.33 6.856)" fill="#edd4b1" fill-rule="evenodd"/>
        <path id="Trazado_772128" data-name="Trazado 772128" d="M177.721,91.074c-2.448,2.693-3.781,7.012-5.54,11.965a36.874,36.874,0,0,0,7.725,4.124,23.5,23.5,0,0,0,.573-5.194,22.059,22.059,0,0,0-2.758-10.9" transform="translate(3.742 9.703)" fill="#f5dbb7" fill-rule="evenodd"/>
        <path id="Trazado_772129" data-name="Trazado 772129" d="M203.423,107.176a36.871,36.871,0,0,0,7.723-4.114c-1.754-4.973-3.07-9.328-5.532-12a22.054,22.054,0,0,0-2.766,10.911,23.53,23.53,0,0,0,.575,5.205" transform="translate(7.009 9.702)" fill="#f5dbb7" fill-rule="evenodd"/>
        <path id="Trazado_772130" data-name="Trazado 772130" d="M131.739,38.526l10.916-13.062-10.916-8.772Z" transform="translate(-0.567 1.778)" fill="#fff"/>
        <path id="Trazado_772131" data-name="Trazado 772131" d="M166.819,38.526V16.693L155.9,25.464Z" transform="translate(2.007 1.778)" fill="#fff"/>
        <path id="Trazado_772132" data-name="Trazado 772132" d="M165.613,37.259h.093v-.077Z" transform="translate(3.042 3.961)" fill="#fff"/>
        <path id="Trazado_772133" data-name="Trazado 772133" d="M132.079,37.259h.092l-.092-.077Z" transform="translate(-0.531 3.961)" fill="#fff"/>
        <path id="Trazado_772134" data-name="Trazado 772134" d="M168.582,38.67l-.065-.147L157.463,25.261l-6.845,5.483-6.845-5.508L132.719,38.528l-.065.143Z" transform="translate(-0.47 2.689)" fill="#fff"/>
        <path id="Trazado_772135" data-name="Trazado 772135" d="M143.6,24.64l.418.377.42.356L150.6,30.33l6.157-4.941.418-.334.419-.416,10.748-8.715H132.855Z" transform="translate(-0.449 1.696)" fill="#fff"/>
        <path id="Trazado_772136" data-name="Trazado 772136" d="M103.5,236.606c9.22.237,16.538,6.5,16.347,13.992s-7.822,13.373-17.042,13.136a20.342,20.342,0,0,1-2.6-.231c-3.677,3.494-7.975,4.028-12.116,4.016l.023-.877c2.262-1.037,4.252-2.982,4.311-5.261a6.415,6.415,0,0,0-.046-.938c-3.712-2.583-6.03-6.443-5.92-10.7.193-7.491,7.822-13.373,17.042-13.136" transform="translate(-5.392 25.209)" fill="#f4a338"/>
        <path id="Trazado_772137" data-name="Trazado 772137" d="M78.974,106.709H45.57a5.714,5.714,0,0,0-5.985,5.485v67.825a5.786,5.786,0,0,0,5.985,5.568h33.4a5.445,5.445,0,0,0,5.586-5.568V112.194a5.373,5.373,0,0,0-5.586-5.485" transform="translate(-10.386 11.369)" fill="#373f51"/>
        <rect id="Rectángulo_363600" data-name="Rectángulo 363600" width="35.979" height="54.661" transform="translate(34.042 127.765)" fill="#f4a338"/>
        <path id="Trazado_772138" data-name="Trazado 772138" d="M68.551,111.845H53.341v-1.384H68.564v1.384Z" transform="translate(-8.921 11.769)" fill="#aab3c1"/>
        <path id="Trazado_772139" data-name="Trazado 772139" d="M73.36,111.188a1.481,1.481,0,1,1-1.481-1.478,1.481,1.481,0,0,1,1.481,1.478" transform="translate(-7.103 11.689)" fill="#aab3c1"/>
        <rect id="Rectángulo_363601" data-name="Rectángulo 363601" width="13.838" height="4.152" transform="translate(45.112 186.577)" fill="#aab3c1"/>
        <path id="Trazado_772140" data-name="Trazado 772140" d="M111.251,248.633a9.014,9.014,0,1,0-8.495,9.5l1.125-.063a1.127,1.127,0,0,0-.126-2.251l-1.125.063a6.76,6.76,0,1,1,6.37-7.127l.189,3.375a1.127,1.127,0,0,1-2.25.126l-.189-3.375a4.551,4.551,0,1,0-1.985,3.973,3.372,3.372,0,0,0,6.675-.85Zm-8.873,2.754a2.253,2.253,0,1,1,2.123-2.376,2.252,2.252,0,0,1-2.123,2.376" transform="translate(-4.67 25.584)" fill="#fff"/>
        <path id="Trazado_772141" data-name="Trazado 772141" d="M52.778,147.4c-2.191,1.422-3.1,4.479-4.384,8.1a22.156,22.156,0,0,0,5.778,2.885c1.92-1.618,4.509-1.039,6.928-1.039,2.042-3.175,4.75-.959,6.931,1.039a22.172,22.172,0,0,0,5.758-2.874c-1.282-3.637-2.174-6.723-4.392-8.111-3.8-2.377-6.078-2.946-8.318-2.977-2.291-.031-4.535.53-8.3,2.977" transform="translate(-9.448 15.387)" fill="#fff" fill-rule="evenodd"/>
        <path id="Trazado_772142" data-name="Trazado 772142" d="M57.093,136.723h6.228v9c0,3.459-6.228,3.459-6.228,0Z" transform="translate(-8.521 14.567)" fill="#f5dbb7" fill-rule="evenodd"/>
        <path id="Trazado_772143" data-name="Trazado 772143" d="M63.32,142.131V141.1H57.093v4.148Z" transform="translate(-8.521 15.034)" fill="#ddc39f" fill-rule="evenodd"/>
        <path id="Trazado_772144" data-name="Trazado 772144" d="M60.356,126.426c13.838,0,8.3,17.583,0,17.583-7.611,0-13.146-17.583,0-17.583" transform="translate(-9.017 13.47)" fill="#f5dbb7" fill-rule="evenodd"/>
        <path id="Trazado_772145" data-name="Trazado 772145" d="M60.489,128.349c4.464,0,6.626,2.932,6.769,5.193s.931,2.472,1.9.412-1.4-10.946-8.3-10.946-9.73,6.835-8.765,10.57,2.162,1.617,2.116.014,1.34-5.114,6.287-5.243" transform="translate(-9.074 13.106)" fill="#755f55" fill-rule="evenodd"/>
        <path id="Trazado_772146" data-name="Trazado 772146" d="M54.107,134.681c-.227,1.578-1.641.539-1.745-.921a4.871,4.871,0,0,1,.612-3.061c.573-1.354,3.622-4.976,7.468-4.976s7.429,4.143,8,5.184a4.191,4.191,0,0,1,.44,3.108c-.26.938-.869,1.589-1.2.437-1.122-3.942-4.292-6.321-7.146-6.369-3.508-.062-6.022,3.724-6.435,6.6" transform="translate(-9.028 13.395)" fill="#755f55" fill-rule="evenodd"/>
        <path id="Trazado_772147" data-name="Trazado 772147" d="M67.735,131.895c.485.107.675,1.1.425,2.227s-.844,1.943-1.329,1.835-.675-1.1-.425-2.225.844-1.944,1.329-1.837" transform="translate(-7.54 14.052)" fill="#f5dbb7" fill-rule="evenodd"/>
        <path id="Trazado_772148" data-name="Trazado 772148" d="M52.195,131.895c-.485.107-.675,1.1-.425,2.227s.845,1.943,1.329,1.835.675-1.1.425-2.225-.844-1.944-1.329-1.837" transform="translate(-9.1 14.052)" fill="#edd4b1" fill-rule="evenodd"/>
        <path id="Trazado_772149" data-name="Trazado 772149" d="M55.417,145.426v9.744H65.8v-9.683c.693.27.693.6,1.384.995v11.79a21.4,21.4,0,0,1-6.919,1.105,24.587,24.587,0,0,1-6.919-1.112V146.447a14.745,14.745,0,0,1,2.076-1.021" transform="translate(-8.921 15.494)" fill="#415b76" fill-rule="evenodd"/>
        <path id="Trazado_772150" data-name="Trazado 772150" d="M65.584,128.408c.432,2.64-4.612,6.391-10.416,6.645-.526-6.861,5.875-9.2,10.416-6.645" transform="translate(-8.729 13.574)" fill="#755f55" fill-rule="evenodd"/>
        <path id="Trazado_772151" data-name="Trazado 772151" d="M104.36,80.421c10.55.27,18.925,7.438,18.705,16.011s-8.951,15.3-19.5,15.031a23.509,23.509,0,0,1-2.973-.264c-4.208,4-9.126,4.609-13.864,4.594l.027-1c2.588-1.187,4.865-3.413,4.933-6.021a7.171,7.171,0,0,0-.054-1.072c-4.247-2.956-6.9-7.373-6.773-12.244.22-8.572,8.951-15.3,19.5-15.031" transform="translate(-5.563 8.568)" fill="#373f51"/>
        <path id="Trazado_772152" data-name="Trazado 772152" d="M85.612,154.68a11.3,11.3,0,0,0-10.381,15.944L83.7,189.358c.406.9.994,1.465,1.651,1.47s1.253-.551,1.672-1.444l8.738-18.612A11.3,11.3,0,0,0,85.612,154.68m-.129,18.074a6.778,6.778,0,1,1,6.826-6.729,6.779,6.779,0,0,1-6.826,6.729" transform="translate(-46.687 -84.455)" fill="#4adbd1"/>
        <path id="Trazado_772153" data-name="Trazado 772153" d="M102.582,97.729a2.8,2.8,0,1,1-2.928,2.657,2.795,2.795,0,0,1,2.928-2.657" transform="translate(-3.986 10.412)" fill="#fff"/>
        <path id="Trazado_772154" data-name="Trazado 772154" d="M109.9,94.754c-.04-.044-.081-.085-.122-.126l-.12-.124a.622.622,0,0,0-.067-.063,9.12,9.12,0,0,0-12.6-.313l-.424.385-.586.532a1.755,1.755,0,0,0,2.359,2.6l1.011-.917a5.633,5.633,0,0,1,7.946.384l.664.708a1.741,1.741,0,0,0,3.022-1.089,1.712,1.712,0,0,0-.446-1.248Z" transform="translate(-4.438 9.776)" fill="#fff"/>
        <path id="Trazado_772155" data-name="Trazado 772155" d="M115.217,92.091l-.552-.609-.008-.007-.436-.482a1.572,1.572,0,0,0-.25-.221,15.218,15.218,0,0,0-20.556-.522c-.029.024-.061.04-.09.066l-1.1,1a1.6,1.6,0,0,0,2.152,2.37l1.1-.995a.136.136,0,0,1,.021-.022,12.013,12.013,0,0,1,16.564.712l.785.865a1.6,1.6,0,0,0,2.37-2.152" transform="translate(-4.833 9.217)" fill="#fff"/>
      </g>
    </g>
  </g>
</svg>
