<svg xmlns="http://www.w3.org/2000/svg" xmlns:xlink="http://www.w3.org/1999/xlink" width="110.72" height="110.723" viewBox="0 0 110.72 110.723">
  <defs>
    <linearGradient id="linear-gradient" x1="0.5" x2="0.5" y2="1" gradientUnits="objectBoundingBox">
      <stop offset="0" stop-color="#fff"/>
      <stop offset="0.463" stop-color="#e9fffe"/>
      <stop offset="1" stop-color="#fff"/>
    </linearGradient>
    <radialGradient id="radial-gradient" cx="0.5" cy="0.5" r="0.5" gradientUnits="objectBoundingBox">
      <stop offset="0" stop-color="#fff"/>
      <stop offset="1" stop-color="#91b3fa"/>
    </radialGradient>
  </defs>
  <g id="Capa_x0020_1" transform="translate(0.021 0.007)">
    <path id="Trazado_766764" data-name="Trazado 766764" d="M52.637,106.992c-.062-1.282,1.713-5.485,2.119-7.044h1.077c.461,1.782,2.087,5.5,2.176,7.121l-5.372-.078ZM17.824,82.1h3.571l0,24.985H17.821l0-24.985Zm-7.137,7.137h3.571l0,17.848H10.684l0-17.848ZM3.549,96.38H7.12l0,10.711H3.547Zm64.665-6.507c5.11,1.952,2.261,4.285,5.325,10.132.62,1.184,1.342,1.992,1.86,3.082-4.621,1.426-8.185,3.052-13.653,3.57-.434-1.726-1.191-3.684-1.757-5.381-1.5-4.5-.652-2.3.345-4.991,1.49.435,3.217,1.952,4.773,2.648l3.105-9.061ZM32.883,102.064a19.494,19.494,0,0,1,3.611-7.309c1.039-1.255,4.061-4.277,5.883-4.916l2.836,8.618a1.641,1.641,0,0,0,.268.476c1.555-.692,3.292-2.211,4.775-2.648.3.8,1.165,1.619,1.174,2.31l-2.592,8.038a45.341,45.341,0,0,1-8.488-1.771c-2.608-.823-5.252-2.153-7.466-2.8Zm22.423-8.889,2.135,1.141-1.257,2.043-.89.013-.866-.03-1.185-2.036,2.062-1.13Zm33.7-18.063a15.8,15.8,0,0,1,6.978.653A16.385,16.385,0,0,1,106.9,88.929,16.057,16.057,0,1,1,89.007,75.112ZM58.62,90.718c3.725-2.5,4.013-3.766,6.3-2.365A26.18,26.18,0,0,1,63.1,93.565c-.846-.426-1.564-.9-2.308-1.347ZM45.66,88.352c2.126-1.4,3.037-.009,6.257,2.453l-2.256,1.5c-.79.481-1.519.93-2.312,1.313l-1.689-5.265ZM50.2,85.011a9.7,9.7,0,0,1,.86-2.924l8.476-.069a10.865,10.865,0,0,1,.86,2.993c-1.677.932-3.434,2.762-5.1,3.7-1.636-.957-4.191-3.2-5.1-3.7ZM83.308,71.4l1.061,0,.256.89a4.221,4.221,0,0,1-1.834.842l.516-1.735Zm10.35-1.017c.035-.051.074-.12.094-.158l3.011-8.914c2.25.859,5,3.609,6.414,5.7,2.633,3.889,1.639,2.7-.141,8.433-1.087-.52-1.894-1.245-3.072-1.865-4.643-2.442-7.347-1.99-11.821-2.018-.894-2.935-.068-1.655.741-3.828,1.475.433,3.225,1.954,4.773,2.65Zm-23.4,1.036c6.575-.23,5.126-2.677,8.547-3.685.974,2.563,2.2.374-.706,8.181-.625,1.678-3.912,3.211-5.741,8.98a13.781,13.781,0,0,1-.78,2.675c-1.088-.542-2.22-1.282-3.539-1.922-3.84-1.864-4.047.024-4.912-4.723,3.949-2.1,6.438-4.923,7.131-9.506Zm-56,14.257c-1.072-.026-.988-.162-1.532-.923C10.472,81.605,6.1,73.1,5.675,69.944c-.241-1.772,4.157-5.595,7.464-6.558,1,1.412,1.544,7.184,8.878,11.194,1.54.842,1.845.357,3.322-.571,4.942-3.1,5.774-6.531,6.99-7.987,1.225,3.749,3.322,5.221,8,5.4.67,4.532,3.261,7.477,7.135,9.5a8.293,8.293,0,0,1-.932,3.144c-.75.723-5.05.964-10.559,5.931A25.136,25.136,0,0,0,29.7,100.186c-1.528-.519-3.393-2.124-4.738-2.875l0-18.771h-10.7v7.137Zm8.921-14.593c-1.9-.933-2.488-1.883-3.72-3.2l.849-.057,5.773-.015.818.091A11.313,11.313,0,0,1,23.177,71.084Zm60.681-6.451,2.116,1.144L84.725,67.8l-.881.011-.856-.03L81.8,65.765l2.054-1.134ZM71.2,60.764c4.424-.32,5.645,7.026-.585,7.069Zm-31.233,7.07c-6.191-.043-5.041-7.4-.582-7.07ZM16.634,61.51c1.457-1.013,1.853-2.771,2.215-4.946a19.155,19.155,0,0,0,8.652-.007c.354,2.151.8,3.969,2.215,4.956-.029.954-.171,2.326-.964,2.752H17.6c-.8-.427-.935-1.8-.966-2.755Zm63.89.838-2.052,1.184-1.111-3.56A25.6,25.6,0,0,1,80.524,62.347ZM48.38,53.695c6.634,4.145,5.994,3.444,15.39,3.429,2.265,0,4.07-.442,3.979,2.227-.108,3.163-.517,8.39-.983,11.465a9.185,9.185,0,0,1-5.312,6.972c-2.278.977-8.917,1.115-11.347.366a9.214,9.214,0,0,1-6.1-6.395c-.691-2.8-.8-8.252-1.078-11.372-.2-2.258-.029-3.719,1.38-4.656A29.578,29.578,0,0,1,48.38,53.7Zm38.838,8.561C90.8,59.6,91.191,58.429,93.461,59.8a26.76,26.76,0,0,1-1.811,5.219c-.865-.452-1.556-.9-2.311-1.349Zm-8.471-5.795a9.784,9.784,0,0,1,.86-2.924l8.476-.07a10.885,10.885,0,0,1,.86,2.994c-1.679.938-3.425,2.743-5.1,3.7-1.672-.962-3.418-2.772-5.1-3.7Zm-47.764-1.12c0-.324,1.26-.956,1.561-1.115.036,1.629.633,3.724.669,5.353-.941-.452-1.253-.233-1.655-1.468A12.924,12.924,0,0,1,30.983,55.341ZM4.441,64.709a44.7,44.7,0,0,0-.61-4.521A58.718,58.718,0,0,1,3.864,50.3a50.437,50.437,0,0,1,1.769-9.16l1.4-3.952c.017-.03.051-.1.082-.141,0,6.536-.169,8.872,3.028,13.477L12.5,53.079c.4.32.51.5.952.832.361.274,1.917,1.139,1.917,1.428,0,1.034-.577,3.27-1.162,3.745a4.99,4.99,0,0,1-1.819.634,18.339,18.339,0,0,0-5.142,2.664c-1,.692-1.885,1.708-2.805,2.325ZM91.65,52.442c3.38-1.789,7.137-5.138,7.137-9.591,3.627,0,3.294-.032,6.245-2.007.018.8,1.612,6.66,1.784,10.26a57.7,57.7,0,0,1-.032,8.889c-.141,1.328-.608,3.406-.637,4.716-.626-.419-.306-.208-.768-.794A25.526,25.526,0,0,0,99.1,58.371c-3.267-2.159-6.327-2.276-6.749-3.287-.318-.763-.334-1.872-.7-2.642Zm-50.839-8.2c.655-4.494,3.622-7.846,8.062-8.439C52.73,35.291,60.6,35.6,63.918,36.9c8.733,3.427,13.055,13.8,10.3,20.739l-3.085-.567c-1.333-1.815-.711-2.161-3.075-3.122-1.424-.579-9.61-.082-10.96-7.879l-3.455.7c.038,2.111,2.548,6.134,3.549,6.671-3.523.6-8.245-2.928-9.015-7.372l-3.455.7a9.029,9.029,0,0,0,1.374,3.84c-.762.976-3.242,1.665-4.2,2.476a7.024,7.024,0,0,0-2.457,3.955l-2.818.5c-.7-6.487-2.918-11.633,4.2-13.3ZM21.39,29.12A8.868,8.868,0,0,1,23.6,31.1l1.439-1.432c.777.322.305.063.938.584.257.212.442.409.686.641a18.813,18.813,0,0,0,4.564,3.016c4.2,2.008,4.432-.158,4.439,5.6.007,6.032-.856,1.532-3,7.037-.658,1.685-.194,3.145-1.2,3.924-6.6,5.11-14.751,2.893-17.788-1.231-3.96-5.376-2.993-9.424-2.993-17.093H21.39V29.119ZM99.3,37.48c.642-.469,3.022-1.887,3.735-2.241.826,2.681-1.1,4.016-3.869,4.045Zm-34.147-4a2.775,2.775,0,0,1,2.785-1.269l.189,2.7Zm7.553-6.2c.6.568,1.3,2.5,2.755,4.323a19.506,19.506,0,0,0,13.619,7.572c.8,4.67-6.965,3.677-10.588,3.677l.026,3.565h6.44c6.4,0,6.939-3.732,7.924-7.231l2.732-.426c-.24,3.941-.357,5.742-2.537,8.185a9.048,9.048,0,0,1-7.226,3.043c-2.423,0-5.7.258-7.661-.594-2.972-10.734-6.066-9.879-6.309-12.563-.423-4.677-1.244-7.318.825-9.553Zm21.978,7.856A27.6,27.6,0,0,0,98.2,28.556h6.075a13.251,13.251,0,0,1-4.11,4.3c-.947.643-3.98,2.415-5.483,2.281Zm-3.7-1.006a21.823,21.823,0,0,1-3.4-5.575l6.8,0a21.96,21.96,0,0,1-3.4,5.573Zm-3.7,1.008c-2.452.206-8.072-3.54-9.591-6.583H83.4C83.948,28.71,85.993,33.83,87.28,35.138ZM32.18,18.844a16.016,16.016,0,0,1,10.6,15.532c-.688.713-1.28,1.028-1.883,1.662l-1.657,2c-.03-4.01-1.162-5.673-4.574-6.68-3.809-1.126-4.566-2.515-6.834-4.083.71-1.449,2.418-2.227,3.233-3.608a6.8,6.8,0,0,0-1.995-2.2l3.013-.033Zm54.08,6.184c-.7-4.678-.87-6-.018-10.746H95.7c.868,4.8.7,6.016-.01,10.746Zm19.9-10.731c1.159,5.209,1.157,5.517,0,10.73l-6.84,0a28.034,28.034,0,0,0,0-10.749ZM75.8,25.014c-1.16-5.2-1.172-5.508,0-10.73l6.838,0a28.324,28.324,0,0,0,0,10.749ZM65.292,21.885c-1.448-1.888-6.408-4.655-4.017-8.97.893-1.612,2.375-2.188,4.945-2.186q3.622,0,7.244,0c-2.033,5.225-2.473,6.777-1.714,12.957C69.835,25,68.609,25.8,67.992,28.559c-3.308.2-3.052.961-5.115,1.8C61.4,29.444,59.888,27.6,61,25.144c.964-2.122,2.769-1.9,4.287-3.259ZM87.579,10.752a21.947,21.947,0,0,1,3.4-5.573,21.71,21.71,0,0,1,3.406,5.575l-6.808,0ZM14.255,3.595h3.569l.011,3.621,3.338,1.248L23.64,6.085l2.425,2.459-2.5,2.4,1.3,3.361H28.53l-.015,3.57-3.608.01L23.659,21.22l2.38,2.466-2.456,2.42-2.4-2.5L17.824,24.93l.027,3.647h-3.6l-.01-3.627-3.339-1.243L8.44,26.082,6.015,23.629l2.51-2.4L7.17,17.882l-3.622-.011V14.3l3.621-.01,1.251-3.342L6.037,8.485,8.5,6.059l2.4,2.512,3.354-1.328V3.6ZM57.079,14.748c0,2.434.628,5.023,2.453,6.245-1.417,2.116-2.453,2.184-2.453,6.245,0,2.247,1.1,3.552,2.007,4.907l-9.822-.008c-1.224.032-1.837.366-2.891.454,0-5.71-4.064-11.959-8.918-15.17-6.027-3.988-5.357.308-5.357-6.687H29.422l1.186-.822A58.423,58.423,0,0,1,40.715,5.745,59.615,59.615,0,0,1,51.051,3.813c3.318-.079,2.921-.424,6.507-.027.865.1,1.7-.023,2.583.093A53.252,53.252,0,0,1,72.562,6.625c.675.238.572.15,1.021.54-3.526,0-8.815-.535-11.513.531a8.163,8.163,0,0,0-4.991,7.053ZM98.2,10.754a27.583,27.583,0,0,0-3.518-6.583c2.462-.208,8.09,3.553,9.6,6.583H98.2Zm-20.516,0c1.489-3.021,7.154-6.806,9.593-6.581a27.63,27.63,0,0,0-3.518,6.581Zm-67-7.827L8.5.872.817,8.448l2.11,2.238-2.948.048V21.439h2.9L.824,23.622,6.393,29.3C3.358,35.086-.02,44.456-.02,53.335c0,10.21,1.17,17.534,5.576,26.319L8.9,85.676H7.117v7.137H-.02v17.843H24.96v-8.922c6.022,3.186,8.2,5.081,16.057,7.14a56.165,56.165,0,0,0,36.8-2.9c.9,0,5.218,4.684,12.044,4.684,3.857,0,6.024-.108,9.519-1.856,6.26-3.129,11.224-9.651,11.224-16.657,0-4.55-.537-7.887-3.029-11.692-2.159-3.3-2.247-.87.1-7.075,3.94-10.423,3.9-25.362.061-35.908-2.857-7.856-2.244-2.415,1.235-9.857,4.268-9.13.432-20.69-9.442-25.653A19.666,19.666,0,0,0,80.4,3.057c-3.69,2.417-.133,2.162-9.47-.827C64.726.243,59.942.028,53.286.028,44.407.028,35.037,3.407,29.2,6.5L23.676.866l-2.238,2.11L21.391.028H10.685v2.9Z" transform="translate(0 0)" fill-rule="evenodd"/>
    <path id="Trazado_766765" data-name="Trazado 766765" d="M1512.713,1503.05h3.568v3.122c0,2.334,3.568.071,3.568,7.583h-3.567c0-3.311-.26-3.568-3.57-3.568,0,5.091,1.576,2.613,4.572,4.352,3.21,1.863,2.565,5.782,2.566,9.923h-3.569l-.013,3.568h-3.554v-3.122c0-2.431-3.569.031-3.569-7.583h3.567c0,3.311.259,3.568,3.57,3.568,0-5.092-1.576-2.614-4.57-4.354-3.208-1.865-2.568-5.823-2.568-9.921h3.569v-3.568Zm-.191-3.428a16.047,16.047,0,1,0,17.893,13.818,16.385,16.385,0,0,0-10.915-13.165,15.809,15.809,0,0,0-6.978-.652Z" transform="translate(-1423.516 -1424.51)" fill="#f4a338" fill-rule="evenodd"/>
    <path id="Trazado_766766" data-name="Trazado 766766" d="M122.3,1289.99v-7.137H133l0,18.771c1.345.75,3.21,2.356,4.738,2.875a25.145,25.145,0,0,1,6.273-10.185c5.509-4.967,9.809-5.208,10.559-5.931a8.3,8.3,0,0,0,.932-3.144c-3.874-2.026-6.465-4.971-7.135-9.5-4.677-.179-6.773-1.651-8-5.4-1.217,1.456-2.049,4.885-6.99,7.987-1.477.927-1.782,1.413-3.322.571-7.333-4.009-7.876-9.782-8.878-11.194-3.307.963-7.7,4.786-7.464,6.558.429,3.157,4.8,11.661,7.048,14.809.544.76.46.9,1.532.922Z" transform="translate(-108.043 -1204.313)" fill-rule="evenodd" fill="url(#linear-gradient)"/>
    <path id="Trazado_766767" data-name="Trazado 766767" d="M720.064,720.131c-7.115,1.662-4.892,6.808-4.2,13.3l2.818-.5a7.022,7.022,0,0,1,2.457-3.954c.96-.811,3.441-1.5,4.2-2.476a9.033,9.033,0,0,1-1.374-3.84l3.455-.7c.77,4.444,5.492,7.972,9.015,7.372-1-.536-3.511-4.56-3.549-6.671l3.455-.7c1.351,7.8,9.536,7.3,10.96,7.879,2.364.961,1.742,1.307,3.075,3.122l3.085.567c2.759-6.936-1.564-17.311-10.3-20.739-3.317-1.3-11.189-1.61-15.045-1.095C723.686,712.286,720.719,715.637,720.064,720.131Z" transform="translate(-679.252 -675.885)" fill="#b17946" fill-rule="evenodd"/>
    <path id="Trazado_766768" data-name="Trazado 766768" d="M864.575,1091.608c4.568,0,10.276,1.24,10.7-3.569l3.565.007a6.717,6.717,0,0,1-1.3,4.042c-3.306,4.113-6.618,3.085-12.968,3.085v-3.565Zm-1.563-17.707a29.664,29.664,0,0,0-4.07,2.036c-1.409.937-1.583,2.4-1.38,4.656.28,3.121.387,8.569,1.078,11.372a9.215,9.215,0,0,0,6.1,6.395c2.43.749,9.069.61,11.347-.366a9.185,9.185,0,0,0,5.312-6.972c.466-3.076.875-8.3.983-11.466.091-2.669-1.714-2.231-3.979-2.227-9.4.016-8.756.717-15.39-3.429Z" transform="translate(-814.632 -1020.205)" fill="#eeceb3" fill-rule="evenodd"/>
    <path id="Trazado_766769" data-name="Trazado 766769" d="M219.222,599.781c4.568,0,10.276,1.24,10.7-3.569l3.565.007a6.717,6.717,0,0,1-1.3,4.042c-3.306,4.113-6.618,3.085-12.968,3.085v-3.565Zm3.565-14.278H212.081c0,7.669-.967,11.717,2.993,17.093,3.037,4.124,11.19,6.34,17.788,1.231,1.006-.779.543-2.239,1.2-3.924,2.148-5.505,3.011-1.005,3-7.037-.007-5.758-.237-3.592-4.439-5.6a18.835,18.835,0,0,1-4.564-3.016c-.244-.232-.429-.43-.686-.641-.633-.522-.161-.263-.938-.584L225,584.456a8.878,8.878,0,0,0-2.214-1.976V585.5Z" transform="translate(-201.396 -553.359)" fill="#eeceb3" fill-rule="evenodd"/>
    <path id="Trazado_766770" data-name="Trazado 766770" d="M82.876,79.277a5.346,5.346,0,0,1,1.969,10.508c-7.009,1.283-8.933-9.2-1.969-10.509Zm-.831-3.589-3.354,1.328L76.29,74.5,73.83,76.93l2.383,2.464-1.251,3.342-3.621.01v3.57l3.622.01,1.355,3.349-2.51,2.4,2.425,2.453L78.7,92.153,82.037,93.4l.01,3.627h3.6l-.027-3.647,3.361-1.319,2.4,2.5,2.456-2.42-2.38-2.466L92.7,86.326l3.608-.01.015-3.57H92.656l-1.3-3.361,2.5-2.4L91.432,74.53,88.966,76.91l-3.338-1.248-.01-3.621H82.047v3.647Z" transform="translate(-67.792 -68.444)" fill="#f4a338" fill-rule="evenodd"/>
    <path id="Trazado_766771" data-name="Trazado 766771" d="M1434.235,567.825c1.96.852,5.238.594,7.661.594a9.049,9.049,0,0,0,7.226-3.043c2.181-2.443,2.3-4.244,2.537-8.185l-2.732.425c-.985,3.5-1.529,7.231-7.924,7.231h-6.44l-.026-3.565c3.623,0,11.39.993,10.588-3.677a19.508,19.508,0,0,1-13.619-7.572c-1.457-1.827-2.151-3.755-2.755-4.323-2.069,2.235-1.248,4.876-.825,9.553.243,2.684,3.337,1.829,6.309,12.563Z" transform="translate(-1356.045 -518.428)" fill="#eeceb3" fill-rule="evenodd"/>
    <path id="Trazado_766772" data-name="Trazado 766772" d="M1217.28,225.885c-1.518,1.355-3.323,1.138-4.286,3.259-1.117,2.459.391,4.3,1.873,5.214,2.062-.839,1.806-1.6,5.115-1.8.617-2.756,1.843-3.556,3.759-4.869-.76-6.179-.32-7.731,1.714-12.957q-3.622,0-7.245,0c-2.57,0-4.052.574-4.945,2.186-2.391,4.315,2.568,7.082,4.016,8.97Z" transform="translate(-1151.988 -203.999)" fill="#656d78" fill-rule="evenodd"/>
    <path id="Trazado_766773" data-name="Trazado 766773" d="M657.961,1808.9c2.214.645,4.858,1.976,7.466,2.8a45.345,45.345,0,0,0,8.488,1.771l2.592-8.038c-.01-.691-.869-1.507-1.174-2.31-1.482.437-3.219,1.957-4.775,2.648a1.654,1.654,0,0,1-.268-.476l-2.836-8.618c-1.823.639-4.844,3.661-5.883,4.916a19.5,19.5,0,0,0-3.611,7.309Z" transform="translate(-625.077 -1706.841)" fill="#5573c6" fill-rule="evenodd"/>
    <path id="Trazado_766774" data-name="Trazado 766774" d="M1715.338,1574.3h-3.568c0,4.1-.641,8.056,2.568,9.921,2.994,1.74,4.569-.738,4.569,4.354-3.31,0-3.57-.258-3.57-3.568h-3.567c0,7.613,3.568,5.152,3.568,7.583v3.122h3.554l.013-3.568h3.569c0-4.141.644-8.06-2.566-9.923-3-1.739-4.572.739-4.572-4.352,3.31,0,3.571.258,3.571,3.568h3.567c0-7.512-3.568-5.248-3.568-7.583v-3.122h-3.568Z" transform="translate(-1626.139 -1492.19)" fill-rule="evenodd"/>
    <path id="Trazado_766775" data-name="Trazado 766775" d="M1269.881,1358.335c-.693,4.583-3.182,7.406-7.131,9.506.866,4.747,1.072,2.859,4.912,4.723,1.319.64,2.451,1.381,3.539,1.922a13.855,13.855,0,0,0,.78-2.675c1.828-5.769,5.115-7.3,5.741-8.98,2.91-7.807,1.68-5.618.706-8.181-3.421,1.009-1.971,3.456-8.547,3.685Z" transform="translate(-1199.624 -1286.915)" fill="#373f51" fill-rule="evenodd"/>
    <path id="Trazado_766776" data-name="Trazado 766776" d="M1189.7,1806.411c-1.555-.7-3.282-2.213-4.772-2.648-1,2.686-1.845.492-.345,4.991.566,1.7,1.323,3.656,1.757,5.381,5.468-.518,9.032-2.144,13.653-3.57-.519-1.09-1.24-1.9-1.86-3.082-3.064-5.847-.215-8.18-5.325-10.132l-3.105,9.061Z" transform="translate(-1124.595 -1707.478)" fill="#5573c6" fill-rule="evenodd"/>
    <path id="Trazado_766777" data-name="Trazado 766777" d="M561.252,379.585l-3.013.033a6.8,6.8,0,0,1,1.995,2.2c-.815,1.381-2.523,2.16-3.233,3.608,2.268,1.568,3.025,2.958,6.834,4.083,3.412,1.008,4.544,2.671,4.574,6.68l1.657-2c.6-.635,1.2-.949,1.883-1.662a16.016,16.016,0,0,0-10.6-15.531l-.094,2.595Z" transform="translate(-529.166 -358.145)" fill="#656d78" fill-rule="evenodd"/>
    <path id="Trazado_766778" data-name="Trazado 766778" d="M1714.09,296.486h9.433c.706-4.73.878-5.946.01-10.746h-9.461C1713.22,290.485,1713.391,291.808,1714.09,296.486Z" transform="translate(-1627.831 -271.458)" fill="#4adbd1" fill-rule="evenodd"/>
    <path id="Trazado_766779" data-name="Trazado 766779" d="M1761.2,1235.3c-1.548-.7-3.3-2.217-4.773-2.65-.809,2.174-1.635.893-.741,3.828,4.473.028,7.178-.425,11.821,2.018,1.178.62,1.986,1.345,3.072,1.865,1.78-5.728,2.774-4.544.141-8.433-1.415-2.091-4.165-4.841-6.414-5.7l-3.011,8.914c-.02.038-.06.107-.094.158Z" transform="translate(-1667.539 -1164.917)" fill="#373f51" fill-rule="evenodd"/>
    <path id="Trazado_766780" data-name="Trazado 766780" d="M356.77,1667.006h3.571l0-24.986h-3.571Z" transform="translate(-338.949 -1559.915)" fill="#4adbd1" fill-rule="evenodd"/>
    <path id="Trazado_766781" data-name="Trazado 766781" d="M333.04,1136.1c.031.954.171,2.328.966,2.755h11.152c.793-.426.936-1.8.964-2.752-1.417-.987-1.861-2.8-2.215-4.956a19.153,19.153,0,0,1-8.652.006C334.893,1133.332,334.5,1135.09,333.04,1136.1Z" transform="translate(-316.405 -1074.592)" fill="#eeceb3" fill-rule="evenodd"/>
    <path id="Trazado_766782" data-name="Trazado 766782" d="M218.469,220.152c0-2.253,3.568-2.253,3.568,0S218.469,222.406,218.469,220.152Zm.83-5.255c-6.964,1.311-5.041,11.792,1.969,10.509A5.346,5.346,0,0,0,219.3,214.9Z" transform="translate(-204.213 -204.066)" fill-rule="evenodd"/>
    <path id="Trazado_766783" data-name="Trazado 766783" d="M1499.672,296.472l6.838.016a28.322,28.322,0,0,1,0-10.749l-6.838,0C1498.5,290.964,1498.512,291.268,1499.672,296.472Z" transform="translate(-1423.867 -271.458)" fill="#4adbd1" fill-rule="evenodd"/>
    <path id="Trazado_766784" data-name="Trazado 766784" d="M1986.52,296.459l6.84,0c1.157-5.213,1.159-5.521,0-10.73l-6.84-.016A28.028,28.028,0,0,1,1986.52,296.459Z" transform="translate(-1887.201 -271.429)" fill="#4adbd1" fill-rule="evenodd"/>
    <path id="Trazado_766785" data-name="Trazado 766785" d="M214.05,1802.6h3.571l0-17.848h-3.571Z" transform="translate(-203.366 -1695.508)" fill="#4adbd1" fill-rule="evenodd"/>
    <path id="Trazado_766786" data-name="Trazado 766786" d="M356.86,860.64V864.2c6.35,0,9.662,1.028,12.968-3.085a6.72,6.72,0,0,0,1.3-4.042l-3.565-.008c-.424,4.809-6.131,3.569-10.7,3.569Z" transform="translate(-339.034 -814.218)" fill-rule="evenodd"/>
    <path id="Trazado_766787" data-name="Trazado 766787" d="M999.13,1360.19v3.565c6.35,0,9.662,1.028,12.968-3.085a6.72,6.72,0,0,0,1.3-4.042l-3.565-.007c-.424,4.809-6.131,3.569-10.7,3.569Z" transform="translate(-949.186 -1288.787)" fill-rule="evenodd"/>
    <path id="Trazado_766788" data-name="Trazado 766788" d="M1004.2,1643.274c.907.5,3.461,2.748,5.1,3.7,1.663-.943,3.421-2.773,5.1-3.7a10.851,10.851,0,0,0-.86-2.994l-8.476.068a9.718,9.718,0,0,0-.86,2.924Z" transform="translate(-954.003 -1558.262)" fill="#eeceb3" fill-rule="evenodd"/>
    <path id="Trazado_766789" data-name="Trazado 766789" d="M1575.121,1072.363c1.679.933,3.425,2.743,5.1,3.7,1.672-.961,3.418-2.766,5.1-3.7a10.865,10.865,0,0,0-.86-2.994l-8.476.069a9.789,9.789,0,0,0-.859,2.924Z" transform="translate(-1496.374 -1015.901)" fill="#eeceb3" fill-rule="evenodd"/>
    <path id="Trazado_766790" data-name="Trazado 766790" d="M71.32,1938.191h3.571l0-10.711H71.322Z" transform="translate(-67.773 -1831.1)" fill="#4adbd1" fill-rule="evenodd"/>
    <path id="Trazado_766791" data-name="Trazado 766791" d="M1553.89,90h6.075a27.629,27.629,0,0,1,3.518-6.581C1561.044,83.193,1555.379,86.977,1553.89,90Z" transform="translate(-1476.205 -79.244)" fill="#4adbd1" fill-rule="evenodd"/>
    <path id="Trazado_766792" data-name="Trazado 766792" d="M1897.309,89.986h6.079c-1.509-3.03-7.136-6.791-9.6-6.583A27.565,27.565,0,0,1,1897.309,89.986Z" transform="translate(-1799.108 -79.231)" fill="#4adbd1" fill-rule="evenodd"/>
    <path id="Trazado_766793" data-name="Trazado 766793" d="M1563.571,577.773c-1.286-1.308-3.331-6.428-3.882-6.583h-5.708C1555.5,574.233,1561.118,577.979,1563.571,577.773Z" transform="translate(-1476.29 -542.633)" fill="#4adbd1" fill-rule="evenodd"/>
    <path id="Trazado_766794" data-name="Trazado 766794" d="M1893.83,577.771c1.5.134,4.536-1.638,5.483-2.281a13.25,13.25,0,0,0,4.11-4.3h-6.075a27.611,27.611,0,0,1-3.518,6.581Z" transform="translate(-1799.146 -542.633)" fill="#4adbd1" fill-rule="evenodd"/>
    <path id="Trazado_766795" data-name="Trazado 766795" d="M1052.96,2005.893l5.372.078c-.089-1.626-1.716-5.339-2.176-7.121h-1.077c-.405,1.559-2.181,5.762-2.119,7.044Z" transform="translate(-1000.323 -1898.901)" fill-rule="evenodd" fill="url(#radial-gradient)"/>
    <path id="Trazado_766796" data-name="Trazado 766796" d="M1412.51,1222.146c6.23-.043,5.009-7.39.585-7.069Z" transform="translate(-1341.895 -1154.312)" fill="#eeceb3" fill-rule="evenodd"/>
    <path id="Trazado_766797" data-name="Trazado 766797" d="M718.175,1222.141l-.582-7.07C713.134,1214.745,711.983,1222.1,718.175,1222.141Z" transform="translate(-678.207 -1154.306)" fill="#eeceb3" fill-rule="evenodd"/>
    <path id="Trazado_766798" data-name="Trazado 766798" d="M1751.74,109.293l6.808,0a21.693,21.693,0,0,0-3.407-5.575,21.966,21.966,0,0,0-3.4,5.573Z" transform="translate(-1664.161 -98.54)" fill="#4adbd1" fill-rule="evenodd"/>
    <path id="Trazado_766799" data-name="Trazado 766799" d="M1755.162,576.765a21.946,21.946,0,0,0,3.4-5.573l-6.8,0A21.821,21.821,0,0,0,1755.162,576.765Z" transform="translate(-1664.18 -542.633)" fill="#4adbd1" fill-rule="evenodd"/>
    <path id="Trazado_766800" data-name="Trazado 766800" d="M1172.64,1758.28l2.174,1.5c.744.443,1.462.921,2.308,1.347a26.151,26.151,0,0,0,1.814-5.213C1176.654,1754.514,1176.365,1755.779,1172.64,1758.28Z" transform="translate(-1114.02 -1667.562)" fill="#5573c6" fill-rule="evenodd"/>
    <path id="Trazado_766801" data-name="Trazado 766801" d="M1744.53,1187.522l2.122,1.416c.755.452,1.446.9,2.311,1.349a26.807,26.807,0,0,0,1.811-5.219C1748.5,1183.7,1748.115,1184.87,1744.53,1187.522Z" transform="translate(-1657.312 -1125.265)" fill="#373f51" fill-rule="evenodd"/>
    <path id="Trazado_766802" data-name="Trazado 766802" d="M913.45,1756.4l1.689,5.265c.794-.384,1.523-.833,2.312-1.313l2.256-1.5c-3.221-2.463-4.131-3.851-6.257-2.453Z" transform="translate(-867.791 -1668.046)" fill="#5573c6" fill-rule="evenodd"/>
    <path id="Trazado_766803" data-name="Trazado 766803" d="M393.19,1359.577a11.322,11.322,0,0,0,3.718-3.177l-.818-.09-5.773.015-.849.057C390.7,1357.694,391.291,1358.643,393.19,1359.577Z" transform="translate(-370.013 -1288.492)" fill="#e6e8ed" fill-rule="evenodd"/>
    <path id="Trazado_766804" data-name="Trazado 766804" d="M1983.613,707.091l-.133,1.8c2.769-.029,4.694-1.364,3.869-4.045C1986.635,705.2,1984.255,706.622,1983.613,707.091Z" transform="translate(-1884.313 -669.61)" fill="#eeceb3" fill-rule="evenodd"/>
    <path id="Trazado_766805" data-name="Trazado 766805" d="M1065.13,1864.53l1.185,2.036.866.03.89-.013,1.256-2.043-2.135-1.141Z" transform="translate(-1011.886 -1770.225)" fill-rule="evenodd" fill="url(#radial-gradient)"/>
    <path id="Trazado_766806" data-name="Trazado 766806" d="M1636.26,1293.764l1.185,2.017.856.029.88-.011,1.249-2.024-2.116-1.144Z" transform="translate(-1554.456 -1227.997)" fill="#e6e8ed" fill-rule="evenodd"/>
    <path id="Trazado_766807" data-name="Trazado 766807" d="M1303.28,645.411l2.974,1.432-.189-2.7A2.774,2.774,0,0,0,1303.28,645.411Z" transform="translate(-1238.127 -611.927)" fill="#eeceb3" fill-rule="evenodd"/>
    <path id="Trazado_766808" data-name="Trazado 766808" d="M1548.541,1203l2.052-1.184a25.615,25.615,0,0,0-3.162-2.376l1.111,3.56Z" transform="translate(-1470.068 -1139.467)" fill="#373f51" fill-rule="evenodd"/>
    <path id="Trazado_766809" data-name="Trazado 766809" d="M1656.02,1429.7a4.219,4.219,0,0,0,1.834-.842l-.256-.89-1.061,0-.516,1.735Z" transform="translate(-1573.228 -1356.569)" fill="#e6e8ed" fill-rule="evenodd"/>
  </g>
</svg>
