<svg xmlns="http://www.w3.org/2000/svg" xmlns:xlink="http://www.w3.org/1999/xlink" width="119.719" height="119.707" viewBox="0 0 119.719 119.707">
  <defs>
    <linearGradient id="linear-gradient" x1="0.5" x2="0.5" y2="1" gradientUnits="objectBoundingBox">
      <stop offset="0" stop-color="#dedede"/>
      <stop offset="0.517" stop-color="#fff"/>
      <stop offset="1" stop-color="#dedede"/>
    </linearGradient>
  </defs>
  <g id="Capa_x0020_1" transform="translate(0.021 0.02)">
    <g id="_1654622701120" transform="translate(-0.02 -0.02)">
      <path id="Trazado_766810" data-name="Trazado 766810" d="M18.668,112.068l39.786-.1c-1.142,3.642-3.8,3.864-8.032,3.863H26.77c-4.567,0-6.644-.113-8.1-3.759Zm40.408-4-41.028.035c-.344-4.066-3.183-20.914-2.377-23.412,1.36-4.212,6.027-3.62,9.651-3.62H51.63c4.743,0,8.28-.436,9.779,3.5.9,2.372-1.915,19.567-2.332,23.491ZM12.228,92.658H7.7v3.859l5.037.008.948,7.709c-7.576-.255-10.432-5.764-9.674-12.655C6.276,71,27.88,66.459,30.092,67.868l4.979,6.108c.777.986,1.719,2.3,2.464,3.139-8.921,1.51-21.644-3.67-25.385,6C10.982,86.134,11.9,89.435,12.228,92.658ZM39.585,77.174l7.458-9.332c2.108.084,5.287,1.029,7.5,1.386,3.1.5,5.443.115,8.427.026a29.723,29.723,0,0,1,3.257,7.52c-4.7.483-21.864.679-26.644.4ZM33.8,61.757l9.235.006c.949,4.333,2.393,1.929-2.392,7.837A18.442,18.442,0,0,1,38.6,72.028c-.732-.434-3.261-3.9-3.779-4.555-2.475-3.13-1.7-1.54-1.022-5.716Zm75.577-7.513c2.162-1.041,3.7,2.478,1.418,3.469A1.875,1.875,0,1,1,109.373,54.244ZM52.111,32.8v11.1c0,3.779.357,6.476-1.446,9.414A9.518,9.518,0,0,1,44,57.775a71.9,71.9,0,0,1-10.614.031,9.578,9.578,0,0,1-6.779-4.326c-1.882-2.979-1.534-5.513-1.534-9.333,0-3.675-.085-7.451,0-11.114a5.637,5.637,0,0,1,4.753-5.917c1.951,2.779,4.081,5.288,8.318,5.644,4.159.349,9.653.032,13.963.044Zm23,11.772c.785,2.91-.784,7.534,7.894,7.534,0,6.2-.289,10.388-3.149,14.953a23.09,23.09,0,0,1-4.2,4.967,19.089,19.089,0,0,1-5.738,3.47c-.871-2.658-2.9-6.994-3.038-7.461,1.666-1.329,4.673-2.262,6.9-5.6a17.824,17.824,0,0,0,3.566-9.509,28.558,28.558,0,0,1-5.493-3.672c-.953-1.32-.144-2.454.54-3.169.842-.879,1.312-1.806,2.717-1.511Zm3.973-.189c1.666,0,4.3-.159,5.848.015,2.3.259,4.146,4.733-3.856,3.833C79.021,48,79.2,46.359,79.084,44.387ZM55.975,38.6a3.857,3.857,0,0,1,0,7.715ZM21.212,46.312a3.855,3.855,0,0,1,.006-7.711Zm54.067-5.785c0-2.359-.954-7.7,1.931-7.695s1.932,5.336,1.931,7.695H75.279Zm37.955-5.591c2.162-1.041,3.7,2.478,1.418,3.469A1.875,1.875,0,1,1,113.234,34.936ZM86.849,27.012l3.536,0c-.716,1.267-3.62,2.657-4.916,3.06Zm-6.021,3.11c-2.012-.795-2.207-1.573-5.1-.959-1.051.223-1.338-.031-2.183-.648-1.126-.822-1.233-.656-1.752-1.5h10.8a19.491,19.491,0,0,1-1.765,3.112ZM77.316,19.286l7.566.01-.711,3.851-6.235-.033Zm11.392.156c1.251-.383,4.232-.156,5.7-.156a8.507,8.507,0,0,1-1.272,3.86l-4.976.008.545-3.713Zm-20.989-.171,5.689.171.6,3.7-5.259-.015-1.027-3.854ZM18.095,35.376c-1.37-3.877-1.336-10.759,2.455-14.106,3.02-2.666,2.9-.625,4.886-4.038,3.449-5.917,9.367-5.666,15.091-5.669,4.2,0,6.789.209,10.121,1.944,7.982,4.155,10,11.816,8.8,20.34-.35,2.483-.687,1.047-3.478.9v-5.8c-7.308-.024-7.723-2.759-7.723-9.655H44.388c0,6.551-.315,4.9,1.891,9.6a5.475,5.475,0,0,1-4.91-2.726c-1.149-1.987-.846-4.28-.846-6.878H36.665a33.429,33.429,0,0,0,.179,5.632c.381,1.973,1.061,2.576,1.663,3.929a6.386,6.386,0,0,1-4.757-2.785c-1.248-1.882-.95-4.25-.95-6.775H28.943l-.012,4.084c-5.8.992-7.694,5.933-7.734,11.264l-3.1.737ZM77.974,11.567l6.24.028.615,3.833-7.568-.01.713-3.851ZM67.732,15.428c.187-1.276.44-3.359,1.515-3.874l4.718.082-.529,3.636c-1.247.384-4.235.157-5.7.157Zm21.012-.162-.6-3.684,4.752-.019c1.073.507,1.325,2.589,1.515,3.866C92.943,15.428,89.955,15.655,88.744,15.266ZM80.936,5.335c.019-.088.091-.092.136-.138L82.58,7.7H79.556l1.38-2.37Zm28.436-1.292c2.162-1.041,3.7,2.478,1.418,3.469a1.875,1.875,0,1,1-1.418-3.469ZM86.9,7.673,85.48,4.639c1.217.383,4.211,1.827,4.9,3.068Zm-15.141.032a6.312,6.312,0,0,1,2.352-1.9,9.523,9.523,0,0,1,2.565-1.161L75.3,7.7l-3.537,0ZM63.7,16.151v2.413c0,5.759,4.4,11.5,8.205,13.515l-.483,4.344a47.708,47.708,0,0,1-.058,5.01c-.5,1.8-3.8,2.111-3.8,7.057,0,3.414,3.44,5.1,5.551,6.516-1.285,2.678-1.234,4.7-4.786,7.523-7.636,6.067-15.006,1.531-20.555,1.407a18.343,18.343,0,0,1-.724-2.9c1.009-.534,1.676-.708,2.735-1.368a13.183,13.183,0,0,0,5.629-7.4c.8-2.518-.48-1.708,2.147-2.2a8.13,8.13,0,0,0,3.012-1.332,7.854,7.854,0,0,0,2.386-9.661c-.511-1.127-.344-1.05-.043-2.469,1.785-8.426.914-16.593-5.306-22.812C50.688,6.882,44.191,7.7,34.975,7.7a14.3,14.3,0,0,0-7.918,2.459c-4.31,2.764-4.251,5.15-6.477,6.314A13.183,13.183,0,0,0,13.5,27.735a39.682,39.682,0,0,0,.724,8.693c.92,3.776-.724,1.841-.724,6.512a7.35,7.35,0,0,0,5.753,7.038c2.54.68,1.718-.748,2.425,1.919,1.038,3.915,5.136,8.644,8.233,8.9-.027,1.206-.456,1.69-.483,2.9-6.295,0-13.932,3.167-18.4,7.183L7.281,74.616A24.006,24.006,0,0,0,5.7,76.657C1.676,82-.02,88.171-.02,95.311c0,6.577,6.214,12.791,12.791,12.791h1.448c0,3.188.689,6.21,2.13,8.006a9.048,9.048,0,0,0,6.8,3.579H54.042a9,9,0,0,0,7.039-4.063c1.627-2.352,1.751-5.677,2.152-9.191l1.89-15c.445-3.895,1.107-6.933-1.187-10.358a26.135,26.135,0,0,0,9.974-3.058A25.839,25.839,0,0,0,79.447,73.9c.717-.712.941-1.087,1.571-1.808a23.471,23.471,0,0,0,4.674-8.359c1.311-3.923,1.172-6.662,1.172-11.86a7.183,7.183,0,0,0,2.526-1.819c2.69-3.3,1.012-9.525-3.974-9.525H83V34.734a21.648,21.648,0,0,0,7.723-2.9v4.1c1.656.876,4.118,3.173,5.792,3.62v7.965c1.267.338,6.285,5.15,7.965,6.275l-.242,2.655c0,3.432,3.1,5.31,6.275,5.31,3.432,0,5.31-3.1,5.31-6.275,0-3.432-3.1-5.31-6.275-5.31-1.332,0-1.614.481-2.655.724-.758-1.132-4.247-3.79-5.312-4.583-1.611-1.2-1.213-1.223-1.2-3.864,0-1.689,0-3.38,0-5.069-1.656-.876-4.118-3.173-5.792-3.62q0-1.938-.012-3.873c-.014-1.89.24-1.783.977-2.885H106.9a29.287,29.287,0,0,0,2.1,4.425c1.191,2.266-.9,1.66-.9,5.712,0,3.432,3.1,5.31,6.275,5.31,6.673,0,7.917-11.584-1.207-11.584l-3.707-7.68-11.98-.043a18.894,18.894,0,0,0,.966-3.861h7.24l3.707-7.68c2.207-.043,3.056-.309,4.409-1.34,3.729-2.84,2.437-10.288-4.255-10.288-4.237,0-6.616,5.326-4.574,8.68.545.9.94,1.07.337,2.267-.747,1.484-1.892,2.837-2.279,4.5H98.45c-.25-1.072-.39-2.2-.69-3.172a18.825,18.825,0,0,0-2.587-5.137,7.756,7.756,0,0,0-.879-1.051L92.238,4.02A15.654,15.654,0,0,0,82.28-.02c-5.177,0-8.52.891-12.385,4.026A16.174,16.174,0,0,0,63.7,16.15Z" transform="translate(0.02 0.02)" fill-rule="evenodd"/>
      <path id="Trazado_766811" data-name="Trazado 766811" d="M291.991,1383.155c-1.55,7.734-12.772,5.44-11.378-2.082a5.784,5.784,0,0,1,11.378,2.082Zm14.779,16.377c.418-3.924,3.234-21.119,2.332-23.491-1.5-3.94-5.036-3.5-9.779-3.5H273.016c-3.624,0-8.291-.593-9.651,3.62-.806,2.5,2.033,19.346,2.377,23.411l41.028-.035Z" transform="translate(-247.673 -1291.443)" fill-rule="evenodd" fill="url(#linear-gradient)"/>
      <path id="Trazado_766812" data-name="Trazado 766812" d="M293.555,219.918l3.1-.737c.04-5.332,1.931-10.272,7.734-11.264l.012-4.084h3.856c0,2.525-.3,4.893.95,6.775a6.387,6.387,0,0,0,4.757,2.785c-.6-1.353-1.282-1.956-1.663-3.929a33.429,33.429,0,0,1-.179-5.632h3.857c0,2.6-.3,4.892.846,6.878a5.476,5.476,0,0,0,4.91,2.726c-2.205-4.7-1.891-3.054-1.891-9.6H323.7c0,6.9.415,9.631,7.723,9.655v5.8c2.791.15,3.128,1.587,3.478-.9,1.2-8.524-.817-16.185-8.8-20.34-3.332-1.735-5.917-1.946-10.121-1.944-5.724,0-11.642-.247-15.091,5.669-1.99,3.413-1.866,1.372-4.886,4.038-3.791,3.346-3.824,10.228-2.455,14.106Z" transform="translate(-275.439 -184.521)" fill="#636363" fill-rule="evenodd"/>
      <path id="Trazado_766813" data-name="Trazado 766813" d="M428.169,474.792l19.3,0V476c0,13.792-19.3,13.786-19.3,0Zm16.716-7.522c2.166-1.036,3.691,2.477,1.417,3.468A1.874,1.874,0,1,1,444.886,467.27Zm-15.446,0c2.166-1.036,3.691,2.477,1.417,3.468A1.874,1.874,0,1,1,429.44,467.27Zm21.9-2.132c-4.309-.012-9.8.3-13.963-.044-4.237-.356-6.367-2.865-8.318-5.644a5.637,5.637,0,0,0-4.753,5.917c-.084,3.663,0,7.438,0,11.114,0,3.82-.348,6.354,1.534,9.333a9.577,9.577,0,0,0,6.779,4.326,71.82,71.82,0,0,0,10.614-.031,9.517,9.517,0,0,0,6.66-4.455c1.8-2.94,1.446-5.636,1.446-9.414v-11.1Z" transform="translate(-399.208 -432.313)" fill="#efcfb3" fill-rule="evenodd"/>
      <path id="Trazado_766814" data-name="Trazado 766814" d="M74.617,1170.466c-.328-3.224-1.246-6.525-.077-9.544,3.74-9.668,16.464-4.489,25.385-6-.745-.841-1.687-2.153-2.464-3.139l-4.979-6.108c-2.212-1.409-23.816,3.129-26.078,23.712-.757,6.89,2.1,12.4,9.674,12.655l-.948-7.709-5.037-.008v-3.859Z" transform="translate(-62.37 -1077.788)" fill="#4adbd1" fill-rule="evenodd"/>
      <path id="Trazado_766815" data-name="Trazado 766815" d="M1138.128,755.691c-.684.715-1.494,1.848-.54,3.169a28.592,28.592,0,0,0,5.493,3.672,17.823,17.823,0,0,1-3.566,9.509c-2.231,3.341-5.239,4.273-6.9,5.6.134.467,2.168,4.8,3.038,7.461a19.112,19.112,0,0,0,5.739-3.47,23.071,23.071,0,0,0,4.2-4.967c2.86-4.565,3.149-8.757,3.149-14.953-8.678,0-7.11-4.624-7.894-7.534-1.405-.295-1.875.632-2.717,1.511Z" transform="translate(-1065.715 -709.584)" fill="#efcfb3" fill-rule="evenodd"/>
      <path id="Trazado_766816" data-name="Trazado 766816" d="M670.55,1158.322c4.78.278,21.944.083,26.644-.4a29.743,29.743,0,0,0-3.257-7.52c-2.984.089-5.331.471-8.427-.026-2.215-.355-5.394-1.3-7.5-1.385l-7.458,9.332Z" transform="translate(-630.945 -1081.127)" fill="#4adbd1" fill-rule="evenodd"/>
      <path id="Trazado_766817" data-name="Trazado 766817" d="M494.583,723.069H505.4A5.718,5.718,0,0,1,494.583,723.069Zm-4.243-2.654c0,13.786,19.3,13.792,19.3,0v-1.2l-19.3,0Z" transform="translate(-461.378 -676.731)" fill-rule="evenodd"/>
      <path id="Trazado_766818" data-name="Trazado 766818" d="M316.39,1896.115c1.459,3.645,3.535,3.76,8.1,3.759h23.652c4.228,0,6.89-.222,8.032-3.863Z" transform="translate(-297.702 -1784.027)" fill-rule="evenodd" fill="url(#linear-gradient)"/>
      <path id="Trazado_766819" data-name="Trazado 766819" d="M560.808,1442.411c2.165-1.033,3.7,2.478,1.42,3.473A1.877,1.877,0,1,1,560.808,1442.411Zm6.365,2.7a5.784,5.784,0,0,0-11.378-2.082C554.4,1450.549,565.623,1452.843,567.173,1445.109Z" transform="translate(-522.855 -1353.396)" fill-rule="evenodd"/>
      <path id="Trazado_766820" data-name="Trazado 766820" d="M561.817,1045.96c-.674,4.176-1.453,2.586,1.022,5.716.518.655,3.047,4.121,3.779,4.555a18.439,18.439,0,0,0,2.042-2.428c4.785-5.908,3.341-3.5,2.392-7.837l-9.235-.006Z" transform="translate(-528.001 -984.182)" fill="#efcfb3" fill-rule="evenodd"/>
      <path id="Trazado_766821" data-name="Trazado 766821" d="M572.989,784.55H562.17A5.718,5.718,0,0,0,572.989,784.55Z" transform="translate(-528.966 -738.212)" fill="#fe826d" fill-rule="evenodd"/>
      <path id="Trazado_766822" data-name="Trazado 766822" d="M1272.507,563.935h3.863c0-2.359.954-7.693-1.931-7.695s-1.931,5.336-1.931,7.695Z" transform="translate(-1197.207 -523.386)" fill="#efcfb3" fill-rule="evenodd"/>
      <path id="Trazado_766823" data-name="Trazado 766823" d="M1339.3,750.8c.119,1.971-.062,3.616,1.992,3.848,8,.9,6.16-3.574,3.856-3.833-1.55-.174-4.183-.015-5.848-.015Z" transform="translate(-1260.197 -706.397)" fill="#efcfb3" fill-rule="evenodd"/>
      <path id="Trazado_766824" data-name="Trazado 766824" d="M1308.45,200.041l7.568.01-.615-3.833-6.239-.028Z" transform="translate(-1231.169 -184.601)" fill="#4adbd1" fill-rule="evenodd"/>
      <path id="Trazado_766825" data-name="Trazado 766825" d="M1310.02,330.7l6.235.033.712-3.851-7.566-.01Z" transform="translate(-1232.063 -307.563)" fill="#4adbd1" fill-rule="evenodd"/>
      <path id="Trazado_766826" data-name="Trazado 766826" d="M298.219,661.611l.006-7.711A3.855,3.855,0,0,0,298.219,661.611Z" transform="translate(-276.986 -615.278)" fill="#efcfb3" fill-rule="evenodd"/>
      <path id="Trazado_766827" data-name="Trazado 766827" d="M947.98,661.585a3.857,3.857,0,0,0,0-7.715Z" transform="translate(-891.989 -615.25)" fill="#efcfb3" fill-rule="evenodd"/>
      <path id="Trazado_766828" data-name="Trazado 766828" d="M1493.051,329.676l4.976-.008a8.5,8.5,0,0,0,1.272-3.86c-1.471,0-4.453-.227-5.7.156l-.545,3.713Z" transform="translate(-1404.867 -306.5)" fill="#4adbd1" fill-rule="evenodd"/>
      <path id="Trazado_766829" data-name="Trazado 766829" d="M1493.368,199.813c1.211.389,4.2.162,5.669.162-.189-1.276-.442-3.359-1.515-3.866l-4.751.019Z" transform="translate(-1404.603 -184.526)" fill="#4adbd1" fill-rule="evenodd"/>
      <path id="Trazado_766830" data-name="Trazado 766830" d="M1147.12,199.834c1.469,0,4.457.227,5.7-.157l.529-3.636-4.719-.082C1147.56,196.475,1147.307,198.559,1147.12,199.834Z" transform="translate(-1079.368 -184.385)" fill="#4adbd1" fill-rule="evenodd"/>
      <path id="Trazado_766831" data-name="Trazado 766831" d="M1147.937,330.464l5.259.015-.6-3.7-5.689-.171Z" transform="translate(-1079.17 -307.319)" fill="#4adbd1" fill-rule="evenodd"/>
      <path id="Trazado_766832" data-name="Trazado 766832" d="M1224.859,460.742a19.453,19.453,0,0,0,1.765-3.112h-10.8c.519.849.626.683,1.752,1.5.845.617,1.132.871,2.183.648,2.9-.614,3.092.165,5.1.959Z" transform="translate(-1144.01 -430.6)" fill="#4adbd1" fill-rule="evenodd"/>
      <path id="Trazado_766833" data-name="Trazado 766833" d="M622.427,1504.125a1.877,1.877,0,1,0,1.42,3.473C626.124,1506.6,624.592,1503.093,622.427,1504.125Z" transform="translate(-584.475 -1415.11)" fill="#68d4f2" fill-rule="evenodd"/>
      <path id="Trazado_766834" data-name="Trazado 766834" d="M1832.026,915.717a1.875,1.875,0,1,0,1.418,3.469C1835.723,918.2,1834.188,914.676,1832.026,915.717Z" transform="translate(-1722.633 -861.452)" fill="#f4a338" fill-rule="evenodd"/>
      <path id="Trazado_766835" data-name="Trazado 766835" d="M1897.406,588.807a1.875,1.875,0,1,0,1.418,3.469C1901.1,591.285,1899.568,587.766,1897.406,588.807Z" transform="translate(-1784.152 -553.85)" fill="#f4a338" fill-rule="evenodd"/>
      <path id="Trazado_766836" data-name="Trazado 766836" d="M1832.024,65.767a1.875,1.875,0,1,0,1.418,3.469C1835.721,68.245,1834.186,64.726,1832.024,65.767Z" transform="translate(-1722.631 -61.702)" fill="#f4a338" fill-rule="evenodd"/>
      <path id="Trazado_766837" data-name="Trazado 766837" d="M753.274,588.828a1.874,1.874,0,1,0,1.417,3.468C756.965,591.306,755.44,587.792,753.274,588.828Z" transform="translate(-707.595 -553.872)" fill-rule="evenodd"/>
      <path id="Trazado_766838" data-name="Trazado 766838" d="M491.744,588.828a1.874,1.874,0,1,0,1.417,3.468C495.435,591.306,493.91,587.792,491.744,588.828Z" transform="translate(-461.512 -553.872)" fill-rule="evenodd"/>
      <path id="Trazado_766839" data-name="Trazado 766839" d="M1215.31,82.031l3.537,0,1.38-3.058a9.522,9.522,0,0,0-2.565,1.161,6.31,6.31,0,0,0-2.352,1.9Z" transform="translate(-1143.53 -74.305)" fill="#4adbd1" fill-rule="evenodd"/>
      <path id="Trazado_766840" data-name="Trazado 766840" d="M1447.43,460.68c1.3-.4,4.2-1.793,4.916-3.06l-3.536,0Z" transform="translate(-1361.941 -430.591)" fill="#4adbd1" fill-rule="evenodd"/>
      <path id="Trazado_766841" data-name="Trazado 766841" d="M1449.051,81.914l3.484.034c-.693-1.241-3.687-2.684-4.9-3.068Z" transform="translate(-1362.129 -74.22)" fill="#4adbd1" fill-rule="evenodd"/>
      <path id="Trazado_766842" data-name="Trazado 766842" d="M1347.33,90.848h3.024l-1.508-2.508c-.045.046-.116.05-.136.138l-1.38,2.37Z" transform="translate(-1267.753 -83.121)" fill="#68d4f2" fill-rule="evenodd"/>
    </g>
  </g>
</svg>
