<svg id="Grupo_1029435" data-name="Grupo 1029435" xmlns="http://www.w3.org/2000/svg" xmlns:xlink="http://www.w3.org/1999/xlink" width="253.781" height="172.604" viewBox="0 0 253.781 172.604">
  <defs>
    <clipPath id="clip-path">
      <rect id="Rectángulo_364318" data-name="Rectángulo 364318" width="253.781" height="172.603" fill="none"/>
    </clipPath>
    <clipPath id="clip-path-3">
      <rect id="Rectángulo_364315" data-name="Rectángulo 364315" width="17.759" height="9.996" fill="none"/>
    </clipPath>
  </defs>
  <g id="Grupo_1029434" data-name="Grupo 1029434" clip-path="url(#clip-path)">
    <g id="Grupo_1029433" data-name="Grupo 1029433">
      <g id="Grupo_1029432" data-name="Grupo 1029432" clip-path="url(#clip-path)">
        <path id="Trazado_774412" data-name="Trazado 774412" d="M253.781,32.363v107.47a28.291,28.291,0,0,1-10.9,22.152,43.956,43.956,0,0,1-22.179,9.053,219.766,219.766,0,0,1-32.878,1.511c-18.816-.33-46.269-2.283-55.786-2.86-12.735-.715-31.407-.431-49.971.068-15.314.391-36.977,1.194-48.987,1.282A33.537,33.537,0,0,1,9.417,161.7,30.38,30.38,0,0,1,0,139.834V32.363a31.567,31.567,0,0,1,33.08-31.2c16.945.945,41.863,4.668,67.834,2.388C131.808.834,190.44-1.472,220.7,1.158c18.186,1.592,33.08,13.977,33.08,31.2" transform="translate(0 0)" fill="#dee0e0"/>
        <path id="Trazado_774413" data-name="Trazado 774413" d="M112.232,87.879l8.112-8c1.455-1.724,4.663-3.583,6.273-1.975s.464,4.927-.99,6.653L116.89,94.93c-2.6,3-6.008,2.549-8.6-.043-3.66-3.659,2.536-5.339,3.942-7.008" transform="translate(-56.899 -41.043)" fill="#ffb27d"/>
        <path id="Trazado_774414" data-name="Trazado 774414" d="M91.682,124.432s1.884,11.685-2.092,18.507c-2.086,3.579-3.094,2.833-3.985,4.248-2.191,3.481-3.984,20.578-5.206,23.476-1.663,3.945-3.035,14.939-3.035,14.939l-31.27-14.838s4.036-18.342,5.751-26.14c.627-2.85,1.978-6.186.406-10.555-2.193-6.093.008-13.913,1.381-21.275a93.049,93.049,0,0,1,3.183-12.143c.966-2.392,1.358-11.722,4.718-11.549,5.937.306,2.9,8.557,3.294,12.907s26.857,22.423,26.857,22.423" transform="translate(-24.477 -47.314)" fill="#ffb27d"/>
        <path id="Trazado_774415" data-name="Trazado 774415" d="M98.341,192.7a.286.286,0,0,0,.252-.1,11.26,11.26,0,0,0,2.109-4.341,12.085,12.085,0,0,0,.228-4.828,15.3,15.3,0,0,0-2.432-6.052.287.287,0,0,0-.408-.081.312.312,0,0,0-.077.423,14.684,14.684,0,0,1,2.337,5.8,11.463,11.463,0,0,1-.216,4.576,10.8,10.8,0,0,1-1.977,4.088.313.313,0,0,0,.021.43.283.283,0,0,0,.162.077" transform="translate(-52.021 -94.124)" fill="#f59a6d"/>
        <path id="Trazado_774416" data-name="Trazado 774416" d="M104.075,88.775l-1.518-.186-5.36-.651-.279-.04-8.132-.991-6.8-.83-.765-.093A4.207,4.207,0,0,0,77.1,87.7h0v0a3.554,3.554,0,0,0-.457,1.431l-.5,5.659L73.5,124.528l-.72,8.119a3.374,3.374,0,0,0,.147,1.43,3.188,3.188,0,0,0,2.123,2.083,2.91,2.91,0,0,0,.481.1l1.016.153,1.671.251,4.594.69,4.229.636h0l.572.088h.008l11.587,1.746a3.106,3.106,0,0,0,3.6-2.607l1.06-11.9v-.008l.023-.239v0l.155-1.744h0l.15-1.65,0-.046h0l.007-.054v-.011l.319-3.545v-.052l.023-.232v-.008l.179-1.98.347-3.9v0l.194-2.123v-.089l.085-.931h0l.139-1.545v-.008l.187-2.034h0l.565-6.306v0h0l.176-2,.093-1.053.108-1.175.194-2.188a3.23,3.23,0,0,0-2.75-3.611" transform="translate(-38.638 -45.641)" fill="#373f51"/>
        <path id="Trazado_774417" data-name="Trazado 774417" d="M82.249,87.757l22.882,2.789a2.367,2.367,0,0,1,2.05,2.619l-4.166,42.809c-.308,2.927-1.809,2.63-3.088,2.475l-22.983-3.472c-1.278-.156-2.174-1.81-2.028-3.1l3.789-41.9c.146-1.291,2.265-2.372,3.544-2.216" transform="translate(-39.774 -46.593)" fill="#d7e9fd"/>
        <path id="Trazado_774418" data-name="Trazado 774418" d="M105.061,133.626l-17.425-2.821c-.616-.1-1.056-.508-1.008-.936l.438-3.888c.05-.442.6-.746,1.246-.684l17.678,1.7c.673.065,1.181.5,1.117.964l-.692,5.013c-.064.465-.683.764-1.355.656" transform="translate(-46 -66.532)" fill="#373f51"/>
        <path id="Trazado_774419" data-name="Trazado 774419" d="M117.35,178.981l-8.584-1.825a.756.756,0,0,1-.453-.874l.438-3.888c.05-.442.344-.775.663-.749l8.774.694c.334.026.564.433.507.9l-.628,5.02c-.059.466-.385.8-.717.727" transform="translate(-57.513 -91.147)" fill="#92bcb5"/>
        <path id="Trazado_774420" data-name="Trazado 774420" d="M91.581,175.322,83,173.5a.756.756,0,0,1-.453-.874l.438-3.888c.05-.442.344-.775.663-.749l8.774.694c.334.026.564.433.506.9l-.628,5.02c-.059.466-.385.8-.717.727" transform="translate(-43.829 -89.204)" fill="#92bcb5"/>
        <path id="Trazado_774421" data-name="Trazado 774421" d="M107.5,111.242l-21.174-3.9a1.449,1.449,0,0,1-1.178-1.587l.775-6.878a1.449,1.449,0,0,1,1.568-1.281L109.045,99.5a1.449,1.449,0,0,1,1.309,1.631L109.2,110a1.449,1.449,0,0,1-1.7,1.238" transform="translate(-45.211 -51.821)" fill="#4adbd1"/>
        <path id="Trazado_774422" data-name="Trazado 774422" d="M103.146,154.583l-20.827-3.34a1.27,1.27,0,0,1-1.067-1.322l.309-5.8a1.27,1.27,0,0,1,1.41-1.194l21.278,2.4a1.27,1.27,0,0,1,1.12,1.4l-.76,6.745a1.27,1.27,0,0,1-1.463,1.112" transform="translate(-43.146 -75.893)" fill="#f4a338"/>
        <g id="Grupo_1029431" data-name="Grupo 1029431" transform="translate(44.678 46.981)" opacity="0.5">
          <g id="Grupo_1029430" data-name="Grupo 1029430">
            <g id="Grupo_1029429" data-name="Grupo 1029429" clip-path="url(#clip-path-3)">
              <path id="Trazado_774423" data-name="Trazado 774423" d="M99.2,107.706a11.571,11.571,0,0,1-3.856-1.141.14.14,0,0,1,.126-.25,10.781,10.781,0,0,0,6.379,1.061c2.717-.458,10.032-3.272,10.105-3.3a.14.14,0,1,1,.1.261c-.074.029-7.414,2.852-10.16,3.315a9.745,9.745,0,0,1-2.695.054" transform="translate(-95.269 -102.244)" fill="#1ba594"/>
              <rect id="Rectángulo_364313" data-name="Rectángulo 364313" width="0.256" height="5.148" transform="matrix(0.738, -0.675, 0.675, 0.738, 14.097, 2.998)" fill="#1ba594"/>
              <path id="Trazado_774424" data-name="Trazado 774424" d="M121.039,114.621l-4.489-5.222.195-.166,4.489,5.221Z" transform="translate(-106.569 -104.987)" fill="#1ba594"/>
              <path id="Trazado_774425" data-name="Trazado 774425" d="M122.272,113.968l-.095-.238,4.081-1.632.095.238Z" transform="translate(-109.558 -106.508)" fill="#1ba594"/>
              <rect id="Rectángulo_364314" data-name="Rectángulo 364314" width="0.256" height="6.189" transform="translate(6.864 5.324) rotate(-40.975)" fill="#1ba594"/>
              <path id="Trazado_774426" data-name="Trazado 774426" d="M101.277,109.262c-.052-.116-1.262-2.871.246-4.474a13.566,13.566,0,0,0,2.3-4.61l.247.069a13.543,13.543,0,0,1-2.364,4.717c-1.39,1.478-.211,4.166-.2,4.193Z" transform="translate(-98.189 -100.178)" fill="#1ba594"/>
            </g>
          </g>
        </g>
        <path id="Trazado_774427" data-name="Trazado 774427" d="M105.78,106.7s-1.442,1.332-1.141,1.567a5.424,5.424,0,0,0,2.708-.154,5.5,5.5,0,0,0-1.567-1.413" transform="translate(-55.544 -56.663)" fill="#1ba594"/>
        <path id="Trazado_774428" data-name="Trazado 774428" d="M108.563,115.6s-2.134-2.858-2.509-2.826-2.4-.031-2.948-.1.045,3.145.325,3.273,5.819.656,5.819.656Z" transform="translate(-54.633 -59.834)" fill="#1ba594"/>
        <path id="Trazado_774429" data-name="Trazado 774429" d="M109.781,104.756l.859.932a.794.794,0,0,0,.786.158l4.23-1.536c.211-.076.3-.241.207-.4l-.4-.712a.744.744,0,0,0-.79-.238l-4.685,1.316c-.278.078-.371.3-.2.479" transform="translate(-58.252 -54.66)" fill="#1ba594"/>
        <path id="Trazado_774430" data-name="Trazado 774430" d="M108.355,100.71s-.8,2.031-.527,2.05a32.875,32.875,0,0,0,4.953-1.44,36.2,36.2,0,0,0-4.426-.61" transform="translate(-57.23 -53.48)" fill="#1ba594"/>
        <path id="Trazado_774431" data-name="Trazado 774431" d="M123.786,109.635s-1.627-1.993-1.932-1.916-3.068.675-2.975,1.034,1.49,2.155,1.882,2.09,3.245-1.063,3.024-1.208" transform="translate(-63.127 -57.2)" fill="#1ba594"/>
        <path id="Trazado_774432" data-name="Trazado 774432" d="M115.8,111.966s-1.057-1.408-1.267-1.332-1.111.346-1.09.522,1.139,1.637,1.36,1.6,1.113-.639,1-.79" transform="translate(-60.242 -58.748)" fill="#1ba594"/>
        <path id="Trazado_774433" data-name="Trazado 774433" d="M119.385,116.058s-1.215-1.8-1.458-1.739-.923.49-.876.688.864,1.341,1.073,1.34a12.235,12.235,0,0,0,1.261-.288" transform="translate(-62.156 -60.705)" fill="#1ba594"/>
        <path id="Trazado_774434" data-name="Trazado 774434" d="M129.832,105.535s-1.708.536-1.67.752a16.419,16.419,0,0,0,2.639,2.643c.222,0,.6-3.59.227-3.594a7.142,7.142,0,0,0-1.2.2" transform="translate(-68.057 -55.936)" fill="#1ba594"/>
        <path id="Trazado_774435" data-name="Trazado 774435" d="M126.594,103.037s-1.859.88-2.139.526-.446-1.35-.029-1.365,3.231.1,2.169.839" transform="translate(-65.94 -54.27)" fill="#1ba594"/>
        <path id="Trazado_774436" data-name="Trazado 774436" d="M98.44,99.824s-.476,1.309-.808,1.94-1.436,2.282-1.692,2.182-4.046-1.916-3.667-3.323.775-1.785,1.738-1.688,4.814.274,4.428.888" transform="translate(-48.986 -52.53)" fill="#1ba594"/>
        <path id="Trazado_774437" data-name="Trazado 774437" d="M94.994,113.473a13.453,13.453,0,0,1-.393-2.383c.069-.456-1.068-.621-1.74-.966s-2.033-.962-2.264-.19,1.458,3.107,1.458,3.107a.809.809,0,0,0,.709.833c.744.117,2.323.01,2.229-.4" transform="translate(-48.098 -58.181)" fill="#1ba594"/>
        <path id="Trazado_774438" data-name="Trazado 774438" d="M100.5,64.383c-3.824-.2-6.006,2.452-6.695,6.22-.683,3.73,2.758,9.668,4.485,12.352a1.415,1.415,0,0,0,2.174.256c2.208-2.134,6.639-6.827,7.052-10.492a7.5,7.5,0,0,0-7.017-8.337m-.789,11.332a3.819,3.819,0,0,1-3.393-4.273c.247-2.192,1.349-3.66,4.559-3.843,2.748-.156,3.762,2.442,3.687,4.648-.094,2.675-1.861,3.934-4.853,3.468" transform="translate(-49.767 -34.183)" fill="#f4a338"/>
        <path id="Trazado_774439" data-name="Trazado 774439" d="M97.041,83.341h-.01a1.471,1.471,0,0,1-1.07-.672,42.163,42.163,0,0,1-3.151-5.793c-1.19-2.748-1.642-4.97-1.342-6.606a8.682,8.682,0,0,1,2.189-4.633A5.764,5.764,0,0,1,98.229,64a7.335,7.335,0,0,1,5.272,2.582,7.83,7.83,0,0,1,1.806,5.827,12.926,12.926,0,0,1-2.865,5.852,42.153,42.153,0,0,1-4.206,4.679,1.476,1.476,0,0,1-1.194.405m1.181-19.216a5.635,5.635,0,0,0-4.474,1.6,8.558,8.558,0,0,0-2.154,4.565c-.689,3.759,2.9,9.858,4.475,12.305a1.343,1.343,0,0,0,.976.613h.009a1.349,1.349,0,0,0,1.09-.37,42.039,42.039,0,0,0,4.193-4.664,12.81,12.81,0,0,0,2.84-5.789,7.7,7.7,0,0,0-1.776-5.729,7.2,7.2,0,0,0-5.18-2.536M97.783,75.5c-.117-.013-.235-.029-.356-.048a4.181,4.181,0,0,1-2.648-1.464,3.859,3.859,0,0,1-.8-2.881c.286-2.532,1.71-3.735,4.62-3.9a3.132,3.132,0,0,1,2.471.866,5.185,5.185,0,0,1,1.285,3.85,3.659,3.659,0,0,1-1.2,2.835,4.418,4.418,0,0,1-3.371.742m1.462-8.147a3.811,3.811,0,0,0-.637-.016,5.163,5.163,0,0,0-3.35,1.15,4.068,4.068,0,0,0-1.148,2.635,3.727,3.727,0,0,0,.771,2.785,4.053,4.053,0,0,0,2.567,1.417,4.51,4.51,0,0,0,3.624-.666,3.534,3.534,0,0,0,1.154-2.739,5.058,5.058,0,0,0-1.246-3.752,2.879,2.879,0,0,0-1.735-.813" transform="translate(-48.524 -33.978)" fill="#f4a338"/>
        <path id="Trazado_774440" data-name="Trazado 774440" d="M111.723,150.243c-.914-.048-1.437.587-1.6,1.489s.66,2.313,1.073,2.955a.339.339,0,0,0,.52.061,5.538,5.538,0,0,0,1.687-2.51,1.794,1.794,0,0,0-1.679-1.995m-.189,2.711a.914.914,0,0,1-.812-1.022c.059-.524.323-.876,1.091-.919.657-.038.9.584.882,1.112-.023.64-.446.941-1.161.83" transform="translate(-58.466 -79.782)" fill="#daebe8"/>
        <path id="Trazado_774441" data-name="Trazado 774441" d="M110.881,154.777h0a.366.366,0,0,1-.264-.166c-.379-.59-1.244-2.061-1.077-2.975.184-1,.778-1.555,1.63-1.511a1.768,1.768,0,0,1,1.27.622,1.887,1.887,0,0,1,.435,1.4,5.478,5.478,0,0,1-1.7,2.526.366.366,0,0,1-.3.1m.284-4.6c-.822-.043-1.4.491-1.574,1.466-.164.894.694,2.351,1.069,2.936a.31.31,0,0,0,.225.141h0a.308.308,0,0,0,.251-.085,5.6,5.6,0,0,0,1.679-2.493,1.833,1.833,0,0,0-.423-1.362,1.679,1.679,0,0,0-1.115-.593l-.116-.01m-.106,2.723-.085-.012a.944.944,0,0,1-.834-1.052c.069-.612.413-.9,1.116-.944a.762.762,0,0,1,.6.211,1.252,1.252,0,0,1,.311.93.886.886,0,0,1-.291.687,1.072,1.072,0,0,1-.816.181m.35-1.95a.937.937,0,0,0-.151,0c-.671.038-1,.314-1.065.9a.882.882,0,0,0,.789.992l.083.011a1.017,1.017,0,0,0,.775-.168.835.835,0,0,0,.272-.647,1.2,1.2,0,0,0-.295-.889.673.673,0,0,0-.408-.191" transform="translate(-58.156 -79.719)" fill="#daebe8"/>
        <path id="Trazado_774442" data-name="Trazado 774442" d="M87.012,147.482c-1.622-.183-2.287,1-2.485,2.135a2,2,0,0,0,1.9,2.232,2.241,2.241,0,0,0,2.563-2.012,2.284,2.284,0,0,0-1.98-2.354m-.492,3.995c-.909-.1-1.785-.746-1.683-1.655s.8-2.211,2.139-2.018a2.08,2.08,0,0,1,1.6,2.114,1.968,1.968,0,0,1-2.059,1.559" transform="translate(-44.872 -78.307)" fill="#daebe8"/>
        <path id="Trazado_774443" data-name="Trazado 774443" d="M89.141,151.965a.263.263,0,0,0-.245-.237.3.3,0,0,0-.289.246.259.259,0,0,0,.233.256.25.25,0,0,0,.3-.265" transform="translate(-47.052 -80.571)" fill="#daebe8"/>
        <path id="Trazado_774444" data-name="Trazado 774444" d="M89.022,150.522l-.045-.005a.045.045,0,0,1-.04-.05c0-.025-.044-.115-.019-.113l.031-.05.192-1.221-.06.028a.045.045,0,0,1-.064,0,.045.045,0,0,1,0-.063l.16-.185a.045.045,0,0,1,.052-.011.044.044,0,0,1,.027.046l-.1,1.585c0,.024-.1.037-.127.034" transform="translate(-47.214 -79.045)" fill="#daebe8"/>
        <path id="Trazado_774445" data-name="Trazado 774445" d="M89.594,149.146a.044.044,0,0,1-.033-.021l-.157-.141a.172.172,0,0,1,.039-.126.046.046,0,0,1,.062.014l.131.2a.045.045,0,0,1-.043.069" transform="translate(-47.475 -79.045)" fill="#daebe8"/>
        <path id="Trazado_774446" data-name="Trazado 774446" d="M87.2,152.251a.044.044,0,0,1-.03-.017l-.118-.153a.045.045,0,0,1,0-.05.045.045,0,0,1,.044-.023l1.063.064c.025,0,.03.082.027.107l-.005.045a.045.045,0,0,1-.05.04c-.025,0-.083.013-.08-.012l.04-.038-.9-.1.053.068a.045.045,0,0,1-.008.063.043.043,0,0,1-.032.009" transform="translate(-46.224 -80.721)" fill="#daebe8"/>
        <path id="Trazado_774447" data-name="Trazado 774447" d="M87.087,151.942a.045.045,0,0,1-.026-.077l.141-.138a.045.045,0,1,1,.063.064l-.062.109a.439.439,0,0,1-.116.042" transform="translate(-46.224 -80.564)" fill="#daebe8"/>
        <path id="Trazado_774448" data-name="Trazado 774448" d="M99.593,151.2l-3.352-.365a.2.2,0,0,1-.169-.251l0-.012a.2.2,0,0,1,.213-.143l3.348.378a.2.2,0,0,1-.044.394" transform="translate(-51.013 -79.882)" fill="#daebe8"/>
        <path id="Trazado_774449" data-name="Trazado 774449" d="M99.157,155.074l-3.352-.365a.2.2,0,0,1-.169-.251l0-.012a.2.2,0,0,1,.213-.143l3.348.378a.2.2,0,0,1-.044.394" transform="translate(-50.781 -81.938)" fill="#daebe8"/>
        <path id="Trazado_774450" data-name="Trazado 774450" d="M97.936,152.967l-1.994-.212c-.073-.007-.115-.123-.09-.242l0-.012c.02-.094.077-.158.135-.152l1.991.225c.065.007.107.1.095.21s-.074.191-.139.184" transform="translate(-50.896 -80.901)" fill="#daebe8"/>
        <path id="Trazado_774451" data-name="Trazado 774451" d="M103.719,153.618l-1.994-.212c-.072-.008-.115-.123-.09-.242l0-.012c.02-.094.077-.158.134-.152l1.992.225c.065.007.107.1.095.21s-.074.191-.139.184" transform="translate(-53.967 -81.247)" fill="#daebe8"/>
        <path id="Trazado_774452" data-name="Trazado 774452" d="M122.257,153.755l-3.352-.365a.2.2,0,0,1-.169-.251l0-.012a.2.2,0,0,1,.213-.143l3.348.378a.2.2,0,0,1-.044.394" transform="translate(-63.048 -81.238)" fill="#daebe8"/>
        <path id="Trazado_774453" data-name="Trazado 774453" d="M121.821,157.627l-3.352-.365a.2.2,0,0,1-.169-.251l0-.012a.2.2,0,0,1,.213-.143l3.348.378a.2.2,0,0,1-.044.394" transform="translate(-62.816 -83.294)" fill="#daebe8"/>
        <path id="Trazado_774454" data-name="Trazado 774454" d="M120.6,155.52l-1.994-.212c-.073-.008-.115-.123-.09-.242l0-.012c.02-.094.077-.158.134-.152l1.992.225c.065.007.107.1.095.21s-.074.191-.139.184" transform="translate(-62.931 -82.257)" fill="#daebe8"/>
        <path id="Trazado_774455" data-name="Trazado 774455" d="M126.383,156.171l-1.994-.212c-.073-.008-.115-.123-.09-.242l0-.012c.02-.094.076-.158.134-.152l1.992.225c.065.007.107.1.095.21s-.074.191-.139.184" transform="translate(-66.002 -82.602)" fill="#daebe8"/>
        <path id="Trazado_774456" data-name="Trazado 774456" d="M93.089,131.376l-.582-.071.35-2.891q.559.048.715.067a1.274,1.274,0,0,1,.914.484,1.364,1.364,0,0,1,.234,1.023q-.189,1.563-1.632,1.388m.12-2.559-.262,2.161a2.311,2.311,0,0,0,.325.06.78.78,0,0,0,.689-.232,1.405,1.405,0,0,0,.341-.835q.125-1.026-.8-1.138c-.037,0-.136-.01-.3-.016" transform="translate(-49.124 -68.191)" fill="#fff"/>
        <path id="Trazado_774457" data-name="Trazado 774457" d="M99.606,132.079l-1.524-.185a.768.768,0,0,0,.134.6.642.642,0,0,0,.441.23.8.8,0,0,0,.559-.122l.125.289a.711.711,0,0,1-.285.118,1.448,1.448,0,0,1-.511.022.941.941,0,0,1-.644-.352,1.069,1.069,0,0,1-.213-.839,1.14,1.14,0,0,1,.42-.8.93.93,0,0,1,.707-.2.97.97,0,0,1,.678.34.877.877,0,0,1,.17.68.835.835,0,0,1-.057.225m-.811-.927a.6.6,0,0,0-.67.471l1.17.142a.537.537,0,0,0-.1-.4.559.559,0,0,0-.4-.217" transform="translate(-51.869 -69.472)" fill="#fff"/>
        <path id="Trazado_774458" data-name="Trazado 774458" d="M102.639,131.818l.289-2.382.375.045-.281,2.319a.365.365,0,0,0,.065.279.348.348,0,0,0,.244.128l-.041.335q-.728-.088-.651-.726" transform="translate(-54.5 -68.734)" fill="#fff"/>
        <path id="Trazado_774459" data-name="Trazado 774459" d="M105.277,132.865l.218-1.8-.29-.035.038-.316.665.081-.256,2.114Zm.559-2.888a.227.227,0,0,1,.157.088.235.235,0,1,1-.157-.088" transform="translate(-55.867 -69.02)" fill="#fff"/>
        <path id="Trazado_774460" data-name="Trazado 774460" d="M108.2,134.087l-.1-.012-.644-2.269.41.05.379,1.548.749-1.411.393.047Z" transform="translate(-57.064 -69.993)" fill="#fff"/>
        <path id="Trazado_774461" data-name="Trazado 774461" d="M113.526,133.766,112,133.581a.767.767,0,0,0,.134.6.642.642,0,0,0,.441.23.8.8,0,0,0,.56-.122l.125.289a.711.711,0,0,1-.285.118,1.448,1.448,0,0,1-.511.022.941.941,0,0,1-.644-.352,1.069,1.069,0,0,1-.213-.839,1.14,1.14,0,0,1,.42-.8.93.93,0,0,1,.707-.2.97.97,0,0,1,.678.34.877.877,0,0,1,.17.68.833.833,0,0,1-.057.225m-.811-.927a.6.6,0,0,0-.67.471l1.17.142a.537.537,0,0,0-.1-.4.559.559,0,0,0-.4-.217" transform="translate(-59.261 -70.368)" fill="#fff"/>
        <path id="Trazado_774462" data-name="Trazado 774462" d="M117.744,133.468a.433.433,0,0,0-.236-.115.442.442,0,0,0-.37.142.681.681,0,0,0-.2.424l-.147,1.211-.375-.045.256-2.114.375.045-.041.337a.661.661,0,0,1,.655-.3,1.709,1.709,0,0,1,.286.071Z" transform="translate(-61.819 -70.611)" fill="#fff"/>
        <path id="Trazado_774463" data-name="Trazado 774463" d="M120.325,135.906a.651.651,0,0,1-.348.3,1.038,1.038,0,0,1-.538.071l.041-.335a.727.727,0,0,0,.416-.061.319.319,0,0,0,.2-.247,1.026,1.026,0,0,0-.02-.35q-.041-.177-.107-.437l-.394-1.54.383.046.423,1.709.756-1.566.383.046Z" transform="translate(-63.425 -70.789)" fill="#fff"/>
        <path id="Trazado_774464" data-name="Trazado 774464" d="M144.412,134.443l-7.182,3.17a3.838,3.838,0,0,1-5.458-1.061,4.177,4.177,0,0,1,1.021-5.669l4.637-3.3c3.184-2.2,6.021-3.173,7.992-.18,2.782,4.226.72,5.807-1.01,7.037" transform="translate(-69.609 -66.657)" fill="#ffb27d"/>
        <path id="Trazado_774465" data-name="Trazado 774465" d="M70.975,297.209c-10.39.314-19.888.586-27.228.648a33.507,33.507,0,0,1-23.66-9.336c2.53-9.826,4.861-18.917,5.087-19.908,1.538-6.761,3.493-15.688,3.5-15.709,1.053-4.791,2.3-10.552,2.673-12.18.073-.3.085-1.613,2.485-1.871h.007a16.51,16.51,0,0,1,6.259.908,53.733,53.733,0,0,1,7.447,2.942,23.746,23.746,0,0,0,10.58,2.03c3.083-.053,6.97-.606,7.906-.606.592-.035,2.2-.147,2.724.606a6.58,6.58,0,0,1,.388,1.763c.259,1.794.571,4.9.9,8.759.072.842.144,2.679.215,5.193.245,8.594.491,25.093.721,36.76" transform="translate(-10.667 -126.816)" fill="#f4a338"/>
        <path id="Trazado_774466" data-name="Trazado 774466" d="M135.759,142.473a.847.847,0,0,1-.518-.209,5.075,5.075,0,0,1-1.426-3,2.138,2.138,0,0,1,1.022-1.633,4.5,4.5,0,0,1,1.814-.83c.848-.144,2.068,1.409,2.57,2.587.387.907.364,1.581-.063,1.9a10.16,10.16,0,0,1-3.277,1.175.587.587,0,0,1-.121.012m1.016-5.178a.266.266,0,0,0-.039,0,4.037,4.037,0,0,0-1.595.736,1.7,1.7,0,0,0-.821,1.218,4.588,4.588,0,0,0,1.232,2.614c.11.087.188.108.225.1l.008,0a9.907,9.907,0,0,0,3.072-1.084c.212-.158.173-.653-.1-1.295-.512-1.2-1.539-2.29-1.981-2.29" transform="translate(-71.059 -72.64)" fill="#f59a6d"/>
        <path id="Trazado_774467" data-name="Trazado 774467" d="M139.815,157.129l-6.38,1.6a3.253,3.253,0,0,1-4.386-1.665,3.487,3.487,0,0,1,1.6-4.555l4.287-2.069c2.934-1.363,5.417-1.765,6.653,1,1.744,3.906-.177,4.92-1.776,5.692" transform="translate(-68.364 -79.325)" fill="#ffb27d"/>
        <path id="Trazado_774468" data-name="Trazado 774468" d="M132.579,161.246a.7.7,0,0,1-.514-.267,4.288,4.288,0,0,1-.793-2.724,1.809,1.809,0,0,1,1.089-1.24,3.8,3.8,0,0,1,1.626-.433H134c.756,0,1.577,1.506,1.832,2.583.191.807.071,1.366-.338,1.573a8.5,8.5,0,0,1-2.893.507h-.02m1.409-4.159c-.793,0-2.124.563-2.214,1.235a3.852,3.852,0,0,0,.664,2.316c.079.086.128.1.143.1h.008a8.218,8.218,0,0,0,2.674-.453c.17-.086.2-.481.075-1.006-.295-1.244-1.068-2.193-1.343-2.194Z" transform="translate(-69.701 -83.149)" fill="#f59a6d"/>
        <path id="Trazado_774469" data-name="Trazado 774469" d="M138.954,150.909a1.8,1.8,0,0,1-.5-.065.252.252,0,0,1,.141-.485c1.114.324,3.656-1.083,4.541-1.652a.253.253,0,0,1,.273.425c-.125.08-2.786,1.776-4.451,1.776" transform="translate(-73.424 -78.946)" fill="#f59a6d"/>
        <path id="Trazado_774470" data-name="Trazado 774470" d="M144.412,113.523l-7.182,3.17a3.837,3.837,0,0,1-5.458-1.061,4.177,4.177,0,0,1,1.021-5.668l4.637-3.3c3.184-2.2,6.021-3.173,7.992-.18,2.782,4.226.72,5.807-1.01,7.037" transform="translate(-69.609 -55.548)" fill="#ffb27d"/>
        <path id="Trazado_774471" data-name="Trazado 774471" d="M135.759,121.553a.85.85,0,0,1-.518-.209,5.075,5.075,0,0,1-1.426-3,2.137,2.137,0,0,1,1.022-1.633,4.5,4.5,0,0,1,1.814-.831c.849-.144,2.068,1.41,2.57,2.587.387.907.364,1.581-.063,1.9a10.132,10.132,0,0,1-3.277,1.175.587.587,0,0,1-.121.013m1.016-5.178a.216.216,0,0,0-.039,0,4.03,4.03,0,0,0-1.595.736,1.7,1.7,0,0,0-.821,1.217,4.591,4.591,0,0,0,1.232,2.614c.11.086.188.108.225.1l.008,0a9.907,9.907,0,0,0,3.072-1.084c.212-.157.173-.653-.1-1.295-.512-1.2-1.539-2.29-1.981-2.29" transform="translate(-71.059 -61.531)" fill="#f59a6d"/>
        <path id="Trazado_774472" data-name="Trazado 774472" d="M138.954,129.989a1.805,1.805,0,0,1-.5-.065.252.252,0,1,1,.141-.485c1.114.323,3.656-1.083,4.541-1.652a.253.253,0,0,1,.273.425c-.125.08-2.786,1.776-4.451,1.776" transform="translate(-73.424 -67.837)" fill="#f59a6d"/>
        <path id="Trazado_774473" data-name="Trazado 774473" d="M73.7,98.284a1.785,1.785,0,0,1-.71-.136.232.232,0,0,1,.2-.421,1.547,1.547,0,0,0,1.369-.153c.506-.3.56-2.948.438-4.735a.232.232,0,0,1,.464-.031c.053.766.267,4.616-.665,5.167a2.129,2.129,0,0,1-1.093.309" transform="translate(-38.688 -49.168)" fill="#f59a6d"/>
        <path id="Trazado_774474" data-name="Trazado 774474" d="M123.868,209.511a.28.28,0,0,0,.053,0,8.048,8.048,0,0,0,5.033-1.913,4.99,4.99,0,0,0,1.289-1.722.308.308,0,0,0-.164-.4.29.29,0,0,0-.381.169,4.512,4.512,0,0,1-1.157,1.514,7.507,7.507,0,0,1-4.656,1.74.306.306,0,0,0-.016.606" transform="translate(-65.64 -109.105)" fill="#f59a6d"/>
        <path id="Trazado_774475" data-name="Trazado 774475" d="M133.5,167.557a3.666,3.666,0,0,1-2.608-.909.253.253,0,0,1,.366-.348,3.179,3.179,0,0,0,2.243.753h.021c1.59-.008,7.779-2.211,7.842-2.233a.252.252,0,1,1,.17.476c-.258.092-6.334,2.255-8.009,2.262H133.5" transform="translate(-69.469 -87.516)" fill="#f59a6d"/>
        <path id="Trazado_774476" data-name="Trazado 774476" d="M67.247,261.619a25.792,25.792,0,0,1-3.476-.222,13.669,13.669,0,0,1-6.991-2.764A16.977,16.977,0,0,0,46.2,254.691a16.2,16.2,0,0,0-5.027.642l-.139-.406a16.293,16.293,0,0,1,5.175-.665A17.4,17.4,0,0,1,57.054,258.3c3.8,3.149,10.019,3.157,14.563,2.609a51.233,51.233,0,0,0,9.087-1.98l.137.407a51.654,51.654,0,0,1-9.165,2,37.072,37.072,0,0,1-4.428.282" transform="translate(-21.791 -135.018)" fill="#fff"/>
        <path id="Trazado_774477" data-name="Trazado 774477" d="M62.63,280.8c-6.208,0-10.357-.987-12.364-2.948a13.356,13.356,0,0,0-8.762-3.742,14.8,14.8,0,0,0-4.491.426l-.122-.411a15.013,15.013,0,0,1,4.636-.443,13.777,13.777,0,0,1,9.04,3.864c5.637,5.507,28.342,1.241,28.57,1.2l.081.422a109.391,109.391,0,0,1-12.239,1.495q-2.319.141-4.349.141" transform="translate(-19.59 -145.322)" fill="#fff"/>
        <path id="Trazado_774478" data-name="Trazado 774478" d="M50.967,302.038c-2.078,0-3.79-.424-4.958-1.642-4.8-5-13.378-5.055-13.5-5.055h0v-.43h0a25.131,25.131,0,0,1,5.026.639,17.715,17.715,0,0,1,8.78,4.548c2.244,2.34,6.843,1.5,12.17.535,6.116-1.112,13.048-2.373,18.719.642l-.2.379c-5.539-2.945-12.393-1.7-18.44-.6a45.682,45.682,0,0,1-7.6.983" transform="translate(-17.265 -156.606)" fill="#fff"/>
        <path id="Trazado_774479" data-name="Trazado 774479" d="M73.666,328.749a11.1,11.1,0,0,0-1.9-1.9,25,25,0,0,0-6.674-3.8c-2.711-1.075-6.227-.348-9.949.421-5.043,1.043-10.76,2.225-16.192-.563-9.172-4.707-12.383-3.492-12.414-3.479l-.166-.4c.133-.057,3.371-1.334,12.777,3.493,5.3,2.719,10.936,1.553,15.909.524,3.787-.783,7.363-1.523,10.194-.4,6.42,2.547,8.68,5.722,8.773,5.856Z" transform="translate(-14.001 -169.311)" fill="#fff"/>
        <path id="Trazado_774480" data-name="Trazado 774480" d="M170.891,167.325l-8.207-7.89c-1.761-1.407-3.7-4.563-2.138-6.218s4.913-.6,6.675.807l10.594,8.45c3.067,2.521,2.7,5.937.182,8.6-3.562,3.76-5.4-2.388-7.107-3.749" transform="translate(-84.949 -80.914)" fill="#ffb27d"/>
        <path id="Trazado_774481" data-name="Trazado 774481" d="M215.832,225.01l-30.3,8.263s-2.321.4-3.983-3.548c-1.222-2.9-.324-9.547-2.515-13.029-.891-1.415-1.9-.669-3.985-4.247-3.975-6.823-2.091-18.508-2.091-18.508s26.461-18.073,26.856-22.423-2.643-12.6,3.294-12.906c.9-.046,1.583.585,2.123,1.58a19.9,19.9,0,0,1,1.572,5.26,36.75,36.75,0,0,0,1.022,4.709,92.847,92.847,0,0,1,3.183,12.142c1.373,7.362,3.574,15.182,1.382,21.274-1.573,4.37-.222,7.706.4,10.556a68.416,68.416,0,0,0,3.04,10.875" transform="translate(-91.607 -84.227)" fill="#ffb27d"/>
        <path id="Trazado_774482" data-name="Trazado 774482" d="M214.9,262.21a.286.286,0,0,1-.252-.1,11.259,11.259,0,0,1-2.109-4.341,12.085,12.085,0,0,1-.228-4.828,15.3,15.3,0,0,1,2.432-6.052.287.287,0,0,1,.408-.081.312.312,0,0,1,.077.423,14.684,14.684,0,0,0-2.337,5.8,11.463,11.463,0,0,0,.216,4.576,10.8,10.8,0,0,0,1.977,4.088.313.313,0,0,1-.021.43.283.283,0,0,1-.162.077" transform="translate(-112.667 -131.035)" fill="#f59a6d"/>
        <path id="Trazado_774483" data-name="Trazado 774483" d="M205.384,202.157l-.719-8.119L202.028,164.3l-.5-5.658a3.554,3.554,0,0,0-.457-1.431v0h0a4.207,4.207,0,0,0-4.12-1.718l-.764.093-6.8.83-8.131.991-.279.04-5.36.651-1.518.186a3.23,3.23,0,0,0-2.75,3.611l.194,2.188.108,1.175.093,1.053.177,2h0v0l.566,6.306h0l.186,2.034v.008l.139,1.545h0l.086.931v.089l.194,2.123v0l.347,3.9h0l.179,1.98v.008l.023.232v.052l.319,3.544v.011l.007.054h0l0,.046.15,1.65h0l.155,1.744v0l.024.239v.008l1.06,11.9a3.106,3.106,0,0,0,3.6,2.607l11.587-1.747h.009l.572-.087h0l4.229-.636,4.594-.69,1.67-.251,1.016-.153a2.951,2.951,0,0,0,.481-.1,3.19,3.19,0,0,0,2.123-2.084,3.366,3.366,0,0,0,.147-1.43" transform="translate(-90.976 -82.553)" fill="#373f51"/>
        <path id="Trazado_774484" data-name="Trazado 774484" d="M197.944,157.267l-22.882,2.789a2.367,2.367,0,0,0-2.05,2.619l4.166,42.809c.308,2.927,1.809,2.63,3.087,2.475l22.984-3.472c1.278-.156,2.174-1.809,2.028-3.1l-3.789-41.9c-.146-1.291-2.265-2.372-3.544-2.216" transform="translate(-91.866 -83.505)" fill="#d7e9fd"/>
        <path id="Trazado_774485" data-name="Trazado 774485" d="M207.319,206.344l-19.94,3.233-1.871-11.645,18.216-4.53Z" transform="translate(-98.51 -102.702)" fill="#fff"/>
        <rect id="Rectángulo_364316" data-name="Rectángulo 364316" width="0.081" height="11.112" transform="translate(98.893 98.627) rotate(-62.989)" fill="#8a9abf"/>
        <path id="Trazado_774486" data-name="Trazado 774486" d="M195.791,211.709l-6.3,7.588-.062-.052,6.3-7.588Z" transform="translate(-100.593 -112.396)" fill="#8a9abf"/>
        <path id="Trazado_774487" data-name="Trazado 774487" d="M195.769,202.876a.239.239,0,0,1-.064.005c-.8-.028-9.89-4.732-10.277-4.932l.074-.143c3.264,1.691,9.6,4.893,10.208,4.914a.089.089,0,0,0,.026,0c.654-.148,5.154-5.82,7.881-9.418l.128.1c-.018.023-1.818,2.4-3.692,4.739-3.381,4.224-4.07,4.693-4.285,4.742" transform="translate(-98.468 -102.647)" fill="#8a9abf"/>
        <path id="Trazado_774488" data-name="Trazado 774488" d="M156.749,205.039l6.993,3.086a3.736,3.736,0,0,0,5.314-1.033,4.067,4.067,0,0,0-.994-5.519l-4.515-3.211c-3.1-2.138-5.863-3.089-7.781-.175-2.709,4.115-.7,5.654.983,6.852" transform="translate(-82.011 -104.271)" fill="#ffb27d"/>
        <path id="Trazado_774489" data-name="Trazado 774489" d="M224.963,319.188c-12.739-.725-31.419-.434-49.982.059,1.405-8.366,3.14-18.1,3.411-21.289.328-3.88.639-6.973.9-8.759a6.627,6.627,0,0,1,.387-1.763c.41-.594,1.547-.649,2.1-.638,1.887.033,5.224.581,8.534.638a23.746,23.746,0,0,0,10.58-2.03,53.124,53.124,0,0,1,7.448-2.943,17.235,17.235,0,0,1,6.259-.907h.007c2.128.227,2.347,1.285,2.416,1.578.018.077.041.175.068.291.132.577.362,1.621.667,3.014.5,2.29,1.206,5.521,2.006,9.167.03.135.061.273.091.409,1.057,4.817,2.274,10.313,3.408,15.3.184.808.888,4.069,1.706,7.872" transform="translate(-92.92 -149.492)" fill="#5573c6"/>
        <path id="Trazado_774490" data-name="Trazado 774490" d="M176.138,213.78a9.28,9.28,0,0,1-2.924-1.04c-.894-.663,1.193-3.871,2.13-3.712s2.441,1.086,2.417,2.033-1,2.857-1.623,2.72" transform="translate(-91.866 -110.996)" fill="#f59a6d"/>
        <path id="Trazado_774491" data-name="Trazado 774491" d="M158.162,184.589l6.5,4.1a3.725,3.725,0,0,0,5.4-.231,4.079,4.079,0,0,0-.222-5.61l-4.026-3.85c-2.773-2.577-5.375-3.93-7.677-1.331-3.249,3.669-1.474,5.491.027,6.928" transform="translate(-83.003 -93.599)" fill="#ffb27d"/>
        <path id="Trazado_774492" data-name="Trazado 774492" d="M177.2,195.86a9.4,9.4,0,0,1-2.75-1.465c-.794-.789,1.715-3.653,2.62-3.357s2.267,1.439,2.112,2.372-1.388,2.677-1.982,2.45" transform="translate(-92.556 -101.435)" fill="#f59a6d"/>
        <path id="Trazado_774493" data-name="Trazado 774493" d="M163.605,227.128l6.212,1.554a3.166,3.166,0,0,0,4.27-1.622,3.394,3.394,0,0,0-1.561-4.435l-4.174-2.014c-2.857-1.327-5.275-1.719-6.477.975-1.7,3.8.173,4.791,1.73,5.542" transform="translate(-85.603 -116.605)" fill="#ffb27d"/>
        <path id="Trazado_774494" data-name="Trazado 774494" d="M180.079,232.089a7.743,7.743,0,0,1-2.564-.442c-.831-.421.473-3.382,1.271-3.386s2.17.55,2.276,1.339-.452,2.514-.983,2.489" transform="translate(-94.124 -121.213)" fill="#f59a6d"/>
        <path id="Trazado_774495" data-name="Trazado 774495" d="M170.828,200.319c-2.665,0-7.332-4.027-7.542-4.21a.246.246,0,1,1,.323-.371c.053.045,5.3,4.575,7.594,4.05a.246.246,0,0,1,.11.479,2.15,2.15,0,0,1-.484.052" transform="translate(-86.664 -103.911)" fill="#f59a6d"/>
        <path id="Trazado_774496" data-name="Trazado 774496" d="M173.582,221.07c-1.622,0-4.213-1.652-4.334-1.73a.246.246,0,0,1,.266-.414c.863.554,3.339,1.923,4.421,1.609a.246.246,0,1,1,.137.472,1.772,1.772,0,0,1-.491.063" transform="translate(-89.815 -116.235)" fill="#f59a6d"/>
        <path id="Trazado_774497" data-name="Trazado 774497" d="M241.971,167.245a4.665,4.665,0,0,1-2.627-.023c-.54-.319-.618-2.2-.6-3.552a1.68,1.68,0,0,1,1.385-1.637l.272-.049a19.941,19.941,0,0,1,1.572,5.26" transform="translate(-126.778 -86.018)" fill="#f59a6d"/>
        <path id="Trazado_774498" data-name="Trazado 774498" d="M185.359,279.021a.284.284,0,0,1-.053,0,8.048,8.048,0,0,1-5.033-1.913,4.989,4.989,0,0,1-1.289-1.722.308.308,0,0,1,.164-.4.29.29,0,0,1,.381.169,4.514,4.514,0,0,0,1.157,1.514,7.507,7.507,0,0,0,4.656,1.74.306.306,0,0,1,.016.606" transform="translate(-95.034 -146.017)" fill="#f59a6d"/>
        <path id="Trazado_774499" data-name="Trazado 774499" d="M172.692,237.281h-.023c-1.631-.008-7.547-2.113-7.8-2.2a.246.246,0,1,1,.165-.463c.061.022,6.087,2.167,7.635,2.174h.021a3.094,3.094,0,0,0,2.184-.733.246.246,0,0,1,.356.34,3.568,3.568,0,0,1-2.539.885" transform="translate(-87.464 -124.58)" fill="#f59a6d"/>
        <path id="Trazado_774500" data-name="Trazado 774500" d="M192.019,306.226a2.318,2.318,0,0,1,1.576-2.332,1.8,1.8,0,0,1,2.341,1.4,2.275,2.275,0,0,1-1.868,2.459,1.846,1.846,0,0,1-2.048-1.523" transform="translate(-101.962 -161.34)" fill="#daebe8"/>
        <path id="Trazado_774501" data-name="Trazado 774501" d="M205.4,333.019a2.318,2.318,0,0,1,1.576-2.332,1.8,1.8,0,0,1,2.341,1.4,2.275,2.275,0,0,1-1.868,2.459,1.846,1.846,0,0,1-2.048-1.523" transform="translate(-109.069 -175.568)" fill="#daebe8"/>
        <path id="Trazado_774502" data-name="Trazado 774502" d="M228.093,341.979a2.318,2.318,0,0,1,1.576-2.332,1.8,1.8,0,0,1,2.341,1.4,2.274,2.274,0,0,1-1.868,2.459,1.846,1.846,0,0,1-2.048-1.523" transform="translate(-121.118 -180.326)" fill="#daebe8"/>
        <path id="Trazado_774503" data-name="Trazado 774503" d="M230.867,299.9a2.318,2.318,0,0,1,1.576-2.332,1.8,1.8,0,0,1,2.341,1.4,2.275,2.275,0,0,1-1.868,2.459,1.846,1.846,0,0,1-2.048-1.523" transform="translate(-122.591 -157.981)" fill="#daebe8"/>
        <path id="Trazado_774504" data-name="Trazado 774504" d="M250.272,293.078a2.318,2.318,0,0,1,1.576-2.332,1.8,1.8,0,0,1,2.341,1.4,2.275,2.275,0,0,1-1.868,2.459,1.846,1.846,0,0,1-2.048-1.523" transform="translate(-132.896 -154.358)" fill="#daebe8"/>
        <path id="Trazado_774505" data-name="Trazado 774505" d="M255.428,331.2A2.318,2.318,0,0,1,257,328.865a1.8,1.8,0,0,1,2.341,1.4,2.275,2.275,0,0,1-1.868,2.459,1.846,1.846,0,0,1-2.049-1.523" transform="translate(-135.634 -174.6)" fill="#daebe8"/>
        <path id="Trazado_774506" data-name="Trazado 774506" d="M187.819,348.169a2.318,2.318,0,0,1,1.576-2.332,1.8,1.8,0,0,1,2.341,1.4,2.275,2.275,0,0,1-1.868,2.459,1.846,1.846,0,0,1-2.048-1.523" transform="translate(-99.732 -183.613)" fill="#daebe8"/>
        <path id="Trazado_774507" data-name="Trazado 774507" d="M211.294,313.368a2.318,2.318,0,0,1,1.576-2.332,1.8,1.8,0,0,1,2.341,1.4,2.275,2.275,0,0,1-1.868,2.459,1.846,1.846,0,0,1-2.048-1.523" transform="translate(-112.197 -165.132)" fill="#daebe8"/>
        <path id="Trazado_774508" data-name="Trazado 774508" d="M233.472,321.545a2.318,2.318,0,0,1,1.576-2.332,1.8,1.8,0,0,1,2.341,1.4,2.274,2.274,0,0,1-1.868,2.459,1.846,1.846,0,0,1-2.048-1.523" transform="translate(-123.975 -169.475)" fill="#daebe8"/>
        <path id="Trazado_774509" data-name="Trazado 774509" d="M295.167,111.245l-8.979-8.9c-1.932-1.592-4.034-5.129-2.268-6.94s5.464-.583,7.4,1.009l11.62,9.56c3.362,2.851,2.9,6.637.057,9.552-4.018,4.114-5.958-2.743-7.828-4.282" transform="translate(-150.417 -50.185)" fill="#d68653"/>
        <path id="Trazado_774510" data-name="Trazado 774510" d="M320.036,168.907c.249,7.981,2.945,27.889,2.945,27.889L301.3,209.306s-10.937-9.872-11.844-14.057c-.667-3.076-1.555-26.262-3.067-30.09-.616-1.557-1.745-1.011-3.135-4.915-2.65-7.442,1.353-18.576,1.353-18.576s29.335-12.85,30.524-17.052-.278-12.873,5.614-12.072a1.945,1.945,0,0,1,1.441,1.108c.789,1.424.915,3.975.93,6.338a36.449,36.449,0,0,0,.137,4.78,92.887,92.887,0,0,1,.892,12.523c-.007,7.49.717,15.584-2.561,21.165-2.351,4-1.636,7.531-1.545,10.449" transform="translate(-149.932 -59.736)" fill="#d68653"/>
        <path id="Trazado_774511" data-name="Trazado 774511" d="M320.771,210.757a.289.289,0,0,1-.23-.143,11.266,11.266,0,0,1-1.273-4.658,12.072,12.072,0,0,1,.665-4.787,15.26,15.26,0,0,1,3.5-5.5.287.287,0,0,1,.416,0,.312.312,0,0,1,0,.43,14.654,14.654,0,0,0-3.366,5.271,11.449,11.449,0,0,0-.632,4.537,10.84,10.84,0,0,0,1.19,4.384.312.312,0,0,1-.1.419.287.287,0,0,1-.174.046" transform="translate(-169.527 -103.859)" fill="#ae6332"/>
        <path id="Trazado_774512" data-name="Trazado 774512" d="M322.218,108.137v0a4.21,4.21,0,0,0-3.732-2.454l-.769-.051-6.84-.448-8.173-.534-.283-.013-5.387-.354-1.526-.1a3.225,3.225,0,0,0-3.368,3.039l-.213,2.185-.109,1.175-.1,1.052-.194,2h0v0l-.606,6.3h0l-.193,2.033v.006h0l-.147,1.544h0l-.087.932v.007l-.015.077v0l-.2,2.124v0l-.377,3.9-.189,1.978v.008l-.02.232v0l-.009.046-.34,3.544v.008h0l0,.055h0l0,.046-.156,1.649v0L289,139.882v0l-.021.24v.008l-1.149,11.888a3.11,3.11,0,0,0,3.06,3.231l11.708.434h0l.007,0,.58.02,4.274.16,4.642.174,1.688.063,1.027.038a3.1,3.1,0,0,0,.49-.006,3.186,3.186,0,0,0,2.47-1.655,3.346,3.346,0,0,0,.407-1.378l.788-8.111h0l2.885-29.71.549-5.654a3.566,3.566,0,0,0-.185-1.491" transform="translate(-152.839 -55.319)" fill="#373f51"/>
        <path id="Trazado_774513" data-name="Trazado 774513" d="M319.913,107.438l-23-1.506a2.362,2.362,0,0,0-2.5,2.193l-3.791,42.845c-.236,2.934,1.294,2.921,2.579,3.005l23.227.854c1.285.084,2.47-1.375,2.564-2.671l3.994-41.884c.094-1.3-1.79-2.752-3.075-2.836" transform="translate(-154.317 -56.25)" fill="#d7e9fd"/>
        <path id="Trazado_774514" data-name="Trazado 774514" d="M272.515,146.14l6.557,4.5a3.885,3.885,0,0,0,5.63-.03,4.231,4.231,0,0,0,.041-5.834l-4-4.155c-2.759-2.784-5.4-4.29-7.92-1.681-3.558,3.683-1.8,5.644-.308,7.194" transform="translate(-143.769 -73.067)" fill="#d68653"/>
        <path id="Trazado_774515" data-name="Trazado 774515" d="M291.823,156.9a9.293,9.293,0,0,1-2.682-1.565c-.757-.818,1.885-3.583,2.777-3.253s2.2,1.521,2,2.447-1.513,2.621-2.1,2.372" transform="translate(-153.471 -80.748)" fill="#f59a6d"/>
        <path id="Trazado_774516" data-name="Trazado 774516" d="M275.451,169.864l6.053,2.788a3.291,3.291,0,0,0,4.676-.833,3.534,3.534,0,0,0-.746-4.835l-3.881-2.864c-2.666-1.908-5.063-2.775-6.808-.254-2.464,3.559-.741,4.93.706,6" transform="translate(-145.237 -86.188)" fill="#d68653"/>
        <path id="Trazado_774517" data-name="Trazado 774517" d="M292.573,175.988a7.751,7.751,0,0,1-2.438-.91c-.739-.568,1.088-3.236,1.873-3.091s2.031.943,1.99,1.738-.907,2.387-1.425,2.264" transform="translate(-153.978 -91.327)" fill="#f59a6d"/>
        <path id="Trazado_774518" data-name="Trazado 774518" d="M288.182,164.984c-1.655,0-4.351-2.53-4.467-2.641a.255.255,0,1,1,.351-.371c.753.712,2.913,2.5,4.107,2.5a.838.838,0,0,0,.1-.006.256.256,0,0,1,.05.51c-.047,0-.1.006-.144.006" transform="translate(-150.618 -85.974)" fill="#ae6332"/>
        <path id="Trazado_774519" data-name="Trazado 774519" d="M276.224,125.2l6.557,4.5a3.885,3.885,0,0,0,5.63-.03,4.231,4.231,0,0,0,.041-5.834l-4-4.155c-2.759-2.784-5.4-4.29-7.92-1.681-3.558,3.683-1.8,5.644-.308,7.194" transform="translate(-145.739 -61.949)" fill="#d68653"/>
        <path id="Trazado_774520" data-name="Trazado 774520" d="M295.532,135.967a9.293,9.293,0,0,1-2.682-1.565c-.757-.818,1.885-3.583,2.777-3.253s2.2,1.521,2,2.447-1.513,2.621-2.1,2.372" transform="translate(-155.44 -69.629)" fill="#f59a6d"/>
        <path id="Trazado_774521" data-name="Trazado 774521" d="M291.891,144.047c-1.655,0-4.351-2.53-4.467-2.641a.255.255,0,0,1,.351-.371c.753.712,2.913,2.5,4.107,2.5a.851.851,0,0,0,.1-.006.256.256,0,0,1,.049.51c-.047,0-.1.006-.144.006" transform="translate(-152.587 -74.856)" fill="#ae6332"/>
        <path id="Trazado_774522" data-name="Trazado 774522" d="M365.755,121.3c-.9.032-2.22-.017-2.577-.547-1.418-2.109.294-4.436,1.647-5.79.789,1.423.914,3.975.93,6.338" transform="translate(-192.575 -61.05)" fill="#f59a6d"/>
        <path id="Trazado_774523" data-name="Trazado 774523" d="M290.486,221.264a.249.249,0,0,1-.052-.008,8.062,8.062,0,0,1-4.594-2.814,5,5,0,0,1-.95-1.932.308.308,0,0,1,.234-.358.29.29,0,0,1,.343.237,4.526,4.526,0,0,0,.858,1.7,7.519,7.519,0,0,0,4.256,2.574.306.306,0,0,1-.1.6" transform="translate(-151.282 -114.779)" fill="#ae6332"/>
        <path id="Trazado_774524" data-name="Trazado 774524" d="M284.68,181.431a4.747,4.747,0,0,1-.906-.09c-1.666-.322-7.31-3.615-7.549-3.756a.255.255,0,1,1,.258-.441c.058.033,5.808,3.389,7.389,3.7a3.217,3.217,0,0,0,2.394-.323.261.261,0,0,1,.356.06.255.255,0,0,1-.059.355,3.376,3.376,0,0,1-1.883.5" transform="translate(-146.615 -94.05)" fill="#ae6332"/>
        <path id="Trazado_774525" data-name="Trazado 774525" d="M339.273,308.554c-12.291-.211-26.935-1.028-46.086-2.238h0c-.619-7.771-1.689-21.343-2.217-28.849a12.883,12.883,0,0,0-.346-2.155c-1.684-6.887-8.308-12.962-3.979-17.449.616-.638,1.744-.684,3.155-.472,4.019.6,10.341,3.294,13.713.311,4.556-4.032,11.99,2.579,17.512-.484a11.034,11.034,0,0,1,1.463-.688c4.62-1.747,7.161,1.847,5.223,14.988-.371,2.516,8.727,28.711,11.563,37.036" transform="translate(-151.449 -136.006)" fill="#4adbd1"/>
        <path id="Trazado_774526" data-name="Trazado 774526" d="M320.023,294.862a11.437,11.437,0,0,1-4.072-.9,12.053,12.053,0,0,0-8.015-.56,18.456,18.456,0,0,1-11.37-.743l.185-.387a18.015,18.015,0,0,0,11.083.713,12.567,12.567,0,0,1,8.261.573,10.725,10.725,0,0,0,4.151.872c1.73-.048,3.313-1.267,4.989-2.558,2.284-1.758,4.874-3.751,8.529-3.413l-.039.427c-3.489-.323-6.007,1.616-8.228,3.326-1.733,1.334-3.37,2.595-5.239,2.647-.08,0-.159,0-.236,0" transform="translate(-157.485 -153.159)" fill="#1ba594"/>
        <path id="Trazado_774527" data-name="Trazado 774527" d="M371.759,323.767c-.913-.678-1.421-.592-1.713-.236s-.257.845.656,1.523a5.223,5.223,0,0,0,3,1.189,4.711,4.711,0,0,0-1.939-2.476" transform="translate(-196.419 -171.659)" fill="#1ba594"/>
        <path id="Trazado_774528" data-name="Trazado 774528" d="M359.472,298.673h0a.09.09,0,0,0-.134.022,44.556,44.556,0,0,1-4.7,6.176c-.055.061-.11.121-.166.181A47.8,47.8,0,0,1,351,308.472q-.412.368-.842.733l.144.158q.421-.359.827-.721a46.876,46.876,0,0,0,6.289-6.789l.154-.2c.712-.954,1.353-1.892,1.928-2.8a.132.132,0,0,0-.028-.172" transform="translate(-185.943 -158.593)" fill="#1ba594"/>
        <path id="Trazado_774529" data-name="Trazado 774529" d="M364.976,304.937l-.2.095c3.275,6.981-.59,14.609-.629,14.684l.2.089c.04-.077,3.952-7.795.634-14.868" transform="translate(-193.37 -161.93)" fill="#1ba594"/>
        <path id="Trazado_774530" data-name="Trazado 774530" d="M353,311.494a8.351,8.351,0,0,0-4.124.669l.1.19a7.865,7.865,0,0,1,4.992-.458l.069-.206a6.643,6.643,0,0,0-1.032-.194" transform="translate(-185.261 -165.39)" fill="#1ba594"/>
        <path id="Trazado_774531" data-name="Trazado 774531" d="M344.855,321.337c1.328-.891,1.518-1.448,1.264-1.808s-.854-.388-2.182.5a9.293,9.293,0,0,0-3.13,3.059,9.337,9.337,0,0,0,4.048-1.753" transform="translate(-180.978 -169.554)" fill="#1ba594"/>
        <path id="Trazado_774532" data-name="Trazado 774532" d="M344.963,312.53c1.529-.475,1.882-.958,1.757-1.38s-.681-.622-2.21-.147a9.525,9.525,0,0,0-3.906,2.047,9.166,9.166,0,0,0,4.359-.52" transform="translate(-180.87 -165.005)" fill="#1ba594"/>
        <path id="Trazado_774533" data-name="Trazado 774533" d="M358.983,317.373c.441-1.067.225-1.5-.2-1.654s-.907.048-1.347,1.115a4.951,4.951,0,0,0-.416,3.152,5.331,5.331,0,0,0,1.966-2.614" transform="translate(-189.536 -167.633)" fill="#1ba594"/>
        <path id="Trazado_774534" data-name="Trazado 774534" d="M362.52,336.129c.6-1.436.434-1.986.007-2.137s-.953.154-1.555,1.591a8.456,8.456,0,0,0-.852,4.154,8.913,8.913,0,0,0,2.4-3.608" transform="translate(-191.221 -177.341)" fill="#1ba594"/>
        <path id="Trazado_774535" data-name="Trazado 774535" d="M326.015,274.773q-.412.387-.8.774a47.745,47.745,0,0,0-3.3,3.592c-.053.062-.105.126-.157.189q-1,1.225-1.855,2.426a.105.105,0,0,1-.119.039.109.109,0,0,1-.055-.166,47.1,47.1,0,0,1,5.342-6.243q.387-.382.79-.762Z" transform="translate(-169.775 -145.832)" fill="#1ba594"/>
        <path id="Trazado_774536" data-name="Trazado 774536" d="M324.961,283.722a8.349,8.349,0,0,0,4.085-.877l-.1-.185a7.865,7.865,0,0,1-4.962.711l-.059.21a6.608,6.608,0,0,0,1.04.142" transform="translate(-172.011 -150.1)" fill="#1ba594"/>
        <path id="Trazado_774537" data-name="Trazado 774537" d="M332.292,270.2c-1.282.957-1.443,1.523-1.172,1.87s.872.344,2.154-.612a9.3,9.3,0,0,0,2.972-3.214,9.344,9.344,0,0,0-3.954,1.956" transform="translate(-175.774 -142.443)" fill="#1ba594"/>
        <path id="Trazado_774538" data-name="Trazado 774538" d="M331.8,280.626c-1.5.552-1.832,1.052-1.686,1.467s.712.587,2.215.035a9.536,9.536,0,0,0,3.8-2.243,9.168,9.168,0,0,0-4.327.74" transform="translate(-175.283 -148.609)" fill="#1ba594"/>
        <path id="Trazado_774539" data-name="Trazado 774539" d="M321.883,274.3c-.386,1.088-.148,1.514.287,1.641s.9-.094,1.289-1.182a4.952,4.952,0,0,0,.256-3.169,5.331,5.331,0,0,0-1.832,2.71" transform="translate(-170.825 -144.22)" fill="#1ba594"/>
        <path id="Trazado_774540" data-name="Trazado 774540" d="M327.787,340.591c-.275.258-.542.516-.8.774a47.74,47.74,0,0,0-3.3,3.592c-.053.062-.105.126-.157.189q-1,1.225-1.855,2.426a.1.1,0,0,1-.119.039.109.109,0,0,1-.055-.166,47.106,47.106,0,0,1,5.343-6.243q.386-.382.79-.762Z" transform="translate(-170.716 -180.783)" fill="#1ba594"/>
        <path id="Trazado_774541" data-name="Trazado 774541" d="M326.732,349.539a8.35,8.35,0,0,0,4.085-.877l-.1-.185a7.865,7.865,0,0,1-4.962.711l-.059.21a6.606,6.606,0,0,0,1.04.142" transform="translate(-172.951 -185.051)" fill="#1ba594"/>
        <path id="Trazado_774542" data-name="Trazado 774542" d="M334.063,336.014c-1.282.957-1.443,1.523-1.172,1.87s.872.344,2.154-.612a9.3,9.3,0,0,0,2.972-3.214,9.344,9.344,0,0,0-3.954,1.957" transform="translate(-176.715 -177.393)" fill="#1ba594"/>
        <path id="Trazado_774543" data-name="Trazado 774543" d="M333.571,346.443c-1.5.552-1.832,1.052-1.686,1.467s.712.587,2.215.035a9.537,9.537,0,0,0,3.8-2.243,9.168,9.168,0,0,0-4.327.74" transform="translate(-176.223 -183.559)" fill="#1ba594"/>
        <path id="Trazado_774544" data-name="Trazado 774544" d="M323.654,340.114c-.386,1.088-.148,1.514.287,1.641s.9-.094,1.289-1.182a4.948,4.948,0,0,0,.256-3.169,5.331,5.331,0,0,0-1.832,2.71" transform="translate(-171.766 -179.171)" fill="#1ba594"/>
        <path id="Trazado_774545" data-name="Trazado 774545" d="M310.991,312.256q-.117.394-.222.78a34.853,34.853,0,0,0-.757,3.462c-.011.059-.02.117-.029.176q-.181,1.136-.279,2.2a.077.077,0,0,1-.06.068.078.078,0,0,1-.095-.084,34.364,34.364,0,0,1,1.074-5.875q.1-.382.218-.768Z" transform="translate(-164.379 -165.796)" fill="#1ba594"/>
        <path id="Trazado_774546" data-name="Trazado 774546" d="M311.021,318.725a6.089,6.089,0,0,0,2.241-2.05l-.133-.077a5.735,5.735,0,0,1-2.852,2.267l.04.153a4.809,4.809,0,0,0,.7-.293" transform="translate(-164.766 -168.122)" fill="#1ba594"/>
        <path id="Trazado_774547" data-name="Trazado 774547" d="M311.722,307.464c-.455,1.07-.35,1.484-.053,1.6s.673-.1,1.127-1.175a6.781,6.781,0,0,0,.693-3.106,6.819,6.819,0,0,0-1.766,2.678" transform="translate(-165.369 -161.85)" fill="#1ba594"/>
        <path id="Trazado_774548" data-name="Trazado 774548" d="M314.637,313.873c-.741.9-.765,1.332-.522,1.539s.66.107,1.4-.791a6.957,6.957,0,0,0,1.564-2.8,6.679,6.679,0,0,0-2.443,2.053" transform="translate(-166.73 -165.585)" fill="#1ba594"/>
        <path id="Trazado_774549" data-name="Trazado 774549" d="M306.471,315.192c.154.824.459,1,.778.923s.532-.391.378-1.214a3.582,3.582,0,0,0-.994-2.081,3.886,3.886,0,0,0-.161,2.372" transform="translate(-162.694 -166.116)" fill="#1ba594"/>
        <path id="Trazado_774550" data-name="Trazado 774550" d="M309.23,273.945c-.829-.779-1.344-.753-1.674-.434s-.352.81.476,1.59a5.23,5.23,0,0,0,2.838,1.528,4.715,4.715,0,0,0-1.641-2.684" transform="translate(-163.207 -145.13)" fill="#1ba594"/>
        <path id="Trazado_774551" data-name="Trazado 774551" d="M326.62,313.82c-.829-.779-1.344-.753-1.674-.433s-.352.809.477,1.589a5.23,5.23,0,0,0,2.839,1.528,4.718,4.718,0,0,0-1.641-2.684" transform="translate(-172.442 -166.305)" fill="#1ba594"/>
        <path id="Trazado_774552" data-name="Trazado 774552" d="M372.714,342.181c.267,1.108.711,1.369,1.163,1.285s.737-.483.47-1.591a5.263,5.263,0,0,0-1.537-2.842,4.727,4.727,0,0,0-.1,3.148" transform="translate(-197.817 -180.036)" fill="#1ba594"/>
        <path id="Trazado_774553" data-name="Trazado 774553" d="M348.313,289.813c1.135.032,1.5-.331,1.54-.79s-.272-.84-1.407-.872a5.223,5.223,0,0,0-3.134.746,4.683,4.683,0,0,0,3,.917" transform="translate(-183.37 -153.014)" fill="#1ba594"/>
        <path id="Trazado_774554" data-name="Trazado 774554" d="M357.586,272.265c-1-.536-1.492-.375-1.729.02s-.13.874.872,1.41a5.221,5.221,0,0,0,3.137.733,4.7,4.7,0,0,0-2.281-2.162" transform="translate(-188.914 -144.398)" fill="#1ba594"/>
        <path id="Trazado_774555" data-name="Trazado 774555" d="M312.956,335.413c-1.132-.1-1.519.246-1.581.7s.224.854,1.356.95a5.222,5.222,0,0,0,3.171-.567,4.681,4.681,0,0,0-2.945-1.085" transform="translate(-165.344 -178.105)" fill="#1ba594"/>
        <path id="Trazado_774556" data-name="Trazado 774556" d="M308.74,291.2a.554.554,0,1,1,.554.557.556.556,0,0,1-.554-.557" transform="translate(-163.949 -154.337)" fill="#1ba594"/>
        <path id="Trazado_774557" data-name="Trazado 774557" d="M293.252,275.648a.554.554,0,1,1,.554.557.556.556,0,0,1-.554-.557" transform="translate(-155.725 -146.081)" fill="#1ba594"/>
        <path id="Trazado_774558" data-name="Trazado 774558" d="M345.392,275.648a.554.554,0,1,1,.554.557.556.556,0,0,1-.554-.557" transform="translate(-183.413 -146.081)" fill="#1ba594"/>
        <path id="Trazado_774559" data-name="Trazado 774559" d="M333.667,292.383a.554.554,0,1,1,.554.557.556.556,0,0,1-.554-.557" transform="translate(-177.186 -154.968)" fill="#1ba594"/>
        <path id="Trazado_774560" data-name="Trazado 774560" d="M333.112,309.441a.554.554,0,1,1,.554.557.556.556,0,0,1-.554-.557" transform="translate(-176.892 -164.026)" fill="#1ba594"/>
        <path id="Trazado_774561" data-name="Trazado 774561" d="M348.975,348.149a.554.554,0,1,1,.554.557.556.556,0,0,1-.554-.557" transform="translate(-185.315 -184.581)" fill="#1ba594"/>
        <path id="Trazado_774562" data-name="Trazado 774562" d="M380.356,338.381a.554.554,0,1,1,.554.557.556.556,0,0,1-.554-.557" transform="translate(-201.979 -179.394)" fill="#1ba594"/>
        <path id="Trazado_774563" data-name="Trazado 774563" d="M373.95,315.721a.554.554,0,1,1,.554.557.556.556,0,0,1-.554-.557" transform="translate(-198.578 -167.361)" fill="#1ba594"/>
        <path id="Trazado_774564" data-name="Trazado 774564" d="M316.486,326.759a.554.554,0,1,1,.554.557.556.556,0,0,1-.554-.557" transform="translate(-168.063 -173.222)" fill="#1ba594"/>
        <path id="Trazado_774565" data-name="Trazado 774565" d="M460.208,133.931l8.333-9.506c1.816-1.723,3.666-5.4,1.777-7.082s-5.492-.2-7.309,1.524l-10.922,10.351c-3.154,3.079-2.431,6.824.612,9.532,4.3,3.823,5.752-3.153,7.509-4.819" transform="translate(-238.985 -61.92)" fill="#ffb27d"/>
        <path id="Trazado_774566" data-name="Trazado 774566" d="M414.337,281.6l3.184.216c-1.336,1.147-3.184-.216-3.184-.216" transform="translate(-220.024 -149.537)" fill="#ffb27d"/>
        <path id="Trazado_774567" data-name="Trazado 774567" d="M446.591,185.585c-1.336,3.926-2.469,3.386-3.062,4.951-1.457,3.845.755,10.186.135,13.275-.836,4.2-3.2,4.263-3.2,4.263l-28.156-1.848c.756-.634,1.362-2.05,1.4-4.911.04-2.914,2.347-8.675-2.671-14.867-3.993-4.937-6.435-22.045-6.516-25.188-.04-1.471.661-9.647,1.363-15.515a39.552,39.552,0,0,1,.971-6.084.4.4,0,0,1,.135-.121c1.093-.675,8.108-1.147,7.164,10.874-.351,4.344,30.787,16.621,30.787,16.621s4.182,11.076,1.646,18.55" transform="translate(-214.813 -73.948)" fill="#ffb27d"/>
        <path id="Trazado_774568" data-name="Trazado 774568" d="M452.352,235.06a.286.286,0,0,0,.227-.146,11.246,11.246,0,0,0,1.2-4.674,12.09,12.09,0,0,0-.74-4.776,15.31,15.31,0,0,0-3.591-5.446.286.286,0,0,0-.415,0,.311.311,0,0,0,.008.43,14.692,14.692,0,0,1,3.449,5.223,11.461,11.461,0,0,1,.7,4.527,10.8,10.8,0,0,1-1.122,4.4.313.313,0,0,0,.106.418.288.288,0,0,0,.174.043" transform="translate(-238.406 -116.789)" fill="#f59a6d"/>
        <path id="Trazado_774569" data-name="Trazado 774569" d="M449.408,165.315l-.027-.27-.107-.971v-.014l-.027-.229v-.014l-.2-1.74-.175-1.632v-.013l-.014-.041v-.068l-.324-2.968-.013-.054-.027-.31-.027-.2-.013-.054-.027-.229v-.014l-.216-1.97v-.013l-.445-3.872v-.013l-.229-2.118-.014-.081-.014-.135-.014-.121-.081-.675-.04-.364-.135-1.187-.216-2.024V143.9l-.715-6.287-.135-1.282-.081-.715-.04-.391-.081-.661-.135-1.173-.243-2.186a3.223,3.223,0,0,0-3.413-2.982l-1.052.081-.472.027-5.383.432-.283.013-8.163.648-6.84.553-.769.054a4.209,4.209,0,0,0-3.683,2.509,2.922,2.922,0,0,0-.175,1,.17.17,0,0,0-.014.081c0,.135.014.284.027.418l.634,5.639,3.346,29.667.918,8.094a3.168,3.168,0,0,0,.432,1.376,3.214,3.214,0,0,0,2.482,1.619,3.173,3.173,0,0,0,.5,0l1.025-.054,1.686-.095,4.641-.229,4.263-.216.014-.014.567-.027h.013l11.71-.594a3.111,3.111,0,0,0,3.009-3.265Z" transform="translate(-220.559 -68.086)" fill="#373f51"/>
        <path id="Trazado_774570" data-name="Trazado 774570" d="M420.3,131.79l22.98-1.824a2.367,2.367,0,0,1,2.532,2.158l4.458,42.778c.283,2.93-1.248,2.938-2.532,3.04l-23.216,1.176c-1.284.1-2.491-1.341-2.606-2.635l-4.646-41.816c-.114-1.293,1.746-2.775,3.03-2.877" transform="translate(-221.581 -69.012)" fill="#d7e9fd"/>
        <path id="Trazado_774571" data-name="Trazado 774571" d="M449.6,157.365a8.974,8.974,0,0,1-1.292,3.092,10.349,10.349,0,0,1-2.905,2.895q-.354.237-.727.449a12.237,12.237,0,0,1-8.441,1.359,9.354,9.354,0,0,1-1.92-.621,9.107,9.107,0,0,1-2.059-1.279,9.362,9.362,0,0,1-.979-.934h0a11.382,11.382,0,0,1-2.468-9.945c1.194-5.687,5.634-9.807,12.457-8.135a11.484,11.484,0,0,1,8.334,13.12" transform="translate(-227.567 -76.398)" fill="#96b4e0"/>
        <path id="Trazado_774572" data-name="Trazado 774572" d="M438.175,150.515a1.678,1.678,0,0,0-1.854.76c-.662,1.1-.648.492-1.7,1.769s.882,1.72.573,2.748-1.231,1.163-.838,2.444,1.466.736,1.482,1.57-.533,1.643.489,1.746,1.314.025,1.989,1.179,2.377-.058,3.774.328,4.9-.11,5.057-.876,2.865-1.412,1.349-3.388c-.837-1.09.325-.919.36-2.441.029-1.247-1.688-.861-1.073-2.026a2.055,2.055,0,0,0-.945-2.618c-1.289-.735-1.222-2.47-3.069-1.988s-2.093-.181-3.232-.4-1.639,1.244-2.359,1.2" transform="translate(-230.603 -79.28)" fill="#373f51"/>
        <path id="Trazado_774573" data-name="Trazado 774573" d="M439.289,176.648a.516.516,0,0,1-.069.181,8.994,8.994,0,0,0-.456.8c-.149.291-.31.641-.539,1.151-.3.659-.569,1.345-.82,2.048a9.108,9.108,0,0,1-2.06-1.279,9.457,9.457,0,0,1-.979-.935h0q.347-.9.734-1.72c.136-.291.26-.554.374-.79a10.128,10.128,0,0,1,.643-1.2,2.468,2.468,0,0,1,.157-.21,2.315,2.315,0,0,1,2.01.2,2.072,2.072,0,0,1,1,1.755" transform="translate(-230.66 -92.684)" fill="#b5815e"/>
        <path id="Trazado_774574" data-name="Trazado 774574" d="M438.512,178.549a9.079,9.079,0,0,1-2.059-1.279,20.133,20.133,0,0,1,.995-2.51,12.524,12.524,0,0,1,1.119-1.9c.116-.16.234-.314.354-.458a5.649,5.649,0,0,1,2.921-2,4.475,4.475,0,0,1,.776-.128h.006c.1-.007.195-.011.293-.012h.016a6.482,6.482,0,0,1,1.5.153,4.966,4.966,0,0,1,3.587,3.02c.02.057.04.116.06.174h0c.014.044.029.086.043.13q.1.332.2.7.036.142.069.289c.016.068.032.138.047.209s.036.17.053.257h0c.162.805.285,1.695.379,2.624a12.239,12.239,0,0,1-8.441,1.359,9.384,9.384,0,0,1-1.919-.622" transform="translate(-231.769 -90.409)" fill="#e28569"/>
        <path id="Trazado_774575" data-name="Trazado 774575" d="M451.485,172.2l-3.567,2.862s-7.383.563-9.33.162a2.605,2.605,0,0,1-2.217-1.846,9.083,9.083,0,0,1,5.475-3.057,9.507,9.507,0,0,1,1.028-.071c.6-.029,1,.041,1.6.05,5.5.086,7.016,1.9,7.016,1.9" transform="translate(-231.725 -90.402)" fill="#e28569"/>
        <path id="Trazado_774576" data-name="Trazado 774576" d="M450.462,165.59a1.118,1.118,0,0,1-.9-.688l-.474-1.176-.137-.341-.809-2.007.1,2.063.06,1.238.017.353a.563.563,0,0,1-.478.582h-.005c-.158.244-.38.742.243.957a2.464,2.464,0,0,0,2.385-.979h-.007" transform="translate(-237.724 -85.696)" fill="#b5815e"/>
        <path id="Trazado_774577" data-name="Trazado 774577" d="M449.749,165.915c0,.011,0,.023,0,.034a1.307,1.307,0,0,1-.782.956l0,0-.06-1.238a1.056,1.056,0,0,1,.709-.055.29.29,0,0,1,.14.307" transform="translate(-238.378 -87.919)" fill="#373f51"/>
        <path id="Trazado_774578" data-name="Trazado 774578" d="M444.346,159.326a1.978,1.978,0,1,1,1.878,2.432,2.2,2.2,0,0,1-1.878-2.432" transform="translate(-235.959 -83.363)" fill="#b5815e"/>
        <path id="Trazado_774579" data-name="Trazado 774579" d="M446.91,164.782a4.2,4.2,0,0,0,1.327-.186.644.644,0,0,1-.677.68c-.417.015-.65-.494-.65-.494" transform="translate(-237.322 -87.405)" fill="#fff"/>
        <path id="Trazado_774580" data-name="Trazado 774580" d="M448.6,161.888a.044.044,0,0,1,0-.083.477.477,0,0,1,.567.141.044.044,0,0,1,0,.062.048.048,0,0,1-.062,0,.752.752,0,0,0-.47-.117.044.044,0,0,1-.028,0" transform="translate(-238.204 -85.901)" fill="#060633"/>
        <path id="Trazado_774581" data-name="Trazado 774581" d="M449.4,162.892c0,.105-.06.191-.137.191s-.139-.084-.14-.189.061-.191.136-.191.139.084.14.189" transform="translate(-238.499 -86.4)" fill="#060633"/>
        <path id="Trazado_774582" data-name="Trazado 774582" d="M445.289,162.314a.043.043,0,0,1-.037-.014.043.043,0,0,1,0-.062.476.476,0,0,1,.577-.086.044.044,0,0,1,.021.059.048.048,0,0,1-.059.021.753.753,0,0,0-.48.071.043.043,0,0,1-.025.011" transform="translate(-236.435 -86.075)" fill="#060633"/>
        <path id="Trazado_774583" data-name="Trazado 774583" d="M446.354,163a.171.171,0,0,1-.053.229c-.07.03-.16-.025-.2-.121a.171.171,0,0,1,.053-.229c.07-.03.16.025.2.121" transform="translate(-236.88 -86.49)" fill="#060633"/>
        <path id="Trazado_774584" data-name="Trazado 774584" d="M464.381,174.2c.283.427-.326.981-1.569,1.836s-1.783,1.156-2.066.728.083-1.134,1.319-2c.906-.635,2.033-.991,2.316-.564" transform="translate(-244.62 -92.408)" fill="#373f51"/>
        <path id="Trazado_774585" data-name="Trazado 774585" d="M465.931,176.84l.011.022a10.35,10.35,0,0,1-2.905,2.894,10.979,10.979,0,0,0-.992-1.974c-.042-.067-.08-.134-.114-.2h0a1.714,1.714,0,0,1-.1-.245,1.265,1.265,0,0,1-.048-.182,1.174,1.174,0,0,1-.019-.33,1.8,1.8,0,0,1,.53-1.055,3.193,3.193,0,0,1,1.446-.877,1.094,1.094,0,0,1,.923-.048h0a.534.534,0,0,1,.159.145l.107.145a11.91,11.91,0,0,1,1,1.707" transform="translate(-245.205 -92.802)" fill="#b5815e"/>
        <path id="Trazado_774586" data-name="Trazado 774586" d="M451.625,161.989a.476.476,0,0,1-.686.032.532.532,0,0,1,.126-.707.476.476,0,0,1,.686-.032.532.532,0,0,1-.126.707" transform="translate(-239.415 -85.576)" fill="#b5815e"/>
        <path id="Trazado_774587" data-name="Trazado 774587" d="M445.045,157.2a.73.73,0,0,0,.81.631s-.03.56.683.429c0,0-.061.378.443.423,0,0,.2.37.765.151a1.287,1.287,0,0,0,.278-1.943,3.227,3.227,0,0,0-3.06-.634c-.914.44-1.434,2.371-1.194,2.483s.773,0,.809-.428c0,0,.485-.186.351-.635a1.278,1.278,0,0,0,.114-.476" transform="translate(-235.623 -82.884)" fill="#373f51"/>
        <path id="Trazado_774588" data-name="Trazado 774588" d="M451.5,164.194a.774.774,0,0,1-.742-.6.928.928,0,0,1,.014-.787,1.029,1.029,0,0,1,.631-.452.05.05,0,0,1,.059.038.049.049,0,0,1-.037.059.947.947,0,0,0-.567.4.837.837,0,0,0-.008.705.682.682,0,0,0,.74.526.646.646,0,0,0,.575-.479,1.171,1.171,0,0,0-.42-.822.049.049,0,0,1-.006-.069.049.049,0,0,1,.069-.007,1.247,1.247,0,0,1,.455.906.737.737,0,0,1-.66.57.809.809,0,0,1-.1.007" transform="translate(-239.324 -86.216)" fill="#e28569"/>
        <path id="Trazado_774589" data-name="Trazado 774589" d="M444.79,165.86a.862.862,0,0,1-.644-.292.872.872,0,0,1-.108-1.08.05.05,0,1,1,.082.056.762.762,0,0,0,.1.956.784.784,0,0,0,.957.169.05.05,0,0,1,.049.086.97.97,0,0,1-.434.1" transform="translate(-235.721 -87.336)" fill="#e28569"/>
        <path id="Trazado_774590" data-name="Trazado 774590" d="M450.647,149.306a2.109,2.109,0,0,1-1.363-.5.049.049,0,0,1,.068-.071,2.018,2.018,0,0,0,1.88.389.05.05,0,1,1,.028.1,2.21,2.21,0,0,1-.613.089" transform="translate(-238.574 -78.974)" fill="#373f51"/>
        <path id="Trazado_774591" data-name="Trazado 774591" d="M435.437,153.157a.05.05,0,0,1-.045-.028.049.049,0,0,1,.023-.066,3.767,3.767,0,0,0,1.347-1.244,1.562,1.562,0,0,1,1.74-.84.8.8,0,0,0,.717-.216.05.05,0,0,1,.072.068.889.889,0,0,1-.813.244,1.54,1.54,0,0,0-1.633.8,3.788,3.788,0,0,1-1.387,1.279.046.046,0,0,1-.022.005" transform="translate(-231.203 -80.051)" fill="#373f51"/>
        <path id="Trazado_774592" data-name="Trazado 774592" d="M463.909,158.895a.052.052,0,0,1-.025-.007c-.571-.335-.446-.635-.081-1.338.343-.662-.347-1.38-.354-1.388a.049.049,0,0,1,.071-.069,2.026,2.026,0,0,1,.326.472,1.109,1.109,0,0,1,.044,1.03c-.364.7-.447.919.044,1.207a.05.05,0,0,1-.025.092" transform="translate(-246.097 -82.882)" fill="#373f51"/>
        <path id="Trazado_774593" data-name="Trazado 774593" d="M465.184,168.426a.051.051,0,0,1-.029-.009.8.8,0,0,1-.231-1.141.05.05,0,0,1,.08.058.7.7,0,0,0,.21,1,.05.05,0,0,1,.01.069.049.049,0,0,1-.04.02" transform="translate(-246.809 -88.817)" fill="#373f51"/>
        <path id="Trazado_774594" data-name="Trazado 774594" d="M452.94,155.264a.051.051,0,0,1-.028-.008.05.05,0,0,1-.013-.069,1.218,1.218,0,0,0,.175-.847,1.116,1.116,0,0,0-.567-.7,1.286,1.286,0,0,0-1.156-.156,1.811,1.811,0,0,1-1.4-.139,1.667,1.667,0,0,0-1.361-.133.99.99,0,0,0-.413.309.049.049,0,0,1-.082-.055c.006-.008.585-.835,1.9-.21a1.706,1.706,0,0,0,1.334.132,1.384,1.384,0,0,1,1.231.167,1.209,1.209,0,0,1,.612.767,1.294,1.294,0,0,1-.19.923.049.049,0,0,1-.041.022" transform="translate(-237.947 -81.258)" fill="#373f51"/>
        <path id="Trazado_774595" data-name="Trazado 774595" d="M438.889,161.48a.05.05,0,0,1-.048-.037c-.128-.482.154-.616.51-.785a3.082,3.082,0,0,0,.474-.262c.092-.065.141-.121.14-.163,0-.061-.108-.128-.22-.2-.2-.127-.453-.284-.462-.588-.013-.4.231-.455.49-.514a1.09,1.09,0,0,0,.485-.2.523.523,0,0,0,.162-.5c-.01-.174-.022-.354.227-.407.377-.081.456-.529.457-.534a.049.049,0,0,1,.1.016.766.766,0,0,1-.534.615c-.159.034-.16.118-.149.3a.618.618,0,0,1-.2.585,1.168,1.168,0,0,1-.527.221c-.255.058-.423.1-.412.415.008.251.225.387.416.507.141.089.263.166.266.279,0,.08-.056.159-.182.247a3.164,3.164,0,0,1-.489.27c-.351.167-.563.268-.457.67a.05.05,0,0,1-.035.061h-.013" transform="translate(-233.02 -83.503)" fill="#373f51"/>
        <path id="Trazado_774596" data-name="Trazado 774596" d="M459.137,164.9a.05.05,0,0,1-.049-.044c-.047-.427.293-.753.566-1.015.2-.189.368-.353.348-.5-.012-.087-.1-.17-.256-.255a1.037,1.037,0,0,1-.571-.633.921.921,0,0,1,.111-.68.049.049,0,0,1,.068-.015.049.049,0,0,1,.015.068.835.835,0,0,0-.1.6.945.945,0,0,0,.521.569c.19.1.291.208.308.328.027.193-.16.372-.377.581-.271.26-.578.555-.536.933a.049.049,0,0,1-.044.054h-.006" transform="translate(-243.786 -85.898)" fill="#373f51"/>
        <path id="Trazado_774597" data-name="Trazado 774597" d="M487.48,169.076l-6.439,4.559a3.857,3.857,0,0,1-5.588.047,4.2,4.2,0,0,1-.131-5.787l3.906-4.176c2.7-2.8,5.294-4.33,7.835-1.776,3.588,3.6,1.873,5.574.416,7.133" transform="translate(-251.829 -85.305)" fill="#ffb27d"/>
        <path id="Trazado_774598" data-name="Trazado 774598" d="M461.193,299.551a43.958,43.958,0,0,1-22.18,9.053,202.95,202.95,0,0,1-26.469,1.565c-.715-15.582-1.471-31.8-1.43-34.375,0-.135.014-.283.014-.418.054-3.737.094-7.042.135-9.376.027-1.43.04-2.5.054-3.09a1.955,1.955,0,0,1,.013-.3V262.4c.122-.81.823-1.43,2.051-1.822a14.057,14.057,0,0,1,4.358-.459,48.5,48.5,0,0,1,9.848,1.511,23.8,23.8,0,0,0,10.766-.121c2.954-.648,5.518-1.619,7.6-2.159.05,0,2.067-.686,2.833.041a7.328,7.328,0,0,1,.728,1.646c.364,1.039.837,2.5,1.376,4.25.337,1.106.715,2.348,1.093,3.656.054.162.108.337.148.5.823,2.806,5.14,17.066,9.066,30.112" transform="translate(-218.312 -137.565)" fill="#373f51"/>
        <path id="Trazado_774599" data-name="Trazado 774599" d="M480.218,180.137a9.284,9.284,0,0,0,2.658-1.6c.744-.828-1.942-3.555-2.828-3.214s-2.176,1.551-1.963,2.474,1.554,2.6,2.133,2.342" transform="translate(-253.864 -93.085)" fill="#f4a338"/>
        <path id="Trazado_774600" data-name="Trazado 774600" d="M482.674,148.739l-5.727,5.478a3.845,3.845,0,0,1-5.512.876,4.209,4.209,0,0,1-.93-5.72l3.279-4.722c2.275-3.177,4.628-5.08,7.491-2.925,4.042,3.043,2.622,5.251,1.4,7.013" transform="translate(-249.462 -74.773)" fill="#ffb27d"/>
        <path id="Trazado_774601" data-name="Trazado 774601" d="M476.324,163.725a9.386,9.386,0,0,0,2.4-1.983c.62-.932-2.409-3.238-3.238-2.768s-1.934,1.861-1.6,2.745,1.894,2.347,2.431,2.006" transform="translate(-251.617 -84.386)" fill="#f4a338"/>
        <path id="Trazado_774602" data-name="Trazado 774602" d="M486.953,192.635l-5.964,2.849a3.27,3.27,0,0,1-4.654-.762,3.5,3.5,0,0,1,.666-4.807l3.807-2.895c2.617-1.93,4.982-2.823,6.753-.346,2.5,3.5.812,4.881-.608,5.961" transform="translate(-252.594 -98.326)" fill="#ffb27d"/>
        <path id="Trazado_774603" data-name="Trazado 774603" d="M480.626,197.719a7.745,7.745,0,0,0,2.424-.944c.73-.579-1.138-3.22-1.921-3.065s-2.017.971-1.964,1.765.944,2.373,1.46,2.244" transform="translate(-254.449 -102.862)" fill="#f4a338"/>
        <path id="Trazado_774604" data-name="Trazado 774604" d="M478.941,166.365h-.049a.254.254,0,1,1,.013-.507c.984.029,2.476-.936,4.31-2.779a34.066,34.066,0,0,0,2.537-2.879.254.254,0,0,1,.4.309,34.833,34.833,0,0,1-2.58,2.927c-1.935,1.943-3.494,2.929-4.634,2.929" transform="translate(-254.173 -85.018)" fill="#f59a6d"/>
        <path id="Trazado_774605" data-name="Trazado 774605" d="M483.567,187.914c-.041,0-.081,0-.12,0a.254.254,0,0,1,.041-.506c1.16.1,3.383-1.8,4.142-2.536a.254.254,0,1,1,.354.364c-.115.112-2.776,2.683-4.417,2.683" transform="translate(-256.6 -98.131)" fill="#f59a6d"/>
        <path id="Trazado_774606" data-name="Trazado 774606" d="M481.5,245.081a.273.273,0,0,0,.052-.009A8.047,8.047,0,0,0,486.1,242.2a4.993,4.993,0,0,0,.919-1.944.308.308,0,0,0-.239-.355.29.29,0,0,0-.34.242,4.513,4.513,0,0,1-.832,1.714,7.5,7.5,0,0,1-4.216,2.632.306.306,0,0,0,.105.6" transform="translate(-255.519 -127.389)" fill="#f59a6d"/>
        <path id="Trazado_774607" data-name="Trazado 774607" d="M480.928,204.182a3.327,3.327,0,0,1-1.82-.47.254.254,0,0,1,.29-.416,3.205,3.205,0,0,0,2.38.288c1.564-.325,7.219-3.734,7.276-3.768a.254.254,0,1,1,.262.434c-.235.142-5.786,3.488-7.435,3.831a4.724,4.724,0,0,1-.955.1" transform="translate(-254.362 -106.088)" fill="#f59a6d"/>
        <path id="Trazado_774608" data-name="Trazado 774608" d="M409.646,145.61a4.451,4.451,0,0,1-2.213.459,39.628,39.628,0,0,1,.971-6.084.4.4,0,0,1,.135-.121c.513.108.971.31,1.039.769,0,0,.85,4.371.068,4.978" transform="translate(-216.358 -74.271)" fill="#f4a338"/>
        <path id="Trazado_774609" data-name="Trazado 774609" d="M155.108,59.508l.169-4.388a.878.878,0,0,0-.6-.853l-2.046-.69a3.3,3.3,0,0,1-1.924-1.672,3.112,3.112,0,0,1-.163-2.4l2.665-7.821a3.254,3.254,0,0,1,4.143-1.966l8.079,2.726a3.3,3.3,0,0,1,1.924,1.672,3.112,3.112,0,0,1,.163,2.4l-2.665,7.821a3.254,3.254,0,0,1-4.143,1.966l-1.949-.658a.877.877,0,0,0-.989.3Zm1.163-19.815a3.063,3.063,0,0,0-2.921,2.042l-2.665,7.821a2.965,2.965,0,0,0,.155,2.282,3.153,3.153,0,0,0,1.837,1.6l2.046.69a1.028,1.028,0,0,1,.7,1l-.151,3.9,2.373-3.178a1.026,1.026,0,0,1,1.157-.349l1.949.657a3.1,3.1,0,0,0,3.952-1.872l2.665-7.821a2.964,2.964,0,0,0-.156-2.282,3.151,3.151,0,0,0-1.837-1.6L157.3,39.864a3.222,3.222,0,0,0-1.031-.17" transform="translate(-79.854 -20.999)" fill="#373f51"/>
        <path id="Trazado_774610" data-name="Trazado 774610" d="M168.4,50.518c-1.148-2.176-3.254-1.259-4.219-.677a.541.541,0,0,1-.757-.216,5.022,5.022,0,0,0-.744-1.053,2.563,2.563,0,0,0-3.763-.231c-1.315,1.126-.061,3.77,1.17,5.633a15.841,15.841,0,0,0,1.9,2.29,1.263,1.263,0,0,0,1.6.165c.445-.3,1.37-.93,2.055-1.387,1.925-1.287,3.619-2.894,2.759-4.523" transform="translate(-84.092 -25.289)" fill="#f4a338"/>
        <path id="Trazado_774611" data-name="Trazado 774611" d="M217.054,101.64,213.136,96.6a1.269,1.269,0,0,0-1.467-.378l-2.92,1.162a4.782,4.782,0,0,1-3.7-.045,4.507,4.507,0,0,1-2.424-2.511l-4.355-11.206a4.764,4.764,0,0,1,2.765-6.092l11.531-4.588.04.1-.04-.1a4.783,4.783,0,0,1,3.7.044,4.507,4.507,0,0,1,2.424,2.511l4.355,11.206A4.764,4.764,0,0,1,220.28,92.8L217.5,93.9a1.285,1.285,0,0,0-.822,1.262Zm-4.9-5.728a1.466,1.466,0,0,1,1.159.556l3.485,4.482-.337-5.77a1.5,1.5,0,0,1,.96-1.479l2.781-1.107a4.544,4.544,0,0,0,2.642-5.809l-4.355-11.207a4.292,4.292,0,0,0-2.307-2.39,4.567,4.567,0,0,0-3.536-.041l-11.53,4.588a4.544,4.544,0,0,0-2.642,5.809l4.355,11.207a4.29,4.29,0,0,0,2.307,2.389,4.564,4.564,0,0,0,3.536.042l2.92-1.162a1.521,1.521,0,0,1,.562-.108" transform="translate(-105.122 -38.549)" fill="#373f51"/>
        <path id="Trazado_774612" data-name="Trazado 774612" d="M223.687,98.233l-1.136.165a.578.578,0,0,1-.658-.621l.914-11.186a.579.579,0,0,1,.4-.506l.5-.158a.578.578,0,0,1,.75.568l-.279,11.179a.579.579,0,0,1-.495.559" transform="translate(-117.83 -45.615)" fill="#f4a338"/>
        <path id="Trazado_774613" data-name="Trazado 774613" d="M212.126,92.769a3.077,3.077,0,0,0-1.333,3.756,2.451,2.451,0,0,0,3.392,1.1c1.3-.637,2.243-2.245,1.609-3.549a2.567,2.567,0,0,0-3.667-1.3m1.463,3.507c-.534.262-1.091-.266-1.352-.8a.971.971,0,0,1,.566-1.314,1.073,1.073,0,0,1,1.438.5,1.368,1.368,0,0,1-.652,1.62" transform="translate(-111.813 -49.068)" fill="#f4a338"/>
        <path id="Trazado_774614" data-name="Trazado 774614" d="M229.879,95.767a3.076,3.076,0,0,0-1.333,3.756,2.451,2.451,0,0,0,3.392,1.1c1.3-.637,2.243-2.245,1.609-3.549a2.567,2.567,0,0,0-3.667-1.3m1.463,3.506c-.534.262-1.091-.266-1.352-.8a.971.971,0,0,1,.566-1.314,1.073,1.073,0,0,1,1.438.5,1.368,1.368,0,0,1-.652,1.62" transform="translate(-121.24 -50.66)" fill="#f4a338"/>
        <path id="Trazado_774615" data-name="Trazado 774615" d="M395.14,78.445l.28-4.958a.992.992,0,0,0-.665-.976l-2.3-.822a3.736,3.736,0,0,1-2.142-1.929,3.522,3.522,0,0,1-.136-2.714l3.171-8.788a3.68,3.68,0,0,1,4.724-2.14l9.08,3.246a3.735,3.735,0,0,1,2.141,1.93,3.52,3.52,0,0,1,.136,2.713L406.26,72.8a3.679,3.679,0,0,1-4.724,2.139l-2.191-.783a.991.991,0,0,0-1.123.315Zm1.649-22.38a3.461,3.461,0,0,0-3.28,2.251L390.339,67.1a3.354,3.354,0,0,0,.13,2.584,3.567,3.567,0,0,0,2.045,1.842l2.3.823a1.162,1.162,0,0,1,.777,1.145l-.249,4.412,2.746-3.545a1.16,1.16,0,0,1,1.315-.371l2.19.783a3.508,3.508,0,0,0,4.506-2.037l3.171-8.788a3.351,3.351,0,0,0-.129-2.584,3.568,3.568,0,0,0-2.045-1.842l-9.079-3.246a3.632,3.632,0,0,0-1.227-.214" transform="translate(-207.085 -29.681)" fill="#373f51"/>
        <path id="Trazado_774616" data-name="Trazado 774616" d="M403.738,75.906l-.748-.488a.452.452,0,0,1-.068-.7l6.24-6.068a.447.447,0,0,1,.493-.089l.373.165a.452.452,0,0,1,.149.718l-5.865,6.39a.447.447,0,0,1-.574.073" transform="translate(-213.89 -36.387)" fill="#5573c6"/>
        <path id="Trazado_774617" data-name="Trazado 774617" d="M404.472,67.036a2.375,2.375,0,0,0-2.7,1.51,1.916,1.916,0,0,0,1.423,2.385,2.213,2.213,0,0,0,2.751-1.247,2.007,2.007,0,0,0-1.478-2.648m-.934,2.8c-.446-.121-.5-.716-.381-1.163a.75.75,0,0,1,1-.478.84.84,0,0,1,.588,1.03,1.056,1.056,0,0,1-1.207.611" transform="translate(-213.316 -35.578)" fill="#5573c6"/>
        <path id="Trazado_774618" data-name="Trazado 774618" d="M413.318,77.915a2.375,2.375,0,0,0-2.7,1.51,1.915,1.915,0,0,0,1.423,2.384,2.212,2.212,0,0,0,2.751-1.247,2.006,2.006,0,0,0-1.478-2.647m-.934,2.8c-.445-.121-.5-.717-.381-1.164a.75.75,0,0,1,1-.478.84.84,0,0,1,.588,1.03,1.056,1.056,0,0,1-1.207.612" transform="translate(-218.014 -41.355)" fill="#5573c6"/>
        <path id="Trazado_774619" data-name="Trazado 774619" d="M67.8,62.275a.267.267,0,0,1-.212-.1L58.823,50.988a.268.268,0,0,1,.422-.331l8.762,11.185a.268.268,0,0,1-.211.433" transform="translate(-31.206 -26.846)" fill="#f4a338"/>
        <path id="Trazado_774620" data-name="Trazado 774620" d="M327.743,68.334a.281.281,0,0,0,.048.012.269.269,0,0,0,.306-.225l2.671-17.543a.268.268,0,0,0-.53-.081L327.567,68.04a.268.268,0,0,0,.176.294" transform="translate(-173.945 -26.694)" fill="#f4a338"/>
        <path id="Trazado_774621" data-name="Trazado 774621" d="M312.171,78.676a.268.268,0,0,0,.366-.309l-2.07-8.617a.268.268,0,1,0-.522.125l2.07,8.617a.269.269,0,0,0,.155.184" transform="translate(-164.586 -36.93)" fill="#f4a338"/>
        <path id="Trazado_774622" data-name="Trazado 774622" d="M297.361,88.6a.268.268,0,0,1-.227-.126L293.1,82.049a.268.268,0,1,1,.454-.285l4.032,6.427a.268.268,0,0,1-.085.37.263.263,0,0,1-.142.041" transform="translate(-155.623 -43.352)" fill="#f4a338"/>
        <path id="Trazado_774623" data-name="Trazado 774623" d="M455.757,77.558a.273.273,0,0,1-.094-.017.269.269,0,0,1-.158-.345l5.879-15.725a.268.268,0,1,1,.5.188l-5.879,15.725a.268.268,0,0,1-.251.174" transform="translate(-241.877 -32.55)" fill="#f4a338"/>
        <path id="Trazado_774624" data-name="Trazado 774624" d="M314.463,147.445s-2.229-4.286-6.436-2.7-1.525,7.377,2.2,10.027,4.656,3.681,5.507,3.514,12.79-9.306,8.97-15.172c-2.741-4.209-8.131-2.39-10.238,4.333" transform="translate(-162.436 -74.799)" fill="#f4a338"/>
        <path id="Trazado_774625" data-name="Trazado 774625" d="M339.318,146.558a.173.173,0,0,1-.093.033.179.179,0,0,1-.19-.167,2.1,2.1,0,0,0-1.412-1.944,3.755,3.755,0,0,0-1.333-.252.179.179,0,1,1-.011-.358,4.063,4.063,0,0,1,1.477.278,2.465,2.465,0,0,1,1.636,2.253.179.179,0,0,1-.074.157" transform="translate(-178.481 -76.398)" fill="#deebe9"/>
        <path id="Trazado_774626" data-name="Trazado 774626" d="M333.64,88.038a6.992,6.992,0,0,0,.344,1.808,14.211,14.211,0,0,0,.524,1.387,9.14,9.14,0,0,0,5.78,5.355,14.169,14.169,0,0,0,4.3.6,14.966,14.966,0,0,0,5.5-1.1q.307-.126.6-.266a9.625,9.625,0,0,0,2.255-1.446,4.564,4.564,0,0,0,1.546-5.111c-1.253-3.8-5.521-7.622-10.364-7.622-6.625,0-10.675,2.394-10.484,6.4" transform="translate(-177.168 -43.352)" fill="#4adbd1"/>
        <path id="Trazado_774627" data-name="Trazado 774627" d="M339.315,108.029a7.7,7.7,0,0,0-1.214,5.509,6.3,6.3,0,0,1,3.117-4.066,3.717,3.717,0,0,0-1.9-1.443" transform="translate(-179.49 -57.366)" fill="#4adbd1"/>
        <path id="Trazado_774628" data-name="Trazado 774628" d="M337.018,100.312l-.038-.184a7.175,7.175,0,0,1-.086-1.616,7.632,7.632,0,0,1,.991-3.437,10.3,10.3,0,0,1-2.173-3.228,14.377,14.377,0,0,1-.526-1.391,7.05,7.05,0,0,1-.346-1.82,4.8,4.8,0,0,1,1.356-3.674,8.225,8.225,0,0,1,3.627-2.056,19.244,19.244,0,0,1,5.548-.718,9.844,9.844,0,0,1,3.5.66,11.7,11.7,0,0,1,3.054,1.737,11.569,11.569,0,0,1,3.851,5.256A4.6,4.6,0,0,1,354.219,95a9.632,9.632,0,0,1-2.266,1.453c-.193.092-.4.182-.6.267a15.064,15.064,0,0,1-5.517,1.105,14.078,14.078,0,0,1-4.312-.6,9.639,9.639,0,0,1-1.887-.825,6.662,6.662,0,0,0-2.564,3.729ZM345.37,82.28c-4.185,0-7.42.975-9.108,2.745a4.714,4.714,0,0,0-1.33,3.606,6.989,6.989,0,0,0,.342,1.8,14.265,14.265,0,0,0,.523,1.383,10.189,10.189,0,0,0,2.179,3.225l.026.025-.019.031a7.8,7.8,0,0,0-.944,4.821,6.694,6.694,0,0,1,2.566-3.6l.024-.016.025.015a9.53,9.53,0,0,0,1.893.832,14,14,0,0,0,4.284.594,14.973,14.973,0,0,0,5.481-1.1c.206-.084.408-.174.6-.265a9.534,9.534,0,0,0,2.244-1.439,4.516,4.516,0,0,0,1.533-5.061c-1.232-3.731-5.429-7.59-10.32-7.59" transform="translate(-177.805 -43.644)" fill="#687478"/>
        <path id="Trazado_774629" data-name="Trazado 774629" d="M345.907,96.667V92.4h.583v3.745h1.929v.524Z" transform="translate(-183.686 -49.066)" fill="#fff"/>
        <path id="Trazado_774630" data-name="Trazado 774630" d="M352.344,96.631V93.977h-.429V93.51h.982v3.121Zm.3-4.3a.342.342,0,1,1,0,.685.326.326,0,0,1-.24-.1.341.341,0,0,1,.24-.584" transform="translate(-186.877 -49.03)" fill="#fff"/>
        <path id="Trazado_774631" data-name="Trazado 774631" d="M357.9,96.518l-.979-1.562-.484.5v1.064h-.554v-4.4h.554v2.731l1.194-1.451h.647l-1,1.186,1.221,1.935Z" transform="translate(-188.985 -48.917)" fill="#fff"/>
        <path id="Trazado_774632" data-name="Trazado 774632" d="M364.7,96.394h-2.25a1.126,1.126,0,0,0,.3.842.939.939,0,0,0,.681.257,1.165,1.165,0,0,0,.793-.277l.233.4a1.04,1.04,0,0,1-.393.221,2.127,2.127,0,0,1-.74.122,1.38,1.38,0,0,1-1-.4,1.566,1.566,0,0,1-.457-1.183,1.668,1.668,0,0,1,.469-1.239,1.364,1.364,0,0,1,.994-.416,1.421,1.421,0,0,1,1.046.376,1.286,1.286,0,0,1,.367.959,1.236,1.236,0,0,1-.044.338m-1.344-1.206a.875.875,0,0,0-.892.8H364.2a.788.788,0,0,0-.21-.559.819.819,0,0,0-.627-.245" transform="translate(-192.163 -50.3)" fill="#fff"/>
        <path id="Trazado_774633" data-name="Trazado 774633" d="M447.121,208.078c-.4-2.252.025-4.565,3.093-5.379a4.534,4.534,0,0,1,5.4,3c.658,2.485-.182,4.5-3.314,5.334-2.211.586-4.731-.422-5.177-2.95" transform="translate(-237.367 -107.567)" fill="#f4a338"/>
        <path id="Trazado_774634" data-name="Trazado 774634" d="M455.753,206.275a.3.3,0,0,0-.184-.38,3.891,3.891,0,0,0-1.95-.26c-.826.219-2.536,3.781-2.587,4.351s1.3,1.854,1.595,1.725A3.253,3.253,0,0,0,453.639,210c-.082-.307-1.193-.493-1.165-.677s1.141-2.274,1.4-2.266.489.795.853.741c.288-.042.855-1.008,1.029-1.526" transform="translate(-239.509 -109.171)" fill="#deebe9"/>
      </g>
    </g>
  </g>
</svg>
