<svg xmlns="http://www.w3.org/2000/svg" xmlns:xlink="http://www.w3.org/1999/xlink" width="46.454" height="53.753" viewBox="0 0 46.454 53.753">
  <defs>
    <linearGradient id="linear-gradient" x1="0.5" x2="0.5" y2="1" gradientUnits="objectBoundingBox">
      <stop offset="0" stop-color="#568cfd"/>
      <stop offset="1" stop-color="#1a0f91"/>
    </linearGradient>
  </defs>
  <g id="Grupo_1192" data-name="Grupo 1192" transform="translate(0.5)">
    <path id="Trazado_722" data-name="Trazado 722" d="M1496.692,662.327h-22.658a4.432,4.432,0,0,0-4.4,4.454v44.844a4.432,4.432,0,0,0,4.4,4.454h31.638a4.432,4.432,0,0,0,4.4-4.454V675.873Zm10.907,49.3a1.942,1.942,0,0,1-1.928,1.952h-31.638a1.942,1.942,0,0,1-1.928-1.952V666.781a1.942,1.942,0,0,1,1.928-1.952h21.634l.012.012V676.9h11.911l.008.008Z" transform="translate(-1464.117 -662.327)" fill="#fff"/>
    <path id="Trazado_723" data-name="Trazado 723" d="M1459.213,950.207a1.715,1.715,0,0,1-1.653,1.762h-36.373a1.715,1.715,0,0,1-1.653-1.762V932.589a1.715,1.715,0,0,1,1.653-1.762h36.373a1.715,1.715,0,0,1,1.653,1.762Z" transform="translate(-1419.534 -906.092)" stroke="#fff" stroke-width="1" fill="url(#linear-gradient)"/>
    <path id="Trazado_781278" data-name="Trazado 781278" d="M-15.275,0h4.3c3.016,0,5.083-1.755,5.083-4.55S-7.956-9.1-10.972-9.1h-4.3ZM-12.7-2.054V-7.046h1.625a2.366,2.366,0,0,1,2.587,2.5,2.366,2.366,0,0,1-2.587,2.5ZM.572.182A4.759,4.759,0,0,0,5.629-4.55,4.759,4.759,0,0,0,.572-9.282,4.759,4.759,0,0,0-4.485-4.55,4.759,4.759,0,0,0,.572.182Zm0-2.132a2.437,2.437,0,0,1-2.457-2.6A2.437,2.437,0,0,1,.572-7.15a2.437,2.437,0,0,1,2.457,2.6A2.437,2.437,0,0,1,.572-1.95ZM12.038.182a4.813,4.813,0,0,0,3.913-1.716L14.313-3.016A2.69,2.69,0,0,1,12.168-1.95a2.44,2.44,0,0,1-2.535-2.6,2.44,2.44,0,0,1,2.535-2.6,2.69,2.69,0,0,1,2.145,1.066l1.638-1.482a4.813,4.813,0,0,0-3.913-1.716A4.706,4.706,0,0,0,7.033-4.55,4.706,4.706,0,0,0,12.038.182Z" transform="translate(18.151 39.887)" fill="#f8f8f8"/>
  </g>
</svg>
