<svg id="Grupo_1029765" data-name="Grupo 1029765" xmlns="http://www.w3.org/2000/svg" xmlns:xlink="http://www.w3.org/1999/xlink" width="250.825" height="155.607" viewBox="0 0 250.825 155.607">
  <defs>
    <clipPath id="clip-path">
      <rect id="Rectángulo_364463" data-name="Rectángulo 364463" width="250.825" height="155.607" fill="none"/>
    </clipPath>
    <clipPath id="clip-path-3">
      <rect id="Rectángulo_364448" data-name="Rectángulo 364448" width="238.773" height="23.473" fill="none"/>
    </clipPath>
    <clipPath id="clip-path-5">
      <rect id="Rectángulo_364461" data-name="Rectángulo 364461" width="3.931" height="4.568" fill="none"/>
    </clipPath>
  </defs>
  <g id="Grupo_1029764" data-name="Grupo 1029764" clip-path="url(#clip-path)">
    <g id="Grupo_1029758" data-name="Grupo 1029758">
      <g id="Grupo_1029757" data-name="Grupo 1029757" clip-path="url(#clip-path)">
        <g id="Grupo_1029756" data-name="Grupo 1029756" transform="translate(10.191 132.134)" opacity="0.08">
          <g id="Grupo_1029755" data-name="Grupo 1029755">
            <g id="Grupo_1029754" data-name="Grupo 1029754" clip-path="url(#clip-path-3)">
              <path id="Trazado_774848" data-name="Trazado 774848" d="M73.378,156.614c-11.211.135-21.46,1.319-32.539,1.637-5.6.161-23.989-.28-27.541,2.86-5.6,4.954,9.215,4.65,7.7,8.395-.3.743-1.431,1.253-2.12,1.9-1.237,1.162-.919,2.745.386,3.879,5.718,4.972,26.629,3.526,35.413,3.61,50.825.487,101.787,1.066,152.329-.576,10.9-.354,21.738-.8,32.591-1.219,4.967-.191,11.184-.688,11.2-1.8.049-2.821-9.4.14-6.274-5.49,1-1.808,6.193-2.168,3.562-5.267-2.893-3.407-9.576-6.038-15.752-6.9-6.309-.88-12.8-.741-19.213-1.021-11.777-.513-23.607-.611-35.42-.657-26.8-.1-53.6.07-80.393.34-7.974.08-15.953.215-23.931.311" transform="translate(-12.027 -155.933)"/>
            </g>
          </g>
        </g>
      </g>
    </g>
    <rect id="Rectángulo_364450" data-name="Rectángulo 364450" width="1.146" height="35.113" transform="translate(9.596 46.349) rotate(-87.398)" fill="#9ea6ad"/>
    <rect id="Rectángulo_364451" data-name="Rectángulo 364451" width="1.146" height="42.416" transform="matrix(0.8, -0.6, 0.6, 0.8, 18.773, 13.794)" fill="#9ea6ad"/>
    <path id="Trazado_774849" data-name="Trazado 774849" d="M174.252,82.9l.154-2.651,1.135-.057.3,1.813.541-.275L175.971,84l-1.183.218Z" transform="translate(-26.596 -12.24)" fill="#eac5b0"/>
    <path id="Trazado_774850" data-name="Trazado 774850" d="M189.047,93.851l-8.413-.738-4.144-9.934-2.289.748,2.17,13.74,13.141,2.389Z" transform="translate(-26.588 -12.696)" fill="#1a3151"/>
    <path id="Trazado_774851" data-name="Trazado 774851" d="M49.275,76.825l-.385-2.637-1.141.042-.138,1.838-.565-.229.606,2.235,1.2.115Z" transform="translate(-7.181 -11.323)" fill="#b99a6f"/>
    <path id="Trazado_774852" data-name="Trazado 774852" d="M30.229,90.256l12.112-2.364,2.107-10.57,2.354.549-.673,14.681L34.042,96.587Z" transform="translate(-4.614 -11.802)" fill="#373f51"/>
    <g id="Grupo_1029763" data-name="Grupo 1029763">
      <g id="Grupo_1029762" data-name="Grupo 1029762" clip-path="url(#clip-path)">
        <path id="Trazado_774853" data-name="Trazado 774853" d="M89.2,171.3a1,1,0,0,0-.9-.387,1.022,1.022,0,0,0-.759.572,1.922,1.922,0,0,0-.13.651c-.095,1.146-.086,3.867,1.441,4.259a1.137,1.137,0,0,0,1.344-.867A6.028,6.028,0,0,0,89.2,171.3" transform="translate(-13.335 -26.085)" fill="#1a3151"/>
        <path id="Trazado_774854" data-name="Trazado 774854" d="M89.339,150.966l-.08,6.991c.092,3.106-.392,6.228-.3,9.334a7.862,7.862,0,0,1,.027,2.175c-.175.692-.738.814-1.316.464-.774-.469-.649-1.566-.778-2.367-.353-2.2-.769-4.388-1.139-6.584-.18-1.077.192-2.586.111-3.676l-1.129-5.859Z" transform="translate(-12.933 -23.042)" fill="#eac5b0"/>
        <path id="Trazado_774855" data-name="Trazado 774855" d="M80.741,135.919l3.043,13.516.647,12.764,4.824-.108,1.312-35.7-9.352.17Z" transform="translate(-12.323 -19.29)" fill="#1a3151"/>
        <path id="Trazado_774856" data-name="Trazado 774856" d="M97.354,171.007a.981.981,0,0,0-.918-.335,1.045,1.045,0,0,0-.732.618,1.967,1.967,0,0,0-.1.658c-.046,1.153.08,3.876,1.618,4.178a1.156,1.156,0,0,0,1.3-.947,5.989,5.989,0,0,0-1.169-4.172" transform="translate(-14.591 -26.047)" fill="#1a3151"/>
        <path id="Trazado_774857" data-name="Trazado 774857" d="M94.67,152.124l.409,6.98c.034,1.94.292,3.864.493,5.791.186,1.79-.1,3.653.831,5.281.293.511.886.851,1.3.23.319-.478.13-1.275.192-1.818.25-2.212.561-4.418.827-6.63.13-1.084-.314-2.573-.284-3.666l.852-5.905Z" transform="translate(-14.449 -23.219)" fill="#eac5b0"/>
        <path id="Trazado_774858" data-name="Trazado 774858" d="M100.105,135.139l.392,13.12-2.058,13.268-4.908.147.216-14.359-2.6-11.908-.872-7.794,7.787-.919Z" transform="translate(-13.779 -19.337)" fill="#1a3151"/>
        <path id="Trazado_774859" data-name="Trazado 774859" d="M92.218,94.97l-8.39-.2-4.864,9.046,1.729,8.474L81,122.43l11.967.163,3.938-.639-1.045-10.834.6-14.473Z" transform="translate(-12.052 -14.465)" fill="#e6b046"/>
        <path id="Trazado_774860" data-name="Trazado 774860" d="M81.318,122.593l-.386,1.4,1.965,1.6,1.526-.688.4-1.646-1.2-.464.051-.375-.327-.419Z" transform="translate(-12.353 -18.622)" fill="#eac5b0"/>
        <path id="Trazado_774861" data-name="Trazado 774861" d="M82.593,95.149,72.344,106.394l-1.54,4.55,8.376,8.784,2.541-1.709-5.372-7.348,5.127-3.8Z" transform="translate(-10.807 -14.522)" fill="#e6b046"/>
        <path id="Trazado_774862" data-name="Trazado 774862" d="M94.231,100.789l4.37,8.736,4.711.936,9.084-7.677-2.024-2.3-8.05,4.51-4.268-8.014Z" transform="translate(-14.382 -14.803)" fill="#abadb2"/>
        <path id="Trazado_774863" data-name="Trazado 774863" d="M92.677,86.316c-1.265-3.677-6.119-2.3-7.12.975a4.8,4.8,0,0,0,3.209,5.521,2,2,0,0,1,.018.229,7.2,7.2,0,0,0,.095,1.024,11.213,11.213,0,0,0,2.171-.287.3.3,0,0,0,.2-.1c.078-.122-.049-.48-.064-.615q-.024-.239-.05-.479a3.821,3.821,0,0,0,1.973-2.823,7.088,7.088,0,0,0-.433-3.446" transform="translate(-13.036 -12.84)" fill="#eac5b0"/>
        <path id="Trazado_774864" data-name="Trazado 774864" d="M90.159,82.7a1.924,1.924,0,0,0-.437.987,1.542,1.542,0,0,0-.039.639c.18.835,1.008.791,1.649,1.06a4.274,4.274,0,0,1,1.913,1.646c.692,1.1.38,2.519.1,3.734-.1.428-.3,1.064.034,1.446a1.427,1.427,0,0,0,1.522.129c.369-.183.673-.52,1.078-.588.43-.072,1.009.117,1.209-.277a2.88,2.88,0,0,1,.13-.344c.237-.339.827.058,1.162-.18a.654.654,0,0,0,.135-.708,1.679,1.679,0,0,1-.138-.752,2.479,2.479,0,0,1,.294-.586,1.15,1.15,0,0,0-.159-1.225c-.528-.612-1.551-.5-2.118-1.071a2.5,2.5,0,0,1-.519-1.141,2.182,2.182,0,0,0-.557-1.118c-.39-.342-.952-.284-1.336-.691a8.02,8.02,0,0,0-.63-.757,5.082,5.082,0,0,0-1.4-.624,1.823,1.823,0,0,0-1.889.419" transform="translate(-13.685 -12.542)"/>
        <path id="Trazado_774865" data-name="Trazado 774865" d="M85.054,88.168c-.023,1.21.579,2.518.021,3.584s-1.965,1.269-3.161,1.324c-.2.009-2.719.227-2.73.18a8.212,8.212,0,0,0-.824-2.443,2.69,2.69,0,0,0-2.021-1.407c.243-.042.366-.34.338-.591a3.951,3.951,0,0,0-.234-.719,1.7,1.7,0,0,1,.442-1.7c.893-.832,2.511-.486,3.276-1.441.474-.593.418-1.452.666-2.175.48-1.4,2.012-1.691,3.156-2.323a5.481,5.481,0,0,1,3.739-.8,2.841,2.841,0,0,1,2.346,3.7c-.855,2.124-4.273,1.94-4.913,4.1a2.651,2.651,0,0,0-.1.712" transform="translate(-11.652 -12.147)"/>
        <path id="Trazado_774866" data-name="Trazado 774866" d="M87.633,94.922l2.6,3.678,1.224-.1,2.04-3.731Z" transform="translate(-13.375 -14.465)" fill="#b5d6ca"/>
        <rect id="Rectángulo_364452" data-name="Rectángulo 364452" width="1.146" height="42.476" transform="translate(178.061 13.855) rotate(-82.409)" fill="#9ea6ad"/>
        <rect id="Rectángulo_364453" data-name="Rectángulo 364453" width="1.146" height="60.575" transform="matrix(0.684, -0.729, 0.729, 0.684, 37.215, 51.947)" fill="#9ea6ad"/>
        <rect id="Rectángulo_364454" data-name="Rectángulo 364454" width="1.146" height="65.878" transform="matrix(0.561, -0.828, 0.828, 0.561, 178.19, 16.567)" fill="#9ea6ad"/>
        <path id="Trazado_774867" data-name="Trazado 774867" d="M40.392,124.955c-.2-2.069-.409-4.139-.663-6.2a76.5,76.5,0,0,0-2.369-12.207c-.447-1.522-.962-3.023-1.477-4.523Q34.94,99.281,34,96.541a6.855,6.855,0,0,0-4.4-4.665,8.527,8.527,0,0,0-1.291-.331c-.01.047-.02.094-.026.144a1.181,1.181,0,0,1-.227.619l1.513.014s4.267,14.913,4.424,17.484c.059.977.258,3.11.479,5.357l2.317.341.1,8.595q.194.056.386.107a6.681,6.681,0,0,1,1.945,1.152c.9.621,1.3.867,1.174-.4" transform="translate(-4.282 -13.972)" fill="#373f51"/>
        <path id="Trazado_774868" data-name="Trazado 774868" d="M19.948,114.936a37.849,37.849,0,0,0,.782-5.088c.091-3.16.495-13.6.495-13.6l1.962-3.992.362,0-.078-.009a2.721,2.721,0,0,0-.031-.871c-3.42.206-6.926,2-7.907,5.329a4.188,4.188,0,0,0-.167.84c-.136,1.711.386,2.975-.108,4.693-.429,1.493-.818,3.008-1.1,4.536-.413,2.212-.794,4.412-1.095,6.608a67.842,67.842,0,0,0-.635,7.265c-.008.267-.061,1.012-.092,1.9-.063,1.864-.022,4.358.763,4.451a.771.771,0,0,0,.418-.11,27.659,27.659,0,0,0,2.7-1.69l.048-9.725Z" transform="translate(-1.879 -13.948)" fill="#373f51"/>
        <path id="Trazado_774869" data-name="Trazado 774869" d="M30.714,128.435l-.513.039-1.66,15.953,1.785,23.2h.017v-.35h2.977L37.1,141.442l-.136-11.716c-1.8-.519-3.761-1.319-5.645-1.3-.2,0-.4.007-.6.012" transform="translate(-4.356 -19.601)" fill="#9ea6ad"/>
        <path id="Trazado_774870" data-name="Trazado 774870" d="M34.934,119.416c.349,3.556.754,7.4.754,7.4s-1.874.044-4.584.247c.2-.005.4-.01.6-.012,1.885-.017,3.84.784,5.645,1.3l-.1-8.594Z" transform="translate(-4.747 -18.226)" fill="#373f51"/>
        <path id="Trazado_774871" data-name="Trazado 774871" d="M30.667,174.627v1.241l3.183,1.591,1.591-1.591-1.591-1.591h-.206l-.051.35Z" transform="translate(-4.681 -26.6)" fill="#1a3151"/>
        <path id="Trazado_774872" data-name="Trazado 774872" d="M30.667,174.627h2.926l.051-.35H30.667Z" transform="translate(-4.681 -26.6)" fill="#1a3151"/>
        <path id="Trazado_774873" data-name="Trazado 774873" d="M24.26,128.968l-.219.026a26.144,26.144,0,0,1-3.923.606,12.62,12.62,0,0,0-2.22.79,9.512,9.512,0,0,0-.987.551l-.011,2.024,3.614,34.4h2.962v.35h.018L26.75,144.64l.014-.13-.074-.962Z" transform="translate(-2.579 -19.684)" fill="#9ea6ad"/>
        <path id="Trazado_774874" data-name="Trazado 774874" d="M20.118,128.1c-1.292.067-1.453-.172-1.453-.172s1.166-4.683,1.985-8.756l-3.69.543-.047,9.725a9.675,9.675,0,0,1,.987-.551,12.611,12.611,0,0,1,2.219-.79" transform="translate(-2.581 -18.19)" fill="#373f51"/>
        <path id="Trazado_774875" data-name="Trazado 774875" d="M25.586,128.894l2.43,14.581.074.962,1.66-15.953c-1.263.1-2.683.233-4.164.41" transform="translate(-3.905 -19.61)" fill="#9ea6ad"/>
        <path id="Trazado_774876" data-name="Trazado 774876" d="M20.838,174.276h-.219l-1.591,1.591,1.591,1.591,3.182-1.591v-1.241H20.874Z" transform="translate(-2.904 -26.6)" fill="#1a3151"/>
        <path id="Trazado_774877" data-name="Trazado 774877" d="M21.164,174.276l.036.35h2.926v-.35Z" transform="translate(-3.23 -26.6)" fill="#1a3151"/>
        <path id="Trazado_774878" data-name="Trazado 774878" d="M26.811,92.587a.9.9,0,0,1-.387.01l-1.5-.177-.362,0L22.6,96.409s-.4,10.437-.5,13.6a37.679,37.679,0,0,1-.781,5.088l2.175-.32-.16-.965,1.171.172-.081-.137L24.921,94.6,24.6,93.349a.552.552,0,0,1,.535-.688H27.1a.551.551,0,0,1,.439.886l-.8,1.053,2.1,19.387,1.221-.18-.1.974,3.489.514c-.22-2.246-.419-4.379-.479-5.356-.157-2.571-4.424-17.484-4.424-17.484l-1.513-.014a.522.522,0,0,1-.053.053.469.469,0,0,1-.163.093" transform="translate(-3.255 -14.106)" fill="#fff"/>
        <path id="Trazado_774879" data-name="Trazado 774879" d="M30.5,128.477l.513-.039c-.17,0-.34.008-.51.014Z" transform="translate(-4.655 -19.603)" fill="#fff"/>
        <path id="Trazado_774880" data-name="Trazado 774880" d="M30.5,126.982c.17-.006.34-.011.51-.014,2.71-.2,4.583-.247,4.583-.247s-.405-3.842-.754-7.4l-3.489-.514Z" transform="translate(-4.656 -18.134)" fill="#fff"/>
        <path id="Trazado_774881" data-name="Trazado 774881" d="M24.872,117.833,23.7,117.66l.161.965,1.359-.2Z" transform="translate(-3.617 -17.958)" fill="#fff"/>
        <path id="Trazado_774882" data-name="Trazado 774882" d="M23.056,129.108a23.406,23.406,0,0,0-2.36.475,26.159,26.159,0,0,0,3.925-.606l.219-.026-.016-.1q-.886.112-1.768.253" transform="translate(-3.159 -19.667)" fill="#fff"/>
        <path id="Trazado_774883" data-name="Trazado 774883" d="M29.921,118.437l1.343.2.1-.974-1.221.18.037.34Z" transform="translate(-4.567 -17.958)" fill="#fff"/>
        <path id="Trazado_774884" data-name="Trazado 774884" d="M24.562,127.32l-1.42-8.521-2.176.32c-.819,4.073-1.984,8.756-1.984,8.756s.16.24,1.452.172a23.406,23.406,0,0,1,2.36-.475q.881-.141,1.768-.253" transform="translate(-2.897 -18.132)" fill="#fff"/>
        <path id="Trazado_774885" data-name="Trazado 774885" d="M25.567,128.794l.016.095c1.481-.176,2.9-.31,4.164-.41l0-.025c-1.394.05-2.792.165-4.183.34" transform="translate(-3.902 -19.606)" fill="#fff"/>
        <path id="Trazado_774886" data-name="Trazado 774886" d="M29.494,126.944l.851-8.173-1.344-.2-2.371,2.331-1.38-2.342-1.359.2,1.42,8.521c1.391-.175,2.789-.291,4.183-.34" transform="translate(-3.646 -18.096)" fill="#fff"/>
        <path id="Trazado_774887" data-name="Trazado 774887" d="M29.393,114.031l-2.1-19.387.8-1.053a.552.552,0,0,0-.439-.887H25.7a.553.553,0,0,0-.536.689l.319,1.252-.493,19.242.081.137,2.186.322Z" transform="translate(-3.814 -14.149)" fill="#12263f"/>
        <path id="Trazado_774888" data-name="Trazado 774888" d="M27.27,118.186l-2.186-.322.348.592Z" transform="translate(-3.828 -17.989)" fill="#b5d6ca"/>
        <path id="Trazado_774889" data-name="Trazado 774889" d="M29.577,118.469l.261-.257-.037-.34-2.137.315Z" transform="translate(-4.222 -17.991)" fill="#b5d6ca"/>
        <path id="Trazado_774890" data-name="Trazado 774890" d="M25.5,118.515l1.38,2.342,2.371-2.331-1.913-.281Z" transform="translate(-3.891 -18.048)" fill="#12263f"/>
        <path id="Trazado_774891" data-name="Trazado 774891" d="M27.515,90.179c.2-.841,1.125-1.22,1.626-1.967a6.542,6.542,0,0,0,.993-2.836c0-.017,0-.034.007-.051a1.481,1.481,0,0,1-.231.1,2.75,2.75,0,0,1,.18-1.217,1.179,1.179,0,0,0,.02-.314,9.009,9.009,0,0,1-1.973-.622c-1.1-.48-3.241-.991-4.383-.425-.9.448-.626,1.878-.58,2.782a2.474,2.474,0,0,1-.024.695,2.947,2.947,0,0,1-.291.586,2.5,2.5,0,0,0,.535.991c.723.817,1.459,1.219,1.654,2.14a10.427,10.427,0,0,1,2.466.137" transform="translate(-3.489 -12.607)" fill="#b99a6f"/>
        <path id="Trazado_774892" data-name="Trazado 774892" d="M25.474,92.25l.078.009,2.1.02a1.174,1.174,0,0,0,.227-.619,1.327,1.327,0,0,1,.027-.145,10.518,10.518,0,0,0-2.466-.137,2.746,2.746,0,0,1,.031.871" transform="translate(-3.883 -13.944)" fill="#b99a6f"/>
        <path id="Trazado_774893" data-name="Trazado 774893" d="M27.073,92.6a.9.9,0,0,0,.387-.01.479.479,0,0,0,.162-.093.462.462,0,0,0,.053-.054l-2.1-.019,1.5.177" transform="translate(-3.903 -14.106)" fill="#b99a6f"/>
        <path id="Trazado_774894" data-name="Trazado 774894" d="M31.466,84.138a4.357,4.357,0,0,1-.015,1.422,2.5,2.5,0,0,0,1.036-1.376,3.878,3.878,0,0,1-1.021-.046" transform="translate(-4.8 -12.842)" fill="#1a3151"/>
        <path id="Trazado_774895" data-name="Trazado 774895" d="M31.42,84.136l-.045-.008a1.152,1.152,0,0,1-.021.315,2.761,2.761,0,0,0-.18,1.217,1.369,1.369,0,0,0,.23-.1,4.357,4.357,0,0,0,.015-1.422" transform="translate(-4.754 -12.84)" fill="#1a3151"/>
        <path id="Trazado_774896" data-name="Trazado 774896" d="M22.333,82.952a2.735,2.735,0,0,1,.184-1.052A2.3,2.3,0,0,1,24,80.829a5.593,5.593,0,0,1,4.633.509,2.451,2.451,0,0,1,.889.9,1.7,1.7,0,0,1,.079.181,3.694,3.694,0,0,1-.226-1.2.706.706,0,0,1,1.088-.3,1.122,1.122,0,0,1,.419.824,2.358,2.358,0,0,1-.153.945c-.007.022-.015.044-.024.067a2.077,2.077,0,0,0,.613-.154,3.874,3.874,0,0,0,1.713-3.141,1.441,1.441,0,0,0-.634-1.212,2.938,2.938,0,0,1-1.031-.863c-.176-.311-.2-.7-.376-1.009a2.538,2.538,0,0,0-1.6-.924c-1.493-.48-2.3-1.034-3.879-.419-1.124.436-2.578.495-3.621,1.132a3.646,3.646,0,0,0-1.112,1.169,6.6,6.6,0,0,0-.62,5.687,6.983,6.983,0,0,0,.558,1.077,4.33,4.33,0,0,0,1.6,1.844.793.793,0,0,1,.069-.224,8.936,8.936,0,0,1-.058-2.762" transform="translate(-3.018 -11.41)" fill="#1a3151"/>
        <path id="Trazado_774897" data-name="Trazado 774897" d="M23.15,85.477c-.046-.9-.323-2.334.58-2.782,1.141-.567,3.283-.056,4.383.425a9.009,9.009,0,0,0,1.973.622,2.077,2.077,0,0,0-.037-.276,1.8,1.8,0,0,0-.079-.181,2.457,2.457,0,0,0-.889-.9,5.6,5.6,0,0,0-4.634-.51,2.3,2.3,0,0,0-1.485,1.072A2.751,2.751,0,0,0,22.778,84a8.983,8.983,0,0,0,.058,2.762,2.947,2.947,0,0,0,.291-.586,2.474,2.474,0,0,0,.024-.695" transform="translate(-3.464 -12.454)" fill="#1a3151"/>
        <path id="Trazado_774898" data-name="Trazado 774898" d="M32.609,82.825A1.12,1.12,0,0,0,32.19,82a.706.706,0,0,0-1.088.3,3.7,3.7,0,0,0,.226,1.2,1.945,1.945,0,0,1,.083.284,3.842,3.842,0,0,0,1.021.046l.024-.066a2.361,2.361,0,0,0,.153-.945" transform="translate(-4.745 -12.495)" fill="#1a3151"/>
        <path id="Trazado_774899" data-name="Trazado 774899" d="M31.372,83.8a1.947,1.947,0,0,1,.037.276l.046.008a1.945,1.945,0,0,0-.083-.284" transform="translate(-4.788 -12.791)" fill="#1a3151"/>
        <path id="Trazado_774900" data-name="Trazado 774900" d="M257.6,87.208c-.663,1.063-.338,2.421-.045,3.586.12.476.325,1.151-.135,1.506a1.208,1.208,0,0,1-1.63-.485,2.5,2.5,0,0,1-.213-1.155,16.578,16.578,0,0,1,.625-5.849c.538-1.307,2.936-3.172,4.363-1.784a1.847,1.847,0,0,1,.444.945,1.454,1.454,0,0,1,.047.613c-.165.8-.978.766-1.6,1.029a4.113,4.113,0,0,0-1.853,1.593" transform="translate(-39.007 -12.598)" fill="#1a3151"/>
        <path id="Trazado_774901" data-name="Trazado 774901" d="M259.382,92.539a3.708,3.708,0,0,1-1.991-2.7,6.663,6.663,0,0,1,.376-3.312c1.189-3.539,5.971-2.248,7,.889.9,2.734-2.223,6.584-5.385,5.127" transform="translate(-39.273 -12.882)" fill="#eac5b0"/>
        <path id="Trazado_774902" data-name="Trazado 774902" d="M264.362,88.372c-.1.443-.022.969-.1,1.431a12.58,12.58,0,0,0-.6,2.69,5.265,5.265,0,0,0,2.825-.427c.809-.383.969-1.28,1.378-2.091a11.5,11.5,0,0,0,1-2.306,5.967,5.967,0,0,0-6.953-7.466,2.707,2.707,0,0,0-2.249,3.572c.729,1.7,3.253,1.862,4.318,3.292a2.468,2.468,0,0,1,.378,1.306" transform="translate(-39.604 -12.226)" fill="#1a3151"/>
        <path id="Trazado_774903" data-name="Trazado 774903" d="M259.725,93.6l-.1,1c-.016.153-.146.563-.071.7a.266.266,0,0,0,.2.1,9.517,9.517,0,0,0,2.138.244,9.472,9.472,0,0,0,.108-1.162,5.069,5.069,0,0,0,.051-1.13,3.046,3.046,0,0,1-1.15.191q-.581,0-1.159-.028c0,.026-.006.052-.008.078" transform="translate(-39.611 -14.25)" fill="#eac5b0"/>
        <path id="Trazado_774904" data-name="Trazado 774904" d="M242.652,126.816l-1.324-.257L240,128.444l.757,1.337,1.551.257.572-1.907Z" transform="translate(-36.631 -19.317)" fill="#eac5b0"/>
        <path id="Trazado_774905" data-name="Trazado 774905" d="M255.364,98.9l-6.063-.046-1.929,13.515L241.555,122l1.615,1.863,7.693-7.736Z" transform="translate(-36.868 -15.089)" fill="#f4a338"/>
        <path id="Trazado_774906" data-name="Trazado 774906" d="M255.387,172.778a1.139,1.139,0,0,1,.92-.636,1.192,1.192,0,0,1,.993.451,2.173,2.173,0,0,1,.306.684c.387,1.236,1.046,4.225-.574,5.011a1.327,1.327,0,0,1-1.722-.639,6.609,6.609,0,0,1,.076-4.871" transform="translate(-38.902 -26.274)" fill="#1a3151"/>
        <path id="Trazado_774907" data-name="Trazado 774907" d="M257.986,150.421l-.214,7.847c.053,3.488-.558,6.986-.505,10.473a8.668,8.668,0,0,1-.006,2.442c-.214.775-.863.9-1.52.5-.88-.54-.719-1.769-.852-2.67-.369-2.474-.808-4.938-1.194-7.409-.19-1.212.266-2.9.191-4.125l-1.2-6.6Z" transform="translate(-38.568 -22.959)" fill="#eac5b0"/>
        <path id="Trazado_774908" data-name="Trazado 774908" d="M261.84,173.167a1.158,1.158,0,0,1,1.018-.48,1.172,1.172,0,0,1,.9.6,2.163,2.163,0,0,1,.183.724c.167,1.28.3,4.333-1.435,4.85a1.308,1.308,0,0,1-1.587-.9,6.64,6.64,0,0,1,.92-4.792" transform="translate(-39.804 -26.356)" fill="#1a3151"/>
        <path id="Trazado_774909" data-name="Trazado 774909" d="M260.246,150.4l.451,7.837c.053,3.487.77,6.965.823,10.452a8.624,8.624,0,0,0,.081,2.441c.237.768.889.876,1.534.453.864-.566.664-1.79.771-2.695.293-2.484.658-4.961.969-7.442.152-1.217-.354-2.89-.317-4.117l1-6.629Z" transform="translate(-39.721 -22.956)" fill="#eac5b0"/>
        <path id="Trazado_774910" data-name="Trazado 774910" d="M262.87,95.335l-7.071.405-3.842,2.9s.4,12.084.251,16.558-.441,8.108-.829,14.654a70.794,70.794,0,0,0,1.408,15.863l14.95-.227s3.044-16.39,1.478-20.639-.634-8.478-.686-11.955-1.515-15.132-1.515-15.132Z" transform="translate(-38.358 -14.551)" fill="#4adbd1"/>
        <path id="Trazado_774911" data-name="Trazado 774911" d="M267.973,96.234l3.624,3s-1.535,13.377-1.6,15.594a71.559,71.559,0,0,0,1.161,8.8l-5.264-.48a20.484,20.484,0,0,1-3-8.232c-.572-4.689,2.579-19.727,2.579-19.727Z" transform="translate(-40.114 -14.528)" fill="#f4a338"/>
        <path id="Trazado_774912" data-name="Trazado 774912" d="M253.1,96.452l-2.709,1.88s1.241,14.552,1.366,16.766-1.706,9.288-1.706,9.288l5.778-1.094a21.381,21.381,0,0,0,2.561-8.317c.4-4.7-2.985-19.642-2.985-19.642Z" transform="translate(-38.165 -14.551)" fill="#f4a338"/>
        <path id="Trazado_774913" data-name="Trazado 774913" d="M281.584,82.37l1.571.526,1.931-2.2-.7-1.814-1.847-.56-1.016,2.337Z" transform="translate(-42.969 -11.955)" fill="#eac5b0"/>
        <path id="Trazado_774914" data-name="Trazado 774914" d="M266.034,100.385l10.57-3.4,5.312-14.121-3.148-.783-6.244,10.729-6.451,1.366Z" transform="translate(-40.605 -12.527)" fill="#f4a338"/>
        <rect id="Rectángulo_364455" data-name="Rectángulo 364455" width="61.777" height="1.145" transform="translate(81.461 92.501) rotate(-34.725)" fill="#9ea6ad"/>
        <rect id="Rectángulo_364456" data-name="Rectángulo 364456" width="1.146" height="62.032" transform="matrix(0.527, -0.85, 0.85, 0.527, 79.544, 25.572)" fill="#9ea6ad"/>
        <rect id="Rectángulo_364457" data-name="Rectángulo 364457" width="1.146" height="98.462" transform="translate(34.487 49.05) rotate(-84.579)" fill="#9ea6ad"/>
        <rect id="Rectángulo_364458" data-name="Rectángulo 364458" width="65.019" height="1.146" transform="translate(130.704 57.36) rotate(-43.172)" fill="#9ea6ad"/>
        <rect id="Rectángulo_364459" data-name="Rectángulo 364459" width="1.146" height="74.856" transform="matrix(0.546, -0.838, 0.838, 0.546, 130.787, 58.261)" fill="#9ea6ad"/>
        <rect id="Rectángulo_364460" data-name="Rectángulo 364460" width="102.79" height="1.146" transform="translate(132.544 55.836) rotate(-1.864)" fill="#9ea6ad"/>
        <path id="Trazado_774915" data-name="Trazado 774915" d="M114.951,57.117a30.994,30.994,0,1,1,30.993,30.993,30.993,30.993,0,0,1-30.993-30.993" transform="translate(-17.545 -3.987)" fill="#4adbd1"/>
        <path id="Trazado_774916" data-name="Trazado 774916" d="M75.783,22.885A14.521,14.521,0,1,1,90.3,37.407,14.521,14.521,0,0,1,75.783,22.885" transform="translate(-11.567 -1.277)" fill="#5573c6"/>
        <path id="Trazado_774917" data-name="Trazado 774917" d="M32.774,52.931a16.5,16.5,0,0,1,16.5-16.5c9.113,0,17.352,7.387,17.352,16.5s-8.24,16.5-17.352,16.5a16.5,16.5,0,0,1-16.5-16.5" transform="translate(-5.002 -5.56)" fill="#373f51"/>
        <path id="Trazado_774918" data-name="Trazado 774918" d="M83.746,107.372a13.021,13.021,0,1,1,13.021,13.021,13.021,13.021,0,0,1-13.021-13.021" transform="translate(-12.782 -14.401)" fill="#4adbd1"/>
        <path id="Trazado_774919" data-name="Trazado 774919" d="M193.233,14.4a14.4,14.4,0,1,1,14.4,14.4,14.4,14.4,0,0,1-14.4-14.4" transform="translate(-29.493)" fill="#373f51"/>
        <path id="Trazado_774920" data-name="Trazado 774920" d="M210.223,111.609A15.688,15.688,0,1,1,225.911,127.3a15.688,15.688,0,0,1-15.688-15.688" transform="translate(-32.086 -14.64)" fill="#373f51"/>
        <path id="Trazado_774921" data-name="Trazado 774921" d="M254.017,59.42a17.789,17.789,0,1,1,17.79,17.789,17.79,17.79,0,0,1-17.79-17.789" transform="translate(-38.77 -6.354)" fill="#5573c6"/>
        <path id="Trazado_774922" data-name="Trazado 774922" d="M249.541,20.72a8.786,8.786,0,1,1,8.786,8.786,8.787,8.787,0,0,1-8.786-8.786" transform="translate(-38.087 -1.821)" fill="#f4a338"/>
        <path id="Trazado_774923" data-name="Trazado 774923" d="M13.332,14.29a8.786,8.786,0,1,1,8.786,8.787,8.786,8.786,0,0,1-8.786-8.787" transform="translate(-2.035 -0.84)" fill="#4adbd1"/>
        <path id="Trazado_774924" data-name="Trazado 774924" d="M0,52.288A9.621,9.621,0,1,1,9.622,61.91,9.622,9.622,0,0,1,0,52.288" transform="translate(0 -6.512)" fill="#5573c6"/>
        <path id="Trazado_774925" data-name="Trazado 774925" d="M30.394,105.081a10.744,10.744,0,1,1,10.745,10.745,10.745,10.745,0,0,1-10.745-10.745" transform="translate(-4.639 -14.398)" fill="#f4a338"/>
        <path id="Trazado_774926" data-name="Trazado 774926" d="M27.6,110.067l1.694-.11.97-1.141.346.082-.085.43,1.076-.717,1.043.109.69,1.214-.21,1.427-1.278.557-1.647-.188-2.312.252Z" transform="translate(-4.212 -16.577)" fill="#b99a6f"/>
        <path id="Trazado_774927" data-name="Trazado 774927" d="M26.008,106.846l-9.262.245,1.883-14.223L12.306,99.1l-.952,13.124,3.406,1.855,12.64-4.031Z" transform="translate(-1.733 -14.174)" fill="#373f51"/>
        <path id="Trazado_774928" data-name="Trazado 774928" d="M182.282,97.633l2.5-2.429,6.747.45a132.833,132.833,0,0,0,3.741,15.518c3.063,10.72-1.422,24.365-1.422,24.365s-17.368-4.128-20.835-4.808l4.35-19.595Z" transform="translate(-26.406 -14.531)" fill="#1a3151"/>
        <path id="Trazado_774929" data-name="Trazado 774929" d="M188.325,128.239v3.822l-5.1,16.561,1.274,17.2-3.185.636-5.1-21.019.195-6.185,2.353-12.612Z" transform="translate(-26.897 -19.329)" fill="#1a3151"/>
        <path id="Trazado_774930" data-name="Trazado 774930" d="M185.735,133.293l5.12,35.033h2.328l1.47-19.109,3.184-19.108Z" transform="translate(-28.349 -19.858)" fill="#1a3151"/>
        <path id="Trazado_774931" data-name="Trazado 774931" d="M182.292,173.164l-2.431,2.573.7,1.3,5.016-2.408-.924-1.906Z" transform="translate(-27.452 -26.363)"/>
        <path id="Trazado_774932" data-name="Trazado 774932" d="M191.289,174.629l-3,1.884.354,1.439,5.459-1.079-.418-2.076Z" transform="translate(-28.739 -26.653)"/>
        <path id="Trazado_774933" data-name="Trazado 774933" d="M190.134,83.534c1.422,1.5,3.99,1.554,5.206,3.234a3.93,3.93,0,0,1,.178,3.908,3.3,3.3,0,0,1-1.228,1.449,3.148,3.148,0,0,1-1.165.389,4.491,4.491,0,0,1-1.624-.061,8.14,8.14,0,0,0-.138,1.462c-.949-.373-2.206-.062-3.155-.435.214-.546.736-1.775.949-2.321a4.342,4.342,0,0,1-.541-.669,4.927,4.927,0,0,1-.09-5.044,9.568,9.568,0,0,1,1.608-1.912" transform="translate(-28.675 -12.75)" fill="#b99a6f"/>
        <path id="Trazado_774934" data-name="Trazado 774934" d="M190.045,83.531l5.224,3.744L192.9,91.71l2.3.159,4.694-6.517-6.521-6.217-4.422-.941L187.518,80l.992,4.085Z" transform="translate(-28.621 -11.935)" fill="#1a3151"/>
        <path id="Trazado_774935" data-name="Trazado 774935" d="M185.33,95.515l9.116.027s1.329,3.126,4.391,13.845-1.422,24.365-1.422,24.365-15.536-7.676-19-8.357l2.518-16.046Z" transform="translate(-27.231 -14.578)" fill="#fff"/>
        <path id="Trazado_774936" data-name="Trazado 774936" d="M199.862,109.562a141.173,141.173,0,0,0-4.505-14.074l-8.833-.33-.013.039c.168.438.343.874.5,1.318a30.456,30.456,0,0,1,1.317,5.388,54.955,54.955,0,0,1,.426,9.784,63.708,63.708,0,0,1-.974,9.3,63,63,0,0,1-3.406,11.845c7.051,1.433,15.349,3.127,15.349,3.127s3.2-15.678.142-26.4" transform="translate(-28.14 -14.524)" fill="#1a3151"/>
        <path id="Trazado_774937" data-name="Trazado 774937" d="M182.592,112.5a10.8,10.8,0,0,0-.417,4.473,14.056,14.056,0,0,0,1.027,1.895,8.758,8.758,0,0,0,1.379-1.612,9.67,9.67,0,0,0,.634-3.81c.038-4.516-.229-9.069.533-13.521.889-.27,1.651-.924,1.1-1.852-1.729.656-1.913,4.549-2.29,6.138q-.985,4.145-1.969,8.288" transform="translate(-27.789 -14.968)" fill="#ffd559"/>
        <path id="Trazado_774938" data-name="Trazado 774938" d="M114.1,104.039l.686-1.28-1.561-2-1.641.334-.758,1.514,1.065.719-.131.354.225.48Z" transform="translate(-16.916 -15.379)" fill="#eac5b0"/>
        <path id="Trazado_774939" data-name="Trazado 774939" d="M169.627,48.8a24.493,24.493,0,1,0,1.919,9.5,24.321,24.321,0,0,0-1.919-9.5m-34.365,8.752a24.2,24.2,0,0,1,.649-5.6H145.9V63.564H135.99a25.294,25.294,0,0,1-.728-6.015m18-16.053a25.81,25.81,0,0,1,4.172,6.675c.186.436.356.878.514,1.324h-9.59V36.968a28.274,28.274,0,0,1,4.9,4.528M145.9,37.208V49.494h-9.265q.229-.642.493-1.273a25.772,25.772,0,0,1,4.136-6.658,28.489,28.489,0,0,1,4.636-4.355m0,28.813V79.206A34.191,34.191,0,0,1,141.36,74.4a30.357,30.357,0,0,1-4.2-7.218q-.234-.577-.439-1.161Zm2.457,13.46V66.022h9.5q-.2.561-.419,1.115a30.31,30.31,0,0,1-4.17,7.2,34.106,34.106,0,0,1-4.916,5.144m0-15.917V51.951h10.315a24.2,24.2,0,0,1,.649,5.6,25.292,25.292,0,0,1-.727,6.015Zm12.834-11.613h6.969a22.208,22.208,0,0,1,.3,11.613h-7.338a27.681,27.681,0,0,0,.661-6.015,26.762,26.762,0,0,0-.587-5.6m1.465-9.177a21.939,21.939,0,0,1,4.6,6.72H160.54q-.369-1.158-.844-2.284a28.282,28.282,0,0,0-4.567-7.312,31.218,31.218,0,0,0-2.9-2.962,21.815,21.815,0,0,1,10.426,5.838m-31.055,0a21.814,21.814,0,0,1,10.862-5.937,31.157,31.157,0,0,0-3.007,3.061,28.26,28.26,0,0,0-4.567,7.312q-.478,1.125-.845,2.284H127a21.954,21.954,0,0,1,4.6-6.72m-5.5,9.177h7.294a26.706,26.706,0,0,0-.588,5.6,27.682,27.682,0,0,0,.662,6.015H125.8a22.208,22.208,0,0,1,.3-11.613m5.5,21.878a21.9,21.9,0,0,1-5.041-7.808h7.57q.334,1.049.75,2.082a32.855,32.855,0,0,0,4.539,7.8,36.979,36.979,0,0,0,3.567,3.965A21.8,21.8,0,0,1,131.6,73.829m31.055,0a21.815,21.815,0,0,1-10.973,5.96,37.074,37.074,0,0,0,3.481-3.883,32.8,32.8,0,0,0,4.539-7.8q.418-1.032.75-2.082H167.7a21.9,21.9,0,0,1-5.041,7.808" transform="translate(-18.73 -5.172)" fill="#fff"/>
        <path id="Trazado_774940" data-name="Trazado 774940" d="M286.07,58.858a6.57,6.57,0,0,0-7.293-2.9l-.015,0a2.923,2.923,0,0,0-1.871,1.86c-.068.208-.4.119-.329-.091a3.234,3.234,0,0,1,1.959-2.036,7.031,7.031,0,0,0-13.666.8,4.262,4.262,0,0,1,.792.269,5.386,5.386,0,0,1,2.381,2.23.171.171,0,0,1-.295.172,5.45,5.45,0,0,0-.647-.888,4.562,4.562,0,0,0-3.581-1.557,5.838,5.838,0,0,0-3.811,1.813,5.656,5.656,0,0,0-1.5,4.309,5.554,5.554,0,0,0,2.2,3.93,6.9,6.9,0,0,0,3.945,1.312c.941.036,1.882.049,2.823.062,2.69.037,5.38.047,8.07.054q1.773.005,3.545.006a15.711,15.711,0,0,0,2.949-.106,6.339,6.339,0,0,0,5.183-6.7,6.109,6.109,0,0,0-.836-2.54" transform="translate(-39.404 -7.733)" fill="#fff"/>
        <path id="Trazado_774941" data-name="Trazado 774941" d="M56.44,58.255a2.828,2.828,0,0,0-2.972.552l-5.353-3.038a4.053,4.053,0,0,0-.167-3.09L53,49.337A3.369,3.369,0,0,0,58.5,48.2a3.367,3.367,0,1,0-6.347-.28l-5.2,3.439a4.064,4.064,0,1,0,.274,5.862l5.4,3.065a2.824,2.824,0,1,0,3.813-2.033" transform="translate(-6.138 -6.652)" fill="#fff"/>
        <path id="Trazado_774942" data-name="Trazado 774942" d="M230.975,121.573a3.129,3.129,0,1,1-3.128-3.128,3.129,3.129,0,0,1,3.128,3.128" transform="translate(-34.298 -18.078)" fill="#fff"/>
        <g id="Grupo_1029761" data-name="Grupo 1029761" transform="translate(192.586 101.802)" opacity="0.06">
          <g id="Grupo_1029760" data-name="Grupo 1029760">
            <g id="Grupo_1029759" data-name="Grupo 1029759" clip-path="url(#clip-path-5)">
              <path id="Trazado_774943" data-name="Trazado 774943" d="M230.548,120.138a3.388,3.388,0,0,1,.136,1.257,3.056,3.056,0,0,1-.739,1.791,3.265,3.265,0,0,1-1.678,1,3.391,3.391,0,0,1-.957.088l-.035,0a2.162,2.162,0,0,0,.508.284,2.547,2.547,0,0,0,3.217-1.6,2.692,2.692,0,0,0-.452-2.817" transform="translate(-227.275 -120.138)"/>
            </g>
          </g>
        </g>
        <path id="Trazado_774944" data-name="Trazado 774944" d="M232.919,119.063c-2.495-2.229-5.2-2.915-8.033-2.037a10.128,10.128,0,0,0-3.6,2.014l-1.609-1.631a12.49,12.49,0,0,1,4.515-2.546c2.529-.783,6.368-.981,10.29,2.524Z" transform="translate(-33.529 -17.459)" fill="#fff"/>
        <path id="Trazado_774945" data-name="Trazado 774945" d="M235.066,115.947a13.067,13.067,0,0,0-6.326-3.323,11.076,11.076,0,0,0-5.338.366,14.664,14.664,0,0,0-5.212,2.934l-1.613-1.627a16.918,16.918,0,0,1,6.125-3.469,13.419,13.419,0,0,1,6.466-.434,15.35,15.35,0,0,1,7.464,3.88Z" transform="translate(-33.056 -16.817)" fill="#fff"/>
        <path id="Trazado_774946" data-name="Trazado 774946" d="M237.2,112.821a17.1,17.1,0,0,0-8.224-4.33,14.5,14.5,0,0,0-6.975.447,19.308,19.308,0,0,0-6.891,3.861l-1.613-1.628a21.322,21.322,0,0,1,7.725-4.372,16.863,16.863,0,0,1,8.131-.547,19.352,19.352,0,0,1,9.41,4.9Z" transform="translate(-32.586 -16.176)" fill="#fff"/>
        <path id="Trazado_774947" data-name="Trazado 774947" d="M166.89,89.186l-.994-2.551,1.071-.473,1.068,1.6.4-.458.585,2.286-1.047.641Z" transform="translate(-25.321 -13.151)" fill="#b99a6f"/>
        <path id="Trazado_774948" data-name="Trazado 774948" d="M189.775,97.928l-11.246,1.054L169.3,89.211l-2.013,1.38L174.7,103.51l15.07,2.507Z" transform="translate(-25.532 -13.616)" fill="#1a3151"/>
        <path id="Trazado_774949" data-name="Trazado 774949" d="M103.485,100.568a2.723,2.723,0,0,0-2.688-.079c-.189.1-.375.2-.563.3L97.31,102.37c-.73.393-1.46.785-2.189,1.18a2.728,2.728,0,0,0-1.353,1.688,2.824,2.824,0,0,0,.269,2.038l-1.184.638c-.73.393-1.46.785-2.189,1.18a2.728,2.728,0,0,0-1.353,1.688,2.842,2.842,0,0,0,.3,2.1l.765,1.419a6.213,6.213,0,0,0,.768,1.253,2.711,2.711,0,0,0,2.593.805,4.032,4.032,0,0,0,.989-.427l5.242-2.828.145-.078a2.716,2.716,0,0,0,1.411-2.368,3.06,3.06,0,0,0-.365-1.335l.237-.129,3.029-1.634.145-.078a2.716,2.716,0,0,0,1.411-2.368,3.539,3.539,0,0,0-.535-1.665l-.819-1.518a3.357,3.357,0,0,0-1.142-1.364m-1.956.906h0M97.1,107.009l.015,0c.069-.02.138-.041.209-.055.035-.008.07-.012.105-.019l.029-.006h.027c.088,0,.175,0,.264,0,.01,0,.088.011.1.011l.055.012a2.066,2.066,0,0,1,.325.1l0,0,.02.013c.046.027.092.05.137.078s.2.15.149.1a2.151,2.151,0,0,1,.177.175c.025.027.049.056.073.086,0,0,.05.072.061.091.2.329.37.68.553,1.019l.114.211-.109.058-.059.032-.926.5-.145.078c-.057.03-.114.057-.173.082.027-.014-.153.047-.189.056-.053.012-.105.019-.158.031l-.021,0h-.008c-.116.006-.228,0-.343-.007l-.043-.005-.114-.025c-.085-.022-.166-.052-.248-.081l-.024-.008-.025-.016c-.031-.018-.063-.033-.092-.051-.046-.026-.09-.055-.134-.085l-.059-.044-.006-.005a2.218,2.218,0,0,1-.208-.211c-.013-.014-.024-.029-.036-.044s-.056-.08-.063-.092c-.031-.05-.058-.1-.086-.153q-.291-.538-.58-1.077l.933-.5.266-.143.04-.021c.062-.033.125-.064.191-.091m-.032.009h0m3.027,2.877c.013.023.025.046.037.069.026.05.049.1.074.151l.008.017,0,.011a3.379,3.379,0,0,1,.083.341c0,.008,0,.026.005.04,0,.041,0,.081,0,.121,0,.072-.005.142-.012.214,0,0-.014.09-.017.1-.008.034-.016.069-.026.1-.014.051-.031.1-.048.149-.008.02-.016.04-.024.059l-.008.016a2.633,2.633,0,0,1-.147.249l-.033.045c-.008.007-.063.071-.07.08a2.523,2.523,0,0,1-.2.183l-.023.02-.024.014c-.048.028-.1.058-.145.086l-4.639,2.5-.926.5-.145.078c-.057.03-.114.057-.173.082.027-.014-.153.047-.189.056-.053.012-.105.019-.158.031l-.021,0h-.008c-.115.006-.227,0-.342-.007l-.043-.005-.114-.025c-.085-.022-.166-.052-.248-.081l-.024-.008-.026-.016c-.03-.018-.062-.033-.092-.051-.046-.026-.091-.055-.134-.085l-.059-.044-.006-.005a2.218,2.218,0,0,1-.208-.211c-.013-.014-.024-.029-.036-.044s-.056-.08-.063-.092c-.031-.05-.058-.1-.086-.153q-.339-.627-.676-1.254c-.18-.335-.371-.666-.542-1.007-.017-.033-.031-.068-.047-.1L90.519,112l-.008-.028c-.024-.087-.049-.173-.064-.262,0-.012-.014-.11-.015-.106q0-.041,0-.081,0-.066,0-.132c0-.018.015-.142.014-.15.014-.071.032-.142.053-.212.014-.042.029-.083.043-.124,0-.011.014-.032.022-.049.036-.07.075-.14.118-.207.021-.031.043-.063.065-.093,0,.01.072-.08.086-.095a2.206,2.206,0,0,1,.2-.179l.028-.019c.048-.028.1-.058.145-.086l.034-.019.256-.137,1.076-.581,2.04-1.1.012.023,0,0,.037.069h.005l.174.323a6.213,6.213,0,0,0,.768,1.253,2.709,2.709,0,0,0,2.593.805,4.031,4.031,0,0,0,.989-.427l.807-.436Zm3.769-6.82q.344.638.688,1.276c.013.023.025.046.037.069.026.05.049.1.074.151l.008.017,0,.011a3.381,3.381,0,0,1,.083.341c0,.008,0,.026.005.04,0,.041,0,.081,0,.121,0,.072-.005.142-.012.214,0,0-.014.09-.017.1-.008.034-.016.068-.026.1-.014.051-.031.1-.048.149-.008.02-.016.04-.024.059l-.008.016a2.634,2.634,0,0,1-.147.249l-.033.045c-.008.007-.063.071-.07.08a2.524,2.524,0,0,1-.2.183l-.023.02-.024.014c-.048.028-.1.058-.145.086l-3.174,1.712-.231.125q-.21-.39-.42-.779a3.349,3.349,0,0,0-1.141-1.364,2.723,2.723,0,0,0-2.688-.079c-.189.1-.375.2-.563.3l-.679.366-.062-.119c-.017-.033-.031-.068-.047-.1l-.014-.026-.008-.028c-.024-.087-.048-.173-.064-.262,0-.012-.014-.11-.015-.106q0-.041,0-.081,0-.066,0-.132c0-.018.015-.142.014-.15.014-.071.032-.142.053-.212.014-.042.029-.082.043-.124,0-.011.014-.032.022-.049a2.283,2.283,0,0,1,.119-.207c.02-.031.042-.063.064-.093,0,.01.072-.08.086-.095a2.209,2.209,0,0,1,.2-.179l.028-.019c.048-.028.1-.058.145-.086l.034-.019.256-.137,1.076-.581,2.947-1.59,1.091-.588.266-.143.04-.021c.062-.033.125-.064.191-.091l.015,0c.069-.02.138-.041.209-.055.035-.008.07-.012.105-.019l.029-.006h.027c.088,0,.175,0,.264,0,.01,0,.088.011.1.011l.055.012a2.065,2.065,0,0,1,.325.1l0,0,.02.013c.046.027.092.05.137.078s.2.15.149.1a2.152,2.152,0,0,1,.177.175c.025.027.049.056.073.086,0,0,.05.072.061.091.2.329.37.68.553,1.019" transform="translate(-13.618 -15.289)" fill="#fff"/>
        <path id="Trazado_774950" data-name="Trazado 774950" d="M96.371,14.952a3.9,3.9,0,0,0-1.959-1.4,5.113,5.113,0,0,0-1.587-.169h-1.51a4.248,4.248,0,0,0-1.886.406A3.843,3.843,0,0,0,87.7,15.511a3.92,3.92,0,0,0-.408,1.767v7.98h1.2v-8.02a2.5,2.5,0,0,1,.136-.848,2.9,2.9,0,0,1,.443-.813,2.545,2.545,0,0,1,.749-.641,2.612,2.612,0,0,1,.95-.331c.016,0,.067-.01.2-.019.053,0,.112-.005.183-.005h2.113a2.5,2.5,0,0,1,.857.137,2.923,2.923,0,0,1,.813.442,2.556,2.556,0,0,1,.641.749,2.617,2.617,0,0,1,.331.95c0,.016.01.068.019.2,0,.054.005.112.005.181v8.021h1.2v-8.02a3.812,3.812,0,0,0-.762-2.286" transform="translate(-13.324 -2.042)" fill="#fff"/>
        <path id="Trazado_774951" data-name="Trazado 774951" d="M85.679,23.857v8.7a2.13,2.13,0,0,0,2.13,2.131h8.009a2.131,2.131,0,0,0,2.131-2.131v-8.7Zm6.544,5.576v2.095c0,.156-.181.282-.405.282H91.81c-.224,0-.405-.126-.405-.282V29.433a1.613,1.613,0,1,1,.819,0" transform="translate(-13.077 -3.641)" fill="#fff"/>
        <path id="Trazado_774952" data-name="Trazado 774952" d="M209.928,6.825l-.186-.863q-.447-.057-.9-.073c-.3-.009-.608-.005-.908.014l-.243.849a1.28,1.28,0,0,1-2.18.508L204.91,6.6a9.392,9.392,0,0,0-1.6.857l.215.858a1.281,1.281,0,0,1-1.635,1.53l-.841-.271a9.327,9.327,0,0,0-.96,1.538l.617.637a1.28,1.28,0,0,1-.65,2.142l-.863.186q-.057.449-.073.9c-.01.305-.005.608.014.908l.849.242a1.28,1.28,0,0,1,.508,2.18l-.658.6a9.352,9.352,0,0,0,.857,1.6l.858-.214a1.28,1.28,0,0,1,1.53,1.634l-.27.842a9.342,9.342,0,0,0,1.538.959l.637-.617a1.28,1.28,0,0,1,2.142.65l.186.863c.3.038.6.064.9.073s.608.006.908-.013l.242-.85a1.28,1.28,0,0,1,2.18-.508l.6.658a9.3,9.3,0,0,0,1.6-.858l-.214-.858a1.28,1.28,0,0,1,1.634-1.53l.842.271a9.38,9.38,0,0,0,.959-1.538l-.617-.638a1.28,1.28,0,0,1,.65-2.142l.863-.186q.057-.447.073-.9c.01-.3.005-.608-.014-.908l-.849-.243a1.28,1.28,0,0,1-.508-2.179l.658-.6a9.274,9.274,0,0,0-.857-1.6l-.858.215a1.281,1.281,0,0,1-1.53-1.635l.271-.841a9.3,9.3,0,0,0-1.539-.96l-.637.617a1.28,1.28,0,0,1-2.142-.65m2.451,8.6a3.853,3.853,0,1,1-3.724-3.977,3.853,3.853,0,0,1,3.724,3.977" transform="translate(-30.391 -0.898)" fill="#fff"/>
        <path id="Trazado_774953" data-name="Trazado 774953" d="M48.839,105.152c0-2.742-3.148-4.964-7.032-4.964s-7.032,2.222-7.032,4.964c0,1.732,1.258,3.257,3.164,4.145l3.928,4.364-.653-3.563q.294.018.594.018c3.884,0,7.032-2.223,7.032-4.964m-9.979.769a.478.478,0,0,1,0-.955.478.478,0,0,1,0,.955m6.233-.955a.478.478,0,0,1,0,.955.478.478,0,0,1,0-.955m-2.948,0a.478.478,0,0,1,0,.955.478.478,0,0,1,0-.955" transform="translate(-5.308 -15.292)" fill="#fff"/>
      </g>
    </g>
  </g>
</svg>
