<svg xmlns="http://www.w3.org/2000/svg" xmlns:xlink="http://www.w3.org/1999/xlink" width="390" height="488" viewBox="0 0 390 488">
  <defs>
    <clipPath id="clip-path">
      <rect id="Rectángulo_361950" data-name="Rectángulo 361950" width="390" height="387" transform="translate(0 -0.207)" fill="#fff" stroke="#707070" stroke-width="1"/>
    </clipPath>
    <clipPath id="clip-path-2">
      <ellipse id="Elipse_8547" data-name="Elipse 8547" cx="172" cy="171" rx="172" ry="171" transform="translate(-0.15 -0.265)" fill="#fff" stroke="#707070" stroke-width="1"/>
    </clipPath>
    <clipPath id="clip-path-3">
      <rect id="Rectángulo_364966" data-name="Rectángulo 364966" width="372.036" height="241.327" fill="none"/>
    </clipPath>
    <clipPath id="clip-path-5">
      <rect id="Rectángulo_364927" data-name="Rectángulo 364927" width="72.611" height="69.704" fill="none"/>
    </clipPath>
    <clipPath id="clip-path-6">
      <rect id="Rectángulo_364928" data-name="Rectángulo 364928" width="96.431" height="42.523" fill="none"/>
    </clipPath>
    <clipPath id="clip-path-7">
      <rect id="Rectángulo_364929" data-name="Rectángulo 364929" width="96.651" height="42.903" fill="none"/>
    </clipPath>
    <clipPath id="clip-path-8">
      <rect id="Rectángulo_364930" data-name="Rectángulo 364930" width="72.791" height="70.261" fill="none"/>
    </clipPath>
    <clipPath id="clip-path-9">
      <rect id="Rectángulo_364941" data-name="Rectángulo 364941" width="180.403" height="91.079" fill="none"/>
    </clipPath>
    <clipPath id="clip-path-10">
      <rect id="Rectángulo_364952" data-name="Rectángulo 364952" width="55.101" height="80.417" fill="none"/>
    </clipPath>
    <clipPath id="clip-path-11">
      <rect id="Rectángulo_364961" data-name="Rectángulo 364961" width="33.621" height="69.245" fill="none"/>
    </clipPath>
    <clipPath id="clip-path-12">
      <rect id="Rectángulo_364962" data-name="Rectángulo 364962" width="1.928" height="9.666" fill="none"/>
    </clipPath>
    <clipPath id="clip-path-13">
      <rect id="Rectángulo_364963" data-name="Rectángulo 364963" width="1.771" height="3.212" fill="none"/>
    </clipPath>
    <clipPath id="clip-path-14">
      <rect id="Rectángulo_364964" data-name="Rectángulo 364964" width="5.416" height="18.925" fill="#5573c6"/>
    </clipPath>
  </defs>
  <g id="Grupo_1033334" data-name="Grupo 1033334" transform="translate(-180 -27754)">
    <path id="Trazado_766853" data-name="Trazado 766853" d="M101.3,0H386.7C442.649,0,488,49.173,488,109.83s-45.351,109.83-101.3,109.83H101.3C45.351,219.661,0,170.488,0,109.83S45.351,0,101.3,0Z" transform="translate(485.434 27754) rotate(90)" fill="#4adbd1"/>
    <g id="Enmascarar_grupo_1018731" data-name="Enmascarar grupo 1018731" transform="translate(180 27804.207)" clip-path="url(#clip-path)">
      <g id="Grupo_1026156" data-name="Grupo 1026156" transform="translate(6.844 6.97)">
        <g id="Grupo_1026152" data-name="Grupo 1026152" transform="translate(0 376.003) rotate(-90)">
          <path id="Sustracción_38" data-name="Sustracción 38" d="M0,382.673V0A192.749,192.749,0,0,1,38.561,3.887,190.372,190.372,0,0,1,74.477,15.036a191.352,191.352,0,0,1,32.5,17.641A192.712,192.712,0,0,1,135.3,56.041,192.71,192.71,0,0,1,158.66,84.359a191.352,191.352,0,0,1,17.641,32.5,190.37,190.37,0,0,1,11.149,35.916,192.75,192.75,0,0,1,3.887,38.561A192.75,192.75,0,0,1,187.45,229.9,190.369,190.369,0,0,1,176.3,265.814a191.352,191.352,0,0,1-17.641,32.5A192.709,192.709,0,0,1,135.3,326.632,192.71,192.71,0,0,1,106.978,350a191.357,191.357,0,0,1-32.5,17.641,190.374,190.374,0,0,1-35.916,11.149A192.754,192.754,0,0,1,0,382.673Z" transform="translate(191.337 382.673) rotate(180)" fill="#5573c6"/>
          <path id="Sustracción_39" data-name="Sustracción 39" d="M0,382.673V0A192.749,192.749,0,0,1,38.561,3.887,190.374,190.374,0,0,1,74.477,15.036a191.355,191.355,0,0,1,32.5,17.641A192.711,192.711,0,0,1,135.3,56.041,192.711,192.711,0,0,1,158.66,84.359a191.351,191.351,0,0,1,17.641,32.5,190.37,190.37,0,0,1,11.149,35.916,192.75,192.75,0,0,1,3.887,38.561A192.749,192.749,0,0,1,187.45,229.9,190.367,190.367,0,0,1,176.3,265.813a191.345,191.345,0,0,1-17.641,32.5A192.707,192.707,0,0,1,135.3,326.632,192.707,192.707,0,0,1,106.978,350a191.356,191.356,0,0,1-32.5,17.641,190.374,190.374,0,0,1-35.916,11.149A192.751,192.751,0,0,1,0,382.673Z" transform="translate(184.666 0)" fill="#e8e8e8"/>
        </g>
        <g id="Enmascarar_grupo_1018730" data-name="Enmascarar grupo 1018730" transform="translate(19.306 17.089)" clip-path="url(#clip-path-2)">
          <ellipse id="Elipse_8590" data-name="Elipse 8590" cx="172" cy="171" rx="172" ry="171" transform="translate(-0.149 -0.266)" fill="#373f51"/>
        </g>
        <g id="Grupo_1026155" data-name="Grupo 1026155" transform="matrix(0.966, -0.259, 0.259, 0.966, 267.104, 288.627)" style="isolation: isolate">
          <g id="Grupo_1026153" data-name="Grupo 1026153" transform="translate(0 7.203)">
            <path id="Trazado_766849" data-name="Trazado 766849" d="M.114,31.965C.038,31,0,30.007,0,29.027A36.961,36.961,0,0,1,13.98,0l.269.337A36.531,36.531,0,0,0,.431,29.027c0,.969.038,1.946.113,2.9Z" transform="translate(0 0)" fill="#4adbd1"/>
          </g>
          <g id="Grupo_1026154" data-name="Grupo 1026154" transform="translate(18.137 0)">
            <path id="Trazado_766850" data-name="Trazado 766850" d="M.221,4.694,0,4.324A36.864,36.864,0,0,1,10.865,0l.094.42A36.418,36.418,0,0,0,.221,4.694Z" transform="translate(0)" fill="#4adbd1"/>
          </g>
          <path id="Trazado_766851" data-name="Trazado 766851" d="M31.057,0A31.056,31.056,0,1,0,62.113,31.057,31.056,31.056,0,0,0,31.057,0Zm0,53.017a21.96,21.96,0,1,1,21.96-21.96A21.96,21.96,0,0,1,31.057,53.017Z" transform="translate(6.064 5.174)" fill="#4adbd1" style="mix-blend-mode: multiply;isolation: isolate"/>
        </g>
        <path id="Trazado_766852" data-name="Trazado 766852" d="M8.754,0a8.754,8.754,0,1,0,8.754,8.754A8.754,8.754,0,0,0,8.754,0Zm0,14.944a6.19,6.19,0,1,1,6.19-6.19A6.19,6.19,0,0,1,8.754,14.944Z" transform="matrix(0.966, -0.259, 0.259, 0.966, 59.237, 21.793)" fill="#0f0140" style="mix-blend-mode: multiply;isolation: isolate"/>
        <ellipse id="Elipse_8548" data-name="Elipse 8548" cx="8" cy="8.5" rx="8" ry="8.5" transform="translate(342.156 281.824)" fill="#f6f6f6"/>
        <ellipse id="Elipse_8549" data-name="Elipse 8549" cx="23" cy="22.5" rx="23" ry="22.5" transform="translate(35.156 38.823)" fill="#4adbd1"/>
      </g>
    </g>
    <g id="Grupo_1030918" data-name="Grupo 1030918" transform="translate(192.552 27877.057)">
      <g id="Grupo_1030917" data-name="Grupo 1030917" clip-path="url(#clip-path-3)">
        <g id="Grupo_1030916" data-name="Grupo 1030916">
          <g id="Grupo_1030915" data-name="Grupo 1030915" clip-path="url(#clip-path-3)">
            <path id="Trazado_776570" data-name="Trazado 776570" d="M340.356,60.2a9.746,9.746,0,0,0-17.575-5.8,13.168,13.168,0,0,0-5.488-6.755,16.494,16.494,0,1,0-32.734-4.08,14.945,14.945,0,0,0-21.186,10.831,9.751,9.751,0,0,0-12.783,9.262c0,2.375.062,6.328,2.263,6.243,25.241-.976,50.426-.585,82.823,0,3.609.066,4.681-6.169,4.681-9.7" transform="translate(11.528 1.336)" fill="#e8e8e8"/>
            <path id="Trazado_776571" data-name="Trazado 776571" d="M89.766,79.73a9.746,9.746,0,0,0-17.575-5.8A13.168,13.168,0,0,0,66.7,67.17a16.494,16.494,0,1,0-32.734-4.08A14.945,14.945,0,0,0,12.783,73.921,9.752,9.752,0,0,0,0,83.184c0,2.375.061,6.328,2.263,6.244,25.241-.977,50.426-.586,82.823,0,3.609.065,4.681-6.17,4.681-9.7" transform="translate(0 2.234)" fill="#e8e8e8"/>
            <path id="Trazado_776572" data-name="Trazado 776572" d="M212.205,19.455c-3.935-2.186-10.64-.741-14.066-3.191-2.729-1.953-.961-5.171-2.541-7.35-1.484-2.047-4.295-2.426-6.272-3.451-6.494-3.367-7.208-2.235-13.257.494-1.724.777-4.934,1.585-6.662,1.143-2.974-.757-2.61-3.4-4-4.824-3.618-3.716-9.386-2.566-12.456,1.2-2.431,2.98-3.588,8.154-6.192,10.828-4.578,4.7-6.95-.064-11.595-1.485-3.252-1-10.5.1-12.521,2.46-2.653,3.1-2.827,10.939.548,13.559,3.267,2.536,10.547,1.339,15.628,2.082,4.805.7,9.76.521,14.691.521h29.529c9.094,0,20.6,2.032,28.276-2.486,4.266-2.51,6.926-6.142.888-9.5" transform="translate(5.551 0)" fill="#e8e8e8"/>
            <path id="Trazado_776573" data-name="Trazado 776573" d="M65.719,56.575q1.053,1.006,2.069,2.021.384.383.761.768c9.133,9.289,15.856,19.066,19.317,27.443q.268.648.509,1.286h0c2.874,7.578,2.943,13.889-.462,17.457-.042.044-.084.087-.127.129a8.292,8.292,0,0,1-.8.707c-3.973,3.072-10.843,2.7-19-.462q-.764-.3-1.543-.626c-8.793-3.714-18.917-10.512-28.48-19.641q-1.122-1.07-2.169-2.185-.446-.474-.88-.956C26.821,73.536,22.1,62.8,19.373,53.982q-.166-.541-.324-1.072a90.9,90.9,0,0,1-3.2-15.332c-.063-.583-.087-.9-.087-.9s.244.007.7.035a92.649,92.649,0,0,1,20.19,3.727q.486.146.979.3c9.105,2.842,19.527,7.663,28.084,15.831" transform="translate(0.725 1.688)" fill="#4adbd1"/>
            <g id="Grupo_1030887" data-name="Grupo 1030887" transform="translate(16.49 38.37)" style="mix-blend-mode: overlay;isolation: isolate">
              <g id="Grupo_1030886" data-name="Grupo 1030886">
                <g id="Grupo_1030885" data-name="Grupo 1030885" clip-path="url(#clip-path-5)">
                  <path id="Trazado_776574" data-name="Trazado 776574" d="M68.549,59.363,57.8,81.136a273.035,273.035,0,0,0,23.2,19.718l6.86-14.049q.267.65.509,1.287l-6.534,13.383q2.972,2.2,5.947,4.2a8.153,8.153,0,0,1-.8.706q-2.892-1.952-5.9-4.175l-13.105,3.712q-.764-.3-1.543-.626l13.615-3.856q-4.112-3.083-8.426-6.656-7.068-5.857-14.636-12.993l-21.2,1.68h0q-.447-.474-.88-.955l21.081-1.67q-7.41-7.04-15.2-15.208c-3.3-3.462-6.442-6.863-9.381-10.112L19.373,53.981q-.168-.541-.325-1.072l11.318,1.452C24.53,47.868,19.557,42.032,15.852,37.576c-.064-.583-.088-.894-.088-.894s.244.007.7.033c3.791,4.563,8.946,10.618,15.021,17.362l5.169-13.635c.324.1.652.2.979.3L32.255,54.93c2.91,3.219,6.022,6.584,9.287,10.01C46.2,69.824,51.435,75.111,57.025,80.4L67.787,58.595q.384.383.761.768" transform="translate(-15.765 -36.682)"/>
                </g>
              </g>
            </g>
            <path id="Trazado_776575" data-name="Trazado 776575" d="M53.338,91.03q1.409.369,2.789.766.521.149,1.038.3c12.489,3.7,23.107,9,30.193,14.651q.549.438,1.069.879c6.187,5.238,9.3,10.726,8.052,15.5-.015.059-.03.116-.047.174a8.282,8.282,0,0,1-.36,1.006c-1.987,4.612-8.175,7.618-16.85,8.8q-.813.11-1.653.2c-9.49,1.009-21.642-.033-34.428-3.387q-1.5-.394-2.956-.861h0q-.62-.2-1.232-.41h0C27.524,124.71,18.2,117.607,11.535,111.212q-.408-.392-.8-.781A90.864,90.864,0,0,1,.509,98.565C.172,98.087,0,97.825,0,97.825s.217-.112.63-.31A92.612,92.612,0,0,1,20.1,91c.331-.072.665-.143,1-.212,9.343-1.924,20.795-2.754,32.238.247" transform="translate(0 4.097)" fill="#4a9a94"/>
            <g id="Grupo_1030890" data-name="Grupo 1030890" transform="translate(0 94.88)" style="mix-blend-mode: overlay;isolation: isolate">
              <g id="Grupo_1030889" data-name="Grupo 1030889">
                <g id="Grupo_1030888" data-name="Grupo 1030888" clip-path="url(#clip-path-6)">
                  <path id="Trazado_776576" data-name="Trazado 776576" d="M57.165,92.022l1.146,24.254a272.936,272.936,0,0,0,29.851,6.01l-.8-15.613q.549.438,1.069.879l.766,14.872c2.442.321,4.86.589,7.238.8a8.119,8.119,0,0,1-.359,1.007q-3.475-.306-7.183-.794l-9.667,9.6q-.813.111-1.653.2l10.043-9.968q-5.091-.7-10.595-1.741c-6.015-1.133-12.394-2.563-19.1-4.277L40.184,128.981q-.62-.2-1.233-.41L56.586,116.9q-9.893-2.57-20.661-5.944c-4.564-1.431-8.96-2.883-13.1-4.3l-11.284,4.482q-.408-.392-.8-.78l10.6-4.212C13.088,103.289,5.91,100.593.51,98.488c-.338-.478-.51-.74-.51-.74s.217-.111.63-.31c5.527,2.156,12.97,4.955,21.551,7.912L20.1,90.919c.332-.071.665-.143,1-.211l2.166,15.016c4.1,1.406,8.457,2.842,12.975,4.258,6.438,2.018,13.581,4.107,21.034,6.027L56.127,91.718l1.039.3" transform="translate(0 -90.707)"/>
                </g>
              </g>
            </g>
            <path id="Trazado_776577" data-name="Trazado 776577" d="M316.856,129.262q-1.407.372-2.8.707-.527.127-1.052.248c-12.692,2.93-24.541,3.552-33.492,2.123q-.693-.11-1.363-.237h0c-7.963-1.51-13.379-4.751-14.641-9.519-.016-.059-.03-.117-.044-.175a8.186,8.186,0,0,1-.183-1.053c-.543-4.992,3.362-10.657,10.328-15.961q.653-.5,1.34-.987c7.761-5.554,18.849-10.632,31.629-14.013q1.5-.4,3-.707.639-.132,1.275-.25c11.885-2.2,23.5-.615,32.448,1.669q.548.14,1.083.283a90.865,90.865,0,0,1,14.742,5.29c.529.25.809.393.809.393s-.134.2-.4.579A92.651,92.651,0,0,1,345.8,112.917q-.38.339-.768.678c-7.183,6.277-16.74,12.641-28.176,15.667" transform="translate(12.11 4.066)" fill="#4adbd1"/>
            <g id="Grupo_1030893" data-name="Grupo 1030893" transform="translate(275.385 93.503)" style="mix-blend-mode: overlay;isolation: isolate">
              <g id="Grupo_1030892" data-name="Grupo 1030892">
                <g id="Grupo_1030891" data-name="Grupo 1030891" clip-path="url(#clip-path-7)">
                  <path id="Trazado_776578" data-name="Trazado 776578" d="M313,130.171l-12.945-20.542a273.157,273.157,0,0,0-28.939,9.475l8.391,13.191q-.693-.11-1.362-.237h0l-7.993-12.566c-2.283.924-4.52,1.881-6.692,2.872a8.015,8.015,0,0,1-.183-1.053q3.176-1.447,6.642-2.847l3.686-13.114q.651-.5,1.339-.987l-3.828,13.622q4.776-1.9,10.077-3.7c5.792-1.977,12.049-3.876,18.728-5.686l9.65-18.953q.637-.132,1.275-.25l-9.6,18.845q9.875-2.637,20.908-5.005c4.677-1,9.218-1.9,13.524-2.71l7.612-9.46q.549.14,1.084.283l-7.153,8.89c8.585-1.583,16.159-2.771,21.894-3.6.53.25.809.393.809.393s-.133.2-.4.579c-5.87.846-13.728,2.077-22.651,3.73l8.921,11.534q-.38.339-.768.678l-9.282-12c-4.266.8-8.76,1.692-13.389,2.686-6.6,1.415-13.842,3.116-21.275,5.116l12.965,20.574q-.527.127-1.052.248" transform="translate(-263.273 -89.391)"/>
                </g>
              </g>
            </g>
            <path id="Trazado_776579" data-name="Trazado 776579" d="M293.311,100.516q-1.051,1.007-2.11,1.977-.4.367-.8.727c-9.685,8.712-19.75,15-28.272,18.081-.44.159-.875.311-1.307.452-7.7,2.537-14.007,2.325-17.42-1.235-.042-.043-.083-.087-.122-.131a8.115,8.115,0,0,1-.671-.833c-2.893-4.1-2.222-10.952,1.3-18.966q.331-.75.695-1.513c4.1-8.619,11.341-18.433,20.882-27.581q1.12-1.073,2.279-2.07h0q.494-.424.995-.836c9.33-7.683,20.262-11.922,29.2-14.257q.548-.143,1.085-.277a90.836,90.836,0,0,1,15.46-2.513c.584-.039.9-.048.9-.048s-.018.243-.065.7a92.748,92.748,0,0,1-4.618,20q-.168.48-.343.964c-3.244,8.972-8.522,19.169-17.061,27.355" transform="translate(11.078 2.369)" fill="#4a9a94"/>
            <g id="Grupo_1030896" data-name="Grupo 1030896" transform="translate(253.684 53.862)" style="mix-blend-mode: overlay;isolation: isolate">
              <g id="Grupo_1030895" data-name="Grupo 1030895">
                <g id="Grupo_1030894" data-name="Grupo 1030894" clip-path="url(#clip-path-8)">
                  <path id="Trazado_776580" data-name="Trazado 776580" d="M290.32,103.22l-21.276-11.7a273.074,273.074,0,0,0-20.727,22.307l13.73,7.476q-.661.238-1.307.451h0l-13.079-7.121q-2.325,2.871-4.463,5.754a8.137,8.137,0,0,1-.671-.833q2.077-2.8,4.432-5.708l-3.128-13.258q.329-.75.693-1.513l3.249,13.772q3.26-3.971,7.022-8.122,6.165-6.8,13.629-14.046l-.738-21.255h0q.493-.425.994-.837l.734,21.135q7.36-7.09,15.866-14.506c3.606-3.143,7.141-6.132,10.519-8.922l2.076-11.963q.548-.143,1.086-.276L297.01,65.3c6.744-5.543,12.795-10.251,17.411-13.755.584-.038.9-.048.9-.048s-.018.243-.065.7c-4.726,3.585-11,8.466-18.01,14.236L310.635,72.2q-.168.48-.343.965l-13.935-6c-3.344,2.766-6.844,5.725-10.412,8.836-5.086,4.434-10.6,9.432-16.134,14.781l21.309,11.718q-.4.367-.8.727" transform="translate(-242.527 -51.493)"/>
                </g>
              </g>
            </g>
            <path id="Trazado_776581" data-name="Trazado 776581" d="M40.537,205.268c-9.527-2.99-29.992-16.339-20.516-30.619s23.828-14.574,32.659-22.18,6.256-17.618-2.208-25.048-6.138-16.438,7.712-19.2S173.746,90.6,191.776,89.631s113.328,3.08,130.633,8.074c36.429,10.516,44.157,28.349,30.542,32.586s-22.63,17.443-11.408,22.179c19.135,8.075,34.993,31.661,15.841,41.907s-65.518,24.781-150.889,24.781c-46,0-126.712-1.576-165.958-13.889" transform="translate(0.809 22.169)" fill="#e8e8e8"/>
            <path id="Trazado_776582" data-name="Trazado 776582" d="M145.372,132.121l-2.347,50.533h31.489l-2.469-50.533Z" transform="translate(6.58 6.078)" fill="#15b0c0"/>
            <path id="Trazado_776583" data-name="Trazado 776583" d="M249.908,44.424H74.757a9.224,9.224,0,0,0-9.2,9.194v85.825a9.224,9.224,0,0,0,9.2,9.2h175.15a9.224,9.224,0,0,0,9.194-9.2V53.618a9.223,9.223,0,0,0-9.194-9.194" transform="translate(3.016 2.044)" fill="#295a70"/>
            <rect id="Rectángulo_364931" data-name="Rectángulo 364931" width="180.403" height="91.079" transform="translate(75.147 53.036)" fill="#15b0c0"/>
            <path id="Trazado_776670" data-name="Trazado 776670" d="M0,0H33.839V14.074H0Z" transform="translate(78.668 54.662)" fill="#5573c6"/>
            <rect id="Rectángulo_364933" data-name="Rectángulo 364933" width="81.927" height="14.074" transform="translate(119.186 54.662)" fill="#eafff3"/>
            <rect id="Rectángulo_364934" data-name="Rectángulo 364934" width="44.526" height="14.074" transform="translate(207.346 54.662)" fill="#5573c6"/>
            <rect id="Rectángulo_364935" data-name="Rectángulo 364935" width="33.839" height="20.482" transform="translate(78.668 118.335)" fill="#acd9ea"/>
            <rect id="Rectángulo_364936" data-name="Rectángulo 364936" width="39.676" height="20.482" transform="translate(117.405 118.335)" fill="#acd9ea"/>
            <rect id="Rectángulo_364937" data-name="Rectángulo 364937" width="36.538" height="20.482" transform="translate(161.979 118.335)" fill="#acd9ea"/>
            <rect id="Rectángulo_364938" data-name="Rectángulo 364938" width="47.531" height="20.482" transform="translate(202.894 118.335)" fill="#acd9ea"/>
            <rect id="Rectángulo_364939" data-name="Rectángulo 364939" width="58.575" height="37.067" transform="translate(78.668 74.589)" fill="#4adbd1"/>
            <rect id="Rectángulo_364940" data-name="Rectángulo 364940" width="110.869" height="37.067" transform="translate(141.004 74.589)" fill="#5573c6"/>
            <g id="Grupo_1030899" data-name="Grupo 1030899" transform="translate(75.147 53.036)" opacity="0.2" style="mix-blend-mode: overlay;isolation: isolate">
              <g id="Grupo_1030898" data-name="Grupo 1030898">
                <g id="Grupo_1030897" data-name="Grupo 1030897" clip-path="url(#clip-path-9)">
                  <path id="Trazado_776584" data-name="Trazado 776584" d="M252.245,141.782V50.7l-180.4,91.079Z" transform="translate(-71.842 -50.703)"/>
                </g>
              </g>
            </g>
            <path id="Trazado_776585" data-name="Trazado 776585" d="M189.215,176.1H130.008a5.279,5.279,0,0,0-5.279,5.28v.378a5.281,5.281,0,0,0,5.279,5.28h59.207a5.28,5.28,0,0,0,5.28-5.28v-.378a5.279,5.279,0,0,0-5.28-5.28" transform="translate(5.738 8.102)" fill="#373f51"/>
            <path id="Trazado_776586" data-name="Trazado 776586" d="M256.317,104.3h-53.5c-1.545,0-2.81,3.654-2.81,8.119v75.778c0,4.465,1.265,8.12,2.81,8.12h53.5c1.542,0,2.809-3.655,2.809-8.12V112.417c0-4.465-1.267-8.119-2.809-8.119" transform="translate(9.201 4.798)" fill="#295a70"/>
            <rect id="Rectángulo_364942" data-name="Rectángulo 364942" width="55.101" height="80.417" transform="translate(211.219 114.895)" fill="#15b0c0"/>
            <rect id="Rectángulo_364943" data-name="Rectángulo 364943" width="10.174" height="12.738" transform="translate(212.48 116.702)" fill="#0abaea"/>
            <rect id="Rectángulo_364944" data-name="Rectángulo 364944" width="24.633" height="12.738" transform="translate(224.663 116.702)" fill="#eafff3"/>
            <rect id="Rectángulo_364945" data-name="Rectángulo 364945" width="13.388" height="12.738" transform="translate(251.171 116.702)" fill="#0abaea"/>
            <rect id="Rectángulo_364946" data-name="Rectángulo 364946" width="10.174" height="18.538" transform="translate(212.48 174.332)" fill="#acd9ea"/>
            <rect id="Rectángulo_364947" data-name="Rectángulo 364947" width="11.93" height="18.538" transform="translate(224.127 174.332)" fill="#acd9ea"/>
            <rect id="Rectángulo_364948" data-name="Rectángulo 364948" width="10.986" height="18.538" transform="translate(237.53 174.332)" fill="#acd9ea"/>
            <rect id="Rectángulo_364949" data-name="Rectángulo 364949" width="14.292" height="18.538" transform="translate(249.832 174.332)" fill="#acd9ea"/>
            <rect id="Rectángulo_364950" data-name="Rectángulo 364950" width="17.612" height="33.551" transform="translate(212.48 134.736)" fill="#b0d9c7"/>
            <rect id="Rectángulo_364951" data-name="Rectángulo 364951" width="33.335" height="33.551" transform="translate(231.224 134.736)" fill="#4adbd1"/>
            <g id="Grupo_1030902" data-name="Grupo 1030902" transform="translate(211.219 114.895)" opacity="0.2" style="mix-blend-mode: overlay;isolation: isolate">
              <g id="Grupo_1030901" data-name="Grupo 1030901">
                <g id="Grupo_1030900" data-name="Grupo 1030900" clip-path="url(#clip-path-10)">
                  <path id="Trazado_776587" data-name="Trazado 776587" d="M257.03,190.259V109.842l-55.1,80.417Z" transform="translate(-201.929 -109.842)"/>
                </g>
              </g>
            </g>
            <path id="Trazado_776588" data-name="Trazado 776588" d="M235.995,105.921H221.288a1.131,1.131,0,1,0,0,2.263h14.707a1.131,1.131,0,0,0,0-2.263" transform="translate(10.128 4.873)"/>
            <path id="Trazado_776589" data-name="Trazado 776589" d="M228.342,188.12a1.7,1.7,0,1,0,1.7,1.7,1.7,1.7,0,0,0-1.7-1.7" transform="translate(10.427 8.654)"/>
            <path id="Trazado_776590" data-name="Trazado 776590" d="M276.925,132.121H249.078a4.78,4.78,0,0,0-4.767,4.766v63.475a4.781,4.781,0,0,0,4.767,4.767h27.848a4.78,4.78,0,0,0,4.766-4.767V136.887a4.779,4.779,0,0,0-4.766-4.766" transform="translate(11.239 6.078)" fill="#2c5570"/>
            <path id="Trazado_776591" data-name="Trazado 776591" d="M277.971,134.039s-9.868.021-12.794,0c-.9-.006-1.013,1.631-2.258,1.631s-1.358-1.624-2.258-1.631c-3.178-.022-12.795,0-12.795,0a1.761,1.761,0,0,0-1.756,1.756v65.733a1.761,1.761,0,0,0,1.756,1.755h30.105a1.763,1.763,0,0,0,1.758-1.755V135.8a1.763,1.763,0,0,0-1.758-1.756" transform="translate(11.322 6.166)" fill="#1bb1c0"/>
            <rect id="Rectángulo_364953" data-name="Rectángulo 364953" width="5.992" height="13.501" transform="translate(258.963 141.428)" fill="#0abaea"/>
            <rect id="Rectángulo_364954" data-name="Rectángulo 364954" width="14.506" height="13.501" transform="translate(266.136 141.428)" fill="#eafff3"/>
            <rect id="Rectángulo_364955" data-name="Rectángulo 364955" width="7.884" height="13.501" transform="translate(281.746 141.428)" fill="#0abaea"/>
            <rect id="Rectángulo_364956" data-name="Rectángulo 364956" width="30.118" height="5.391" transform="translate(259.512 186.933)" fill="#acd9ea"/>
            <rect id="Rectángulo_364957" data-name="Rectángulo 364957" width="30.118" height="5.391" transform="translate(259.238 194.272)" fill="#acd9ea"/>
            <rect id="Rectángulo_364958" data-name="Rectángulo 364958" width="30.118" height="5.391" transform="translate(258.963 201.613)" fill="#acd9ea"/>
            <rect id="Rectángulo_364959" data-name="Rectángulo 364959" width="30.668" height="13.194" transform="translate(258.961 156.456)" fill="#b0d9c7"/>
            <rect id="Rectángulo_364960" data-name="Rectángulo 364960" width="30.668" height="14.735" transform="translate(258.961 170.603)" fill="#4adbd1"/>
            <g id="Grupo_1030905" data-name="Grupo 1030905" transform="translate(257.432 140.206)" opacity="0.2" style="mix-blend-mode: overlay;isolation: isolate">
              <g id="Grupo_1030904" data-name="Grupo 1030904">
                <g id="Grupo_1030903" data-name="Grupo 1030903" clip-path="url(#clip-path-11)">
                  <path id="Trazado_776592" data-name="Trazado 776592" d="M277.971,134.039,246.11,201.528a1.761,1.761,0,0,0,1.756,1.755h30.105a1.763,1.763,0,0,0,1.758-1.755V135.8a1.763,1.763,0,0,0-1.758-1.756" transform="translate(-246.11 -134.039)"/>
                </g>
              </g>
            </g>
            <path id="Trazado_776593" data-name="Trazado 776593" d="M262.213,133.8a.736.736,0,1,0,.735.736.739.739,0,0,0-.735-.736" transform="translate(12.029 6.155)" fill="#163b4f"/>
            <path id="Trazado_776594" data-name="Trazado 776594" d="M265.133,132.76h-5.479a.314.314,0,0,0,0,.628h5.479a.314.314,0,0,0,0-.628" transform="translate(11.931 6.108)" fill="#2f3030"/>
            <path id="Trazado_776595" data-name="Trazado 776595" d="M249.192,107.1c1.588.731,4.348.311,6.085.5,2.161.242,7.066.928,9.172.388.6-.155,1.234-.3,1.5-.857a2.377,2.377,0,0,0-.35-2.477c-.737-.673-3.275-.266-3.839-.173a22.172,22.172,0,0,1-4.582.213c-2.528-.028-5.219.292-6.158-.35-1.182-.808-4.118-2.2-6.46-3.784a13.122,13.122,0,0,1-3.736-3.454c-.267-.728.548-5.206-.19-4.97-.143.046-.063.051-.1.99a14.968,14.968,0,0,1-.165,1.664s.106-3.6-.294-3.492c-.255.071-.025,1.054-.088,1.968a7.439,7.439,0,0,1-.314,1.711s.173-3.565-.36-3.166c-.263.2,0,.912-.1,1.723-.121,1.014-.181,1.534-.181,1.534a14.837,14.837,0,0,0-.3-2.433c-.357,0-.151,1.291-.206,2.281-.026.464-.259,1.244-.266,1.5-.02.917-.164,1.352.56,1.913.37.288,1.207.767,1.667,1.075a33.04,33.04,0,0,1,2.586,2.508c1.4,1.125,4.481,4.427,6.111,5.178" transform="translate(10.96 4.2)" fill="#f7b691"/>
            <path id="Trazado_776596" data-name="Trazado 776596" d="M235.71,151.38c-.846.82-.978,4.05-1.73,4.957-.861,1.038-3.863,4.606-3.18,5.338.376.4,2.318-2.424,3.957-3.082,1.275-.513,1.579-.22,2-.874.464-.722-.238-1.49-.1-2.335.218-1.294,2.647-4.034,1.715-4.956-.5-.5-2.16.459-2.667.952" transform="translate(10.613 6.914)" fill="#f7b691"/>
            <path id="Trazado_776597" data-name="Trazado 776597" d="M265.811,125.592c-.437-3.522-.795-7.25.135-9.527a40.414,40.414,0,0,0,2.228-10.007,6.405,6.405,0,0,0-1.274-4.1c-1.327-1.545-7.3,2.776-8.231,4.587-1.318,2.562.653,3.47.85,5.528.331,3.453.518,5.04-.245,7.613-.454,1.532-2.852,4.814-1.907,6.1,1.045,1.42,8.66,1.554,8.443-.2" transform="translate(11.83 4.675)" fill="#f4a338"/>
            <path id="Trazado_776598" data-name="Trazado 776598" d="M262.466,104.273c-.411-.44.506-1.3,1.074-2.176a2.874,2.874,0,0,0,.546-2.209c-.148-.473-1.145-1.149-1.238-1.636-.134-.7-.02-.987.79-1.97.053-.064-.112-.684-.06-.747.4-.475,1.356-.77,1.567-.991.114-.118-.049-.259-.01-.312.268-.359,1.645-1.709,2.805-1.461,3.574.763,4.154,2.954,2.532,5.337-.5.734-2.257,1.608-2.951,2.161-.974.778-.751,2.4-1.815,3.05-.72.44-2.663,1.57-3.241.953" transform="translate(12.07 4.267)" fill="#f7b691"/>
            <path id="Trazado_776599" data-name="Trazado 776599" d="M234.259,155.071c.029-3.029,2.134-9.963,3-13.154.377-1.384.849-4.265,1.526-5.528a12.44,12.44,0,0,1,2.372-2.744c.87-.712,9.828-5.772,10.875-5.549.673.143,7.9,2.487,8.1,3.146.129.427-4.352.294-7.816,1.961a25.968,25.968,0,0,0-8.007,6.617c-.893,1.143-2.288,5.337-2.288,5.337s-1.6,4.136-2.1,5.528a35.727,35.727,0,0,1-2.765,4.575c-.677.98-2.92,1.191-2.907-.19" transform="translate(10.777 5.893)" fill="#4868be"/>
            <path id="Trazado_776600" data-name="Trazado 776600" d="M253.9,144.822c-.065.809,1.818,1.715,2.1,2.478.377,1.029,0,3.289,0,4.385,0,.81-.143,2.122.542,2.047.764-.084.473-3.37,1.458-4.429.606-.65,1.458-1.256,1.049-2.242-.351-.85-.7-.679-1.524-1.1-.722-.367-1.48-2.256-2.288-2.287a1.8,1.8,0,0,0-1.335,1.143" transform="translate(11.68 6.61)" fill="#f7b691"/>
            <path id="Trazado_776601" data-name="Trazado 776601" d="M239.693,132.635c2.059,5.056,10.932,12.357,16.2,15.059.894.459,2.587-.525,2.478-1.525-.4-3.7-10.58-13.439-10.58-13.439s6.97-.114,8.1-.1c2.859.048,8.368.771,10.294-.953,1.413-1.266,1.185-6.168.1-7.721-1.327-1.893-5.412-1.179-7.721-1.048-1.87.1-5.445,1.384-7.244,1.906-1.969.57-5.932,1.67-7.816,2.478-1,.428-3.258,1.16-3.813,2.1a5.012,5.012,0,0,0,0,3.241" transform="translate(11.015 5.644)" fill="#5573c6"/>
            <path id="Trazado_776602" data-name="Trazado 776602" d="M275.481,117.766c-.231-1.733-2.062-3.841-2.825-5.412-.951-1.956-2.994-6.467-4.575-7.959-.451-.426-.91-.885-1.525-.811a2.376,2.376,0,0,0-1.907,1.62c-.175.983,1.526,2.909,1.907,3.337a22.259,22.259,0,0,1,2.628,3.757c1.328,2.152,3.037,4.255,3,5.392-.051,1.431.34,4.658.254,7.483a13.132,13.132,0,0,1-.922,5c-.473.614-4.693,2.319-4.1,2.817.115.1.076.025.887-.447a14.908,14.908,0,0,1,1.5-.75s-3.1,1.836-2.794,2.114c.2.179.9-.542,1.709-.977a7.4,7.4,0,0,1,1.615-.649s-3.106,1.758-2.484,1.995c.308.117.77-.488,1.507-.839.922-.439,1.393-.667,1.393-.667a14.834,14.834,0,0,0-1.9,1.553c.195.3,1.17-.563,2.038-1.046.407-.226,1.19-.446,1.414-.579.786-.473,1.23-.584,1.318-1.5.044-.467,0-1.43.017-1.983a33.384,33.384,0,0,1,.738-3.526c.2-1.783,1.346-6.153,1.11-7.932" transform="translate(12.174 4.765)" fill="#f7b691"/>
            <path id="Trazado_776603" data-name="Trazado 776603" d="M276.309,106.495c-.337-.394-.753-.459-.959-.916a7.759,7.759,0,0,1-.294-1.75c-.12-.729-.487-.812-.692-1.432-.189-.574,0-1.131-.158-1.709-.332-1.228-1.428-1.059-2.2-2.028-.247-.31-.142-.787-.208-1.179q-.152-.9-.3-1.8a4.379,4.379,0,0,0-.15-.888c-.112-.272-.251-.3-.4-.546-.555-.929-.551-1.883-1.838-2.11-.894-.158-2.663.046-2.868,1.063-.128.638.2,1.151.3,1.768.082.5-.7,1.271-.417,1.715.134.213.937-.318.949.339.006.429-.346.627-.472,1.011a5.073,5.073,0,0,0-.236.879c-.066.415.36.569.562.845.322.441.118.483.054.916a2.375,2.375,0,0,0,.633,1.912c.357.535.666,1.443.153,1.9a1.873,1.873,0,0,0,.088,1.26c.256.422.593.345.952.491a2.6,2.6,0,0,1,1.427,1.481c.249.859.573,1.409,1.568,1.362.437-.021.891-.242,1.328-.224.546.022.362.393.9.677.575.3,1.433-.131,2.046-.347,1.084-.381.871-1.948.236-2.689" transform="translate(12.24 4.236)" fill="#661400"/>
            <path id="Trazado_776604" data-name="Trazado 776604" d="M236.542,156.007a3.951,3.951,0,0,1-1.7,1.505c-1.155.351-1.991-.478-2.2-.331-.12.084-1.26,2.152-1.513,2.418s-1.038,1.621-.7,2.017c.27.316,1.183-.165,1.6-.454a5.885,5.885,0,0,0,1.425-1.63c.227-.319.946-.937,1.229-.933.367.005.453.22.453.22l1.847-1.033a2.925,2.925,0,0,0,.013-.925c-.085-.5-.343-.995-.45-.855" transform="translate(10.597 7.176)" fill="#1f0c00"/>
            <path id="Trazado_776605" data-name="Trazado 776605" d="M258.3,146.183a3.957,3.957,0,0,1-.579,2.2c-.761.935-1.918.712-2.012.953-.052.136.155,2.488.092,2.85s.042,1.925.543,2.065c.4.112.889-.8,1.077-1.27a5.893,5.893,0,0,0,.275-2.146,2.758,2.758,0,0,1,.5-1.46c.308-.2.5-.071.5-.071l.957-1.887a2.947,2.947,0,0,0-.505-.774c-.349-.369-.839-.635-.848-.459" transform="translate(11.763 6.723)" fill="#1f0c00"/>
            <path id="Trazado_776606" data-name="Trazado 776606" d="M182.5,183.245a6.764,6.764,0,0,0,.177,1.673c.568,1.24,1.1,2.176.747,2.3-.155.056-.212-.408-.371-.678s-.3-.277-.318-.022c-.064.951.085,2.88-.276,2.707a12.087,12.087,0,0,1-.172-2.332s-.047.478-.049,1.019c0,.711.028,1.534-.1,1.553-.061.008-.07-.024-.15-.071a18.967,18.967,0,0,1-.256-2.426,5.391,5.391,0,0,0-.047.746,5.13,5.13,0,0,1-.037,1.359c-.351.035-.44-2.411-.44-2.411s-.025.5,0,.924c.027.452.086.8,0,.821-.409.112-.507-2.408-.295-3.424a13.037,13.037,0,0,0,.362-1.267,39.934,39.934,0,0,0-.564-5.032l1.9-.169a27.889,27.889,0,0,0-.111,4.726" transform="translate(8.314 8.213)" fill="#f7b691"/>
            <path id="Trazado_776607" data-name="Trazado 776607" d="M202.872,177.568a6.73,6.73,0,0,0,1.093,1.277c1.17.7,2.137,1.17,1.923,1.475-.1.135-.408-.215-.691-.347s-.406-.058-.273.163c.485.818,1.7,2.323,1.305,2.385a12.179,12.179,0,0,1-1.463-1.823s.232.42.539.868c.4.587.892,1.248.8,1.333-.045.042-.072.02-.164.027a18.993,18.993,0,0,1-1.587-1.854,5.435,5.435,0,0,0,.385.641c.343.493.808,1.083.74,1.14-.27.227-1.729-1.736-1.729-1.736s.262.424.525.76c.277.357.523.608.464.677-.275.324-1.786-1.7-2.184-2.653-.108-.254-.261-.973-.422-1.249a25.633,25.633,0,0,0-2.693-3.659l.842-1.382a28,28,0,0,0,2.589,3.956" transform="translate(9.175 7.987)" fill="#f7b691"/>
            <path id="Trazado_776608" data-name="Trazado 776608" d="M200.848,172.763s-.519-1.917-.715-2.668c-.851-3.279-1.78-7.965-3.41-9.531-1.071-1.029-4.913-.856-4.913-.856h-3.787s-3.594-.261-4.689.991c-.906,1.036-1.4,5.771-1.4,5.771l-.9,8.159-.721,10.233,2.8-.085s-.195-3.025-.143-4.243c.158-3.676,1.8-14.605,1.8-14.605s1.025,1.11,2.547,5.134a40.008,40.008,0,0,1,1.328,4.6,1.845,1.845,0,0,1-.856,1.8h7.888a2.658,2.658,0,0,1-.371-.637,3.186,3.186,0,0,1-.257-1.165,36.15,36.15,0,0,1,.259-4.029c.007-.063.014-.126.023-.192l.006-.035c.1-.721.328-1.8.558-2.775.128-.547.256-1.064.36-1.47v-.006c.133-.521.223-.864.223-.864s.474,2.367,1.1,4.768a1.722,1.722,0,0,0,.212.787c.219.4.564.962.974,1.6,1.587,2.453,4.147,6.035,4.147,6.035l1.453-.723s-2.866-3.789-3.526-6" transform="translate(8.295 7.346)" fill="#f4a338"/>
            <path id="Trazado_776609" data-name="Trazado 776609" d="M195.765,148.182c-.276-1.008-1.546-1.363-2.572-1.187a10.223,10.223,0,0,0-2.743,1.3c-.494.262-.847.224-1.322.594a3.452,3.452,0,0,0-.926.975,6.571,6.571,0,0,0-.963,4c-.026,1.342.1,3.042-.646,4.111-.354.506,5.062.949,8.175-.868,1.045-.61.142-.426.26-1.855.182-2.208.848-6.672.737-7.074" transform="translate(8.583 6.76)" fill="#854100"/>
            <path id="Trazado_776610" data-name="Trazado 776610" d="M186.474,180.86a17.689,17.689,0,0,0-.591,2.338c-.085,1.218-.048,4.03-.022,5.25.029,1.4-.027,3.832.035,5.24.078,1.754.436,5.289.681,7.027.221,1.556.843,4.324.992,6.436a3.752,3.752,0,0,0-.461.062,14.136,14.136,0,0,0-2.875,1.154c-.866.481-2.4,1.76-3.252,2.265a7.024,7.024,0,0,1-3.378,1.09c-.217-.038-.533-.408-.745-.471a2,2,0,0,0-1.471.261c-.347.362-.207,1.537-.5,1.941-.36.492-1.625,1.021-1.844,1.589-.273.707.357,2.893.708,2.947.537.084.339-1.634.662-2.071a13.062,13.062,0,0,1,2.662-1.844s12.264-3.241,13.17-4.17c.631-.649,2.614-16.643,2.628-18.425.021-2.763,1.1-10.214,1.1-10.214Z" transform="translate(7.958 8.32)" fill="#f7b691"/>
            <path id="Trazado_776611" data-name="Trazado 776611" d="M176.628,209.88a1.636,1.636,0,0,0-.8.146c-.206.089-.589.325-.791.422-.679.319-2.8,1.065-2.8,1.065l.1.566,2.846-.824a4.35,4.35,0,0,1-.305,1.092c-.39.546-2.1.865-2.21,1.527-.127.746.474,3.419.84,3.352l.1-.019a1.841,1.841,0,0,0,.456-.324,1.87,1.87,0,0,0,.074-.529c.028-.185.119-1.365.136-1.572a5.831,5.831,0,0,1,.1-.673,2.315,2.315,0,0,1,.316-.711,7.752,7.752,0,0,1,.973-.695,5,5,0,0,0,1.417-1.636,2.937,2.937,0,0,0,.153-.63s-.413-.5-.612-.558" transform="translate(7.924 9.655)" fill="#102b3c"/>
            <path id="Trazado_776612" data-name="Trazado 776612" d="M196.562,180.86s1.948,8.141,2.461,10.855c.332,1.752.92,7.007.92,7.007l.929,10.86.949,13.394a13.045,13.045,0,0,0,1.17,3.019c.349.416,2.065.626,1.859,1.129-.135.328-2.407.43-3.029,0-.5-.346-.722-1.7-1.114-2.164-.326-.382-1.5-.52-1.772-.942a2,2,0,0,1,.09-1.492c.109-.19.544-.412.632-.614a7.034,7.034,0,0,0-.271-3.539c-.291-.947-1.177-2.736-1.442-3.691a14.032,14.032,0,0,1-.451-3.065c.018-.752.5-2.224.451-2.975-.124-2.036-2.89-5.592-3.562-7.517-.577-1.658-2.115-5.507-2.53-7.213-.334-1.37-.441-3.892-.743-5.262-.262-1.192.135-3.551-.017-4.762-.076-.591,0-2.383,0-2.383Z" transform="translate(8.788 8.32)" fill="#f7b691"/>
            <path id="Trazado_776613" data-name="Trazado 776613" d="M190.011,162.529c-1.308,0-2.456-2.286-2.456-2.286a2.5,2.5,0,0,0,1.193-.849,11.347,11.347,0,0,0,.925-2.569v-.992a6.487,6.487,0,0,1-1.4-3.878c.136-1.983,3.021-3.787,3.021-3.787s1.983-.992,2.75.812a12.6,12.6,0,0,1,.7,2.357c.037.184-.268.416-.238.6.081.516.469.986.475,1.476,0,.1-.27.2-.273.293-.022.8.093,1.5-.258,1.943-.335.419-1.555.428-2.051.632a1.868,1.868,0,0,0-1.132,1.87c0,.677,1.628,2.073,1.628,2.073s-1.037,2.3-2.885,2.3" transform="translate(8.628 6.804)" fill="#f7b691"/>
            <path id="Trazado_776614" data-name="Trazado 776614" d="M194.186,147.736c-.639-.542-1.408-.25-2.073-.023a4.688,4.688,0,0,0-1.062.338,6.2,6.2,0,0,0-.922.607,6.4,6.4,0,0,0-1.658,1.66,7,7,0,0,0-.53,2.253,15.608,15.608,0,0,0-.258,2.386,18,18,0,0,1,.048,2.526c-.046.324,1.449-.4,1.675-.621a7.717,7.717,0,0,0,.748-.734,6.478,6.478,0,0,0,.992-1.812c.242-.721-.1-1.472.459-2.063a6.246,6.246,0,0,1,1.612-1.135,3.7,3.7,0,0,0,1.138-1.521c.3-.63.471-1.318-.168-1.861" transform="translate(8.634 6.782)" fill="#854100"/>
            <path id="Trazado_776615" data-name="Trazado 776615" d="M204.69,224.761a1.869,1.869,0,0,0-.507-.169c-.177-.061-1.32-.364-1.521-.417a5.761,5.761,0,0,1-.642-.225,2.279,2.279,0,0,1-.643-.439,7.678,7.678,0,0,1-.506-1.082,4.989,4.989,0,0,0-1.352-1.69,2.951,2.951,0,0,0-.591-.265s-.568.315-.66.5a1.652,1.652,0,0,0,0,.812c.05.218.213.637.27.854.191.725.542,2.949.542,2.949h.574l-.295-2.949a4.316,4.316,0,0,1,1.018.5c.468.482.472,2.219,1.1,2.45.709.259,3.448.153,3.448-.219v-.1a1.836,1.836,0,0,0-.236-.507" transform="translate(9.119 10.143)" fill="#102b3c"/>
            <g id="Grupo_1030908" data-name="Grupo 1030908" transform="translate(202.629 174.511)" style="mix-blend-mode: overlay;isolation: isolate">
              <g id="Grupo_1030907" data-name="Grupo 1030907">
                <g id="Grupo_1030906" data-name="Grupo 1030906" clip-path="url(#clip-path-12)">
                  <path id="Trazado_776616" data-name="Trazado 776616" d="M195.645,166.836c-.1.407-.231.924-.359,1.47-.229.979-.46,2.054-.558,2.775,0,.013,0,.025-.006.036-.009.066-.016.13-.023.192a36.394,36.394,0,0,0-.26,4.028,3.2,3.2,0,0,0,.258,1.165l-.98-.167s.464-6.258.714-6.954c.132-.36.9-1.691,1.213-2.545" transform="translate(-193.717 -166.836)"/>
                </g>
              </g>
            </g>
            <path id="Trazado_776617" data-name="Trazado 776617" d="M188.292,174.991h6.4v-.651l-6.519.117Z" transform="translate(8.657 8.02)"/>
            <g id="Grupo_1030911" data-name="Grupo 1030911" transform="translate(203.023 170.43)" style="mix-blend-mode: overlay;isolation: isolate">
              <g id="Grupo_1030910" data-name="Grupo 1030910">
                <g id="Grupo_1030909" data-name="Grupo 1030909" clip-path="url(#clip-path-13)">
                  <path id="Trazado_776618" data-name="Trazado 776618" d="M195.852,166.145s0-.06-.015-.161a2.483,2.483,0,0,0-.085-.412,3.5,3.5,0,0,0-.221-.549c-.048-.1-.1-.2-.15-.3a1.97,1.97,0,0,0-.174-.292,2.759,2.759,0,0,0-.213-.266c-.078-.085-.156-.16-.235-.238a2.872,2.872,0,0,1-.219-.238c-.065-.086-.113-.163-.165-.235a3.126,3.126,0,0,1-.223-.366.708.708,0,0,1-.046-.112l-.014-.04.021.038a.909.909,0,0,0,.062.1c.054.086.149.2.26.334.056.066.116.146.179.218s.145.141.226.215.168.151.249.234a3.1,3.1,0,0,1,.228.278,1.963,1.963,0,0,1,.181.311c.054.108.1.208.141.311a2.841,2.841,0,0,1,.187.582,1.81,1.81,0,0,1,.036.429,1.052,1.052,0,0,1-.007.121l0,.041" transform="translate(-194.094 -162.934)"/>
                </g>
              </g>
            </g>
            <path id="Trazado_776619" data-name="Trazado 776619" d="M197.842,193.887a55.683,55.683,0,0,1-1.124-6.658,54.98,54.98,0,0,0-2.515-12.268h-5.757a21.8,21.8,0,0,0-3.35,8.486,38.9,38.9,0,0,0-.13,7.839c.022.52.059,1.071.1,1.641a60.357,60.357,0,0,0,12.773.959" transform="translate(8.503 8.049)" fill="#5573c6"/>
            <path id="Trazado_776620" data-name="Trazado 776620" d="M197.43,193.887c.593-.027,1.187-.068,1.777-.123a66.174,66.174,0,0,0-1.255-7.171c-1.713-6.671-3.517-11.631-3.517-11.631h-.644a54.98,54.98,0,0,1,2.515,12.268,55.683,55.683,0,0,0,1.124,6.658" transform="translate(8.915 8.049)" fill="#184968"/>
            <g id="Grupo_1030914" data-name="Grupo 1030914" transform="translate(202.706 183.012)" opacity="0.3" style="mix-blend-mode: overlay;isolation: isolate">
              <g id="Grupo_1030913" data-name="Grupo 1030913">
                <g id="Grupo_1030912" data-name="Grupo 1030912" clip-path="url(#clip-path-14)">
                  <path id="Trazado_776621" data-name="Trazado 776621" d="M197.43,193.887c.593-.027,1.187-.068,1.777-.123a66.174,66.174,0,0,0-1.255-7.171c-1.713-6.671-3.517-11.631-3.517-11.631h-.644a54.98,54.98,0,0,1,2.515,12.268,55.683,55.683,0,0,0,1.124,6.658" transform="translate(-193.791 -174.963)" fill="#5573c6"/>
                </g>
              </g>
            </g>
            <path id="Trazado_776622" data-name="Trazado 776622" d="M83.6,208.773c-.8.531-2.008,2.743-1.476,3.541.471.706,1.566.6,2.687.748,1.41.183,1.754.31,2.022-.725.164-.632-.675-.278-1.279-.528-1.107-.458.031-2.747-.575-2.984-.549-.215-.889-.379-1.379-.051" transform="translate(3.772 9.596)" fill="#f7b691"/>
            <path id="Trazado_776623" data-name="Trazado 776623" d="M82.23,210.26a3.377,3.377,0,0,0,.5.59.909.909,0,0,0,.842.067,2.373,2.373,0,0,0,.583-.229,3.781,3.781,0,0,0,.732-.584c.112-.122.41-.591.41-.591a13.226,13.226,0,0,0,1.2,1.692c.363.363,1.676-.012,1.758.283a5.731,5.731,0,0,1,.055,1.142c0,.109-.036.437-.036.437l-3.315.951a3.686,3.686,0,0,1-.522-.282,4.931,4.931,0,0,0-.806-.5l-.044.678-1.846-.147a3.979,3.979,0,0,0,.048-.86,4.887,4.887,0,0,1-.078-1.144,4.939,4.939,0,0,1,.265-.933c.055-.153.258-.566.258-.566" transform="translate(3.759 9.639)"/>
            <path id="Trazado_776624" data-name="Trazado 776624" d="M98.227,209.593c-.3.462.315,1.758,0,2.213-.18.258-.721.317-.432,1.481.227.916,1.9.318,2.749.318a37.267,37.267,0,0,0,5-.128c.525-.087.426-.092.075-.5-.3-.344-1.408-.1-2.138-.316-.747-.225-1.116-.913-1.559-1.059-.369-.121-.792-.832-1.042-1.13-.3-.357-.165-1.579-.591-1.77-.511-.23-1.755.416-2.065.885" transform="translate(4.495 9.599)" fill="#f7b691"/>
            <path id="Trazado_776625" data-name="Trazado 776625" d="M98.109,211.293a4.272,4.272,0,0,0,.7.467,2.147,2.147,0,0,0,1.143.092,4.732,4.732,0,0,0,.779-.144,5.152,5.152,0,0,0,.963-.4,6.084,6.084,0,0,0,.527-.424,14.607,14.607,0,0,0,1.7,1.329c.509.289,2.269.071,2.4.3a2.5,2.5,0,0,1,.131.86c0,.082-.026.327-.026.327l-4.446.552a7.468,7.468,0,0,1-.721-.236,9.771,9.771,0,0,0-1.118-.418l-.026.506-2.508-.2a1.651,1.651,0,0,0,.023-.643,2.154,2.154,0,0,1-.161-.862,2.314,2.314,0,0,1,.313-.687c.068-.113.323-.413.323-.413" transform="translate(4.484 9.702)"/>
            <path id="Trazado_776626" data-name="Trazado 776626" d="M86.545,170.123a58.424,58.424,0,0,0-1,9.662c-.09,5.386.642,11.611.266,14.678-.529,4.309-3.688,16.964-3.688,16.964l4.426.885s4.09-14.855,4.941-19.914c.645-3.835,1.6-12.331,1.6-12.331s4.515,8.73,5.108,12.921c.677,4.787-.737,19.324-.737,19.324h5.311s1.43-16.591.646-22.05a52.79,52.79,0,0,0-2.042-9.983,73.314,73.314,0,0,0-4.505-10.156Z" transform="translate(3.778 7.826)" fill="#373f51"/>
            <path id="Trazado_776627" data-name="Trazado 776627" d="M89.665,150.568c-.809-.809.172-3.442,0-4.573-.167-1.107-1.16-3.17-1.327-4.278-.155-1.021-.614-3.3,0-4.13.447-.606,2.125-.838,2.877-.885.862-.055,2.809-.036,3.4.59a4.481,4.481,0,0,1,.508,2.969c-.006.114-.127.391-.135.505-.029.388.093,1.078.043,1.461a13.5,13.5,0,0,1-.576,2.325c-.169.658-.738.28-1.107.853a13.537,13.537,0,0,0-1.18,4.131c-.036.255.183.849,0,1.032a2.529,2.529,0,0,1-2.507,0" transform="translate(4.05 6.288)" fill="#f7b691"/>
            <path id="Trazado_776628" data-name="Trazado 776628" d="M112.185,165.419a7.758,7.758,0,0,0,1.94.209c1.747-.124,3.135.035,3.028.545-.047.226-.592.072-1,.145-.389.069-.514.251-.248.4.987.543,3.186,1.293,2.745,1.67a12.086,12.086,0,0,1-2.653-.916,11.564,11.564,0,0,0,1.072.56c.771.35,1.687.711,1.62.879-.033.081-.075.077-.183.158a19.494,19.494,0,0,1-2.814-.854,5.2,5.2,0,0,0,.776.423c.655.288,1.5.592,1.45.709-.209.465-2.929-.61-2.929-.61a9.859,9.859,0,0,0,1,.448c.51.185.927.278.891.4-.167.578-2.973-.522-3.926-1.289a12.719,12.719,0,0,0-1.121-1.081c-1.267-.727-3.7-1.054-5.862-1.728l1.152-2.511a26.989,26.989,0,0,0,5.053,2.443" transform="translate(4.876 7.498)" fill="#f7b691"/>
            <path id="Trazado_776629" data-name="Trazado 776629" d="M75.2,135.986a6.611,6.611,0,0,1,.158-1.82c.488-1.7.663-3.254.135-3.256-.233,0-.2.571-.351.956s-.357.456-.446.162c-.332-1.091-.613-3.425-1.081-3.066a12.263,12.263,0,0,0,.353,2.817,11.871,11.871,0,0,1-.329-1.178c-.185-.836-.351-1.819-.531-1.788-.087.016-.092.059-.194.147a19.651,19.651,0,0,0,.256,2.964,5.333,5.333,0,0,1-.256-.856c-.149-.709-.272-1.612-.4-1.584-.505.11-.009,3.026-.009,3.026a9.9,9.9,0,0,1-.233-1.088c-.077-.544-.081-.976-.211-.965-.608.044-.106,3.052.455,4.155a13.208,13.208,0,0,1,.835,1.336,33.806,33.806,0,0,1,.979,6.124l2.232-.573a27.437,27.437,0,0,1-1.362-5.515" transform="translate(3.302 5.926)" fill="#f7b691"/>
            <path id="Trazado_776630" data-name="Trazado 776630" d="M83.754,149.675c-.3.364-1.1,3.244.4,4.55,2.5,2.169,2,6.245,2.088,7.783.142,2.54.056,10.16.056,10.16s4.21.686,5.552.686c1.4,0,5.612-.686,5.612-.686s-.123-7.362-.123-9.816c0-2.931,1.408-9.91.8-11.722-.367-1.1-3.459-.246-4.344-.993-.339-.287-.377-1.516-.377-1.516a17.528,17.528,0,0,1-2.43.458,12.888,12.888,0,0,1-2.062-.458s-.258.8-.377,1.032c-.491.973-4.11-.32-4.8.52" transform="translate(3.831 6.814)" fill="#e6b046"/>
            <path id="Trazado_776631" data-name="Trazado 776631" d="M98.089,150.887c.728,2.554,2.267,6.44,3.772,8.087,2.125,2.325,8.632,4.825,10.9,6.328.706.469-.806,3.142-1.607,2.861a46.389,46.389,0,0,1-8.86-3.9,35.55,35.55,0,0,1-7.55-7.577c-.617-.916-2.162-3.069-1.708-4.077.548-1.217,4.689-3,5.055-1.719" transform="translate(4.276 6.921)" fill="#e6b046"/>
            <path id="Trazado_776632" data-name="Trazado 776632" d="M88.3,152.391c-1.066-2.276-8.442-5.46-8.442-5.46s-3.427-7.724-4.121-11.14c-.283-1.4-3.508.122-3.025,1.463,1.447,4.011,1.633,9.572,3.788,11.822,2.295,2.4,6.886,5.84,11.371,6.841.867.194.806-2.722.43-3.526" transform="translate(3.343 6.221)" fill="#e6b046"/>
            <path id="Trazado_776633" data-name="Trazado 776633" d="M95.23,137.5c-.843-1.481-4.292-2.331-6.162-1.691-2.014.687-2.053,5.136-1.989,5.146.027.72.48,1.246.592,2.043a4.26,4.26,0,0,0,.572,1.948l.344.687a1.947,1.947,0,0,0,2.632,0c.808-.7.946-.335,1.95-.831.606-.3.568-1.56.572-2.236.007-1.023.319-.931.656-1.686.387-.864,1.339-2.493.834-3.38" transform="translate(4.005 6.238)" fill="#3a1200"/>
            <path id="Trazado_776634" data-name="Trazado 776634" d="M93.783,16.012c-.536-.953-1.472-1.577-1.3-2.745.058-.388.128-.806.153-1.243.027-.493.2-.814.2-1.343C92.842,9.3,91.643,5.727,89.8,7.22a3.384,3.384,0,0,0-1.384,2.129c-.1.431.012.89-.058,1.332a4.137,4.137,0,0,0-.1,1.343c.187,1.364.516,2.683.748,4.039l-.084.66a21.464,21.464,0,0,0,2.92-.013c.483,0,.967,0,1.45,0,.6,0,.829-.1.5-.7" transform="translate(4.059 0.316)" fill="#b26600"/>
            <path id="Trazado_776635" data-name="Trazado 776635" d="M97.292,36.641s6.086-1.007,7.322-.457,2.609,1.463,2.243,8.191-1.086,12.08-1.086,12.08-.03,2.38,1.145,3.158a2.984,2.984,0,0,1,1.359,1.6l-1.418,1.052L103.79,58.2l-.32-9.428-1.006-7.962-5.629,1.052Z" transform="translate(4.455 1.657)" fill="#eaa481"/>
            <path id="Trazado_776636" data-name="Trazado 776636" d="M107.218,59.951a1.941,1.941,0,0,0,.4-.448s1.363.339,1.532.722c.218.493-.411,1.03-.411,1.03a23.411,23.411,0,0,1-2.665.112c-.444-.031-.819-.711-1.019-.971a10.513,10.513,0,0,0-.931-.893l-.061,1.984h-.839l-.206-1a7.77,7.77,0,0,1-.3-2.277,4,4,0,0,1,.521-.689s.335-.062.976.4a7.717,7.717,0,0,1,1.17,1.071,4.7,4.7,0,0,0,.892.892,1.5,1.5,0,0,0,.938.069" transform="translate(4.724 2.646)" fill="#221a1a"/>
            <path id="Trazado_776637" data-name="Trazado 776637" d="M107.565,61.777c-.1.2-.364.218-.708.144a10.393,10.393,0,0,1-2.358-1.05l-1.534-1.486s.183,0-.045-1.6-.568-5.716-1.254-7.248-1.035-4.73-.576-5.828c.371-.893,1.107-1.7-.356-1.554a10.688,10.688,0,0,0-1.384.262,4.475,4.475,0,0,1-1.416.141,2.176,2.176,0,0,1-2.084-1.834l.45-4.691,6.025.481h.549s2.792.091,2.563,5.079-.961,11.166-.961,11.166a18.5,18.5,0,0,0,.229,3.935A16.126,16.126,0,0,0,106.4,60.3c.321.411,1.379,1.038,1.168,1.477" transform="translate(4.41 1.704)" fill="#f7b691"/>
            <path id="Trazado_776638" data-name="Trazado 776638" d="M100.939,35.034l-.264-.092-3.031-1.052A18.535,18.535,0,0,1,93.8,32.06c-1.006-.824-.764-.539-1.236-1.969a45.651,45.651,0,0,1-.96-5.537l-.412-3.707.388-2.524.013-.084a4.729,4.729,0,0,1,2.025,1.28c.686.87.869,3.341.869,6.27s-.457,4.164,1.1,5.079,4.9,2.608,5.034,2.792a7.134,7.134,0,0,1,.32,1.372" transform="translate(4.195 0.839)" fill="#bdd5e4"/>
            <path id="Trazado_776639" data-name="Trazado 776639" d="M100.675,34.938l-3.031-1.052A18.556,18.556,0,0,1,93.8,32.055c-1.006-.824-.764-.539-1.236-1.968a45.693,45.693,0,0,1-.96-5.538l-.412-3.706.388-2.524a4.422,4.422,0,0,1,1.789,1.2c.686.869.869,3.341.869,6.27s-.457,4.163,1.1,5.078,4.9,2.609,5.033,2.793a5.977,5.977,0,0,1,.306,1.28" transform="translate(4.195 0.843)" fill="#e5f3fc"/>
            <path id="Trazado_776640" data-name="Trazado 776640" d="M92.573,29.8a20.231,20.231,0,0,1,.986,5.211c0,.022,0,.043-.005.061l0,.013c-.015.1-.044.167-.093.192a.146.146,0,0,1-.029.013.124.124,0,0,1-.029,0,2.8,2.8,0,0,0-.342.032c-1.155.178-4.051.974-4.051.974l-4.118.732L84.883,37c-.1-.548-1.455-8.124-1.367-8.39s-1.555-8.785-1.555-8.785,1.372-.641,3.02-1.556c.053-.029.109-.059.163-.086h0a26.666,26.666,0,0,1,3.679-.554s.827.075,2.14.293l.423.073c.1.017.188.035.276.054,1.3.282,1.469.732,1.469.732l-.006.127v.005l-.091,2.01a5.461,5.461,0,0,0,.71,3.569c.891,1.594-.713,3.693-1.321,4.493-.127.165.084.618.15.814" transform="translate(3.771 0.811)" fill="#bdd5e4"/>
            <path id="Trazado_776641" data-name="Trazado 776641" d="M92.331,29.359c.342,1.161,1.331,4.637,1.235,5.651,0,.022,0,.042-.005.061l0,.013a.284.284,0,0,1-.093.192.247.247,0,0,1-.029.013.132.132,0,0,1-.029,0,2.8,2.8,0,0,0-.342.032c-1.185.176-4.234.974-4.234.974l-3.941.7-.177.031s-1.155-7.028-1.2-7.315a9.12,9.12,0,0,0-.868-2.542c-.474-1.1-.835-7.531-.835-7.531A8.907,8.907,0,0,1,84.8,18.268c.113-.029.229-.059.346-.086h0a26.692,26.692,0,0,1,3.68-.554s.827.074,2.14.292l.423.073c.1.017.188.038.276.055,1.257.288,1.45.822,1.462.859h0v0l-.274,2.009a5.464,5.464,0,0,0,.71,3.57c1.074,1.923-1.35,4.484-1.35,4.484s.043.141.113.383" transform="translate(3.764 0.811)" fill="#e5f3fc"/>
            <path id="Trazado_776642" data-name="Trazado 776642" d="M79.132,25.711s-3.02,5.858,0,6.864a28.5,28.5,0,0,0,6.132,1.19A7.124,7.124,0,0,0,87,33.582l.126-1.763a16.124,16.124,0,0,1-4.153-1.075c-.978-.391-2.179-.484-2.494-1.053-.422-.761.425-1.835,1.235-3.088,1.415-2.187,2.357-3.912,2.357-5.193S83.333,18.73,82.784,19a4.58,4.58,0,0,0-1.821,2.315c-.549,1.281-1.831,4.393-1.831,4.393" transform="translate(3.579 0.873)" fill="#bdd5e4"/>
            <path id="Trazado_776643" data-name="Trazado 776643" d="M78.674,26.007s-3.02,5.308-.16,6.247a36.481,36.481,0,0,0,6.59,1.326,12.963,12.963,0,0,0,1.922,0L87.152,32a16.491,16.491,0,0,1-4.337-1.075c-.977-.391-2.178-.484-2.493-1.053-.423-.763.31-2.087,1.12-3.34,1.415-2.187,2.471-3.661,2.471-4.942S83.355,18.728,82.806,19a2.629,2.629,0,0,0-1.594,1.7c-.549,1.281-2.538,5.3-2.538,5.3" transform="translate(3.555 0.873)" fill="#e5f3fc"/>
            <path id="Trazado_776644" data-name="Trazado 776644" d="M84.6,35.346a19.745,19.745,0,0,0-.569,3.841c-.046,1.831.8,5.276,2.541,5.765,2.29.642,6.108.413,8.853-.136a30.437,30.437,0,0,0,4.622-1.281s-1.419-1.006-1.327-2.2.473-3.234,1.006-3.524c.62-.336,2.335-1.646,2.335-1.646a27.774,27.774,0,0,1-4.731,0,25.9,25.9,0,0,1-3.741-1.769l-3.381.262Z" transform="translate(3.866 1.582)" fill="#3b4167"/>
            <path id="Trazado_776645" data-name="Trazado 776645" d="M84.454,35.346a19.745,19.745,0,0,0-.569,3.841c-.046,1.831.8,5.276,2.542,5.765,2.29.642,6.107.413,8.852-.136A30.437,30.437,0,0,0,99.9,43.534s-1.418-1.006-1.327-2.2.473-3.234,1.007-3.524c.619-.336,2.334-1.646,2.334-1.646a27.775,27.775,0,0,1-4.731,0,25.9,25.9,0,0,1-3.741-1.769l-3.381.262Z" transform="translate(3.859 1.582)" fill="#4adbd1"/>
            <path id="Trazado_776646" data-name="Trazado 776646" d="M92.487,12.378c-.365,1.746-.8,2.123-1.312,2.218a2,2,0,0,0-1.4,2.092c.056,1.068.331,1.638.805,1.716a8.776,8.776,0,0,1-.535,2.963,26.208,26.208,0,0,1-1.261,3.161s-.528-2.347-.815-3.15c-.263-.737-1.352-3-1.352-3a33.864,33.864,0,0,0,.475-4.586c-.137-.687-1.327-2.381-1.19-3.341s-.411-2.609.733-3.433,4.072-.64,4.072-.64l1.784.915a19.2,19.2,0,0,1,0,5.079" transform="translate(3.951 0.293)" fill="#f7b691"/>
            <path id="Trazado_776647" data-name="Trazado 776647" d="M106.583,60.586a2.1,2.1,0,0,0,.416-.448s1.347.339,1.517.722c.218.493-.411,1.03-.411,1.03a23.41,23.41,0,0,1-2.665.112c-.444-.031-.819-.711-1.019-.971a10.515,10.515,0,0,0-.931-.893l-.061,1.984h-.839l-.206-1a7.768,7.768,0,0,1-.3-2.276,3.978,3.978,0,0,1,.521-.69s.335-.062.976.4a7.657,7.657,0,0,1,1.17,1.071,4.7,4.7,0,0,0,.892.892,1.5,1.5,0,0,0,.938.069" transform="translate(4.694 2.675)" fill="#302e2e"/>
            <path id="Trazado_776648" data-name="Trazado 776648" d="M85.973,31.591a1.012,1.012,0,0,1,.813-.16c.571.14,1.316.313,1.8.389.869.137,2.825.629,3.328.629a4.708,4.708,0,0,1,1.156.195c1.326.28,1.46.549,1.636,1.121.188.613-.062,1.035-.155.973-.065-.043.052-.676-.177-1.087a1.172,1.172,0,0,0-.525-.527,1.16,1.16,0,0,1,.377.527c.09.331.195.942.035.929-.266-.023.014-.282-.411-.929a1.6,1.6,0,0,0-.322-.367,1.85,1.85,0,0,1,.281.52,1.3,1.3,0,0,1,0,.823c-.086-.033-.1-.446-.29-.821-.2-.4-.367-.338-.367-.338a1.682,1.682,0,0,1,.234,1.066c-.132.444-.246-.483-.475-.8s-.29-.324-.9-.286c-.366.023-.435-.233-.435-.233l-6.326-.522Z" transform="translate(3.921 1.445)" fill="#f7b691"/>
            <path id="Trazado_776649" data-name="Trazado 776649" d="M90.555,37.208a.345.345,0,0,1-.366-.346V35.9a.387.387,0,0,1,.366-.382l7.963-.336a.35.35,0,0,1,.366.351V36.4a.394.394,0,0,1-.366.386Z" transform="translate(4.149 1.619)" fill="#5a5a59"/>
            <path id="Trazado_776650" data-name="Trazado 776650" d="M90.446,35.582l8.014-1.507,2.655.662-2.609,1.511Z" transform="translate(4.161 1.568)" fill="#6b6968"/>
            <path id="Trazado_776651" data-name="Trazado 776651" d="M99.4,27.688l7.779-2.406h.366l-2.471,9.7L97.8,37.245Z" transform="translate(4.499 1.163)" fill="#5a5a59"/>
            <path id="Trazado_776652" data-name="Trazado 776652" d="M99.754,27.871l7.779-2.589-2.1,9.7-7.276,2.263Z" transform="translate(4.515 1.163)" fill="#6b6968"/>
            <path id="Trazado_776653" data-name="Trazado 776653" d="M86.687,31.342l-.626.4-.587.824-.222.244,1.418.206-1.136-.03-.542-.145.259-.473.588-.846Z" transform="translate(3.91 1.442)" fill="#bdd5e4"/>
            <path id="Trazado_776654" data-name="Trazado 776654" d="M91.317,8.028a2.524,2.524,0,0,1,1.068.855,15.283,15.283,0,0,1,.457,1.991,3.862,3.862,0,0,0,.961-1.74,4.681,4.681,0,0,0-.366-2.929,6.224,6.224,0,0,0-2.243-1.349c-1.8-.616-4.1-1.805-5.869-.422a3.85,3.85,0,0,0-1.06,1.372,8.363,8.363,0,0,0-.6,3.54c.024,1.293.339,2.552.437,3.838a6.173,6.173,0,0,1,0,2.38c-.275.556-1.937.679-1.945,1.3-.01.835,4.542.371,5.13.137.99-.393.017-1.863.506-2.809a17.906,17.906,0,0,0,.559-2.312c.108-.382-.1-.928-.009-1.289.183-.725.705-.022.732-.075a15.584,15.584,0,0,1,1.068-1.954,1.371,1.371,0,0,1,1.175-.533" transform="translate(3.78 0.174)" fill="#b26600"/>
            <path id="Trazado_776655" data-name="Trazado 776655" d="M103.535,30.351c.056.288-.251.59-.685.675s-.833-.079-.889-.368.251-.59.685-.675.833.081.889.368" transform="translate(4.69 1.378)" fill="#afafaf"/>
            <path id="Trazado_776656" data-name="Trazado 776656" d="M224.261,99.553s-.2,1.977-.2,2.637c0,.447.2,1.787.2,1.787l2.088-.006v-1.044s-.16.481,1.847,1.044a23.374,23.374,0,0,0,5.06.562s.031-.937-.195-1.193c-.612-.7-2.295-.493-3.339-1.3a26.464,26.464,0,0,1-2.57-2.489Z" transform="translate(10.308 4.58)" fill="#2c1f1d"/>
            <path id="Trazado_776657" data-name="Trazado 776657" d="M215.511,99.86s.21,1.754.187,2.34c-.019.492-.312,1.941-.312,1.941l-1.963.136v-1.044s.16.481-1.847,1.044a23.374,23.374,0,0,1-5.06.562s-.085-.723.14-.979c.612-.7,2.349-.707,3.393-1.51a26.464,26.464,0,0,0,2.57-2.489Z" transform="translate(9.5 4.594)" fill="#2c1f1d"/>
            <path id="Trazado_776658" data-name="Trazado 776658" d="M221.5,60.662s-.482,8.192-2.168,13.573a92.937,92.937,0,0,0-3.454,19.917,50.778,50.778,0,0,0,0,8.352h-5.06s.081-16.627.884-21.485,2.088-15.137,2.088-15.137l.37-6.031Z" transform="translate(9.698 2.753)" fill="#373f51"/>
            <path id="Trazado_776659" data-name="Trazado 776659" d="M219.449,59.872l-.642,7.228s1.613-.081,1.686,5.622,2.694,16.384,2.694,16.384.27,8.433.431,10.922l.16,2.489h4.505s-.723-14.215-1.205-18.231a106.7,106.7,0,0,1-.562-12.529c.079-2.328-.481-12.209-.481-12.209Z" transform="translate(10.066 2.74)" fill="#2c3863"/>
            <path id="Trazado_776660" data-name="Trazado 776660" d="M228.431,102.518h-4.658l-.161-2.489c-.16-2.489-.482-10.922-.482-10.922s-2.569-10.682-2.642-16.384-1.533-5.622-1.533-5.622l.642-7.228,6.027-.3.56-.027s.561,9.881.481,12.21a106.7,106.7,0,0,0,.562,12.528c.482,4.016,1.205,18.231,1.205,18.231" transform="translate(10.073 2.74)" fill="#344170"/>
            <path id="Trazado_776661" data-name="Trazado 776661" d="M227.869,102.517h-4.1l-.16-2.489c-.161-2.489-.482-10.922-.482-10.922s-2.57-10.682-2.643-16.384-1.533-5.622-1.533-5.622l.643-7.228,6.026-.3c.032.573.558,9.924.479,12.183a106.954,106.954,0,0,0,.563,12.528c.482,4.016,1.205,18.231,1.205,18.231" transform="translate(10.073 2.741)" fill="#373f51"/>
            <path id="Trazado_776662" data-name="Trazado 776662" d="M233.311,44.376l-3.587,3.052-.362-.344c-.429-.4-1.139-1.067-1.566-1.424-.124-.1-.233.056-.327.383a38.635,38.635,0,0,0-.529,5.561l-.321,10.869s-5.354.428-6.639.589a6.315,6.315,0,0,1-.935.016h0c-1.8-.072-4.867-.53-4.867-.53l.371-7.356s-.455-8.192-.99-8.888c-.184-.238-.455-.157-.733.054a6.02,6.02,0,0,0-1.088,1.283l-.448-.455-2.979-3.025s3.052-5.354,5.461-6.692c1.866-1.037,5.051-1.238,6.391-1.277h0c.388-.01.62-.007.62-.007a62.789,62.789,0,0,1,6.639.749c3.428.589,5.89,7.442,5.89,7.442" transform="translate(9.583 1.665)" fill="#aacc9e"/>
            <path id="Trazado_776663" data-name="Trazado 776663" d="M232.919,44.71l-3.2,2.719c-.429-.4-1.5-1.411-1.927-1.767a.631.631,0,0,0-.767,0c-.566.615-.857,5.942-.857,5.942l-.321,10.869s-5.354.429-6.639.589q-.077.011-.169.016h0c-1.8-.071-4.867-.529-4.867-.529l.371-7.357s-.675-8.069-.991-8.888c-.242-.627-1.852.329-2.269.884l-2.978-3.026s3.051-5.353,5.461-6.691c1.866-1.038,5.05-1.24,6.39-1.277h0a63.165,63.165,0,0,1,6.495.742c3.427.588,6.263,7.775,6.263,7.775" transform="translate(9.583 1.665)" fill="#e8e8e8"/>
            <path id="Trazado_776664" data-name="Trazado 776664" d="M219.416,24.515s3.32-.428,3.641,2.3-1.286,5.247-1.018,6.747.519,2.493.666,3.844c.141,1.3-2.488,2.784-3.666,1.66s-.554-1.5-.34-3.369-1.074-1.5-1.77-1.975-1.047-3.748-1.047-4.6.428-3.748.7-3.8,2.517-.827,2.517-.827Z" transform="translate(9.932 1.127)" fill="#f7b691"/>
            <path id="Trazado_776665" data-name="Trazado 776665" d="M218.043,59.67s1.69.881,2.233,1.139c.311.147.3-.4.043-.542a26.29,26.29,0,0,1-3.212-1.966c-.072-.069.274-.082.652.154.478.3.692.629.746.581.173-.157-.26-1.112-1.525-1.844-1.2-.7-2.249.16-2.891-.643a23.6,23.6,0,0,1-2.623-4.337c-.642-1.5-1.957-2.859-.749-3.961.308-.282,1.008-1.082,1.008-1.082l-3.186-3.236s-4.139,4.71-1.837,7.6,4.442,4.748,5.406,6.461a6.406,6.406,0,0,0,3.32,3.1,25.579,25.579,0,0,1,3.033,1.1c.326.141.9.079.6-.146-.726-.545-1.713-1.2-1.713-1.2s1.663.838,2.289,1.169c.241.128.736-.005.511-.173-.843-.631-2.477-1.55-2.477-1.55a28.206,28.206,0,0,0,2.631,1.295c.241.084.372-.285.19-.4-.856-.548-2.447-1.516-2.447-1.516" transform="translate(9.477 2.021)" fill="#f7b691"/>
            <path id="Trazado_776666" data-name="Trazado 776666" d="M213.785,66.56a1.549,1.549,0,0,1-.222-.013l.024-.152a2.547,2.547,0,0,0,1.764-.539c.983-.733,1.616-2.106,1.883-4.078l.152.021c-.272,2.018-.927,3.426-1.947,4.184a2.782,2.782,0,0,1-1.654.576" transform="translate(9.825 2.842)" fill="#2c3863"/>
            <path id="Trazado_776667" data-name="Trazado 776667" d="M226.339,65.874a4.83,4.83,0,0,1-3.245-1.975,3.187,3.187,0,0,1-.311-.679,3.23,3.23,0,0,1-.132-1.4,1.877,1.877,0,0,1,.045-.247l.149-.012-.006.028a3.249,3.249,0,0,0,.225,1.924,2.805,2.805,0,0,0,.163.306,4.58,4.58,0,0,0,3.1,1.888Z" transform="translate(10.242 2.832)" fill="#2c3863"/>
            <path id="Trazado_776668" data-name="Trazado 776668" d="M221.043,22.757a2.779,2.779,0,0,0-3.086-.7c-1.939.7-3.05.592-3.339,1.454-.314.941,1.145,2.491,2.354,3.189.906.525,1.545,3.021,2.108,3.185.188.054.367-1.423.545-1.622,1.087-1.225,1.807-.007,1.208,1.131-.766,1.454.141.929-.012,2.564-.174,1.844.586,1.118,1.03,1.436s2.117.431,2.563-3.767.227-5.3-.9-6.116a4.309,4.309,0,0,0-2.466-.754" transform="translate(9.872 1.006)" fill="#473128"/>
            <path id="Trazado_776669" data-name="Trazado 776669" d="M233.779,54.5c-2.623,2.517-4.747,4.253-5.015,4.949a4.862,4.862,0,0,1-1.608,2.489A19.66,19.66,0,0,1,224.485,64c-.127.1-.781.309-.714.1l.007-.014c.121-.183,1.622-1.286,1.726-1.362-.107.064-1.839,1.111-2.177,1.32-.088.054-.286-.194-.166-.272.31-.2,1.936-1.432,2.038-1.508l-2.31,1.368c-.248.146-.433-.185-.246-.31.6-.4,2.2-1.548,2.3-1.618a22.7,22.7,0,0,1-2.143,1.2c-.209.079-.121-.251.026-.387a13.135,13.135,0,0,0,2.288-1.948l.022-.036c.186-.313-.2.029-.566.215h0c-.2.1-.388.156-.473.031l-.016-.028h0c-.045-.1.554-.839.757-1.058.75-.8,1.544-.589,2.293-1.124a20.985,20.985,0,0,0,3.436-4.926c.536-1.231,1.749-2.611.321-4.766q-.485-.733-.881-1.289c-.305-.431-.6-.823-.6-.823l2.741-2.332.286-.243.657,1.294,1.918,3.779a4.512,4.512,0,0,1-1.232,5.235" transform="translate(10.239 2.033)" fill="#f7b691"/>
          </g>
        </g>
      </g>
    </g>
  </g>
</svg>
