<svg xmlns="http://www.w3.org/2000/svg" width="23.88" height="18.992" viewBox="0 0 23.88 18.992">
  <path id="Trazado_781278" data-name="Trazado 781278" d="M13.7-7.643a9.364,9.364,0,0,1-1.587,5.865A5.539,5.539,0,0,1,7.465.254,5.578,5.578,0,0,1,2.844-1.739,9.09,9.09,0,0,1,1.206-7.452v-3.4a9.241,9.241,0,0,1,1.606-5.878,5.581,5.581,0,0,1,4.627-2.006,5.586,5.586,0,0,1,4.621,1.987A9.062,9.062,0,0,1,13.7-11.045Zm-3.669-3.741A6.769,6.769,0,0,0,9.4-14.732,2.124,2.124,0,0,0,7.439-15.78a2.086,2.086,0,0,0-1.911,1,6.334,6.334,0,0,0-.654,3.12v4.5A7.105,7.105,0,0,0,5.491-3.8,2.1,2.1,0,0,0,7.465-2.7,2.06,2.06,0,0,0,9.407-3.759a6.935,6.935,0,0,0,.622-3.228ZM25.086,0H21.417V-14.162l-4.38,1.352v-2.958l7.655-2.742h.394Z" transform="translate(-1.206 18.738)" fill="#95aef0"/>
</svg>
