<svg xmlns="http://www.w3.org/2000/svg" width="27.638" height="18.992" viewBox="0 0 27.638 18.992">
  <path id="Trazado_781279" data-name="Trazado 781279" d="M13.7-7.643a9.364,9.364,0,0,1-1.587,5.865A5.539,5.539,0,0,1,7.465.254,5.578,5.578,0,0,1,2.844-1.739,9.09,9.09,0,0,1,1.206-7.452v-3.4a9.241,9.241,0,0,1,1.606-5.878,5.581,5.581,0,0,1,4.627-2.006,5.586,5.586,0,0,1,4.621,1.987A9.062,9.062,0,0,1,13.7-11.045Zm-3.669-3.741A6.769,6.769,0,0,0,9.4-14.732,2.124,2.124,0,0,0,7.439-15.78a2.086,2.086,0,0,0-1.911,1,6.334,6.334,0,0,0-.654,3.12v4.5A7.105,7.105,0,0,0,5.491-3.8,2.1,2.1,0,0,0,7.465-2.7,2.06,2.06,0,0,0,9.407-3.759a6.935,6.935,0,0,0,.622-3.228ZM28.844,0H16.174V-2.514l5.979-6.373a14.751,14.751,0,0,0,1.822-2.349,3.773,3.773,0,0,0,.59-1.9,2.823,2.823,0,0,0-.622-1.936,2.245,2.245,0,0,0-1.777-.7,2.422,2.422,0,0,0-1.961.857,3.394,3.394,0,0,0-.717,2.253H15.806a6.06,6.06,0,0,1,.806-3.085,5.682,5.682,0,0,1,2.279-2.19,6.926,6.926,0,0,1,3.339-.793,6.558,6.558,0,0,1,4.437,1.371A4.851,4.851,0,0,1,28.247-13.5a6.215,6.215,0,0,1-.711,2.793A15.521,15.521,0,0,1,25.1-7.389L20.9-2.958h7.947Z" transform="translate(-1.206 18.738)" fill="#8bf8f1"/>
</svg>
