<svg xmlns="http://www.w3.org/2000/svg" width="27.358" height="18.992" viewBox="0 0 27.358 18.992">
  <path id="Trazado_781280" data-name="Trazado 781280" d="M13.7-7.643a9.364,9.364,0,0,1-1.587,5.865A5.539,5.539,0,0,1,7.465.254,5.578,5.578,0,0,1,2.844-1.739,9.09,9.09,0,0,1,1.206-7.452v-3.4a9.241,9.241,0,0,1,1.606-5.878,5.581,5.581,0,0,1,4.627-2.006,5.586,5.586,0,0,1,4.621,1.987A9.062,9.062,0,0,1,13.7-11.045Zm-3.669-3.741A6.769,6.769,0,0,0,9.4-14.732,2.124,2.124,0,0,0,7.439-15.78a2.086,2.086,0,0,0-1.911,1,6.334,6.334,0,0,0-.654,3.12v4.5A7.105,7.105,0,0,0,5.491-3.8,2.1,2.1,0,0,0,7.465-2.7,2.06,2.06,0,0,0,9.407-3.759a6.935,6.935,0,0,0,.622-3.228Zm9.877.516h1.955a2.755,2.755,0,0,0,2.069-.7,2.559,2.559,0,0,0,.673-1.854,2.262,2.262,0,0,0-.667-1.739A2.583,2.583,0,0,0,22.1-15.78a2.707,2.707,0,0,0-1.765.578,1.847,1.847,0,0,0-.711,1.5H15.958a4.512,4.512,0,0,1,.781-2.6,5.2,5.2,0,0,1,2.184-1.8,7.288,7.288,0,0,1,3.091-.647,6.911,6.911,0,0,1,4.6,1.4,4.786,4.786,0,0,1,1.663,3.866,3.889,3.889,0,0,1-.774,2.336A5.031,5.031,0,0,1,25.467-9.5,4.593,4.593,0,0,1,27.8-7.82a4.546,4.546,0,0,1,.768,2.641,4.866,4.866,0,0,1-1.8,3.948A7.223,7.223,0,0,1,22.014.254a6.849,6.849,0,0,1-4.526-1.46,4.768,4.768,0,0,1-1.758-3.859H19.4a2.126,2.126,0,0,0,.781,1.7A2.877,2.877,0,0,0,22.1-2.7a2.891,2.891,0,0,0,2.05-.692A2.388,2.388,0,0,0,24.9-5.23Q24.9-8,21.849-8H19.906Z" transform="translate(-1.206 18.738)" fill="#95aef0"/>
</svg>
