<svg id="Grupo_1032952" data-name="Grupo 1032952" xmlns="http://www.w3.org/2000/svg" xmlns:xlink="http://www.w3.org/1999/xlink" width="265.657" height="114.494" viewBox="0 0 265.657 114.494">
  <defs>
    <clipPath id="clip-path">
      <rect id="Rectángulo_366086" data-name="Rectángulo 366086" width="265.657" height="114.494" fill="none"/>
    </clipPath>
    <clipPath id="clip-path-3">
      <rect id="Rectángulo_366083" data-name="Rectángulo 366083" width="29.553" height="29.553" fill="none"/>
    </clipPath>
  </defs>
  <g id="Grupo_1032951" data-name="Grupo 1032951" clip-path="url(#clip-path)">
    <g id="Grupo_1032950" data-name="Grupo 1032950">
      <g id="Grupo_1032949" data-name="Grupo 1032949" clip-path="url(#clip-path)">
        <path id="Trazado_779306" data-name="Trazado 779306" d="M265.657,326.392c0,1.443-59.469,2.613-132.829,2.613S0,327.834,0,326.392s59.469-2.613,132.829-2.613,132.829,1.17,132.829,2.613" transform="translate(0 -214.801)" fill="#e0dfe5"/>
        <path id="Trazado_779307" data-name="Trazado 779307" d="M290.439,3.827V83.011a3.827,3.827,0,0,1-3.827,3.827H160.381a3.83,3.83,0,0,1-3.83-3.827V3.827A3.83,3.83,0,0,1,160.381,0H286.613a3.827,3.827,0,0,1,3.827,3.827" transform="translate(-103.859 0)" fill="#e0dfe5"/>
        <path id="Trazado_779308" data-name="Trazado 779308" d="M290.439,3.827V5.385H156.551V3.827A3.83,3.83,0,0,1,160.381,0H286.613a3.827,3.827,0,0,1,3.827,3.827" transform="translate(-103.859 0)" fill="#c0bfc1"/>
        <path id="Trazado_779309" data-name="Trazado 779309" d="M530.024,6.353a.118.118,0,0,1-.07-.214l3.366-2.468a.118.118,0,0,1,.14.191l-3.366,2.468a.117.117,0,0,1-.07.023" transform="translate(-351.55 -2.42)" fill="#304572"/>
        <path id="Trazado_779310" data-name="Trazado 779310" d="M533.39,6.354a.118.118,0,0,1-.07-.023l-3.366-2.468a.118.118,0,0,1,.14-.191L533.46,6.14a.118.118,0,0,1-.07.214" transform="translate(-351.55 -2.421)" fill="#304572"/>
        <path id="Trazado_779311" data-name="Trazado 779311" d="M513.4,6.353h-4.376a.118.118,0,0,1-.118-.118V3.766a.118.118,0,0,1,.118-.118H513.4a.118.118,0,0,1,.118.118V6.235a.118.118,0,0,1-.118.118m-4.257-.237h4.139V3.885h-4.139Z" transform="translate(-337.618 -2.42)" fill="#304572"/>
        <path id="Trazado_779312" data-name="Trazado 779312" d="M494.724,7.552H491.19a.118.118,0,1,1,0-.237h3.534a.118.118,0,1,1,0,.237" transform="translate(-325.786 -4.853)" fill="#304572"/>
        <path id="Trazado_779313" data-name="Trazado 779313" d="M251.872,52.042V82.533a4.958,4.958,0,0,1-4.958,4.958h-57.39a4.956,4.956,0,0,1-4.958-4.958V52.042a4.958,4.958,0,0,1,4.958-4.958h57.39a4.96,4.96,0,0,1,4.958,4.958" transform="translate(-122.445 -31.236)" fill="#c1c1c1"/>
        <rect id="Rectángulo_366067" data-name="Rectángulo 366067" width="67.306" height="0.337" transform="translate(62.121 22.411)" fill="#e0dfe5"/>
        <path id="Trazado_779314" data-name="Trazado 779314" d="M251.872,87.254v.337H184.677a.164.164,0,0,1-.111-.044V87.3a.164.164,0,0,1,.111-.044Z" transform="translate(-122.445 -57.886)" fill="#e0dfe5"/>
        <path id="Trazado_779315" data-name="Trazado 779315" d="M251.872,106.7v.316a.157.157,0,0,1-.057.01H184.566v-.337h67.249a.157.157,0,0,1,.057.01" transform="translate(-122.445 -70.783)" fill="#e0dfe5"/>
        <path id="Trazado_779316" data-name="Trazado 779316" d="M251.872,127.364v.337H184.62a.14.14,0,0,1-.054-.01v-.316a.14.14,0,0,1,.054-.01Z" transform="translate(-122.445 -84.496)" fill="#e0dfe5"/>
        <path id="Trazado_779317" data-name="Trazado 779317" d="M251.872,148.034v.316a.157.157,0,0,1-.057.01H184.566v-.337h67.249a.157.157,0,0,1,.057.01" transform="translate(-122.445 -98.202)" fill="#e0dfe5"/>
        <rect id="Rectángulo_366068" data-name="Rectángulo 366068" width="0.337" height="40.407" transform="translate(68.819 15.848)" fill="#e0dfe5"/>
        <rect id="Rectángulo_366069" data-name="Rectángulo 366069" width="0.337" height="40.407" transform="translate(75.773 15.848)" fill="#e0dfe5"/>
        <rect id="Rectángulo_366070" data-name="Rectángulo 366070" width="0.337" height="40.407" transform="translate(82.32 15.848)" fill="#e0dfe5"/>
        <rect id="Rectángulo_366071" data-name="Rectángulo 366071" width="0.337" height="40.407" transform="translate(89.273 15.848)" fill="#e0dfe5"/>
        <rect id="Rectángulo_366072" data-name="Rectángulo 366072" width="0.337" height="40.407" transform="translate(96.23 15.848)" fill="#e0dfe5"/>
        <rect id="Rectángulo_366073" data-name="Rectángulo 366073" width="0.337" height="40.407" transform="translate(102.999 15.848)" fill="#e0dfe5"/>
        <rect id="Rectángulo_366074" data-name="Rectángulo 366074" width="0.337" height="40.407" transform="translate(109.956 15.848)" fill="#e0dfe5"/>
        <rect id="Rectángulo_366075" data-name="Rectángulo 366075" width="0.337" height="40.407" transform="translate(116.499 15.848)" fill="#e0dfe5"/>
        <rect id="Rectángulo_366076" data-name="Rectángulo 366076" width="0.337" height="40.407" transform="translate(123.457 15.848)" fill="#e0dfe5"/>
        <path id="Trazado_779318" data-name="Trazado 779318" d="M322.962,144.827H273.994a1.563,1.563,0,0,1-1.563-1.563V115.77a1.563,1.563,0,0,1,1.563-1.563h48.968a1.564,1.564,0,0,1,1.563,1.563v27.493a1.564,1.564,0,0,1-1.563,1.563" transform="translate(-180.736 -75.767)" fill="#c0bfc1"/>
        <rect id="Rectángulo_366077" data-name="Rectángulo 366077" width="3.064" height="8.41" transform="translate(101.971 55.293)" fill="#e0dfe5"/>
        <rect id="Rectángulo_366078" data-name="Rectángulo 366078" width="3.064" height="8.41" transform="translate(130 55.293)" fill="#e0dfe5"/>
        <rect id="Rectángulo_366079" data-name="Rectángulo 366079" width="3.064" height="12.71" transform="translate(108.979 50.963)" fill="#e0dfe5"/>
        <rect id="Rectángulo_366080" data-name="Rectángulo 366080" width="3.064" height="16.368" transform="translate(115.986 47.305)" fill="#e0dfe5"/>
        <rect id="Rectángulo_366081" data-name="Rectángulo 366081" width="3.064" height="19.982" transform="translate(122.993 43.759)" fill="#e0dfe5"/>
        <path id="Trazado_779319" data-name="Trazado 779319" d="M223.546,84.546a1.628,1.628,0,1,1-1.628-1.628,1.627,1.627,0,0,1,1.628,1.628" transform="translate(-146.145 -55.009)" fill="#e29233"/>
        <path id="Trazado_779320" data-name="Trazado 779320" d="M243.5,125.156a1.628,1.628,0,1,1-1.628-1.628,1.627,1.627,0,0,1,1.628,1.628" transform="translate(-159.38 -81.951)" fill="#373f51"/>
        <path id="Trazado_779321" data-name="Trazado 779321" d="M325.606,85.046a1.628,1.628,0,1,1-1.628-1.628,1.627,1.627,0,0,1,1.628,1.628" transform="translate(-213.854 -55.341)" fill="#5573c6"/>
        <path id="Trazado_779322" data-name="Trazado 779322" d="M464.7,56.475H435.372a1.571,1.571,0,1,1,0-3.141H464.7a1.571,1.571,0,1,1,0,3.141" transform="translate(-287.792 -35.383)" fill="#5573c6"/>
        <path id="Trazado_779323" data-name="Trazado 779323" d="M464.7,73.808H435.372a1.571,1.571,0,1,1,0-3.141H464.7a1.571,1.571,0,1,1,0,3.141" transform="translate(-287.792 -46.882)" fill="#5573c6"/>
        <path id="Trazado_779324" data-name="Trazado 779324" d="M464.7,91.064H435.372a1.571,1.571,0,1,1,0-3.141H464.7a1.571,1.571,0,1,1,0,3.141" transform="translate(-287.792 -58.33)" fill="#5573c6"/>
        <path id="Trazado_779325" data-name="Trazado 779325" d="M481.584,122.819H460.828a1.57,1.57,0,1,1,0-3.141h20.756a1.57,1.57,0,1,1,0,3.141" transform="translate(-304.681 -79.397)" fill="#373f51"/>
        <path id="Trazado_779326" data-name="Trazado 779326" d="M481.584,140.566H460.828a1.571,1.571,0,0,1,0-3.141h20.756a1.571,1.571,0,1,1,0,3.141" transform="translate(-304.681 -91.17)" fill="#373f51"/>
        <path id="Trazado_779327" data-name="Trazado 779327" d="M481.584,172.321H460.828a1.571,1.571,0,0,1,0-3.141h20.756a1.571,1.571,0,1,1,0,3.141" transform="translate(-304.681 -112.237)" fill="#e29233"/>
        <path id="Trazado_779328" data-name="Trazado 779328" d="M481.584,190.068H460.828a1.571,1.571,0,0,1,0-3.141h20.756a1.571,1.571,0,1,1,0,3.141" transform="translate(-304.681 -124.011)" fill="#e29233"/>
        <path id="Trazado_779329" data-name="Trazado 779329" d="M626.582,21.161V45.339a1.3,1.3,0,0,1-1.3,1.3H584.616a1.242,1.242,0,0,1-.458-.087,1,1,0,0,1-.193-.089,1.294,1.294,0,0,1-.646-1.121V21.161a1.3,1.3,0,0,1,1.3-1.3h40.669a1.3,1.3,0,0,1,1.3,1.3" transform="translate(-386.985 -13.176)" fill="#e0dfe5"/>
        <path id="Trazado_779330" data-name="Trazado 779330" d="M627.85,58.724v.73a1.3,1.3,0,0,1-1.3,1.3H585.979a1.793,1.793,0,0,1-.553-.087,1.471,1.471,0,0,1-.2-.073l0-.017.321-1.708,8.654-12.294,2.035,3.338,6.113-8.774,6.122,8.252,1.154-1.945,5.216,5.63,1.021-1.034,5.289,4.47,1.112-2.219,3.838,4.129.428-1.381Z" transform="translate(-388.253 -27.29)" fill="#373f51"/>
        <path id="Trazado_779331" data-name="Trazado 779331" d="M623.722,56.155H584.616a1.268,1.268,0,0,1-.654-.179,1.289,1.289,0,0,1-.643-1.118V53.3l7.151-13.01,1.778,3.735,5.339-9.817,5.348,9.233,1.009-2.178,4.556,6.3.892-1.158,4.621,5,.97-2.485,3.354,4.621L618.708,52Z" transform="translate(-386.985 -22.695)" fill="#c0bfc1"/>
        <path id="Trazado_779332" data-name="Trazado 779332" d="M603.5,50.86a1.089,1.089,0,1,1-1.089-1.089A1.089,1.089,0,0,1,603.5,50.86" transform="translate(-398.931 -33.019)" fill="#fff"/>
        <path id="Trazado_779333" data-name="Trazado 779333" d="M660.31,68.309a1.089,1.089,0,1,1-1.089-1.089,1.089,1.089,0,0,1,1.089,1.089" transform="translate(-436.617 -44.595)" fill="#fff"/>
        <path id="Trazado_779334" data-name="Trazado 779334" d="M643.535,51.536a1.089,1.089,0,1,1-1.089-1.089,1.089,1.089,0,0,1,1.089,1.089" transform="translate(-425.488 -33.468)" fill="#fff"/>
        <path id="Trazado_779335" data-name="Trazado 779335" d="M624.648,32.064a1.089,1.089,0,1,1-1.089-1.089,1.089,1.089,0,0,1,1.089,1.089" transform="translate(-412.958 -20.549)" fill="#fff"/>
        <path id="Trazado_779336" data-name="Trazado 779336" d="M676.683,75.78a1.089,1.089,0,1,1-1.089-1.089,1.089,1.089,0,0,1,1.089,1.089" transform="translate(-447.479 -49.551)" fill="#fff"/>
        <path id="Trazado_779337" data-name="Trazado 779337" d="M384.713,251.809a8.417,8.417,0,0,1-.484-11.287,7.886,7.886,0,0,1,.562-.619,8.373,8.373,0,0,1,5.665-2.419,7.662,7.662,0,0,1,.776.016.9.9,0,0,1,.109,0c.1.006.2.018.307.029.173.019.345.042.512.074s.329.063.491.1c.021.007.038.008.059.015.132.032.264.068.394.109.008,0,.017,0,.021.007.076.022.152.047.228.073a.233.233,0,0,1,.093.032c.181.059.361.132.54.208.112.047.221.094.333.146a1.84,1.84,0,0,1,.207.1c.066.034.137.068.2.105.132.071.263.147.39.227q.227.143.452.3a8.3,8.3,0,0,1,1.127.954,8.42,8.42,0,0,1,1.608,9.528,8.3,8.3,0,0,1-1.686,2.378,8.421,8.421,0,0,1-11.906-.078" transform="translate(-253.617 -157.549)" fill="#e29233"/>
        <path id="Trazado_779338" data-name="Trazado 779338" d="M414.895,250.824l-7.6-3.617,1.55-6.507,1.733-1.241a8.083,8.083,0,0,1,1.581.879,8.2,8.2,0,0,1,1.127.956,8.419,8.419,0,0,1,1.611,9.53" transform="translate(-270.206 -158.862)" fill="#373f51"/>
        <path id="Trazado_779339" data-name="Trazado 779339" d="M394.529,245.892l-6.474-5.37a7.673,7.673,0,0,1,.562-.619,8.372,8.372,0,0,1,5.665-2.419,7.651,7.651,0,0,1,.775.016Z" transform="translate(-257.443 -157.549)" fill="#304572"/>
        <path id="Trazado_779340" data-name="Trazado 779340" d="M406.8,245.892l-.247-8.408a7.651,7.651,0,0,1,.775.016.8.8,0,0,1,.109,0c.1.006.2.018.307.029.172.019.344.042.512.074s.33.063.491.1c.022.007.039.008.06.015.132.032.264.068.394.109a.035.035,0,0,1,.022.007c.076.022.151.047.227.073a.234.234,0,0,1,.093.032,7.349,7.349,0,0,1,.874.354,1.891,1.891,0,0,1,.207.1c.066.034.137.068.2.105.132.071.263.147.39.227q.227.143.452.3Z" transform="translate(-269.717 -157.549)" fill="#5573c6"/>
        <path id="Trazado_779341" data-name="Trazado 779341" d="M544.157,294.935,545.9,292.4l-6.068-4.092-2.66,2.291,4.073,4.747Z" transform="translate(-356.373 -191.268)" fill="#d8998b"/>
        <path id="Trazado_779342" data-name="Trazado 779342" d="M592.82,300.873l-.083,4.419,7.813-.082-.333-4.747Z" transform="translate(-393.233 -199.333)" fill="#d8998b"/>
        <path id="Trazado_779343" data-name="Trazado 779343" d="M560.524,314.859a.312.312,0,0,1-.255-.369c.142-.842.649-3.2,1.981-4.194,1.637-1.228,5.068-1.719,6.315-2.537s2.643-2.794,3.387-2.42,2.148,2.093,4.175,1.847,2.963-.736,3.508-.245.858,7.365.624,7.775-3.089.031-3.338.1-.95-1.57-1.418-1.325-1.038,1.013-1.728,1.366c-.643.329-11.207.28-13.251.006" transform="translate(-371.69 -202.536)" fill="#373f51"/>
        <path id="Trazado_779344" data-name="Trazado 779344" d="M577.992,191.15l.953-18.741,11.681-.082a55.189,55.189,0,0,1,1.828,9.493c.4,4.665,1.43,34.29,1.272,34.7s-13.111.9-13.906.409-1.828-25.779-1.828-25.779" transform="translate(-383.451 -114.325)" fill="#e29233"/>
        <path id="Trazado_779345" data-name="Trazado 779345" d="M499.333,289.842a.309.309,0,0,1,0-.448c.6-.618,2.361-2.285,4.044-2.37,2.068-.1,5.216,1.4,6.725,1.418s3.8-.841,4.21-.116.605,2.93,2.44,3.856,2.9,1.041,3.074,1.752-3.475,6.578-3.9,6.786-2.6-1.7-2.847-1.779.1-1.83-.432-1.888-1.445.261-2.222.169c-.725-.086-9.532-6.013-11.086-7.379" transform="translate(-331.202 -190.414)" fill="#373f51"/>
        <path id="Trazado_779346" data-name="Trazado 779346" d="M547.9,172.083s-13.747,37.236-13.588,38.055,10.648,6.629,11.284,6.629,5.244-8.429,5.244-8.429l.556-36.172Z" transform="translate(-354.473 -114.163)" fill="#e29233"/>
        <path id="Trazado_779347" data-name="Trazado 779347" d="M588.765,312.105a.121.121,0,0,1-.067-.021l-1.9-1.314a.118.118,0,1,1,.135-.195l1.9,1.314a.118.118,0,0,1-.067.216" transform="translate(-389.261 -206.028)" fill="#fff"/>
        <path id="Trazado_779348" data-name="Trazado 779348" d="M583.929,314.751a.118.118,0,0,1-.071-.024l-1.491-1.13a.118.118,0,0,1,.143-.189l1.491,1.13a.118.118,0,0,1-.071.213" transform="translate(-386.322 -207.906)" fill="#fff"/>
        <path id="Trazado_779349" data-name="Trazado 779349" d="M533.871,293.231a.12.12,0,0,1-.1-.054l-1.257-1.935a.118.118,0,0,1,.034-.164.12.12,0,0,1,.164.035l1.258,1.935a.118.118,0,0,1-.035.164.116.116,0,0,1-.064.019" transform="translate(-353.267 -193.095)" fill="#fff"/>
        <path id="Trazado_779350" data-name="Trazado 779350" d="M526.98,292.2a.118.118,0,0,1-.1-.058l-.951-1.611a.118.118,0,0,1,.2-.12l.951,1.611a.118.118,0,0,1-.1.178" transform="translate(-348.899 -192.629)" fill="#fff"/>
        <path id="Trazado_779351" data-name="Trazado 779351" d="M607.431,183.029c-2.119,0-3.413-2.631-3.427-2.661a.118.118,0,0,1,.213-.1c.015.03,1.48,3,3.772,2.46a.118.118,0,1,1,.055.23,2.649,2.649,0,0,1-.613.073" transform="translate(-400.7 -119.547)" fill="#304572"/>
        <path id="Trazado_779352" data-name="Trazado 779352" d="M577.3,219.857a.12.12,0,0,1-.119-.124l1.446-30.41-3.166-2.09a.118.118,0,1,1,.13-.2l3.222,2.127a.117.117,0,0,1,.053.1l-1.449,30.477a.119.119,0,0,1-.118.113" transform="translate(-381.735 -124.07)" fill="#304572"/>
        <path id="Trazado_779353" data-name="Trazado 779353" d="M579.163,112.767s-3.2.145-4.469,2.709-2.228,17.847-2.228,17.847a22.791,22.791,0,0,0,8.727,1.5c5.179-.068,6.93-1.409,6.93-1.409l1-9.425s-.416-9.933-1.707-10.63-6.106-1.144-8.249-.593" transform="translate(-379.785 -74.648)" fill="#4adbd1"/>
        <path id="Trazado_779354" data-name="Trazado 779354" d="M590.961,81.35s-1.627-3.15-.09-3.716,3.226,1.21,3.226,1.21,3.331.494,4.5,2.363-2.147,4.826-2.147,4.826Z" transform="translate(-391.557 -51.43)"/>
        <path id="Trazado_779355" data-name="Trazado 779355" d="M598.613,104.724l.009,3.1a3.016,3.016,0,0,1-2.367,1.044,3.211,3.211,0,0,1-1.824-.19l.183-1.569.181-1.53,3.269-.729Z" transform="translate(-394.357 -69.476)" fill="#d8998b"/>
        <path id="Trazado_779356" data-name="Trazado 779356" d="M598.427,105.09a1.032,1.032,0,0,1-.09.3c-.688,1.549-2.582,1.888-3.36,1.96l.181-1.53Z" transform="translate(-394.719 -69.719)"/>
        <path id="Trazado_779357" data-name="Trazado 779357" d="M591.194,84.016s-1.614,3.887-.967,6.042,2.615,1.778,3.788,1.338a3.909,3.909,0,0,0,1.708-1.175,1.768,1.768,0,0,0,1.437-3.153,1.731,1.731,0,0,0-1.375.21l.566-1.132s-2.575-5.65-5.157-2.131" transform="translate(-391.467 -54.972)" fill="#d8998b"/>
        <path id="Trazado_779358" data-name="Trazado 779358" d="M607.161,98.482a.118.118,0,0,1-.069-.214l1.392-1.007a.118.118,0,1,1,.139.192l-1.392,1.007a.118.118,0,0,1-.069.023" transform="translate(-402.724 -64.51)"/>
        <path id="Trazado_779359" data-name="Trazado 779359" d="M609.126,99.945a.111.111,0,0,1-.029,0l-.919-.234a.118.118,0,1,1,.059-.229l.919.234a.118.118,0,0,1-.029.233" transform="translate(-403.417 -65.993)"/>
        <path id="Trazado_779360" data-name="Trazado 779360" d="M593.489,95.915a.119.119,0,0,1-.117-.1,1.818,1.818,0,0,1,.554-1.666.118.118,0,0,1,.15.183,1.582,1.582,0,0,0-.47,1.446.119.119,0,0,1-.1.135h-.018" transform="translate(-393.637 -62.443)"/>
        <path id="Trazado_779361" data-name="Trazado 779361" d="M592.016,92.958a.125.125,0,0,1-.031,0,.119.119,0,0,1-.083-.145l.192-.711a.117.117,0,0,1,.145-.083.118.118,0,0,1,.083.145l-.191.711a.119.119,0,0,1-.114.088" transform="translate(-392.676 -61.041)"/>
        <path id="Trazado_779362" data-name="Trazado 779362" d="M597.839,93.349a.126.126,0,0,1-.031,0,.119.119,0,0,1-.083-.145l.192-.711a.118.118,0,0,1,.229.062l-.191.711a.119.119,0,0,1-.114.088" transform="translate(-396.539 -61.301)"/>
        <path id="Trazado_779363" data-name="Trazado 779363" d="M591.874,83.238a1.308,1.308,0,0,1,1.107-.631,1.67,1.67,0,0,1,1.225.535,1.9,1.9,0,0,0,.718,1.99,2.566,2.566,0,0,0,1.865.492l.761-.274.556-1.115-2.211-2.369-2.857-1.5-1.45,1.324Z" transform="translate(-392.47 -53.318)"/>
        <path id="Trazado_779364" data-name="Trazado 779364" d="M601.756,79.177s.1-1.714,1.9-.961,1.662,3.091,1.662,3.091Z" transform="translate(-399.216 -51.763)"/>
        <path id="Trazado_779365" data-name="Trazado 779365" d="M591.783,88.752a.118.118,0,0,1-.011-.236l.588-.056a.116.116,0,0,1,.129.107.118.118,0,0,1-.107.129l-.588.056h-.011" transform="translate(-392.522 -58.686)"/>
        <path id="Trazado_779366" data-name="Trazado 779366" d="M598.079,90.561a.118.118,0,0,1-.047-.01l-.794-.346a.118.118,0,1,1,.095-.217l.794.345a.118.118,0,0,1-.047.227" transform="translate(-396.172 -59.693)"/>
        <path id="Trazado_779367" data-name="Trazado 779367" d="M591.792,100.746a.119.119,0,0,1-.1-.055l-.439-.687a.118.118,0,1,1,.2-.127l.439.687a.119.119,0,0,1-.036.164.12.12,0,0,1-.064.019" transform="translate(-392.237 -66.224)"/>
        <path id="Trazado_779368" data-name="Trazado 779368" d="M575.713,102.524S577.7,96,578.531,96.1s2.478,1.757,2.814,2.364a1.765,1.765,0,0,1,0,1.381s.327.41,0,.675-1.266-.3-1.266-.3.829,4.153-1.6,4.651-2.763-2.346-2.763-2.346" transform="translate(-381.939 -63.751)" fill="#d8998b"/>
        <path id="Trazado_779369" data-name="Trazado 779369" d="M565.367,125.3a19.539,19.539,0,0,0,1.454-4.139c.469-2.185,1.12-5.447,1.12-5.447l-4.3-3.2a40.6,40.6,0,0,0-4.841,10.731c-1.251,5.241-.323,6.843,2.348,6.519,3.164-.384,4.217-4.466,4.217-4.466" transform="translate(-370.355 -74.648)" fill="#4adbd1"/>
        <path id="Trazado_779370" data-name="Trazado 779370" d="M564.4,147.891l-1.341,5.193c-1.067,0-3.943-.038-4.851-.456-1.124-.517-1.273-1.219-1.273-1.219s-.771-.733-.725-1.128.482-2.188.482-2.188-.623-1.474-.053-1.554,1.55-.213,1.55-.213a6.036,6.036,0,0,1,2.632-.581,14.514,14.514,0,0,1,2.906,2.169Z" transform="translate(-368.997 -96.664)" fill="#d8998b"/>
        <path id="Trazado_779371" data-name="Trazado 779371" d="M595.463,114.491a3.428,3.428,0,0,1-1.688-.295.118.118,0,1,1,.126-.2,4.085,4.085,0,0,0,2.145.238,3.073,3.073,0,0,0,2.272-1.143.118.118,0,1,1,.2.132,3.266,3.266,0,0,1-2.451,1.246c-.217.015-.417.022-.6.022" transform="translate(-393.885 -74.992)" fill="#373f51"/>
        <path id="Trazado_779372" data-name="Trazado 779372" d="M565.769,147.288a.119.119,0,0,1-.034-.005l-2.007-.592a.118.118,0,1,1,.067-.227l2.007.593a.118.118,0,0,1-.034.232" transform="translate(-373.932 -97.164)"/>
        <path id="Trazado_779373" data-name="Trazado 779373" d="M557.661,151.8a.118.118,0,0,1-.056-.014l-.707-.385a.118.118,0,0,1,.113-.208l.707.385a.118.118,0,0,1-.057.222" transform="translate(-369.416 -100.296)"/>
        <path id="Trazado_779374" data-name="Trazado 779374" d="M588.628,103.3a.117.117,0,0,1-.073-.025l-1.819-1.425a.118.118,0,1,1,.146-.186l1.819,1.425a.118.118,0,0,1,.02.166.117.117,0,0,1-.093.045" transform="translate(-389.222 -67.426)"/>
        <path id="Trazado_779375" data-name="Trazado 779375" d="M588.356,99.9a.117.117,0,0,1-.064-.019l-1.548-1a.118.118,0,1,1,.128-.2l1.547,1a.118.118,0,0,1-.064.218" transform="translate(-389.221 -65.454)"/>
        <path id="Trazado_779376" data-name="Trazado 779376" d="M576.648,126.9l-.935,6.32s13.8,4,16.717-3.029c2.928-7.058-.416-14.161-2.863-15.346s-4.873,9.96-4.873,9.96Z" transform="translate(-381.939 -76.13)" fill="#4adbd1"/>
        <path id="Trazado_779377" data-name="Trazado 779377" d="M576.785,156.261l-1.692-.191a.54.54,0,0,1-.476-.6l.75-6.643a.54.54,0,0,1,.6-.476l1.692.191a.54.54,0,0,1,.476.6l-.75,6.643a.54.54,0,0,1-.6.476" transform="translate(-381.21 -98.418)" fill="#e6f4ff"/>
        <path id="Trazado_779378" data-name="Trazado 779378" d="M576.381,115.9l-.984,1.46a.511.511,0,0,1-.709.138l-4.859-3.274a.511.511,0,0,1-.138-.709l.984-1.46a.511.511,0,0,1,.709-.138l4.859,3.274a.511.511,0,0,1,.138.709" transform="translate(-377.886 -74.191)" fill="#e6f4ff"/>
        <path id="Trazado_779379" data-name="Trazado 779379" d="M591.406,144.941a.118.118,0,0,1-.052-.225,20.73,20.73,0,0,1,6.271-1.794.117.117,0,0,1,.128.108.118.118,0,0,1-.108.128,20.467,20.467,0,0,0-6.187,1.771.115.115,0,0,1-.052.012" transform="translate(-392.271 -94.817)" fill="#373f51"/>
        <path id="Trazado_779380" data-name="Trazado 779380" d="M602.161,141.473a.118.118,0,0,1-.1-.186c.108-.154,1.082-1.512,1.8-1.58a.5.5,0,0,1,.413.142.367.367,0,0,1,.118.363c-.141.589-1.858,1.15-2.2,1.256a.125.125,0,0,1-.035.005m1.762-1.532-.035,0c-.414.039-1.031.71-1.4,1.179.721-.257,1.61-.663,1.683-.966a.136.136,0,0,0-.054-.138.258.258,0,0,0-.19-.077" transform="translate(-399.406 -92.683)" fill="#373f51"/>
        <path id="Trazado_779381" data-name="Trazado 779381" d="M581.8,295.94a.118.118,0,0,1,0-.237l14.388-.56a.113.113,0,0,1,.123.114.119.119,0,0,1-.114.123l-14.388.56Z" transform="translate(-385.901 -195.803)" fill="#304572"/>
        <path id="Trazado_779382" data-name="Trazado 779382" d="M548.488,284.176a.118.118,0,0,1-.056-.014l-12.138-6.529a.118.118,0,0,1,.112-.209l12.138,6.529a.118.118,0,0,1-.056.222" transform="translate(-355.746 -184.04)" fill="#304572"/>
        <path id="Trazado_779383" data-name="Trazado 779383" d="M643.984,120.057s-6.328-7.993-6.723-7.46,5.714,7.971,5.714,7.971Z" transform="translate(-422.76 -74.682)" fill="#373f51"/>
        <path id="Trazado_779384" data-name="Trazado 779384" d="M664.654,140.746s-2.307.037-3.322-.865,1.114-2.988,1.114-2.988l2.208,1.5Z" transform="translate(-438.558 -90.817)" fill="#d8998b"/>
        <path id="Trazado_779385" data-name="Trazado 779385" d="M651.013,132.906a2.106,2.106,0,0,0-.94-.342c-1.134-.148-4.385,0-4.784,1.14-.382,1.094,1.426,1.069,1.426,1.069s-1.453.312-.9,1.229a1.44,1.44,0,0,0,1.407.609s-1.48.469-.4,1.35,4.414.442,5.434-.123-.414-1.545-.414-1.545,1.019-.755.7-1.371c-.336-.652-1.339-.45-1.339-.45a1,1,0,0,0-.19-1.565" transform="translate(-428.062 -87.914)" fill="#d8998b"/>
        <path id="Trazado_779386" data-name="Trazado 779386" d="M658.549,128.632s-4.142-2.024-4.914-1.908-3.655,2.559-2.95,3.23,2.95-1.06,2.95-1.06,2.3,3.866,3.815,3.429,1.1-3.691,1.1-3.691" transform="translate(-431.604 -84.068)" fill="#d8998b"/>
        <path id="Trazado_779387" data-name="Trazado 779387" d="M649.4,138.686a.118.118,0,0,1-.006-.237l4.12-.212a.109.109,0,0,1,.124.112.118.118,0,0,1-.112.124l-4.12.212H649.4" transform="translate(-430.744 -91.709)"/>
        <path id="Trazado_779388" data-name="Trazado 779388" d="M650.9,144.047a.118.118,0,0,1-.007-.236l4.131-.264a.115.115,0,0,1,.126.11.118.118,0,0,1-.11.126l-4.131.264H650.9" transform="translate(-431.742 -95.232)"/>
        <path id="Trazado_779389" data-name="Trazado 779389" d="M662.5,136.53a.117.117,0,0,1-.033,0,4.884,4.884,0,0,1-3.145-3.553.118.118,0,1,1,.231-.049,4.641,4.641,0,0,0,2.981,3.375.118.118,0,0,1-.034.232" transform="translate(-437.402 -88.122)"/>
        <path id="Trazado_779390" data-name="Trazado 779390" d="M693.609,298.648v4.1l-7.454-.289v-3.812Z" transform="translate(-455.208 -198.129)" fill="#e29233"/>
        <path id="Trazado_779391" data-name="Trazado 779391" d="M745.839,297.275v4.1l-6.9-.289v-3.812Z" transform="translate(-490.226 -197.218)" fill="#e29233"/>
        <path id="Trazado_779392" data-name="Trazado 779392" d="M690.215,160.595s-4.536,8.263-7.725,22.392a162.773,162.773,0,0,0-3.534,23.546h12.578s1.4-10.508,1.772-14.665a93.229,93.229,0,0,1,1.613-9.723s1.726,23.982,2.138,24.388,12.452.09,12.323-.461-4.571-40.619-4.9-43.242c-1-8.061-14.266-2.236-14.266-2.236" transform="translate(-450.432 -105.192)" fill="#373f51"/>
        <path id="Trazado_779393" data-name="Trazado 779393" d="M733.849,311.268c0,.724.235,1.552.716,1.76a29.176,29.176,0,0,0,7.777.336c3.259-.3,3.936-.544,4.176-.851.117-.156-.112-.88-.375-1.581-.017-.035-.028-.075-.045-.11-.134-.353-.274-.695-.375-.938a4.079,4.079,0,0,0-.369-.666,11.7,11.7,0,0,1-1.23-2.085c-.235-.718-.593-2.27-.833-3a1.305,1.305,0,0,0-.828-.869s-6.7-.475-7.184-.058-.716,3.828-.716,4.343v.516a13.131,13.131,0,0,1-.525,2.218c-.056.2-.1.382-.134.55a2.342,2.342,0,0,0-.056.434" transform="translate(-486.849 -201.04)" fill="#5573c6"/>
        <path id="Trazado_779394" data-name="Trazado 779394" d="M651.741,313.341c.425.191,18.51.73,18.93,0a6.711,6.711,0,0,0,.276-1.905c.149-2.212.149-5.5.149-5.5a14.3,14.3,0,0,0,.106-1.645c-.022-.515-8.721-.318-8.721-.318l-5.655,4.859a9.955,9.955,0,0,0-3.247,0c-.9.157-1.477,1.355-1.764,2.484-.255,1-.276,1.934-.074,2.027" transform="translate(-432.287 -201.636)" fill="#5573c6"/>
        <path id="Trazado_779395" data-name="Trazado 779395" d="M716.877,203.324a.118.118,0,0,1-.118-.109c0-.052-.4-5.218-.51-7.51-.1-1.956-.115-3.043-.118-3.327l-4.006-1.847a.118.118,0,0,1-.058-.157.12.12,0,0,1,.157-.058l4.074,1.879a.118.118,0,0,1,.069.107c0,.011.005,1.106.118,3.392s.506,7.452.51,7.5a.119.119,0,0,1-.109.127h-.009" transform="translate(-472.391 -126.252)" fill="#e29233"/>
        <path id="Trazado_779396" data-name="Trazado 779396" d="M748.115,310.153a.116.116,0,0,1-.032,0,12.652,12.652,0,0,0-3.959-.494l-1.358.241a.117.117,0,0,1-.127-.065.118.118,0,0,1,.028-.14c.1-.088,2.452-2.147,3.864-1.521a.118.118,0,1,1-.1.216c-.974-.431-2.561.656-3.261,1.2l.909-.162a12.538,12.538,0,0,1,4.064.5.118.118,0,0,1-.032.232" transform="translate(-492.673 -204.367)" fill="#373f51"/>
        <path id="Trazado_779397" data-name="Trazado 779397" d="M670.417,311.349a.118.118,0,0,1-.012-.236l3.172-.338-1.043-1.272a.118.118,0,0,1,.183-.15l1.182,1.442a.119.119,0,0,1-.079.193l-3.39.362h-.012" transform="translate(-444.689 -205.202)" fill="#373f51"/>
        <path id="Trazado_779398" data-name="Trazado 779398" d="M748.606,182.6a.119.119,0,0,1-.069-.022,9.588,9.588,0,0,1-3.064-4.329.118.118,0,0,1,.225-.072,9.332,9.332,0,0,0,2.977,4.209.118.118,0,0,1-.069.214" transform="translate(-494.557 -118.151)" fill="#e29233"/>
        <path id="Trazado_779399" data-name="Trazado 779399" d="M717.4,106.954a12.392,12.392,0,0,1,6.711,2.771c2.987,2.571,6.036,11.1,4.356,13.772a5.583,5.583,0,0,1-3.818,2.862l.125,3.111-16.324.152s1.345-19.8,2-21.271,6.95-1.4,6.95-1.4" transform="translate(-469.999 -70.955)" fill="#e29233"/>
        <path id="Trazado_779400" data-name="Trazado 779400" d="M720.233,80.112a3.164,3.164,0,0,0-.636,3.119c.7,1.65,1.54-2.958,1.54-2.958Z" transform="translate(-477.26 -53.148)"/>
        <path id="Trazado_779401" data-name="Trazado 779401" d="M726.891,100.155l.009,2.951a2.875,2.875,0,0,1-2.256,1,3.058,3.058,0,0,1-1.739-.181l.175-1.5.173-1.458,3.116-.7Z" transform="translate(-479.589 -66.445)" fill="#d8998b"/>
        <path id="Trazado_779402" data-name="Trazado 779402" d="M726.585,100.5c-.007.081.47.341.423.45-.656,1.476-3.033,2.189-3.776,2.258l.238-2.013Z" transform="translate(-479.806 -66.676)"/>
        <path id="Trazado_779403" data-name="Trazado 779403" d="M720.087,79.758a2.782,2.782,0,0,0-.874,1.267c-.4,1.133-1.217,3.781-.73,5.419.633,2.128,2.549,1.758,3.691,1.325a3.8,3.8,0,0,0,1.662-1.157,1.606,1.606,0,0,0,1.78-.674,1.409,1.409,0,0,0-1.724-2.23l.55-1.116s-2.086-4.627-4.354-2.833" transform="translate(-476.555 -52.639)" fill="#d8998b"/>
        <path id="Trazado_779404" data-name="Trazado 779404" d="M735.027,94.2a.118.118,0,0,1-.069-.214l1.327-.96a.118.118,0,1,1,.139.192l-1.327.96a.118.118,0,0,1-.069.023" transform="translate(-487.552 -61.7)"/>
        <path id="Trazado_779405" data-name="Trazado 779405" d="M736.9,95.593a.111.111,0,0,1-.029,0L736,95.366a.118.118,0,0,1,.058-.23l.876.223a.118.118,0,0,1-.029.233" transform="translate(-488.214 -63.113)"/>
        <path id="Trazado_779406" data-name="Trazado 779406" d="M721.782,91.333a.117.117,0,0,1-.106-.067,1.938,1.938,0,0,1,.243-1.816.118.118,0,0,1,.193.138,1.733,1.733,0,0,0-.223,1.576.118.118,0,0,1-.055.158.117.117,0,0,1-.052.012" transform="translate(-478.678 -59.31)"/>
        <path id="Trazado_779407" data-name="Trazado 779407" d="M720.594,88.935a.123.123,0,0,1-.031,0,.119.119,0,0,1-.083-.145l.183-.678a.117.117,0,0,1,.145-.083.119.119,0,0,1,.083.145l-.183.678a.118.118,0,0,1-.114.088" transform="translate(-477.977 -58.394)"/>
        <path id="Trazado_779408" data-name="Trazado 779408" d="M687.231,110.632l-.453,19.848h-4.413l.523-8.677a42.839,42.839,0,0,1-7.106.644,25.552,25.552,0,0,1-5.587-.376l.684-6.957a21.392,21.392,0,0,0,8.867-2.685c4.027-2.443,5.526-4.959,8.074-4.9s-.59,3.1-.59,3.1" transform="translate(-444.621 -71.337)" fill="#e29233"/>
        <path id="Trazado_779409" data-name="Trazado 779409" d="M726.142,89.308a.125.125,0,0,1-.031,0,.119.119,0,0,1-.083-.145l.183-.678a.117.117,0,0,1,.145-.083.119.119,0,0,1,.083.145l-.183.678a.118.118,0,0,1-.114.088" transform="translate(-481.658 -58.642)"/>
        <path id="Trazado_779410" data-name="Trazado 779410" d="M720.594,86.217a.118.118,0,0,1-.011-.236l.561-.053a.117.117,0,0,1,.129.107.118.118,0,0,1-.107.129l-.561.053h-.011" transform="translate(-477.977 -57.006)"/>
        <path id="Trazado_779411" data-name="Trazado 779411" d="M726.372,86.649a.119.119,0,0,1-.047-.01l-.757-.33a.118.118,0,0,1,.095-.217l.757.329a.118.118,0,0,1-.047.227" transform="translate(-481.308 -57.109)"/>
        <path id="Trazado_779412" data-name="Trazado 779412" d="M725.489,82.553s-.323,1.224-.556,1.071a5.175,5.175,0,0,1-.242-2.717c.187-.79.32-1.187.32-1.187s-3.219-.332-4.058-1.11.963-1.247,2.794-.873a5.318,5.318,0,0,1,2.545,1.073s1.153-.156,1.573.552-.6,3.36-.6,3.36-.281-.673-1.779-.169" transform="translate(-478.153 -51.486)"/>
        <path id="Trazado_779413" data-name="Trazado 779413" d="M724.34,97.3a.118.118,0,0,1-.066-.216l.79-.535a.118.118,0,1,1,.133.2l-.79.535a.118.118,0,0,1-.066.021" transform="translate(-480.463 -64.04)"/>
        <path id="Trazado_779414" data-name="Trazado 779414" d="M713.936,127.435a.118.118,0,0,1-.11-.076c-.812-2.118-2.165-5.706-2.108-5.934a15.169,15.169,0,0,1,1.433-1.863,8.874,8.874,0,0,1-1.715-1.674,38.028,38.028,0,0,1,2.4-4.793.118.118,0,0,1,.207.114,50.03,50.03,0,0,0-2.37,4.645,11.8,11.8,0,0,0,1.725,1.6.118.118,0,0,1,.015.168,18.439,18.439,0,0,0-1.462,1.86c.012.251,1.262,3.6,2.1,5.791a.119.119,0,0,1-.068.153.118.118,0,0,1-.042.008" transform="translate(-471.979 -74.989)" fill="#373f51"/>
        <path id="Trazado_779415" data-name="Trazado 779415" d="M719.416,137.113h5.68l-1.428-18.867h-3.926Z" transform="translate(-477.274 -78.446)" fill="#373f51"/>
        <path id="Trazado_779416" data-name="Trazado 779416" d="M732.048,125.634s1.333,16.931,1.417,16.856,7.114-.2,7.114-.2l-.234-4.937Z" transform="translate(-485.655 -83.348)" fill="#e29233"/>
        <path id="Trazado_779417" data-name="Trazado 779417" d="M736.024,127.435a.117.117,0,0,1-.042-.008.119.119,0,0,1-.068-.153c.838-2.187,2.088-5.539,2.1-5.809a21.043,21.043,0,0,0-1.459-1.841.118.118,0,0,1,.015-.168,10.958,10.958,0,0,0,1.726-1.616c-.018-.263-1.464-2.982-2.372-4.631a.118.118,0,0,1,.207-.114,38.088,38.088,0,0,1,2.4,4.793,8.893,8.893,0,0,1-1.715,1.674,15.184,15.184,0,0,1,1.433,1.863c.057.227-1.3,3.815-2.108,5.934a.118.118,0,0,1-.11.076" transform="translate(-488.214 -74.989)" fill="#373f51"/>
        <path id="Trazado_779418" data-name="Trazado 779418" d="M719.454,103.541s-4.487-2.809-4.99-2.483,1.947,2.376,1.947,2.376a9.872,9.872,0,0,0-1.174,1.121c-.06.179-.326.619-.53,1.1s-.114.8.351,1.3a14.367,14.367,0,0,0,4.159,2.007l.669.046,1.993-3.419s.11-2.994-.533-3.355-.951,1.969-.951,1.969Z" transform="translate(-473.944 -67.026)" fill="#d8998b"/>
        <path id="Trazado_779419" data-name="Trazado 779419" d="M728.29,106.458a.118.118,0,0,1-.063-.018l-1.876-1.179a.118.118,0,1,1,.126-.2l1.728,1.086c.035-.176.1-.5.222-1.013.223-.952.8-.884.829-.881a.118.118,0,0,1-.03.235c-.023,0-.4-.027-.568.7-.2.842-.25,1.167-.251,1.171a.119.119,0,0,1-.068.089.121.121,0,0,1-.049.01" transform="translate(-481.838 -69.162)"/>
        <path id="Trazado_779420" data-name="Trazado 779420" d="M720.656,108.492a.119.119,0,0,1-.078-.029l-.505-.438a.118.118,0,1,1,.155-.179l.506.438a.118.118,0,0,1-.077.208" transform="translate(-477.683 -71.528)"/>
        <path id="Trazado_779421" data-name="Trazado 779421" d="M694.977,126.773a.421.421,0,0,1-.289-.118c-.47-.427-.5-1.979-.5-2.154a.118.118,0,0,1,.217-.066c.185.282,1.093,1.71.867,2.172a.3.3,0,0,1-.255.165l-.035,0m-.535-1.825a2.957,2.957,0,0,0,.405,1.531.189.189,0,0,0,.146.056c.048,0,.057-.022.062-.033.1-.206-.249-.937-.613-1.554" transform="translate(-460.534 -82.516)" fill="#373f51"/>
        <path id="Trazado_779422" data-name="Trazado 779422" d="M707.673,147.4h-.017a.118.118,0,0,1-.1-.134l.183-1.228a.118.118,0,0,1,.234.035l-.183,1.228a.119.119,0,0,1-.117.1" transform="translate(-469.405 -96.816)" fill="#373f51"/>
        <path id="Trazado_779423" data-name="Trazado 779423" d="M731.774,113.385l-2.935,4.6s2.565,11.211,8.736,12.5,4.854-5.8,4.854-5.8Z" transform="translate(-483.526 -75.222)" fill="#e29233"/>
        <path id="Trazado_779424" data-name="Trazado 779424" d="M748.576,123a.118.118,0,0,1-.1-.052,57.833,57.833,0,0,0-5.594-6.124.118.118,0,1,1,.164-.171,57.974,57.974,0,0,1,5.626,6.161.119.119,0,0,1-.032.164.117.117,0,0,1-.066.021" transform="translate(-492.82 -77.366)" fill="#373f51"/>
        <path id="Trazado_779425" data-name="Trazado 779425" d="M755.08,128.371c-.679,0-2.053-1.233-2.337-1.495a.118.118,0,0,1,.11-.2c.228.06,2.236.6,2.559,1.153a.324.324,0,0,1,.042.254.357.357,0,0,1-.251.272.431.431,0,0,1-.123.016M753.3,127.05c.664.559,1.527,1.168,1.838,1.078.033-.01.068-.03.089-.106.006-.026.032-.262-1.129-.7-.28-.106-.566-.2-.8-.271" transform="translate(-499.359 -84.036)" fill="#373f51"/>
        <path id="Trazado_779426" data-name="Trazado 779426" d="M147.741,304.7s6.177,3.171,7.979,4.97,1.864,2.992,1.634,3.571-13.161-.359-13.161-.359-.042-3.561-1.428-3.369-.72,3.4-.72,3.4l-3.913-.145a30.359,30.359,0,0,1,.24-4.921,34.58,34.58,0,0,1,1.268-3.8Z" transform="translate(-91.633 -201.709)" fill="#4adbd1"/>
        <path id="Trazado_779427" data-name="Trazado 779427" d="M149.424,300.863s5.3,3.188,4.311,3.476-6.544.188-8.155-.449a8.043,8.043,0,0,1-2.949-2.608l3.765-1.4Z" transform="translate(-94.623 -198.947)" fill="#e29a8f"/>
        <path id="Trazado_779428" data-name="Trazado 779428" d="M149.351,250.982s3.842-22.377,1.353-25.546-8.183,4.83-8.183,4.83l.037,21.136s5.062,1.733,6.794-.42" transform="translate(-94.55 -149.066)" fill="#e29a8f"/>
        <path id="Trazado_779429" data-name="Trazado 779429" d="M125.242,234.843s-.763,21.247-1.786,23.494-6.611,0-6.611,0l-1.32-23.022Z" transform="translate(-76.641 -155.799)" fill="#d8998b"/>
        <path id="Trazado_779430" data-name="Trazado 779430" d="M128.87,168.665a85.6,85.6,0,0,1,2.811,11.728c.762,5.342.947,13.94.289,14.216s-8.238.171-8.238.171a25.9,25.9,0,0,1-6.979.18,33.209,33.209,0,0,1-3.71-.495.929.929,0,0,1-.745-.942c.111-3.624.905-20.643,3.166-23.695,2.008-2.709,13.405-1.164,13.405-1.164" transform="translate(-74.501 -111.605)" fill="#e29233"/>
        <path id="Trazado_779431" data-name="Trazado 779431" d="M122.614,301.234s1.991,6.868,1.583,8.3-4.6,3.094-5.992,3.018-3.873-2.481-4.212-3.348,1.383-9.151,3.345-8.624a30.739,30.739,0,0,0,5.277.651" transform="translate(-75.596 -199.396)" fill="#4adbd1"/>
        <path id="Trazado_779432" data-name="Trazado 779432" d="M126.262,295.5s-.972,4.529-3.276,4.529-3.538-3.829-3.538-3.829l.933-4.284Z" transform="translate(-79.244 -193.665)" fill="#d8998b"/>
        <path id="Trazado_779433" data-name="Trazado 779433" d="M157.4,128.974s-4.479-10.23-9.472-11.666.381,12.83.381,12.83Z" transform="translate(-96.727 -77.757)" fill="#5573c6"/>
        <path id="Trazado_779434" data-name="Trazado 779434" d="M103.133,115.81s-9.73,2.03-11.006,9.97c-1.757,10.931,11.647,11.792,11.647,11.792Z" transform="translate(-61.013 -76.831)" fill="#5573c6"/>
        <path id="Trazado_779435" data-name="Trazado 779435" d="M126.982,93.765s-4.506.6-3.047-5.231,5.633-2.521,5.633-2.521Z" transform="translate(-82.028 -56.442)"/>
        <path id="Trazado_779436" data-name="Trazado 779436" d="M131.588,135.753s.067-18.411-3.6-20.147c-4.6-2.177-11.252-1.174-12.466,1.041-1.387,2.53.593,17.8.593,17.8a21.353,21.353,0,0,0,15.473,1.307" transform="translate(-76.312 -75.891)" fill="#5573c6"/>
        <path id="Trazado_779437" data-name="Trazado 779437" d="M130.481,106.276l-.259,3.134s.258,1.037,2.079,1.337a3.742,3.742,0,0,0,2.095-.134l-.059-1.6-.06-1.563-3.251-1Z" transform="translate(-86.392 -70.506)" fill="#d8998b"/>
        <path id="Trazado_779438" data-name="Trazado 779438" d="M132.611,106.777a1.039,1.039,0,0,0,.066.31c.572,1.623,2.462,2.119,3.245,2.255l-.06-1.563Z" transform="translate(-87.977 -70.838)"/>
        <path id="Trazado_779439" data-name="Trazado 779439" d="M131.98,86.1s1.32,4.065.492,6.2-2.79,1.589-3.942,1.048a3.971,3.971,0,0,1-1.634-1.327,1.8,1.8,0,0,1-1.2-3.308,1.759,1.759,0,0,1,1.376.324l-.482-1.191s3.062-5.512,5.392-1.741" transform="translate(-82.807 -56.245)" fill="#d8998b"/>
        <path id="Trazado_779440" data-name="Trazado 779440" d="M170.219,121.947s3.183-6.614,2.714-6.7-3.362,6.21-3.362,6.21Z" transform="translate(-112.496 -76.455)"/>
        <path id="Trazado_779441" data-name="Trazado 779441" d="M159.766,137.795a.121.121,0,0,1-.118-.132c.176-1.486-1.036-6.179-1.048-6.226a.118.118,0,1,1,.229-.06c.051.195,1.236,4.783,1.055,6.314a.118.118,0,0,1-.117.1" transform="translate(-105.215 -87.099)" fill="#fff"/>
        <path id="Trazado_779442" data-name="Trazado 779442" d="M166.516,134.578s-2.038-4.286-3.2-4.886-4.19-.356-4.233,0,2.639,1.111,2.639,1.111a18.615,18.615,0,0,0-1.955,3.1,6.149,6.149,0,0,0,1.362,2.736c.283.212,1.165-.677,1.165-.677a4.533,4.533,0,0,0,1.874,1.58c1.152.457,2.734-1.184,2.734-1.184Z" transform="translate(-105.535 -85.798)" fill="#d8998b"/>
        <path id="Trazado_779443" data-name="Trazado 779443" d="M145.612,97.484a.118.118,0,0,1-.118-.109l-.058-.768a.117.117,0,0,1,.08-.121l.377-.125a.118.118,0,0,1,.075.224l-.29.1.051.676a.118.118,0,0,1-.109.127h-.009" transform="translate(-96.485 -63.924)"/>
        <path id="Trazado_779444" data-name="Trazado 779444" d="M168.269,148.231a4.353,4.353,0,0,1-1.137-2.195c-.006-.978,2.136-.843,2.136-.843l.261,1.9Z" transform="translate(-110.879 -96.32)" fill="#ff9c85"/>
        <path id="Trazado_779445" data-name="Trazado 779445" d="M149.6,154.491H135.435a.909.909,0,0,1-.909-.909v-9.588a.909.909,0,0,1,.909-.909H149.6a.909.909,0,0,1,.909.909v9.588a.909.909,0,0,1-.909.909" transform="translate(-89.247 -94.926)"/>
        <path id="Trazado_779446" data-name="Trazado 779446" d="M146.6,154.491H132.488a.907.907,0,0,1-.907-.907v-9.591a.907.907,0,0,1,.907-.907H146.6a.907.907,0,0,1,.907.907v9.591a.907.907,0,0,1-.907.907" transform="translate(-87.293 -94.926)" fill="#304572"/>
        <path id="Trazado_779447" data-name="Trazado 779447" d="M155.776,157.384a1.342,1.342,0,1,1-1.342-1.342,1.342,1.342,0,0,1,1.342,1.342" transform="translate(-101.564 -103.521)" fill="#fff"/>
        <path id="Trazado_779448" data-name="Trazado 779448" d="M139.033,97.132a.119.119,0,0,1-.118-.115l-.019-.688a.118.118,0,0,1,.069-.111l.371-.17a.118.118,0,0,1,.1.215l-.3.138.017.61a.118.118,0,0,1-.115.122Z" transform="translate(-92.146 -63.713)"/>
        <path id="Trazado_779449" data-name="Trazado 779449" d="M120.738,156.476s2.812-.916,3.184-1.035a4.243,4.243,0,0,1-.084,1.191c-.124.178,5.415,1.032,5.4,1.567a.7.7,0,0,1-.529.654s1.109.238.811.773a1.047,1.047,0,0,1-.811.557s1.091.53,0,1.205-6.442,1.092-8.158-.62c-1.261-1.258.185-4.292.185-4.292" transform="translate(-79.635 -103.123)" fill="#d8998b"/>
        <path id="Trazado_779450" data-name="Trazado 779450" d="M128.957,87.483a4.488,4.488,0,0,0,2.755-1.263,7.466,7.466,0,0,0,1.184-2.231,4.937,4.937,0,0,1,.821,1.1,10.228,10.228,0,0,1,.62,1.311s.843-2.545-1.438-3.591a3.9,3.9,0,0,0-5.08,1.8c-.7,1.421,1.137,2.878,1.137,2.878" transform="translate(-84.693 -54.696)"/>
        <path id="Trazado_779451" data-name="Trazado 779451" d="M107.125,149.161l-.142,7.114s-2.665.432-6.341-2.023c-5.108-3.412-3.34-4.484-3.34-4.484l4.947-2.878Z" transform="translate(-64.356 -97.45)" fill="#5573c6"/>
        <path id="Trazado_779452" data-name="Trazado 779452" d="M139.334,164.744l-3.181-.367a.118.118,0,0,1-.1-.131.12.12,0,0,1,.131-.1l3.167.366a.118.118,0,0,1-.013.236" transform="translate(-90.257 -108.895)"/>
        <path id="Trazado_779453" data-name="Trazado 779453" d="M139.334,169.415h-3.167a.118.118,0,0,1,0-.237h3.167a.118.118,0,1,1,0,.237" transform="translate(-90.258 -112.236)"/>
        <path id="Trazado_779454" data-name="Trazado 779454" d="M116.713,148.172a.115.115,0,0,1-.053-.013c-.044-.022-4.417-2.208-6.588-2.363a.119.119,0,0,1-.109-.127.121.121,0,0,1,.126-.11c2.218.159,6.5,2.3,6.677,2.388a.118.118,0,0,1-.053.224" transform="translate(-72.952 -96.567)" fill="#fff"/>
        <path id="Trazado_779455" data-name="Trazado 779455" d="M116.909,144.08a.116.116,0,0,1-.074-.026c-.59-.47-2.5-2.042-2.332-2.565.027-.082.1-.181.322-.189h.028c1.13,0,2.123,2.512,2.166,2.62a.118.118,0,0,1-.11.161m-2.055-2.545h-.02c-.081,0-.105.022-.106.027-.071.217.86,1.152,1.881,2-.379-.812-1.09-2.029-1.755-2.029" transform="translate(-75.957 -93.74)" fill="#fff"/>
        <path id="Trazado_779456" data-name="Trazado 779456" d="M121.6,81.986s.538-3.393-2.358-3.736-2.532,5.392,1.195,5.319,1.163-1.583,1.163-1.583" transform="translate(-77.831 -51.903)"/>
        <path id="Trazado_779457" data-name="Trazado 779457" d="M124.673,89.413a.107.107,0,0,1-.025,0,.118.118,0,0,1-.091-.141,3.723,3.723,0,0,1,1.252-2.3.118.118,0,0,1,.134.2,3.575,3.575,0,0,0-1.155,2.15.118.118,0,0,1-.115.093" transform="translate(-82.632 -57.687)" fill="#fff"/>
        <path id="Trazado_779458" data-name="Trazado 779458" d="M138.109,93.756a.118.118,0,0,1-.017-.235l1.03-.153a.12.12,0,0,1,.134.1.118.118,0,0,1-.1.134l-1.03.152h-.018" transform="translate(-91.546 -61.941)"/>
        <path id="Trazado_779459" data-name="Trazado 779459" d="M145.9,93.8l-.024,0-.689-.139a.118.118,0,1,1,.047-.232l.689.139a.118.118,0,0,1-.023.234" transform="translate(-96.26 -61.98)"/>
        <path id="Trazado_779460" data-name="Trazado 779460" d="M143.028,99.638a.118.118,0,0,1-.08-.205c.451-.417,0-1.468-.007-1.479A.118.118,0,0,1,143,97.8a.119.119,0,0,1,.156.061c.022.049.525,1.217-.049,1.748a.118.118,0,0,1-.08.031" transform="translate(-94.809 -64.875)"/>
        <path id="Trazado_779461" data-name="Trazado 779461" d="M138.981,103.936a.119.119,0,0,1-.034-.005,1.1,1.1,0,0,1-.72-.85.118.118,0,0,1,.233-.041.859.859,0,0,0,.556.665.118.118,0,0,1-.035.231" transform="translate(-91.701 -68.294)"/>
        <path id="Trazado_779462" data-name="Trazado 779462" d="M128.048,99.488a.117.117,0,0,1-.082-.033L126.771,98.3a.118.118,0,1,1,.164-.17l1.195,1.155a.118.118,0,0,1-.082.2" transform="translate(-84.078 -65.08)"/>
        <path id="Trazado_779463" data-name="Trazado 779463" d="M126.811,100.668a.118.118,0,0,1-.016-.236l.789-.109a.118.118,0,0,1,.032.234l-.79.109h-.016" transform="translate(-84.05 -66.556)"/>
        <path id="Trazado_779464" data-name="Trazado 779464" d="M132.477,117.506a3.647,3.647,0,0,1-2.778-1.113.118.118,0,0,1,.174-.16c1.7,1.847,4.649.669,4.679.657a.118.118,0,0,1,.09.219,6.432,6.432,0,0,1-2.165.4" transform="translate(-86.024 -77.085)" fill="#fff"/>
        <path id="Trazado_779465" data-name="Trazado 779465" d="M168.227,134.08a.118.118,0,0,1-.081-.032,3.488,3.488,0,0,0-1.473-.459.118.118,0,0,1-.1-.131.119.119,0,0,1,.131-.1,3.784,3.784,0,0,1,1.608.521.118.118,0,0,1-.081.2" transform="translate(-110.505 -88.469)"/>
        <path id="Trazado_779466" data-name="Trazado 779466" d="M117.762,239.749a.118.118,0,0,1-.113-.085l-.972-3.32-.683,3.047a.117.117,0,0,1-.141.09.118.118,0,0,1-.09-.141l.783-3.5a.118.118,0,0,1,.111-.092.123.123,0,0,1,.117.086l1.1,3.76a.117.117,0,0,1-.08.146.115.115,0,0,1-.033.005" transform="translate(-76.798 -156.402)" fill="#304572"/>
        <path id="Trazado_779467" data-name="Trazado 779467" d="M133.784,251.276a.861.861,0,0,0,.861-.861V209.058h-1.722v41.357a.861.861,0,0,0,.861.861" transform="translate(-88.184 -138.693)" fill="#12171e"/>
        <rect id="Rectángulo_366082" data-name="Rectángulo 366082" width="3.346" height="22.819" transform="translate(14.48 83.664)" fill="#c0bfc1"/>
        <path id="Trazado_779468" data-name="Trazado 779468" d="M24.975,316.284H39.014a1.052,1.052,0,1,0,0-2.1H24.975a1.052,1.052,0,0,0,0,2.1" transform="translate(-15.872 -208.434)" fill="#c0bfc1"/>
        <path id="Trazado_779469" data-name="Trazado 779469" d="M63.174,320.76a2.261,2.261,0,1,0,2.261-2.261,2.261,2.261,0,0,0-2.261,2.261" transform="translate(-41.911 -211.298)" fill="#c0bfc1"/>
        <path id="Trazado_779470" data-name="Trazado 779470" d="M41.273,320.76a2.261,2.261,0,1,0,2.261-2.261,2.261,2.261,0,0,0-2.261,2.261" transform="translate(-27.381 -211.298)" fill="#c0bfc1"/>
        <path id="Trazado_779471" data-name="Trazado 779471" d="M19.463,320.76a2.261,2.261,0,1,0,2.261-2.261,2.261,2.261,0,0,0-2.261,2.261" transform="translate(-12.912 -211.298)" fill="#c0bfc1"/>
        <path id="Trazado_779472" data-name="Trazado 779472" d="M7.514,185.356A13.189,13.189,0,0,0,2,198.891c1.813,10.7,12.477,14.164,21.728,11.637s7.709-9.815,7.709-9.815Z" transform="translate(-1.178 -122.969)" fill="#e0dfe5"/>
        <path id="Trazado_779473" data-name="Trazado 779473" d="M8.943,230a.119.119,0,0,1-.08-.031c-2.358-2.181-2.8-6.3-2.813-6.476a.118.118,0,0,1,.236-.024c0,.042.447,4.206,2.739,6.326a.118.118,0,0,1-.08.2" transform="translate(-4.013 -148.184)" fill="#fff"/>
        <path id="Trazado_779474" data-name="Trazado 779474" d="M33.965,147.423s4.826.427,6.638,2.757-.582,16.939-.712,17.143-3.491,1.692-9.35,1.563-7.284-1.249-7.478-1.563-1.424-16.807,0-18.2,7.37-2.123,10.9-1.7" transform="translate(-14.85 -97.722)" fill="#373f51"/>
        <path id="Trazado_779475" data-name="Trazado 779475" d="M59.871,290.694v6.217L55.137,298.7l-2.983-3.345-.49-5.75Z" transform="translate(-34.275 -192.13)" fill="#d8998b"/>
        <path id="Trazado_779476" data-name="Trazado 779476" d="M85.136,286.865v6.217l-5.044,1.791-3.178-3.345-.523-5.75Z" transform="translate(-50.679 -189.59)" fill="#d8998b"/>
        <path id="Trazado_779477" data-name="Trazado 779477" d="M58.083,203.425s12.059,6.067,13.539,8.531-.15,22.548-.15,22.548l-10.692.143L59.3,223.423l-8.127-18.905Z" transform="translate(-33.948 -134.956)" fill="#4adbd1"/>
        <path id="Trazado_779478" data-name="Trazado 779478" d="M27.479,207.221a65.939,65.939,0,0,0-.313,7.157c.174,1.769,5.754,5.936,5.754,5.936l.276,17.251,12.363.553s.269-19.714.063-21.57-8.431-8.609-8.431-8.609Z" transform="translate(-17.997 -137.474)" fill="#4adbd1"/>
        <path id="Trazado_779479" data-name="Trazado 779479" d="M48.248,140.176l.07,3.139a3.059,3.059,0,0,0,2.426,1,3.254,3.254,0,0,0,1.844-.239l-.226-1.586-.222-1.547-3.332-.656Z" transform="translate(-32.009 -92.995)" fill="#d8998b"/>
        <path id="Trazado_779480" data-name="Trazado 779480" d="M49.909,140.505a1.032,1.032,0,0,0,.1.3c.737,1.553,2.665,1.848,3.457,1.9l-.222-1.546Z" transform="translate(-33.111 -93.214)"/>
        <path id="Trazado_779481" data-name="Trazado 779481" d="M48.214,118.93s1.735,3.9,1.134,6.1-2.605,1.869-3.806,1.452a3.962,3.962,0,0,1-1.762-1.148,1.793,1.793,0,0,1-1.537-3.16,1.757,1.757,0,0,1,1.4.178l-.6-1.133s2.466-5.793,5.174-2.291" transform="translate(-27.542 -78.154)" fill="#d8998b"/>
        <path id="Trazado_779482" data-name="Trazado 779482" d="M60.08,132.248a.116.116,0,0,1-.035-.005.119.119,0,0,1-.078-.148,2.009,2.009,0,0,0-.322-1.511.118.118,0,0,1,.194-.136,2.214,2.214,0,0,1,.355,1.718.118.118,0,0,1-.113.083" transform="translate(-39.555 -86.508)"/>
        <path id="Trazado_779483" data-name="Trazado 779483" d="M45.018,134.065a.118.118,0,0,1-.086-.037L43.869,132.9a.118.118,0,1,1,.172-.163l1.063,1.126a.118.118,0,0,1-.086.2" transform="translate(-29.082 -88.037)"/>
        <path id="Trazado_779484" data-name="Trazado 779484" d="M43.77,135.168a.118.118,0,0,1-.018-.235l.735-.112a.118.118,0,0,1,.035.234l-.735.111H43.77" transform="translate(-28.96 -89.442)"/>
        <path id="Trazado_779485" data-name="Trazado 779485" d="M55.3,129.659a.118.118,0,0,1-.117-.1l-.093-.729a.118.118,0,0,1,.235-.03l.093.729a.118.118,0,0,1-.1.132H55.3" transform="translate(-36.547 -85.378)"/>
        <path id="Trazado_779486" data-name="Trazado 779486" d="M61.7,129.147a.118.118,0,0,1-.117-.1l-.107-.727a.118.118,0,1,1,.234-.035l.107.727a.118.118,0,0,1-.1.134H61.7" transform="translate(-40.783 -85.039)"/>
        <path id="Trazado_779487" data-name="Trazado 779487" d="M54,126.522a.12.12,0,0,1-.057-.014.119.119,0,0,1-.047-.161.87.87,0,0,1,.949-.345.118.118,0,1,1-.056.23c-.02,0-.5-.115-.685.229a.119.119,0,0,1-.1.061" transform="translate(-35.746 -83.574)"/>
        <path id="Trazado_779488" data-name="Trazado 779488" d="M60.906,125.758a.118.118,0,0,1-.094-.046.567.567,0,0,0-.327-.2.329.329,0,0,0-.247.093.118.118,0,1,1-.156-.178.557.557,0,0,1,.427-.15.8.8,0,0,1,.49.3.118.118,0,0,1-.094.19" transform="translate(-39.833 -83.106)"/>
        <path id="Trazado_779489" data-name="Trazado 779489" d="M42.878,120.258a2.3,2.3,0,0,0,1-1.805,2.571,2.571,0,0,0-.3-1.366,10.26,10.26,0,0,0,2.261-.4,3.091,3.091,0,0,0,.953-.456l.286.337c.313-.014,1.027-1.908.556-2.245s-2.989.541-2.989.541-2.653-.624-4.2,1.262.187,4.108.187,4.108.458-.972,2.253.021" transform="translate(-26.4 -75.795)"/>
        <path id="Trazado_779490" data-name="Trazado 779490" d="M56.826,138.123a.818.818,0,0,1-.231-.033.5.5,0,0,1-.318-.247.67.67,0,0,1-.027-.473.118.118,0,0,1,.061-.069.115.115,0,0,1,.093,0l1.014.379a.118.118,0,0,1,.039.2,1,1,0,0,1-.631.249m-.372-.554a.331.331,0,0,0,.032.166.269.269,0,0,0,.175.128.635.635,0,0,0,.454-.047Z" transform="translate(-37.296 -91.08)"/>
        <path id="Trazado_779491" data-name="Trazado 779491" d="M117.861,164.242l.111-.7a26.736,26.736,0,0,1,4.343-2.722c.7-.284,1.671-.047.849.874a3.9,3.9,0,0,0-.665,1.088,10.6,10.6,0,0,0,2.24-1.024c.584-.387,1.437-1.942,1.937-1.6.8.536-.119,2.054-.119,2.054s.413-1.923,1.2-1.172-1.355,4.523-2.373,5.425-6.389,1.951-6.389,1.951Z" transform="translate(-78.191 -106.217)" fill="#d8998b"/>
        <path id="Trazado_779492" data-name="Trazado 779492" d="M134.444,167.679a.118.118,0,0,1-.011-.236,4.722,4.722,0,0,0,2.3-1.164.118.118,0,1,1,.162.172,4.872,4.872,0,0,1-2.434,1.227h-.012" transform="translate(-89.115 -110.291)"/>
        <path id="Trazado_779493" data-name="Trazado 779493" d="M133.939,169.811a.118.118,0,0,1-.061-.017l-2.355-1.429a.118.118,0,0,1,.123-.2l2.287,1.388,1.059-.794a.118.118,0,0,1,.142.189l-1.123.841a.118.118,0,0,1-.071.024" transform="translate(-87.217 -111.55)"/>
        <path id="Trazado_779494" data-name="Trazado 779494" d="M125.123,169.766a.118.118,0,0,1-.035-.231,5.222,5.222,0,0,0,2.121-1.35.118.118,0,0,1,.178.156,5.364,5.364,0,0,1-2.228,1.419.108.108,0,0,1-.035.006" transform="translate(-82.931 -111.551)"/>
        <path id="Trazado_779495" data-name="Trazado 779495" d="M71.519,154.009s5.471,4.835,9.888,5.118a15.462,15.462,0,0,0,4.987-.88l2.538,6.641s-8.924,8.456-18.016,1.793c-2.613-1.915.6-12.672.6-12.672" transform="translate(-46.368 -102.173)" fill="#373f51"/>
        <path id="Trazado_779496" data-name="Trazado 779496" d="M73.528,167.97a.118.118,0,0,1-.118-.118,44.775,44.775,0,0,0-1.456-5.212.118.118,0,0,1,.225-.074,42.974,42.974,0,0,1,1.468,5.287.118.118,0,0,1-.118.118" transform="translate(-47.731 -107.795)" fill="#e29233"/>
        <path id="Trazado_779497" data-name="Trazado 779497" d="M73.876,309.078s.222-9.994,1.775-9.786a6.911,6.911,0,0,1,3.106,1.666s3.55-1.874,5.1-.833a8.186,8.186,0,0,1,2.445,3.331l8.648,5.622s1.046,1.666.745,2.5c-.235.65-13.388.286-19.157.094a2.674,2.674,0,0,1-2.665-2.593" transform="translate(-49.011 -198.554)" fill="#f4a338"/>
        <path id="Trazado_779498" data-name="Trazado 779498" d="M61.67,308.532s-2.168-5.307-3.568-6.223-4.9,1.992-4.9,1.992-2.933-3.088-3.655-1.468-1.071,7.422-.524,8.7,4.57,3.413,9.856,3.4c2.491-.007,6.083-.776,6.085-1.632,0-1.346-2.442-3.883-3.291-4.769" transform="translate(-32.344 -200.439)" fill="#e29233"/>
        <path id="Trazado_779499" data-name="Trazado 779499" d="M72.438,315.579H68.381a.118.118,0,1,1,0-.237h4.056a.118.118,0,1,1,0,.237" transform="translate(-45.287 -209.204)" fill="#fff"/>
        <path id="Trazado_779500" data-name="Trazado 779500" d="M55.235,152.674l1.775,11.765H55.54l-1.306-12.008Z" transform="translate(-35.98 -101.126)" fill="#304572"/>
        <path id="Trazado_779501" data-name="Trazado 779501" d="M116.821,173.841l1.291-.431a.321.321,0,0,0,.2-.406l-2.349-7.04a.321.321,0,0,0-.406-.2l-1.291.431a.321.321,0,0,0-.2.406l2.349,7.04a.321.321,0,0,0,.406.2" transform="translate(-75.663 -109.959)" fill="#304572"/>
        <path id="Trazado_779502" data-name="Trazado 779502" d="M73.956,321.034h-4.3a.118.118,0,1,1,0-.237h4.3a.118.118,0,1,1,0,.237" transform="translate(-46.135 -212.823)" fill="#fff"/>
        <path id="Trazado_779503" data-name="Trazado 779503" d="M104.213,313.037a.118.118,0,0,1-.016-.236l2.585-.353a.118.118,0,1,1,.032.235l-2.585.353h-.016" transform="translate(-69.058 -207.284)" fill="#fff"/>
        <path id="Trazado_779504" data-name="Trazado 779504" d="M106.141,317.737a.118.118,0,0,1-.018-.235l4.35-.662a.118.118,0,1,1,.035.234l-4.35.662h-.018" transform="translate(-70.338 -210.196)" fill="#fff"/>
        <path id="Trazado_779505" data-name="Trazado 779505" d="M73.393,239.237a.119.119,0,0,1-.118-.121c0-.184.454-18.406,0-20.544-.308-1.456-4.931-6-4.978-6.044a.119.119,0,0,1,.042-.2l3.333-1.223a.118.118,0,1,1,.081.222L68.6,212.491c.784.777,4.615,4.633,4.911,6.033.457,2.165.021,19.846,0,20.6a.118.118,0,0,1-.118.115" transform="translate(-45.288 -140.049)" fill="#304572"/>
        <path id="Trazado_779506" data-name="Trazado 779506" d="M47.452,190.35a17.783,17.783,0,0,0,3.475,1.094c.573-.078,2.639-.309,2.723-.745l-.778-1.331a2.716,2.716,0,0,0,1.939.078,4.231,4.231,0,0,0,1.914-1.845c.191-.624-.711-.5-.711-.5s1.021-.635-.276-1.179-6.9-1.35-9.231.113.945,4.314.945,4.314" transform="translate(-30.298 -122.869)" fill="#d8998b"/>
        <path id="Trazado_779507" data-name="Trazado 779507" d="M70.548,190.111a.114.114,0,0,1-.038-.006,6.9,6.9,0,0,0-2.8-.259.118.118,0,1,1-.033-.234,7.005,7.005,0,0,1,2.907.269.118.118,0,0,1-.038.231" transform="translate(-44.832 -125.76)"/>
        <path id="Trazado_779508" data-name="Trazado 779508" d="M44.371,244.007a.12.12,0,0,1-.065-.019.119.119,0,0,1-.053-.111c.007-.072.18-1.771,1.018-2.333a1.073,1.073,0,0,1,.948-.122c.3.091.464.243.487.453.084.766-2.036,1.981-2.278,2.117a.118.118,0,0,1-.058.015m1.482-2.406a.79.79,0,0,0-.45.14,3.137,3.137,0,0,0-.882,1.925c.854-.507,2-1.34,1.95-1.765-.011-.107-.119-.192-.32-.252a1.018,1.018,0,0,0-.3-.048" transform="translate(-29.358 -160.126)" fill="#304572"/>
        <path id="Trazado_779509" data-name="Trazado 779509" d="M67.846,183.419H82.791l4.269-9.655H72.7a.9.9,0,0,0-.828.539Z" transform="translate(-45.01 -115.278)" fill="#fff"/>
        <path id="Trazado_779510" data-name="Trazado 779510" d="M71.7,183.419H86.648l3.809-8.616a.739.739,0,0,0-.676-1.038H75.972Z" transform="translate(-47.569 -115.278)" fill="#b2b2b2"/>
        <path id="Trazado_779511" data-name="Trazado 779511" d="M51.76,203.669h21.1a.61.61,0,1,0,0-1.219H51.76a.61.61,0,1,0,0,1.219" transform="translate(-33.934 -134.309)"/>
        <path id="Trazado_779512" data-name="Trazado 779512" d="M10.311,152.7s-8.357,9.1-7,15.021,17.857,2.052,17.857,2.052l-.18-6.921-8.575-1.343Z" transform="translate(-2.098 -101.305)" fill="#373f51"/>
        <path id="Trazado_779513" data-name="Trazado 779513" d="M19.966,177.745c-.548,0-.987-.07-1.1-.275-.073-.135-.027-.294.139-.471,1.024-1.1,3.487.192,3.591.248a.118.118,0,0,1-.035.221,17.377,17.377,0,0,1-2.6.277m.228-.951a1.336,1.336,0,0,0-1.014.366c-.1.105-.117.172-.1.2.135.248,1.633.164,3.075-.061a5.356,5.356,0,0,0-1.957-.5" transform="translate(-12.495 -117.131)" fill="#e29233"/>
        <path id="Trazado_779514" data-name="Trazado 779514" d="M27.238,206.66H27a.138.138,0,0,1,0-.276h.234a33.551,33.551,0,0,0,7.379-.838.138.138,0,0,1,.068.268,33.827,33.827,0,0,1-7.448.847" transform="translate(-17.823 -136.36)" fill="#e29233"/>
        <path id="Trazado_779515" data-name="Trazado 779515" d="M29.619,173.983a.118.118,0,0,1-.068-.216c.758-.524.1-2.286.092-2.3a.118.118,0,0,1,.221-.084c.03.079.732,1.954-.178,2.583a.118.118,0,0,1-.067.021" transform="translate(-19.571 -113.646)" fill="#e29233"/>
        <path id="Trazado_779516" data-name="Trazado 779516" d="M2.974,207.691H49.879a1.1,1.1,0,1,0,0-2.2H2.974a1.1,1.1,0,1,0,0,2.2" transform="translate(-1.245 -136.33)" fill="#12171e"/>
        <path id="Trazado_779517" data-name="Trazado 779517" d="M55.252,288.485l-9.725-.51a.118.118,0,0,1-.112-.124.112.112,0,0,1,.125-.112l9.718.509a.118.118,0,0,1-.006.236" transform="translate(-30.129 -190.89)" fill="#304572"/>
        <path id="Trazado_779518" data-name="Trazado 779518" d="M92.084,287.979H83.411a.118.118,0,1,1,0-.237h8.673a.118.118,0,1,1,0,.237" transform="translate(-55.258 -190.894)" fill="#304572"/>
        <path id="Trazado_779519" data-name="Trazado 779519" d="M51.579,188.886h1.361a.32.32,0,0,0,.32-.32v-7.422a.321.321,0,0,0-.32-.321H51.579a.321.321,0,0,0-.32.321v7.422a.32.32,0,0,0,.32.32" transform="translate(-34.006 -119.961)" fill="#304572"/>
        <path id="Trazado_779520" data-name="Trazado 779520" d="M95.888,185.6a1.269,1.269,0,1,0,1.269-1.269,1.269,1.269,0,0,0-1.269,1.269" transform="translate(-63.614 -122.291)" fill="#fff"/>
        <path id="Trazado_779521" data-name="Trazado 779521" d="M52.249,147.635s1,3.353.663,3.288a18.776,18.776,0,0,1-2.338-1.864s-1.459,1.852-1.937,1.864-.645-3.594-.645-3.594a2.8,2.8,0,0,0,2.263,1.382c1.769.253,1.995-1.076,1.995-1.076" transform="translate(-31.839 -97.741)" fill="#304572"/>
        <path id="Trazado_779522" data-name="Trazado 779522" d="M12.455,250.991a.861.861,0,0,0,.861-.861V208.773H11.594V250.13a.861.861,0,0,0,.861.861" transform="translate(-7.692 -138.504)" fill="#12171e"/>
        <path id="Trazado_779523" data-name="Trazado 779523" d="M107.21,39.236H83.356a2.822,2.822,0,0,1-2.819-2.818V25.89a2.822,2.822,0,0,1,2.819-2.818H107.21a2.822,2.822,0,0,1,2.819,2.818V36.417a2.822,2.822,0,0,1-2.819,2.818M83.356,23.309a2.584,2.584,0,0,0-2.582,2.582V36.417A2.584,2.584,0,0,0,83.356,39H107.21a2.585,2.585,0,0,0,2.582-2.582V25.89a2.585,2.585,0,0,0-2.582-2.582Z" transform="translate(-53.43 -15.306)" fill="#373f51"/>
        <path id="Trazado_779524" data-name="Trazado 779524" d="M109.91,33.661H80.655a.118.118,0,1,1,0-.237H109.91a.118.118,0,1,1,0,.237" transform="translate(-53.43 -22.174)" fill="#373f51"/>
        <path id="Trazado_779525" data-name="Trazado 779525" d="M87.174,28.34a.118.118,0,0,1-.081-.2l1.44-1.346a.118.118,0,1,1,.162.173l-1.44,1.346a.117.117,0,0,1-.081.032" transform="translate(-57.754 -17.751)" fill="#373f51"/>
        <path id="Trazado_779526" data-name="Trazado 779526" d="M88.614,28.34a.117.117,0,0,1-.081-.032l-1.441-1.346a.118.118,0,0,1,.162-.173l1.44,1.346a.119.119,0,0,1,.006.167.12.12,0,0,1-.087.037" transform="translate(-57.754 -17.751)" fill="#373f51"/>
        <g id="Grupo_1032948" data-name="Grupo 1032948" transform="translate(113.427 21.519)" opacity="0.56" style="mix-blend-mode: screen;isolation: isolate">
          <g id="Grupo_1032947" data-name="Grupo 1032947">
            <g id="Grupo_1032946" data-name="Grupo 1032946" clip-path="url(#clip-path-3)">
              <path id="Trazado_779527" data-name="Trazado 779527" d="M366.552,78.712a14.777,14.777,0,1,1-14.777-14.777,14.777,14.777,0,0,1,14.777,14.777" transform="translate(-336.999 -63.935)" fill="#e0dfe5"/>
            </g>
          </g>
        </g>
        <path id="Trazado_779528" data-name="Trazado 779528" d="M351.358,92.961a15.93,15.93,0,0,1-2.057-.134,15.634,15.634,0,1,1,2.057.134M351.31,63.27a14,14,0,1,0,11.115,5.457A13.933,13.933,0,0,0,351.31,63.27" transform="translate(-222.673 -40.859)" fill="#3d5da3"/>
        <path id="Trazado_779529" data-name="Trazado 779529" d="M322.256,144.946l-3.2,5.714a9.827,9.827,0,0,0,8.694-2.727c3.367-3.164-5.493-2.987-5.493-2.987" transform="translate(-211.667 -96.159)" fill="#d8998b"/>
        <path id="Trazado_779530" data-name="Trazado 779530" d="M235.939,95.664c-.118-.116-3.791,1.484-4.532,6.37s3.2,5.776,3.2,5.776l5.419-3.051-2.087-9.311Z" transform="translate(-153.458 -63.323)"/>
        <path id="Trazado_779531" data-name="Trazado 779531" d="M274.944,118.765a22.411,22.411,0,0,0,6.989,6c3.493,2.035,8.9,1.293,8.9,1.293l.461,7.336S279.539,137.441,275,132.33c-5.854-6.591-.055-13.565-.055-13.565" transform="translate(-180.704 -78.791)" fill="#373f51"/>
        <path id="Trazado_779532" data-name="Trazado 779532" d="M268.534,291.023a26.955,26.955,0,0,1,2.417,3.9c.091.637-1.688,1.789-1.688,1.789l4.287,5.335h-9.5l-.467-10.3Z" transform="translate(-174.865 -193.07)" fill="#3d5da3"/>
        <path id="Trazado_779533" data-name="Trazado 779533" d="M248.367,82s-3.625-1.677-5.249,1.3c-1.576,2.89.758,5.574.758,5.574l4-4.167Z" transform="translate(-160.927 -54.09)"/>
        <rect id="Rectángulo_366084" data-name="Rectángulo 366084" width="8.239" height="7.165" transform="matrix(0.023, -1, 1, 0.023, 83.329, 107.619)" fill="#d8998b"/>
        <path id="Trazado_779534" data-name="Trazado 779534" d="M241.052,174.467s-1.315,4.681-1.391,13.876c-.065,7.939-1.53,25.554-.933,26.39s12.777.358,13.255.119.6-5.732.6-5.732,8.12-13.613,9.195-15.882-5.971-22.046-5.971-22.046Z" transform="translate(-158.282 -113.572)" fill="#5573c6"/>
        <path id="Trazado_779535" data-name="Trazado 779535" d="M241.418,114.27s-5.732,2.1-6.448,5.293,4.3,15.989,5.612,16.43,11.821-1.875,12.777-2.647-.12-8.711-.358-9.814-1.194-5.514-2.508-7.388a3.81,3.81,0,0,0-3.7-2c-1.314,0-5.374.124-5.374.124" transform="translate(-155.837 -75.727)" fill="#373f51"/>
        <path id="Trazado_779536" data-name="Trazado 779536" d="M248.333,113.075a3.342,3.342,0,0,0-1.411.859c-.368.565.32,2.052,2.278,3.208a10.96,10.96,0,0,0,2.638,1.144,10.945,10.945,0,0,0,1.485-2.77,3.964,3.964,0,0,0-.638-2.421Z" transform="translate(-163.75 -75.016)" fill="#e29233"/>
        <path id="Trazado_779537" data-name="Trazado 779537" d="M250.991,107.634l.305,3.12a3.051,3.051,0,0,0,2.49.812,3.248,3.248,0,0,0,1.818-.376l-.344-1.562-.338-1.523-3.367-.4Z" transform="translate(-166.512 -71.406)" fill="#d8998b"/>
        <path id="Trazado_779538" data-name="Trazado 779538" d="M252.67,107.837a1.03,1.03,0,0,0,.12.292c.851,1.49,2.792,1.639,3.584,1.633l-.338-1.523Z" transform="translate(-167.626 -71.541)"/>
        <path id="Trazado_779539" data-name="Trazado 779539" d="M250.2,85.755s2.02,3.752,1.587,5.988-2.453,2.056-3.68,1.732a3.959,3.959,0,0,1-1.84-1.01,1.79,1.79,0,0,1-1.768-3.03,1.753,1.753,0,0,1,1.407.072l-.685-1.082s2.02-5.952,4.978-2.669" transform="translate(-161.787 -56.236)" fill="#d8998b"/>
        <path id="Trazado_779540" data-name="Trazado 779540" d="M247.076,315.8a1.037,1.037,0,0,1-.962-1.056c-.007-2.241.023-7.427.437-7.429.528,0,5.514,1.578,5.514,1.578s.143-3.105,2.333-2.554c1.681.423,3.632,2.392,4.449,3.286a1.9,1.9,0,0,0,.952.57c1.566.381,5.873,1.637,5.941,3.916.083,2.786-1.05,2.471-1.579,2.472-.453,0-13.423-.61-17.087-.783" transform="translate(-163.277 -203.186)" fill="#304572"/>
        <path id="Trazado_779541" data-name="Trazado 779541" d="M247.828,88.237a2.851,2.851,0,0,0,2.727-1.732c1.028-1.948.866-2.705.866-2.705l1.3,1.84a3.552,3.552,0,0,0-.433-2.164c-.6-.812-1.136-.6-1.136-.6l-3.625,1.19-.758,3.03Z" transform="translate(-163.71 -54.967)"/>
        <path id="Trazado_779542" data-name="Trazado 779542" d="M280.645,219.82a.119.119,0,0,1-.118-.118l.089-27.745a.12.12,0,0,1,.035-.083l2.725-2.734a.118.118,0,0,1,.168.167l-2.691,2.7-.089,27.7a.118.118,0,0,1-.118.118" transform="translate(-186.107 -125.455)" fill="#fff"/>
        <path id="Trazado_779543" data-name="Trazado 779543" d="M247.4,195.181a.118.118,0,0,1-.016-.235,3.7,3.7,0,0,0,2.578-1.371,4.233,4.233,0,0,0,.679-2.85.119.119,0,0,1,.1-.135.12.12,0,0,1,.135.1,4.4,4.4,0,0,1-.722,3.026,3.921,3.921,0,0,1-2.737,1.465H247.4" transform="translate(-164.053 -126.44)" fill="#fff"/>
        <path id="Trazado_779544" data-name="Trazado 779544" d="M263.189,90.838l-.02,0-.523-.091a.118.118,0,0,1,.04-.233l.523.091a.118.118,0,0,1-.02.235" transform="translate(-174.179 -60.047)"/>
        <path id="Trazado_779545" data-name="Trazado 779545" d="M257.47,91.1a.118.118,0,0,1-.028-.233l.884-.215a.118.118,0,0,1,.056.23l-.885.215a.111.111,0,0,1-.028,0" transform="translate(-170.732 -60.135)"/>
        <path id="Trazado_779546" data-name="Trazado 779546" d="M258.236,95.569a.119.119,0,0,1-.116-.1l-.109-.634a.117.117,0,0,1,.048-.117l.442-.311a.118.118,0,0,1,.136.194l-.381.268.1.559a.119.119,0,0,1-.1.137l-.021,0" transform="translate(-171.168 -62.619)"/>
        <path id="Trazado_779547" data-name="Trazado 779547" d="M264.574,94.167a.119.119,0,0,1-.116-.1l-.109-.633a.117.117,0,0,1,.048-.117l.442-.31a.118.118,0,1,1,.136.194l-.381.267.1.559a.119.119,0,0,1-.1.137l-.02,0" transform="translate(-175.373 -61.689)"/>
        <path id="Trazado_779548" data-name="Trazado 779548" d="M262.927,97.765a.116.116,0,0,1-.037-.006.118.118,0,0,1-.076-.149,2.466,2.466,0,0,0-.253-1.644.118.118,0,0,1,.207-.113,2.656,2.656,0,0,1,.27,1.831.118.118,0,0,1-.112.081" transform="translate(-174.179 -63.549)"/>
        <path id="Trazado_779549" data-name="Trazado 779549" d="M260.114,104.744c-.551,0-.776-.627-.785-.654a.118.118,0,0,1,.112-.157h1.347a.118.118,0,0,1,.112.157c-.009.027-.234.654-.785.654m-.485-.575a.517.517,0,0,0,.97,0Z" transform="translate(-172.04 -68.951)"/>
        <path id="Trazado_779550" data-name="Trazado 779550" d="M247.327,101.646a.116.116,0,0,1-.07-.023l-1.407-1.042a.118.118,0,0,1,.141-.19l1.407,1.042a.118.118,0,0,1-.07.213" transform="translate(-163.069 -66.585)"/>
        <path id="Trazado_779551" data-name="Trazado 779551" d="M245.92,103.155a.118.118,0,0,1-.058-.222l.925-.515a.118.118,0,0,1,.115.207l-.925.515a.114.114,0,0,1-.057.015" transform="translate(-163.07 -67.937)"/>
        <path id="Trazado_779552" data-name="Trazado 779552" d="M249.324,113.255s1.71,1.553,2.944,1.564a1.1,1.1,0,0,0,1.2-1.135l.493,1.733-1.526,1.546-2.725-1.1-1.53-1.712Z" transform="translate(-164.646 -75.136)" fill="#e29233"/>
        <path id="Trazado_779553" data-name="Trazado 779553" d="M255.974,124.14a7.063,7.063,0,0,0-1.112,3.248,9.026,9.026,0,0,0,.964,4.213s1.846-2.094,2.091-3.674a9.478,9.478,0,0,0-.6-3.825,18.122,18.122,0,0,1,1.044,3.069c.207,1.165.492,2.662.492,2.662a5.7,5.7,0,0,0,1.053-3.249,4.206,4.206,0,0,0-1.961-2.921Z" transform="translate(-169.067 -82.04)" fill="#e29233"/>
        <path id="Trazado_779554" data-name="Trazado 779554" d="M257.081,121.8a1.221,1.221,0,0,1-.333-.038c-.566-.164-.658-1.485-.547-2.022a.118.118,0,0,1,.232.047c-.114.554.035,1.647.381,1.748a3.506,3.506,0,0,0,1.326-.131c-.142-.371-.485-1.382-.207-1.839a.485.485,0,0,1,.392-.233.406.406,0,0,1,.391.161c.34.471-.241,1.878-.308,2.037a.116.116,0,0,1-.054.059l-.024.009a5.668,5.668,0,0,1-1.251.2m1.3-2.234h-.031a.248.248,0,0,0-.21.121c-.178.293.007,1.008.166,1.467.2-.556.39-1.292.223-1.523a.164.164,0,0,0-.149-.066" transform="translate(-169.942 -79.165)" fill="#304572"/>
        <path id="Trazado_779555" data-name="Trazado 779555" d="M258.259,129.019a.361.361,0,0,1-.309-.159c-.369-.529.3-2.41.377-2.622a.119.119,0,0,1,.118-.078.118.118,0,0,1,.108.092c.047.211.452,2.079.026,2.61a.4.4,0,0,1-.321.157m.149-2.281c-.237.753-.451,1.718-.264,1.988a.125.125,0,0,0,.113.057.163.163,0,0,0,.137-.069c.24-.3.13-1.3.013-1.976" transform="translate(-171.056 -83.697)" fill="#304572"/>
        <path id="Trazado_779556" data-name="Trazado 779556" d="M279.479,135.462a.118.118,0,0,1-.115-.093l-.565-2.6a.116.116,0,0,1,.009-.077,6.652,6.652,0,0,0,.541-2.984,8.684,8.684,0,0,0-1.493-3.558.118.118,0,0,1,.193-.138,8.753,8.753,0,0,1,1.536,3.68,6.8,6.8,0,0,1-.547,3.065l.557,2.556a.118.118,0,0,1-.091.141.107.107,0,0,1-.025,0" transform="translate(-184.32 -83.569)" fill="#e29233"/>
        <path id="Trazado_779557" data-name="Trazado 779557" d="M283.768,157.01l-7.384,2.279s6,7.553,8.527,3.552-1.143-5.831-1.143-5.831" transform="translate(-183.358 -104.163)" fill="#d8998b"/>
        <path id="Trazado_779558" data-name="Trazado 779558" d="M299.682,159.255s4.088,0,3.882,1.1-2.59.577-2.59.577Z" transform="translate(-198.815 -105.653)" fill="#d8998b"/>
        <path id="Trazado_779559" data-name="Trazado 779559" d="M336.848,134.154s-1.129-3.929-.013-4.034,1.267,2.332,1.267,2.332Z" transform="translate(-223.136 -86.322)" fill="#d8998b"/>
        <path id="Trazado_779560" data-name="Trazado 779560" d="M288.077,149.705l-.246-.32a.733.733,0,0,1,.134-1.028l18.888-14.538a.733.733,0,0,1,1.028.134l.246.32a.733.733,0,0,1-.134,1.028l-18.888,14.539a.733.733,0,0,1-1.028-.134" transform="translate(-190.852 -88.677)" fill="#3d5da3"/>
        <path id="Trazado_779561" data-name="Trazado 779561" d="M287.33,148.734l-.247-.32a.733.733,0,0,1,.134-1.028l18.888-14.538a.733.733,0,0,1,1.028.134l.247.32a.733.733,0,0,1-.134,1.028l-18.888,14.539a.733.733,0,0,1-1.028-.134" transform="translate(-190.356 -88.033)" fill="#373f51"/>
        <path id="Trazado_779562" data-name="Trazado 779562" d="M350.011,92.961a15.929,15.929,0,0,1-2.056-.134,15.634,15.634,0,1,1,2.056.134m-.048-29.691a14,14,0,1,0,11.115,5.457,13.933,13.933,0,0,0-11.115-5.457" transform="translate(-221.779 -40.859)" fill="#373f51"/>
        <path id="Trazado_779563" data-name="Trazado 779563" d="M344.221,82.788a.117.117,0,0,1-.086-.037.119.119,0,0,1,.005-.167L355.193,72.21a.118.118,0,0,1,.162.173L344.3,82.756a.12.12,0,0,1-.081.032" transform="translate(-228.284 -47.884)" fill="#fff"/>
        <path id="Trazado_779564" data-name="Trazado 779564" d="M327.373,137.164a2.1,2.1,0,0,0,.188.982c.454,1.05,2.245,3.767,3.43,3.524,1.135-.233.187-1.772.187-1.772s1.012,1.088,1.518.144a1.44,1.44,0,0,0-.2-1.521s1.327,1.859,1.53.481-2.048-4.845-3.056-5.431-1.115,1.147-1.115,1.147-1.17-.488-1.536.1c-.388.623.3,1.38.3,1.38a1,1,0,0,0-1.247.965" transform="translate(-217.183 -88.534)" fill="#d8998b"/>
        <path id="Trazado_779565" data-name="Trazado 779565" d="M333.932,145.732a.119.119,0,0,1-.1-.053l-2.293-3.429a.118.118,0,1,1,.2-.131l2.293,3.429a.118.118,0,0,1-.1.184" transform="translate(-219.937 -94.25)"/>
        <path id="Trazado_779566" data-name="Trazado 779566" d="M337.754,141.676a.118.118,0,0,1-.1-.051l-2.343-3.413a.118.118,0,0,1,.195-.134l2.343,3.413a.118.118,0,0,1-.031.164.116.116,0,0,1-.067.021" transform="translate(-222.439 -91.57)"/>
        <path id="Trazado_779567" data-name="Trazado 779567" d="M295.175,162.049a2.086,2.086,0,0,0-.178-.975c-.442-1.048-2.2-3.776-3.381-3.564-1.132.2-.2,1.747-.2,1.747s-1-1.1-1.509-.179a1.426,1.426,0,0,0,.183,1.508s-1.146-1.046-1.361.311,1.836,4.015,2.834,4.618,1.12-1.108,1.12-1.108,1.16.511,1.53-.063c.392-.607-.285-1.371-.285-1.371a.977.977,0,0,0,1.25-.924" transform="translate(-191.536 -104.487)" fill="#d8998b"/>
        <path id="Trazado_779568" data-name="Trazado 779568" d="M298.881,165.865a.119.119,0,0,1-.1-.054l-2.236-3.467a.118.118,0,0,1,.2-.128l2.236,3.467a.119.119,0,0,1-.1.182" transform="translate(-196.721 -107.581)"/>
        <path id="Trazado_779569" data-name="Trazado 779569" d="M294.943,169.872a.119.119,0,0,1-.1-.053l-2.286-3.451a.118.118,0,0,1,.2-.131l2.286,3.451a.118.118,0,0,1-.033.164.115.115,0,0,1-.065.02" transform="translate(-194.075 -110.25)"/>
        <path id="Trazado_779570" data-name="Trazado 779570" d="M229.679,126.5s-6.029,6.983-2.472,14.6c3.168,6.782,10.631,6.966,14.452,5.772a14.5,14.5,0,0,0,5.682-3.084l-1.074-6.326s-6.956-.029-10.777-.387-5.811-10.575-5.811-10.575" transform="translate(-149.988 -83.922)" fill="#373f51"/>
        <path id="Trazado_779571" data-name="Trazado 779571" d="M244.951,157c-.494,0-.875-.065-.97-.249-.108-.211.117-.426.192-.5,1.206-1.146,3.6.12,3.7.175a.118.118,0,0,1-.034.22,18.124,18.124,0,0,1-2.884.35m.573-.984a1.671,1.671,0,0,0-1.188.41c-.141.134-.152.2-.144.217.121.235,1.708.11,3.239-.159a5.143,5.143,0,0,0-1.907-.468" transform="translate(-161.842 -103.343)" fill="#e29233"/>
        <path id="Trazado_779572" data-name="Trazado 779572" d="M258.135,158.027l-3.22-.225a.118.118,0,0,1-.11-.126.12.12,0,0,1,.126-.11l3.212.224a.118.118,0,0,1-.008.236" transform="translate(-169.042 -104.533)" fill="#e29233"/>
        <path id="Trazado_779573" data-name="Trazado 779573" d="M626.348,26.508H583.085a.118.118,0,1,1,0-.237h43.263a.118.118,0,1,1,0,.237" transform="translate(-386.751 -17.429)" fill="#fff"/>
        <path id="Trazado_779574" data-name="Trazado 779574" d="M704.217,22.461a.118.118,0,0,1-.077-.208l1.121-.954a.118.118,0,1,1,.153.18l-1.121.954a.118.118,0,0,1-.076.028" transform="translate(-467.112 -14.111)" fill="#fff"/>
        <path id="Trazado_779575" data-name="Trazado 779575" d="M705.338,22.46a.117.117,0,0,1-.077-.028l-1.121-.954a.118.118,0,1,1,.153-.18l1.121.954a.118.118,0,0,1-.077.208" transform="translate(-467.112 -14.111)" fill="#fff"/>
        <path id="Trazado_779576" data-name="Trazado 779576" d="M701.776,17.441H682.325a2.322,2.322,0,0,1-2.32-2.32V6.537a2.322,2.322,0,0,1,2.32-2.32h19.451a2.323,2.323,0,0,1,2.32,2.32v8.584a2.323,2.323,0,0,1-2.32,2.32M682.325,4.454a2.086,2.086,0,0,0-2.083,2.083v8.584a2.086,2.086,0,0,0,2.083,2.083h19.451a2.085,2.085,0,0,0,2.083-2.083V6.537a2.085,2.085,0,0,0-2.083-2.083Z" transform="translate(-451.128 -2.798)" fill="#304572"/>
        <path id="Trazado_779577" data-name="Trazado 779577" d="M703.978,12.895H680.123a.118.118,0,0,1,0-.237h23.855a.118.118,0,1,1,0,.237" transform="translate(-451.128 -8.398)" fill="#304572"/>
        <path id="Trazado_779578" data-name="Trazado 779578" d="M732.635,7.569a.486.486,0,1,1-.486-.486.486.486,0,0,1,.486.486" transform="translate(-485.399 -4.699)" fill="#304572"/>
        <path id="Trazado_779579" data-name="Trazado 779579" d="M738.13,7.569a.486.486,0,1,1-.486-.486.486.486,0,0,1,.486.486" transform="translate(-489.045 -4.699)" fill="#304572"/>
        <path id="Trazado_779580" data-name="Trazado 779580" d="M743.866,7.569a.486.486,0,1,1-.486-.486.486.486,0,0,1,.486.486" transform="translate(-492.85 -4.699)" fill="#304572"/>
      </g>
    </g>
  </g>
</svg>
