<svg id="Grupo_1032026" data-name="Grupo 1032026" xmlns="http://www.w3.org/2000/svg" xmlns:xlink="http://www.w3.org/1999/xlink" width="367.925" height="261.275" viewBox="0 0 367.925 261.275">
  <defs>
    <clipPath id="clip-path">
      <rect id="Rectángulo_365688" data-name="Rectángulo 365688" width="367.925" height="261.275" fill="none"/>
    </clipPath>
  </defs>
  <g id="Grupo_1032025" data-name="Grupo 1032025" clip-path="url(#clip-path)">
    <path id="Trazado_778646" data-name="Trazado 778646" d="M5.562,167.212c13.105,39.344,52.9,68.364,95.377,64.12,57.233-2.723,112.3-55.38,169.761-29.523,42.363,22.905,88.955,12.973,95.649-39.68,9.458-43.054-25.256-103.707-61.734-126.522C262.612,10.439,211.932.656,163.237.14,74.905-3.732-24.791,73.468,5.562,167.212" transform="translate(0 0)" fill="#f6f6f6"/>
    <path id="Trazado_778647" data-name="Trazado 778647" d="M127.634,104.211v27.468c0,3.931-23.6,7.115-52.714,7.115s-52.712-3.184-52.712-7.115V104.211c0,3.931,23.6,7.115,52.712,7.115s52.714-3.184,52.714-7.115" transform="translate(20.441 95.92)" fill="#4adbd1"/>
    <path id="Trazado_778648" data-name="Trazado 778648" d="M127.634,107.621c0,3.931-23.6,7.115-52.714,7.115s-52.712-3.184-52.712-7.115,23.6-7.115,52.712-7.115,52.714,3.184,52.714,7.115" transform="translate(20.441 92.509)" fill="#f2e9da"/>
    <path id="Trazado_778649" data-name="Trazado 778649" d="M112.487,98.705v13.226c0,1.894-19.016,3.426-42.474,3.426s-42.472-1.533-42.472-3.426V98.705c0-1.892,19.016-3.426,42.472-3.426s42.474,1.534,42.474,3.426" transform="translate(25.349 87.698)" fill="#5573c6"/>
    <path id="Trazado_778650" data-name="Trazado 778650" d="M127.634,84.42v27.468c0,3.931-23.6,7.115-52.714,7.115s-52.712-3.184-52.712-7.115V84.42c0,3.931,23.6,7.115,52.712,7.115s52.714-3.184,52.714-7.115" transform="translate(20.441 77.703)" fill="#4adbd1"/>
    <path id="Trazado_778651" data-name="Trazado 778651" d="M127.634,87.83c0,3.931-23.6,7.115-52.714,7.115S22.208,91.761,22.208,87.83s23.6-7.115,52.712-7.115,52.714,3.184,52.714,7.115" transform="translate(20.441 74.293)" fill="#f2e9da"/>
    <path id="Trazado_778652" data-name="Trazado 778652" d="M112.487,78.914V92.14c0,1.894-19.016,3.426-42.474,3.426S27.54,94.034,27.54,92.14V78.914c0-1.892,19.016-3.426,42.472-3.426s42.474,1.534,42.474,3.426" transform="translate(25.349 69.482)" fill="#5573c6"/>
    <path id="Trazado_778653" data-name="Trazado 778653" d="M127.634,62.177V89.645c0,3.931-23.6,7.115-52.714,7.115s-52.712-3.184-52.712-7.115V62.177c0,3.931,23.6,7.115,52.712,7.115s52.714-3.184,52.714-7.115" transform="translate(20.441 57.23)" fill="#4adbd1"/>
    <path id="Trazado_778654" data-name="Trazado 778654" d="M127.634,65.587c0,3.931-23.6,7.115-52.714,7.115s-52.712-3.184-52.712-7.115,23.6-7.115,52.712-7.115,52.714,3.184,52.714,7.115" transform="translate(20.441 53.82)" fill="#f2e9da"/>
    <path id="Trazado_778655" data-name="Trazado 778655" d="M30.872,80.906a6.751,6.751,0,1,1,6.752-6.752,6.759,6.759,0,0,1-6.752,6.752m0-12.9a6.152,6.152,0,1,0,6.151,6.151A6.158,6.158,0,0,0,30.872,68" transform="translate(22.201 62.04)" fill="#25292b"/>
    <path id="Trazado_778656" data-name="Trazado 778656" d="M37.083,96.517a6.452,6.452,0,1,1-6.453-6.453,6.453,6.453,0,0,1,6.453,6.453" transform="translate(22.256 82.898)" fill="#5573c6"/>
    <path id="Trazado_778657" data-name="Trazado 778657" d="M30.775,123.2a6.751,6.751,0,1,1,6.752-6.75,6.759,6.759,0,0,1-6.752,6.75m0-12.9a6.152,6.152,0,1,0,6.151,6.153,6.159,6.159,0,0,0-6.151-6.153" transform="translate(22.112 100.972)" fill="#25292b"/>
    <path id="Trazado_778658" data-name="Trazado 778658" d="M94.783,72.2H37.971a1.063,1.063,0,1,1,0-2.126H94.783a1.063,1.063,0,1,1,0,2.126" transform="translate(33.971 64.499)" fill="#f2e9da"/>
    <path id="Trazado_778659" data-name="Trazado 778659" d="M94.783,75.3H37.971a1.063,1.063,0,1,1,0-2.126H94.783a1.063,1.063,0,1,1,0,2.126" transform="translate(33.971 67.348)" fill="#f2e9da"/>
    <path id="Trazado_778660" data-name="Trazado 778660" d="M94.392,94.707H37.58a1.063,1.063,0,1,1,0-2.126H94.392a1.063,1.063,0,1,1,0,2.126" transform="translate(33.611 85.215)" fill="#f2e9da"/>
    <path id="Trazado_778661" data-name="Trazado 778661" d="M94.392,97.8H37.58a1.063,1.063,0,1,1,0-2.126H94.392a1.063,1.063,0,1,1,0,2.126" transform="translate(33.611 88.065)" fill="#f2e9da"/>
    <path id="Trazado_778662" data-name="Trazado 778662" d="M94.392,114.291H37.58a1.063,1.063,0,1,1,0-2.126H94.392a1.063,1.063,0,1,1,0,2.126" transform="translate(33.611 103.241)" fill="#f2e9da"/>
    <path id="Trazado_778663" data-name="Trazado 778663" d="M94.392,117.387H37.58a1.063,1.063,0,1,1,0-2.126H94.392a1.063,1.063,0,1,1,0,2.126" transform="translate(33.611 106.09)" fill="#f2e9da"/>
    <path id="Trazado_778664" data-name="Trazado 778664" d="M211.641,110.062v18.93c0,2.708-16.264,4.9-36.327,4.9s-36.327-2.2-36.327-4.9v-18.93c0,2.708,16.264,4.9,36.327,4.9s36.327-2.2,36.327-4.9" transform="translate(127.929 101.305)" fill="#4adbd1"/>
    <path id="Trazado_778665" data-name="Trazado 778665" d="M211.641,112.412c0,2.708-16.264,4.9-36.327,4.9s-36.327-2.2-36.327-4.9,16.264-4.9,36.327-4.9,36.327,2.2,36.327,4.9" transform="translate(127.929 98.955)" fill="#f2e9da"/>
    <path id="Trazado_778666" data-name="Trazado 778666" d="M201.2,106.267v9.114c0,1.3-13.105,2.362-29.271,2.362s-29.269-1.058-29.269-2.362v-9.114c0-1.3,13.105-2.36,29.269-2.36s29.271,1.056,29.271,2.36" transform="translate(131.311 95.64)" fill="#5573c6"/>
    <path id="Trazado_778667" data-name="Trazado 778667" d="M211.641,96.423v18.93c0,2.708-16.264,4.9-36.327,4.9s-36.327-2.2-36.327-4.9V96.423c0,2.708,16.264,4.9,36.327,4.9s36.327-2.2,36.327-4.9" transform="translate(127.929 88.751)" fill="#4adbd1"/>
    <path id="Trazado_778668" data-name="Trazado 778668" d="M211.641,98.773c0,2.708-16.264,4.9-36.327,4.9s-36.327-2.2-36.327-4.9,16.264-4.9,36.327-4.9,36.327,2.2,36.327,4.9" transform="translate(127.929 86.401)" fill="#f2e9da"/>
    <path id="Trazado_778669" data-name="Trazado 778669" d="M201.2,92.628v9.114c0,1.3-13.105,2.362-29.271,2.362s-29.269-1.058-29.269-2.362V92.628c0-1.3,13.105-2.36,29.269-2.36s29.271,1.056,29.271,2.36" transform="translate(131.311 83.086)" fill="#5573c6"/>
    <path id="Trazado_778670" data-name="Trazado 778670" d="M211.641,81.094v18.93c0,2.708-16.264,4.9-36.327,4.9s-36.327-2.2-36.327-4.9V81.094c0,2.708,16.264,4.9,36.327,4.9s36.327-2.2,36.327-4.9" transform="translate(127.929 74.642)" fill="#4adbd1"/>
    <path id="Trazado_778671" data-name="Trazado 778671" d="M211.641,83.444c0,2.708-16.264,4.9-36.327,4.9s-36.327-2.2-36.327-4.9,16.264-4.9,36.327-4.9,36.327,2.2,36.327,4.9" transform="translate(127.929 72.292)" fill="#f2e9da"/>
    <path id="Trazado_778672" data-name="Trazado 778672" d="M145,94.138a4.745,4.745,0,1,1,4.747-4.745A4.75,4.75,0,0,1,145,94.138m0-8.892a4.146,4.146,0,1,0,4.146,4.146A4.151,4.151,0,0,0,145,85.246" transform="translate(129.098 77.912)" fill="#25292b"/>
    <path id="Trazado_778673" data-name="Trazado 778673" d="M149.239,104.759a4.446,4.446,0,1,1-4.446-4.446,4.446,4.446,0,0,1,4.446,4.446" transform="translate(129.18 92.332)" fill="#5573c6"/>
    <path id="Trazado_778674" data-name="Trazado 778674" d="M144.936,123.287a4.745,4.745,0,1,1,4.747-4.745,4.75,4.75,0,0,1-4.747,4.745m0-8.892a4.146,4.146,0,1,0,4.146,4.146,4.151,4.151,0,0,0-4.146-4.146" transform="translate(129.037 104.742)" fill="#25292b"/>
    <path id="Trazado_778675" data-name="Trazado 778675" d="M85.313,26.092h0a.28.28,0,0,1-.242-.14l-4.283-7.415a.281.281,0,0,1,0-.28l4.283-7.415a.279.279,0,0,1,.484,0l4.294,7.415a.281.281,0,0,1,0,.28l-4.294,7.415a.278.278,0,0,1-.242.14m-3.96-7.7,3.962,6.856,3.97-6.856-3.97-6.856Z" transform="translate(74.326 9.851)" fill="#f2e9da"/>
    <path id="Trazado_778676" data-name="Trazado 778676" d="M79.228,15.965a2.412,2.412,0,1,1,2.41-2.412,2.415,2.415,0,0,1-2.41,2.412m0-4.265a1.853,1.853,0,1,0,1.851,1.853A1.856,1.856,0,0,0,79.228,11.7" transform="translate(70.702 10.255)" fill="#f2e9da"/>
    <path id="Trazado_778677" data-name="Trazado 778677" d="M83.043,10.7a2.085,2.085,0,1,1,2.086-2.086A2.088,2.088,0,0,1,83.043,10.7m0-3.61a1.526,1.526,0,1,0,1.525,1.525,1.526,1.526,0,0,0-1.525-1.525" transform="translate(74.516 6.009)" fill="#f2e9da"/>
    <path id="Trazado_778678" data-name="Trazado 778678" d="M77.678,10.676a1.5,1.5,0,1,1,1.5-1.5,1.5,1.5,0,0,1-1.5,1.5m0-2.437a.939.939,0,1,0,.939.939.94.94,0,0,0-.939-.939" transform="translate(70.119 7.069)" fill="#f2e9da"/>
    <path id="Trazado_778679" data-name="Trazado 778679" d="M123.1,31.371h0a.278.278,0,0,1-.242-.142l-3.276-5.671a.272.272,0,0,1,0-.28l3.276-5.673a.281.281,0,0,1,.484,0l3.286,5.677a.281.281,0,0,1,0,.28l-3.286,5.675a.278.278,0,0,1-.242.138m-2.954-5.955,2.956,5.116,2.961-5.116L123.1,20.3Z" transform="translate(110.032 17.915)" fill="#f2e9da"/>
    <path id="Trazado_778680" data-name="Trazado 778680" d="M118.514,23.54a2.412,2.412,0,1,1,2.412-2.412,2.415,2.415,0,0,1-2.412,2.412m0-4.265a1.853,1.853,0,1,0,1.853,1.853,1.856,1.856,0,0,0-1.853-1.853" transform="translate(106.864 17.227)" fill="#f2e9da"/>
    <path id="Trazado_778681" data-name="Trazado 778681" d="M122.331,19.894a2.085,2.085,0,1,1,2.086-2.086,2.088,2.088,0,0,1-2.086,2.086m0-3.61a1.526,1.526,0,1,0,1.525,1.525,1.528,1.528,0,0,0-1.525-1.525" transform="translate(110.678 14.474)" fill="#f2e9da"/>
    <path id="Trazado_778682" data-name="Trazado 778682" d="M118.076,18.087a1.5,1.5,0,1,1,1.5-1.5,1.5,1.5,0,0,1-1.5,1.5m0-2.437a.939.939,0,1,0,.939.939.939.939,0,0,0-.939-.939" transform="translate(107.303 13.89)" fill="#f2e9da"/>
    <path id="Trazado_778683" data-name="Trazado 778683" d="M123.45,62.172h0a.28.28,0,0,1-.242-.14l-4.285-7.415a.281.281,0,0,1,0-.28l4.285-7.415a.279.279,0,0,1,.484,0l4.294,7.415a.281.281,0,0,1,0,.28l-4.294,7.415a.28.28,0,0,1-.242.14m-3.96-7.7,3.96,6.856,3.97-6.856-3.97-6.856Z" transform="translate(109.427 43.06)" fill="#f2e9da"/>
    <path id="Trazado_778684" data-name="Trazado 778684" d="M121.472,47.213a2.085,2.085,0,1,1,2.086-2.084,2.087,2.087,0,0,1-2.086,2.084m0-3.61A1.526,1.526,0,1,0,123,45.13a1.527,1.527,0,0,0-1.525-1.527" transform="translate(109.887 39.619)" fill="#f2e9da"/>
    <path id="Trazado_778685" data-name="Trazado 778685" d="M126.338,51.088a1.5,1.5,0,1,1,1.5-1.5,1.5,1.5,0,0,1-1.5,1.5m0-2.439a.94.94,0,1,0,.939.941.941.941,0,0,0-.939-.941" transform="translate(114.907 44.266)" fill="#f2e9da"/>
    <path id="Trazado_778686" data-name="Trazado 778686" d="M127.324,50.348h0a.283.283,0,0,1-.244-.14l-2.689-4.657a.272.272,0,0,1,0-.28l2.689-4.657a.283.283,0,0,1,.244-.14.28.28,0,0,1,.242.14l2.7,4.657a.281.281,0,0,1,0,.28l-2.7,4.657a.28.28,0,0,1-.242.14m-2.368-4.937,2.368,4.1,2.372-4.1-2.372-4.1Z" transform="translate(114.459 37.253)" fill="#f2e9da"/>
    <path id="Trazado_778687" data-name="Trazado 778687" d="M117.665,49.779a1.5,1.5,0,1,1,1.5-1.5,1.5,1.5,0,0,1-1.5,1.5m0-2.437a.939.939,0,1,0,.939.939.939.939,0,0,0-.939-.939" transform="translate(106.924 43.061)" fill="#f2e9da"/>
    <path id="Trazado_778688" data-name="Trazado 778688" d="M24.783,48.14h0a.28.28,0,0,1-.242-.14l-3.276-5.673a.272.272,0,0,1,0-.28l3.276-5.673a.28.28,0,0,1,.484,0l3.286,5.675a.281.281,0,0,1,0,.28L25.025,48a.278.278,0,0,1-.242.138m-2.954-5.953L24.785,47.3l2.961-5.114-2.961-5.114Z" transform="translate(19.537 33.35)" fill="#f2e9da"/>
    <path id="Trazado_778689" data-name="Trazado 778689" d="M20.2,40.309A2.412,2.412,0,1,1,22.608,37.9,2.415,2.415,0,0,1,20.2,40.309m0-4.265A1.853,1.853,0,1,0,22.049,37.9,1.856,1.856,0,0,0,20.2,36.044" transform="translate(16.369 32.662)" fill="#f2e9da"/>
    <path id="Trazado_778690" data-name="Trazado 778690" d="M24.013,36.664A2.085,2.085,0,1,1,26.1,34.579a2.088,2.088,0,0,1-2.086,2.086m0-3.612a1.527,1.527,0,1,0,1.525,1.527,1.529,1.529,0,0,0-1.525-1.527" transform="translate(20.182 29.91)" fill="#f2e9da"/>
    <path id="Trazado_778691" data-name="Trazado 778691" d="M19.758,34.856a1.5,1.5,0,1,1,1.5-1.5,1.5,1.5,0,0,1-1.5,1.5m0-2.437a.939.939,0,1,0,.939.939.939.939,0,0,0-.939-.939" transform="translate(16.807 29.325)" fill="#f2e9da"/>
    <path id="Trazado_778692" data-name="Trazado 778692" d="M192.386,104.194h-3.6a.3.3,0,1,1,0-.6h3.6a.3.3,0,1,1,0,.6m-7.2,0h-3.6a.3.3,0,0,1,0-.6h3.6a.3.3,0,0,1,0,.6m-7.2-.06-.038,0a8.009,8.009,0,0,1-3.47-1.3.3.3,0,0,1-.083-.415.3.3,0,0,1,.417-.083,7.4,7.4,0,0,0,3.211,1.2.3.3,0,0,1-.036.6m17.993-.033a.3.3,0,0,1-.048-.6,6.36,6.36,0,0,0,3.077-1.436.3.3,0,1,1,.388.455,6.932,6.932,0,0,1-3.366,1.573.22.22,0,0,1-.05,0m-38.476-.747a.3.3,0,0,1-.3-.3v-3.6a.3.3,0,1,1,.6,0v3.6a.3.3,0,0,1-.3.3m14.718-3.084a.3.3,0,0,1-.261-.154,8.018,8.018,0,0,1-1.024-3.562.3.3,0,0,1,.286-.311.283.283,0,0,1,.313.284,7.324,7.324,0,0,0,.947,3.3.3.3,0,0,1-.113.409.32.32,0,0,1-.148.038m28.974-.616a.291.291,0,0,1-.1-.017.3.3,0,0,1-.188-.38,6.321,6.321,0,0,0,.332-2.034V95.792a.3.3,0,1,1,.6,0v1.431a6.945,6.945,0,0,1-.365,2.228.3.3,0,0,1-.284.2m-43.684-3.5H157.5a.3.3,0,0,1-.286-.313,7.152,7.152,0,0,1,1.131-3.537.3.3,0,1,1,.505.325,6.554,6.554,0,0,0-1.037,3.242.3.3,0,0,1-.3.284m12.969-2.792a.3.3,0,0,1-.267-.163,6.58,6.58,0,0,0-2.281-2.525.3.3,0,0,1,.328-.505,7.209,7.209,0,0,1,2.487,2.758.3.3,0,0,1-.131.4.286.286,0,0,1-.136.033m31.063-.87a.3.3,0,0,1-.3-.3v-3.6a.3.3,0,0,1,.6,0v3.6a.3.3,0,0,1-.3.3m-40.312-2.116a.3.3,0,0,1-.136-.567,7.117,7.117,0,0,1,3.632-.78.3.3,0,0,1,.284.315.282.282,0,0,1-.315.284,6.513,6.513,0,0,0-3.326.714.3.3,0,0,1-.138.033m40.312-5.083a.3.3,0,0,1-.3-.3v-3.6a.3.3,0,1,1,.6,0v3.6a.3.3,0,0,1-.3.3m0-7.2a.3.3,0,0,1-.3-.3v-3.6a.3.3,0,0,1,.6,0v3.6a.3.3,0,0,1-.3.3m0-7.2a.3.3,0,0,1-.3-.3v-3.6a.3.3,0,1,1,.6,0v3.6a.3.3,0,0,1-.3.3m0-7.2a.3.3,0,0,1-.3-.3v-3.6a.3.3,0,0,1,.6,0v3.6a.3.3,0,0,1-.3.3m-.1-7.194a.3.3,0,0,1-.3-.252,7.347,7.347,0,0,0-1.335-3.155.3.3,0,0,1,.484-.355,7.964,7.964,0,0,1,1.444,3.413.3.3,0,0,1-.248.346l-.05,0m-4.116-5.585a.278.278,0,0,1-.134-.033,7.291,7.291,0,0,0-3.305-.782.315.315,0,0,1-.317-.3.287.287,0,0,1,.284-.3,7.916,7.916,0,0,1,3.607.845.3.3,0,0,1,.133.4.3.3,0,0,1-.267.165" transform="translate(144.698 45.558)" fill="#25292b"/>
    <path id="Trazado_778693" data-name="Trazado 778693" d="M22.59,143.172h0q-.38,0-.749-.035a.3.3,0,0,1-.271-.328.306.306,0,0,1,.328-.269c.227.021.457.033.691.033h0a7.052,7.052,0,0,0,2.687-.528.3.3,0,0,1,.229.555,7.636,7.636,0,0,1-2.915.572m-4.083-1.227a.308.308,0,0,1-.165-.05,7.746,7.746,0,0,1-2.506-2.735.3.3,0,0,1,.528-.288,7.156,7.156,0,0,0,2.31,2.523.3.3,0,0,1-.167.549m9.756-1.435a.3.3,0,0,1-.23-.492,7.06,7.06,0,0,0,1.486-3.078.3.3,0,0,1,.588.121,7.67,7.67,0,0,1-1.613,3.342.3.3,0,0,1-.23.108m-13.057-4.644a.3.3,0,0,1-.3-.3v-3.6a.3.3,0,0,1,.6,0v3.6a.3.3,0,0,1-.3.3Zm14.762-2.155a.3.3,0,0,1-.3-.3v-3.6a.3.3,0,0,1,.6,0v3.6a.3.3,0,0,1-.3.3M15.2,128.667a.3.3,0,0,1-.3-.3v-3.6a.3.3,0,0,1,.6,0v3.6a.3.3,0,0,1-.3.3m14.764-2.155a.3.3,0,0,1-.3-.3v-3.6a.3.3,0,1,1,.6,0v3.6a.3.3,0,0,1-.3.3M15.2,121.465a.3.3,0,0,1-.3-.3v-3.6a.3.3,0,0,1,.6,0v3.6a.3.3,0,0,1-.3.3m14.764-2.155a.3.3,0,0,1-.3-.3v-3.6a.3.3,0,0,1,.6,0v3.6a.3.3,0,0,1-.3.3M15.2,114.266a.3.3,0,0,1-.3-.3v-3.6a.3.3,0,0,1,.6,0v3.6a.3.3,0,0,1-.3.3m14.764-2.155a.3.3,0,0,1-.3-.3v-3.6a.3.3,0,1,1,.6,0v3.6a.3.3,0,0,1-.3.3M15.2,107.064a.3.3,0,0,1-.3-.3v-3.6a.3.3,0,0,1,.6,0v3.6a.3.3,0,0,1-.3.3m14.764-2.155a.3.3,0,0,1-.3-.3v-3.6a.3.3,0,0,1,.6,0v3.6a.3.3,0,0,1-.3.3M15.2,99.864a.3.3,0,0,1-.3-.3v-3.6a.3.3,0,0,1,.6,0v3.6a.3.3,0,0,1-.3.3m14.764-2.155a.3.3,0,0,1-.3-.3v-3.6a.3.3,0,1,1,.6,0v3.6a.3.3,0,0,1-.3.3M15.2,92.663a.3.3,0,0,1-.3-.3v-3.6a.3.3,0,0,1,.6,0v3.6a.3.3,0,0,1-.3.3m14.764-2.155a.3.3,0,0,1-.3-.3v-3.6a.3.3,0,0,1,.6,0v3.6a.3.3,0,0,1-.3.3M15.2,85.463a.3.3,0,0,1-.3-.3v-3.6a.3.3,0,0,1,.6,0v3.6a.3.3,0,0,1-.3.3m14.764-2.155a.3.3,0,0,1-.3-.3v-3.6a.3.3,0,1,1,.6,0v3.6a.3.3,0,0,1-.3.3M15.2,78.261a.3.3,0,0,1-.3-.3v-.515a7.035,7.035,0,0,0-.607-2.875.3.3,0,0,1,.547-.244,7.628,7.628,0,0,1,.661,3.119v.515a.3.3,0,0,1-.3.3m14.9-2.145a.292.292,0,0,1-.058-.006.3.3,0,0,1-.238-.351A7.689,7.689,0,0,1,31.382,72.4a.3.3,0,1,1,.465.378,7.075,7.075,0,0,0-1.448,3.1.3.3,0,0,1-.294.244M12.379,71.939a.287.287,0,0,1-.184-.063,7.073,7.073,0,0,0-3.119-1.4.3.3,0,1,1,.106-.59A7.685,7.685,0,0,1,12.565,71.4a.3.3,0,0,1-.186.536m22.079-1.2a.3.3,0,0,1-.117-.576,7.641,7.641,0,0,1,3.007-.611c.2,0,.405-.01.6-.025a.3.3,0,0,1,.325.275.3.3,0,0,1-.277.323c-.215.017-.432.027-.653.027a7.06,7.06,0,0,0-2.773.563.279.279,0,0,1-.117.025M5.534,70.366h-3.6a.3.3,0,1,1,0-.6h3.6a.3.3,0,1,1,0,.6m35.837-1.335a.3.3,0,0,1-.156-.557,7.524,7.524,0,0,0,2.449-2.4.3.3,0,0,1,.507.321,8.153,8.153,0,0,1-2.644,2.6.3.3,0,0,1-.156.042m3.708-5.871-.031,0a.3.3,0,0,1-.269-.328,7.36,7.36,0,0,0,.036-.745V59.26a.3.3,0,0,1,.6,0v2.825a7.978,7.978,0,0,1-.04.8.3.3,0,0,1-.3.271m.038-7.2a.3.3,0,0,1-.3-.3V52.47c0-.142,0-.284.012-.424a.3.3,0,0,1,.6.031c-.006.131-.01.263-.01.4v3.19a.3.3,0,0,1-.3.3m1.008-7.025a.3.3,0,0,1-.259-.447,8.144,8.144,0,0,1,2.52-2.717.3.3,0,0,1,.334.5,7.555,7.555,0,0,0-2.333,2.514.3.3,0,0,1-.261.152m5.765-3.872a.3.3,0,0,1-.038-.6,8.046,8.046,0,0,1,1.033-.065h2.6a.3.3,0,1,1,0,.6h-2.6a7.544,7.544,0,0,0-.956.061l-.038,0" transform="translate(1.504 40.869)" fill="#25292b"/>
    <rect id="Rectángulo_365651" data-name="Rectángulo 365651" width="53.296" height="23.27" transform="translate(174.356 201.824)" fill="#25292b"/>
    <path id="Trazado_778694" data-name="Trazado 778694" d="M111.413,53.946,87.433,57A21.773,21.773,0,0,0,69.02,73.481L65.484,102.6H90.34L86.7,141.076l22.548,12.679h53.49l-6.117-42.7,3.447-13.566h19.907l-5.064-23.032a21.77,21.77,0,0,0-17-16.675l-19.179-3.831Z" transform="translate(60.274 49.654)" fill="#5573c6"/>
    <path id="Trazado_778695" data-name="Trazado 778695" d="M119.869,99.3v16.9H73.454a8.4,8.4,0,0,1-8.377-8.953L66.932,79.28H92.063L90.286,93.514Z" transform="translate(59.882 72.972)" fill="#d3c2a9"/>
    <path id="Trazado_778696" data-name="Trazado 778696" d="M88.281,86.667H73.851v-.6H87.78L90.4,71.581l.591.108Z" transform="translate(67.975 65.885)" fill="#25292b"/>
    <path id="Trazado_778697" data-name="Trazado 778697" d="M113.371,95.379l-.584-.14,5.838-24.188.584.14Z" transform="translate(103.813 65.397)" fill="#25292b"/>
    <path id="Trazado_778698" data-name="Trazado 778698" d="M144.061,75.714h0a3.444,3.444,0,0,1-2.324-4.263l5.861-19.9a3.432,3.432,0,1,1,6.585,1.94l-5.859,19.9a3.444,3.444,0,0,1-4.263,2.324" transform="translate(130.331 45.181)" fill="#d3c2a9"/>
    <path id="Trazado_778699" data-name="Trazado 778699" d="M145.934,72.261h0a3.442,3.442,0,0,1-1.992-4.427l3.566-9.4a3.433,3.433,0,1,1,6.418,2.437l-3.566,9.395a3.441,3.441,0,0,1-4.427,1.991" transform="translate(132.285 51.751)" fill="#d3c2a9"/>
    <path id="Trazado_778700" data-name="Trazado 778700" d="M148.238,74.353h0a3.442,3.442,0,0,1-1.992-4.427l3.664-9.654a3.432,3.432,0,1,1,6.418,2.435l-3.664,9.654a3.442,3.442,0,0,1-4.427,1.992" transform="translate(134.406 53.439)" fill="#d3c2a9"/>
    <path id="Trazado_778701" data-name="Trazado 778701" d="M150.108,71.466h0a3.444,3.444,0,0,1-.609-4.816l3.777-4.868a3.433,3.433,0,0,1,5.425,4.208l-3.778,4.868a3.442,3.442,0,0,1-4.816.609" transform="translate(136.945 55.646)" fill="#d3c2a9"/>
    <path id="Trazado_778702" data-name="Trazado 778702" d="M156.77,64.621h0a3.444,3.444,0,0,1-4.073,2.641l-10.1-2.157a3.433,3.433,0,0,1,1.433-6.714l10.1,2.157a3.442,3.442,0,0,1,2.641,4.073" transform="translate(128.753 53.676)" fill="#d3c2a9"/>
    <path id="Trazado_778703" data-name="Trazado 778703" d="M186.153,70.92c-1.573,7.789-10.639,12.427-10.639,12.427l-26.769,30.189a20.316,20.316,0,0,1-16.153,7.979l-17.557-.275-2.5-17.18,3.864-12h17.138l.672,2.214,27.074-20.2,3.852-14.353Z" transform="translate(103.579 54.978)" fill="#d3c2a9"/>
    <path id="Trazado_778704" data-name="Trazado 778704" d="M146.58,67.12h-.012a.3.3,0,0,1-.288-.311,3.694,3.694,0,0,1,.238-1.175l.793-2.416a.3.3,0,0,1,.57.188l-.8,2.427a3.163,3.163,0,0,0-.205,1,.3.3,0,0,1-.3.288" transform="translate(134.641 57.998)" fill="#25292b"/>
    <path id="Trazado_778705" data-name="Trazado 778705" d="M149.358,67.918a3.678,3.678,0,0,1-1.308-.238,3.738,3.738,0,0,1-1.9-1.617.3.3,0,1,1,.519-.3,3.122,3.122,0,0,0,1.594,1.356,3.159,3.159,0,0,0,3.6-1.022.3.3,0,0,1,.476.367,3.769,3.769,0,0,1-2.979,1.456" transform="translate(134.486 60.392)" fill="#25292b"/>
    <path id="Trazado_778706" data-name="Trazado 778706" d="M151.935,67.642a3.714,3.714,0,0,1-2.787-1.26.3.3,0,0,1,.449-.4,3.042,3.042,0,0,0,.428.4,3.145,3.145,0,0,0,4.4-.555.3.3,0,1,1,.474.367,3.7,3.7,0,0,1-2.483,1.412,3.636,3.636,0,0,1-.478.031" transform="translate(137.212 60.487)" fill="#25292b"/>
    <path id="Trazado_778707" data-name="Trazado 778707" d="M146.487,67.625h-.008a.3.3,0,0,1-.292-.307,8.687,8.687,0,0,0-.073-1.363.3.3,0,0,1,.257-.338.3.3,0,0,1,.338.257,9.2,9.2,0,0,1,.077,1.46.3.3,0,0,1-.3.292" transform="translate(134.487 60.391)" fill="#25292b"/>
    <path id="Trazado_778708" data-name="Trazado 778708" d="M150.3,73.037a.3.3,0,0,1-.3-.259,9.334,9.334,0,0,0-4.513-6.495.3.3,0,0,1,.215-.555l5.222,1.35a3.133,3.133,0,0,0,1.294-6.13l-10.1-2.157a.3.3,0,0,1-.232-.355.3.3,0,0,1,.357-.23l10.1,2.157a3.744,3.744,0,0,1,2.871,4.429,3.741,3.741,0,0,1-4.43,2.873l-3.61-.935A9.4,9.4,0,0,1,150.6,72.7a.3.3,0,0,1-.257.336.144.144,0,0,1-.04,0" transform="translate(130.597 53.568)" fill="#25292b"/>
    <path id="Trazado_778709" data-name="Trazado 778709" d="M146,62.2a.32.32,0,0,1-.084-.012.3.3,0,0,1-.2-.373l1.588-5.391a.3.3,0,1,1,.574.169l-1.586,5.391A.3.3,0,0,1,146,62.2" transform="translate(134.108 51.733)" fill="#25292b"/>
    <path id="Trazado_778710" data-name="Trazado 778710" d="M148.562,62.318a.292.292,0,0,1-.106-.019.3.3,0,0,1-.175-.386l1.4-3.72a.3.3,0,0,1,.561.211l-1.4,3.72a.3.3,0,0,1-.28.194" transform="translate(136.465 53.384)" fill="#25292b"/>
    <path id="Trazado_778711" data-name="Trazado 778711" d="M149.373,70.834a.278.278,0,0,1-.109-.021.3.3,0,0,1-.169-.388l3.637-9.245a.3.3,0,0,1,.559.219l-3.639,9.245a.3.3,0,0,1-.278.19" transform="translate(137.212 56.138)" fill="#25292b"/>
    <path id="Trazado_778712" data-name="Trazado 778712" d="M137.668,43.141c-2.533,4.989-8.066,7.678-13.522,7.482a15.612,15.612,0,0,1-1.31,3.645A15.851,15.851,0,0,1,114.2,61.9c-3.416,1.233-7.538,1.271-10.332-1.123A16.573,16.573,0,0,1,95.62,60.1,15.825,15.825,0,0,1,85.154,45.346a13.8,13.8,0,0,1,3.078-9.17,8.75,8.75,0,0,1,7.35-3.061,8.4,8.4,0,0,1-.079-1.94,8.2,8.2,0,0,1,6.773-7.111,9.327,9.327,0,0,1,8.333,2.817,11.022,11.022,0,0,1,.96-1.723,9.928,9.928,0,0,1,17.893,4.35,8.286,8.286,0,0,1,3.839.4c5.312,1.826,6.706,8.632,4.367,13.232" transform="translate(78.379 19.363)" fill="#25292b"/>
    <path id="Trazado_778713" data-name="Trazado 778713" d="M86.671,52.852c1.63,4.121,4.63,6.437,8.513,5.4L92.747,73.445l18.74,18.738L120.2,76.06l-.35-6.862,2.923-2.7a21.894,21.894,0,0,0,6.994-17.612L128.757,34.44a.73.73,0,0,1-.1.035,21.405,21.405,0,0,1-7.828.453,26.5,26.5,0,0,1-8.792-2.166,3.682,3.682,0,0,1-.983,2.289,6.254,6.254,0,0,1-4.094,1.654,11.863,11.863,0,0,1-6.138-1.193q-1.417,4.007-3.1,7.92l0,.067L97.7,43.48a8.239,8.239,0,0,0-5.153-2.015,7.391,7.391,0,0,0-2.875.52c-4.083,1.621-4.757,6.447-3.005,10.866" transform="translate(78.94 30.155)" fill="#d3c2a9"/>
    <path id="Trazado_778714" data-name="Trazado 778714" d="M105.282,41.1a2.172,2.172,0,1,0,1.99-2.535,2.285,2.285,0,0,0-1.99,2.535" transform="translate(96.899 35.495)" fill="#25292b"/>
    <path id="Trazado_778715" data-name="Trazado 778715" d="M98.457,41.579a2.172,2.172,0,1,0,1.99-2.535,2.285,2.285,0,0,0-1.99,2.535" transform="translate(90.617 35.933)" fill="#25292b"/>
    <path id="Trazado_778716" data-name="Trazado 778716" d="M105.43,37.15a5.123,5.123,0,0,1,4.878.551.663.663,0,0,1-.7,1.123,4.208,4.208,0,0,0-.43-.277c-.073-.042-.148-.081-.223-.117l-.025-.012-.119-.048a4.4,4.4,0,0,0-.488-.161c-.083-.021-.165-.04-.25-.058l-.04-.01-.138-.019a4.566,4.566,0,0,0-.513-.035c-.084,0-.171,0-.255,0l-.129.008h0l-.012,0a4.965,4.965,0,0,0-.505.09q-.124.032-.248.069c-.04.012-.081.025-.121.038l-.021.008-.023.01a.682.682,0,0,1-.9-.269.671.671,0,0,1,.269-.9" transform="translate(96.73 33.849)" fill="#25292b"/>
    <path id="Trazado_778717" data-name="Trazado 778717" d="M103.081,38.242a.679.679,0,0,1-.853.39l-.025-.006-.021,0c-.042-.008-.084-.015-.127-.021-.084-.015-.169-.025-.253-.035a5.088,5.088,0,0,0-.513-.019h-.015l-.127.01c-.085.01-.171.019-.255.033a4.466,4.466,0,0,0-.5.106c-.046.012-.09.025-.134.038l-.04.013c-.079.031-.159.06-.238.094a4.262,4.262,0,0,0-.461.227l-.109.063-.025.015c-.069.046-.138.1-.2.146a4.969,4.969,0,0,0-.39.334.663.663,0,1,1-.851-1.016,5.119,5.119,0,0,1,4.753-1.221.668.668,0,0,1,.39.853" transform="translate(89.929 34.276)" fill="#25292b"/>
    <path id="Trazado_778718" data-name="Trazado 778718" d="M109.429,50.09l-7.134-.422.036-.6,6.266.371-3.144-10.075.574-.181Z" transform="translate(94.156 36.066)" fill="#25292b"/>
    <path id="Trazado_778719" data-name="Trazado 778719" d="M92.282,51.147a4.268,4.268,0,0,1-3.455-6.8,3.106,3.106,0,0,1,1.976-1.3,2.236,2.236,0,0,1,1.577.334,7.53,7.53,0,0,0-.434-2.057,3.762,3.762,0,0,0-1.767-2.088,1.783,1.783,0,0,0-1.431-.136,2.818,2.818,0,0,0-1.243,1.542l-.542-.261a3.34,3.34,0,0,1,1.557-1.838,2.385,2.385,0,0,1,1.922.154,4.37,4.37,0,0,1,2.063,2.412,9.407,9.407,0,0,1,.519,3.067l.044,1.291-.609-1.139a1.516,1.516,0,0,0-1.563-.688,2.538,2.538,0,0,0-1.586,1.06,3.667,3.667,0,0,0,3.211,5.832l.042.6c-.094.006-.188.01-.282.01" transform="translate(80.045 35.355)" fill="#25292b"/>
    <path id="Trazado_778720" data-name="Trazado 778720" d="M104.575,54.827a8.113,8.113,0,0,1-3.568-.92,21.055,21.055,0,0,1-3.772-2.623l.378-.465a20.654,20.654,0,0,0,3.66,2.552,6.986,6.986,0,0,0,4.2.78,9.244,9.244,0,0,0,3.895-1.982l.359.48a10.01,10.01,0,0,1-4.152,2.093,6.009,6.009,0,0,1-1,.084" transform="translate(89.499 46.776)" fill="#25292b"/>
    <path id="Trazado_778721" data-name="Trazado 778721" d="M105.082,49.925a7.763,7.763,0,0,1-6.072-5.012l.568-.2a7.147,7.147,0,0,0,5.59,4.615Z" transform="translate(91.132 41.159)" fill="#25292b"/>
    <rect id="Rectángulo_365652" data-name="Rectángulo 365652" width="56.828" height="5.448" transform="translate(156.06 193.624)" fill="#f4a338"/>
    <path id="Trazado_778722" data-name="Trazado 778722" d="M168.852,127H87.621l12-48.708h81.231Z" transform="translate(80.65 72.067)" fill="#e6b046"/>
    <rect id="Rectángulo_365653" data-name="Rectángulo 365653" width="94.616" height="0.599" transform="translate(156.06 193.325)" fill="#25292b"/>
    <path id="Trazado_778723" data-name="Trazado 778723" d="M171.554,136.3a15.283,15.283,0,0,1-11.319,6.581,15.531,15.531,0,0,1-1.938.033l-42.97-1.876-5.224-4.457,2.942-15.6,5.95-.494,36.513-7.972a15.26,15.26,0,0,1,14.849,4.984l.2.229a15.269,15.269,0,0,1,1,18.574" transform="translate(101.344 103.24)" fill="#5573c6"/>
    <path id="Trazado_778724" data-name="Trazado 778724" d="M138.9,141.9l-.407-.44a20.273,20.273,0,0,0,5.93-9.76,16.582,16.582,0,0,0-1.093-11.252,14.012,14.012,0,0,0-8.519-7.232l.163-.578a14.63,14.63,0,0,1,8.894,7.542,17.2,17.2,0,0,1,1.137,11.665A20.846,20.846,0,0,1,138.9,141.9" transform="translate(124.086 103.676)" fill="#d3c2a9"/>
    <path id="Trazado_778725" data-name="Trazado 778725" d="M114.389,132.407l-.6-.017a127.769,127.769,0,0,1,1.281-14.6l.593.086a127.035,127.035,0,0,0-1.275,14.534" transform="translate(104.736 108.415)" fill="#25292b"/>
    <path id="Trazado_778726" data-name="Trazado 778726" d="M120.522,131.645a27.633,27.633,0,0,1,.138-13.919l.578.157A27.031,27.031,0,0,0,121.1,131.5Z" transform="translate(110.176 108.359)" fill="#d3c2a9"/>
    <path id="Trazado_778727" data-name="Trazado 778727" d="M122.583,131.16a23.4,23.4,0,0,1,.474-13.259l.568.192a22.8,22.8,0,0,0-.463,12.915Z" transform="translate(112.152 108.52)" fill="#d3c2a9"/>
    <path id="Trazado_778728" data-name="Trazado 778728" d="M124.285,130.89a21.794,21.794,0,0,1,1.327-12.969l.551.238a21.188,21.188,0,0,0-1.291,12.61Z" transform="translate(113.989 108.539)" fill="#d3c2a9"/>
    <path id="Trazado_778729" data-name="Trazado 778729" d="M134.029,137.159a17.983,17.983,0,0,1,.259-22.252l.469.376a17.385,17.385,0,0,0-.252,21.511Z" transform="translate(119.935 105.765)" fill="#25292b"/>
    <path id="Trazado_778730" data-name="Trazado 778730" d="M158.488,128.9l-9.026,29.154-79.852-20.9A21.222,21.222,0,1,1,83.254,97.076Z" transform="translate(49.478 87.8)" fill="#25292b"/>
    <path id="Trazado_778731" data-name="Trazado 778731" d="M90.789,145.883l8.646,24.38L193.594,132.5a21.222,21.222,0,1,0-20.059-37.28Z" transform="translate(83.565 84.591)" fill="#25292b"/>
    <path id="Trazado_778732" data-name="Trazado 778732" d="M92.006,136.557l-.317-.509,54.61-33.875.317.509Z" transform="translate(84.394 94.045)" fill="#d3c2a9"/>
    <path id="Trazado_778733" data-name="Trazado 778733" d="M120,118.445,89.363,105.267l.238-.551,30.635,13.178Z" transform="translate(82.253 96.385)" fill="#d3c2a9"/>
    <path id="Trazado_778734" data-name="Trazado 778734" d="M66.523,146.135a15.27,15.27,0,0,0,12.247,4.626,15.493,15.493,0,0,0,1.917-.286l42.075-8.93,4.417-5.258-5.471-14.9-5.951.494L78.43,120.03A15.258,15.258,0,0,0,64.6,127.391l-.157.257a15.269,15.269,0,0,0,2.076,18.486" transform="translate(57.297 110.463)" fill="#5573c6"/>
    <path id="Trazado_778735" data-name="Trazado 778735" d="M74.468,150a20.843,20.843,0,0,1-7.678-8.911,17.2,17.2,0,0,1-.8-11.694,14.624,14.624,0,0,1,7.53-8.9l.255.544a14.006,14.006,0,0,0-7.211,8.534,16.6,16.6,0,0,0,.776,11.279A20.273,20.273,0,0,0,74.8,149.5Z" transform="translate(60.12 110.91)" fill="#d3c2a9"/>
    <path id="Trazado_778736" data-name="Trazado 778736" d="M93.953,136.518A127.058,127.058,0,0,0,90.3,122.393l.572-.184a128.291,128.291,0,0,1,3.67,14.194Z" transform="translate(83.115 112.486)" fill="#25292b"/>
    <path id="Trazado_778737" data-name="Trazado 778737" d="M94.008,147.329a3.756,3.756,0,0,1-2.257-.866c-1.477-1.185-2.387-3.117-2.783-5.905-.088-.63-.154-1.266-.217-1.9a19.111,19.111,0,0,0-.793-4.411l.152-.052-.01-.061-.223-.179c.054-.065.108-.132.161-.2-.689-4.269-1.344-8.669-.747-13.051.148-1.075.48-2.579,1.682-3.249a2.913,2.913,0,0,1,3.209.444,5.013,5.013,0,0,1,1.55,2.825,11.541,11.541,0,0,1-1.141,7.422,31.382,31.382,0,0,1-3.918,5.777l.029.184a13.333,13.333,0,0,1,7.532,9.1c.175.812.434,2.8-.926,3.733a2.256,2.256,0,0,1-1.3.392M88.754,134.79a23.522,23.522,0,0,1,.6,3.8c.063.628.127,1.256.213,1.878.373,2.629,1.212,4.436,2.566,5.523a2.522,2.522,0,0,0,2.842.447c1.06-.73.828-2.42.68-3.113a12.707,12.707,0,0,0-6.9-8.54m1.433-17.042a1.878,1.878,0,0,0-.92.229c-.966.538-1.25,1.859-1.379,2.806-.563,4.114.008,8.281.657,12.339a28.8,28.8,0,0,0,3.509-5.241,10.955,10.955,0,0,0,1.095-7.029,4.424,4.424,0,0,0-1.35-2.495,2.551,2.551,0,0,0-1.611-.609" transform="translate(80.131 107.83)" fill="#d3c2a9"/>
    <path id="Trazado_778738" data-name="Trazado 778738" d="M87.614,136.8l-.6-.048a27.006,27.006,0,0,0-2.376-13.408l.545-.25A27.629,27.629,0,0,1,87.614,136.8" transform="translate(77.905 113.301)" fill="#d3c2a9"/>
    <path id="Trazado_778739" data-name="Trazado 778739" d="M85.612,136.641l-.6-.054a22.793,22.793,0,0,0-2.585-12.661l.528-.284a23.384,23.384,0,0,1,2.654,13" transform="translate(75.872 113.805)" fill="#d3c2a9"/>
    <path id="Trazado_778740" data-name="Trazado 778740" d="M84.139,136.612l-.6-.023a21.2,21.2,0,0,0-3.349-12.224l.5-.326a21.794,21.794,0,0,1,3.445,12.573" transform="translate(73.811 114.17)" fill="#d3c2a9"/>
    <path id="Trazado_778741" data-name="Trazado 778741" d="M76.56,144.225l-.53-.282a17.386,17.386,0,0,0-3.791-21.175l.4-.449a17.984,17.984,0,0,1,3.923,21.906" transform="translate(66.491 112.587)" fill="#25292b"/>
    <path id="Trazado_778742" data-name="Trazado 778742" d="M210.036,112.663H135.277V22.18h74.759Zm-74.16-.6h73.558V22.779H135.876Z" transform="translate(124.514 20.415)" fill="#25292b"/>
    <rect id="Rectángulo_365654" data-name="Rectángulo 365654" width="70.061" height="9.758" transform="translate(262.14 44.731)" fill="#f4a338"/>
    <path id="Trazado_778743" data-name="Trazado 778743" d="M168.278,30.735a.417.417,0,0,1-.261-.092L164.37,27.73a.416.416,0,0,1,0-.655l3.6-2.877a.42.42,0,1,1,.524.657L165.3,27.4l3.238,2.587a.42.42,0,0,1-.263.747" transform="translate(151.146 22.188)" fill="#f2e9da"/>
    <path id="Trazado_778744" data-name="Trazado 778744" d="M169.438,30.735a.42.42,0,0,1-.263-.747l3.238-2.587-3.19-2.546a.42.42,0,1,1,.524-.657l3.6,2.877a.416.416,0,0,1,0,.655L169.7,30.643a.417.417,0,0,1-.261.092" transform="translate(155.571 22.188)" fill="#f2e9da"/>
    <path id="Trazado_778745" data-name="Trazado 778745" d="M167.584,31.876a.42.42,0,0,1-.457-.54L169.384,24a.42.42,0,1,1,.8.246l-2.257,7.338a.42.42,0,0,1-.346.292" transform="translate(153.812 21.817)" fill="#f2e9da"/>
    <rect id="Rectángulo_365655" data-name="Rectángulo 365655" width="37.664" height="3.086" transform="translate(262.14 61.245)" fill="#4adbd1"/>
    <rect id="Rectángulo_365656" data-name="Rectángulo 365656" width="18.331" height="3.086" transform="translate(301.512 61.245)" fill="#5573c6"/>
    <rect id="Rectángulo_365657" data-name="Rectángulo 365657" width="10.474" height="3.086" transform="translate(321.727 61.245)" fill="#25292b"/>
    <path id="Trazado_778746" data-name="Trazado 778746" d="M185.331,38.625H159.668V35.539h25.663" transform="translate(146.964 32.711)" fill="#4adbd1"/>
    <rect id="Rectángulo_365658" data-name="Rectángulo 365658" width="18.331" height="3.086" transform="translate(286.592 68.25)" fill="#5573c6"/>
    <path id="Trazado_778747" data-name="Trazado 778747" d="M136.549,35.539h22.475v3.086H136.549" transform="translate(125.685 32.711)" fill="#25292b"/>
    <rect id="Rectángulo_365659" data-name="Rectángulo 365659" width="13.662" height="3.086" transform="translate(262.234 75.84)" fill="#5573c6"/>
    <rect id="Rectángulo_365660" data-name="Rectángulo 365660" width="38.132" height="3.086" transform="translate(277.607 75.84)" fill="#4adbd1"/>
    <rect id="Rectángulo_365661" data-name="Rectángulo 365661" width="14.674" height="3.086" transform="translate(317.621 75.84)" fill="#25292b"/>
    <path id="Trazado_778748" data-name="Trazado 778748" d="M178.478,46.225H167.217V43.139h11.261" transform="translate(153.912 39.707)" fill="#4adbd1"/>
    <rect id="Rectángulo_365662" data-name="Rectángulo 365662" width="32.732" height="3.086" transform="translate(286.687 82.846)" fill="#5573c6"/>
    <path id="Trazado_778749" data-name="Trazado 778749" d="M136.6,43.139h22.475v3.086H136.6" transform="translate(125.731 39.707)" fill="#25292b"/>
    <rect id="Rectángulo_365663" data-name="Rectángulo 365663" width="37.664" height="3.086" transform="translate(262.33 94.583)" fill="#4adbd1"/>
    <rect id="Rectángulo_365664" data-name="Rectángulo 365664" width="18.331" height="3.086" transform="translate(301.702 94.583)" fill="#5573c6"/>
    <rect id="Rectángulo_365665" data-name="Rectángulo 365665" width="10.474" height="3.086" transform="translate(321.917 94.583)" fill="#25292b"/>
    <path id="Trazado_778750" data-name="Trazado 778750" d="M185.43,55.985H159.767V52.9H185.43" transform="translate(147.055 48.69)" fill="#4adbd1"/>
    <rect id="Rectángulo_365666" data-name="Rectángulo 365666" width="18.331" height="3.086" transform="translate(286.783 101.589)" fill="#5573c6"/>
    <path id="Trazado_778751" data-name="Trazado 778751" d="M136.648,52.9h22.475v3.086H136.648" transform="translate(125.776 48.69)" fill="#25292b"/>
    <rect id="Rectángulo_365667" data-name="Rectángulo 365667" width="13.662" height="3.086" transform="translate(262.424 109.179)" fill="#5573c6"/>
    <rect id="Rectángulo_365668" data-name="Rectángulo 365668" width="38.132" height="3.086" transform="translate(277.797 109.179)" fill="#4adbd1"/>
    <rect id="Rectángulo_365669" data-name="Rectángulo 365669" width="14.674" height="3.086" transform="translate(317.811 109.179)" fill="#25292b"/>
    <path id="Trazado_778752" data-name="Trazado 778752" d="M178.577,63.585H167.316V60.5h11.261" transform="translate(154.003 55.686)" fill="#4adbd1"/>
    <rect id="Rectángulo_365670" data-name="Rectángulo 365670" width="32.732" height="3.086" transform="translate(286.877 116.184)" fill="#5573c6"/>
    <path id="Trazado_778753" data-name="Trazado 778753" d="M136.7,60.5h22.475v3.086H136.7" transform="translate(125.822 55.686)" fill="#25292b"/>
    <path id="Trazado_778754" data-name="Trazado 778754" d="M105.687,98.763H30.928V8.28h74.759Zm-74.16-.6h73.558V8.877H31.527Z" transform="translate(28.467 7.621)" fill="#25292b"/>
    <rect id="Rectángulo_365671" data-name="Rectángulo 365671" width="70.061" height="9.758" transform="translate(61.742 18.037)" fill="#5573c6"/>
    <path id="Trazado_778755" data-name="Trazado 778755" d="M63.928,16.835a.417.417,0,0,1-.261-.092L60.02,13.83a.416.416,0,0,1,0-.655l3.6-2.877a.42.42,0,1,1,.524.657L60.954,13.5l3.238,2.587a.42.42,0,0,1-.263.747" transform="translate(55.098 9.394)" fill="#f2e9da"/>
    <path id="Trazado_778756" data-name="Trazado 778756" d="M65.089,16.835a.42.42,0,0,1-.263-.747L68.064,13.5l-3.19-2.546A.42.42,0,1,1,65.4,10.3L69,13.175a.416.416,0,0,1,0,.655L65.35,16.743a.417.417,0,0,1-.261.092" transform="translate(59.524 9.394)" fill="#f2e9da"/>
    <path id="Trazado_778757" data-name="Trazado 778757" d="M63.235,17.976a.42.42,0,0,1-.457-.54L65.035,10.1a.42.42,0,1,1,.8.246l-2.257,7.338a.42.42,0,0,1-.346.292" transform="translate(57.766 9.023)" fill="#f2e9da"/>
    <rect id="Rectángulo_365672" data-name="Rectángulo 365672" width="37.664" height="3.086" transform="translate(61.744 34.549)" fill="#4adbd1"/>
    <rect id="Rectángulo_365673" data-name="Rectángulo 365673" width="18.331" height="3.086" transform="translate(101.117 34.549)" fill="#5573c6"/>
    <rect id="Rectángulo_365674" data-name="Rectángulo 365674" width="10.474" height="3.086" transform="translate(121.329 34.549)" fill="#f2e9da"/>
    <path id="Trazado_778758" data-name="Trazado 778758" d="M80.982,24.725H55.319V21.639H80.982" transform="translate(50.917 19.917)" fill="#4adbd1"/>
    <rect id="Rectángulo_365675" data-name="Rectángulo 365675" width="18.331" height="3.086" transform="translate(86.195 41.556)" fill="#5573c6"/>
    <path id="Trazado_778759" data-name="Trazado 778759" d="M32.2,21.639H54.675v3.086H32.2" transform="translate(29.638 19.917)" fill="#f2e9da"/>
    <rect id="Rectángulo_365676" data-name="Rectángulo 365676" width="13.662" height="3.086" transform="translate(61.838 49.146)" fill="#5573c6"/>
    <rect id="Rectángulo_365677" data-name="Rectángulo 365677" width="38.132" height="3.086" transform="translate(77.209 49.146)" fill="#4adbd1"/>
    <rect id="Rectángulo_365678" data-name="Rectángulo 365678" width="14.674" height="3.086" transform="translate(117.225 49.146)" fill="#f2e9da"/>
    <path id="Trazado_778760" data-name="Trazado 778760" d="M74.129,32.325H62.867V29.239H74.129" transform="translate(57.865 26.913)" fill="#4adbd1"/>
    <rect id="Rectángulo_365679" data-name="Rectángulo 365679" width="32.732" height="3.086" transform="translate(86.291 56.152)" fill="#5573c6"/>
    <path id="Trazado_778761" data-name="Trazado 778761" d="M32.25,29.239H54.725v3.086H32.25" transform="translate(29.684 26.913)" fill="#f2e9da"/>
    <rect id="Rectángulo_365680" data-name="Rectángulo 365680" width="37.664" height="3.086" transform="translate(61.934 67.887)" fill="#4adbd1"/>
    <rect id="Rectángulo_365681" data-name="Rectángulo 365681" width="18.331" height="3.086" transform="translate(101.307 67.887)" fill="#5573c6"/>
    <rect id="Rectángulo_365682" data-name="Rectángulo 365682" width="10.474" height="3.086" transform="translate(121.519 67.887)" fill="#f2e9da"/>
    <path id="Trazado_778762" data-name="Trazado 778762" d="M81.081,42.085H55.418V39H81.081" transform="translate(51.009 35.896)" fill="#4adbd1"/>
    <rect id="Rectángulo_365683" data-name="Rectángulo 365683" width="18.331" height="3.086" transform="translate(86.385 74.895)" fill="#5573c6"/>
    <path id="Trazado_778763" data-name="Trazado 778763" d="M32.3,39H54.774v3.086H32.3" transform="translate(29.729 35.896)" fill="#f2e9da"/>
    <rect id="Rectángulo_365684" data-name="Rectángulo 365684" width="13.662" height="3.086" transform="translate(62.028 82.485)" fill="#5573c6"/>
    <rect id="Rectángulo_365685" data-name="Rectángulo 365685" width="38.132" height="3.086" transform="translate(77.401 82.485)" fill="#4adbd1"/>
    <rect id="Rectángulo_365686" data-name="Rectángulo 365686" width="14.674" height="3.086" transform="translate(117.415 82.485)" fill="#f2e9da"/>
    <path id="Trazado_778764" data-name="Trazado 778764" d="M74.228,49.685H62.966V46.6H74.228" transform="translate(57.956 42.891)" fill="#4adbd1"/>
    <rect id="Rectángulo_365687" data-name="Rectángulo 365687" width="32.732" height="3.086" transform="translate(86.481 89.49)" fill="#5573c6"/>
    <path id="Trazado_778765" data-name="Trazado 778765" d="M32.349,46.6H54.824v3.086H32.349" transform="translate(29.775 42.891)" fill="#f2e9da"/>
    <path id="Trazado_778766" data-name="Trazado 778766" d="M208.717,8.776V22.4a7.221,7.221,0,0,1-7.2,7.2H188.506l-10.7,10.063L179.35,29.6H142.591a7.221,7.221,0,0,1-7.2-7.2V8.776a7.221,7.221,0,0,1,7.2-7.2h58.927a7.221,7.221,0,0,1,7.2,7.2" transform="translate(124.619 1.451)" fill="#4adbd1"/>
    <path id="Trazado_778767" data-name="Trazado 778767" d="M155.1,16.066a5.386,5.386,0,0,1-.862,3.015,5.65,5.65,0,0,1-2.483,2.047,9.222,9.222,0,0,1-3.808.73,15.527,15.527,0,0,1-3.057-.255,11.382,11.382,0,0,1-2.571-.893V16.315a14.748,14.748,0,0,0,2.934,1.129,10.893,10.893,0,0,0,2.794.405,2.721,2.721,0,0,0,1.611-.38,1.167,1.167,0,0,0,.511-.979,1.068,1.068,0,0,0-.206-.655,2.378,2.378,0,0,0-.661-.568q-.458-.288-2.427-1.173a11.7,11.7,0,0,1-2.679-1.573,4.836,4.836,0,0,1-1.323-1.748,5.811,5.811,0,0,1-.43-2.333,4.68,4.68,0,0,1,1.836-3.933A8.083,8.083,0,0,1,149.324,3.1,14.156,14.156,0,0,1,155.1,4.407l-1.509,3.806a10.959,10.959,0,0,0-4.419-1.171,2.3,2.3,0,0,0-1.4.336,1.018,1.018,0,0,0-.438.835,1.2,1.2,0,0,0,.555.962,21.249,21.249,0,0,0,3.015,1.548A8.332,8.332,0,0,1,154.184,13a4.947,4.947,0,0,1,.918,3.065" transform="translate(130.996 2.849)" fill="#f2e9da"/>
    <path id="Trazado_778768" data-name="Trazado 778768" d="M167.845,12.469q0,6.2-3.945,8.364l4.455,5.129h-6.142l-3.221-4.056-.012-.012v-.013l-.013-.012a8.657,8.657,0,0,1-6.583-2.41q-2.293-2.408-2.291-7.015,0-4.557,2.278-6.96t6.622-2.4q4.358,0,6.6,2.385t2.247,7m-12.558,0q0,5.292,3.681,5.293a3.171,3.171,0,0,0,2.779-1.285,7.051,7.051,0,0,0,.9-4.008,7.084,7.084,0,0,0-.918-4.039,3.133,3.133,0,0,0-2.74-1.3q-3.707,0-3.706,5.343" transform="translate(138.152 2.837)" fill="#f2e9da"/>
    <path id="Trazado_778769" data-name="Trazado 778769" d="M161.053,21.482V3.232h4.93V17.5h7.029v3.983Z" transform="translate(148.239 2.975)" fill="#f2e9da"/>
  </g>
</svg>
