<svg id="Grupo_1025967" data-name="Grupo 1025967" xmlns="http://www.w3.org/2000/svg" xmlns:xlink="http://www.w3.org/1999/xlink" width="127.378" height="127.342" viewBox="0 0 127.378 127.342">
  <defs>
    <clipPath id="clip-path">
      <rect id="Rectángulo_361788" data-name="Rectángulo 361788" width="127.378" height="127.342" fill="none"/>
    </clipPath>
  </defs>
  <g id="Grupo_1025968" data-name="Grupo 1025968" clip-path="url(#clip-path)">
    <path id="Trazado_766644" data-name="Trazado 766644" d="M139.14,159.456V163.7a26.758,26.758,0,0,1-2.915-.022c-1.113-.122-1.364.25-1.358,1.351.049,9.637.02,19.274.04,28.911,0,1.087-.211,1.624-1.512,1.623q-57.952-.052-115.9,0c-1.206,0-1.464-.387-1.462-1.517q.045-32.625-.005-65.25c0-1.033.3-1.2,1.244-1.2q58.217.037,116.434,0c.993,0,1.224.234,1.219,1.222q-.065,13.2-.014,26.391c0,1.395-.607,3.266.265,4.049.765.687,2.6.178,3.968.2m-15.052,29.708.192-.193c.286-.574.819-.955,1.089-1.569a11.556,11.556,0,0,0,.237-8.829l-.209-.279c-1.308-2.808-3.772-3.911-6.6-3.942-9.267-.1-18.536-.077-27.8.008a6.963,6.963,0,0,0-5.6,2.858c-1.395,1.79-1.362,3.8-1.466,5.889A7.528,7.528,0,0,0,87.1,189.96c.056.137.109.281.307.212a6.853,6.853,0,0,0,3.88,1.141q13.637-.064,27.274-.005a7.769,7.769,0,0,0,4.9-1.619l.291-.208.337-.317M20.295,161.535q0,13.595,0,27.189c0,1.914.664,2.567,2.607,2.567H68.126c2.217,0,3.1-.878,3.1-3.163q.009-26.526-.008-53.052c0-2.492-.927-3.217-3.174-3.215q-22.48.013-44.959.005c-2.19,0-2.787.583-2.788,2.745q-.006,13.462,0,26.924m71.891-.005c.6-4.261-3.673-8.5-8.454-8.42a8.191,8.191,0,0,0-8.242,7.776c-.068,5.854,3.3,9.153,9.2,9.172,3.875.012,7.5-4.108,7.5-8.528m0-21.213c.563-4.38-3.689-8.3-8.569-8.447-3.968-.123-7.838,3.921-8.221,7.781a8.847,8.847,0,0,0,9.419,9.26c3.727-.382,7.371-4.253,7.371-8.595m15.166-6.329H99.793c-3.125,0-3.08,0-3.125,3.137-.014.964.283,1.136,1.178,1.129,5.613-.043,11.227-.022,16.84-.022,3.294,0,3.255,0,3.257-3.27,0-.86-.266-1-1.045-.993-3.182.043-6.365.018-9.547.018m-.044,25.468h7.426c3.222,0,3.187,0,3.207-3.184.006-.87-.228-1.087-1.089-1.081-5.657.04-11.315.02-16.973.02-3.269,0-3.243,0-3.2,3.317.008.751.207.954.953.945,3.226-.04,6.453-.017,9.68-.017m14.731,4.245h-5.171c-3.23,0-3.2,0-3.216,3.174-.005.849.194,1.1,1.076,1.094,4.242-.049,8.486-.022,12.729-.022,3.275,0,3.25,0,3.214-3.306-.008-.734-.178-.971-.941-.957-2.562.048-5.126.018-7.69.018m.123-16.979h5.3c3.223,0,3.188,0,3.208-3.183.005-.867-.224-1.092-1.087-1.082-4.243.046-8.486.021-12.729.021-3.27,0-3.243,0-3.205,3.316.009.749.2.96.952.946,2.518-.046,5.038-.018,7.558-.018m-19.213,21.224h3.314c3.208,0,3.167,0,3.191-3.2.006-.906-.283-1.075-1.11-1.06-2.783.049-5.568.019-8.352.019-3.484,0-3.46,0-3.318,3.469.027.662.232.8.839.788,1.811-.035,3.624-.013,5.436-.013m.113-21.224h3.182c3.269,0,3.242,0,3.2-3.316-.009-.749-.2-.957-.952-.946-2.828.043-5.656.018-8.485.018-3.487,0-3.466,0-3.335,3.449.024.633.181.823.817.81,1.855-.04,3.712-.014,5.568-.014m23.348,8.489h-.928c-3.486,0-3.486,0-3.321,3.444a.71.71,0,0,1,0,.132c-.071.513.141.683.662.678q3.579-.035,7.158,0c.512,0,.643-.156.685-.669.3-3.587.315-3.586-3.2-3.586Zm.131-21.078h-1.19c-3.534,0-3.521,0-3.2,3.567.044.5.164.7.686.691q3.57-.03,7.14,0c.515,0,.647-.178.692-.685.323-3.575.337-3.573-3.2-3.573Z" transform="translate(-11.762 -93.663)" fill="#fafdff"/>
    <path id="Trazado_766645" data-name="Trazado 766645" d="M127.378,65.793c-1.364-.019-3.2.489-3.968-.2-.872-.783-.261-2.653-.265-4.048q-.034-13.2.014-26.392c0-.988-.226-1.222-1.219-1.221q-58.217.043-116.434,0c-.947,0-1.246.162-1.244,1.2q.054,32.625.005,65.25c0,1.129.257,1.518,1.462,1.517q57.952-.047,115.9,0c1.3,0,1.515-.536,1.512-1.623-.02-9.637.009-19.274-.04-28.911-.006-1.1.245-1.473,1.358-1.351a26.821,26.821,0,0,0,2.915.022v32.632c-.142.1-.36.164-.416.3-.939,2.275-2.658,3.184-5.077,3.167-6.985-.047-13.971,0-20.956-.039-.912-.005-1.179.191-1.165,1.141.059,4.111.127,8.226,0,12.334-.143,4.519-3.174,7.772-7.723,7.771q-28.847-.01-57.695-.009c-3.138,0-6.722-3.558-6.7-6.684.028-4.465-.032-8.931.015-13.4.01-.923-.209-1.164-1.148-1.158-7.25.043-14.5.026-21.751.013a4.6,4.6,0,0,1-1.293-.1A5.225,5.225,0,0,1,0,100.959Q.107,58.581.052,16.2a5.349,5.349,0,0,1,5.575-3.486c3.046.08,6.1.018,9.144.018,2.185,0,2.185,0,2.294,2.117a2.079,2.079,0,0,0-.037.526c.245,1.319-.255,1.684-1.6,1.638-3.311-.112-6.629.008-9.942-.064-1.026-.022-1.236.307-1.22,1.262.056,3.314.084,6.631-.01,9.943-.035,1.237.221,1.592,1.54,1.591q57.873-.064,115.745-.034a4.47,4.47,0,0,1,.662,0c.76.116.954-.208.945-.947-.038-3.27-.058-6.542,0-9.812.029-1.63-.209-2-2.048-2q-48.79.038-97.581.018c-2.189,0-2.189,0-2.3-2.127a3.564,3.564,0,0,0,.035-.787c-.191-1.087.2-1.458,1.323-1.355,1.223.111,2.475-.08,3.693.055,1.246.138,1.447-.365,1.383-1.452-.088-1.492,0-2.993-.011-4.49a6.7,6.7,0,0,1,1.682-4.185C30.4,1.228,32.089.876,33.469,0H34c.265.343.531.342.8,0H92.626c.177.272.354.274.531,0h.531a1.667,1.667,0,0,0,.946.542A6.887,6.887,0,0,1,99.325,5.36a22.243,22.243,0,0,1,.435,6.09c.009.977.177,1.322,1.263,1.313,6.967-.058,13.935-.037,20.9-.023a5.5,5.5,0,0,1,4.169,1.686c.6.615.669,1.475,1.284,2.022v.265q-.409.266,0,.531ZM63.712,12.734h5.039c8.53,0,17.061-.019,25.591.025,1,.005,1.3-.243,1.224-1.236-.093-1.186.046-2.39-.04-3.577-.1-1.416-.421-2.829-1.973-3.351a7.2,7.2,0,0,0-2.3-.369q-27.713.036-55.426.018c-.221,0-.443-.01-.663,0-1.886.115-3.541,1.156-3.31,3.3a20.342,20.342,0,0,1,0,3.841c-.093,1.112.258,1.374,1.362,1.368,10.166-.047,20.332-.028,30.5-.028m.014,99.751h5.567c8.351,0,16.7-.019,25.052.026,1,.005,1.291-.252,1.221-1.238a23.826,23.826,0,0,1,0-3.84c.105-1.159-.332-1.34-1.39-1.338q-30.486.049-60.973.024a3.823,3.823,0,0,1-.53,0c-.644-.09-.831.19-.814.818.04,1.457.091,2.922-.014,4.372-.076,1.05.315,1.205,1.257,1.2,10.206-.034,20.412-.021,30.619-.021m.017,4.245q-14.183,0-28.365.01c-1.133,0-2.625-.5-3.3.216s-.179,2.184-.184,3.322a2.747,2.747,0,0,0,2.794,2.814q28.9.007,57.791.014a2.565,2.565,0,0,0,1.855-.779c1.264-1.177,1.142-2.714,1.238-4.235.068-1.071-.2-1.4-1.339-1.391-10.162.052-20.324.03-30.486.03" transform="translate(0)"/>
    <path id="Trazado_766646" data-name="Trazado 766646" d="M128.641,0c-.265.342-.531.343-.8,0Z" transform="translate(-93.845)" fill="#010101"/>
    <path id="Trazado_766647" data-name="Trazado 766647" d="M478.4,63.377q-.409-.265,0-.531Z" transform="translate(-351.023 -46.133)" fill="#010101"/>
    <path id="Trazado_766648" data-name="Trazado 766648" d="M348.824,0c-.177.273-.354.272-.531,0Z" transform="translate(-255.667)" fill="#010101"/>
    <path id="Trazado_766649" data-name="Trazado 766649" d="M32.083,173.306q0-13.462,0-26.924c0-2.162.6-2.745,2.788-2.745q22.48,0,44.959-.005c2.247,0,3.171.724,3.174,3.215q.031,26.526.008,53.052c0,2.285-.882,3.163-3.1,3.163H34.69c-1.943,0-2.607-.653-2.607-2.567q0-13.595,0-27.189m18.3,3.165-.3-.209a8.006,8.006,0,0,1-3.172-6.757c.139-3.442.024-6.894.035-10.341a6.273,6.273,0,0,1,3.6-5.89c3.89-1.932,8.112-1.565,12.112-.6,4.567,1.107,5.283,3.87,5.448,7.836a67.875,67.875,0,0,1-.153,10.282,8.478,8.478,0,0,1-2.5,4.9c-.674.734-1.272,1.222-.748,2.3.407.835.394,2.007,1.266,2.453a43.511,43.511,0,0,0,4.27,1.664c2.419.931,4.855,1.826,7.244,2.829,1.325.556,1.295.641,1.3-.776,0-11.669-.012-23.338.024-35.006,0-1.016-.225-1.306-1.281-1.3q-19.955.06-39.91,0c-1.013,0-1.308.22-1.3,1.279.043,11.536.027,23.072.027,34.608v2.075a1.629,1.629,0,0,1,.981-.869q5.624-2.165,11.235-4.363c.258-.1.659.1.779-.33.353-1.263,1.133-2.406,1.058-3.788m7.033,22.347c6.76,0,13.521-.015,20.281.019.838,0,1.17-.17,1.093-1.069-.138-1.607-.012-3.215-.233-4.84a5.662,5.662,0,0,0-3.763-4.689c-2.7-1.131-5.5-2.005-8.21-3.116a2.316,2.316,0,0,0-3.179.8c-1.294,1.774-2.679,3.482-3.984,5.249-1.268,1.715-2.767,1.73-4,.02q-2.07-2.876-4.193-5.714a1.483,1.483,0,0,0-1.932-.585c-1.914.758-3.855,1.441-5.767,2.214-2.189.885-4.627,1.224-6.257,3.183-.144.173-.406-.176-.545.352-.612,2.321-.269,4.667-.424,6.993-.068,1.016.254,1.219,1.226,1.212,6.628-.047,13.256-.024,19.884-.024m-6.231-33.946h0c0,1.9-.01,3.8,0,5.694A2.8,2.8,0,0,0,54,173.345c2.03.011,4.07-.123,6.087.037,2.5.2,3.7-1.439,3.789-3.6.134-3.261.083-6.532.018-9.8-.042-2.107-.717-2.9-2.806-3.377a22.092,22.092,0,0,0-7.332-.127c-1.962.218-2.715,1.4-2.6,3.227.108,1.715.023,3.441.023,5.162m6.35,12.721c-2.818,0-2.817,0-3.711,2.693-.053.16-.257.328-.224.446.092.333-.347.582-.051.958,1.183,1.5,2.323,3.033,3.492,4.544.328.423.525.506.907-.094a28.583,28.583,0,0,1,2.6-3.418,2.29,2.29,0,0,0,.488-2.611c-.915-2.494-.848-2.519-3.5-2.519" transform="translate(-23.55 -105.434)"/>
    <path id="Trazado_766650" data-name="Trazado 766650" d="M312.987,307.448a11.556,11.556,0,0,1-.237,8.829c-.269.614-.8,1-1.089,1.569q-.264-.071-.192.193l-.337.317c-.188-.059-.248.063-.291.208a7.767,7.767,0,0,1-4.9,1.619q-13.637-.054-27.274.005a6.855,6.855,0,0,1-3.88-1.141l-.307-.212a7.529,7.529,0,0,1-3.173-6.853c.1-2.09.071-4.1,1.466-5.889a6.964,6.964,0,0,1,5.6-2.858c9.267-.085,18.536-.109,27.8-.008,2.831.031,5.3,1.134,6.6,3.942-.058.189.059.246.208.279m-20.621,8.472c4.415,0,8.832-.086,13.243.038,2.061.058,3.5-.632,3.834-3.114.436-3.237-.273-5.325-3.5-5.369-9.093-.125-18.188-.079-27.282-.011-1.8.014-3.343,1.2-3.089,3.2a18.716,18.716,0,0,1,.018,2.25,2.792,2.792,0,0,0,3,3q6.887.005,13.774,0" transform="translate(-199.144 -222.537)"/>
    <path id="Trazado_766651" data-name="Trazado 766651" d="M256.322,231.95c0,4.42-3.622,8.54-7.5,8.528-5.9-.019-9.267-3.318-9.2-9.171a8.19,8.19,0,0,1,8.242-7.776c4.78-.083,9.05,4.159,8.454,8.419m-8.447,4.284a4.362,4.362,0,0,0,4.46-4.24,4.44,4.44,0,0,0-4.359-4.238,4.215,4.215,0,0,0-4.117,4,4.168,4.168,0,0,0,4.016,4.483" transform="translate(-175.899 -164.083)" fill="#010101"/>
    <path id="Trazado_766652" data-name="Trazado 766652" d="M255.969,152.106c0,4.342-3.644,8.213-7.372,8.595a8.846,8.846,0,0,1-9.419-9.26c.383-3.861,4.253-7.9,8.221-7.781,4.881.151,9.132,4.067,8.57,8.447m-12.467-.06a4.113,4.113,0,0,0,4.17,4.334,4.242,4.242,0,1,0-.2-8.475,4.222,4.222,0,0,0-3.967,4.141" transform="translate(-175.545 -105.452)" fill="#010101"/>
    <path id="Trazado_766653" data-name="Trazado 766653" d="M329.947,151.579c3.182,0,6.365.025,9.547-.018.778-.011,1.045.133,1.044.993,0,3.27.036,3.27-3.257,3.27-5.613,0-11.227-.021-16.84.022-.895.007-1.192-.165-1.178-1.129.045-3.137,0-3.137,3.125-3.137Z" transform="translate(-234.357 -111.254)"/>
    <path id="Trazado_766654" data-name="Trazado 766654" d="M329.9,235.623c-3.227,0-6.454-.023-9.68.017-.746.009-.945-.194-.953-.945-.038-3.318-.065-3.317,3.2-3.317,5.658,0,11.315.019,16.973-.02.86-.006,1.094.211,1.088,1.081-.02,3.184.015,3.184-3.207,3.184H329.9" transform="translate(-234.355 -169.83)"/>
    <path id="Trazado_766655" data-name="Trazado 766655" d="M391.512,263.3c2.563,0,5.127.03,7.69-.018.763-.014.933.223.941.957.036,3.307.061,3.306-3.214,3.306-4.243,0-8.486-.027-12.729.022-.882.01-1.081-.245-1.076-1.094.018-3.173-.014-3.173,3.216-3.173h5.171" transform="translate(-281.235 -193.267)"/>
    <path id="Trazado_766656" data-name="Trazado 766656" d="M391.617,187.738c-2.519,0-5.039-.028-7.558.018-.748.014-.943-.2-.952-.946-.038-3.316-.064-3.316,3.205-3.316,4.243,0,8.486.025,12.729-.021.863-.009,1.093.215,1.087,1.083-.02,3.183.015,3.183-3.208,3.183h-5.3" transform="translate(-281.217 -134.679)"/>
    <path id="Trazado_766657" data-name="Trazado 766657" d="M325.437,267.548c-1.812,0-3.624-.023-5.436.013-.607.012-.812-.126-.839-.788-.143-3.47-.166-3.469,3.318-3.469,2.784,0,5.569.03,8.352-.019.826-.014,1.116.154,1.11,1.06-.023,3.2.017,3.2-3.191,3.2h-3.314" transform="translate(-234.25 -193.265)"/>
    <path id="Trazado_766658" data-name="Trazado 766658" d="M325.57,187.746c-1.856,0-3.713-.026-5.568.014-.636.014-.793-.176-.818-.81-.131-3.45-.151-3.449,3.335-3.449,2.828,0,5.657.026,8.485-.018.748-.011.943.2.952.946.038,3.317.064,3.316-3.2,3.316H325.57" transform="translate(-234.269 -134.687)"/>
    <path id="Trazado_766659" data-name="Trazado 766659" d="M419.224,231.435h1.061c3.511,0,3.5,0,3.2,3.586-.043.513-.174.673-.685.669q-3.579-.033-7.158,0c-.522.005-.734-.165-.662-.678a.732.732,0,0,0,0-.132c-.166-3.444-.166-3.444,3.321-3.444Z" transform="translate(-304.576 -169.886)"/>
    <path id="Trazado_766660" data-name="Trazado 766660" d="M419.1,152.178h.926c3.536,0,3.522,0,3.2,3.573-.046.506-.178.689-.692.685q-3.57-.029-7.14,0c-.522,0-.641-.191-.686-.691-.317-3.568-.33-3.567,3.2-3.567Z" transform="translate(-304.324 -111.707)"/>
    <path id="Trazado_766661" data-name="Trazado 766661" d="M427.454,318.514c-.149-.033-.267-.09-.208-.279l.208.279" transform="translate(-313.611 -233.603)" fill="#f8fbfd"/>
    <path id="Trazado_766662" data-name="Trazado 766662" d="M422.322,358.532q-.072-.264.192-.193Z" transform="translate(-309.997 -263.03)" fill="#f8fbfd"/>
    <path id="Trazado_766663" data-name="Trazado 766663" d="M420,360.464c.044-.144.1-.267.292-.208l-.292.208" transform="translate(-308.306 -264.437)" fill="#f8fbfd"/>
    <path id="Trazado_766664" data-name="Trazado 766664" d="M283.274,362.1l.307.212c-.2.069-.251-.074-.307-.212" transform="translate(-207.939 -265.801)" fill="#010101"/>
    <path id="Trazado_766665" data-name="Trazado 766665" d="M28.8,55.846h4.157c.11,2.127.11,2.127,2.3,2.127q48.791,0,97.581-.018c1.839,0,2.077.368,2.048,2-.059,3.27-.039,6.541,0,9.811.009.74-.185,1.063-.946.948a4.433,4.433,0,0,0-.662-.005q-57.873,0-115.745.035c-1.319,0-1.575-.354-1.541-1.591.094-3.312.067-6.629.01-9.943-.016-.955.194-1.283,1.22-1.261,3.313.071,6.631-.049,9.942.064,1.345.046,1.845-.319,1.6-1.638a2.075,2.075,0,0,1,.037-.526m-8.533,8.366c0,2.25,0,2.25,2.258,2.25,1.986,0,1.986,0,1.986-1.994,0-2.25,0-2.25-2.259-2.25-1.986,0-1.986,0-1.986,1.994m10.689-1.994c-2.2,0-2.2,0-2.2,2.177,0,2.068,0,2.068,2.044,2.068,2.2,0,2.2,0,2.2-2.176,0-2.068,0-2.068-2.044-2.068m8.532,0c-2.243,0-2.243,0-2.243,2.265,0,1.979,0,1.979,2,1.979,2.243,0,2.243,0,2.243-2.266,0-1.979,0-1.979-2-1.979m88.916,4.245c2.218,0,2.218,0,2.218-2.158,0-2.086,0-2.086-2.026-2.086-2.218,0-2.218,0-2.218,2.158,0,2.086,0,2.086,2.026,2.086" transform="translate(-11.74 -40.994)" fill="#b3c3f0"/>
    <path id="Trazado_766666" data-name="Trazado 766666" d="M151.577,24.4c-10.166,0-20.332-.019-30.5.028-1.1.005-1.455-.257-1.362-1.369a20.319,20.319,0,0,0,0-3.841c-.231-2.148,1.425-3.19,3.31-3.3.22-.014.441,0,.662,0q27.714,0,55.426-.018a7.2,7.2,0,0,1,2.3.369c1.552.522,1.871,1.935,1.973,3.35.086,1.187-.053,2.391.04,3.577.077.992-.224,1.241-1.224,1.236-8.53-.044-17.061-.025-25.591-.025Z" transform="translate(-87.864 -11.666)" fill="#5573c6"/>
    <path id="Trazado_766667" data-name="Trazado 766667" d="M151.617,405.325c-10.206,0-20.412-.013-30.619.021-.942,0-1.332-.152-1.257-1.2.1-1.45.053-2.915.014-4.372-.017-.628.169-.907.814-.817a3.868,3.868,0,0,0,.529,0q30.486,0,60.973-.024c1.058,0,1.5.179,1.39,1.339a23.821,23.821,0,0,0,0,3.84c.07.987-.217,1.244-1.221,1.238-8.35-.045-16.7-.026-25.052-.026Z" transform="translate(-87.891 -292.84)" fill="#5573c6"/>
    <path id="Trazado_766668" data-name="Trazado 766668" d="M151.3,438.488c10.162,0,20.324.022,30.486-.03,1.143-.006,1.407.32,1.339,1.391-.1,1.521.027,3.059-1.238,4.235a2.565,2.565,0,0,1-1.855.779q-28.9-.022-57.791-.014a2.747,2.747,0,0,1-2.794-2.814c0-1.138-.486-2.616.184-3.322s2.171-.214,3.3-.216q14.183-.027,28.365-.01" transform="translate(-87.561 -321.758)" fill="#5573c6"/>
    <path id="Trazado_766669" data-name="Trazado 766669" d="M62.026,188.127c.075,1.382-.706,2.525-1.059,3.788-.12.43-.521.228-.779.33q-5.608,2.207-11.235,4.363a1.629,1.629,0,0,0-.981.869V195.4c0-11.536.016-23.072-.027-34.608,0-1.06.291-1.282,1.3-1.279q19.955.052,39.91,0c1.056,0,1.284.286,1.281,1.3-.037,11.669-.023,23.337-.024,35.006,0,1.417.03,1.332-1.3.776-2.39-1-4.825-1.9-7.245-2.829a43.557,43.557,0,0,1-4.27-1.664c-.871-.447-.858-1.618-1.265-2.453-.524-1.073.074-1.561.748-2.3a8.477,8.477,0,0,0,2.5-4.9,67.872,67.872,0,0,0,.153-10.282c-.165-3.966-.881-6.729-5.448-7.836-4-.97-8.222-1.336-12.112.6a6.273,6.273,0,0,0-3.6,5.89c-.011,3.447.1,6.9-.035,10.341a8.006,8.006,0,0,0,3.172,6.757c.056.136.11.274.3.209" transform="translate(-35.194 -117.09)" fill="#b3c3f0"/>
    <path id="Trazado_766670" data-name="Trazado 766670" d="M69.046,312.291c-6.628,0-13.256-.022-19.883.024-.973.007-1.294-.2-1.227-1.212.155-2.326-.188-4.672.424-6.993.139-.528.4-.18.545-.352,1.63-1.959,4.069-2.3,6.257-3.183,1.911-.773,3.853-1.456,5.767-2.214a1.484,1.484,0,0,1,1.932.585q2.117,2.842,4.193,5.714c1.23,1.709,2.729,1.7,4-.021,1.306-1.766,2.69-3.474,3.984-5.249a2.316,2.316,0,0,1,3.179-.8c2.707,1.111,5.513,1.985,8.211,3.116a5.662,5.662,0,0,1,3.762,4.689c.222,1.625.1,3.233.233,4.84.077.9-.255,1.073-1.093,1.069-6.76-.034-13.521-.019-20.281-.019" transform="translate(-35.182 -218.906)" fill="#fafdff"/>
    <path id="Trazado_766671" data-name="Trazado 766671" d="M103.814,199.673c0-1.721.085-3.448-.023-5.163-.115-1.83.638-3.008,2.6-3.227a22.107,22.107,0,0,1,7.332.127c2.09.473,2.764,1.271,2.806,3.377.065,3.265.116,6.536-.018,9.8-.089,2.16-1.286,3.8-3.789,3.6-2.017-.16-4.058-.025-6.088-.037a2.8,2.8,0,0,1-2.812-2.779c-.014-1.9,0-3.8,0-5.693Z" transform="translate(-76.18 -140.234)" fill="#fad1cc"/>
    <path id="Trazado_766672" data-name="Trazado 766672" d="M116.5,271.335c2.65,0,2.583.025,3.5,2.519a2.29,2.29,0,0,1-.488,2.611,28.58,28.58,0,0,0-2.6,3.418c-.382.6-.579.517-.907.094-1.169-1.511-2.309-3.044-3.492-4.544-.3-.375.143-.624.051-.958-.032-.118.171-.287.224-.446.894-2.693.892-2.693,3.711-2.693" transform="translate(-82.512 -199.175)" fill="#f9d0cb"/>
    <path id="Trazado_766673" data-name="Trazado 766673" d="M100.053,266.536c-.194.065-.248-.072-.3-.209l.3.209" transform="translate(-73.221 -195.499)" fill="#010101"/>
    <path id="Trazado_766674" data-name="Trazado 766674" d="M304.111,327.613q-6.887,0-13.774,0a2.793,2.793,0,0,1-3-3,18.717,18.717,0,0,0-.018-2.25c-.254-2,1.285-3.186,3.089-3.2,9.094-.068,18.189-.114,27.282.011,3.222.044,3.931,2.132,3.5,5.369-.334,2.482-1.773,3.172-3.834,3.114-4.411-.124-8.829-.038-13.243-.041" transform="translate(-210.89 -234.232)" fill="#4adbd1"/>
    <path id="Trazado_766675" data-name="Trazado 766675" d="M259.562,247.9a4.168,4.168,0,0,1-4.016-4.483,4.215,4.215,0,0,1,4.117-4,4.44,4.44,0,0,1,4.359,4.238,4.362,4.362,0,0,1-4.46,4.24" transform="translate(-187.585 -175.747)" fill="#4adbd1"/>
    <path id="Trazado_766676" data-name="Trazado 766676" d="M255.532,163.769a4.222,4.222,0,0,1,3.967-4.141,4.242,4.242,0,1,1,.2,8.475,4.113,4.113,0,0,1-4.17-4.334" transform="translate(-187.575 -117.176)" fill="#4adbd1"/>
    <path id="Trazado_766677" data-name="Trazado 766677" d="M32.085,81.8c0-1.994,0-1.994,1.986-1.994,2.259,0,2.259,0,2.259,2.25,0,1.994,0,1.994-1.986,1.994-2.259,0-2.259,0-2.259-2.25" transform="translate(-23.552 -58.581)"/>
    <path id="Trazado_766678" data-name="Trazado 766678" d="M66.205,79.805c2.044,0,2.044,0,2.044,2.068,0,2.176,0,2.176-2.2,2.176C64,84.05,64,84.05,64,81.982c0-2.177,0-2.177,2.2-2.177" transform="translate(-46.983 -58.581)"/>
    <path id="Trazado_766679" data-name="Trazado 766679" d="M98.169,79.805c2,0,2,0,2,1.979,0,2.266,0,2.266-2.243,2.266-2,0-2,0-2-1.979,0-2.265,0-2.265,2.243-2.265" transform="translate(-70.414 -58.581)"/>
    <path id="Trazado_766680" data-name="Trazado 766680" d="M433.112,84.05c-2.026,0-2.026,0-2.026-2.086,0-2.158,0-2.158,2.218-2.158,2.026,0,2.026,0,2.026,2.086,0,2.158,0,2.158-2.218,2.158" transform="translate(-316.442 -58.581)"/>
  </g>
</svg>
