<svg id="Grupo_1025966" data-name="Grupo 1025966" xmlns="http://www.w3.org/2000/svg" xmlns:xlink="http://www.w3.org/1999/xlink" width="120.975" height="120.77" viewBox="0 0 120.975 120.77">
  <defs>
    <clipPath id="clip-path">
      <rect id="Rectángulo_361787" data-name="Rectángulo 361787" width="120.975" height="120.77" fill="none"/>
    </clipPath>
  </defs>
  <g id="Grupo_1025966-2" data-name="Grupo 1025966" clip-path="url(#clip-path)">
    <path id="Trazado_766623" data-name="Trazado 766623" d="M120.975,35.97V61.245c-.143.036-.373.03-.414.115a2.415,2.415,0,0,1-2.592,1.318c-1.768-.056-3.539-.015-5.308-.015s-1.694.006-1.86,1.7c-.182,1.846-.727,3.194-3.149,3.052-2.038-.12-4.089,0-6.133-.038-.624-.011-.888.1-.876.811q.068,3.951,0,7.9c-.01.661.231.766.808.758,2.045-.029,4.09-.024,6.135-.008s2.765.592,3.19,2.52a3.443,3.443,0,0,1,.031,1.171c-.106.792.123,1.092.991,1.052,1.648-.077,3.3.015,4.954-.033s3.2.138,4.223,1.664v1.653c-.143.036-.373.03-.414.114A2.415,2.415,0,0,1,117.97,86.3c-1.807-.056-3.616-.015-5.425-.015-1.645,0-1.581.006-1.745,1.693-.18,1.846-.728,3.2-3.143,3.056-2-.119-4.01.024-6.013-.047-.863-.031-1.031.253-1,1.049.062,1.767.108,3.543,0,5.305-.121,1.908-.707,3.3-3.169,3.141-1.84-.12-3.694,0-5.541-.036-.561-.01-.739.144-.727.718.036,1.769-.011,3.539.018,5.307.053,3.156-.877,4.633-3.936,4.142-.723-.116-.817.246-.806.864.035,1.965.007,3.931.015,5.9a3.671,3.671,0,0,1-1.655,3.4H83.181a2.927,2.927,0,0,1-1.444-2.881c.11-1.643.027-3.3.027-4.95,0-2.317,0-2.317-2.274-2.326A2.195,2.195,0,0,1,77.04,108.1c0-2.279-.012-4.559.008-6.838,0-.545-.042-.838-.737-.826-2.672.046-5.344.035-8.016.006-.575-.006-.726.169-.716.728.034,1.768-.012,3.537.018,5.3.052,3.147-.881,4.63-3.941,4.135-.73-.118-.811.256-.8.868.033,1.964.007,3.93.014,5.894a3.669,3.669,0,0,1-1.655,3.4h-.472c-.236-.3-.473-.311-.709,0H59.56a2.927,2.927,0,0,1-1.444-2.881c.11-1.643.027-3.3.027-4.95,0-2.317,0-2.317-2.274-2.326a2.194,2.194,0,0,1-2.449-2.511c0-2.279-.012-4.559.008-6.838,0-.545-.042-.838-.737-.826-2.671.046-5.344.035-8.016.006-.575-.006-.726.169-.716.728.033,1.768-.012,3.537.018,5.3.052,3.148-.88,4.63-3.941,4.135-.73-.118-.811.256-.8.868.033,1.964.007,3.93.014,5.894a3.67,3.67,0,0,1-1.655,3.4H35.939L35,120.034l-.219-.219c-.053-.171.03-.41-.237-.473-.009-1.927-.022-3.854-.025-5.782,0-3.07,0-3.07-3.072-2.908a3.3,3.3,0,0,1-1.693-1.693c.013-2.618.014-5.236.05-7.854.007-.51-.136-.669-.655-.661-2.383.038-4.767.037-7.151.05A3.294,3.294,0,0,1,20.31,98.8c.013-2.384.012-4.767.05-7.15.008-.519-.15-.662-.66-.655-2.618.036-5.236.037-7.854.05a3.294,3.294,0,0,1-1.693-1.693c.013-.747-.013-1.5.051-2.239.058-.666-.164-.859-.836-.848-2.4.041-4.8.028-7.2.01A2.193,2.193,0,0,1,.036,84.391c-.159-1.507.357-2.3,1.645-2.6,2.01-.468,4.046-.173,6.068-.219,2.416-.055,2.446-.013,2.429-2.413a1.847,1.847,0,0,1,1.245-1.987,5.816,5.816,0,0,1,1.913-.351c2.046.037,4.093-.006,6.139.026.6.009.907-.052.893-.795-.049-2.636-.041-5.273,0-7.909.009-.643-.2-.781-.8-.769-1.81.035-3.624-.058-5.43.028-3.242.154-4.223-.422-3.932-3.871.065-.773-.225-.9-.919-.885-2.4.042-4.8.033-7.2.009A2.187,2.187,0,0,1,.036,60.688c-.112-1.47.38-2.234,1.609-2.516,2.126-.489,4.281-.163,6.422-.222,2.122-.058,2.156-.013,2.112-2.139-.021-1.02.185-1.884,1.217-2.244a5.5,5.5,0,0,1,1.9-.365c2.046.032,4.093-.016,6.139.027.686.015.949-.1.932-.88-.057-2.557-.063-5.117,0-7.673.021-.842-.3-.938-1-.926-2.282.038-4.565.02-6.847.012a2.149,2.149,0,0,1-2.327-2.283,10.006,10.006,0,0,1,.01-1.415c.105-.8-.141-1.071-1-1.047-2.359.066-4.722.036-7.083.017A2.232,2.232,0,0,1,.036,37.222C-.136,35.956.31,34.9,1.272,34.645A6.9,6.9,0,0,1,3.19,34.3c1.966.046,3.938-.046,5.9.043.975.044,1.153-.3,1.124-1.173-.037-1.123-.353-2.386.924-3.145.169.05.223-.058.261-.188.844-.005,1.646-.3,2.511-.266,1.836.069,3.679-.025,5.516.042.806.029.956-.25.939-.981-.047-2.033.007-4.069-.027-6.1a2.051,2.051,0,0,1,.958-1.952c.169.05.222-.058.261-.188.88-.031,1.726-.306,2.628-.264,1.523.07,3.055-.049,4.576.044.932.057,1.078-.275,1.056-1.107-.058-2.229,0-4.461-.031-6.69a2.054,2.054,0,0,1,.958-1.952c.169.05.223-.058.261-.188a13.016,13.016,0,0,1,2.979-.243c.529.068.545-.247.542-.641C34.5,6.805,34.5,4.263,34.483,1.72A1.92,1.92,0,0,1,36.388.059c2.376-.148,2.661.922,2.823,2.858A42.515,42.515,0,0,1,39.218,8.7c-.058,1.1.3,1.291,1.338,1.326,2.71.091,3.266.692,3.4,3.365.1,1.963.042,3.935,0,5.9-.012.632.11.883.817.871,2.6-.044,5.2-.054,7.792,0,.793.018.879-.278.867-.944-.038-2.125-.014-4.25-.014-6.376,0-2.048.647-2.731,2.727-2.856a6.29,6.29,0,0,1,1.18.005c.688.089.842-.2.832-.848-.037-2.361-.024-4.723-.011-7.084.007-1.3.7-1.932,2-2.007,2.181-.126,2.541.961,2.685,2.883a50.277,50.277,0,0,1,.009,5.782c-.04.981.151,1.3,1.239,1.306,2.738.027,3.405.679,3.5,3.5.062,1.926.04,3.857,0,5.785-.015.667.174.855.843.845q3.9-.058,7.792,0c.666.01.858-.174.845-.843-.043-2.124.04-4.252-.03-6.375-.082-2.472.763-2.462,2.416-2.935A3,3,0,0,1,80.616,10c.872.114,1.214-.131,1.175-1.108C81.7,6.727,81.763,4.56,81.764,2.4,81.765,1,82.289.22,83.324.067,85-.181,85.741.233,86.291,1.72a6.278,6.278,0,0,1,.2,2.165c0,1.611.058,3.226-.021,4.833-.047.97.133,1.3,1.231,1.31,2.762.024,3.4.693,3.5,3.487.064,1.845.056,3.7-.007,5.541-.029.835.123,1.164,1.06,1.113a43.392,43.392,0,0,1,5.068-.006c2.64.165,3.156.667,3.321,3.331a48.906,48.906,0,0,1,0,4.951c-.035.871.139,1.221,1.117,1.174,1.882-.091,3.772-.032,5.659-.024a6.177,6.177,0,0,1,2.445.5l.7.722a12.588,12.588,0,0,1,.24,1.7c.025,2.792.036,5.585,0,8.376a2.675,2.675,0,0,1-2.95,2.908c-2.115-.135-4.246-.007-6.368-.049-.665-.013-.856.171-.846.841q.059,3.893,0,7.786c-.009.653.152.867.834.853,2.122-.045,4.249-.083,6.37,0s2.812.788,2.966,2.97a3.985,3.985,0,0,1,0,.825c-.1.686.092.989.87.929a17.2,17.2,0,0,1,3.064,0c1.184.123,1.554-.2,1.54-1.471-.073-6.606-.036-13.213-.029-19.82,0-1.686,1.126-2.419,2.794-2.168,1.025.154,1.318.944,1.924,1.47m-25.038,36.2c0-2.362.027-4.724-.011-7.086a1.983,1.983,0,0,1,1.605-2.2c1.583-.45,3.188-.11,4.778-.222,1.241-.087,2.95.542,3.6-.251.622-.762.131-2.4.2-3.656.039-.7-.226-.841-.867-.831-2.243.035-4.488.022-6.731.01-1.777-.009-2.562-.772-2.567-2.532-.013-4.566.043-9.134-.032-13.7a2.4,2.4,0,0,1,2.719-2.669c2.2.03,4.41-.016,6.613.021.646.011.905-.139.866-.834a27.94,27.94,0,0,1,0-3.069c.035-.67-.181-.862-.849-.85-2.243.04-4.492-.07-6.73.044a2.43,2.43,0,0,1-2.618-2.665c.11-1.962,0-3.936.042-5.9.017-.7-.137-.95-.9-.929-2.085.058-4.172.027-6.259.018A2.143,2.143,0,0,1,86.49,22.55c-.009-2.244-.059-4.49.024-6.731.036-.978-.3-1.195-1.181-1.123a17.339,17.339,0,0,1-2.6,0c-.74-.051-1.02.137-.994.947.063,2.006.1,4.019,0,6.021-.1,2.024-.74,3.311-3.231,3.238-4.405-.129-8.817-.034-13.226-.038a2.17,2.17,0,0,1-2.417-2.446c0-2.283-.021-4.567.012-6.85.009-.633-.114-.918-.824-.875a28.112,28.112,0,0,1-3.069,0c-.657-.033-.876.157-.861.839.045,2.007.072,4.017,0,6.022-.08,2.24-.875,3.421-3.248,3.347-4.365-.135-8.738-.037-13.108-.039-1.747,0-2.523-.795-2.525-2.575,0-1.26.029-2.52-.009-3.779s.545-2.952-.232-3.6c-.749-.626-2.4-.144-3.649-.213-.672-.037-.863.182-.849.849.042,2.007.074,4.017,0,6.022-.083,2.219-.855,3.514-3.259,3.324-1.643-.13-3.307.032-4.957-.047-.942-.045-1.3.149-1.244,1.186a41.859,41.859,0,0,1,0,5.193c-.123,1.844-.7,3.256-3.1,3.116-2.079-.121-4.172,0-6.258-.039-.628-.011-.809.185-.783.8.045,1.061.053,2.127,0,3.187-.034.656.222.777.811.768,2.047-.032,4.094-.028,6.141-.008,2.195.021,3.181.9,3.2,3.028.048,4.29.093,8.584-.022,12.872-.049,1.848-.76,3.146-3.071,3.017-2.08-.116-4.172,0-6.258-.037-.6-.009-.839.125-.806.773.054,1.06.051,2.127,0,3.187-.029.625.167.8.79.79,2.046-.038,4.094-.028,6.141-.01,2.2.019,3.2.885,3.224,3.007.053,4.29.095,8.584-.021,12.872-.049,1.831-.687,3.229-3.168,3.028-1.056-.085-2.125-.024-3.187-.012-1.213.014-2.857-.42-3.525.2-.765.706-.125,2.372-.255,3.61-.089.85.3.945,1.006.93,1.889-.04,3.781-.072,5.668,0,2.772.107,3.363.733,3.484,3.449.075,1.689.048,3.386,0,5.077-.021.706.139.957.9.928,1.651-.064,3.307-.058,4.959-.011,2.86.082,3.519.751,3.6,3.579.054,1.927.032,3.858,0,5.786-.011.607.15.827.782.8,1.06-.051,2.127-.051,3.187,0,.637.031.788-.2.78-.8-.031-2.243.062-4.491-.035-6.73-.082-1.893.937-2.563,2.518-2.6,4.485-.112,8.974-.075,13.461-.022,1.757.021,2.3.566,2.769,2.279a18.3,18.3,0,0,1,.164,4.085c.059,1.212-.416,2.851.2,3.53.7.776,2.369.131,3.607.259.828.086.958-.269.943-.994-.043-2.085.08-4.178-.044-6.257-.1-1.742.412-2.867,2.954-2.9,4.172-.06,8.347-.079,12.518.006,2.7.056,3.337.7,3.44,3.485.07,1.887.043,3.779,0,5.668-.017.722.109,1.071.94,1a18.879,18.879,0,0,1,2.832,0c.752.05,1.009-.157.987-.955-.059-2.124.072-4.256-.05-6.375-.094-1.634.426-2.754,2.915-2.83,1.927-.059,3.858-.037,5.786,0,.622.013.8-.165.791-.789-.038-2.125.008-4.252-.024-6.377a1.914,1.914,0,0,1,1.5-2.055c1.609-.491,3.262-.156,4.893-.234,1.212-.058,2.851.417,3.529-.2.776-.7.131-2.369.259-3.607.086-.828-.269-.956-.994-.942-2.283.041-4.566.021-6.85.013a2.141,2.141,0,0,1-2.325-2.3c-.01-2.362,0-4.724,0-7.086" transform="translate(0 0)"/>
    <path id="Trazado_766624" data-name="Trazado 766624" d="M253.567,509.366c.236-.311.472-.3.709,0Z" transform="translate(-193.534 -388.596)" fill="#040406"/>
    <path id="Trazado_766625" data-name="Trazado 766625" d="M143.563,119.194c0,2.362-.007,4.724,0,7.086a2.141,2.141,0,0,0,2.325,2.3c2.283.008,4.567.028,6.85-.013.724-.013,1.08.114.994.942-.129,1.237.516,2.9-.259,3.607-.678.614-2.317.139-3.53.2-1.631.078-3.284-.257-4.893.234a1.913,1.913,0,0,0-1.5,2.055c.031,2.125-.014,4.252.023,6.377.011.624-.17.8-.791.789-1.928-.039-3.859-.061-5.786,0-2.489.076-3.01,1.2-2.915,2.83.122,2.119-.009,4.251.05,6.375.022.8-.235,1-.987.955a18.905,18.905,0,0,0-2.832,0c-.831.071-.957-.279-.94-1,.045-1.889.072-3.781,0-5.668-.1-2.789-.741-3.429-3.44-3.484-4.171-.086-8.346-.066-12.518-.007-2.542.036-3.058,1.162-2.954,2.9.124,2.079,0,4.171.044,6.257.015.725-.115,1.08-.943.993-1.237-.129-2.9.516-3.607-.26-.614-.679-.139-2.317-.2-3.529a18.285,18.285,0,0,0-.164-4.085c-.472-1.713-1.012-2.258-2.769-2.279-4.487-.053-8.977-.091-13.461.022-1.581.04-2.6.709-2.518,2.6.1,2.24,0,4.487.035,6.73.009.6-.143.83-.78.8-1.06-.051-2.127-.051-3.187,0-.633.03-.794-.19-.782-.8.035-1.928.056-3.859,0-5.786-.079-2.828-.738-3.5-3.6-3.58-1.652-.047-3.308-.053-4.959.011-.759.029-.918-.221-.9-.928.051-1.691.077-3.388,0-5.077-.12-2.717-.711-3.343-3.484-3.449-1.887-.072-3.779-.04-5.668,0-.706.015-1.095-.08-1.006-.93.129-1.238-.511-2.9.255-3.61.668-.616,2.312-.181,3.525-.2,1.063-.012,2.131-.074,3.187.012,2.481.2,3.118-1.2,3.168-3.028.116-4.288.074-8.581.021-12.872-.026-2.122-1.019-2.988-3.224-3.007-2.047-.018-4.094-.027-6.141.01-.623.012-.819-.165-.79-.79.05-1.06.053-2.127,0-3.187-.033-.649.208-.783.806-.773,2.086.033,4.178-.078,6.258.037,2.312.128,3.022-1.169,3.071-3.017.115-4.288.071-8.581.022-12.872-.024-2.128-1.01-3.007-3.2-3.028-2.047-.02-4.094-.024-6.141.008-.59.009-.845-.111-.811-.768.055-1.06.047-2.127,0-3.187-.026-.611.155-.807.783-.8,2.086.038,4.178-.081,6.258.039,2.408.139,2.981-1.272,3.1-3.116a41.906,41.906,0,0,0,0-5.193c-.06-1.037.3-1.231,1.244-1.186,1.65.079,3.314-.083,4.957.047,2.4.191,3.176-1.1,3.259-3.324.075-2.005.043-4.015,0-6.022-.014-.667.177-.886.849-.849,1.251.069,2.9-.413,3.649.213.777.65.2,2.358.232,3.6s.007,2.519.009,3.779c0,1.781.778,2.575,2.525,2.575,4.37,0,8.742-.1,13.108.039,2.374.073,3.168-1.108,3.248-3.348.072-2.005.044-4.015,0-6.022-.015-.683.2-.872.861-.839a28.053,28.053,0,0,0,3.069,0c.71-.042.833.243.824.876-.034,2.283-.016,4.566-.012,6.85a2.17,2.17,0,0,0,2.417,2.446c4.409,0,8.821-.092,13.226.037,2.492.073,3.131-1.214,3.231-3.238.1-2,.064-4.016,0-6.021-.026-.811.254-1,.994-.948a17.4,17.4,0,0,0,2.6,0c.879-.072,1.218.145,1.181,1.122-.084,2.241-.033,4.487-.024,6.731a2.143,2.143,0,0,0,2.308,2.317c2.087.009,4.174.04,6.259-.018.759-.021.913.224.9.929-.047,1.967.067,3.941-.042,5.9a2.43,2.43,0,0,0,2.618,2.665c2.238-.113,4.487,0,6.73-.044.668-.012.885.18.849.851a28,28,0,0,0,0,3.069c.04.695-.22.844-.866.834-2.2-.036-4.409.009-6.613-.02a2.4,2.4,0,0,0-2.719,2.669c.074,4.566.018,9.133.032,13.7,0,1.76.791,2.523,2.567,2.532,2.244.012,4.488.025,6.732-.01.642-.01.907.133.867.831-.07,1.252.42,2.894-.2,3.656-.648.793-2.356.164-3.6.251-1.59.112-3.2-.227-4.778.223a1.983,1.983,0,0,0-1.606,2.2c.039,2.361.012,4.724.012,7.086M110.52,78.966a1.609,1.609,0,0,1-.235-.394c-.381-1.516-.988-1.886-2.855-1.72-1.026.091-1.57.768-1.7,2.112h-4.89a1.988,1.988,0,0,0-1.8-2.151,11.917,11.917,0,0,0-2.3-.193c-5.432-.006-10.865-.052-16.3.021-2.116.028-3.021.67-3.021,2.216q0,28.461.005,56.921a2.143,2.143,0,0,0,2.254,2.249q28.343.007,56.685.011a2.254,2.254,0,0,0,1.565-.621,3.06,3.06,0,0,0,.911-2.534q-.009-27.4,0-54.8c0-.2.015-.395,0-.59-.17-1.905-1.014-2.858-2.761-2.868q-9.034-.053-18.068,0c-1.933.012-2.668.7-2.824,2.334l-4.662,0" transform="translate(-47.626 -47.022)" fill="#4adbd1"/>
    <path id="Trazado_766626" data-name="Trazado 766626" d="M464.04,126.767c.849-.359.667.288.7.722l-.7-.722" transform="translate(-354.177 -96.675)" fill="#fff"/>
    <path id="Trazado_766627" data-name="Trazado 766627" d="M47.051,126.218l.261-.188c-.038.13-.092.238-.261.188" transform="translate(-35.912 -96.192)" fill="#fff"/>
    <path id="Trazado_766628" data-name="Trazado 766628" d="M89.953,86.31l.261-.188c-.038.13-.092.238-.261.188" transform="translate(-68.656 -65.732)" fill="#fff"/>
    <path id="Trazado_766629" data-name="Trazado 766629" d="M129.861,43.409l.261-.188c-.038.13-.092.238-.261.188" transform="translate(-99.116 -32.988)" fill="#fff"/>
    <path id="Trazado_766630" data-name="Trazado 766630" d="M164.437,134.913h4.89c.252,2.314,2.186,2.845,3.569,2.019a3.168,3.168,0,0,0,1.218-2.016l4.662,0c.3,1.746,1.017,2.374,2.752,2.375,5,0,10,.02,15-.016.867-.006,1.208.139,1.206,1.13q-.051,24.86,0,49.72c0,.956-.283,1.154-1.184,1.152q-24.8-.039-49.6,0c-.984,0-1.228-.254-1.226-1.232q.047-24.8,0-49.6c0-.911.211-1.189,1.158-1.179,5,.05,10,.029,15,.02a2.292,2.292,0,0,0,2.558-2.372m21.245,44.234c.4.3.409-.015.451-.283a1.25,1.25,0,0,0,1.193-.573,11.343,11.343,0,0,0,1.652-2.739c.423,0,.464-.3.49-.614q1.441-2.511,2.883-5.022c.673-1.167.615-2.068-.456-2.882a17.617,17.617,0,0,0-3.41-2.181l-.253-.155a4.277,4.277,0,0,1-.159-2.5c.043-.592.841-.573,1.262-.89a13.282,13.282,0,0,1,1.553-.994c2.044-1.132,2.321-2.424,1.057-4.386-.9-1.393-1.656-2.876-2.477-4.319-.081-.458-.1-.956-.691-1.09-.318-.575-.617-1.162-.958-1.722a2.58,2.58,0,0,0-2.975-1.151,13.73,13.73,0,0,0-3.06,1.679c-.6.484-1.066.5-1.567-.065l-.245-.15a1.834,1.834,0,0,1-1.174-2.236,10.178,10.178,0,0,0,.007-1.886c-.122-2.007-.966-2.934-2.818-2.959q-4.484-.061-8.968.008a2.219,2.219,0,0,0-2.365,2.373c-.041,1.061,0,2.124-.022,3.186,0,.256.082.52-.144.77a2.983,2.983,0,0,1-3.39.6c-.724-.382-1.424-.814-2.159-1.172a2.412,2.412,0,0,0-3.485,1.055c-1.316,2.257-2.625,4.521-3.871,6.818-1.539,2.835-1.341,3.342,1.408,5,.724.436,1.71.612,2.13,1.367a2.654,2.654,0,0,1-1.514,3.606c-2.212.787-3.093,1.863-2.919,3.494a4.869,4.869,0,0,0,.934,1.861c1.31,2.3,2.633,4.6,4,6.875a2.521,2.521,0,0,0,3.129.993,14.98,14.98,0,0,0,1.8-1.033,2.471,2.471,0,0,1,3.244-.152,1.591,1.591,0,0,1,.856,1.588c-.055.98-.036,1.967-.008,2.949a2.284,2.284,0,0,0,2.3,2.31q4.661.041,9.323,0a2.344,2.344,0,0,0,2.348-1.985,6.721,6.721,0,0,0,.159-2.9c-.255-1.458.672-1.936,1.638-2.488.846-.483,1.37.252,2.022.511,1.109.44,1.934,1.5,3.251,1.486" transform="translate(-111.22 -102.972)" fill="#5573c6"/>
    <path id="Trazado_766631" data-name="Trazado 766631" d="M149.274,127.289a2.291,2.291,0,0,1-2.558,2.372c-5,.009-10,.03-15-.02-.947-.009-1.16.268-1.159,1.179q.04,24.8,0,49.6c0,.978.242,1.233,1.226,1.232q24.8-.048,49.6,0c.9,0,1.186-.2,1.184-1.153q-.048-24.859,0-49.719c0-.992-.339-1.137-1.206-1.13-5,.036-10,.019-15,.016-1.735,0-2.455-.629-2.752-2.375.156-1.636.892-2.322,2.824-2.334q9.034-.056,18.068,0c1.747.01,2.591.963,2.761,2.868.018.2,0,.393,0,.59q0,27.4,0,54.8a3.059,3.059,0,0,1-.911,2.534,2.254,2.254,0,0,1-1.565.621q-28.343-.014-56.685-.011a2.143,2.143,0,0,1-2.254-2.249q-.008-28.46-.005-56.921c0-1.546.905-2.188,3.021-2.216,5.431-.073,10.864-.027,16.3-.021a11.918,11.918,0,0,1,2.3.194,1.988,1.988,0,0,1,1.8,2.151" transform="translate(-96.056 -95.348)"/>
    <path id="Trazado_766632" data-name="Trazado 766632" d="M250.222,127.989A3.169,3.169,0,0,1,249,130.005c-1.383.826-3.317.3-3.569-2.019.127-1.345.671-2.021,1.7-2.112,1.866-.166,2.474.2,2.855,1.72a1.609,1.609,0,0,0,.235.394" transform="translate(-187.327 -96.045)" fill="#010101"/>
    <path id="Trazado_766633" data-name="Trazado 766633" d="M205.272,174.443c.821,1.443,1.58,2.925,2.477,4.319,1.264,1.962.987,3.254-1.057,4.386a13.316,13.316,0,0,0-1.553.994c-.421.317-1.219.3-1.262.89a4.277,4.277,0,0,0,.16,2.5c.046.115.1.215.253.155a17.61,17.61,0,0,1,3.41,2.181c1.071.815,1.129,1.716.456,2.882q-1.447,2.508-2.884,5.022c-.258.129-.681.127-.489.614a11.339,11.339,0,0,1-1.652,2.739,1.25,1.25,0,0,1-1.193.573c-.24-.137-.289-.107-.451.283-1.317.015-2.142-1.046-3.251-1.486-.652-.258-1.176-.994-2.022-.511-.967.552-1.894,1.029-1.638,2.488a6.72,6.72,0,0,1-.159,2.9,2.344,2.344,0,0,1-2.347,1.985q-4.661.038-9.323,0a2.284,2.284,0,0,1-2.3-2.31c-.028-.983-.048-1.969.008-2.949a1.592,1.592,0,0,0-.856-1.589,2.472,2.472,0,0,0-3.244.152,15.044,15.044,0,0,1-1.8,1.033,2.521,2.521,0,0,1-3.129-.993c-1.366-2.272-2.689-4.57-4-6.875a4.87,4.87,0,0,1-.934-1.862c-.174-1.631.707-2.706,2.919-3.494a2.654,2.654,0,0,0,1.514-3.606c-.42-.755-1.406-.93-2.13-1.367-2.749-1.657-2.947-2.163-1.408-5,1.246-2.3,2.555-4.56,3.872-6.818a2.412,2.412,0,0,1,3.484-1.055c.735.359,1.434.791,2.159,1.172a2.983,2.983,0,0,0,3.39-.6c.226-.251.14-.515.144-.77.019-1.062-.019-2.125.022-3.186a2.219,2.219,0,0,1,2.365-2.373q4.484-.065,8.968-.008c1.852.025,2.7.952,2.818,2.959a10.2,10.2,0,0,1-.008,1.886,1.834,1.834,0,0,0,1.174,2.236c.044.111.087.224.245.15.5.561.964.549,1.567.065a13.745,13.745,0,0,1,3.06-1.679,2.58,2.58,0,0,1,2.975,1.151c.341.561.64,1.147.958,1.722a.843.843,0,0,0,.691,1.09M174.583,190.6a5.95,5.95,0,0,1-1.863,1.265c-.482.29-1.05.56-.339,1.314a7.406,7.406,0,0,1,1.191,2.056c.434.958.856,1.574,1.9.58a7.215,7.215,0,0,1,1.38-.792,2.56,2.56,0,0,1,3.016.073,12.734,12.734,0,0,0,4.143,2.37,1.1,1.1,0,0,1,.823,1.019c-.162.827.279,1.5.327,2.246.123,1.913.1,1.914,2,1.914h.59c2.072,0,2.078,0,2.145-2.11.042-1.305-.085-2.641,1.491-3.294a30.736,30.736,0,0,0,2.72-1.441l.276-.2c1-.816,2.054-1.413,3.359-.732a17.358,17.358,0,0,1,2.066,1.252c.544.389.866.274,1.167-.264.5-.9,1-1.81,1.556-2.676.4-.614.35-.918-.332-1.323a11.373,11.373,0,0,0-1.8-1.018,1.8,1.8,0,0,1-1.269-1.646c-.052-2.041-.035-4.084-.008-6.126a1.6,1.6,0,0,1,.969-1.458,23.285,23.285,0,0,0,2.263-1.274c.249-.164.844-.4.361-.889a9.873,9.873,0,0,1-1.492-2.682c-.386-.759-.759-.983-1.456-.422a3.559,3.559,0,0,1-.665.441c-1.238.6-2.473,1.678-3.886.564-1.389-1.1-3.023-1.768-4.435-2.8-.4-.292-1-.61-.871-1.286.192-1.024-.127-2.037-.018-3.058.025-.236.138-.619-.306-.621-1.415-.008-2.93-.286-4.2.144-.614.207-.107,1.8-.205,2.764a2.044,2.044,0,0,1-.006.236,2.769,2.769,0,0,1-1.755,2.343,7.84,7.84,0,0,0-3.138,1.966,2.557,2.557,0,0,1-3.46.3c-.361-.215-.691-.487-1.063-.679-1.424-.735-1.429-.727-2.251.644a16,16,0,0,1-1.139,1.87c-.476.59-.4.866.275,1.165a18,18,0,0,1,1.907,1.061,2.3,2.3,0,0,1,1.356,2.469,16.9,16.9,0,0,0-.127,4.311,2.447,2.447,0,0,1-.969,2.41l-.18-.172-.035.181" transform="translate(-127.025 -125.809)"/>
    <path id="Trazado_766634" data-name="Trazado 766634" d="M328.177,201.906a.844.844,0,0,1-.691-1.09c.592.134.61.632.691,1.09" transform="translate(-249.929 -153.272)" fill="#606e97"/>
    <path id="Trazado_766635" data-name="Trazado 766635" d="M328.279,304.587c-.192-.487.232-.485.489-.614-.026.314-.067.617-.489.614" transform="translate(-250.521 -232.006)" fill="#606e97"/>
    <path id="Trazado_766636" data-name="Trazado 766636" d="M314.517,320.6c.162-.39.21-.42.451-.283-.041.268-.053.581-.451.283" transform="translate(-240.054 -244.423)" fill="#606e97"/>
    <path id="Trazado_766637" data-name="Trazado 766637" d="M325.538,260.876c-.153.06-.207-.04-.253-.155l.253.155" transform="translate(-248.273 -198.994)" fill="#606e97"/>
    <path id="Trazado_766638" data-name="Trazado 766638" d="M290.638,195.012c-.157.074-.2-.04-.245-.15l.245.15" transform="translate(-221.642 -148.728)" fill="#616f98"/>
    <path id="Trazado_766639" data-name="Trazado 766639" d="M212.214,210.815a30.674,30.674,0,0,1-2.72,1.441c-1.576.652-1.449,1.988-1.49,3.294-.067,2.11-.073,2.11-2.145,2.11h-.59c-1.9,0-1.875,0-2-1.914-.048-.747-.489-1.419-.327-2.246a1.1,1.1,0,0,0-.823-1.019,12.732,12.732,0,0,1-4.143-2.37,2.56,2.56,0,0,0-3.016-.073,7.193,7.193,0,0,0-1.379.792c-1.041.994-1.463.378-1.9-.58a7.408,7.408,0,0,0-1.191-2.056c-.71-.753-.143-1.023.339-1.314a5.944,5.944,0,0,0,1.863-1.265c.072,0,.143,0,.215-.009a2.446,2.446,0,0,0,.969-2.41,16.9,16.9,0,0,1,.128-4.311,2.3,2.3,0,0,0-1.356-2.469,18,18,0,0,0-1.907-1.061c-.672-.3-.751-.575-.275-1.166a16.041,16.041,0,0,0,1.139-1.87c.822-1.371.827-1.379,2.251-.644.372.192.7.464,1.063.679a2.557,2.557,0,0,0,3.46-.3,7.84,7.84,0,0,1,3.138-1.966,2.769,2.769,0,0,0,1.755-2.342,2.04,2.04,0,0,0,.006-.236c.1-.961-.409-2.557.205-2.764,1.273-.43,2.788-.152,4.2-.144.444,0,.331.386.306.621-.109,1.021.21,2.034.018,3.058-.127.676.47.994.871,1.286,1.412,1.028,3.046,1.7,4.435,2.8,1.412,1.114,2.648.036,3.886-.563a3.573,3.573,0,0,0,.665-.441c.7-.561,1.07-.337,1.456.422a9.88,9.88,0,0,0,1.492,2.682c.483.493-.112.725-.361.889a23.26,23.26,0,0,1-2.263,1.274,1.6,1.6,0,0,0-.969,1.458c-.027,2.042-.044,4.085.008,6.126a1.8,1.8,0,0,0,1.269,1.646,11.374,11.374,0,0,1,1.8,1.018c.681.4.727.71.332,1.323-.559.867-1.052,1.776-1.556,2.676-.3.537-.623.653-1.167.264a17.312,17.312,0,0,0-2.066-1.252c-1.3-.681-2.363-.084-3.358.732-.175-.05-.226.072-.276.2m-6.583-16.54c-3.507-.359-7.48,2.726-7.133,7.7.185,2.652,3.678,6.183,6.505,6.311,4.169.188,7.6-3.665,7.52-6.81-.116-4.425-2.675-7.206-6.892-7.206" transform="translate(-145.139 -140.825)" fill="#dfecf1"/>
    <path id="Trazado_766640" data-name="Trazado 766640" d="M283.313,294.952c.05-.125.1-.247.276-.2l-.276.2" transform="translate(-216.238 -224.962)" fill="#010101"/>
    <path id="Trazado_766641" data-name="Trazado 766641" d="M201.091,273.06q-.107.009-.215.009l.035-.181.18.172" transform="translate(-153.318 -208.281)" fill="#deebf0"/>
    <path id="Trazado_766642" data-name="Trazado 766642" d="M232.446,225.671c4.217,0,6.777,2.781,6.892,7.206.082,3.145-3.351,7-7.52,6.81-2.827-.128-6.32-3.659-6.505-6.311-.347-4.978,3.626-8.064,7.133-7.7m.03,4.724c-1.692,0-2.38.614-2.379,2.129a2.257,2.257,0,0,0,2.31,2.358c1.529.012,2.174-.682,2.177-2.341,0-1.724-.411-2.146-2.109-2.147" transform="translate(-171.954 -172.221)"/>
    <path id="Trazado_766643" data-name="Trazado 766643" d="M247.965,245.717c1.7,0,2.112.423,2.109,2.147,0,1.658-.648,2.352-2.177,2.341a2.257,2.257,0,0,1-2.31-2.358c0-1.515.687-2.131,2.379-2.129" transform="translate(-187.443 -187.543)" fill="#5573c6"/>
  </g>
</svg>
