<svg xmlns="http://www.w3.org/2000/svg" xmlns:xlink="http://www.w3.org/1999/xlink" width="335" height="230" viewBox="0 0 335 230">
  <defs>
    <clipPath id="clip-path">
      <rect id="Rectángulo_35483" data-name="Rectángulo 35483" width="233" height="230" transform="translate(-0.492 0.373)" fill="#fff" stroke="#707070" stroke-width="1"/>
    </clipPath>
    <clipPath id="clip-path-2">
      <rect id="Rectángulo_362680" data-name="Rectángulo 362680" width="327" height="153.653" fill="none"/>
    </clipPath>
    <clipPath id="clip-path-4">
      <rect id="Rectángulo_362657" data-name="Rectángulo 362657" width="35.693" height="9.98" fill="none"/>
    </clipPath>
    <clipPath id="clip-path-5">
      <rect id="Rectángulo_362658" data-name="Rectángulo 362658" width="72.166" height="22.81" fill="none"/>
    </clipPath>
  </defs>
  <g id="Grupo_1033326" data-name="Grupo 1033326" transform="translate(-1000 -7096)">
    <g id="Grupo_137456" data-name="Grupo 137456" transform="translate(732 4420.718)">
      <g id="Grupo_137455" data-name="Grupo 137455" transform="translate(268 2674.908)">
        <path id="Trazado_766622" data-name="Trazado 766622" d="M65.385,0h184.23a65.385,65.385,0,0,1,0,130.77H65.385A65.385,65.385,0,0,1,65.385,0Z" transform="translate(0 53.545)" fill="#4adbd1"/>
        <g id="Enmascarar_grupo_72" data-name="Enmascarar grupo 72" transform="translate(39.493 0)" clip-path="url(#clip-path)">
          <g id="Grupo_133717" data-name="Grupo 133717" transform="translate(4.046 4.146)">
            <g id="Grupo_133713" data-name="Grupo 133713" transform="translate(0 223.907) rotate(-90)">
              <path id="Sustracción_24" data-name="Sustracción 24" d="M0,227.879V0A114.78,114.78,0,0,1,22.963,2.315,113.365,113.365,0,0,1,44.35,8.954,113.949,113.949,0,0,1,63.7,19.459,114.758,114.758,0,0,1,80.568,33.372,114.758,114.758,0,0,1,94.481,50.235a113.949,113.949,0,0,1,10.505,19.354,113.363,113.363,0,0,1,6.639,21.388,114.781,114.781,0,0,1,2.315,22.963,114.782,114.782,0,0,1-2.315,22.963,113.362,113.362,0,0,1-6.639,21.388,113.949,113.949,0,0,1-10.505,19.354,114.758,114.758,0,0,1-13.913,16.863A114.76,114.76,0,0,1,63.7,208.42,113.951,113.951,0,0,1,44.35,218.925a113.365,113.365,0,0,1-21.388,6.639A114.785,114.785,0,0,1,0,227.879Z" transform="translate(113.94 227.879) rotate(180)" fill="#5573c6"/>
              <path id="Sustracción_25" data-name="Sustracción 25" d="M0,227.878V0A114.78,114.78,0,0,1,22.963,2.315,113.366,113.366,0,0,1,44.35,8.954,113.95,113.95,0,0,1,63.7,19.459,114.757,114.757,0,0,1,80.568,33.372,114.758,114.758,0,0,1,94.481,50.235a113.948,113.948,0,0,1,10.505,19.354,113.363,113.363,0,0,1,6.639,21.388,114.781,114.781,0,0,1,2.315,22.963,114.78,114.78,0,0,1-2.315,22.963,113.362,113.362,0,0,1-6.639,21.388,113.945,113.945,0,0,1-10.505,19.354,114.756,114.756,0,0,1-13.913,16.863A114.755,114.755,0,0,1,63.7,208.419,113.95,113.95,0,0,1,44.35,218.924a113.367,113.367,0,0,1-21.388,6.639A114.781,114.781,0,0,1,0,227.878Z" transform="translate(109.967 0)" fill="#e8e8e8"/>
            </g>
            <path id="Trazado_151972" data-name="Trazado 151972" d="M101.573,0c56.1,0,101.573,45.66,101.573,101.984S157.67,203.969,101.573,203.969,0,158.309,0,101.984,45.476,0,101.573,0Z" transform="translate(12.389 9.922)" fill="#12263f"/>
            <g id="Grupo_133716" data-name="Grupo 133716" transform="matrix(0.966, -0.259, 0.259, 0.966, 159.058, 171.875)" style="isolation: isolate">
              <g id="Grupo_133714" data-name="Grupo 133714" transform="translate(0 4.289)">
                <path id="Trazado_150984" data-name="Trazado 150984" d="M.068,19.035C.023,18.458,0,17.869,0,17.285A22.01,22.01,0,0,1,8.325,0l.16.2A21.754,21.754,0,0,0,.257,17.285c0,.577.023,1.159.067,1.73Z" transform="translate(0 0)" fill="#4adbd1"/>
              </g>
              <g id="Grupo_133715" data-name="Grupo 133715" transform="translate(10.8 0)">
                <path id="Trazado_150985" data-name="Trazado 150985" d="M.131,2.8,0,2.575A21.952,21.952,0,0,1,6.47,0l.056.25A21.687,21.687,0,0,0,.131,2.8Z" transform="translate(0 0)" fill="#4adbd1"/>
              </g>
              <path id="Trazado_150986" data-name="Trazado 150986" d="M18.494,0A18.494,18.494,0,1,0,36.988,18.494,18.494,18.494,0,0,0,18.494,0Zm0,31.571A13.077,13.077,0,1,1,31.571,18.494,13.077,13.077,0,0,1,18.494,31.571Z" transform="translate(3.611 3.081)" fill="#4adbd1" style="mix-blend-mode: multiply;isolation: isolate"/>
            </g>
            <path id="Trazado_150987" data-name="Trazado 150987" d="M5.213,0a5.213,5.213,0,1,0,5.213,5.213A5.213,5.213,0,0,0,5.213,0Zm0,8.9A3.686,3.686,0,1,1,8.9,5.213,3.686,3.686,0,0,1,5.213,8.9Z" transform="matrix(0.966, -0.259, 0.259, 0.966, 35.275, 12.978)" fill="#0f0140" style="mix-blend-mode: multiply;isolation: isolate"/>
            <ellipse id="Elipse_5034" data-name="Elipse 5034" cx="5.5" cy="4.5" rx="5.5" ry="4.5" transform="translate(202.461 168.228)" fill="#dad6f7"/>
            <circle id="Elipse_5035" data-name="Elipse 5035" cx="13.5" cy="13.5" r="13.5" transform="translate(20.461 23.227)" fill="#5573c6"/>
          </g>
        </g>
      </g>
    </g>
    <g id="Grupo_1027607" data-name="Grupo 1027607" transform="translate(1008 7138.229)">
      <g id="Grupo_1027606" data-name="Grupo 1027606" clip-path="url(#clip-path-2)">
        <g id="Grupo_1027605" data-name="Grupo 1027605">
          <g id="Grupo_1027604" data-name="Grupo 1027604" clip-path="url(#clip-path-2)">
            <path id="Trazado_768388" data-name="Trazado 768388" d="M276.137,152.869s35.637,6.544,46.981-18.215c14.717-32.122-15.519-56.478-38.71-51.94-50.533,9.888-38.364-99.2-119.462-76.933-22.8,6.26-84.416-30.927-101.6,28.7C59.26,48.66,44.783,50.221,23.767,59.218c-41.13,17.607-22.324,93.948,7.065,94.248s245.3-.6,245.3-.6" transform="translate(0 0)" fill="#ebf2f9"/>
            <path id="Trazado_768389" data-name="Trazado 768389" d="M299.068,227.347c-7.347-5.506-14.4,1.686-24.688-3.017s10.874-27.921,2.351-34.974-22.63,7.935-22.63,7.935,24.688-30.859,15.283-34.709S200.5,148.894,200.5,148.894l-10.748,62c-2.2-2.844-6.856-6.511-10.889-1.884-5.366,6.154,12.625,19.411,9.785,22.094s-9.627-8.68-15.368-4.236,1.623,12.068,1.623,12.068l16.112.224s0-.2.007-.563H304.659s1.757-5.74-5.591-11.247" transform="translate(-98.334 -85.579)" fill="#4adbd1"/>
            <path id="Trazado_768390" data-name="Trazado 768390" d="M281.231,139.813l-7.4,87.987s-.775,5.334,3.192,5.343c6.523.016,32.468,0,32.468,0s-4.909-1.11-4.85-3.608c.07-2.945,8.649-90.555,8.649-90.555Z" transform="translate(-157.353 -79.881)" fill="#f4a338"/>
            <path id="Trazado_768391" data-name="Trazado 768391" d="M314.479,229.389c-1.283,0-26.063.082-32.415,0-2.769-.034-3.254-2.461-3.277-4.032a7.9,7.9,0,0,1,.084-1.31l.193-2.287.49-5.829.433-5.15.557-6.617.469-5.585,5.258-62.521,32.059-.832s-3.613,36.665-6.169,63.354c-.285,2.974-.557,5.825-.808,8.486q-.122,1.274-.236,2.489c-.237,2.525-.453,4.844-.642,6.891-.1,1.079-.191,2.082-.274,3-.326,3.6-.517,5.9-.52,6.335a3.73,3.73,0,0,0,.062.712c.526,2.8,4.254,2.9,4.736,2.9" transform="translate(-160.236 -77.722)" fill="#ee9849"/>
            <path id="Trazado_768392" data-name="Trazado 768392" d="M262.142,28.343H108.228l18.025,72.4,2.468,9.916,8.4,33.723H293.085Z" transform="translate(-62.205 -16.29)" fill="#d82"/>
            <path id="Trazado_768393" data-name="Trazado 768393" d="M104.851,28.342l-2.5.833L130.418,146.9l3.322-2.519Z" transform="translate(-58.829 -16.29)" fill="#ee9849"/>
            <path id="Trazado_768394" data-name="Trazado 768394" d="M168.352,303.75H323.361l4.28-2.519H171.673Z" transform="translate(-96.762 -173.136)" fill="#f4a338"/>
            <rect id="Rectángulo_362656" data-name="Rectángulo 362656" width="33.562" height="1.595" transform="translate(126.024 151.701)" fill="#d82"/>
            <path id="Trazado_768395" data-name="Trazado 768395" d="M312.327,307.153l-.173,1.219-31.563,6.377.433-5.15.207-2.446Z" transform="translate(-161.273 -176.54)" fill="#f4a338"/>
            <g id="Grupo_1027600" data-name="Grupo 1027600" transform="translate(118.551 141.724)" opacity="0.4">
              <g id="Grupo_1027599" data-name="Grupo 1027599">
                <g id="Grupo_1027598" data-name="Grupo 1027598" clip-path="url(#clip-path-4)">
                  <path id="Trazado_768396" data-name="Trazado 768396" d="M314.48,343.224c-1.283,0-26.063.082-32.415,0-2.769-.034-3.254-2.461-3.277-4.032l31.414-5.911c-.326,3.6-.517,5.9-.52,6.335a3.726,3.726,0,0,0,.062.712c.526,2.8,4.254,2.9,4.736,2.9" transform="translate(-278.788 -333.281)" fill="#f4a338"/>
                </g>
              </g>
            </g>
            <g id="Grupo_1027603" data-name="Grupo 1027603" transform="translate(69.232 105.284)" opacity="0.4">
              <g id="Grupo_1027602" data-name="Grupo 1027602">
                <g id="Grupo_1027601" data-name="Grupo 1027601" clip-path="url(#clip-path-5)">
                  <path id="Trazado_768397" data-name="Trazado 768397" d="M234.975,247.6l-66.488,22.8-5.678-22.811Z" transform="translate(-162.809 -247.589)" fill="#f4a338"/>
                </g>
              </g>
            </g>
            <path id="Trazado_768398" data-name="Trazado 768398" d="M262.141,28.342H108.227l23.2,93.232,155.69.029Z" transform="translate(-62.205 -16.29)" fill="#5573c6"/>
            <path id="Trazado_768399" data-name="Trazado 768399" d="M357.975,269.785a5.275,5.275,0,0,0-4.946-4.141,3.314,3.314,0,0,0-3.336,4.141,5.275,5.275,0,0,0,4.946,4.141,3.314,3.314,0,0,0,3.336-4.141" transform="translate(-200.945 -152.682)" fill="#f4a338"/>
            <path id="Trazado_768400" data-name="Trazado 768400" d="M288.473,124.315H144.362L128.042,59.3l-1.251-4.985-1.068-4.253-2.5-9.971H265.253L268,50.062l1.172,4.253,1.374,4.985Z" transform="translate(-70.823 -23.043)" fill="#e9f3fe"/>
            <path id="Trazado_768401" data-name="Trazado 768401" d="M265.253,40.09H123.22l2.5,9.972H268Z" transform="translate(-70.822 -23.042)" fill="#afcdfb"/>
            <path id="Trazado_768402" data-name="Trazado 768402" d="M242.674,100.743h14.367l1.864,7.2H244.538Z" transform="translate(-139.48 -57.903)" fill="#4adbd1"/>
            <path id="Trazado_768403" data-name="Trazado 768403" d="M179.889,117.679h14.367l1.779,6.873H181.7Z" transform="translate(-103.393 -67.637)" fill="#4adbd1"/>
            <path id="Trazado_768404" data-name="Trazado 768404" d="M344.375,100.743h14.367l1.864,7.2H346.238Z" transform="translate(-197.934 -57.903)" fill="#4adbd1"/>
            <path id="Trazado_768405" data-name="Trazado 768405" d="M352.944,135h14.367l1.779,6.873H354.76Z" transform="translate(-202.859 -77.594)" fill="#4adbd1"/>
            <path id="Trazado_768406" data-name="Trazado 768406" d="M327.781,168.486h28.813l1.786,7.2H329.645Z" transform="translate(-188.396 -96.84)" fill="#4adbd1"/>
            <rect id="Rectángulo_362659" data-name="Rectángulo 362659" width="143.1" height="0.418" transform="translate(58.658 42.63)" fill="#afcdfb"/>
            <rect id="Rectángulo_362660" data-name="Rectángulo 362660" width="142.99" height="0.418" transform="translate(60.713 49.832)" fill="#afcdfb"/>
            <rect id="Rectángulo_362661" data-name="Rectángulo 362661" width="143.515" height="0.418" transform="translate(62.132 57.034)" fill="#afcdfb"/>
            <rect id="Rectángulo_362662" data-name="Rectángulo 362662" width="143.345" height="0.418" transform="translate(64.246 64.235)" fill="#afcdfb"/>
            <rect id="Rectángulo_362663" data-name="Rectángulo 362663" width="143.469" height="0.418" transform="translate(66.067 71.437)" fill="#afcdfb"/>
            <rect id="Rectángulo_362664" data-name="Rectángulo 362664" width="143.7" height="0.418" transform="translate(67.78 78.639)" fill="#afcdfb"/>
            <rect id="Rectángulo_362665" data-name="Rectángulo 362665" width="143.878" height="0.418" transform="translate(69.547 85.841)" fill="#afcdfb"/>
            <rect id="Rectángulo_362666" data-name="Rectángulo 362666" width="143.887" height="0.418" transform="translate(71.482 93.043)" fill="#afcdfb"/>
            <path id="Trazado_768407" data-name="Trazado 768407" d="M137.921,47.756A.941.941,0,0,0,136.986,49a1.7,1.7,0,0,0,1.557,1.247A.942.942,0,0,0,139.479,49a1.7,1.7,0,0,0-1.557-1.246" transform="translate(-78.712 -27.448)" fill="#e9f3fe"/>
            <path id="Trazado_768408" data-name="Trazado 768408" d="M147.661,47.756A.941.941,0,0,0,146.726,49a1.7,1.7,0,0,0,1.557,1.247A.942.942,0,0,0,149.219,49a1.7,1.7,0,0,0-1.557-1.246" transform="translate(-84.31 -27.448)" fill="#e9f3fe"/>
            <path id="Trazado_768409" data-name="Trazado 768409" d="M159.706,49a1.7,1.7,0,0,0-1.557-1.246A.942.942,0,0,0,157.213,49a1.7,1.7,0,0,0,1.558,1.246A.942.942,0,0,0,159.706,49" transform="translate(-90.338 -27.449)" fill="#e9f3fe"/>
            <path id="Trazado_768410" data-name="Trazado 768410" d="M279.968,143.522l.4-.105L263.559,78.455h11.816L274,73.469H262.269l-.014-.053-.2.053H247.9l-.014-.053-.2.053H233.534l-.014-.053-.2.053H219.167l-.014-.053-.2.053H204.8l-.014-.053-.2.053H190.432l-.014-.053-.2.053H176.065l-.014-.053-.2.053H161.7l-.014-.053-.2.053H147.33l-.014-.053-.2.053h-15.5l1.251,4.985h15.32l16.84,65.067.405-.105L148.621,78.455h13.935L179.4,143.522l.405-.105L162.988,78.455h13.935l16.841,65.067.4-.105L177.355,78.455h13.935l16.84,65.067.405-.105L191.723,78.455h13.935L222.5,143.522l.4-.105L206.09,78.455h13.935l16.841,65.067.4-.105L220.457,78.455h13.935l16.841,65.067.4-.105L234.825,78.455H248.76L265.6,143.522l.4-.105L249.192,78.455h13.935Z" transform="translate(-75.649 -42.197)" fill="#afcdfb"/>
            <rect id="Rectángulo_362667" data-name="Rectángulo 362667" width="30.071" height="30.071" transform="translate(273.193 73.621)" fill="#f4a338"/>
            <rect id="Rectángulo_362668" data-name="Rectángulo 362668" width="30.071" height="30.071" transform="translate(282.465 73.621)" fill="#ee9849"/>
            <path id="Trazado_768411" data-name="Trazado 768411" d="M697.406,220.287a2.2,2.2,0,1,0,2.205,2.187,2.2,2.2,0,0,0-2.205-2.187" transform="translate(-399.586 -126.613)" fill="#ebf2f9"/>
            <path id="Trazado_768412" data-name="Trazado 768412" d="M697.424,189.958h0a2.2,2.2,0,1,0-2.205-2.187,2.2,2.2,0,0,0,2.205,2.187" transform="translate(-399.586 -106.656)" fill="#ebf2f9"/>
            <rect id="Rectángulo_362669" data-name="Rectángulo 362669" width="18.821" height="4.392" transform="translate(288.379 86.499) rotate(-0.238)" fill="#ebf2f9"/>
            <rect id="Rectángulo_362670" data-name="Rectángulo 362670" width="25.706" height="25.706" transform="translate(15.477 94.455)" fill="#3165ba"/>
            <rect id="Rectángulo_362671" data-name="Rectángulo 362671" width="25.706" height="25.706" transform="translate(23.403 94.455)" fill="#5573c6"/>
            <rect id="Rectángulo_362672" data-name="Rectángulo 362672" width="16.089" height="3.755" transform="translate(28.467 105.431)" fill="#ebf2f9"/>
            <path id="Trazado_768413" data-name="Trazado 768413" d="M195.324,333.911l1.5,6.318,2.247-.013.082-6.3Z" transform="translate(-112.265 -191.92)" fill="#d6a778"/>
            <path id="Trazado_768414" data-name="Trazado 768414" d="M239.771,333.42l4.268,6.049,1.664-2.136-2.569-4.744Z" transform="translate(-137.811 -191.16)" fill="#d6a778"/>
            <path id="Trazado_768415" data-name="Trazado 768415" d="M186.113,137.721a4.353,4.353,0,0,0-2.355-.451,1.1,1.1,0,0,1,.5-.236,3.651,3.651,0,0,0-1.3.34c-5.608-2.161-6.49,6.1-6.372,8.015s-1.885,2.545-4.8,4.056c-5.567,2.884-6.056,6.746-6.056,6.746.043.026.088.055.137.088.276-.468.845-1.347,1.325-1.479a19.824,19.824,0,0,0-.771,1.879c1.642,1.249,4.715,4.018,6.856,5.98a3.153,3.153,0,0,1,.146-1.216l.264,1.593c1.146,1.054,1.936,1.795,1.936,1.795-.142-1.55,7.012-9.732,10.744-12.182a10.787,10.787,0,0,0,1.256-3.886,10.2,10.2,0,0,1-.764,3.516c3.16-2.908,1.32-13.39-.736-14.558" transform="translate(-95.25 -78.752)" fill="#12263f"/>
            <path id="Trazado_768416" data-name="Trazado 768416" d="M206.588,166.6a5.171,5.171,0,0,1-3.172.579,4.116,4.116,0,0,1-2.112-2.025c.545-.108.7-.858.691-4.079l.247.048,4.147.821s-.094,1.305-.1,2.534c0,1.032.06,2.011.3,2.122" transform="translate(-115.702 -92.579)" fill="#d6a778"/>
            <path id="Trazado_768417" data-name="Trazado 768417" d="M202.7,140.5a3.315,3.315,0,0,1,4.614-.111,17.973,17.973,0,0,0-4.614.111" transform="translate(-116.506 -80.178)" fill="#4adbd1"/>
            <path id="Trazado_768418" data-name="Trazado 768418" d="M207.658,162.009s-.094,1.305-.1,2.534c-2.32-.065-3.547-2.182-4.049-3.356Z" transform="translate(-116.971 -92.645)" fill="#dba88d"/>
            <path id="Trazado_768419" data-name="Trazado 768419" d="M200.417,148.61a12.188,12.188,0,0,1-1.508-3.564c-.208-1.173.389-5.52,4.758-4.894a5.934,5.934,0,0,1,2.462.931c.949.64,2.318,2.024.787,5.818l-.4,1.282Z" transform="translate(-114.305 -80.518)" fill="#12263f"/>
            <path id="Trazado_768420" data-name="Trazado 768420" d="M220.314,275.563l-2.2.067-2.379.073a46.965,46.965,0,0,1-8.578-15.927q-.108-.342-.228-.692c-1.687-4.919-5.185-11.094-7.027-16.683-.294-.89-.557-1.728-.794-2.521-.075-.254-.15-.5-.22-.749A59.256,59.256,0,0,1,196.776,228l13.309.107a248.026,248.026,0,0,0,10.229,47.453" transform="translate(-113.1 -131.048)" fill="#5573c6"/>
            <path id="Trazado_768421" data-name="Trazado 768421" d="M200.512,186.958c-.034,6.333.929,9.05.929,9.05a17.882,17.882,0,0,1-12.471.764c-.08-.025-5.608-1.287-5.608-1.287.114-.256,1.121-4.524,1.232-4.759,1.43-3.071,2.516-4.417,2.685-5.361a20.088,20.088,0,0,0,.165-5.306,42.588,42.588,0,0,0-1.642-8.333,43.244,43.244,0,0,0,5.494-1.878,4.292,4.292,0,0,0,2.963,1.1c1.349-.03,1.787-.607,1.717-1.238,1.438.8,2.585,1.556,2.585,1.556,1.222,2.122,3.7,4.183,3.879,7.439.044.8-1.928,8.076-1.928,8.253" transform="translate(-105.39 -97.544)" fill="#e7f1fd"/>
            <path id="Trazado_768422" data-name="Trazado 768422" d="M225.32,177.55c-1.954-2.282-7.016-7.232-12.239-7.839l4.507,8.781a3.885,3.885,0,0,0,1.588,2.382,26.163,26.163,0,0,0,7.426,3.1,39.025,39.025,0,0,0,6.663-4.048c1.208-.885,3.33-4.261,3.33-4.261l-.573-1.916s-3.6,2.015-4.891,2.6c-.734.331-2.423,1.122-3.612,1.681a1.857,1.857,0,0,1-2.2-.475" transform="translate(-122.471 -97.544)" fill="#4adbd1"/>
            <path id="Trazado_768423" data-name="Trazado 768423" d="M207.575,153.335s-5.49.091-5.494-3.329-.715-5.711,2.79-5.914,4.188,1.1,4.466,2.243-.335,6.888-1.763,7" transform="translate(-116.114 -82.807)" fill="#d6a778"/>
            <path id="Trazado_768424" data-name="Trazado 768424" d="M204.986,142.984s-1.5,4.012-3.81,4.605-3.308-.025-3.308-.025A6.533,6.533,0,0,0,200,143.705s3.847-2.631,4.981-.721" transform="translate(-113.727 -81.783)" fill="#12263f"/>
            <path id="Trazado_768425" data-name="Trazado 768425" d="M213.73,143.806a4.844,4.844,0,0,1,1.4,1.766c.274.871.4,2.664.919,2.6,0,0,1.132-2.727-.14-4.27-1.35-1.636-2.176-.1-2.176-.1" transform="translate(-122.844 -82.278)" fill="#12263f"/>
            <path id="Trazado_768426" data-name="Trazado 768426" d="M267.035,175.914a3.427,3.427,0,0,1,3.84-2.4c.352.111,1.38.52.723,1.621-.484.811-.694.393-1.456,1.483a2.428,2.428,0,0,1-2.534,1.206Z" transform="translate(-153.482 -99.71)" fill="#d6a778"/>
            <path id="Trazado_768427" data-name="Trazado 768427" d="M198.241,347.938a6.083,6.083,0,0,1-.286,2.59s-.368,1.676,1.283,1.707,2.055-.125,1.868-1.152-.543-2.8-.543-2.8Z" transform="translate(-113.757 -199.982)" fill="#d6a778"/>
            <path id="Trazado_768428" data-name="Trazado 768428" d="M201.066,356.394s-.035.022-.1.055h-3.23a.764.764,0,0,1-.091-.055,8.1,8.1,0,0,1,.118-2.423c1.869,1.712,3.039-.043,3.039-.043a8.765,8.765,0,0,1,.268,2.465" transform="translate(-113.562 -203.425)" fill="#4adbd1"/>
            <path id="Trazado_768429" data-name="Trazado 768429" d="M254.639,348.842a41.284,41.284,0,0,1-3.976-5.1l-2.263,1.159,5.057,4.749,1.183-.156Z" transform="translate(-142.771 -197.572)" fill="#d6a778"/>
            <path id="Trazado_768430" data-name="Trazado 768430" d="M255.751,352.163h-4.163a5.923,5.923,0,0,1-1.241-1.924,2.043,2.043,0,0,0-1.378-.921v2.813h-.864l-.818-2.99a2.75,2.75,0,0,1,.337-2.669c.441,0,1.627.3,3.874,2.833a2.945,2.945,0,0,0,2.365,1.1.191.191,0,0,0,.033.017,3.02,3.02,0,0,1,1.854,1.738" transform="translate(-141.996 -199.139)" fill="#4adbd1"/>
            <path id="Trazado_768431" data-name="Trazado 768431" d="M213.026,169.711s3.177,7.847,3.27,9.435.374,25.969.374,25.969-.187,1.121,1.962.654a7.21,7.21,0,0,0,2.709-.934s-2.055-15.039-1.495-20.271-4.3-13.763-4.3-13.763Z" transform="translate(-122.439 -97.544)" fill="#4adbd1"/>
            <path id="Trazado_768432" data-name="Trazado 768432" d="M220.973,288.661l-2.379.073a46.96,46.96,0,0,1-8.578-15.927q-.108-.342-.228-.692c-1.687-4.92-5.185-11.094-7.027-16.683-.293-.89-.557-1.728-.793-2.521-.076-.254-.15-.5-.22-.749l1.96-1.487s5.884,9.528,7.706,18.495c1.582,7.789,7.92,17.161,9.56,19.492" transform="translate(-115.957 -144.079)" fill="#12263f"/>
            <path id="Trazado_768433" data-name="Trazado 768433" d="M223.717,198.509l-.116.355-6.159-2a.239.239,0,0,1-.039-.219.175.175,0,0,1,.154-.136Z" transform="translate(-124.948 -112.945)" fill="#12263f"/>
            <path id="Trazado_768434" data-name="Trazado 768434" d="M193.061,266.587c.034,4.36-.187,14.386-.755,18.536H190.2c-1.165,0-1.746-.017-1.746-.017-1.425-7.216-2.438-13.187-3.176-18.332-.606-4.222-1.143-7.842-1.557-10.958-.417-3.136-.706-5.762-.81-7.98-.016-.349-.028-.689-.034-1.019s-.008-.654-.006-.967l11.5-1.121c-.145,7.64-1.326,19.324-1.308,21.858" transform="translate(-105.106 -140.661)" fill="#5573c6"/>
            <path id="Trazado_768435" data-name="Trazado 768435" d="M190.255,289.323c-1.165,0-1.746-.017-1.746-.017-1.425-7.216-2.438-13.187-3.176-18.332-.606-4.223-1.143-7.842-1.557-10.958-.417-3.136-.706-5.762-.81-7.98l4.22,2.482s-2.693.95-1.666,8.143,3.3,25.644,4.735,26.663" transform="translate(-105.162 -144.86)" fill="#12263f"/>
            <path id="Trazado_768436" data-name="Trazado 768436" d="M187.328,204.864s-.81,2.926-3.612,2.553a33.784,33.784,0,0,1-6.787-2.055s1.2-3.784,2.687-8.756c1.8-6.019,4.034-13.777,5.086-18.671a30.2,30.2,0,0,0,.572-3.337l2.325-4.511s3.467,7.781,3.653,9.742-3.923,25.035-3.923,25.035" transform="translate(-101.692 -97.76)" fill="#4adbd1"/>
            <path id="Trazado_768437" data-name="Trazado 768437" d="M188.184,179.537l3.069-9.45a47.33,47.33,0,0,0-5.821,2.133,13.539,13.539,0,0,0-1.968,5.185s-.795,8.682.98,11.859c0,0,5.605,1.121,14.572-1.962v-2.055s-9.808.514-11.816.748Z" transform="translate(-105.346 -97.76)" fill="#d6a778"/>
            <path id="Trazado_768438" data-name="Trazado 768438" d="M190.835,194.546c-.125,3.176-.873,9.341-7.536,12.641l-.053.026c1.8-6.019,4.034-13.778,5.086-18.671,1.224,1.829,2.571,4.256,2.5,6" transform="translate(-105.323 -108.367)" fill="#47bfb3"/>
            <path id="Trazado_768439" data-name="Trazado 768439" d="M190.849,170.087s-5.688.4-7.059,3.452-1.806,13.2-.062,16.192a15.875,15.875,0,0,0,6.646-.11l.157-.03s1.355-3.316.14-3.97c0,0-3.581.187-3.207-1s3.384-14.537,3.384-14.537" transform="translate(-104.943 -97.76)" fill="#4adbd1"/>
            <path id="Trazado_768440" data-name="Trazado 768440" d="M217.911,201.756a4.9,4.9,0,0,0,.948-1.914,2.081,2.081,0,0,1,2.033-1.861c1.349-.177,1.928-.2,1.925.184a10.063,10.063,0,0,1-3.037,4.619c-1.935,1.585-1.868-1.028-1.868-1.028" transform="translate(-125.247 -113.722)" fill="#d6a778"/>
            <path id="Trazado_768441" data-name="Trazado 768441" d="M232.554,201.558l-.443-.343-.115.355Z" transform="translate(-133.343 -115.651)" fill="#12263f"/>
            <rect id="Rectángulo_362673" data-name="Rectángulo 362673" width="49.794" height="49.794" transform="translate(258.371 103.692)" fill="#f4a338"/>
            <rect id="Rectángulo_362674" data-name="Rectángulo 362674" width="49.794" height="49.794" transform="translate(243.018 103.692)" fill="#d82"/>
            <path id="Trazado_768442" data-name="Trazado 768442" d="M623.393,277.694H611.447V265.749h-7.273v11.946H592.228v7.273h11.946v11.946h7.273V284.968h11.946Z" transform="translate(-340.391 -152.742)" fill="#ebf2f9"/>
            <path id="Trazado_768443" data-name="Trazado 768443" d="M688.584,243.845l15.353,7.477v-7.477Z" transform="translate(-395.772 -140.153)" fill="#c17a25"/>
            <path id="Trazado_768444" data-name="Trazado 768444" d="M574.25,281.214a.889.889,0,0,1,.159.95l0,0a5.906,5.906,0,0,1-1.866,2.047c-.112.091-.212.173-.3.25l-.067.06-.052.047c-.82.756-.512.929-1.985,2.463-1.68,1.748-2.837,1.78-3.166,1.621-.278-.136.287-1.063.914-2.105.03-.05.06-.1.091-.152.084-.139.167-.279.25-.418.734-1.254.546-1.843.372-3.71-.142-1.516-2.36-8.474-2.36-8.474l3.22-.555s.969,5.54,2.038,6.393c.571.455,1.211.461,1.76.8.039.023.077.048.114.072a4.231,4.231,0,0,1,.881.708" transform="translate(-325.452 -157.05)" fill="#d6a778"/>
            <path id="Trazado_768445" data-name="Trazado 768445" d="M575.143,290.933a.889.889,0,0,1,.159.95l0,0a6.838,6.838,0,0,1-1.869,2.041c-.111.092-.209.176-.3.256l-.067.06-.052.047c-.82.756-.512.929-1.985,2.463-1.68,1.748-2.837,1.78-3.166,1.621-.279-.136.287-1.063.914-2.105a7.16,7.16,0,0,0,2.995-2.207c1.012-1.291,1.686-2.95,2.375-3.911.039.023.077.048.114.072a4.235,4.235,0,0,1,.881.708" transform="translate(-326.344 -166.769)" fill="#4adbd1"/>
            <path id="Trazado_768446" data-name="Trazado 768446" d="M510.959,277.879c-.2.994-1.615.828-3.2.441s-1.206.073-3.459-.176-2.935-1.089-3-1.424c-.062-.3,1.052-.4,2.245-.54l.452-.054c1.348-.169,2.335-1.039,3.56-1.754,1.16-.677,2.891-3.433,2.891-3.433l3.089.245s-1.621,2.463-2.248,3.533a3.733,3.733,0,0,0-.3,2.105,3.966,3.966,0,0,1-.024,1.057" transform="translate(-288.126 -155.726)" fill="#d6a778"/>
            <path id="Trazado_768447" data-name="Trazado 768447" d="M507.761,285.4c-1.583-.387-1.207.073-3.459-.176s-2.935-1.089-3-1.424c-.061-.3,1.052-.4,2.246-.54l.011.023a6.35,6.35,0,0,0,3.226,1c1.529.037,3.148-.4,4.2-.384a3.961,3.961,0,0,1-.024,1.057c-.2.994-1.616.828-3.2.441" transform="translate(-288.126 -162.81)" fill="#4adbd1"/>
            <path id="Trazado_768448" data-name="Trazado 768448" d="M533.18,177.656s-.736-1.8-1.546-1.877-3.386-.478-3.57-.111a2.548,2.548,0,0,0,.552,2.172c.552.478,3.975,1.251,3.975,1.251Z" transform="translate(-303.472 -100.88)" fill="#d6a778"/>
            <path id="Trazado_768449" data-name="Trazado 768449" d="M551.865,234.108l6.658,17.919a6.105,6.105,0,0,0,2-.184,8.618,8.618,0,0,0,1.937-.943s-1.652-17.206-4.68-20.784-5.919,3.992-5.919,3.992" transform="translate(-317.192 -131.71)" fill="#47bfb3"/>
            <path id="Trazado_768450" data-name="Trazado 768450" d="M559.086,216.61s-19.133-6.469-23.4-5.093-17.079,26.866-17.079,26.866a2.472,2.472,0,0,0,1.078.68,10.183,10.183,0,0,0,2.511.258s11.562-9.911,12.939-12.8,1.927-5.643,3.3-5.368,17.756,6.745,21.472,2.89a10.727,10.727,0,0,0,2.744-8.862Z" transform="translate(-298.077 -121.462)" fill="#4adbd1"/>
            <path id="Trazado_768451" data-name="Trazado 768451" d="M583.853,130.985a10.879,10.879,0,0,1-.814-3.748,11.5,11.5,0,0,0,1.339,4.143c3.979,2.613,11.606,11.336,11.455,12.988,0,0,2.686-4.556,2.733-4.584,0,0,4.955-6.3-.918-9.911-2.985-1.834-2.97-4.189-2.845-6.234s-.814-10.85-6.794-8.546a3.886,3.886,0,0,0-1.389-.362,1.17,1.17,0,0,1,.529.251,4.637,4.637,0,0,0-2.511.481c-2.192,1.246-4.154,12.421-.784,15.522" transform="translate(-334.536 -65.932)" fill="#2fa89c"/>
            <path id="Trazado_768452" data-name="Trazado 768452" d="M588.09,146.251a5.514,5.514,0,0,0,3.382.617,4.385,4.385,0,0,0,2.252-2.159c-.582-.115-.749-.915-.737-4.349l-.263.052-4.421.876s.1,1.391.1,2.7c0,1.1-.063,2.144-.315,2.262" transform="translate(-338.012 -80.674)" fill="#d6a778"/>
            <path id="Trazado_768453" data-name="Trazado 768453" d="M588.589,141.358s.1,1.391.1,2.7c2.474-.07,3.782-2.326,4.317-3.578Z" transform="translate(-338.299 -80.744)" fill="#dba88d"/>
            <path id="Trazado_768454" data-name="Trazado 768454" d="M589.7,127.072a13,13,0,0,0,1.608-3.8c.222-1.25-.415-5.886-5.073-5.218a6.324,6.324,0,0,0-2.625.992c-1.011.683-2.471,2.158-.839,6.2l.424,1.366Z" transform="translate(-334.536 -67.815)" fill="#2fa89c"/>
            <path id="Trazado_768455" data-name="Trazado 768455" d="M584.011,132.109s5.853.1,5.857-3.549.763-6.089-2.974-6.3-4.465,1.174-4.762,2.391.357,7.344,1.88,7.463" transform="translate(-334.547 -70.255)" fill="#d6a778"/>
            <path id="Trazado_768456" data-name="Trazado 768456" d="M589,121.843s-4-2.733-5.263-.843c-.384-.329-1.066-.567-1.97.528-1.357,1.645-.15,4.553-.15,4.553.557.065.689-1.846.98-2.775a4.649,4.649,0,0,1,1.3-1.725c.511,1.152,1.915,3.906,3.851,4.4,2.46.632,3.526-.026,3.526-.026A6.966,6.966,0,0,1,589,121.843" transform="translate(-334.006 -69.163)" fill="#2fa89c"/>
            <path id="Trazado_768457" data-name="Trazado 768457" d="M597.939,181.8c-.316.876-1.284,1.1-2.582.95-2.474-.289-6.149-1.95-8.8-3.1-4.038-1.75-5.873-.105-7.158-1.22s1.468-3.591-.918-15.092c-.81-3.9,4.315-12.269,4.315-12.269s.355,2.267,5.352-.485a45.927,45.927,0,0,1,3.964,6.282c2.05,3.889,4.014,8.587,3.437,11.008-1.1,4.615,3.3,11.378,2.386,13.925" transform="translate(-332.442 -86.552)" fill="#5573c6"/>
            <path id="Trazado_768458" data-name="Trazado 768458" d="M559.137,151.728l-3.022,12.413s-.376.67-.966,1.624c-1.385,2.239-3.948,6.043-5.589,6.429-.809.191-2.531-.483-4.436-1.445a90.094,90.094,0,0,1-7.861-4.672,3.78,3.78,0,0,1,1.162-3s8.626,3.242,9.483,3.3c1.868.133,3.768-8.88,5.513-11.884,1.262-2.172,5.715-2.77,5.715-2.77" transform="translate(-308.779 -87.208)" fill="#5573c6"/>
            <path id="Trazado_768459" data-name="Trazado 768459" d="M586.732,139.862s-.109.463-1.261.392c0,0-.967-.06-.938-.569a3.114,3.114,0,0,1,2.2.177" transform="translate(-335.968 -80.217)" fill="#fff"/>
            <path id="Trazado_768460" data-name="Trazado 768460" d="M608.661,196.394c-.316.876-1.284,1.1-2.582.95-1.712-.746-9.109-3.612-9.027-5.554.123-2.875,1.422-2.967.5-6.515-.737-2.85,6.1-8.148,7.189-9.3,2.05,3.889,2.107,4.073,1.529,6.494-1.1,4.615,3.3,11.379,2.386,13.925" transform="translate(-343.163 -101.144)" fill="#3165ba"/>
            <path id="Trazado_768461" data-name="Trazado 768461" d="M565.822,184.069c-1.385,2.239-3.948,6.043-5.589,6.429-.809.191-2.531-.483-4.436-1.445a11.528,11.528,0,0,0,4.054.222c1.422-.138,1.835-1.881,4.083-4.5,1.458-1.7,1.816-1.269,1.888-.709" transform="translate(-319.452 -105.512)" fill="#3165ba"/>
            <path id="Trazado_768462" data-name="Trazado 768462" d="M589.934,196.641a3.527,3.527,0,0,0-2.409-.734c-1.17.229-1.743,1.032-1.7,1.4a2.087,2.087,0,0,0,1.56,1.491,16.917,16.917,0,0,0,3.441-.551Z" transform="translate(-336.71 -112.58)" fill="#d6a778"/>
            <path id="Trazado_768463" data-name="Trazado 768463" d="M597.345,150.588s4.771.294,6.422,2.6c2.325,3.242,7.9,17.665,5.261,19.508-2.977,2.076-14.515-.061-14.515-.061a4.291,4.291,0,0,1,.138-2.439c.489-.8,8.443-2.08,8.81-2.447s-4.588-7.158-4.588-8.259-1.528-8.9-1.528-8.9" transform="translate(-341.634 -86.552)" fill="#5573c6"/>
            <path id="Trazado_768464" data-name="Trazado 768464" d="M564.527,197.99H546.955l-3.168-11.047h17.545Z" transform="translate(-312.549 -107.448)" fill="#2c52a8"/>
            <rect id="Rectángulo_362675" data-name="Rectángulo 362675" width="22.973" height="0.43" transform="translate(234.466 90.112)" fill="#12263f"/>
            <path id="Trazado_768465" data-name="Trazado 768465" d="M564.32,198.561a.511.511,0,0,1,.5-.7,1.008,1.008,0,0,1,.9.7.512.512,0,0,1-.5.7,1.007,1.007,0,0,1-.9-.7" transform="translate(-324.334 -113.721)" fill="#12263f"/>
            <path id="Trazado_768466" data-name="Trazado 768466" d="M328.613,360.4H12.954a.282.282,0,1,1,0-.563H328.613a.282.282,0,0,1,0,.563" transform="translate(-7.283 -206.819)" fill="#193f68"/>
            <rect id="Rectángulo_362676" data-name="Rectángulo 362676" width="32.853" height="32.853" transform="translate(18.339 120.162)" fill="#f4a338"/>
            <rect id="Rectángulo_362677" data-name="Rectángulo 362677" width="32.853" height="32.853" transform="translate(28.468 120.162)" fill="#d82"/>
            <path id="Trazado_768467" data-name="Trazado 768467" d="M103.159,314.39,97.5,308.909l5.481-5.664-3.448-3.337-5.481,5.663-5.664-5.481-3.337,3.448,5.664,5.481-5.481,5.664,3.448,3.337,5.481-5.664,5.663,5.481Z" transform="translate(-48.882 -172.376)" fill="#ebf2f9"/>
            <path id="Trazado_768468" data-name="Trazado 768468" d="M53.256,282.576l-10.13,6.141v-6.141Z" transform="translate(-24.787 -162.414)" fill="#c17a25"/>
            <path id="Trazado_768469" data-name="Trazado 768469" d="M459.027,157.954s7.658,7.8,8.026,10.783-3.646,7.65-3.646,7.65Z" transform="translate(-263.832 -90.786)" fill="#aa6f29"/>
            <path id="Trazado_768470" data-name="Trazado 768470" d="M437.508,349.106a16.6,16.6,0,0,1-.635,3.759H427.3a1.741,1.741,0,0,1,1.411-1.012c1.5-.262,4.01-1.316,4.918-3.3.956-2.085,3.882.551,3.882.551" transform="translate(-245.595 -199.876)" fill="#12263f"/>
            <path id="Trazado_768471" data-name="Trazado 768471" d="M464.381,349.106a16.636,16.636,0,0,1-.634,3.759h-9.575a1.738,1.738,0,0,1,1.411-1.012c1.5-.262,4.01-1.316,4.918-3.3.955-2.085,3.88.551,3.88.551" transform="translate(-261.041 -199.876)" fill="#12263f"/>
            <path id="Trazado_768472" data-name="Trazado 768472" d="M437.947,235.941s1.342,8.582,6.347,23.816,5.688,21.831,5.688,21.831l5.37-.151s.045-16.649-2.261-24.31-.5-27.617-.5-27.617Z" transform="translate(-251.716 -131.914)" fill="#12263f"/>
            <path id="Trazado_768473" data-name="Trazado 768473" d="M431.8,230.615a208.279,208.279,0,0,0,2.047,28.811c2.238,15.879,1.479,22.619,1.479,22.619l5.359.178s3.2-15.884,2.284-23.832,4.385-27.272,4.385-27.272Z" transform="translate(-248.178 -132.549)" fill="#2c52a8"/>
            <path id="Trazado_768474" data-name="Trazado 768474" d="M446.762,150.806l-2.855,1.872-4.126-.769c.057-.333.33-1.714.577-2.964.015-.074.03-.148.044-.219.213-1.064.4-1.978.4-1.978l3.854-1.7,1.437-.634c0,.023-.111,1.181-.126,1.35a9.826,9.826,0,0,0,.8,5.044" transform="translate(-252.769 -83.003)" fill="#eda54f"/>
            <path id="Trazado_768475" data-name="Trazado 768475" d="M448.172,189.841c-.829,3.78-14.621,4.229-18.176.8-.4-.391-.424-2.211-.272-4.665.3-4.794,1.257-12.005,1.294-15.69a29.14,29.14,0,0,1,.588-5.252,42.633,42.633,0,0,1,1.749-6.285s6.737-2.178,8-1.808c6.073,1.784,7.648,29.122,6.82,32.9" transform="translate(-246.939 -90.178)" fill="#ee9849"/>
            <path id="Trazado_768476" data-name="Trazado 768476" d="M429.842,196c.3-4.794,1.257-12.005,1.294-15.69a29.169,29.169,0,0,1,.589-5.251l4.053-.715s3.962,16.183-5.935,21.656" transform="translate(-247.057 -100.208)" fill="#aa6f29"/>
            <path id="Trazado_768477" data-name="Trazado 768477" d="M433.443,208.71a.954.954,0,0,1-.3,1.1,1.849,1.849,0,0,0-.823,1.686c.133.525,1.405,1.381,1.846,1.243s1.339-.829,1.242-1.106.6-2.43-.472-3.259a.868.868,0,0,0-1.49.332" transform="translate(-248.464 -119.596)" fill="#eda54f"/>
            <path id="Trazado_768478" data-name="Trazado 768478" d="M429.657,158.966s-3.952.739-7.1,5.381-5.221,8.091-4.641,9.763,5.868,7.474,6.78,7.474a2.444,2.444,0,0,0,2.466-2.155s-3.723-5.58-2.989-6.416c.313-.357,4.833-4.026,5.478-2.369,1.068,2.742.008-11.678.008-11.678" transform="translate(-240.146 -91.368)" fill="#ee9849"/>
            <path id="Trazado_768479" data-name="Trazado 768479" d="M446.453,146.672c-.846,1.433-4,2.673-5.315,3.129.015-.074.03-.148.044-.22.213-1.064.4-1.978.4-1.978l3.854-1.7c.852-.012,1.371.179,1.021.769" transform="translate(-253.55 -83.86)" fill="#e5bca5"/>
            <path id="Trazado_768480" data-name="Trazado 768480" d="M437.707,135.54s6.208,1.937,7.355-1.948,2.72-6.251-1.2-7.652-5.127-.147-5.824,1.057-1.92,7.939-.335,8.543" transform="translate(-251.132 -72.031)" fill="#eda54f"/>
            <path id="Trazado_768481" data-name="Trazado 768481" d="M439.328,123.756s.4,4.521,1.331,4.324,1.783-.341,1.646,1.021-1.433,2.936,1.448,3.177,7.023-7.189,6.231-8.6c-2.284-4.059-13.957-4.878-10.656.074" transform="translate(-252.174 -69.164)" fill="#12263f"/>
            <path id="Trazado_768482" data-name="Trazado 768482" d="M440.033,155.447c.08-.034,4.969-1.476,5.5-1.3s.845,1.2.845,1.2l-8,1.808a3.973,3.973,0,0,1,1.651-1.71" transform="translate(-251.966 -88.589)" fill="#aa6f29"/>
            <path id="Trazado_768483" data-name="Trazado 768483" d="M77.275,175.665s-2.592-3.023-.16-4.944a6.9,6.9,0,0,1,3.225-.988s-2.053,3.441-1.388,3.784,2.01-4,2.01-4,4.043-.392,5.343.233c0,0-3.456,2.828-2.728,3s4.461-2.608,4.461-2.608,3.762.64,3.561,2.935-1.5,3-2.067,2.943-3.9-1.333-3.975-.866,1.934,1.992,3.339,2.064c0,0-2.653,2.925-4.415,2.081s-1.914-2.182-3.012-2.685-2.037-.5-1.583.012,2.443,1.009,3.071,2.121,1.192,1.861-.631,1.587-4.789-1.609-4.919-3.137Z" transform="translate(-43.725 -97.362)" fill="#35a095"/>
            <path id="Trazado_768484" data-name="Trazado 768484" d="M88.3,178.169s-10.218-.394-12.475,2.528a7.394,7.394,0,0,1-2.035,2.856l-.239.652s1.771-1.867,2.4-1.98c0,0-.991-3.62,12.345-4.057" transform="translate(-42.274 -102.395)" fill="#35a095"/>
            <path id="Trazado_768485" data-name="Trazado 768485" d="M70.943,190.507a6.416,6.416,0,0,0-2.346,4.52l.4.036s.7-3,1.967-4.169-.019-.387-.019-.387" transform="translate(-39.427 -109.349)" fill="#35a095"/>
            <path id="Trazado_768486" data-name="Trazado 768486" d="M37.149,160.767s4.123-2.309,2.2-5.442a8.185,8.185,0,0,0-3.188-2.418s.879,4.672,0,4.782-.6-5.277-.6-5.277-4.343-2.089-6.046-1.924c0,0,2.693,4.562,1.814,4.453s-3.9-4.727-3.9-4.727-4.453-.825-5.167,1.814.44,3.958,1.1,4.123,4.892.11,4.782.66-2.968,1.429-4.562.934c0,0,1.759,4.343,4.068,4.123s3.023-1.649,4.452-1.759,2.474.275,1.759.66-3.133.126-4.288,1.107-2.089,1.586.055,2.026,5.992.165,6.761-1.484Z" transform="translate(-12.66 -86.267)" fill="#25c1b6"/>
            <path id="Trazado_768487" data-name="Trazado 768487" d="M27.34,156.582S38.883,160.32,40.2,164.5a8.761,8.761,0,0,0,1.1,4.013v.825s-1.209-2.8-1.869-3.188c0,0,2.583-3.628-12.093-9.565" transform="translate(-15.714 -89.998)" fill="#35a095"/>
            <path id="Trazado_768488" data-name="Trazado 768488" d="M59.429,183.939a7.615,7.615,0,0,1,.765,5.994l-.458-.123s.444-3.624-.487-5.447.179-.424.179-.424" transform="translate(-33.84 -105.427)" fill="#35a095"/>
            <path id="Trazado_768489" data-name="Trazado 768489" d="M68.184,148.687s-5.435-3.043-2.9-7.173c0,0,2.029-2.536,4.2-3.188,0,0-1.159,6.159,0,6.3s.8-6.956.8-6.956,5.724-2.753,7.97-2.536c0,0-3.55,6.015-2.391,5.87s5.145-6.232,5.145-6.232,5.869-1.087,6.811,2.392-.58,5.217-1.449,5.434-6.449.145-6.3.869,3.913,1.884,6.014,1.232c0,0-2.318,5.724-5.362,5.435s-3.985-2.174-5.869-2.319-3.261.362-2.319.87,4.13.166,5.652,1.46,2.753,2.09-.072,2.67-7.9.217-8.913-1.957Z" transform="translate(-37.136 -77.371)" fill="#4adbd1"/>
            <path id="Trazado_768490" data-name="Trazado 768490" d="M88.01,143.172S72.793,148.1,71.054,153.606A11.564,11.564,0,0,1,69.6,158.9v1.087s1.594-3.7,2.463-4.2c0,0-3.405-4.782,15.941-12.608" transform="translate(-40.006 -82.29)" fill="#35a095"/>
            <path id="Trazado_768491" data-name="Trazado 768491" d="M67.684,179.234a10.037,10.037,0,0,0-1.009,7.9l.6-.162s-.586-4.778.642-7.181-.236-.558-.236-.558" transform="translate(-38.086 -102.628)" fill="#35a095"/>
            <path id="Trazado_768492" data-name="Trazado 768492" d="M58.194,206.461A10.645,10.645,0,0,0,68.84,195.816H47.549a10.645,10.645,0,0,0,10.645,10.645" transform="translate(-27.329 -112.548)" fill="#d82"/>
            <path id="Trazado_768493" data-name="Trazado 768493" d="M62.567,206.381A10.651,10.651,0,0,1,50.6,195.817h2.645a10.647,10.647,0,0,0,9.323,10.564" transform="translate(-29.083 -112.548)" fill="#ffb973"/>
            <path id="Trazado_768494" data-name="Trazado 768494" d="M67.474,219.036H48.517a1.313,1.313,0,0,0-1.314,1.313H68.788a1.313,1.313,0,0,0-1.314-1.313" transform="translate(-27.131 -125.894)" fill="#d82"/>
            <rect id="Rectángulo_362678" data-name="Rectángulo 362678" width="21.883" height="0.327" transform="translate(19.87 83.268)" fill="#f4a338"/>
          </g>
        </g>
      </g>
    </g>
  </g>
</svg>
