<svg xmlns="http://www.w3.org/2000/svg" xmlns:xlink="http://www.w3.org/1999/xlink" width="245" height="160" viewBox="0 0 245 160">
  <defs>
    <clipPath id="clip-path">
      <rect id="Rectángulo_366094" data-name="Rectángulo 366094" width="223.747" height="154.881" fill="none"/>
    </clipPath>
    <clipPath id="clip-path-3">
      <rect id="Rectángulo_366087" data-name="Rectángulo 366087" width="146.093" height="73.475" fill="none"/>
    </clipPath>
    <clipPath id="clip-path-4">
      <rect id="Rectángulo_366088" data-name="Rectángulo 366088" width="222.11" height="111.697" fill="none"/>
    </clipPath>
    <clipPath id="clip-path-5">
      <rect id="Rectángulo_366089" data-name="Rectángulo 366089" width="58.711" height="42.75" fill="none"/>
    </clipPath>
    <clipPath id="clip-path-6">
      <rect id="Rectángulo_366090" data-name="Rectángulo 366090" width="52.532" height="47.328" fill="none"/>
    </clipPath>
    <clipPath id="clip-path-7">
      <rect id="Rectángulo_366091" data-name="Rectángulo 366091" width="58.712" height="42.75" fill="none"/>
    </clipPath>
    <clipPath id="clip-path-8">
      <rect id="Rectángulo_366092" data-name="Rectángulo 366092" width="52.531" height="47.328" fill="none"/>
    </clipPath>
  </defs>
  <g id="Grupo_1033335" data-name="Grupo 1033335" transform="translate(-350 -11535)">
    <path id="Trazado_779581" data-name="Trazado 779581" d="M131.339,3.837a53.644,53.644,0,0,0-13.868,13.079c-3.709,4.965-5.037,8.148-8.48,8.948-2.524.587-5.367-.476-9.267-2.84-8.344-5.059-18.147-1.66-25.241,11.809s-4.418,26.223,8.677,41.335c9.583,11.059-3.3,11.18-10.754,30.346s3.057,40.666,37.628,40.41c34.618-.256,86.95.235,86.951.235,27.332.256,56.821,4.964,82.228-8.287,9.182-4.789,17.3-12.174,21.806-21.681,5.951-12.554,3.963-28.329-3.9-39.625-5.241-7.53-12.786-5.362-19.075-10.318-6.564-5.173-10.513-10.789-1.127-20s16.571-15.41,11.826-27.608C281.935,2.143,265.415-.115,247.265,7.3s-40.049,18.5-56.222,13.672C174.5,16.038,172.876,2.709,152.646.437c-4.5-.505-13.284-1.492-21.308,3.4" transform="translate(287.861 11541.703)" fill="#e8e8e8"/>
    <g id="Grupo_1032974" data-name="Grupo 1032974" transform="translate(365.609 11535)">
      <g id="Grupo_1032973" data-name="Grupo 1032973" clip-path="url(#clip-path)">
        <g id="Grupo_1032972" data-name="Grupo 1032972">
          <g id="Grupo_1032971" data-name="Grupo 1032971" clip-path="url(#clip-path)">
            <g id="Grupo_1032955" data-name="Grupo 1032955" transform="translate(38.008 44.689)" opacity="0.57">
              <g id="Grupo_1032954" data-name="Grupo 1032954">
                <g id="Grupo_1032953" data-name="Grupo 1032953" clip-path="url(#clip-path-3)">
                  <path id="Trazado_779582" data-name="Trazado 779582" d="M89.181,157.7a.428.428,0,0,1-.428-.428,53.294,53.294,0,0,1,22.883-43.738.428.428,0,1,1,.489.7,52.436,52.436,0,0,0-22.516,43.035.428.428,0,0,1-.428.428" transform="translate(-68.936 -84.225)" fill="#4adbd1"/>
                  <path id="Trazado_779583" data-name="Trazado 779583" d="M249.663,171.508a.428.428,0,0,1-.428-.428,52.234,52.234,0,0,0-2.97-17.429.428.428,0,0,1,.808-.285,53.106,53.106,0,0,1,3.019,17.714.428.428,0,0,1-.428.428" transform="translate(-123.815 -98.033)" fill="#4adbd1"/>
                  <path id="Trazado_779584" data-name="Trazado 779584" d="M234.168,136.631a.428.428,0,0,1-.394-.262,52.291,52.291,0,0,0-19.936-23.7.428.428,0,1,1,.464-.72,53.145,53.145,0,0,1,20.26,24.087.429.429,0,0,1-.394.595" transform="translate(-112.455 -83.676)" fill="#4adbd1"/>
                  <path id="Trazado_779585" data-name="Trazado 779585" d="M129.34,107.065a.428.428,0,0,1-.216-.8A53.323,53.323,0,0,1,178.509,104a.428.428,0,0,1-.364.776,52.465,52.465,0,0,0-48.59,2.233.424.424,0,0,1-.215.059" transform="translate(-82.929 -79.19)" fill="#4adbd1"/>
                  <path id="Trazado_779586" data-name="Trazado 779586" d="M74.755,150.442a.428.428,0,0,1-.428-.428,62.684,62.684,0,0,1,37.42-57.349.428.428,0,1,1,.345.784,61.827,61.827,0,0,0-36.909,56.565.428.428,0,0,1-.428.428" transform="translate(-63.909 -76.967)" fill="#4adbd1"/>
                  <path id="Trazado_779587" data-name="Trazado 779587" d="M252.218,154.166a.428.428,0,0,1-.428-.428,62.079,62.079,0,0,0-25.016-49.652.428.428,0,1,1,.51-.687,63.2,63.2,0,0,1,18.451,21.712,61.951,61.951,0,0,1,6.91,28.627.428.428,0,0,1-.428.428" transform="translate(-116.971 -80.691)" fill="#4adbd1"/>
                  <path id="Trazado_779588" data-name="Trazado 779588" d="M219.24,99.034a.427.427,0,0,1-.229-.066c-1.267-.8-2.579-1.573-3.9-2.283a.428.428,0,0,1,.4-.754c1.341.72,2.672,1.5,3.956,2.314a.428.428,0,0,1-.23.79" transform="translate(-112.888 -78.1)" fill="#4adbd1"/>
                  <path id="Trazado_779589" data-name="Trazado 779589" d="M186.209,91.414a.419.419,0,0,1-.183-.042,62,62,0,0,0-46.228-2.7.428.428,0,0,1-.274-.811A62.846,62.846,0,0,1,186.393,90.6a.428.428,0,0,1-.184.815" transform="translate(-86.526 -74.163)" fill="#4adbd1"/>
                  <path id="Trazado_779590" data-name="Trazado 779590" d="M279.627,168.413a.428.428,0,0,1-.428-.428,72.075,72.075,0,0,0-3.815-23.219.428.428,0,1,1,.811-.275,72.946,72.946,0,0,1,3.86,23.494.428.428,0,0,1-.428.428" transform="translate(-133.962 -94.938)" fill="#4adbd1"/>
                  <path id="Trazado_779591" data-name="Trazado 779591" d="M260.248,122.015a.428.428,0,0,1-.4-.266A72.29,72.29,0,0,0,235.284,90.5a.428.428,0,1,1,.5-.694,73.141,73.141,0,0,1,24.857,31.622.427.427,0,0,1-.235.558.415.415,0,0,1-.162.032" transform="translate(-119.935 -75.954)" fill="#4adbd1"/>
                  <path id="Trazado_779592" data-name="Trazado 779592" d="M198.918,80.412a.422.422,0,0,1-.226-.065,72.4,72.4,0,0,0-56.18-8.634.428.428,0,1,1-.214-.829,73.263,73.263,0,0,1,56.846,8.736.428.428,0,0,1-.227.792" transform="translate(-87.482 -68.591)" fill="#4adbd1"/>
                  <path id="Trazado_779593" data-name="Trazado 779593" d="M121.215,79.208a.428.428,0,0,1-.189-.812,72.9,72.9,0,0,1,6.872-2.942.428.428,0,0,1,.3.8,71.915,71.915,0,0,0-6.791,2.907.424.424,0,0,1-.188.044" transform="translate(-80.098 -70.973)" fill="#4adbd1"/>
                  <path id="Trazado_779594" data-name="Trazado 779594" d="M58.765,147.384a.428.428,0,0,1-.428-.428A73.012,73.012,0,0,1,94.465,83.912a.428.428,0,0,1,.433.739,72.526,72.526,0,0,0-35.705,62.306.428.428,0,0,1-.428.428" transform="translate(-58.337 -73.909)" fill="#4adbd1"/>
                </g>
              </g>
            </g>
            <g id="Grupo_1032958" data-name="Grupo 1032958" transform="translate(0 2.853)" opacity="0.22">
              <g id="Grupo_1032957" data-name="Grupo 1032957">
                <g id="Grupo_1032956" data-name="Grupo 1032956" clip-path="url(#clip-path-4)">
                  <path id="Trazado_779595" data-name="Trazado 779595" d="M46.887,139.847a.642.642,0,0,1-.642-.642A80.7,80.7,0,0,1,71.826,80.163a81.644,81.644,0,0,1,9.209-7.453.642.642,0,0,1,.734,1.055A79.728,79.728,0,0,0,47.53,139.2a.642.642,0,0,1-.642.642" transform="translate(-16.115 -28.15)" fill="#4adbd1"/>
                  <path id="Trazado_779596" data-name="Trazado 779596" d="M290.894,160.84a.642.642,0,0,1-.642-.642,79.439,79.439,0,0,0-4.516-26.5.642.642,0,1,1,1.212-.427,80.744,80.744,0,0,1,4.589,26.93.642.642,0,0,1-.642.642" transform="translate(-99.556 -49.143)" fill="#4adbd1"/>
                  <path id="Trazado_779597" data-name="Trazado 779597" d="M267.335,107.814a.643.643,0,0,1-.592-.393,79.517,79.517,0,0,0-30.314-36.039.642.642,0,0,1,.7-1.08,80.8,80.8,0,0,1,30.8,36.62.641.641,0,0,1-.592.891" transform="translate(-82.285 -27.315)" fill="#4adbd1"/>
                  <path id="Trazado_779598" data-name="Trazado 779598" d="M107.947,62.858a.642.642,0,0,1-.325-1.2,81.07,81.07,0,0,1,75.08-3.451.642.642,0,0,1-.544,1.164,79.783,79.783,0,0,0-73.887,3.4.636.636,0,0,1-.324.088" transform="translate(-37.392 -20.494)" fill="#4adbd1"/>
                  <path id="Trazado_779599" data-name="Trazado 779599" d="M24.954,128.812a.642.642,0,0,1-.642-.642A95.3,95.3,0,0,1,81.2,40.983a.642.642,0,0,1,.517,1.175A94.012,94.012,0,0,0,25.6,128.17a.642.642,0,0,1-.642.642" transform="translate(-8.472 -17.115)" fill="#4adbd1"/>
                  <path id="Trazado_779600" data-name="Trazado 779600" d="M294.777,134.473a.642.642,0,0,1-.642-.642,94.393,94.393,0,0,0-38.038-75.5.642.642,0,0,1,.765-1.032A96.079,96.079,0,0,1,284.914,90.31a94.183,94.183,0,0,1,10.506,43.521.642.642,0,0,1-.642.642" transform="translate(-89.15 -22.776)" fill="#4adbd1"/>
                  <path id="Trazado_779601" data-name="Trazado 779601" d="M244.637,50.648a.635.635,0,0,1-.344-.1c-1.929-1.225-3.926-2.393-5.933-3.471a.642.642,0,1,1,.607-1.132c2.035,1.093,4.058,2.276,6.014,3.518a.642.642,0,0,1-.345,1.184" transform="translate(-82.942 -18.837)" fill="#4adbd1"/>
                  <path id="Trazado_779602" data-name="Trazado 779602" d="M194.416,39.062a.636.636,0,0,1-.275-.063,94.276,94.276,0,0,0-70.295-4.108.642.642,0,0,1-.41-1.217,95.556,95.556,0,0,1,71.256,4.165.643.643,0,0,1-.276,1.223" transform="translate(-42.861 -12.851)" fill="#4adbd1"/>
                  <path id="Trazado_779603" data-name="Trazado 779603" d="M336.454,156.135a.643.643,0,0,1-.643-.642,109.629,109.629,0,0,0-5.8-35.306.642.642,0,1,1,1.216-.413,110.887,110.887,0,0,1,5.87,35.719.643.643,0,0,1-.642.642" transform="translate(-114.985 -44.438)" fill="#4adbd1"/>
                  <path id="Trazado_779604" data-name="Trazado 779604" d="M306.987,85.591a.643.643,0,0,1-.595-.4,109.926,109.926,0,0,0-37.356-47.52.642.642,0,0,1,.754-1.041,111.211,111.211,0,0,1,37.792,48.076.642.642,0,0,1-.352.837.65.65,0,0,1-.242.048" transform="translate(-93.657 -15.575)" fill="#4adbd1"/>
                  <path id="Trazado_779605" data-name="Trazado 779605" d="M213.739,22.335a.636.636,0,0,1-.34-.1A110.094,110.094,0,0,0,127.974,9.11a.643.643,0,0,1-.321-1.244,111.386,111.386,0,0,1,86.425,13.283.642.642,0,0,1-.339,1.187" transform="translate(-44.315 -4.379)" fill="#4adbd1"/>
                  <path id="Trazado_779606" data-name="Trazado 779606" d="M95.594,20.5a.642.642,0,0,1-.283-1.219,110.776,110.776,0,0,1,10.448-4.472.642.642,0,0,1,.444,1.205,109.521,109.521,0,0,0-10.327,4.42.632.632,0,0,1-.282.066" transform="translate(-33.087 -8.001)" fill="#4adbd1"/>
                  <path id="Trazado_779607" data-name="Trazado 779607" d="M.642,124.162A.642.642,0,0,1,0,123.52,111.007,111.007,0,0,1,54.927,27.672a.642.642,0,1,1,.65,1.108A110.283,110.283,0,0,0,1.285,123.52a.642.642,0,0,1-.642.642" transform="translate(0 -12.465)" fill="#4adbd1"/>
                </g>
              </g>
            </g>
            <path id="Trazado_779608" data-name="Trazado 779608" d="M187.49,164.766a3.5,3.5,0,0,1-3.271-2.288l-1.047-2.837a17.491,17.491,0,0,1-6.865-.2l-1.259,2.775a3.545,3.545,0,0,1-1.971,1.859,3.474,3.474,0,0,1-2.693-.079,3.535,3.535,0,0,1-1.732-4.682l1.259-2.776a17.45,17.45,0,0,1-4.672-5.033l-2.825,1.08a3.488,3.488,0,0,1-4.526-2.053,3.578,3.578,0,0,1,2.072-4.566l2.832-1.083a17.868,17.868,0,0,1,.257-6.926l-2.738-1.242a3.556,3.556,0,0,1,.238-6.541,3.473,3.473,0,0,1,2.693.079l2.739,1.242a17.866,17.866,0,0,1,5.042-4.756l-1.05-2.843a3.578,3.578,0,0,1,2.071-4.566,3.489,3.489,0,0,1,4.527,2.053l1.048,2.837a17.456,17.456,0,0,1,6.865.2l1.259-2.776a3.535,3.535,0,0,1,4.664-1.779,3.473,3.473,0,0,1,1.833,1.974,3.546,3.546,0,0,1-.1,2.707l-1.259,2.776a17.462,17.462,0,0,1,4.672,5.034l2.824-1.08a3.486,3.486,0,0,1,4.526,2.053,3.577,3.577,0,0,1-2.071,4.565L198,138.978a17.869,17.869,0,0,1-.257,6.926l2.738,1.243a3.548,3.548,0,0,1-2.931,6.461l-2.738-1.242a17.892,17.892,0,0,1-5.042,4.756l1.05,2.843a3.58,3.58,0,0,1-2.072,4.567,3.5,3.5,0,0,1-1.256.234m-3.765-6.1,1.3,3.512a2.633,2.633,0,0,0,3.417,1.551,2.72,2.72,0,0,0,1.573-3.47l-1.294-3.505.3-.182a17.052,17.052,0,0,0,5.287-4.987l.2-.3,3.389,1.538a2.691,2.691,0,0,0,2.224-4.9l-3.389-1.538.089-.348a17.045,17.045,0,0,0,.271-7.263l-.063-.349,3.49-1.334a2.719,2.719,0,0,0,1.574-3.469,2.631,2.631,0,0,0-3.417-1.55l-3.5,1.338L195,133.1a16.621,16.621,0,0,0-4.9-5.281l-.294-.2,1.553-3.424a2.687,2.687,0,0,0,.077-2.056,2.62,2.62,0,0,0-1.383-1.491A2.676,2.676,0,0,0,186.52,122l-1.553,3.424-.347-.087a16.631,16.631,0,0,0-7.2-.21l-.356.068-1.3-3.512a2.633,2.633,0,0,0-3.417-1.551,2.719,2.719,0,0,0-1.574,3.47l1.295,3.5-.3.182a17.045,17.045,0,0,0-5.287,4.988l-.2.3-3.39-1.538a2.619,2.619,0,0,0-2.033-.059,2.7,2.7,0,0,0-.19,4.961l3.389,1.537-.089.348a17.045,17.045,0,0,0-.27,7.263l.063.349-3.49,1.334a2.718,2.718,0,0,0-1.573,3.469,2.63,2.63,0,0,0,3.417,1.551l3.5-1.338.184.312a16.622,16.622,0,0,0,4.9,5.281l.294.2-1.553,3.424a2.677,2.677,0,0,0,1.306,3.548,2.617,2.617,0,0,0,2.034.059,2.691,2.691,0,0,0,1.5-1.413l1.553-3.423.347.087a16.648,16.648,0,0,0,7.2.21Zm-3.459-3.625a12.877,12.877,0,0,1-12.078-8.45,13.241,13.241,0,0,1,7.674-16.917,12.84,12.84,0,0,1,9.958.291,13.162,13.162,0,0,1-5.555,25.077m.241-25.376a12.133,12.133,0,0,0-4.339.809,12.385,12.385,0,0,0-7.177,15.82,11.984,11.984,0,0,0,6.328,6.819,12.282,12.282,0,0,0,10.148-22.369,11.977,11.977,0,0,0-4.96-1.079" transform="translate(-54.941 -41.501)" fill="#fff"/>
            <path id="Trazado_779609" data-name="Trazado 779609" d="M129.982,162.471a2.438,2.438,0,0,1-2.442-2.431l-.008-1.865a11.6,11.6,0,0,1-4.025-1.6l-1.316,1.345a2.482,2.482,0,0,1-1.737.749,2.357,2.357,0,0,1-1.75-.7,2.425,2.425,0,0,1-.732-1.735,2.47,2.47,0,0,1,.711-1.752L120,153.141a11.615,11.615,0,0,1-1.682-3.991l-1.865.03a2.5,2.5,0,0,1-1.751-.7,2.427,2.427,0,0,1-.731-1.735,2.5,2.5,0,0,1,2.448-2.5l1.873-.03a11.9,11.9,0,0,1,1.648-4.051l-1.325-1.3a2.425,2.425,0,0,1-.732-1.735,2.494,2.494,0,0,1,2.449-2.5,2.431,2.431,0,0,1,1.75.7l1.325,1.3a11.874,11.874,0,0,1,4.016-1.731l-.008-1.873a2.5,2.5,0,0,1,2.449-2.5,2.459,2.459,0,0,1,1.749.7,2.424,2.424,0,0,1,.732,1.735l.01,1.865a11.6,11.6,0,0,1,4.025,1.6l1.316-1.345h0a2.474,2.474,0,0,1,1.737-.749,2.382,2.382,0,0,1,1.751.7,2.47,2.47,0,0,1,.02,3.487l-1.318,1.345a11.592,11.592,0,0,1,1.683,3.99l1.865-.029a2.47,2.47,0,0,1,1.749.7,2.424,2.424,0,0,1,.732,1.735,2.5,2.5,0,0,1-2.449,2.5l-1.872.029a11.93,11.93,0,0,1-1.647,4.052l1.325,1.3a2.483,2.483,0,0,1-1.717,4.236,2.409,2.409,0,0,1-1.75-.7l-1.325-1.3a11.887,11.887,0,0,1-4.016,1.732l.008,1.872a2.5,2.5,0,0,1-2.45,2.5h-.04m-6.59-7,.3.2a10.777,10.777,0,0,0,4.339,1.725l.358.058.012,2.584a1.581,1.581,0,0,0,1.585,1.579h.027a1.638,1.638,0,0,0,1.606-1.64L131.6,157.4l.347-.068a11.057,11.057,0,0,0,4.327-1.865l.292-.209,1.835,1.8a1.535,1.535,0,0,0,1.136.452,1.626,1.626,0,0,0,1.132-2.768l-1.834-1.8.2-.3a11.064,11.064,0,0,0,1.775-4.365l.061-.349,2.576-.042a1.638,1.638,0,0,0,1.607-1.64,1.582,1.582,0,0,0-1.585-1.579h-.027l-2.583.041-.066-.356a10.764,10.764,0,0,0-1.814-4.3l-.207-.293,1.813-1.851a1.612,1.612,0,0,0-.006-2.276,1.486,1.486,0,0,0-1.138-.452,1.619,1.619,0,0,0-1.138.493l-1.814,1.851-.3-.2a10.791,10.791,0,0,0-4.34-1.725l-.357-.058-.012-2.584a1.579,1.579,0,0,0-1.585-1.579h-.026a1.639,1.639,0,0,0-1.607,1.64l.011,2.576-.347.068a11.043,11.043,0,0,0-4.327,1.866l-.292.208-1.835-1.8a1.563,1.563,0,0,0-1.136-.452,1.639,1.639,0,0,0-1.607,1.64,1.575,1.575,0,0,0,.475,1.128l1.835,1.8-.2.3a11.055,11.055,0,0,0-1.775,4.365l-.061.349-2.576.042a1.64,1.64,0,0,0-1.607,1.641,1.577,1.577,0,0,0,.475,1.126,1.6,1.6,0,0,0,1.137.452l2.583-.041.066.356a10.772,10.772,0,0,0,1.814,4.3l.206.292-1.813,1.85a1.628,1.628,0,0,0-.468,1.149,1.578,1.578,0,0,0,.476,1.128,1.528,1.528,0,0,0,1.136.452,1.621,1.621,0,0,0,1.139-.491Zm6.452-.242a8.572,8.572,0,0,1-6.042-2.46,8.8,8.8,0,0,1,6.1-15,8.615,8.615,0,0,1,8.773,8.593,8.845,8.845,0,0,1-8.683,8.864h-.145m.2-16.6-.13,0a7.941,7.941,0,0,0-5.511,13.53,7.772,7.772,0,0,0,5.573,2.215,7.911,7.911,0,0,0,5.558-2.4h0a7.913,7.913,0,0,0,2.282-5.606,7.759,7.759,0,0,0-7.773-7.743" transform="translate(-39.715 -45.483)" fill="#fff"/>
            <path id="Trazado_779610" data-name="Trazado 779610" d="M142.817,212.811a3.017,3.017,0,0,1-1.041-.185A2.99,2.99,0,0,1,140,208.752l.876-2.313a14.667,14.667,0,0,1-4.161-3.84l-2.268,1.037a3.027,3.027,0,0,1-4.015-1.473,2.971,2.971,0,0,1-.074-2.308,3.036,3.036,0,0,1,1.586-1.693l2.268-1.037a14.7,14.7,0,0,1-.182-5.66l-2.322-.85a2.99,2.99,0,0,1-1.772-3.875,3.067,3.067,0,0,1,3.907-1.786l2.33.853a15.023,15.023,0,0,1,3.909-4.17l-1.022-2.237a2.974,2.974,0,0,1-.075-2.308,3.046,3.046,0,0,1,5.6-.22l1.023,2.237a15.026,15.026,0,0,1,5.711-.229l.88-2.32a3.066,3.066,0,0,1,3.905-1.786,2.99,2.99,0,0,1,1.772,3.874l-.877,2.313a14.677,14.677,0,0,1,4.161,3.84l2.268-1.037a3.031,3.031,0,0,1,2.319-.093,2.991,2.991,0,0,1,1.771,3.875,3.034,3.034,0,0,1-1.587,1.692l-2.268,1.037a14.7,14.7,0,0,1,.182,5.66l2.322.85a2.99,2.99,0,0,1,1.771,3.875,3.066,3.066,0,0,1-3.905,1.786l-2.33-.853a15.035,15.035,0,0,1-3.91,4.171L158.824,208a2.971,2.971,0,0,1,.074,2.308,3.059,3.059,0,0,1-3.906,1.786,2.972,2.972,0,0,1-1.7-1.566l-1.024-2.237a15.013,15.013,0,0,1-5.711.229l-.879,2.32a3.07,3.07,0,0,1-2.865,1.971m-5.806-11.286.2.293a13.849,13.849,0,0,0,4.41,4.069l.312.182-1.131,2.986a2.132,2.132,0,0,0,1.265,2.766,2.206,2.206,0,0,0,2.811-1.285l1.128-2.978.349.061a14.19,14.19,0,0,0,6.049-.242l.347-.091,1.32,2.886a2.123,2.123,0,0,0,1.212,1.118A2.2,2.2,0,0,0,158.1,210a2.12,2.12,0,0,0-.052-1.648l-1.319-2.886.3-.2a14.212,14.212,0,0,0,4.141-4.415l.182-.3,2.991,1.095a2.2,2.2,0,0,0,2.81-1.285,2.132,2.132,0,0,0-1.265-2.766l-3-1.1.066-.356a13.859,13.859,0,0,0-.192-6l-.088-.347,2.914-1.332a2.185,2.185,0,0,0,1.143-1.218,2.133,2.133,0,0,0-1.265-2.766,2.184,2.184,0,0,0-1.669.067l-2.914,1.333-.2-.294a13.866,13.866,0,0,0-4.411-4.069l-.313-.182,1.132-2.986a2.132,2.132,0,0,0-1.265-2.766,2.2,2.2,0,0,0-2.81,1.285l-1.13,2.978-.349-.061a14.2,14.2,0,0,0-6.048.243l-.348.09-1.319-2.886a2.19,2.19,0,0,0-4.023.167,2.122,2.122,0,0,0,.053,1.648l1.319,2.886-.3.2a14.189,14.189,0,0,0-4.141,4.415l-.182.3-2.991-1.095a2.2,2.2,0,0,0-2.811,1.285,2.133,2.133,0,0,0,1.265,2.766l3,1.1-.066.356a13.849,13.849,0,0,0,.192,6l.088.347-2.914,1.332a2.183,2.183,0,0,0-1.142,1.218,2.12,2.12,0,0,0,.052,1.648,2.172,2.172,0,0,0,2.88,1.051Zm11.858,3.141A10.976,10.976,0,1,1,159.008,189.1a10.812,10.812,0,0,1,.27,8.389,11.161,11.161,0,0,1-10.409,7.178m.152-21.075a10.08,10.08,0,1,0,9.456,13.593,9.959,9.959,0,0,0-.248-7.729,10.1,10.1,0,0,0-9.209-5.864" transform="translate(-45.211 -60.839)" fill="#fff"/>
            <path id="Trazado_779611" data-name="Trazado 779611" d="M93.023,55.707,80.505,52.735a1.106,1.106,0,0,1-.82-1.331l2.361-9.946a1.105,1.105,0,0,1,1.331-.82L95.9,43.609a1.106,1.106,0,0,1,.82,1.331l-2.361,9.946a1.106,1.106,0,0,1-1.331.82" transform="translate(-27.757 -14.15)" fill="#f4a338"/>
            <path id="Trazado_779612" data-name="Trazado 779612" d="M92.934,56.036a1.747,1.747,0,0,1-.4-.048h0L80.013,53.016a1.75,1.75,0,0,1-1.3-2.1l2.361-9.946a1.751,1.751,0,0,1,2.1-1.3L95.7,42.641a1.751,1.751,0,0,1,1.3,2.1l-2.362,9.946a1.751,1.751,0,0,1-1.7,1.344m-.107-1.3a.462.462,0,0,0,.558-.344l2.362-9.946a.464.464,0,0,0-.344-.558L82.885,40.919a.464.464,0,0,0-.558.344l-2.361,9.945a.464.464,0,0,0,.343.558l12.519,2.972Z" transform="translate(-27.413 -13.807)" fill="#373f51"/>
            <path id="Trazado_779613" data-name="Trazado 779613" d="M89.855,53.195a1.03,1.03,0,0,1-.218-.023A1,1,0,0,1,89,52.726l-1.573-2.473a.642.642,0,1,1,1.084-.689l1.426,2.241,5.313-3.425a.642.642,0,0,1,.7,1.08L90.4,53.033a1,1,0,0,1-.547.162" transform="translate(-30.43 -16.823)" fill="#fff"/>
            <path id="Trazado_779614" data-name="Trazado 779614" d="M257.654,58.608l-12.787,1.421a1.106,1.106,0,0,1-1.221-.977l-1.129-10.159a1.107,1.107,0,0,1,.977-1.222l12.786-1.421a1.106,1.106,0,0,1,1.221.977l1.129,10.159a1.105,1.105,0,0,1-.977,1.221" transform="translate(-84.506 -16.114)" fill="#4adbd1"/>
            <path id="Trazado_779615" data-name="Trazado 779615" d="M244.4,60.335a1.749,1.749,0,0,1-1.734-1.555l-1.129-10.159a1.75,1.75,0,0,1,1.545-1.93l12.786-1.421a1.749,1.749,0,0,1,1.931,1.544l1.128,10.159a1.75,1.75,0,0,1-1.544,1.93L244.6,60.324a1.831,1.831,0,0,1-.2.011M256.06,46.543l-.051,0-12.786,1.422a.463.463,0,0,0-.41.511l1.129,10.159a.46.46,0,0,0,.171.311.466.466,0,0,0,.341.1l12.786-1.421h0a.464.464,0,0,0,.409-.512l-1.129-10.159a.465.465,0,0,0-.461-.412" transform="translate(-84.163 -15.771)" fill="#373f51"/>
            <path id="Trazado_779616" data-name="Trazado 779616" d="M252.4,57.28a1,1,0,0,1-.619-.213l-2.314-1.8a.642.642,0,0,1,.788-1.015l2.1,1.629L256.2,50.87a.642.642,0,0,1,1.019.782L253.2,56.884a1,1,0,0,1-.674.388.992.992,0,0,1-.132.008" transform="translate(-86.844 -17.639)" fill="#fff"/>
            <path id="Trazado_779617" data-name="Trazado 779617" d="M31.194,77.619A3.5,3.5,0,1,1,27.7,74.124a3.495,3.495,0,0,1,3.495,3.495" transform="translate(-8.434 -25.83)" fill="#4adbd1"/>
            <path id="Trazado_779618" data-name="Trazado 779618" d="M171.77,3.495A3.5,3.5,0,1,1,168.275,0a3.495,3.495,0,0,1,3.495,3.495" transform="translate(-57.42)" fill="#4adbd1"/>
            <path id="Trazado_779619" data-name="Trazado 779619" d="M62.456,77.572a1.328,1.328,0,1,1-1.328-1.328,1.328,1.328,0,0,1,1.328,1.328" transform="translate(-20.839 -26.568)" fill="#5573c6"/>
            <path id="Trazado_779620" data-name="Trazado 779620" d="M297.058,59.714a1.327,1.327,0,1,1-1.328-1.328,1.328,1.328,0,0,1,1.328,1.328" transform="translate(-102.589 -20.345)" fill="#5573c6"/>
            <path id="Trazado_779621" data-name="Trazado 779621" d="M103.408,19.263a1.327,1.327,0,1,1-1.328-1.328,1.328,1.328,0,0,1,1.328,1.328" transform="translate(-35.109 -6.25)" fill="#5573c6"/>
            <path id="Trazado_779622" data-name="Trazado 779622" d="M36.323,115.569A1.328,1.328,0,1,1,35,114.241a1.328,1.328,0,0,1,1.328,1.328" transform="translate(-11.732 -39.809)" fill="#f4a338"/>
            <path id="Trazado_779623" data-name="Trazado 779623" d="M310.093,133.116a1.328,1.328,0,1,1-1.328-1.328,1.328,1.328,0,0,1,1.328,1.328" transform="translate(-107.131 -45.923)" fill="#f4a338"/>
            <path id="Trazado_779624" data-name="Trazado 779624" d="M340.8,157.822a2.445,2.445,0,1,1-2.445-2.445,2.445,2.445,0,0,1,2.445,2.445" transform="translate(-117.052 -54.143)" fill="#f4a338"/>
            <path id="Trazado_779625" data-name="Trazado 779625" d="M221.567,36.485a2.892,2.892,0,1,1-2.892-2.892,2.892,2.892,0,0,1,2.892,2.892" transform="translate(-75.193 -11.706)" fill="#f4a338"/>
            <path id="Trazado_779626" data-name="Trazado 779626" d="M83.9,202.314l-45.852.1a6.418,6.418,0,0,1-6.412-6.385l-.063-29.857a6.416,6.416,0,0,1,6.384-6.411l45.853-.1a6.416,6.416,0,0,1,6.411,6.384l.063,29.857a6.416,6.416,0,0,1-6.384,6.412" transform="translate(-11.002 -55.636)" fill="#5573c6"/>
            <path id="Trazado_779627" data-name="Trazado 779627" d="M37.69,202.709a7.048,7.048,0,0,1-7.04-7.025l-.063-29.857a7.048,7.048,0,0,1,7.026-7.055l45.852-.1h.014a7.048,7.048,0,0,1,7.04,7.026l.063,29.857a7.057,7.057,0,0,1-7.026,7.055l-45.852.1Zm45.866-.739h0Zm-.076-42.011h-.012l-45.852.1a5.762,5.762,0,0,0-5.743,5.768l.062,29.857a5.763,5.763,0,0,0,5.756,5.743H37.7l45.852-.1A5.775,5.775,0,0,0,89.3,195.56L89.237,165.7a5.763,5.763,0,0,0-5.756-5.743" transform="translate(-10.659 -55.292)" fill="#373f51"/>
            <g id="Grupo_1032961" data-name="Grupo 1032961" transform="translate(20.571 104.024)" opacity="0.24">
              <g id="Grupo_1032960" data-name="Grupo 1032960">
                <g id="Grupo_1032959" data-name="Grupo 1032959" clip-path="url(#clip-path-5)">
                  <path id="Trazado_779628" data-name="Trazado 779628" d="M83.9,202.314l-45.852.1a6.418,6.418,0,0,1-6.412-6.385l-.063-29.857a6.416,6.416,0,0,1,6.384-6.411l45.853-.1a6.416,6.416,0,0,1,6.411,6.384l.063,29.857a6.416,6.416,0,0,1-6.384,6.412" transform="translate(-31.574 -159.661)" fill="#373f51"/>
                </g>
              </g>
            </g>
            <path id="Trazado_779629" data-name="Trazado 779629" d="M97.041,189.425,76.85,170.067a.547.547,0,0,1-.016-.773l26.209-27.336a.547.547,0,0,1,.773-.016L124.006,161.3a.547.547,0,0,1,.016.773L97.814,189.408a.547.547,0,0,1-.773.016" transform="translate(-26.721 -49.408)" fill="#fff"/>
            <path id="Trazado_779630" data-name="Trazado 779630" d="M97.075,189.876a1.178,1.178,0,0,1-.822-.331h0l-20.19-19.357a1.189,1.189,0,0,1-.035-1.682l26.207-27.336a1.191,1.191,0,0,1,1.682-.035l20.19,19.357a1.191,1.191,0,0,1,.035,1.682L97.934,189.509a1.177,1.177,0,0,1-.833.366h-.025m.066-1.258h0ZM77.02,169.326l20.053,19.226,26.076-27.2L103.1,142.127Z" transform="translate(-26.377 -49.065)" fill="#373f51"/>
            <path id="Trazado_779631" data-name="Trazado 779631" d="M135.872,168.333a.428.428,0,0,1-.3-.119l-7.6-7.287a.428.428,0,0,1,.593-.618l7.6,7.288a.428.428,0,0,1-.3.737" transform="translate(-44.549 -55.82)" fill="#f4a338"/>
            <path id="Trazado_779632" data-name="Trazado 779632" d="M125.943,172.135a.428.428,0,0,1-.3-.119l-15.2-14.576a.428.428,0,1,1,.593-.618l15.2,14.576a.428.428,0,0,1-.3.737" transform="translate(-38.44 -54.605)" fill="#373f51"/>
            <path id="Trazado_779633" data-name="Trazado 779633" d="M118.337,180.068a.428.428,0,0,1-.3-.119l-15.2-14.576a.428.428,0,1,1,.593-.618l15.2,14.576a.428.428,0,0,1-.3.737" transform="translate(-35.789 -57.37)" fill="#373f51"/>
            <path id="Trazado_779634" data-name="Trazado 779634" d="M111.178,187.535a.428.428,0,0,1-.3-.119l-15.2-14.576a.428.428,0,1,1,.593-.618l15.2,14.576a.428.428,0,0,1-.3.737" transform="translate(-33.294 -59.972)" fill="#373f51"/>
            <path id="Trazado_779635" data-name="Trazado 779635" d="M103.572,195.47a.428.428,0,0,1-.3-.119l-15.2-14.576a.428.428,0,1,1,.593-.618l15.2,14.576a.428.428,0,0,1-.3.737" transform="translate(-30.644 -62.737)" fill="#373f51"/>
            <path id="Trazado_779636" data-name="Trazado 779636" d="M68.173,157.711,42.279,168.289a.547.547,0,0,1-.713-.3L27.244,132.931a.547.547,0,0,1,.3-.713L53.437,121.64a.547.547,0,0,1,.713.3L68.473,157a.547.547,0,0,1-.3.713" transform="translate(-9.48 -42.373)" fill="#fff"/>
            <path id="Trazado_779637" data-name="Trazado 779637" d="M41.729,168.63a1.194,1.194,0,0,1-1.1-.74L26.306,132.832a1.188,1.188,0,0,1,.651-1.551L52.85,120.7a1.191,1.191,0,0,1,1.551.651l14.322,35.058a1.191,1.191,0,0,1-.651,1.551h0L42.178,168.541a1.19,1.19,0,0,1-.45.089m-14.2-36.2,14.25,34.881L67.5,156.81l-14.25-34.881Zm40.3,24.934h0Zm-.244-.594h0Z" transform="translate(-9.136 -42.03)" fill="#373f51"/>
            <path id="Trazado_779638" data-name="Trazado 779638" d="M61.609,140.649a.428.428,0,0,1-.162-.825L65.9,138a.428.428,0,1,1,.324.793l-4.453,1.819a.413.413,0,0,1-.162.032" transform="translate(-21.319 -48.079)" fill="#373f51"/>
            <path id="Trazado_779639" data-name="Trazado 779639" d="M42.675,156.97a.428.428,0,0,1-.162-.825l19.5-7.965a.428.428,0,1,1,.324.793l-19.5,7.965a.413.413,0,0,1-.162.032" transform="translate(-14.721 -51.624)" fill="#373f51"/>
            <path id="Trazado_779640" data-name="Trazado 779640" d="M63.533,159.093a.428.428,0,0,1-.162-.825l7.749-3.165a.428.428,0,1,1,.324.792l-7.75,3.166a.415.415,0,0,1-.162.032" transform="translate(-21.99 -54.036)" fill="#f4a338"/>
            <path id="Trazado_779641" data-name="Trazado 779641" d="M45.5,167.115a.428.428,0,0,1-.162-.825l4.744-1.938a.428.428,0,0,1,.323.794l-4.744,1.938a.424.424,0,0,1-.162.031" transform="translate(-15.707 -57.26)" fill="#f4a338"/>
            <path id="Trazado_779642" data-name="Trazado 779642" d="M47.852,173.6a.428.428,0,0,1-.162-.825L59.7,167.869a.428.428,0,0,1,.324.793l-12.009,4.906a.416.416,0,0,1-.162.032" transform="translate(-16.525 -58.485)" fill="#373f51"/>
            <path id="Trazado_779643" data-name="Trazado 779643" d="M49.729,140.246l-10.354,4.486a.858.858,0,0,1-1.128-.446l-4.813-11.107a.859.859,0,0,1,.446-1.129l10.354-4.486a.858.858,0,0,1,1.128.446l4.812,11.107a.858.858,0,0,1-.446,1.128" transform="translate(-11.626 -44.427)" fill="#f4a338"/>
            <path id="Trazado_779644" data-name="Trazado 779644" d="M38.806,145a1.287,1.287,0,0,1-1.181-.776L32.812,133.12a1.287,1.287,0,0,1,.669-1.692l10.354-4.486a1.288,1.288,0,0,1,1.692.669l4.812,11.107a1.287,1.287,0,0,1-.669,1.691L39.316,144.9a1.283,1.283,0,0,1-.511.107m5.54-17.31a.437.437,0,0,0-.17.035l-10.354,4.486a.423.423,0,0,0-.229.236.428.428,0,0,0,0,.33l4.813,11.107a.43.43,0,0,0,.566.223l10.354-4.486a.43.43,0,0,0,.223-.566l-4.812-11.107a.431.431,0,0,0-.4-.259M49.5,140.017h0Z" transform="translate(-11.397 -44.198)" fill="#373f51"/>
            <path id="Trazado_779645" data-name="Trazado 779645" d="M40.267,135.3a1.016,1.016,0,0,1-.93-.611l-.564-1.3a.214.214,0,1,1,.393-.171l.565,1.3a.583.583,0,0,0,.768.3l.1-.041a.452.452,0,0,0,.235-.594l-1.428-3.3a.468.468,0,0,0-.614-.242l-.162.07a.5.5,0,0,0-.258.652l.035.08a.214.214,0,1,1-.392.171l-.036-.081a.925.925,0,0,1,.481-1.215l.162-.071a.9.9,0,0,1,1.177.465l1.428,3.3a.882.882,0,0,1-.457,1.157l-.1.041a1.009,1.009,0,0,1-.4.084" transform="translate(-13.206 -45.364)" fill="#373f51"/>
            <path id="Trazado_779646" data-name="Trazado 779646" d="M50.021,130.423a.909.909,0,1,1-1.286-.012.909.909,0,0,1,1.286.012" transform="translate(-16.888 -45.353)" fill="#fff"/>
            <path id="Trazado_779647" data-name="Trazado 779647" d="M105.555,114.674,79.807,125.6a.546.546,0,0,1-.717-.289l-14.8-34.859a.547.547,0,0,1,.29-.717l25.747-10.93a.547.547,0,0,1,.717.289l14.8,34.859a.547.547,0,0,1-.29.717" transform="translate(-22.388 -27.447)" fill="#fff"/>
            <path id="Trazado_779648" data-name="Trazado 779648" d="M79.251,125.947a1.188,1.188,0,0,1-1.095-.725l-14.8-34.859a1.19,1.19,0,0,1,.629-1.558L89.734,77.873a1.19,1.19,0,0,1,1.56.63l14.8,34.859a1.188,1.188,0,0,1-.63,1.559l-25.747,10.93a1.19,1.19,0,0,1-.465.1m-14.674-36L79.3,124.632l25.571-10.856L90.149,79.093Z" transform="translate(-22.045 -27.103)" fill="#373f51"/>
            <path id="Trazado_779649" data-name="Trazado 779649" d="M98.689,97.861a.428.428,0,0,1-.167-.822l4.427-1.88a.428.428,0,1,1,.335.788l-4.427,1.88a.424.424,0,0,1-.167.035" transform="translate(-34.24 -33.148)" fill="#373f51"/>
            <path id="Trazado_779650" data-name="Trazado 779650" d="M80.023,114.328a.428.428,0,0,1-.167-.822l19.387-8.231a.428.428,0,1,1,.335.788l-19.387,8.23a.424.424,0,0,1-.167.035" transform="translate(-27.736 -36.673)" fill="#373f51"/>
            <path id="Trazado_779651" data-name="Trazado 779651" d="M100.874,116.252a.428.428,0,0,1-.167-.822l7.706-3.273a.428.428,0,1,1,.334.788l-7.706,3.272a.434.434,0,0,1-.167.034" transform="translate(-35.002 -39.071)" fill="#f4a338"/>
            <path id="Trazado_779652" data-name="Trazado 779652" d="M82.945,124.542a.428.428,0,0,1-.167-.822l4.717-2a.429.429,0,0,1,.335.789l-4.717,2a.434.434,0,0,1-.167.034" transform="translate(-28.754 -42.402)" fill="#f4a338"/>
            <path id="Trazado_779653" data-name="Trazado 779653" d="M85.4,130.941a.428.428,0,0,1-.167-.822l11.941-5.07a.428.428,0,1,1,.335.788l-11.941,5.07a.446.446,0,0,1-.167.033" transform="translate(-29.611 -43.563)" fill="#373f51"/>
            <path id="Trazado_779654" data-name="Trazado 779654" d="M92.407,168.09l-27.654-4.2a.547.547,0,0,1-.459-.623l5.681-37.441a.547.547,0,0,1,.623-.459l27.655,4.2a.548.548,0,0,1,.459.623L93.03,167.632a.547.547,0,0,1-.623.459" transform="translate(-22.402 -43.685)" fill="#4adbd1"/>
            <path id="Trazado_779655" data-name="Trazado 779655" d="M92.148,168.394a1.12,1.12,0,0,1-.18-.014l-27.654-4.2a1.188,1.188,0,0,1-1-1.355L69,125.389a1.189,1.189,0,0,1,1.354-1L98,128.588a1.189,1.189,0,0,1,1,1.353l-5.681,37.442a1.19,1.19,0,0,1-1.173,1.011M64.6,162.929,92.066,167.1l5.652-37.254-27.467-4.167Z" transform="translate(-22.058 -43.341)" fill="#373f51"/>
            <path id="Trazado_779656" data-name="Trazado 779656" d="M84.531,134.73a.447.447,0,0,1-.065-.005l-5.308-.805a.428.428,0,0,1,.128-.846l5.309.805a.428.428,0,0,1-.064.852" transform="translate(-27.457 -46.369)" fill="#fff"/>
            <path id="Trazado_779657" data-name="Trazado 779657" d="M105.261,146.7a.447.447,0,0,1-.065-.005l-6.1-.925a.428.428,0,1,1,.129-.846l6.1.925a.428.428,0,0,1-.064.852" transform="translate(-34.406 -50.5)" fill="#373f51"/>
            <path id="Trazado_779658" data-name="Trazado 779658" d="M86.973,143.929a.431.431,0,0,1-.065-.005L76.5,142.345a.428.428,0,0,1,.129-.846l10.412,1.579a.428.428,0,0,1-.064.852" transform="translate(-26.53 -49.305)" fill="#fff"/>
            <path id="Trazado_779659" data-name="Trazado 779659" d="M86.775,155.015a.445.445,0,0,1-.065-.005l-11.863-1.8a.428.428,0,0,1,.129-.846l11.863,1.8a.428.428,0,0,1-.064.852" transform="translate(-25.955 -53.092)" fill="#373f51"/>
            <path id="Trazado_779660" data-name="Trazado 779660" d="M94.185,166.6a.45.45,0,0,1-.065-.005L73.3,163.439a.428.428,0,1,1,.129-.846l20.823,3.159a.428.428,0,0,1-.064.852" transform="translate(-25.414 -56.656)" fill="#fff"/>
            <path id="Trazado_779661" data-name="Trazado 779661" d="M83.422,176.086a.452.452,0,0,1-.065-.005L71.648,174.3a.428.428,0,0,1,.129-.846l11.709,1.776a.428.428,0,0,1-.064.852" transform="translate(-24.84 -60.442)" fill="#fff"/>
            <path id="Trazado_779662" data-name="Trazado 779662" d="M85.592,210.491l-49.24.1a4.719,4.719,0,0,1-4.715-4.695l-.07-33.245a4.718,4.718,0,0,1,4.695-4.714l49.24-.1a4.718,4.718,0,0,1,4.714,4.694l.07,33.245a4.718,4.718,0,0,1-4.694,4.714" transform="translate(-11 -58.486)" fill="#fff"/>
            <path id="Trazado_779663" data-name="Trazado 779663" d="M36.114,210.8a5.148,5.148,0,0,1-5.133-5.122l-.07-33.245a5.146,5.146,0,0,1,5.122-5.143l49.24-.1h.011a5.138,5.138,0,0,1,5.133,5.122l.07,33.245a5.139,5.139,0,0,1-5.122,5.143v0l-49.24.1Zm49.17-42.757h-.009l-49.24.1a4.29,4.29,0,0,0-4.267,4.285l.07,33.245a4.289,4.289,0,0,0,4.276,4.267h.009l49.24-.1a4.281,4.281,0,0,0,4.268-4.285l-.07-33.245a4.281,4.281,0,0,0-4.276-4.267" transform="translate(-10.771 -58.257)" fill="#373f51"/>
            <path id="Trazado_779664" data-name="Trazado 779664" d="M85.994,155.562l-12.42.026a4.2,4.2,0,0,0-4.178,4.2l.012,5.943-31.457.066a6.416,6.416,0,0,0-6.384,6.412l.063,29.857a6.416,6.416,0,0,0,6.411,6.384l45.853-.1a6.417,6.417,0,0,0,6.384-6.411l-.061-29.246v-.611L90.19,159.74a4.2,4.2,0,0,0-4.2-4.178" transform="translate(-11 -54.208)" fill="#5573c6"/>
            <path id="Trazado_779665" data-name="Trazado 779665" d="M37.685,208.745a7.049,7.049,0,0,1-7.041-7.026l-.063-29.858a7.048,7.048,0,0,1,7.026-7.055l30.815-.065-.011-5.3a4.842,4.842,0,0,1,4.819-4.839l12.42-.026h.01a4.835,4.835,0,0,1,4.829,4.819l.089,42.2a7.048,7.048,0,0,1-7.025,7.055l-45.853.1Zm47.967-52.885-12.42.026a3.557,3.557,0,0,0-3.537,3.552l.012,5.944a.642.642,0,0,1-.64.643l-31.457.066a5.761,5.761,0,0,0-5.743,5.767l.063,29.858a5.763,5.763,0,0,0,5.756,5.744H37.7l45.853-.1a5.762,5.762,0,0,0,5.744-5.767L89.2,159.4a3.548,3.548,0,0,0-3.544-3.537Zm0-.642h0Z" transform="translate(-10.656 -53.864)" fill="#373f51"/>
            <g id="Grupo_1032964" data-name="Grupo 1032964" transform="translate(25.864 106.116)" opacity="0.12">
              <g id="Grupo_1032963" data-name="Grupo 1032963">
                <g id="Grupo_1032962" data-name="Grupo 1032962" clip-path="url(#clip-path-6)">
                  <path id="Trazado_779666" data-name="Trazado 779666" d="M88.4,162.871l-11.113.023a3.758,3.758,0,0,0-3.739,3.755l.011,5.318-28.146.059a5.742,5.742,0,0,0-5.713,5.738l.056,26.72A5.742,5.742,0,0,0,45.49,210.2l41.027-.086a5.742,5.742,0,0,0,5.713-5.738L92.174,178.2v-.547L92.15,166.61a3.758,3.758,0,0,0-3.754-3.739" transform="translate(-39.697 -162.871)" fill="#fff"/>
                </g>
              </g>
            </g>
            <path id="Trazado_779667" data-name="Trazado 779667" d="M113.2,226.015a2.091,2.091,0,1,1-2.091-2.091,2.091,2.091,0,0,1,2.091,2.091" transform="translate(-37.988 -78.03)" fill="#fff"/>
            <path id="Trazado_779668" data-name="Trazado 779668" d="M113.989,168.232a.428.428,0,0,1-.428-.428v-5.691a1.818,1.818,0,0,0-1.889-1.732h-4.147a.428.428,0,0,1,0-.856h4.147a2.673,2.673,0,0,1,2.745,2.589V167.8a.428.428,0,0,1-.428.428" transform="translate(-37.32 -55.588)" fill="#fff"/>
            <path id="Trazado_779669" data-name="Trazado 779669" d="M70.1,195.178a1.07,1.07,0,0,1-.751-1.834l5.031-4.946,4.952,4.952a1.07,1.07,0,1,1-1.514,1.514l-3.451-3.452-3.518,3.458a1.068,1.068,0,0,1-.751.307" transform="translate(-24.053 -65.65)" fill="#fff"/>
            <path id="Trazado_779670" data-name="Trazado 779670" d="M76.6,202.043a1.07,1.07,0,0,1-1.07-1.07V190.139a1.07,1.07,0,1,1,2.141,0v10.833a1.07,1.07,0,0,1-1.07,1.07" transform="translate(-26.32 -65.884)" fill="#fff"/>
            <path id="Trazado_779671" data-name="Trazado 779671" d="M79.541,211.988H63.654a2.3,2.3,0,0,1-2.3-2.3v-5.771a1.07,1.07,0,1,1,2.14,0v5.771a.161.161,0,0,0,.161.161H79.541a.285.285,0,0,0,.285-.285v-5.647a1.071,1.071,0,0,1,2.142,0v5.647a2.429,2.429,0,0,1-2.426,2.426" transform="translate(-21.379 -70.684)" fill="#fff"/>
            <path id="Trazado_779672" data-name="Trazado 779672" d="M265.917,202.314l-45.852.1a6.418,6.418,0,0,1-6.412-6.385l-.063-29.857a6.416,6.416,0,0,1,6.384-6.411l45.853-.1a6.416,6.416,0,0,1,6.411,6.384L272.3,195.9a6.416,6.416,0,0,1-6.384,6.412" transform="translate(-74.429 -55.636)" fill="#5573c6"/>
            <path id="Trazado_779673" data-name="Trazado 779673" d="M219.707,202.709a7.058,7.058,0,0,1-7.04-7.025l-.063-29.857a7.049,7.049,0,0,1,7.026-7.055l45.852-.1h.014a7.049,7.049,0,0,1,7.04,7.026l.063,29.857a7.048,7.048,0,0,1-7.026,7.055l-45.852.1Zm45.866-.739h0Zm-.076-42.011h-.012l-45.853.1a5.763,5.763,0,0,0-5.743,5.768l.063,29.857a5.774,5.774,0,0,0,5.756,5.743h.012l45.853-.1a5.775,5.775,0,0,0,5.743-5.768l-.063-29.858a5.763,5.763,0,0,0-5.756-5.743" transform="translate(-74.085 -55.292)" fill="#373f51"/>
            <path id="Trazado_779674" data-name="Trazado 779674" d="M265.917,202.314l-45.852.1a6.418,6.418,0,0,1-6.412-6.385l-.063-29.857a6.416,6.416,0,0,1,6.384-6.411l45.853-.1a6.416,6.416,0,0,1,6.411,6.384L272.3,195.9a6.416,6.416,0,0,1-6.384,6.412" transform="translate(-74.429 -55.636)" fill="#f4a338"/>
            <path id="Trazado_779675" data-name="Trazado 779675" d="M219.707,202.709a7.058,7.058,0,0,1-7.04-7.025l-.063-29.857a7.049,7.049,0,0,1,7.026-7.055l45.852-.1h.014a7.049,7.049,0,0,1,7.04,7.026l.063,29.857a7.048,7.048,0,0,1-7.026,7.055l-45.852.1Zm45.866-.739h0Zm-.076-42.011h-.012l-45.853.1a5.763,5.763,0,0,0-5.743,5.768l.063,29.857a5.774,5.774,0,0,0,5.756,5.743h.012l45.853-.1a5.775,5.775,0,0,0,5.743-5.768l-.063-29.858a5.763,5.763,0,0,0-5.756-5.743" transform="translate(-74.085 -55.292)" fill="#373f51"/>
            <g id="Grupo_1032967" data-name="Grupo 1032967" transform="translate(139.161 104.024)" opacity="0.24">
              <g id="Grupo_1032966" data-name="Grupo 1032966">
                <g id="Grupo_1032965" data-name="Grupo 1032965" clip-path="url(#clip-path-7)">
                  <path id="Trazado_779676" data-name="Trazado 779676" d="M265.917,202.314l-45.852.1a6.418,6.418,0,0,1-6.412-6.385l-.063-29.857a6.416,6.416,0,0,1,6.384-6.411l45.853-.1a6.416,6.416,0,0,1,6.411,6.384L272.3,195.9a6.416,6.416,0,0,1-6.384,6.412" transform="translate(-213.59 -159.661)" fill="#373f51"/>
                </g>
              </g>
            </g>
            <path id="Trazado_779677" data-name="Trazado 779677" d="M267.609,206.4l-49.24.1a4.719,4.719,0,0,1-4.715-4.695l-.07-33.245a4.718,4.718,0,0,1,4.695-4.714l49.24-.1a4.718,4.718,0,0,1,4.714,4.694l.07,33.245a4.718,4.718,0,0,1-4.694,4.715" transform="translate(-74.427 -57.06)" fill="#fff"/>
            <path id="Trazado_779678" data-name="Trazado 779678" d="M218.13,206.7A5.138,5.138,0,0,1,213,201.581l-.07-33.245a5.139,5.139,0,0,1,5.122-5.144l49.24-.1h.01a5.138,5.138,0,0,1,5.133,5.122l.07,33.245a5.138,5.138,0,0,1-5.122,5.143l-49.24.1Zm49.249-.96v0a4.281,4.281,0,0,0,4.267-4.286l-.07-33.245a4.282,4.282,0,0,0-4.276-4.267h-.009l-49.24.1a4.28,4.28,0,0,0-4.267,4.285l.07,33.245a4.282,4.282,0,0,0,4.276,4.268h.009Z" transform="translate(-74.198 -56.831)" fill="#373f51"/>
            <path id="Trazado_779679" data-name="Trazado 779679" d="M267.609,210.491l-49.24.1a4.719,4.719,0,0,1-4.715-4.695l-.07-33.245a4.718,4.718,0,0,1,4.695-4.714l49.24-.1a4.718,4.718,0,0,1,4.714,4.694l.07,33.245a4.718,4.718,0,0,1-4.694,4.714" transform="translate(-74.427 -58.486)" fill="#fff"/>
            <path id="Trazado_779680" data-name="Trazado 779680" d="M218.13,210.8A5.139,5.139,0,0,1,213,205.673l-.07-33.245a5.146,5.146,0,0,1,5.122-5.143l49.24-.1h.011a5.138,5.138,0,0,1,5.132,5.122l.07,33.245a5.138,5.138,0,0,1-5.122,5.143v0l-49.24.1Zm49.17-42.757h-.009l-49.24.1a4.29,4.29,0,0,0-4.267,4.285l.07,33.245a4.281,4.281,0,0,0,4.276,4.267h.009l49.24-.1a4.28,4.28,0,0,0,4.267-4.285l-.07-33.245a4.281,4.281,0,0,0-4.276-4.267" transform="translate(-74.198 -58.257)" fill="#373f51"/>
            <path id="Trazado_779681" data-name="Trazado 779681" d="M268.011,155.562l-12.42.026a4.2,4.2,0,0,0-4.178,4.2l.012,5.943-31.457.066a6.416,6.416,0,0,0-6.384,6.412l.063,29.857a6.416,6.416,0,0,0,6.411,6.384l45.853-.1a6.417,6.417,0,0,0,6.384-6.411l-.061-29.246v-.611l-.026-12.341a4.2,4.2,0,0,0-4.2-4.178" transform="translate(-74.426 -54.208)" fill="#f4a338"/>
            <path id="Trazado_779682" data-name="Trazado 779682" d="M219.7,208.745a7.048,7.048,0,0,1-7.041-7.026l-.063-29.858a7.048,7.048,0,0,1,7.025-7.055l30.814-.065-.01-5.3a4.842,4.842,0,0,1,4.819-4.839l12.42-.026h.01A4.842,4.842,0,0,1,272.5,159.4l.089,42.2a7.057,7.057,0,0,1-7.026,7.055l-45.852.1Zm47.967-52.885-12.42.026a3.556,3.556,0,0,0-3.537,3.552l.012,5.944a.642.642,0,0,1-.641.643l-31.457.066a5.761,5.761,0,0,0-5.743,5.767l.063,29.858a5.762,5.762,0,0,0,5.756,5.744h.011l45.852-.1a5.775,5.775,0,0,0,5.744-5.767l-.089-42.2a3.557,3.557,0,0,0-3.544-3.537Zm0-.642h0Z" transform="translate(-74.083 -53.864)" fill="#373f51"/>
            <g id="Grupo_1032970" data-name="Grupo 1032970" transform="translate(144.334 106.116)" opacity="0.12">
              <g id="Grupo_1032969" data-name="Grupo 1032969">
                <g id="Grupo_1032968" data-name="Grupo 1032968" clip-path="url(#clip-path-8)">
                  <path id="Trazado_779683" data-name="Trazado 779683" d="M270.227,162.871l-11.113.023a3.758,3.758,0,0,0-3.738,3.755l.011,5.318-28.146.059a5.742,5.742,0,0,0-5.713,5.738l.056,26.72a5.742,5.742,0,0,0,5.737,5.714l41.027-.086a5.742,5.742,0,0,0,5.713-5.738l-.055-26.173v-.547l-.023-11.045a3.757,3.757,0,0,0-3.754-3.739" transform="translate(-221.529 -162.871)" fill="#fff"/>
                </g>
              </g>
            </g>
            <path id="Trazado_779684" data-name="Trazado 779684" d="M295.028,226.015a2.091,2.091,0,1,1-2.091-2.091,2.091,2.091,0,0,1,2.091,2.091" transform="translate(-101.35 -78.03)" fill="#fff"/>
            <path id="Trazado_779685" data-name="Trazado 779685" d="M295.821,168.232a.428.428,0,0,1-.428-.428v-5.691a1.817,1.817,0,0,0-1.888-1.732h-4.148a.428.428,0,1,1,0-.856H293.5a2.673,2.673,0,0,1,2.744,2.589V167.8a.428.428,0,0,1-.428.428" transform="translate(-100.681 -55.588)" fill="#fff"/>
            <path id="Trazado_779686" data-name="Trazado 779686" d="M258.357,206.027l-4.952-4.952a1.07,1.07,0,1,1,1.514-1.513l3.451,3.451,3.518-3.458a1.071,1.071,0,1,1,1.5,1.527Z" transform="translate(-88.193 -69.431)" fill="#fff"/>
            <path id="Trazado_779687" data-name="Trazado 779687" d="M260.665,202.043a1.07,1.07,0,0,1-1.07-1.07V190.139a1.07,1.07,0,1,1,2.141,0v10.833a1.07,1.07,0,0,1-1.07,1.07" transform="translate(-90.46 -65.884)" fill="#fff"/>
            <path id="Trazado_779688" data-name="Trazado 779688" d="M263.607,211.988H247.72a2.3,2.3,0,0,1-2.3-2.3v-5.771a1.07,1.07,0,1,1,2.14,0v5.771a.161.161,0,0,0,.161.161h15.887a.285.285,0,0,0,.285-.285v-5.647a1.071,1.071,0,0,1,2.142,0v5.647a2.429,2.429,0,0,1-2.426,2.426" transform="translate(-85.52 -70.684)" fill="#fff"/>
            <path id="Trazado_779689" data-name="Trazado 779689" d="M241.84,125.267l-21.153-15.247a.546.546,0,0,1-.124-.763L241.22,80.6a.546.546,0,0,1,.763-.124L263.136,95.72a.546.546,0,0,1,.124.764L242.6,125.144a.547.547,0,0,1-.764.124" transform="translate(-76.822 -28.006)" fill="#fff"/>
            <path id="Trazado_779690" data-name="Trazado 779690" d="M241.814,125.669a1.18,1.18,0,0,1-.693-.225L219.968,110.2a1.191,1.191,0,0,1-.27-1.66l20.657-28.66a1.189,1.189,0,0,1,1.66-.27l21.153,15.247a1.191,1.191,0,0,1,.27,1.659l-20.658,28.66a1.18,1.18,0,0,1-.774.478,1.208,1.208,0,0,1-.193.016m.058-1.267ZM220.8,109.212l21,15.135L262.34,95.842l-21-15.135Z" transform="translate(-76.479 -27.663)" fill="#373f51"/>
            <path id="Trazado_779691" data-name="Trazado 779691" d="M241.84,125.267l-21.153-15.247a.546.546,0,0,1-.124-.763L241.22,80.6a.546.546,0,0,1,.763-.124L263.136,95.72a.546.546,0,0,1,.124.764L242.6,125.144a.547.547,0,0,1-.764.124" transform="translate(-76.822 -28.006)" fill="#4adbd1"/>
            <path id="Trazado_779692" data-name="Trazado 779692" d="M241.814,125.669a1.18,1.18,0,0,1-.693-.225L219.968,110.2a1.191,1.191,0,0,1-.27-1.66l20.657-28.66a1.189,1.189,0,0,1,1.66-.27l21.153,15.247a1.191,1.191,0,0,1,.27,1.659l-20.658,28.66a1.18,1.18,0,0,1-.774.478,1.208,1.208,0,0,1-.193.016m.058-1.267ZM220.8,109.212l21,15.135L262.34,95.842l-21-15.135Z" transform="translate(-76.479 -27.663)" fill="#373f51"/>
            <path id="Trazado_779693" data-name="Trazado 779693" d="M270.97,112.114a.426.426,0,0,1-.25-.081l-3.647-2.629a.428.428,0,1,1,.5-.695l3.647,2.629a.428.428,0,0,1-.251.775" transform="translate(-93.003 -37.853)" fill="#373f51"/>
            <path id="Trazado_779694" data-name="Trazado 779694" d="M258.372,115.7a.426.426,0,0,1-.25-.081L242.15,104.105a.428.428,0,1,1,.5-.695l15.972,11.512a.428.428,0,0,1-.251.775" transform="translate(-84.319 -36.007)" fill="#373f51"/>
            <path id="Trazado_779695" data-name="Trazado 779695" d="M259.432,125.078a.425.425,0,0,1-.25-.08l-6.348-4.576a.428.428,0,1,1,.5-.7l6.348,4.576a.428.428,0,0,1-.251.775" transform="translate(-88.042 -41.693)" fill="#f4a338"/>
            <path id="Trazado_779696" data-name="Trazado 779696" d="M242.2,112.658a.426.426,0,0,1-.251-.081l-3.886-2.8a.428.428,0,1,1,.5-.695l3.886,2.8a.428.428,0,0,1-.25.775" transform="translate(-82.895 -37.983)" fill="#f4a338"/>
            <path id="Trazado_779697" data-name="Trazado 779697" d="M242.915,122.807a.426.426,0,0,1-.25-.081l-9.838-7.091a.428.428,0,1,1,.5-.695l9.838,7.091a.428.428,0,0,1-.251.775" transform="translate(-81.07 -40.024)" fill="#373f51"/>
            <path id="Trazado_779698" data-name="Trazado 779698" d="M242.335,119.142,216.229,109.1a.547.547,0,0,1-.314-.707l13.6-35.345a.548.548,0,0,1,.707-.315l26.106,10.043a.546.546,0,0,1,.314.707l-13.6,35.345a.547.547,0,0,1-.707.314" transform="translate(-75.226 -25.332)" fill="#fff"/>
            <path id="Trazado_779699" data-name="Trazado 779699" d="M242.185,119.478a1.186,1.186,0,0,1-.425-.079l-26.106-10.043a1.191,1.191,0,0,1-.683-1.538l13.6-35.344a1.192,1.192,0,0,1,1.537-.683L256.21,81.834a1.191,1.191,0,0,1,.683,1.536l-13.6,35.346a1.194,1.194,0,0,1-1.112.762M216.2,108.191l25.928,9.974L255.66,83l-25.928-9.974Z" transform="translate(-74.882 -24.989)" fill="#373f51"/>
            <path id="Trazado_779700" data-name="Trazado 779700" d="M242.335,119.142,216.229,109.1a.547.547,0,0,1-.314-.707l13.6-35.345a.548.548,0,0,1,.707-.315l26.106,10.043a.546.546,0,0,1,.314.707l-13.6,35.345a.547.547,0,0,1-.707.314" transform="translate(-75.226 -25.332)" fill="#fff"/>
            <path id="Trazado_779701" data-name="Trazado 779701" d="M242.185,119.478a1.186,1.186,0,0,1-.425-.079l-26.106-10.043a1.191,1.191,0,0,1-.683-1.538l13.6-35.344a1.192,1.192,0,0,1,1.537-.683L256.21,81.834a1.191,1.191,0,0,1,.683,1.536l-13.6,35.346a1.194,1.194,0,0,1-1.112.762M216.2,108.191l25.928,9.974L255.66,83l-25.928-9.974Z" transform="translate(-74.882 -24.989)" fill="#373f51"/>
            <path id="Trazado_779702" data-name="Trazado 779702" d="M242.34,91.494a.429.429,0,0,1-.154-.029l-4.49-1.727a.428.428,0,0,1,.308-.8l4.49,1.727a.428.428,0,0,1-.153.828" transform="translate(-82.733 -30.982)" fill="#373f51"/>
            <path id="Trazado_779703" data-name="Trazado 779703" d="M252.515,107.761a.425.425,0,0,1-.154-.029L232.7,100.171a.428.428,0,1,1,.308-.8l19.657,7.562a.428.428,0,0,1-.154.828" transform="translate(-80.993 -34.617)" fill="#373f51"/>
            <path id="Trazado_779704" data-name="Trazado 779704" d="M256.165,117.177a.425.425,0,0,1-.154-.029l-7.813-3.006a.428.428,0,1,1,.307-.8l7.813,3.006a.428.428,0,0,1-.154.828" transform="translate(-86.392 -39.486)" fill="#f4a338"/>
            <path id="Trazado_779705" data-name="Trazado 779705" d="M234.956,109.019a.425.425,0,0,1-.154-.029l-4.783-1.84a.428.428,0,0,1,.308-.8l4.782,1.84a.428.428,0,0,1-.154.828" transform="translate(-80.058 -37.05)" fill="#f4a338"/>
            <path id="Trazado_779706" data-name="Trazado 779706" d="M238.459,119.325a.425.425,0,0,1-.154-.029L226.2,114.638a.428.428,0,0,1,.308-.8l12.108,4.657a.428.428,0,0,1-.154.828" transform="translate(-78.726 -39.659)" fill="#373f51"/>
            <path id="Trazado_779707" data-name="Trazado 779707" d="M165.69,91.258,134.771,80.7a.676.676,0,0,1-.422-.859l14.419-42.232a.678.678,0,0,1,.859-.422l30.919,10.557a.677.677,0,0,1,.422.859L166.549,90.837a.677.677,0,0,1-.859.422" transform="translate(-46.803 -12.946)" fill="#f4a338"/>
            <path id="Trazado_779708" data-name="Trazado 779708" d="M165.563,91.593a1.306,1.306,0,0,1-.425-.071L134.22,80.965a1.318,1.318,0,0,1-.822-1.674l14.419-42.231a1.319,1.319,0,0,1,1.675-.822L180.41,46.794a1.318,1.318,0,0,1,.822,1.674L166.812,90.7a1.321,1.321,0,0,1-1.249.893M149.068,37.451a.04.04,0,0,0-.036.023L134.613,79.706a.037.037,0,0,0,.021.043l30.918,10.557h0a.038.038,0,0,0,.043-.021l14.42-42.232a.039.039,0,0,0-.022-.044L149.077,37.453h-.008" transform="translate(-46.459 -12.602)" fill="#373f51"/>
            <path id="Trazado_779709" data-name="Trazado 779709" d="M174.569,89.967,142,87.358a.676.676,0,0,1-.62-.728l3.563-44.483a.678.678,0,0,1,.729-.621l32.566,2.609a.677.677,0,0,1,.621.728L175.3,89.347a.677.677,0,0,1-.728.62" transform="translate(-49.266 -14.47)" fill="#fff"/>
            <path id="Trazado_779710" data-name="Trazado 779710" d="M174.282,90.268q-.054,0-.108,0l-32.566-2.609a1.318,1.318,0,0,1-1.209-1.42l3.563-44.483a1.321,1.321,0,0,1,1.42-1.209l32.566,2.608a1.32,1.32,0,0,1,1.209,1.42l-3.563,44.484a1.318,1.318,0,0,1-1.313,1.214M145.276,41.823a.034.034,0,0,0-.035.032l-3.563,44.483a.038.038,0,0,0,.032.037l32.566,2.608c.02,0,.036-.015.037-.031l3.563-44.483a.035.035,0,0,0-.031-.038l-32.567-2.608Z" transform="translate(-48.922 -14.126)" fill="#373f51"/>
            <line id="Línea_3721" data-name="Línea 3721" x2="8.25" y2="0.661" transform="translate(115.954 36.072)" fill="#fff"/>
            <path id="Trazado_779711" data-name="Trazado 779711" d="M185.992,56.225h-.035l-8.25-.661a.427.427,0,0,1-.392-.461.423.423,0,0,1,.461-.392l8.25.661a.428.428,0,0,1-.034.855" transform="translate(-61.788 -19.064)" fill="#f4a338"/>
            <line id="Línea_3722" data-name="Línea 3722" x2="8.25" y2="0.661" transform="translate(115.743 38.707)" fill="#fff"/>
            <path id="Trazado_779712" data-name="Trazado 779712" d="M185.667,60.27h-.035l-8.25-.661a.428.428,0,1,1,.068-.853l8.25.661a.428.428,0,0,1-.034.855" transform="translate(-61.674 -20.473)" fill="#f4a338"/>
            <line id="Línea_3723" data-name="Línea 3723" x2="8.25" y2="0.661" transform="translate(96.428 67.045)" fill="#fff"/>
            <path id="Trazado_779713" data-name="Trazado 779713" d="M156.022,103.763h-.035l-8.25-.661a.428.428,0,1,1,.069-.853l8.25.661a.428.428,0,0,1-.034.855" transform="translate(-51.344 -35.629)" fill="#f4a338"/>
            <line id="Línea_3724" data-name="Línea 3724" x2="7.335" y2="0.588" transform="translate(97.704 52.783)" fill="#fff"/>
            <path id="Trazado_779714" data-name="Trazado 779714" d="M157.067,81.8h-.035l-7.335-.588a.428.428,0,1,1,.068-.854l7.335.588a.428.428,0,0,1-.034.855" transform="translate(-52.027 -28.001)" fill="#373f51"/>
            <line id="Línea_3725" data-name="Línea 3725" x2="12.614" y2="1.011" transform="translate(96.921 62.56)" fill="#fff"/>
            <path id="Trazado_779715" data-name="Trazado 779715" d="M161.144,97.229h-.035L148.5,96.217a.428.428,0,1,1,.068-.853l12.614,1.01a.428.428,0,0,1-.034.855" transform="translate(-51.608 -33.23)" fill="#373f51"/>
            <line id="Línea_3726" data-name="Línea 3726" x2="9.55" y2="0.765" transform="translate(97.313 57.671)" fill="#fff"/>
            <path id="Trazado_779716" data-name="Trazado 779716" d="M158.68,89.48h-.035l-9.55-.765a.428.428,0,0,1-.392-.461.423.423,0,0,1,.461-.392l9.55.765a.428.428,0,0,1-.034.855" transform="translate(-51.817 -30.616)" fill="#373f51"/>
            <line id="Línea_3727" data-name="Línea 3727" x2="24.697" y2="1.978" transform="translate(98.026 48.285)" fill="#fff"/>
            <path id="Trazado_779717" data-name="Trazado 779717" d="M174.923,76.287h-.035l-24.7-1.979a.427.427,0,0,1-.392-.461.421.421,0,0,1,.461-.392l24.7,1.978a.428.428,0,0,1-.034.855" transform="translate(-52.199 -25.595)" fill="#373f51"/>
            <line id="Línea_3728" data-name="Línea 3728" x2="11.801" y2="0.945" transform="translate(109.909 58.642)" fill="#fff"/>
            <path id="Trazado_779718" data-name="Trazado 779718" d="M180.264,91.15h-.035l-11.8-.945a.429.429,0,0,1-.393-.461.424.424,0,0,1,.461-.392l11.8.945a.428.428,0,0,1-.034.855" transform="translate(-58.554 -31.135)" fill="#373f51"/>
            <line id="Línea_3729" data-name="Línea 3729" x2="15.134" y2="1.278" transform="translate(107.778 53.524)" fill="#fff"/>
            <path id="Trazado_779719" data-name="Trazado 779719" d="M180.326,83.628h-.036l-15.134-1.278a.428.428,0,0,1,.072-.854l15.135,1.278a.428.428,0,0,1-.036.855" transform="translate(-57.414 -28.398)" fill="#373f51"/>
          </g>
        </g>
      </g>
    </g>
    <rect id="Rectángulo_366095" data-name="Rectángulo 366095" width="245" height="6" transform="translate(350 11689)" fill="#373f51" opacity="0.56"/>
  </g>
</svg>
