<svg xmlns="http://www.w3.org/2000/svg" xmlns:xlink="http://www.w3.org/1999/xlink" width="162" height="162" viewBox="0 0 162 162">
  <defs>
    <clipPath id="clip-path">
      <rect id="Rect치ngulo_366793" data-name="Rect치ngulo 366793" width="73.99" height="85.108" transform="translate(-8 -9)" fill="none"/>
    </clipPath>
  </defs>
  <g id="Grupo_1033333" data-name="Grupo 1033333" transform="translate(-1070 -18393)">
    <circle id="Elipse_8588" data-name="Elipse 8588" cx="81" cy="81" r="81" transform="translate(1070 18393)" fill="#fff"/>
    <g id="Grupo_1033283" data-name="Grupo 1033283" transform="translate(-4 3)">
      <g id="Grupo_1033282" data-name="Grupo 1033282" transform="translate(1134 18429.354)">
        <g id="Grupo_1033281" data-name="Grupo 1033281" transform="translate(31 5)" clip-path="url(#clip-path)">
          <path id="Trazado_781212" data-name="Trazado 781212" d="M23.792,20.871l.006.155a.914.914,0,0,0-.015-.155Z" fill="#f66800"/>
          <path id="Trazado_781213" data-name="Trazado 781213" d="M18.393,43.516v5.11l6.634,5.523,2.115-2.17,3.428-3.518V42.856Z" fill="#dfa479"/>
          <path id="Trazado_781214" data-name="Trazado 781214" d="M35.084,33.965a6.05,6.05,0,0,0-.354-1.011,2.387,2.387,0,0,0-.625-.724c-.219-.171-.6-.26-.68-.5s.172-.884.205-1.162a4.242,4.242,0,0,0,.014-1.062c-.234-1.745-2.031-2.929-3.722-3.52s-3.109-3.555-4.832-3.01a4.217,4.217,0,0,0-.524-.123,16.66,16.66,0,0,0-6.665.572c-1.691.592-2.712,4.336-2.946,6.081-.072.538.191,1.154.086,1.659-.108.528-.677.666-1.067.934-.7.482-.518,1.855-.518,1.855l.812,4.121s.932.928,1.475,1.45c.6.579,1.508,3.689,1.508,3.689L22.3,47.577l5.19-.22,3.865-3.424,1.5-4.407,1.476-1.45Z" fill="#efb683"/>
          <path id="Trazado_781215" data-name="Trazado 781215" d="M14.214,32.209a6.167,6.167,0,0,0,.86,2.066c.119-.664.325-3.171.388-3.749.171-1.548,3.753-6.1,4.807-5.962.623.084,6.12,2.679,6.12,2.679L32.9,29.207s.253,3.444.356,5.112c.005.088.027.2.111.22.1.027.176-.092.213-.189a28.044,28.044,0,0,0,1.007-2.68c.174-.683.01-7.191.01-7.191S28.563,19,25.2,19c-2.822,0-6.866.9-8.461,3.181-3.018.641-3.41,5.081-3.41,5.081s.679,4.078.883,4.943" fill="#58595b"/>
          <path id="Trazado_781216" data-name="Trazado 781216" d="M25.215,70.941,30.57,57.948l-5.589-5.657h-.753s-5.877,5.6-5.835,6.007l5.8,12.643Z" fill="#b9d0dc"/>
          <path id="Trazado_781217" data-name="Trazado 781217" d="M27.532,64.236l-1.988-8.183a1.03,1.03,0,0,1,.116-.766L26.415,54a.2.2,0,0,0-.052-.225l-.871-.786a2.166,2.166,0,0,1-.55-.578c-.083-.167-.308-.541-.57-.382-.229.139-.305.357-.454.541a4.969,4.969,0,0,1-.558.5l-.778.7A.194.194,0,0,0,22.53,54l.755,1.287a1.025,1.025,0,0,1,.116.766l-1.988,8.183a.186.186,0,0,0,.009.123l2.753,6.416a.453.453,0,0,0,.594,0l2.754-6.416a.192.192,0,0,0,.009-.123" fill="#2a445d"/>
          <path id="Trazado_781218" data-name="Trazado 781218" d="M24.123,76.108c-.248,0-.5-.008-.75-.016-.56-.013-1.114-.043-1.666-.086A34.835,34.835,0,0,1,6.188,71.09c-.175-.1-.343-.2-.518-.321A35.034,35.034,0,0,1,0,66.355S3.727,53.976,3.851,53.9c2.609-1.3,5.867-1.978,10.219-3.179,1.369-.371,2.49-.675,3.094-.843.116-.03.211-.058.284-.073.138-.036.2-.058.2-.058l1.914,5.767.342,1.026.3.909,1.652,4.967,2.264,6.814.051,1.55.007.131.175,5.2Z" fill="#78909c"/>
          <path id="Trazado_781219" data-name="Trazado 781219" d="M48.791,66.151a34.935,34.935,0,0,1-19.835,9.644c-.27.029-.546.065-.815.094-.307.036-.612.066-.918.1-.946.08-1.907.124-2.868.124h-.233V69.227l.27.808v-.124l2.642-7.724,1.579-4.633.066-.188.342-.989,2.271-6.633s.066.022.2.058c.08.022.175.051.291.08.6.167,1.725.473,3.087.836,4.352,1.2,8.526,2.6,10.219,3.179.105.035,3.7,12.254,3.7,12.254" fill="#78909c"/>
          <path id="Trazado_781220" data-name="Trazado 781220" d="M30.663,46.9,24.635,51.83a.261.261,0,0,1-.324,0L18.284,46.9l-1.348,3.579,2.6,7.82,4.735-6.041a.258.258,0,0,1,.4,0L29.406,58.3l2.6-7.82Z" fill="#e3f3ff"/>
          <path id="Trazado_781221" data-name="Trazado 781221" d="M32.282,54.79,35.441,56,27.223,75.983c-.946.08-1.907.124-2.868.124h-.233c-.247,0-.5-.007-.75-.015-.56-.014-1.113-.043-1.666-.087L13.5,56l3.159-1.208-3.632-1.621a22.337,22.337,0,0,1,1.041-2.451,19.882,19.882,0,0,0,3.406-1.673l2.09,6.466.371,1,.327.873.99,2.669.685,2.036L24.29,69.11l2.686-7.156.713-1.9.924-2.495.066-.189.335-1,2.46-7.316v-.008a20.051,20.051,0,0,0,3.4,1.673,21.208,21.208,0,0,1,1.041,2.451Z" fill="#90a4ae"/>
        </g>
      </g>
      <path id="Trazado_781224" data-name="Trazado 781224" d="M57.3,13.683l-.356-3.945-2.97-.233c-.221-.64.921-3.181.562-3.783l.273-.5L52,2.427,49.6,4.138a10.1,10.1,0,0,0-1.9-.882L47.459.337,43.513,0l-.73,2.83a10.129,10.129,0,0,0-2.044.552L38.693,1.319l-.093.066L35.454,3.6l1.255,2.631A10.25,10.25,0,0,0,35.5,7.972l-2.9-.264-1.015,3.825,2.67,1.217a10.12,10.12,0,0,0,.2,2.093l-2.409,1.67L33.736,20.1l2.857-.791a10.09,10.09,0,0,0,1.474,1.45l-.779,2.857,3.592,1.665,1.7-2.465a10.351,10.351,0,0,0,2.036.165l1.251,2.71,3.821-1.034-.146-1.525L49.4,21.66c.284-.163.566-.34.838-.529q.43-.306.821-.643l2.71,1.279,2.263-3.249-2.142-2.107a10.083,10.083,0,0,0,.522-1.967ZM48.031,18a6.417,6.417,0,0,1-.828.483,6.309,6.309,0,0,1-6.438-10.81,6.389,6.389,0,0,1,.773-.456A6.309,6.309,0,0,1,48.031,18" transform="translate(1107.703 18416.273)" fill="#5573c6"/>
    </g>
    <g id="Grupo_1033280" data-name="Grupo 1033280" transform="translate(1089.226 18460)">
      <path id="Trazado_769353" data-name="Trazado 769353" d="M442.808,282.583l-73.9-.547a3.438,3.438,0,0,1-3.344-2.755l-8.9-43.954a3.437,3.437,0,0,1,3.4-4.119l73.9.547a3.436,3.436,0,0,1,3.344,2.755l8.9,43.954a3.438,3.438,0,0,1-3.4,4.119" transform="translate(-356.6 -231.207)" fill="#b0c0d2"/>
      <path id="Trazado_769354" data-name="Trazado 769354" d="M388.991,255.5a6.637,6.637,0,1,0,6.657-6.012,6.354,6.354,0,0,0-6.657,6.012" transform="translate(-352.234 -228.741)" fill="#7b92ba"/>
      <path id="Trazado_781211" data-name="Trazado 781211" d="M0,0H4.414V69.889H0Z" transform="translate(17.213 55.28) rotate(-89.576)" fill="#7b92ba"/>
      <rect id="Rect치ngulo_363003" data-name="Rect치ngulo 363003" width="4.414" height="36.417" transform="matrix(0.007, -1, 1, 0.007, 87.1, 55.799)" fill="#d2e0e6"/>
      <path id="Trazado_769355" data-name="Trazado 769355" d="M426.982,233.954q-18.618-.354-37.234.093a.284.284,0,0,0,.024.567q18.616-.448,37.234-.094c.365.008.34-.559-.024-.566" transform="translate(-352.168 -230.855)" fill="#303949"/>
      <path id="Trazado_769356" data-name="Trazado 769356" d="M425.434,234.776c-.065-.357-.6-.182-.54.174q4.06,22.45,7.848,44.947c.059.356.628.337.566-.023q-3.8-22.572-7.874-45.1" transform="translate(-347.398 -230.751)" fill="#303949"/>
      <path id="Trazado_769357" data-name="Trazado 769357" d="M394.229,249.261c-.355.084-.18.624.174.54,8.3-1.96,9.005,12.658.351,11.689-.36-.041-.49.512-.128.553a6.324,6.324,0,0,0,7.072-6.557c-.171-4.178-3.345-7.2-7.468-6.225" transform="translate(-351.555 -228.796)" fill="#303949"/>
      <path id="Trazado_769358" data-name="Trazado 769358" d="M467.5,279.233l-32.014-.252c-.365,0-.341.564.024.566l32.014.253c.365,0,.34-.565-.024-.567" transform="translate(-346.005 -224.769)" fill="#303949"/>
    </g>
  </g>
</svg>
