<svg id="Grupo_1031263" data-name="Grupo 1031263" xmlns="http://www.w3.org/2000/svg" xmlns:xlink="http://www.w3.org/1999/xlink" width="163.185" height="134.675" viewBox="0 0 163.185 134.675">
  <defs>
    <clipPath id="clip-path">
      <rect id="Rectángulo_365123" data-name="Rectángulo 365123" width="163.185" height="134.675" fill="none" stroke="#000" stroke-width="1"/>
    </clipPath>
  </defs>
  <g id="Grupo_1031262" data-name="Grupo 1031262" transform="translate(0 0)" clip-path="url(#clip-path)">
    <path id="Trazado_777509" data-name="Trazado 777509" d="M46.617,68.453l-1.638-6.668L39,65.287c-3.8-3.8-7.558-7.562-11.278-11.366a1.34,1.34,0,0,1-.046-1.218c.92-1.68,1.923-3.309,3.019-5.16l-6.58-1.755V29.081l6.571-1.755L27.13,21.283c.575-.508,1.2-1,1.764-1.562,3.137-3.12,6.277-6.24,9.376-9.4A1.119,1.119,0,0,1,39.819,10a.859.859,0,0,1,.143.109c1.562,1.008,3.2,1.91,4.976,2.96.609-2.3,1.176-4.434,1.738-6.567H63.408l1.726,6.571c1.7-1,3.288-1.873,4.808-2.851a1.341,1.341,0,0,1,2.015.214c3.59,3.678,7.247,7.285,10.93,10.963l-3.506,5.962,6.676,1.65v16.9l-6.68,1.554,3.309,5.673L70.773,65.094l-5.7-3.342-1.554,6.7Zm30.61-15.847c-.718-1.218-1.516-2.5-2.23-3.834a1.8,1.8,0,0,1-.189-1.31c1.4-3.754,1.423-3.75,5.291-4.724.176-.042.353-.08.529-.1.731-.109,1.025-.474,1.008-1.264q-.069-3.955,0-7.915c.013-.8-.315-1.1-1.046-1.239-1.05-.21-2.07-.563-3.116-.768a2.326,2.326,0,0,1-1.612-1.331c-1.52-2.431-1.121-4.552.621-6.617a1.9,1.9,0,0,0,.462-.806c.063-.328.1-.819-.092-1.016-2.1-2.188-4.245-4.333-6.4-6.517a7.51,7.51,0,0,0-1.381.764,5.191,5.191,0,0,1-6.953.508,2.445,2.445,0,0,1-.974-1.088c-.407-1.226-.634-2.511-1.02-3.741a1.237,1.237,0,0,0-.831-.756c-3.032-.055-6.063-.034-9.133-.034a9.534,9.534,0,0,0-.441,1.629c-.235,2.649-1.423,4.4-4.157,5.055a2.427,2.427,0,0,1-2.2-.172c-1.151-.76-2.368-1.415-3.443-2.049L32.87,22.257a6.253,6.253,0,0,0,.63,1.092c1.881,2.192,2.263,4.5.554,6.953a2.694,2.694,0,0,1-1.171,1.058c-1.436.466-2.922.785-4.367,1.155v9.83a9.675,9.675,0,0,0,1.369.365c2.7.277,4.69,1.4,5.2,4.308.008.042.05.08.05.122a4.546,4.546,0,0,1-.092,1.684c-.533,1.125-1.289,2.146-1.848,3.263a1.341,1.341,0,0,0,.151,1.213q2.828,2.96,5.782,5.786a1.45,1.45,0,0,0,1.314.172c1.159-.571,2.225-1.327,3.367-1.936a1.655,1.655,0,0,1,1.2-.118c3.687,1.369,3.682,1.381,4.673,5.177a5.053,5.053,0,0,1,.155.651c.092.773.512,1.008,1.276,1,2.5-.038,5.005-.059,7.5.008,1.029.025,1.617-.239,1.675-1.331.16-2.952,1.621-4.837,4.573-5.425a2.377,2.377,0,0,1,1.44.084c1.373.71,2.687,1.541,3.884,2.242l7.025-7" transform="translate(77.128 20.788)" fill="#373f51" stroke="#000" stroke-width="1"/>
    <path id="Trazado_777510" data-name="Trazado 777510" d="M73.865,49.324l-7.025,7c-1.2-.705-2.511-1.533-3.884-2.246a2.378,2.378,0,0,0-1.44-.084c-2.952.588-4.413,2.473-4.573,5.429-.059,1.092-.651,1.356-1.675,1.331-2.5-.067-5.005-.05-7.5-.008-.764.013-1.184-.227-1.272-1a4.909,4.909,0,0,0-.16-.651c-.991-3.792-.987-3.808-4.669-5.177a1.664,1.664,0,0,0-1.205.118c-1.142.6-2.209,1.36-3.367,1.931a1.45,1.45,0,0,1-1.314-.168Q32.817,52.981,30,50.016a1.336,1.336,0,0,1-.151-1.218c.55-1.117,1.31-2.133,1.843-3.258a4.459,4.459,0,0,0,.092-1.684c0-.042-.042-.08-.05-.126-.512-2.91-2.5-4.027-5.2-4.308a8.787,8.787,0,0,1-1.369-.365v-9.83c1.449-.37,2.931-.689,4.367-1.155A2.671,2.671,0,0,0,30.7,27.015c1.7-2.456,1.323-4.762-.55-6.953a6.271,6.271,0,0,1-.634-1.092l7.046-6.979c1.079.634,2.3,1.289,3.443,2.049a2.435,2.435,0,0,0,2.2.172c2.733-.659,3.922-2.406,4.153-5.055a9.547,9.547,0,0,1,.445-1.629c3.065,0,6.1-.021,9.128.034a1.232,1.232,0,0,1,.831.752c.39,1.234.613,2.519,1.02,3.745a2.454,2.454,0,0,0,.978,1.088c.386.252,1.377.726,1.377.726s3.724.428,5.572-1.234a7.511,7.511,0,0,1,1.381-.764c2.158,2.183,4.3,4.329,6.4,6.517.189.2.16.689.092,1.016a1.9,1.9,0,0,1-.462.806c-1.743,2.066-2.141,4.186-.621,6.617a2.328,2.328,0,0,0,1.608,1.331c1.05.206,2.07.554,3.12.768.731.143,1.058.441,1.046,1.239q-.063,3.962,0,7.915c.017.789-.277,1.155-1.012,1.264-.176.025-.353.063-.525.1-3.876.974-3.892.97-5.291,4.724a1.806,1.806,0,0,0,.189,1.31c.71,1.331,1.512,2.616,2.23,3.834M69.385,34.161a17.721,17.721,0,1,0-17.761,17.69,17.721,17.721,0,0,0,17.761-17.69" transform="translate(80.49 24.067)" fill="#f4a338" stroke="#000" stroke-width="1"/>
    <path id="Trazado_777511" data-name="Trazado 777511" d="M62.695,27.4a17.713,17.713,0,1,1,0-.1v.1M45.076,14.112a13.151,13.151,0,1,0,.113,0h-.118" transform="translate(87.176 30.835)" fill="#373f51" stroke="#000" stroke-width="1"/>
    <path id="Trazado_777512" data-name="Trazado 777512" d="M41.67,10.705A13.285,13.285,0,1,1,28.317,23.923,13.285,13.285,0,0,1,41.67,10.705m8.746,13.256a8.849,8.849,0,1,0-8.851,8.847,8.845,8.845,0,0,0,8.851-8.847" transform="translate(90.582 34.242)" fill="#f0dcc0" stroke="#000" stroke-width="1"/>
    <path id="Trazado_777513" data-name="Trazado 777513" d="M47.066,20.621a8.851,8.851,0,1,1-8.83-8.872,8.852,8.852,0,0,1,8.83,8.872m-13.243.046a4.42,4.42,0,0,0,4.442,4.4,4.483,4.483,0,0,0,4.4-4.468,4.424,4.424,0,0,0-8.847,0v.059" transform="translate(93.932 37.582)" fill="#373f51" stroke="#000" stroke-width="1"/>
    <path id="Trazado_777514" data-name="Trazado 777514" d="M30.426,17.261a4.381,4.381,0,0,1,4.321-4.442l.059,0A4.426,4.426,0,0,1,39.273,17.2a4.483,4.483,0,0,1-4.4,4.468,4.425,4.425,0,0,1-4.442-4.4" transform="translate(97.329 40.989)" fill="#faf0e2" stroke="#000" stroke-width="1"/>
    <path id="Trazado_777515" data-name="Trazado 777515" d="M38.146,93.958,35.66,83.843l-9.078,5.312c-5.752-5.773-11.463-11.467-17.1-17.236a2.017,2.017,0,0,1-.071-1.852c1.39-2.545,2.914-5.018,4.577-7.827L4.009,59.586V34.242l9.972-2.658L8.59,22.418c.873-.768,1.818-1.52,2.67-2.364,4.762-4.736,9.519-9.468,14.226-14.259a1.7,1.7,0,0,1,2.347-.5,1.638,1.638,0,0,1,.214.168C30.42,7,32.9,8.368,35.6,9.956,36.521,6.47,37.377,3.237,38.23,0H63.612l2.612,9.968c2.587-1.524,4.988-2.847,7.289-4.325a2.02,2.02,0,0,1,2.851.063,2.078,2.078,0,0,1,.206.26c5.446,5.572,11,11.047,16.577,16.623l-5.32,9.044,10.132,2.5V59.775L87.823,62.131l5.022,8.6L74.773,88.861l-8.637-5.068L63.78,93.958ZM84.564,69.924c-1.088-1.843-2.3-3.8-3.38-5.811a2.766,2.766,0,0,1-.29-1.99c2.129-5.694,2.158-5.685,8.028-7.163.265-.067.529-.118.8-.16,1.109-.164,1.558-.718,1.533-1.915-.076-4-.067-8,0-12,.021-1.213-.479-1.663-1.587-1.885-1.591-.315-3.137-.852-4.728-1.159a3.547,3.547,0,0,1-2.444-2.024c-2.305-3.682-1.7-6.9.945-10.031a2.991,2.991,0,0,0,.7-1.226c.1-.5.143-1.243-.143-1.541-3.183-3.317-6.437-6.575-9.708-9.88a11.065,11.065,0,0,0-2.1,1.155c-3.334,3-6.857,3.2-10.543.768a3.634,3.634,0,0,1-1.482-1.646c-.617-1.86-.957-3.808-1.549-5.677A1.856,1.856,0,0,0,57.36,6.6c-4.6-.084-9.2-.05-13.848-.05a14.743,14.743,0,0,0-.672,2.473c-.353,4.014-2.158,6.659-6.3,7.667a3.7,3.7,0,0,1-3.342-.265c-1.743-1.155-3.59-2.146-5.223-3.107L17.294,23.9a9.723,9.723,0,0,0,.957,1.659c2.851,3.321,3.43,6.819.84,10.543a4.077,4.077,0,0,1-1.776,1.6c-2.179.71-4.434,1.188-6.626,1.751V54.359a13.8,13.8,0,0,0,2.078.554c4.1.42,7.113,2.12,7.89,6.533.013.067.08.122.076.189a6.792,6.792,0,0,1-.143,2.553c-.806,1.709-1.957,3.25-2.8,4.942a2.023,2.023,0,0,0,.231,1.848q4.277,4.484,8.763,8.771a2.2,2.2,0,0,0,1.994.26c1.755-.869,3.372-2.011,5.1-2.935a2.528,2.528,0,0,1,1.827-.176c5.589,2.074,5.58,2.1,7.088,7.852a7.858,7.858,0,0,1,.239.987c.134,1.167.768,1.528,1.931,1.512,3.8-.063,7.592-.092,11.379.008,1.558.042,2.452-.361,2.545-2.02.239-4.476,2.452-7.335,6.928-8.226a3.576,3.576,0,0,1,2.188.126c2.083,1.079,4.073,2.335,5.891,3.4L84.548,69.928" transform="translate(12.824 -0.002)" fill="#373f51" stroke="#000" stroke-width="1"/>
    <path id="Trazado_777516" data-name="Trazado 777516" d="M79.462,64.948,68.814,75.559c-1.822-1.067-3.813-2.322-5.9-3.4a3.6,3.6,0,0,0-2.183-.13c-4.48.89-6.689,3.75-6.932,8.23-.088,1.654-.987,2.062-2.54,2.02-3.792-.1-7.592-.071-11.383-.013-1.159.021-1.8-.34-1.931-1.512a6.574,6.574,0,0,0-.239-.983c-1.5-5.752-1.495-5.778-7.084-7.852a2.505,2.505,0,0,0-1.827.176c-1.73.924-3.347,2.066-5.1,2.935a2.2,2.2,0,0,1-1.994-.26q-4.491-4.277-8.767-8.776a2.039,2.039,0,0,1-.231-1.843c.84-1.692,1.99-3.233,2.8-4.946a6.875,6.875,0,0,0,.143-2.553c0-.059-.063-.118-.076-.185-.781-4.417-3.792-6.114-7.89-6.538a14.156,14.156,0,0,1-2.078-.55V34.469c2.192-.558,4.442-1.041,6.622-1.751A4.055,4.055,0,0,0,14,31.114c2.587-3.724,2.007-7.222-.836-10.543a9.744,9.744,0,0,1-.962-1.659L22.891,8.331c1.633.957,3.481,1.952,5.223,3.107a3.681,3.681,0,0,0,3.338.26c4.144-1,5.95-3.649,6.3-7.667a14.806,14.806,0,0,1,.672-2.469c4.648,0,9.25-.034,13.844.05a1.87,1.87,0,0,1,1.264,1.142c.592,1.869.932,3.817,1.549,5.673a3.665,3.665,0,0,0,1.482,1.65c.584.386,2.091,1.1,2.091,1.1s5.643.655,8.448-1.868A11.083,11.083,0,0,1,69.2,8.15c3.271,3.309,6.525,6.563,9.7,9.884.286.3.239,1.041.139,1.541a2.941,2.941,0,0,1-.7,1.222C75.7,23.929,75.1,27.15,77.4,30.828a3.512,3.512,0,0,0,2.44,2.024c1.591.311,3.141.84,4.732,1.163,1.1.218,1.6.672,1.583,1.881q-.094,6,0,12c.025,1.2-.42,1.755-1.533,1.919a7.447,7.447,0,0,0-.8.16c-5.878,1.478-5.9,1.47-8.024,7.163a2.75,2.75,0,0,0,.286,1.986c1.079,2.02,2.3,3.968,3.38,5.811m-6.8-22.985A26.875,26.875,0,1,0,45.733,68.782,26.878,26.878,0,0,0,72.668,41.951" transform="translate(17.927 4.974)" fill="#4adbd1" stroke="#000" stroke-width="1"/>
    <path id="Trazado_777517" data-name="Trazado 777517" d="M62.524,31.7a26.867,26.867,0,1,1,0-.147V31.7M35.806,11.548a19.948,19.948,0,1,0,.168,0H35.8" transform="translate(28.067 15.235)" stroke="#000" stroke-width="1"/>
    <path id="Trazado_777518" data-name="Trazado 777518" d="M30.636,6.379a20.149,20.149,0,1,1-20.247,20.05A20.149,20.149,0,0,1,30.636,6.379M43.9,26.483A13.42,13.42,0,1,0,30.477,39.9,13.42,13.42,0,0,0,43.9,26.483" transform="translate(33.233 20.404)" fill="#f0dcc0" stroke="#000" stroke-width="1"/>
    <path id="Trazado_777519" data-name="Trazado 777519" d="M38.82,21.416A13.422,13.422,0,1,1,25.43,7.963,13.422,13.422,0,0,1,38.82,21.416m-20.083.071a6.71,6.71,0,0,0,6.739,6.68,6.8,6.8,0,0,0,6.68-6.773,6.71,6.71,0,0,0-13.42,0v.088" transform="translate(38.313 25.471)" stroke="#000" stroke-width="1"/>
    <path id="Trazado_777520" data-name="Trazado 777520" d="M13.587,16.318a6.649,6.649,0,0,1,6.554-6.739h.088a6.714,6.714,0,0,1,6.777,6.647A6.8,6.8,0,0,1,20.327,23a6.718,6.718,0,0,1-6.739-6.68" transform="translate(43.463 30.64)" fill="#faf0e2" stroke="#000" stroke-width="1"/>
    <path id="Trazado_777521" data-name="Trazado 777521" d="M67.273,23.284A30.767,30.767,0,1,0,67.29,46,30.779,30.779,0,0,0,67.273,23.284Z" transform="translate(25.161 12.333)" fill="#829ece" stroke="#000" stroke-width="1"/>
    <path id="Trazado_777522" data-name="Trazado 777522" d="M15.2,3.856c21.931,14.637,21.834,47.006,0,61.577a30.788,30.788,0,1,0,0-61.577Z" transform="translate(48.62 12.333)" fill="#5573c6" stroke="#000" stroke-width="1"/>
    <path id="Trazado_777523" data-name="Trazado 777523" d="M38.656,3.856a30.788,30.788,0,1,0,0,61.577c-21.9-14.6-21.88-46.956,0-61.577" transform="translate(25.162 12.333)" fill="#bcc7e2" stroke="#000" stroke-width="1"/>
    <path id="Trazado_777524" data-name="Trazado 777524" d="M69.6,47.257a32.115,32.115,0,0,0-59.7-23.677c-.059.151-.122.3-.181.462A32.1,32.1,0,0,0,69.395,47.718c.071-.168.139-.307.2-.462m-13.52-1.562a39.156,39.156,0,0,0,0-20.087H67.388a29.632,29.632,0,0,1,0,20.087Zm-30.1,0a36.535,36.535,0,0,1,0-20.087H53.342a36.535,36.535,0,0,1,0,20.087Zm26.491,2.633A35.169,35.169,0,0,1,39.662,64.841,35.152,35.152,0,0,1,26.852,48.327ZM11.95,45.695a29.682,29.682,0,0,1,0-20.087H23.262a39.247,39.247,0,0,0,0,20.087Zm14.9-22.724A35.07,35.07,0,0,1,39.662,6.456,35.2,35.2,0,0,1,52.473,22.97Zm39.415,0h-11A37.571,37.571,0,0,0,44.008,6.506,29.263,29.263,0,0,1,66.266,22.97M35.317,6.506A37.535,37.535,0,0,0,24.051,22.987H13.037A29.259,29.259,0,0,1,35.317,6.506M13.037,48.327h11A37.354,37.354,0,0,0,35.3,64.808,29.26,29.26,0,0,1,13.037,48.327M44.008,64.808A37.388,37.388,0,0,0,55.27,48.327h11A29.246,29.246,0,0,1,44.008,64.808" transform="translate(24.156 11.329)" fill="#373f51" stroke="#000" stroke-width="1"/>
    <path id="Trazado_777525" data-name="Trazado 777525" d="M73.056,72.966c-3.779-1.457-7.587-2.851-11.379-4.287-2.007-.76-2.2-2.12-.819-3.842,1.276-1.587,2.267-3.405,3.472-5.055A4.272,4.272,0,0,1,66.1,58.244c4.438-1.566,7.583-4.552,7.885-9.221A89.6,89.6,0,0,0,73.673,31.4c-1.608-11.9-12.66-20.868-24.87-20.9-12.244-.025-23.287,8.843-25.034,20.73-.781,5.274-.491,10.72-.508,16.09-.013,5.324,3.137,9.33,8.247,10.955A2.932,2.932,0,0,1,32.9,59.311c1.381,1.94,2.641,3.968,4.031,5.9a2.053,2.053,0,0,1,.4.676,2.092,2.092,0,0,1-1.243,2.687c-3.955,1.491-7.923,2.939-11.866,4.455-5.442,2.091-8.885,6.042-9.363,11.828-.437,5.337-.092,10.737-.092,16.237h67.95c0-4.753.013-9.38,0-14-.013-6.806-3.338-11.685-9.666-14.125m-.013,6.3a7.125,7.125,0,0,1,2.448,2.154,7.169,7.169,0,0,0-2.448-2.154,56.843,56.843,0,0,0-5.614-2.444L61.7,93.88c-4.014-2.007-7.818-3.855-11.564-5.811a2.731,2.731,0,0,0-2.83.021c-3.787,1.965-7.621,3.834-11.564,5.807l0,0c3.951-1.969,7.781-3.842,11.568-5.8a2.712,2.712,0,0,1,2.83-.021c3.745,1.957,7.55,3.8,11.564,5.807l5.727-17.052a56.915,56.915,0,0,1,5.618,2.444M58.4,85.894h0l-5.66-2.838,5.689-9.5.013,0-5.694,9.5Zm5.223-63.025c-.416-.453-.894-.873-1.365-1.3.47.428.949.848,1.365,1.3m-1.91-1.818a21.879,21.879,0,0,0-2.246-1.633c-.445-.281-.894-.5-1.339-.739.445.244.894.458,1.335.739a21.492,21.492,0,0,1,2.251,1.633M37.978,19.417A22.519,22.519,0,0,1,43.067,17a22.6,22.6,0,0,0-5.089,2.419C31.521,23.511,28.762,29.7,28.85,37.086h0c-.084-7.39,2.675-13.575,9.133-17.669m1,54.128,0,0-3.6,1.369,3.67,10.993h-.008v0l-3.67-10.993ZM20.515,95.459h0c0-3.565-.172-7,.05-10.4a7.374,7.374,0,0,1,4.258-6.067,54.288,54.288,0,0,1,5.211-2.108v0a54.253,54.253,0,0,0-5.211,2.1,7.367,7.367,0,0,0-4.253,6.067c-.227,3.409-.055,6.84-.055,10.4Z" transform="translate(46.839 33.583)" fill="#d8b8a3" stroke="#000" stroke-width="1"/>
    <path id="Trazado_777526" data-name="Trazado 777526" d="M14.774,101.094c0-5.5-.349-10.9.092-16.237.474-5.786,3.918-9.737,9.359-11.828,3.943-1.516,7.911-2.969,11.866-4.455a2.1,2.1,0,0,0,1.247-2.691,2.119,2.119,0,0,0-.407-.672c-1.39-1.931-2.649-3.96-4.031-5.9a2.941,2.941,0,0,0-1.394-1.041c-5.106-1.621-8.259-5.626-8.242-10.951.013-5.37-.273-10.821.5-16.09C25.514,19.342,36.557,10.474,48.8,10.5c12.21.025,23.262,8.994,24.87,20.894a88.965,88.965,0,0,1,.315,17.627c-.3,4.669-3.447,7.659-7.885,9.225a4.272,4.272,0,0,0-1.772,1.537c-1.205,1.65-2.192,3.468-3.472,5.055-1.381,1.717-1.188,3.082.819,3.842,3.792,1.432,7.6,2.83,11.383,4.287,6.324,2.435,9.649,7.314,9.662,14.121.013,4.627,0,9.254,0,14ZM68.595,36.948c.076-7.243-2.683-13.428-9.133-17.53-7.067-4.5-14.423-4.472-21.486,0-6.458,4.09-9.217,10.279-9.133,17.669a59.983,59.983,0,0,1,6.626-1.075A16.693,16.693,0,0,0,46.555,31.3a23.8,23.8,0,0,0,1.973-2.519c.953,1.046,1.495,1.7,2.1,2.293a16.44,16.44,0,0,0,9.464,4.778c2.788.4,5.589.722,8.507,1.092M20.513,95.459H76.951c0-3.51.147-6.882-.046-10.237a7.217,7.217,0,0,0-3.863-5.958,57.823,57.823,0,0,0-5.614-2.44L61.7,93.876c-4.014-2.007-7.818-3.855-11.564-5.811a2.722,2.722,0,0,0-2.83.025c-3.787,1.957-7.617,3.829-11.564,5.8l-5.7-17.014a54.285,54.285,0,0,0-5.211,2.108,7.36,7.36,0,0,0-4.253,6.063c-.227,3.409-.055,6.84-.055,10.4M37.389,41.529c0,3.863-.038,7.68.008,11.492A11.362,11.362,0,0,0,47.857,64.358a11,11,0,0,0,11.929-9.473c.512-4.379.1-8.872.1-13.394A22.872,22.872,0,0,1,49.3,37.439a1.282,1.282,0,0,0-1.184,0,23.3,23.3,0,0,1-10.741,4.09m1.663,44.382,5.66-2.864-5.727-9.506-3.6,1.373,3.67,10.993M58.4,85.89,62.049,74.9l-3.624-1.344-5.694,9.5,5.66,2.838M54.167,69.632h-10.9l5.45,9.065,5.446-9.065M31.624,42.6a5.358,5.358,0,0,0-2.729,5.089,5.007,5.007,0,0,0,2.729,4.354Zm34.233,9.5a5.367,5.367,0,0,0,2.675-5.026,5.066,5.066,0,0,0-2.675-4.384Z" transform="translate(46.841 33.583)" fill="#373f51" stroke="#000" stroke-width="1"/>
    <path id="Trazado_777527" data-name="Trazado 777527" d="M57.774,32.717c-2.922-.374-5.715-.693-8.507-1.1A16.465,16.465,0,0,1,39.8,26.843c-.6-.6-1.142-1.247-2.1-2.293a23.709,23.709,0,0,1-1.969,2.515A16.654,16.654,0,0,1,24.654,31.78a60.824,60.824,0,0,0-6.626,1.075c-.092-7.39,2.67-13.575,9.128-17.669,7.063-4.476,14.423-4.5,21.481,0,6.458,4.1,9.212,10.287,9.137,17.53" transform="translate(57.661 37.814)" fill="#f4a338" stroke="#000" stroke-width="1"/>
    <path id="Trazado_777528" data-name="Trazado 777528" d="M16.09,44.93c0-3.565-.172-7,.055-10.4A7.367,7.367,0,0,1,20.4,28.457a54.25,54.25,0,0,1,5.211-2.1l5.7,17.014c3.943-1.973,7.776-3.842,11.564-5.807a2.731,2.731,0,0,1,2.83-.021c3.745,1.957,7.55,3.8,11.564,5.811L63,26.3a56.842,56.842,0,0,1,5.614,2.444A7.2,7.2,0,0,1,72.476,34.7c.193,3.355.046,6.727.046,10.233Z" transform="translate(51.269 84.113)" fill="#5573c6" stroke="#000" stroke-width="1"/>
    <path id="Trazado_777529" data-name="Trazado 777529" d="M23.25,37.876,19.58,26.883l3.607-1.369,5.723,9.5-5.66,2.864" transform="translate(62.634 81.615)" fill="#5573c6" stroke="#000" stroke-width="1"/>
    <path id="Trazado_777530" data-name="Trazado 777530" d="M29.376,37.853l-5.66-2.838,5.689-9.5,3.628,1.344L29.381,37.853" transform="translate(75.866 81.624)" fill="#5573c6" stroke="#000" stroke-width="1"/>
    <path id="Trazado_777531" data-name="Trazado 777531" d="M58.413,72.966c-3.779-1.457-7.587-2.851-11.379-4.287-2.007-.76-2.2-2.12-.819-3.842,1.276-1.587,2.267-3.405,3.472-5.055a4.272,4.272,0,0,1,1.772-1.537c4.438-1.566,7.583-4.552,7.885-9.221A89.594,89.594,0,0,0,59.03,31.4c-1.608-11.9-12.66-20.868-24.87-20.9-12.244-.025-23.287,8.843-25.034,20.73-.781,5.274-.491,10.72-.508,16.09-.013,5.324,3.137,9.33,8.242,10.955a2.924,2.924,0,0,1,1.4,1.037c1.381,1.94,2.641,3.968,4.031,5.9a2.053,2.053,0,0,1,.4.676,2.1,2.1,0,0,1-1.243,2.687c-3.955,1.491-7.923,2.939-11.866,4.455C4.142,75.12.7,79.071.221,84.857-.216,90.194.128,95.593.128,101.094h67.95c0-4.753.013-9.38,0-14-.013-6.806-3.338-11.685-9.666-14.125m-.013,6.3a7.125,7.125,0,0,1,2.448,2.154A7.169,7.169,0,0,0,58.4,79.268a56.84,56.84,0,0,0-5.614-2.444L47.055,93.88c-4.014-2.007-7.818-3.855-11.564-5.811a2.731,2.731,0,0,0-2.83.021C28.874,90.055,25.04,91.924,21.1,93.9l0,0c3.947-1.969,7.781-3.842,11.568-5.8a2.712,2.712,0,0,1,2.83-.021c3.745,1.957,7.55,3.8,11.564,5.807l5.727-17.052A56.913,56.913,0,0,1,58.4,79.268M43.755,85.894h0l-5.66-2.838,5.689-9.5.013,0L38.1,83.06Zm5.223-63.025c-.416-.453-.894-.873-1.365-1.3.47.428.949.848,1.365,1.3m-1.91-1.818a21.881,21.881,0,0,0-2.246-1.633c-.445-.281-.894-.5-1.339-.739.445.244.894.458,1.335.739a21.494,21.494,0,0,1,2.251,1.633M23.335,19.417A22.519,22.519,0,0,1,28.424,17a22.6,22.6,0,0,0-5.089,2.419c-6.458,4.094-9.217,10.279-9.128,17.669h0c-.084-7.39,2.675-13.575,9.133-17.669m1,54.128,0,0-3.6,1.369L24.4,85.911h-.008v0l-3.67-10.993ZM5.872,95.459h0c0-3.565-.172-7,.05-10.4a7.374,7.374,0,0,1,4.258-6.067A54.288,54.288,0,0,1,15.4,76.879v0a54.254,54.254,0,0,0-5.211,2.1,7.367,7.367,0,0,0-4.253,6.067c-.227,3.409-.055,6.84-.055,10.4Z" transform="translate(-0.002 33.583)" fill="#d8b8a3" stroke="#000" stroke-width="1"/>
    <path id="Trazado_777532" data-name="Trazado 777532" d="M.131,101.094c0-5.5-.349-10.9.092-16.237C.7,79.071,4.141,75.12,9.582,73.029c3.943-1.516,7.911-2.969,11.866-4.455A2.1,2.1,0,0,0,22.7,65.882a2.119,2.119,0,0,0-.407-.672c-1.39-1.931-2.649-3.96-4.031-5.9a2.941,2.941,0,0,0-1.394-1.041C11.757,56.649,8.6,52.643,8.621,47.319c.013-5.37-.273-10.821.5-16.09,1.747-11.887,12.79-20.755,25.034-20.73,12.21.025,23.262,8.994,24.87,20.894a88.965,88.965,0,0,1,.315,17.627c-.3,4.669-3.447,7.659-7.885,9.225a4.272,4.272,0,0,0-1.772,1.537c-1.205,1.65-2.192,3.468-3.472,5.055-1.381,1.717-1.188,3.082.819,3.842,3.792,1.432,7.6,2.83,11.383,4.287,6.324,2.435,9.649,7.314,9.662,14.121.013,4.627,0,9.254,0,14ZM53.952,36.948c.076-7.243-2.683-13.428-9.133-17.53-7.067-4.5-14.423-4.472-21.486,0C16.876,23.507,14.117,29.7,14.2,37.086a59.983,59.983,0,0,1,6.626-1.075A16.693,16.693,0,0,0,31.912,31.3a23.8,23.8,0,0,0,1.973-2.519c.953,1.046,1.495,1.7,2.1,2.293a16.44,16.44,0,0,0,9.464,4.778c2.788.4,5.589.722,8.507,1.092M5.87,95.459H62.308c0-3.51.147-6.882-.046-10.237A7.226,7.226,0,0,0,58.4,79.264a57.823,57.823,0,0,0-5.614-2.44L47.053,93.876c-4.014-2.007-7.818-3.855-11.564-5.811a2.722,2.722,0,0,0-2.83.025c-3.787,1.957-7.617,3.829-11.564,5.8l-5.7-17.014a54.286,54.286,0,0,0-5.211,2.108A7.36,7.36,0,0,0,5.929,85.05c-.227,3.409-.055,6.84-.055,10.4M22.746,41.529c0,3.863-.038,7.68.008,11.492A11.362,11.362,0,0,0,33.214,64.358a11,11,0,0,0,11.929-9.473c.512-4.379.1-8.872.1-13.394a22.872,22.872,0,0,1-10.585-4.052,1.282,1.282,0,0,0-1.184,0,23.3,23.3,0,0,1-10.741,4.09M24.4,85.911l5.66-2.864-5.727-9.506-3.6,1.373L24.4,85.907m19.357-.017L47.406,74.9l-3.624-1.344-5.694,9.5,5.66,2.838M39.524,69.632h-10.9l5.45,9.065,5.446-9.065M16.981,42.6a5.358,5.358,0,0,0-2.729,5.089,5.007,5.007,0,0,0,2.729,4.354Zm34.233,9.5a5.367,5.367,0,0,0,2.675-5.026,5.066,5.066,0,0,0-2.675-4.384Z" transform="translate(0 33.583)" fill="#373f51" stroke="#000" stroke-width="1"/>
    <path id="Trazado_777533" data-name="Trazado 777533" d="M43.131,32.717c-2.918-.374-5.715-.693-8.5-1.1a16.476,16.476,0,0,1-9.468-4.778c-.6-.6-1.142-1.247-2.1-2.293A23.709,23.709,0,0,1,21.1,27.065,16.673,16.673,0,0,1,10.01,31.78a60.989,60.989,0,0,0-6.626,1.075c-.088-7.39,2.67-13.575,9.128-17.669,7.063-4.476,14.423-4.5,21.486,0,6.454,4.1,9.212,10.287,9.133,17.53" transform="translate(10.82 37.814)" fill="#151d2d" stroke="#000" stroke-width="1"/>
    <path id="Trazado_777534" data-name="Trazado 777534" d="M1.447,44.93c0-3.565-.172-7,.055-10.4a7.367,7.367,0,0,1,4.253-6.067,54.251,54.251,0,0,1,5.211-2.1l5.7,17.014c3.943-1.973,7.776-3.842,11.564-5.807a2.731,2.731,0,0,1,2.83-.021c3.745,1.957,7.55,3.8,11.564,5.811L48.357,26.3a56.841,56.841,0,0,1,5.614,2.444A7.2,7.2,0,0,1,57.833,34.7c.193,3.355.046,6.727.046,10.233Z" transform="translate(4.428 84.113)" fill="#4adbd1" stroke="#000" stroke-width="1"/>
    <path id="Trazado_777535" data-name="Trazado 777535" d="M8.607,37.876,4.937,26.883l3.607-1.369,5.723,9.5-5.66,2.864" transform="translate(15.794 81.615)" fill="#5573c6" stroke="#000" stroke-width="1"/>
    <path id="Trazado_777536" data-name="Trazado 777536" d="M14.734,37.853l-5.66-2.838,5.689-9.5,3.628,1.344L14.738,37.853" transform="translate(29.026 81.624)" fill="#5573c6" stroke="#000" stroke-width="1"/>
  </g>
</svg>
