<svg xmlns="http://www.w3.org/2000/svg" xmlns:xlink="http://www.w3.org/1999/xlink" width="162" height="162" viewBox="0 0 162 162">
  <defs>
    <clipPath id="clip-path">
      <rect id="Rectángulo_366792" data-name="Rectángulo 366792" width="93.916" height="70.158" fill="none"/>
    </clipPath>
    <clipPath id="clip-path-2">
      <rect id="Rectángulo_366791" data-name="Rectángulo 366791" width="93.916" height="70.157" fill="none"/>
    </clipPath>
    <clipPath id="clip-path-3">
      <rect id="Rectángulo_366789" data-name="Rectángulo 366789" width="38.772" height="23.492" fill="none"/>
    </clipPath>
    <linearGradient id="linear-gradient" x1="0.5" x2="0.5" y2="1" gradientUnits="objectBoundingBox">
      <stop offset="0" stop-color="#3ab4b1"/>
      <stop offset="1" stop-color="#1a0f91"/>
    </linearGradient>
    <clipPath id="clip-path-4">
      <rect id="Rectángulo_366790" data-name="Rectángulo 366790" width="29.002" height="46.505" fill="none"/>
    </clipPath>
  </defs>
  <g id="Grupo_1033331" data-name="Grupo 1033331" transform="translate(-368 -18393)">
    <circle id="Elipse_8586" data-name="Elipse 8586" cx="81" cy="81" r="81" transform="translate(368 18393)" fill="#fff"/>
    <g id="Grupo_1033279" data-name="Grupo 1033279" transform="translate(385.583 18460)">
      <path id="Trazado_769353" data-name="Trazado 769353" d="M442.808,282.583l-73.9-.547a3.438,3.438,0,0,1-3.344-2.755l-8.9-43.954a3.437,3.437,0,0,1,3.4-4.119l73.9.547a3.436,3.436,0,0,1,3.344,2.755l8.9,43.954a3.438,3.438,0,0,1-3.4,4.119" transform="translate(-356.6 -231.207)" fill="#b0c0d2"/>
      <path id="Trazado_769354" data-name="Trazado 769354" d="M388.991,255.5a6.637,6.637,0,1,0,6.657-6.012,6.354,6.354,0,0,0-6.657,6.012" transform="translate(-352.234 -228.741)" fill="#7b92ba"/>
      <path id="Trazado_781211" data-name="Trazado 781211" d="M0,0H4.414V69.889H0Z" transform="translate(17.213 55.28) rotate(-89.576)" fill="#7b92ba"/>
      <rect id="Rectángulo_363003" data-name="Rectángulo 363003" width="4.414" height="36.417" transform="matrix(0.007, -1, 1, 0.007, 87.1, 55.799)" fill="#d2e0e6"/>
      <path id="Trazado_769355" data-name="Trazado 769355" d="M426.982,233.954q-18.618-.354-37.234.093a.284.284,0,0,0,.024.567q18.616-.448,37.234-.094c.365.008.34-.559-.024-.566" transform="translate(-352.168 -230.855)" fill="#303949"/>
      <path id="Trazado_769356" data-name="Trazado 769356" d="M425.434,234.776c-.065-.357-.6-.182-.54.174q4.06,22.45,7.848,44.947c.059.356.628.337.566-.023q-3.8-22.572-7.874-45.1" transform="translate(-347.398 -230.751)" fill="#303949"/>
      <path id="Trazado_769357" data-name="Trazado 769357" d="M394.229,249.261c-.355.084-.18.624.174.54,8.3-1.96,9.005,12.658.351,11.689-.36-.041-.49.512-.128.553a6.324,6.324,0,0,0,7.072-6.557c-.171-4.178-3.345-7.2-7.468-6.225" transform="translate(-351.555 -228.796)" fill="#303949"/>
      <path id="Trazado_769358" data-name="Trazado 769358" d="M467.5,279.233l-32.014-.252c-.365,0-.341.564.024.566l32.014.253c.365,0,.34-.565-.024-.567" transform="translate(-346.005 -224.769)" fill="#303949"/>
    </g>
    <g id="Grupo_1033278" data-name="Grupo 1033278" transform="translate(415.216 18432.328)">
      <g id="Grupo_1033277" data-name="Grupo 1033277" transform="translate(0)" clip-path="url(#clip-path)">
        <g id="Grupo_1033276" data-name="Grupo 1033276" transform="translate(0 0.001)">
          <g id="Grupo_1033275" data-name="Grupo 1033275" clip-path="url(#clip-path-2)">
            <path id="Trazado_781202" data-name="Trazado 781202" d="M43.641,39.907l2.437-4.476a.536.536,0,0,1,.714-.106l13.65,6.925c.377.191.583.541.455.776L58.06,48.235c-.129.235-.534.252-.9.039L43.938,40.565a.536.536,0,0,1-.3-.657" transform="translate(9.762 7.89)" fill="#b1bac3"/>
            <path id="Trazado_781203" data-name="Trazado 781203" d="M53.612,46.586l3.394-6.233c.116-.214.529-.217.915-.006l3.968,2.161c.387.211.608.558.492.772l-3.4,6.232c-.116.214-.527.217-.914.006L54.1,47.358c-.386-.212-.607-.558-.491-.772" transform="translate(11.996 8.998)" fill="#788f9b"/>
            <path id="Trazado_781204" data-name="Trazado 781204" d="M54.133,47.469l3.844-7.059c.174-.318.858-.3,1.524.05L80.513,51.209c.887.46,1.453,1.143,1.252,1.513L77.29,60.939c-.2.371-1.082.267-1.95-.229L55,48.722c-.654-.372-1.043-.935-.869-1.253" transform="translate(12.11 8.996)" fill="#e6b046"/>
            <path id="Trazado_781205" data-name="Trazado 781205" d="M50.271,37.1l-2.985,5.482.634.371,4.851,2.83.635.371L56.591,40.3Z" transform="translate(10.587 8.305)" fill="#788f9b"/>
            <path id="Trazado_781206" data-name="Trazado 781206" d="M47.4,44.025l4.013-7.37a.659.659,0,0,1,.9-.109l3.64,1.981c.355.193.532.558.394.811l-4.013,7.37a.659.659,0,0,1-.9.109L47.8,44.836c-.355-.193-.532-.558-.394-.811" transform="translate(10.602 8.155)" fill="#e6b046"/>
            <g id="Grupo_1033271" data-name="Grupo 1033271" transform="translate(53.884 43.691)" opacity="0.54" style="mix-blend-mode: overlay;isolation: isolate">
              <g id="Grupo_1033270" data-name="Grupo 1033270">
                <g id="Grupo_1033269" data-name="Grupo 1033269" clip-path="url(#clip-path-3)">
                  <path id="Trazado_781207" data-name="Trazado 781207" d="M45.782,35.7,82.8,55.967,81.043,59.19,67.631,51.847l-23.6-12.923Z" transform="translate(-44.027 -35.699)" fill="#e6b046"/>
                </g>
              </g>
            </g>
            <path id="Trazado_781208" data-name="Trazado 781208" d="M42.1,58.225A30.3,30.3,0,1,0,2.4,42.1,30.3,30.3,0,0,0,42.1,58.225M40.4,54.2A25.932,25.932,0,1,1,54.2,20.221,25.933,25.933,0,0,1,40.4,54.2" transform="translate(0 -0.001)" fill="url(#linear-gradient)"/>
            <path id="Trazado_781209" data-name="Trazado 781209" d="M39.469,52.6A25.061,25.061,0,1,0,6.633,39.268,25.062,25.062,0,0,0,39.469,52.6m.381,2.451A26.814,26.814,0,1,1,54.073,19.941,26.788,26.788,0,0,1,39.85,55.056" transform="translate(0.591 0.792)" fill="#788f9b"/>
            <g id="Grupo_1033274" data-name="Grupo 1033274" transform="translate(6.265 7.917)" opacity="0.34">
              <g id="Grupo_1033273" data-name="Grupo 1033273">
                <g id="Grupo_1033272" data-name="Grupo 1033272" clip-path="url(#clip-path-4)">
                  <path id="Trazado_781210" data-name="Trazado 781210" d="M10.948,44.451a23.2,23.2,0,0,1-5.8-14.186c-.214-5.592.565-11.059,4.014-15.574a23.178,23.178,0,0,1,5.62-5.254,22.455,22.455,0,0,1,3.284-1.8c.859-.382,2.663-.585,3.33-1.163-3.455,3-6.562,6.567-8.149,10.858a19.222,19.222,0,0,0,1.9,16.545,18.213,18.213,0,0,0,5.955,5.987C23.8,41.5,27,41.477,29.659,43a8.747,8.747,0,0,1,4.067,4.231c2.183,5.626-5.219,6.237-8.9,5.487a25.235,25.235,0,0,1-13.875-8.265" transform="translate(-5.119 -6.469)" fill="#f0f1f1"/>
                </g>
              </g>
            </g>
          </g>
        </g>
      </g>
    </g>
  </g>
</svg>
