<svg xmlns="http://www.w3.org/2000/svg" xmlns:xlink="http://www.w3.org/1999/xlink" width="288" height="186.815" viewBox="0 0 288 186.815">
  <defs>
    <clipPath id="clip-path">
      <rect id="Rectángulo_362720" data-name="Rectángulo 362720" width="288" height="186.816" fill="none"/>
    </clipPath>
    <clipPath id="clip-path-3">
      <rect id="Rectángulo_362681" data-name="Rectángulo 362681" width="56.21" height="53.959" fill="none"/>
    </clipPath>
    <clipPath id="clip-path-4">
      <rect id="Rectángulo_362682" data-name="Rectángulo 362682" width="74.649" height="32.918" fill="none"/>
    </clipPath>
    <clipPath id="clip-path-5">
      <rect id="Rectángulo_362683" data-name="Rectángulo 362683" width="74.819" height="33.212" fill="none"/>
    </clipPath>
    <clipPath id="clip-path-6">
      <rect id="Rectángulo_362684" data-name="Rectángulo 362684" width="56.349" height="54.39" fill="none"/>
    </clipPath>
    <clipPath id="clip-path-7">
      <rect id="Rectángulo_362695" data-name="Rectángulo 362695" width="139.654" height="70.506" fill="none"/>
    </clipPath>
    <clipPath id="clip-path-8">
      <rect id="Rectángulo_362706" data-name="Rectángulo 362706" width="42.655" height="62.253" fill="none"/>
    </clipPath>
    <clipPath id="clip-path-9">
      <rect id="Rectángulo_362715" data-name="Rectángulo 362715" width="26.026" height="53.604" fill="none"/>
    </clipPath>
    <clipPath id="clip-path-10">
      <rect id="Rectángulo_362716" data-name="Rectángulo 362716" width="1.493" height="7.483" fill="none"/>
    </clipPath>
    <clipPath id="clip-path-11">
      <rect id="Rectángulo_362717" data-name="Rectángulo 362717" width="1.37" height="2.486" fill="none"/>
    </clipPath>
    <clipPath id="clip-path-12">
      <rect id="Rectángulo_362718" data-name="Rectángulo 362718" width="4.193" height="14.65" fill="none"/>
    </clipPath>
  </defs>
  <g id="Grupo_1027641" data-name="Grupo 1027641" transform="translate(2 -20)">
    <g id="Grupo_1027640" data-name="Grupo 1027640" transform="translate(-2 20)" clip-path="url(#clip-path)">
      <g id="Grupo_1027639" data-name="Grupo 1027639">
        <g id="Grupo_1027638" data-name="Grupo 1027638" clip-path="url(#clip-path)">
          <path id="Trazado_768495" data-name="Trazado 768495" d="M631.222,89.207a7.545,7.545,0,0,0-13.605-4.493,10.194,10.194,0,0,0-4.248-5.229,12.768,12.768,0,1,0-25.34-3.159,11.569,11.569,0,0,0-16.4,8.384,7.549,7.549,0,0,0-9.895,7.171c0,1.839.047,4.9,1.751,4.833,19.54-.756,39.035-.453,64.114,0,2.794.051,3.624-4.776,3.624-7.507" transform="translate(-358.822 -41.574)" fill="#e8e8e8"/>
          <path id="Trazado_768496" data-name="Trazado 768496" d="M69.49,132.991A7.545,7.545,0,0,0,55.884,128.5a10.192,10.192,0,0,0-4.248-5.229,12.925,12.925,0,0,0,.1-1.635A12.767,12.767,0,0,0,26.3,120.11a11.569,11.569,0,0,0-16.4,8.385,7.548,7.548,0,0,0-9.9,7.17c0,1.839.047,4.9,1.752,4.833,19.54-.756,39.035-.453,64.114,0,2.794.051,3.624-4.776,3.624-7.507" transform="translate(0 -69.542)" fill="#e8e8e8"/>
          <path id="Trazado_768497" data-name="Trazado 768497" d="M341.338,15.06c-3.047-1.693-8.237-.574-10.889-2.471-2.113-1.511-.744-4-1.967-5.69-1.149-1.585-3.324-1.878-4.855-2.672-5.027-2.606-5.58-1.73-10.263.382-1.334.6-3.819,1.227-5.157.886-2.3-.587-2.021-2.63-3.1-3.735-2.8-2.877-7.265-1.986-9.642.927-1.882,2.307-2.778,6.312-4.794,8.383-3.544,3.641-5.38-.049-8.976-1.15-2.518-.77-8.13.078-9.693,1.9-2.054,2.4-2.188,8.469.424,10.5,2.529,1.963,8.164,1.037,12.1,1.612a79.054,79.054,0,0,0,11.373.4h22.859c7.04,0,15.946,1.573,21.889-1.925,3.3-1.943,5.361-4.755.687-7.352" transform="translate(-172.769 0)" fill="#e8e8e8"/>
          <path id="Trazado_768498" data-name="Trazado 768498" d="M74.009,97.627q.815.778,1.6,1.564.3.3.59.594c7.07,7.191,12.275,14.759,14.954,21.244q.207.5.394,1h0c2.226,5.867,2.279,10.752-.358,13.514-.032.034-.065.067-.1.1a6.375,6.375,0,0,1-.621.547c-3.075,2.378-8.393,2.094-14.712-.358q-.591-.23-1.194-.484c-6.806-2.875-14.644-8.138-22.047-15.2q-.868-.828-1.679-1.691h0q-.345-.367-.681-.74h0c-6.261-6.952-9.915-15.26-12.027-22.089q-.129-.418-.251-.83A70.276,70.276,0,0,1,35.407,82.92c-.049-.451-.068-.692-.068-.692s.189.005.543.026a71.711,71.711,0,0,1,15.629,2.885q.377.113.758.232c7.049,2.2,15.116,5.932,21.741,12.256" transform="translate(-22.574 -52.525)" fill="#4adbd1"/>
          <g id="Grupo_1027610" data-name="Grupo 1027610" transform="translate(12.765 29.702)" style="mix-blend-mode: overlay;isolation: isolate">
            <g id="Grupo_1027609" data-name="Grupo 1027609">
              <g id="Grupo_1027608" data-name="Grupo 1027608" clip-path="url(#clip-path-3)">
                <path id="Trazado_768499" data-name="Trazado 768499" d="M76.2,99.785,67.882,116.64A211.291,211.291,0,0,0,85.844,131.9l5.31-10.875q.207.5.394,1h0l-5.059,10.36q2.3,1.7,4.6,3.254a6.366,6.366,0,0,1-.621.547q-2.239-1.511-4.567-3.232l-10.145,2.874q-.591-.23-1.194-.485l10.539-2.985q-3.184-2.386-6.523-5.152-5.472-4.534-11.33-10.059l-16.413,1.3h0q-.345-.367-.681-.74l16.32-1.293q-5.736-5.45-11.763-11.773c-2.555-2.681-4.987-5.313-7.261-7.828l-9.323-1.2q-.129-.419-.251-.83l8.761,1.123c-4.518-5.026-8.367-9.543-11.235-12.993-.049-.45-.068-.692-.068-.692s.189.006.543.026c2.934,3.532,6.925,8.219,11.627,13.44l4-10.555q.377.113.758.232L48.1,96.353c2.253,2.491,4.662,5.1,7.19,7.749,3.6,3.781,7.658,7.874,11.985,11.97L75.611,99.19q.3.3.59.594" transform="translate(-35.339 -82.227)"/>
              </g>
            </g>
          </g>
          <path id="Trazado_768500" data-name="Trazado 768500" d="M41.29,201.156q1.09.286,2.159.593.4.115.8.234c9.668,2.866,17.887,6.965,23.373,11.342q.425.339.827.68h0c4.789,4.054,7.2,8.3,6.233,12-.012.045-.024.09-.037.134a6.331,6.331,0,0,1-.278.78c-1.538,3.57-6.328,5.9-13.044,6.813q-.629.086-1.279.155c-7.347.781-16.753-.026-26.652-2.622q-1.161-.3-2.288-.666h0q-.48-.154-.954-.318h0c-8.846-3.049-16.067-8.548-21.222-13.5q-.316-.3-.622-.6a70.338,70.338,0,0,1-7.914-9.185c-.262-.37-.395-.573-.395-.573s.168-.086.488-.24a71.735,71.735,0,0,1,15.071-5.047q.385-.083.776-.164c7.233-1.489,16.1-2.132,24.957.191" transform="translate(0 -127.516)" fill="#e6b046"/>
          <g id="Grupo_1027613" data-name="Grupo 1027613" transform="translate(0 73.449)" style="mix-blend-mode: overlay;isolation: isolate">
            <g id="Grupo_1027612" data-name="Grupo 1027612">
              <g id="Grupo_1027611" data-name="Grupo 1027611" clip-path="url(#clip-path-4)">
                <path id="Trazado_768501" data-name="Trazado 768501" d="M44.252,204.351l.888,18.775a211.433,211.433,0,0,0,23.108,4.653l-.622-12.087q.424.339.827.68h0l.593,11.513q2.837.372,5.6.617a6.428,6.428,0,0,1-.278.779q-2.691-.237-5.561-.615L61.327,236.1q-.629.086-1.279.155l7.775-7.717q-3.941-.545-8.2-1.347c-4.655-.877-9.595-1.984-14.785-3.311l-13.728,9.087h0q-.48-.154-.954-.318L43.8,223.609q-7.658-1.99-15.994-4.6c-3.533-1.108-6.937-2.232-10.145-3.331l-8.735,3.47q-.315-.3-.621-.6l8.209-3.261c-6.387-2.208-11.943-4.3-16.123-5.924-.262-.37-.395-.573-.395-.573s.168-.086.488-.24c4.278,1.668,10.04,3.836,16.682,6.126L15.558,203.5q.384-.083.776-.164l1.677,11.625c3.178,1.088,6.547,2.2,10.043,3.3,4.984,1.562,10.514,3.179,16.283,4.666l-.889-18.8q.4.116.8.234" transform="translate(0 -203.333)"/>
              </g>
            </g>
          </g>
          <path id="Trazado_768502" data-name="Trazado 768502" d="M631.573,229.768q-1.09.289-2.171.548-.408.1-.815.192c-9.826,2.268-19,2.75-25.927,1.644q-.537-.086-1.055-.184h0c-6.165-1.169-10.357-3.678-11.334-7.369-.012-.045-.023-.09-.034-.135a6.371,6.371,0,0,1-.142-.815c-.42-3.864,2.6-8.25,8-12.355q.505-.384,1.037-.764c6.009-4.3,14.592-8.231,24.485-10.848q1.16-.307,2.319-.547h0q.493-.1.987-.194h0c9.2-1.7,18.193-.476,25.118,1.292q.424.109.839.22a70.351,70.351,0,0,1,11.412,4.095c.41.194.626.3.626.3s-.1.157-.306.449a71.724,71.724,0,0,1-10.629,11.816q-.294.263-.594.525c-5.561,4.859-12.959,9.786-21.812,12.128" transform="translate(-376.915 -126.557)" fill="#4adbd1"/>
          <g id="Grupo_1027616" data-name="Grupo 1027616" transform="translate(213.181 72.383)" style="mix-blend-mode: overlay;isolation: isolate">
            <g id="Grupo_1027615" data-name="Grupo 1027615">
              <g id="Grupo_1027614" data-name="Grupo 1027614" clip-path="url(#clip-path-5)">
                <path id="Trazado_768503" data-name="Trazado 768503" d="M628.657,231.949l-10.022-15.9a211.456,211.456,0,0,0-22.4,7.335l6.5,10.211q-.536-.086-1.055-.184h0l-6.187-9.727q-2.652,1.073-5.181,2.224a6.446,6.446,0,0,1-.142-.815q2.458-1.119,5.142-2.2l2.853-10.151q.505-.384,1.037-.765l-2.964,10.545q3.7-1.467,7.8-2.867c4.483-1.53,9.327-3,14.5-4.4L626,200.575h0q.494-.1.987-.194L619.56,214.97q7.644-2.042,16.185-3.875c3.621-.776,7.136-1.475,10.469-2.1l5.893-7.323q.424.109.838.22l-5.537,6.882c6.646-1.225,12.509-2.145,16.949-2.787.41.194.626.3.626.3s-.1.158-.306.449c-4.545.655-10.627,1.607-17.535,2.887l6.906,8.929q-.294.262-.594.524l-7.186-9.291c-3.3.618-6.782,1.31-10.364,2.079-5.107,1.1-10.716,2.412-16.469,3.96l10.037,15.927q-.408.1-.815.192" transform="translate(-590.164 -200.381)"/>
              </g>
            </g>
          </g>
          <path id="Trazado_768504" data-name="Trazado 768504" d="M580.43,153.379q-.813.78-1.633,1.531-.31.284-.62.562c-7.5,6.744-15.288,11.609-21.886,14q-.511.184-1.012.349h0c-5.96,1.963-10.842,1.8-13.485-.956-.032-.034-.064-.068-.1-.1a6.4,6.4,0,0,1-.519-.644c-2.239-3.177-1.719-8.478,1.01-14.682q.256-.58.537-1.171c3.174-6.672,8.779-14.269,16.166-21.35q.866-.831,1.764-1.6h0q.382-.329.769-.647h0c7.223-5.948,15.685-9.229,22.6-11.036q.424-.111.84-.214a70.325,70.325,0,0,1,11.967-1.946c.452-.029.695-.037.695-.037s-.014.188-.05.541a71.732,71.732,0,0,1-3.575,15.486q-.129.371-.266.747c-2.511,6.944-6.6,14.838-13.207,21.176" transform="translate(-344.797 -73.733)" fill="#e6b046"/>
          <g id="Grupo_1027619" data-name="Grupo 1027619" transform="translate(196.382 41.696)" style="mix-blend-mode: overlay;isolation: isolate">
            <g id="Grupo_1027618" data-name="Grupo 1027618">
              <g id="Grupo_1027617" data-name="Grupo 1027617" clip-path="url(#clip-path-6)">
                <path id="Trazado_768505" data-name="Trazado 768505" d="M580.656,155.472l-16.47-9.057a211.441,211.441,0,0,0-16.045,17.268l10.629,5.787q-.511.185-1.012.35h0l-10.125-5.513q-1.8,2.223-3.455,4.455a6.391,6.391,0,0,1-.519-.644q1.609-2.17,3.43-4.419l-2.421-10.263q.256-.581.537-1.171l2.515,10.661q2.524-3.075,5.436-6.288,4.771-5.266,10.551-10.873l-.571-16.454h0q.381-.329.769-.647l.568,16.361q5.7-5.489,12.282-11.23c2.791-2.433,5.528-4.747,8.142-6.907l1.607-9.261q.424-.11.84-.214l-1.511,8.7c5.221-4.291,9.9-7.936,13.478-10.648.452-.029.695-.037.695-.037s-.014.188-.05.541c-3.659,2.775-8.518,6.554-13.942,11.02l10.367,4.466q-.13.372-.266.747l-10.787-4.647c-2.589,2.14-5.3,4.431-8.06,6.839-3.937,3.432-8.206,7.3-12.489,11.442l16.5,9.072q-.31.284-.62.562" transform="translate(-543.658 -115.429)"/>
              </g>
            </g>
          </g>
          <path id="Trazado_768506" data-name="Trazado 768506" d="M57.173,302.7c-7.375-2.636-23.218-14.41-15.882-27s18.446-12.852,25.282-19.559,4.843-15.538-1.709-22.09-4.752-14.5,5.97-16.934,89.458-15.54,103.416-16.395,87.73,2.717,101.125,7.122c28.2,9.273,34.183,25,23.644,28.737s-17.518,15.383-8.831,19.56C305,263.262,317.277,284.061,302.45,293.1s-50.718,21.854-116.806,21.854c-35.607,0-98.091-1.389-128.472-12.249" transform="translate(-25.166 -128.135)" fill="#e8e8e8"/>
          <path id="Trazado_768507" data-name="Trazado 768507" d="M322.426,296.168l-1.817,39.119h24.377l-1.912-39.119Z" transform="translate(-204.798 -189.185)" fill="#15b0c0"/>
          <path id="Trazado_768508" data-name="Trazado 768508" d="M289.673,99.583H154.085a7.14,7.14,0,0,0-7.118,7.118v66.438a7.14,7.14,0,0,0,7.118,7.118H289.673a7.14,7.14,0,0,0,7.118-7.118V106.7a7.14,7.14,0,0,0-7.118-7.118" transform="translate(-93.879 -63.611)" fill="#295a70"/>
          <rect id="Rectángulo_362685" data-name="Rectángulo 362685" width="139.654" height="70.505" transform="translate(58.173 41.056)" fill="#15b0c0"/>
          <rect id="Rectángulo_362686" data-name="Rectángulo 362686" width="26.196" height="10.894" transform="translate(60.898 42.315)" fill="#5573c6"/>
          <rect id="Rectángulo_362687" data-name="Rectángulo 362687" width="63.421" height="10.894" transform="translate(92.264 42.315)" fill="#eafff3"/>
          <rect id="Rectángulo_362688" data-name="Rectángulo 362688" width="34.468" height="10.894" transform="translate(160.511 42.315)" fill="#5573c6"/>
          <rect id="Rectángulo_362689" data-name="Rectángulo 362689" width="26.196" height="15.855" transform="translate(60.898 91.605)" fill="#acd9ea"/>
          <rect id="Rectángulo_362690" data-name="Rectángulo 362690" width="30.714" height="15.855" transform="translate(90.886 91.605)" fill="#acd9ea"/>
          <rect id="Rectángulo_362691" data-name="Rectángulo 362691" width="28.285" height="15.855" transform="translate(125.391 91.605)" fill="#acd9ea"/>
          <rect id="Rectángulo_362692" data-name="Rectángulo 362692" width="36.795" height="15.855" transform="translate(157.065 91.605)" fill="#acd9ea"/>
          <rect id="Rectángulo_362693" data-name="Rectángulo 362693" width="45.344" height="28.695" transform="translate(60.898 57.74)" fill="#e0b27c"/>
          <rect id="Rectángulo_362694" data-name="Rectángulo 362694" width="85.826" height="28.695" transform="translate(109.154 57.74)" fill="#4adbd1"/>
          <g id="Grupo_1027622" data-name="Grupo 1027622" transform="translate(58.173 41.056)" opacity="0.2" style="mix-blend-mode: overlay;isolation: isolate">
            <g id="Grupo_1027621" data-name="Grupo 1027621">
              <g id="Grupo_1027620" data-name="Grupo 1027620" clip-path="url(#clip-path-7)">
                <path id="Trazado_768509" data-name="Trazado 768509" d="M300.7,184.164V113.659L161.044,184.164Z" transform="translate(-161.044 -113.658)"/>
              </g>
            </g>
          </g>
          <path id="Trazado_768510" data-name="Trazado 768510" d="M329.516,394.762H283.683a4.087,4.087,0,0,0-4.087,4.088v.292a4.088,4.088,0,0,0,4.087,4.088h45.833a4.087,4.087,0,0,0,4.087-4.088v-.292a4.086,4.086,0,0,0-4.087-4.088" transform="translate(-178.599 -252.165)" fill="#295a70"/>
          <path id="Trazado_768511" data-name="Trazado 768511" d="M491.939,233.8H450.525c-1.2,0-2.175,2.828-2.175,6.285v58.662c0,3.456.979,6.286,2.175,6.286h41.414c1.194,0,2.174-2.829,2.174-6.286V240.083c0-3.457-.98-6.285-2.174-6.285" transform="translate(-286.396 -149.345)" fill="#295a70"/>
          <rect id="Rectángulo_362696" data-name="Rectángulo 362696" width="42.655" height="62.252" transform="translate(163.508 88.943)" fill="#15b0c0"/>
          <rect id="Rectángulo_362697" data-name="Rectángulo 362697" width="7.876" height="9.861" transform="translate(164.485 90.34)" fill="#5573c6"/>
          <rect id="Rectángulo_362698" data-name="Rectángulo 362698" width="19.069" height="9.861" transform="translate(173.916 90.34)" fill="#eafff3"/>
          <rect id="Rectángulo_362699" data-name="Rectángulo 362699" width="10.363" height="9.861" transform="translate(194.436 90.34)" fill="#5573c6"/>
          <rect id="Rectángulo_362700" data-name="Rectángulo 362700" width="7.876" height="14.351" transform="translate(164.485 134.954)" fill="#acd9ea"/>
          <rect id="Rectángulo_362701" data-name="Rectángulo 362701" width="9.235" height="14.351" transform="translate(173.501 134.954)" fill="#acd9ea"/>
          <rect id="Rectángulo_362702" data-name="Rectángulo 362702" width="8.505" height="14.351" transform="translate(183.876 134.954)" fill="#acd9ea"/>
          <rect id="Rectángulo_362703" data-name="Rectángulo 362703" width="11.063" height="14.351" transform="translate(193.4 134.954)" fill="#acd9ea"/>
          <rect id="Rectángulo_362704" data-name="Rectángulo 362704" width="13.634" height="25.972" transform="translate(164.485 104.302)" fill="#b0d9c7"/>
          <rect id="Rectángulo_362705" data-name="Rectángulo 362705" width="25.806" height="25.972" transform="translate(178.994 104.302)" fill="#4adbd1"/>
          <g id="Grupo_1027625" data-name="Grupo 1027625" transform="translate(163.508 88.942)" opacity="0.2" style="mix-blend-mode: overlay;isolation: isolate">
            <g id="Grupo_1027624" data-name="Grupo 1027624">
              <g id="Grupo_1027623" data-name="Grupo 1027623" clip-path="url(#clip-path-8)">
                <path id="Trazado_768512" data-name="Trazado 768512" d="M495.307,308.478V246.226l-42.655,62.252Z" transform="translate(-452.652 -246.225)"/>
              </g>
            </g>
          </g>
          <path id="Trazado_768513" data-name="Trazado 768513" d="M505.77,237.435H494.386a.876.876,0,1,0,0,1.752H505.77a.876.876,0,0,0,0-1.752" transform="translate(-315.242 -151.668)"/>
          <path id="Trazado_768514" data-name="Trazado 768514" d="M509.369,421.7a1.314,1.314,0,1,0,1.313,1.314,1.314,1.314,0,0,0-1.313-1.314" transform="translate(-324.534 -269.37)"/>
          <path id="Trazado_768515" data-name="Trazado 768515" d="M572.906,296.167H551.349a3.7,3.7,0,0,0-3.691,3.69v49.136a3.7,3.7,0,0,0,3.691,3.69h21.557a3.7,3.7,0,0,0,3.69-3.69V299.857a3.7,3.7,0,0,0-3.69-3.69" transform="translate(-349.831 -189.185)" fill="#2c5570"/>
          <path id="Trazado_768516" data-name="Trazado 768516" d="M576.356,300.454s-7.639.016-9.9,0c-.7,0-.784,1.263-1.748,1.263s-1.051-1.257-1.748-1.263c-2.46-.017-9.9,0-9.9,0a1.363,1.363,0,0,0-1.36,1.36V352.7a1.364,1.364,0,0,0,1.36,1.359h23.3a1.365,1.365,0,0,0,1.361-1.359V301.813a1.365,1.365,0,0,0-1.361-1.36" transform="translate(-352.408 -191.918)" fill="#23b7a9"/>
          <rect id="Rectángulo_362707" data-name="Rectángulo 362707" width="4.638" height="10.451" transform="translate(200.467 109.482)" fill="#5573c6"/>
          <rect id="Rectángulo_362708" data-name="Rectángulo 362708" width="11.23" height="10.451" transform="translate(206.021 109.482)" fill="#eafff3"/>
          <rect id="Rectángulo_362709" data-name="Rectángulo 362709" width="6.103" height="10.451" transform="translate(218.105 109.482)" fill="#5573c6"/>
          <rect id="Rectángulo_362710" data-name="Rectángulo 362710" width="23.314" height="4.174" transform="translate(200.894 144.707)" fill="#acd9ea"/>
          <rect id="Rectángulo_362711" data-name="Rectángulo 362711" width="23.315" height="4.174" transform="translate(200.68 150.39)" fill="#acd9ea"/>
          <rect id="Rectángulo_362712" data-name="Rectángulo 362712" width="23.315" height="4.174" transform="translate(200.468 156.073)" fill="#acd9ea"/>
          <rect id="Rectángulo_362713" data-name="Rectángulo 362713" width="23.741" height="10.214" transform="translate(200.467 121.116)" fill="#b0d9c7"/>
          <rect id="Rectángulo_362714" data-name="Rectángulo 362714" width="23.741" height="11.407" transform="translate(200.467 132.068)" fill="#4adbd1"/>
          <g id="Grupo_1027628" data-name="Grupo 1027628" transform="translate(199.284 108.536)" opacity="0.2" style="mix-blend-mode: overlay;isolation: isolate">
            <g id="Grupo_1027627" data-name="Grupo 1027627">
              <g id="Grupo_1027626" data-name="Grupo 1027626" clip-path="url(#clip-path-9)">
                <path id="Trazado_768517" data-name="Trazado 768517" d="M576.356,300.467l-24.664,52.244a1.364,1.364,0,0,0,1.36,1.359h23.3a1.365,1.365,0,0,0,1.361-1.359V301.827a1.365,1.365,0,0,0-1.361-1.36" transform="translate(-551.692 -300.467)"/>
              </g>
            </g>
          </g>
          <path id="Trazado_768518" data-name="Trazado 768518" d="M586.705,299.93a.57.57,0,1,0,.57.57.571.571,0,0,0-.57-.57" transform="translate(-374.409 -191.588)" fill="#163b4f"/>
          <path id="Trazado_768519" data-name="Trazado 768519" d="M585.834,297.6h-4.242a.243.243,0,0,0,0,.485h4.242a.243.243,0,0,0,0-.485" transform="translate(-371.354 -190.101)" fill="#2f3030"/>
          <path id="Trazado_768520" data-name="Trazado 768520" d="M542.532,216.9c1.229.566,3.366.24,4.711.39,1.672.187,5.469.718,7.1.3.465-.119.956-.229,1.161-.662a1.838,1.838,0,0,0-.271-1.918c-.57-.521-2.535-.206-2.971-.133a17.153,17.153,0,0,1-3.546.165c-1.957-.022-4.04.226-4.767-.271-.915-.625-3.188-1.7-5-2.93a10.164,10.164,0,0,1-2.892-2.673c-.207-.564.424-4.03-.148-3.847-.111.036-.048.04-.075.766a11.651,11.651,0,0,1-.128,1.289s.081-2.788-.228-2.7c-.2.055-.019.816-.068,1.523a5.747,5.747,0,0,1-.243,1.325s.134-2.76-.278-2.451c-.2.153,0,.706-.074,1.333-.094.785-.14,1.188-.14,1.188a11.426,11.426,0,0,0-.232-1.884c-.276,0-.116,1-.159,1.766-.02.359-.2.963-.206,1.165-.016.71-.128,1.046.433,1.481.287.223.934.593,1.291.832a25.666,25.666,0,0,1,2,1.942c1.082.872,3.469,3.427,4.73,4.008" transform="translate(-341.143 -130.736)" fill="#f7b691"/>
          <path id="Trazado_768521" data-name="Trazado 768521" d="M521.026,337.736c-.654.634-.757,3.135-1.338,3.837-.667.8-2.991,3.565-2.462,4.132.29.311,1.794-1.875,3.063-2.386.986-.4,1.222-.17,1.548-.677.36-.558-.184-1.153-.073-1.808.168-1,2.049-3.123,1.328-3.837-.39-.386-1.672.356-2.066.738" transform="translate(-330.342 -215.197)" fill="#f7b691"/>
          <path id="Trazado_768522" data-name="Trazado 768522" d="M583.142,246.368c-.339-2.727-.615-5.612.1-7.375a31.3,31.3,0,0,0,1.725-7.746,4.957,4.957,0,0,0-.987-3.174c-1.027-1.2-5.651,2.149-6.372,3.551-1.02,1.983.506,2.686.659,4.28.256,2.673.4,3.9-.19,5.893-.351,1.186-2.208,3.726-1.476,4.722.809,1.1,6.7,1.2,6.536-.151" transform="translate(-368.214 -145.526)" fill="#f4a338"/>
          <path id="Trazado_768523" data-name="Trazado 768523" d="M588.2,216.82c-.318-.341.392-1,.832-1.684a2.226,2.226,0,0,0,.423-1.71c-.114-.367-.887-.89-.959-1.267-.1-.541-.016-.764.611-1.524.042-.05-.087-.53-.046-.578.311-.368,1.049-.6,1.213-.767.088-.091-.038-.2-.008-.242.207-.277,1.274-1.323,2.172-1.131,2.767.591,3.215,2.287,1.961,4.132a13.3,13.3,0,0,1-2.285,1.672c-.754.6-.581,1.857-1.4,2.361-.557.341-2.062,1.215-2.509.738" transform="translate(-375.68 -132.798)" fill="#f7b691"/>
          <path id="Trazado_768524" data-name="Trazado 768524" d="M525.125,308.016c.023-2.345,1.652-7.712,2.324-10.182a26.559,26.559,0,0,1,1.181-4.28,9.634,9.634,0,0,1,1.837-2.124c.674-.552,7.608-4.468,8.419-4.3.521.111,6.118,1.925,6.272,2.435.1.331-3.369.228-6.05,1.519a20.1,20.1,0,0,0-6.2,5.123,22.733,22.733,0,0,0-1.771,4.132s-1.239,3.2-1.623,4.279a27.677,27.677,0,0,1-2.14,3.542c-.524.758-2.261.922-2.25-.148" transform="translate(-335.438 -183.412)" fill="#5573c6"/>
          <path id="Trazado_768525" data-name="Trazado 768525" d="M569.142,322.959c-.05.626,1.407,1.328,1.623,1.918a13.212,13.212,0,0,1,0,3.394c0,.627-.111,1.643.419,1.585.592-.065.366-2.609,1.129-3.428.469-.5,1.129-.973.812-1.735-.273-.658-.545-.526-1.18-.849-.558-.284-1.145-1.747-1.771-1.771a1.4,1.4,0,0,0-1.033.885" transform="translate(-363.554 -205.733)" fill="#f7b691"/>
          <path id="Trazado_768526" data-name="Trazado 768526" d="M536.909,282.7c1.593,3.915,8.463,9.566,12.544,11.658.692.355,2-.407,1.918-1.18-.313-2.866-8.19-10.4-8.19-10.4s5.4-.089,6.272-.074c2.213.037,6.478.6,7.969-.738,1.094-.98.918-4.774.074-5.976-1.028-1.465-4.19-.912-5.976-.812a34.446,34.446,0,0,0-5.608,1.476c-1.524.442-4.592,1.293-6.05,1.918-.774.332-2.523.9-2.952,1.623a3.882,3.882,0,0,0,0,2.509" transform="translate(-342.831 -175.656)" fill="#829dd1"/>
          <path id="Trazado_768527" data-name="Trazado 768527" d="M601.616,243.164c-.179-1.342-1.6-2.973-2.187-4.19-.736-1.514-2.318-5.007-3.542-6.161-.349-.329-.7-.685-1.18-.627a1.837,1.837,0,0,0-1.476,1.255c-.136.76,1.181,2.252,1.476,2.582a17.254,17.254,0,0,1,2.034,2.909c1.028,1.666,2.35,3.294,2.319,4.174-.039,1.108.263,3.606.2,5.792a10.173,10.173,0,0,1-.713,3.874c-.366.476-3.633,1.8-3.173,2.181.089.074.059.019.687-.346a11.514,11.514,0,0,1,1.157-.581s-2.4,1.421-2.163,1.637c.152.138.7-.42,1.324-.756a5.736,5.736,0,0,1,1.25-.5s-2.4,1.362-1.923,1.545c.238.09.6-.379,1.167-.65.713-.34,1.079-.517,1.079-.517a11.474,11.474,0,0,0-1.468,1.2c.151.23.907-.436,1.578-.81.315-.175.921-.345,1.095-.449.608-.366.952-.452,1.02-1.158.034-.361,0-1.107.013-1.535a25.8,25.8,0,0,1,.572-2.73c.159-1.38,1.043-4.763.859-6.14" transform="translate(-378.936 -148.311)" fill="#f7b691"/>
          <path id="Trazado_768528" data-name="Trazado 768528" d="M604.35,217.576c-.261-.306-.583-.355-.742-.709a6.043,6.043,0,0,1-.228-1.355c-.093-.564-.377-.628-.536-1.108-.147-.445,0-.875-.122-1.324-.256-.95-1.106-.819-1.7-1.57-.19-.239-.11-.609-.161-.912q-.118-.7-.234-1.4a3.434,3.434,0,0,0-.116-.687c-.087-.211-.194-.232-.308-.423-.43-.719-.427-1.457-1.423-1.633-.693-.122-2.062.036-2.22.823a3.687,3.687,0,0,0,.233,1.368c.064.39-.54.984-.323,1.328.1.165.726-.246.734.263.005.332-.268.485-.365.783a4,4,0,0,0-.183.68c-.05.322.279.44.435.654.249.342.091.375.042.709a1.838,1.838,0,0,0,.49,1.48c.276.414.516,1.118.119,1.472a1.453,1.453,0,0,0,.068.977c.2.326.459.267.737.379a2.009,2.009,0,0,1,1.1,1.147c.193.665.444,1.091,1.214,1.054.339-.016.69-.186,1.028-.173.423.017.281.3.695.524.445.236,1.109-.1,1.584-.269.839-.3.674-1.508.183-2.082" transform="translate(-380.978 -131.857)" fill="#661400"/>
          <path id="Trazado_768529" data-name="Trazado 768529" d="M521.14,349.676a3.058,3.058,0,0,1-1.32,1.165c-.894.272-1.541-.37-1.7-.256-.093.065-.975,1.666-1.17,1.872s-.8,1.255-.543,1.561c.208.245.916-.128,1.242-.351a4.566,4.566,0,0,0,1.1-1.261c.176-.247.732-.726.951-.722.285,0,.351.17.351.17l1.43-.8a2.275,2.275,0,0,0,.01-.716c-.065-.388-.266-.77-.348-.662" transform="translate(-329.825 -223.353)" fill="#1f0c00"/>
          <path id="Trazado_768530" data-name="Trazado 768530" d="M575.2,327.609a3.055,3.055,0,0,1-.448,1.7c-.59.724-1.486.551-1.558.738-.041.105.118,1.926.072,2.207s.032,1.49.419,1.6c.309.087.689-.616.835-.983a4.562,4.562,0,0,0,.212-1.662,2.139,2.139,0,0,1,.388-1.13c.238-.155.386-.055.386-.055l.742-1.46a2.274,2.274,0,0,0-.39-.6c-.271-.286-.649-.491-.658-.355" transform="translate(-366.137 -209.242)" fill="#1f0c00"/>
          <path id="Trazado_768531" data-name="Trazado 768531" d="M406.482,403.833a5.268,5.268,0,0,0,.137,1.295c.44.96.849,1.684.578,1.784-.12.044-.164-.316-.287-.524s-.233-.215-.247-.017c-.049.736.066,2.228-.213,2.1a9.388,9.388,0,0,1-.133-1.8s-.036.37-.038.789c0,.551.022,1.188-.074,1.2-.047.007-.054-.018-.116-.055a14.816,14.816,0,0,1-.2-1.878,4.237,4.237,0,0,0-.037.577,3.978,3.978,0,0,1-.028,1.052c-.272.027-.341-1.866-.341-1.866s-.019.386,0,.715c.021.35.067.617,0,.636-.317.086-.393-1.864-.228-2.65.044-.209.26-.735.28-.981a30.846,30.846,0,0,0-.437-3.9l1.468-.131a21.651,21.651,0,0,0-.086,3.658" transform="translate(-258.768 -255.622)" fill="#f7b691"/>
          <path id="Trazado_768532" data-name="Trazado 768532" d="M449.733,392.237a5.272,5.272,0,0,0,.846.989c.906.541,1.654.906,1.488,1.142-.074.1-.314-.167-.534-.269s-.314-.044-.213.126c.377.634,1.317,1.8,1.011,1.847a9.386,9.386,0,0,1-1.132-1.411s.18.325.416.672c.311.454.692.966.621,1.032-.035.032-.055.016-.126.021a14.845,14.845,0,0,1-1.228-1.435,4.237,4.237,0,0,0,.3.5c.266.381.625.839.573.882-.208.176-1.339-1.344-1.339-1.344s.2.329.406.589c.216.276.4.47.359.524-.212.251-1.381-1.313-1.691-2.054-.082-.2-.2-.753-.325-.967a19.855,19.855,0,0,0-2.085-2.833l.652-1.069a21.668,21.668,0,0,0,2,3.062" transform="translate(-285.583 -248.596)" fill="#f7b691"/>
          <path id="Trazado_768533" data-name="Trazado 768533" d="M420.1,368.08s-.4-1.485-.553-2.065c-.66-2.539-1.379-6.166-2.641-7.378-.829-.8-3.8-.663-3.8-.663h-2.931s-2.781-.2-3.629.768c-.7.8-1.081,4.467-1.081,4.467l-.7,6.316-.558,7.922,2.169-.066s-.151-2.342-.111-3.284c.122-2.845,1.4-11.306,1.4-11.306a13.806,13.806,0,0,1,1.971,3.974,30.888,30.888,0,0,1,1.029,3.563,1.43,1.43,0,0,1-.663,1.4H416.1a2.067,2.067,0,0,1-.288-.493,2.483,2.483,0,0,1-.2-.9,28.142,28.142,0,0,1,.2-3.118c.005-.048.01-.1.018-.149,0-.008,0-.018,0-.027.076-.558.255-1.39.433-2.149.1-.423.2-.822.277-1.137v0c.1-.4.173-.669.173-.669s.365,1.832.854,3.69a1.334,1.334,0,0,0,.164.609c.17.312.437.745.754,1.238,1.228,1.9,3.211,4.672,3.211,4.672l1.124-.56a21.438,21.438,0,0,1-2.731-4.642" transform="translate(-258.194 -228.654)" fill="#f4a338"/>
          <path id="Trazado_768534" data-name="Trazado 768534" d="M425.35,330.364c-.214-.78-1.2-1.055-1.991-.919a7.885,7.885,0,0,0-2.123,1.007c-.383.2-.656.173-1.024.46a2.673,2.673,0,0,0-.717.754,5.091,5.091,0,0,0-.746,3.1c-.02,1.038.077,2.355-.5,3.182-.273.392,3.918.734,6.328-.672.809-.472.111-.33.2-1.435.141-1.71.656-5.165.571-5.477" transform="translate(-267.16 -210.421)" fill="#854100"/>
          <path id="Trazado_768535" data-name="Trazado 768535" d="M398.192,405.423a13.727,13.727,0,0,0-.458,1.81c-.065.943-.037,3.12-.017,4.065.023,1.086-.021,2.966.027,4.057.06,1.357.337,4.094.527,5.439.17,1.205.652,3.348.767,4.983a2.786,2.786,0,0,0-.357.048,10.936,10.936,0,0,0-2.226.893c-.67.373-1.858,1.363-2.518,1.753a5.438,5.438,0,0,1-2.614.843c-.168-.029-.413-.316-.576-.364a1.546,1.546,0,0,0-1.139.2c-.269.28-.16,1.19-.389,1.5-.278.38-1.258.79-1.428,1.23a3.19,3.19,0,0,0,.548,2.281c.416.064.263-1.265.513-1.6a10.1,10.1,0,0,1,2.06-1.428s9.494-2.509,10.195-3.229c.489-.5,2.024-12.883,2.034-14.263.016-2.138.848-7.907.848-7.907Z" transform="translate(-247.679 -258.975)" fill="#f7b691"/>
          <path id="Trazado_768536" data-name="Trazado 768536" d="M389.494,470.452a1.268,1.268,0,0,0-.618.113c-.159.069-.456.252-.613.326-.525.247-2.168.825-2.168.825l.081.437,2.2-.638a3.36,3.36,0,0,1-.236.845c-.3.423-1.623.67-1.71,1.183-.1.577.367,2.647.65,2.6l.077-.014a1.422,1.422,0,0,0,.353-.251,1.438,1.438,0,0,0,.058-.41c.022-.143.092-1.057.105-1.217a4.363,4.363,0,0,1,.081-.521,1.764,1.764,0,0,1,.245-.551,5.964,5.964,0,0,1,.752-.538,3.865,3.865,0,0,0,1.1-1.266,2.285,2.285,0,0,0,.118-.487s-.32-.388-.474-.432" transform="translate(-246.629 -300.507)" fill="#102b3c"/>
          <path id="Trazado_768537" data-name="Trazado 768537" d="M432.484,405.423s1.507,6.3,1.905,8.4c.257,1.356.713,5.424.713,5.424l.719,8.407.733,10.369a10.107,10.107,0,0,0,.907,2.337c.271.322,1.6.484,1.439.873a3.188,3.188,0,0,1-2.346,0c-.388-.267-.558-1.316-.862-1.675-.251-.3-1.161-.4-1.371-.729a1.547,1.547,0,0,1,.07-1.155c.085-.148.421-.319.488-.476a5.439,5.439,0,0,0-.21-2.739c-.225-.733-.911-2.119-1.117-2.858a10.942,10.942,0,0,1-.349-2.373c.013-.582.385-1.722.349-2.3-.1-1.575-2.238-4.329-2.757-5.819-.447-1.283-1.637-4.263-1.959-5.583-.259-1.061-.342-3.013-.575-4.075-.2-.923.1-2.749-.014-3.686-.058-.457,0-1.845,0-1.845Z" transform="translate(-273.519 -258.975)" fill="#f7b691"/>
          <path id="Trazado_768538" data-name="Trazado 768538" d="M422.332,342.858c-1.012,0-1.9-1.769-1.9-1.769a1.931,1.931,0,0,0,.924-.657,8.782,8.782,0,0,0,.715-1.989v-.768a5.02,5.02,0,0,1-1.082-3c.1-1.535,2.338-2.931,2.338-2.931s1.536-.768,2.129.628a9.792,9.792,0,0,1,.543,1.825c.029.142-.208.322-.185.466.063.4.363.764.368,1.143,0,.077-.209.152-.211.227-.017.621.072,1.163-.2,1.5-.259.325-1.2.331-1.587.488a1.447,1.447,0,0,0-.876,1.448c0,.523,1.26,1.6,1.26,1.6s-.8,1.781-2.233,1.781" transform="translate(-268.562 -211.774)" fill="#f7b691"/>
          <path id="Trazado_768539" data-name="Trazado 768539" d="M425.753,330.717c-.495-.42-1.09-.194-1.605-.018a3.6,3.6,0,0,0-.822.262,4.777,4.777,0,0,0-.713.47,4.962,4.962,0,0,0-1.283,1.285,5.4,5.4,0,0,0-.41,1.744,12.067,12.067,0,0,0-.2,1.847,13.952,13.952,0,0,1,.037,1.956c-.036.251,1.122-.308,1.3-.482a5.87,5.87,0,0,0,.579-.568,5,5,0,0,0,.767-1.4c.187-.558-.074-1.139.355-1.6a4.846,4.846,0,0,1,1.248-.879,2.855,2.855,0,0,0,.881-1.178c.236-.487.365-1.02-.13-1.44" transform="translate(-268.746 -211.102)" fill="#854100"/>
          <path id="Trazado_768540" data-name="Trazado 768540" d="M449.337,497.54a1.442,1.442,0,0,0-.393-.131c-.137-.047-1.022-.282-1.178-.324a4.379,4.379,0,0,1-.5-.173,1.761,1.761,0,0,1-.5-.34,5.976,5.976,0,0,1-.393-.837,3.869,3.869,0,0,0-1.047-1.309,2.273,2.273,0,0,0-.458-.2s-.44.244-.511.388a1.275,1.275,0,0,0,0,.628c.039.169.165.494.209.661.148.561.419,2.282.419,2.282h.445l-.229-2.282a3.359,3.359,0,0,1,.788.385c.362.374.365,1.718.854,1.9.549.2,2.669.119,2.669-.169v-.078a1.421,1.421,0,0,0-.183-.393" transform="translate(-283.824 -315.697)" fill="#102b3c"/>
          <g id="Grupo_1027631" data-name="Grupo 1027631" transform="translate(156.859 135.092)" style="mix-blend-mode: overlay;isolation: isolate">
            <g id="Grupo_1027630" data-name="Grupo 1027630">
              <g id="Grupo_1027629" data-name="Grupo 1027629" clip-path="url(#clip-path-10)">
                <path id="Trazado_768541" data-name="Trazado 768541" d="M435.737,373.985c-.079.315-.179.715-.277,1.138-.178.758-.357,1.59-.432,2.148a.2.2,0,0,0,0,.027c-.007.051-.012.1-.017.148a28.052,28.052,0,0,0-.2,3.118,2.483,2.483,0,0,0,.2.9l-.759-.13s.36-4.845.554-5.383c.1-.278.7-1.309.939-1.97" transform="translate(-434.244 -373.985)"/>
              </g>
            </g>
          </g>
          <path id="Trazado_768542" data-name="Trazado 768542" d="M421.91,391.312h4.955v-.5l-5.046.091Z" transform="translate(-269.448 -249.639)"/>
          <g id="Grupo_1027634" data-name="Grupo 1027634" transform="translate(157.165 131.933)" style="mix-blend-mode: overlay;isolation: isolate">
            <g id="Grupo_1027633" data-name="Grupo 1027633">
              <g id="Grupo_1027632" data-name="Grupo 1027632" clip-path="url(#clip-path-11)">
                <path id="Trazado_768543" data-name="Trazado 768543" d="M436.45,367.725s0-.046-.012-.125a1.925,1.925,0,0,0-.065-.319,2.626,2.626,0,0,0-.171-.425l-.115-.234a1.578,1.578,0,0,0-.135-.226,2.22,2.22,0,0,0-.165-.206c-.061-.065-.121-.124-.183-.185a2.089,2.089,0,0,1-.169-.184c-.05-.066-.087-.126-.128-.182a2.25,2.25,0,0,1-.173-.283.565.565,0,0,1-.035-.086l-.011-.031.016.029a.849.849,0,0,0,.048.078,3.158,3.158,0,0,0,.2.258c.044.052.09.114.139.169s.112.109.174.167.131.117.193.182a2.354,2.354,0,0,1,.177.215,1.617,1.617,0,0,1,.14.241c.042.084.074.161.109.241a2.149,2.149,0,0,1,.144.45,1.411,1.411,0,0,1,.028.332.824.824,0,0,1-.006.092l0,.033" transform="translate(-435.089 -365.239)"/>
              </g>
            </g>
          </g>
          <path id="Trazado_768544" data-name="Trazado 768544" d="M424.4,406.853a43.13,43.13,0,0,1-.871-5.154,42.53,42.53,0,0,0-1.947-9.5h-4.456a16.878,16.878,0,0,0-2.594,6.569,30.108,30.108,0,0,0-.1,6.068c.017.4.045.829.081,1.271a46.713,46.713,0,0,0,9.887.742" transform="translate(-264.667 -250.53)" fill="#184968"/>
          <path id="Trazado_768545" data-name="Trazado 768545" d="M437.227,406.853c.459-.021.919-.053,1.376-.1a51.233,51.233,0,0,0-.972-5.551c-1.326-5.164-2.722-9-2.722-9h-.5a42.534,42.534,0,0,1,1.947,9.5,43.128,43.128,0,0,0,.871,5.154" transform="translate(-277.49 -250.53)" fill="#184968"/>
          <g id="Grupo_1027637" data-name="Grupo 1027637" transform="translate(156.919 141.673)" opacity="0.3" style="mix-blend-mode: overlay;isolation: isolate">
            <g id="Grupo_1027636" data-name="Grupo 1027636">
              <g id="Grupo_1027635" data-name="Grupo 1027635" clip-path="url(#clip-path-12)">
                <path id="Trazado_768546" data-name="Trazado 768546" d="M437.227,406.853c.459-.021.919-.053,1.376-.1a51.233,51.233,0,0,0-.972-5.551c-1.326-5.164-2.722-9-2.722-9h-.5a42.534,42.534,0,0,1,1.947,9.5,43.128,43.128,0,0,0,.871,5.154" transform="translate(-434.409 -392.203)"/>
              </g>
            </g>
          </g>
          <path id="Trazado_768547" data-name="Trazado 768547" d="M185.044,467.72c-.618.412-1.554,2.123-1.142,2.741.364.547,1.212.467,2.08.579,1.093.142,1.359.239,1.567-.562.127-.489-.524-.215-.99-.408-.857-.355.024-2.127-.446-2.311-.426-.166-.688-.293-1.068-.039" transform="translate(-117.408 -298.677)" fill="#f7b691"/>
          <path id="Trazado_768548" data-name="Trazado 768548" d="M183.552,470.231a2.617,2.617,0,0,0,.385.457.7.7,0,0,0,.652.052,1.793,1.793,0,0,0,.451-.177,2.935,2.935,0,0,0,.567-.452c.087-.095.318-.457.318-.457a10.265,10.265,0,0,0,.927,1.31c.281.28,1.3-.009,1.361.219a4.405,4.405,0,0,1,.043.884c0,.084-.027.339-.027.339l-2.566.736a2.846,2.846,0,0,1-.4-.218,3.831,3.831,0,0,0-.624-.391l-.034.525-1.429-.114a3.072,3.072,0,0,0,.037-.666,3.749,3.749,0,0,1-.06-.886,3.8,3.8,0,0,1,.2-.722c.043-.118.2-.439.2-.439" transform="translate(-116.986 -300.003)"/>
          <path id="Trazado_768549" data-name="Trazado 768549" d="M219.434,468.463c-.236.358.244,1.361,0,1.713-.139.2-.558.246-.335,1.147.176.709,1.471.246,2.128.246a28.942,28.942,0,0,0,3.872-.1c.407-.068.33-.072.059-.384-.231-.266-1.09-.074-1.655-.244s-.864-.707-1.207-.82c-.286-.094-.613-.644-.807-.875-.233-.276-.128-1.222-.457-1.37-.4-.178-1.359.322-1.6.685" transform="translate(-139.914 -298.782)" fill="#f7b691"/>
          <path id="Trazado_768550" data-name="Trazado 768550" d="M218.987,473.037a3.327,3.327,0,0,0,.544.362,1.661,1.661,0,0,0,.885.07,3.578,3.578,0,0,0,.6-.111,3.983,3.983,0,0,0,.746-.312,4.762,4.762,0,0,0,.408-.328,11.332,11.332,0,0,0,1.32,1.029c.394.224,1.756.056,1.855.23a1.938,1.938,0,0,1,.1.666c0,.063-.02.253-.02.253l-3.441.428a5.871,5.871,0,0,1-.558-.183,7.539,7.539,0,0,0-.865-.323l-.021.392-1.942-.155a1.274,1.274,0,0,0,.018-.5,1.666,1.666,0,0,1-.125-.668,1.784,1.784,0,0,1,.242-.532c.052-.087.25-.32.25-.32" transform="translate(-139.568 -301.961)"/>
          <path id="Trazado_768551" data-name="Trazado 768551" d="M187.508,381.355a45.185,45.185,0,0,0-.776,7.479c-.07,4.17.5,8.989.205,11.363-.409,3.335-2.855,13.132-2.855,13.132l3.426.685s3.166-11.5,3.825-15.416c.5-2.968,1.242-9.546,1.242-9.546s3.495,6.758,3.954,10c.524,3.705-.571,14.959-.571,14.959h4.111s1.107-12.844.5-17.07a40.933,40.933,0,0,0-1.581-7.728,56.774,56.774,0,0,0-3.488-7.861Z" transform="translate(-117.587 -243.601)" fill="#1c4764"/>
          <path id="Trazado_768552" data-name="Trazado 768552" d="M198.594,317.139c-.626-.626.133-2.665,0-3.54-.13-.857-.9-2.454-1.028-3.312-.12-.79-.475-2.555,0-3.2.346-.468,1.645-.648,2.227-.685.668-.043,2.174-.027,2.636.457a3.473,3.473,0,0,1,.393,2.3c0,.088-.1.3-.1.391-.023.3.073.835.033,1.131a10.47,10.47,0,0,1-.446,1.8c-.131.51-.572.217-.856.66a10.466,10.466,0,0,0-.914,3.2c-.027.2.141.658,0,.8a1.959,1.959,0,0,1-1.941,0" transform="translate(-126.047 -195.714)" fill="#f7b691"/>
          <path id="Trazado_768553" data-name="Trazado 768553" d="M242.372,367.224a5.967,5.967,0,0,0,1.5.161c1.352-.1,2.426.027,2.344.423-.036.174-.459.056-.772.112s-.4.195-.192.308c.764.421,2.466,1,2.125,1.294a9.354,9.354,0,0,1-2.053-.709,9.07,9.07,0,0,0,.83.433c.6.271,1.306.551,1.253.68-.025.063-.058.06-.141.122a15.012,15.012,0,0,1-2.179-.661,4.037,4.037,0,0,0,.6.328c.508.223,1.163.458,1.123.549-.162.361-2.267-.472-2.267-.472a7.63,7.63,0,0,0,.777.347c.395.144.717.215.69.311-.129.448-2.3-.4-3.039-1a9.938,9.938,0,0,0-.868-.836c-.981-.563-2.862-.817-4.538-1.338l.892-1.944a20.925,20.925,0,0,0,3.912,1.891" transform="translate(-151.753 -233.366)" fill="#f7b691"/>
          <path id="Trazado_768554" data-name="Trazado 768554" d="M163.548,294.307a5.113,5.113,0,0,1,.122-1.409c.378-1.318.513-2.52.1-2.521-.181,0-.151.443-.272.741s-.276.353-.345.126c-.257-.845-.475-2.651-.837-2.374a9.512,9.512,0,0,0,.273,2.181,9.136,9.136,0,0,1-.255-.912c-.143-.647-.272-1.408-.411-1.383-.068.012-.071.045-.15.114a15.183,15.183,0,0,0,.2,2.294,4.089,4.089,0,0,1-.2-.663c-.114-.549-.211-1.247-.308-1.226-.391.085-.007,2.343-.007,2.343a7.761,7.761,0,0,1-.181-.842c-.059-.421-.062-.755-.164-.747-.47.034-.081,2.362.353,3.217a10.1,10.1,0,0,1,.646,1.034,26.141,26.141,0,0,1,.758,4.741l1.728-.444a21.2,21.2,0,0,1-1.054-4.269" transform="translate(-102.781 -184.45)" fill="#f7b691"/>
          <path id="Trazado_768555" data-name="Trazado 768555" d="M187.039,333.239c-.232.282-.851,2.511.313,3.522,1.934,1.68,1.549,4.834,1.616,6.026.111,1.966.044,7.865.044,7.865s3.259.531,4.3.531c1.086,0,4.345-.532,4.345-.532s-.1-5.7-.1-7.6c0-2.268,1.09-7.671.621-9.074-.284-.85-2.678-.19-3.363-.768-.263-.221-.291-1.173-.291-1.173a13.575,13.575,0,0,1-1.881.355,9.974,9.974,0,0,1-1.6-.355s-.2.619-.292.8c-.38.752-3.182-.249-3.718.4" transform="translate(-119.238 -212.098)" fill="#5573c6"/>
          <path id="Trazado_768556" data-name="Trazado 768556" d="M212.34,337.58c.563,1.978,1.755,4.986,2.92,6.26,1.646,1.8,6.682,3.735,8.436,4.9.547.363-.624,2.433-1.243,2.215a35.9,35.9,0,0,1-6.859-3.021,27.524,27.524,0,0,1-5.845-5.866c-.478-.71-1.674-2.376-1.322-3.156.424-.942,3.63-2.324,3.913-1.331" transform="translate(-133.098 -215.418)" fill="#5573c6"/>
          <path id="Trazado_768557" data-name="Trazado 768557" d="M174.98,316.427c-.825-1.762-6.536-4.227-6.536-4.227a65,65,0,0,1-3.19-8.624c-.22-1.081-2.716.095-2.342,1.132,1.119,3.106,1.263,7.41,2.932,9.152a19.816,19.816,0,0,0,8.8,5.3c.671.15.624-2.107.333-2.73" transform="translate(-104.04 -193.643)" fill="#5573c6"/>
          <path id="Trazado_768558" data-name="Trazado 768558" d="M201.487,305.429c-.653-1.147-3.322-1.8-4.77-1.309-1.559.532-1.589,3.976-1.54,3.984.021.557.372.964.458,1.581a3.29,3.29,0,0,0,.443,1.508l.266.532a1.507,1.507,0,0,0,2.038,0c.625-.538.732-.259,1.51-.643.469-.232.439-1.208.443-1.732.005-.791.246-.721.508-1.305.3-.669,1.036-1.929.645-2.616" transform="translate(-124.667 -194.158)" fill="#3a1200"/>
          <path id="Trazado_768559" data-name="Trazado 768559" d="M202.077,22.465c-.414-.738-1.14-1.221-1.005-2.125.044-.3.1-.625.117-.962.022-.381.152-.629.154-1.04,0-1.073-.923-3.835-2.353-2.68a2.624,2.624,0,0,0-1.071,1.648c-.073.334.01.69-.044,1.032a3.21,3.21,0,0,0-.079,1.04c.145,1.055.4,2.077.579,3.126l-.064.511A16.6,16.6,0,0,0,200.57,23h1.123c.463,0,.642-.08.384-.539" transform="translate(-126.335 -9.825)" fill="#b26600"/>
          <path id="Trazado_768560" data-name="Trazado 768560" d="M217.422,81.223s4.711-.78,5.668-.354S225.11,82,224.826,87.21s-.84,9.352-.84,9.352-.023,1.842.887,2.444a2.311,2.311,0,0,1,1.052,1.24l-1.1.815-2.374-3.153-.248-7.3-.779-6.164-4.357.815Z" transform="translate(-138.658 -51.576)" fill="#eaa481"/>
          <path id="Trazado_768561" data-name="Trazado 768561" d="M233.681,130.818a1.5,1.5,0,0,0,.31-.346s1.055.262,1.187.559c.168.381-.319.8-.319.8a18.1,18.1,0,0,1-2.063.087c-.343-.024-.633-.551-.789-.751a8.064,8.064,0,0,0-.72-.692l-.047,1.536h-.65l-.159-.774a6.016,6.016,0,0,1-.232-1.762,3.1,3.1,0,0,1,.4-.534s.26-.047.756.307a5.936,5.936,0,0,1,.906.829,3.635,3.635,0,0,0,.691.691,1.158,1.158,0,0,0,.726.053" transform="translate(-147.025 -82.361)" fill="#221a1a"/>
          <path id="Trazado_768562" data-name="Trazado 768562" d="M223.931,102.164c-.074.151-.282.168-.548.112a8.049,8.049,0,0,1-1.825-.813l-1.187-1.151s.142,0-.035-1.24-.439-4.425-.971-5.611a8.2,8.2,0,0,1-.446-4.512c.288-.692.857-1.319-.275-1.2a8.167,8.167,0,0,0-1.071.2,3.486,3.486,0,0,1-1.1.109,1.685,1.685,0,0,1-1.613-1.42l.348-3.631,4.664.372h.425s2.161.071,1.984,3.932-.744,8.644-.744,8.644A14.3,14.3,0,0,0,221.716,99a12.489,12.489,0,0,0,1.311,2.019c.248.319,1.067.8.9,1.144" transform="translate(-137.249 -53.023)" fill="#f7b691"/>
          <path id="Trazado_768563" data-name="Trazado 768563" d="M211.964,53.886l-.2-.071L209.413,53a14.362,14.362,0,0,1-2.976-1.417c-.779-.638-.591-.417-.957-1.523a35.246,35.246,0,0,1-.744-4.286l-.319-2.87.3-1.954.01-.065a3.664,3.664,0,0,1,1.568.992c.532.673.673,2.586.673,4.853s-.354,3.223.85,3.932,3.79,2.019,3.9,2.161a5.514,5.514,0,0,1,.248,1.062" transform="translate(-130.577 -26.117)" fill="#bdd5e4"/>
          <path id="Trazado_768564" data-name="Trazado 768564" d="M211.759,53.931l-2.347-.815a14.362,14.362,0,0,1-2.976-1.417c-.779-.638-.591-.417-.957-1.523a35.3,35.3,0,0,1-.743-4.286l-.319-2.869.3-1.954a3.422,3.422,0,0,1,1.385.927c.531.673.673,2.586.673,4.853s-.354,3.224.851,3.932,3.79,2.019,3.9,2.161a4.653,4.653,0,0,1,.237.992" transform="translate(-130.577 -26.232)" fill="#f4a338"/>
          <path id="Trazado_768565" data-name="Trazado 768565" d="M191.94,48.935a15.667,15.667,0,0,1,.764,4.035c0,.017,0,.033,0,.047a.025.025,0,0,0,0,.01c-.011.077-.034.129-.072.149l-.023.01a.109.109,0,0,1-.023,0,2.155,2.155,0,0,0-.265.025c-.894.138-3.136.754-3.136.754l-3.188.567,0-.024c-.076-.424-1.126-6.289-1.058-6.494s-1.2-6.8-1.2-6.8,1.063-.5,2.338-1.2c.041-.023.084-.045.126-.066h0a20.623,20.623,0,0,1,2.848-.429s.64.058,1.657.227l.327.057c.075.013.146.027.214.042,1.008.218,1.137.567,1.137.567l0,.1h0v0l-.071,1.556a4.228,4.228,0,0,0,.55,2.763c.69,1.234-.552,2.858-1.023,3.477-.1.128.064.478.116.63" transform="translate(-117.359 -25.241)" fill="#bdd5e4"/>
          <path id="Trazado_768566" data-name="Trazado 768566" d="M191.539,48.6a21.821,21.821,0,0,1,.957,4.374c0,.017,0,.033,0,.047a.023.023,0,0,0,0,.01.221.221,0,0,1-.073.149l-.022.01a.109.109,0,0,1-.023,0,2.148,2.148,0,0,0-.265.025c-.917.136-3.277.754-3.277.754l-3.051.543-.137.025s-.894-5.441-.925-5.663a7.056,7.056,0,0,0-.672-1.967,41.941,41.941,0,0,1-.646-5.83,6.885,6.885,0,0,1,2.314-1.064c.088-.023.177-.046.268-.067h0a20.624,20.624,0,0,1,2.849-.429s.64.058,1.656.226l.327.057c.075.013.146.029.214.043.973.223,1.122.636,1.132.664h0v0l-.212,1.556a4.229,4.229,0,0,0,.549,2.763c.832,1.488-1.045,3.471-1.045,3.471s.034.109.088.3" transform="translate(-117.15 -25.241)" fill="#f4a338"/>
          <path id="Trazado_768567" data-name="Trazado 768567" d="M175.416,47.739s-2.338,4.534,0,5.314a22.031,22.031,0,0,0,4.746.921,5.5,5.5,0,0,0,1.346-.142l.1-1.364a12.47,12.47,0,0,1-3.215-.832c-.757-.3-1.686-.375-1.93-.815-.327-.59.328-1.421.956-2.39,1.1-1.694,1.825-3.029,1.825-4.021s-.574-2.075-1-1.863a3.546,3.546,0,0,0-1.41,1.792c-.425.992-1.417,3.4-1.417,3.4" transform="translate(-111.388 -27.161)" fill="#bdd5e4"/>
          <path id="Trazado_768568" data-name="Trazado 768568" d="M174.319,47.974s-2.338,4.109-.124,4.835a28.237,28.237,0,0,0,5.1,1.027,10.1,10.1,0,0,0,1.488,0l.1-1.222a12.745,12.745,0,0,1-3.357-.832c-.757-.3-1.687-.375-1.93-.815-.327-.59.24-1.615.867-2.585,1.1-1.693,1.913-2.834,1.913-3.826s-.432-2.216-.858-2a2.034,2.034,0,0,0-1.234,1.317c-.425.992-1.964,4.105-1.964,4.105" transform="translate(-110.663 -27.165)" fill="#f4a338"/>
          <path id="Trazado_768569" data-name="Trazado 768569" d="M188.8,77.838a15.325,15.325,0,0,0-.441,2.973c-.036,1.417.621,4.085,1.967,4.462a17.216,17.216,0,0,0,6.854-.105,23.541,23.541,0,0,0,3.578-.992s-1.1-.78-1.027-1.7.366-2.5.779-2.728c.48-.26,1.807-1.275,1.807-1.275a21.526,21.526,0,0,1-3.662,0,20.109,20.109,0,0,1-2.9-1.369l-2.617.2Z" transform="translate(-120.318 -49.251)" fill="#3b4167"/>
          <path id="Trazado_768570" data-name="Trazado 768570" d="M188.478,77.838a15.325,15.325,0,0,0-.441,2.973c-.035,1.417.621,4.085,1.968,4.462a17.214,17.214,0,0,0,6.853-.105,23.541,23.541,0,0,0,3.578-.992s-1.1-.78-1.027-1.7.366-2.5.78-2.728c.48-.26,1.806-1.275,1.806-1.275a21.526,21.526,0,0,1-3.662,0,20.109,20.109,0,0,1-2.9-1.369l-2.617.2Z" transform="translate(-120.113 -49.251)" fill="#3b4167"/>
          <path id="Trazado_768571" data-name="Trazado 768571" d="M197.632,18.925c-.283,1.351-.622,1.644-1.016,1.717a1.546,1.546,0,0,0-1.087,1.619c.043.826.256,1.268.623,1.329a6.791,6.791,0,0,1-.414,2.294,20.288,20.288,0,0,1-.976,2.447s-.409-1.816-.631-2.438c-.2-.57-1.047-2.318-1.047-2.318a26.2,26.2,0,0,0,.368-3.55c-.107-.532-1.027-1.842-.921-2.586s-.319-2.019.567-2.657,3.153-.5,3.153-.5l1.382.708a14.881,14.881,0,0,1,0,3.932" transform="translate(-122.977 -9.116)" fill="#f7b691"/>
          <path id="Trazado_768572" data-name="Trazado 768572" d="M232.258,132.242a1.622,1.622,0,0,0,.322-.346s1.043.262,1.174.559c.168.381-.319.8-.319.8a18.042,18.042,0,0,1-2.063.086c-.343-.024-.634-.55-.789-.751a8.068,8.068,0,0,0-.72-.692l-.047,1.536h-.649l-.159-.773a6.013,6.013,0,0,1-.232-1.762,3.063,3.063,0,0,1,.4-.534s.26-.048.756.307a5.916,5.916,0,0,1,.906.83,3.644,3.644,0,0,0,.691.691,1.157,1.157,0,0,0,.726.053" transform="translate(-146.116 -83.271)" fill="#302e2e"/>
          <path id="Trazado_768573" data-name="Trazado 768573" d="M191.647,70.538a.783.783,0,0,1,.629-.124c.442.108,1.019.243,1.39.3.673.107,2.188.487,2.577.487a3.63,3.63,0,0,1,.894.151c1.027.216,1.13.425,1.266.868.146.474-.048.8-.12.753-.05-.033.04-.523-.137-.841a.9.9,0,0,0-.406-.407.889.889,0,0,1,.291.407c.07.256.151.73.027.719-.206-.017.01-.218-.318-.719a1.255,1.255,0,0,0-.249-.284,1.451,1.451,0,0,1,.217.4,1.018,1.018,0,0,1,0,.638c-.066-.026-.075-.345-.225-.636s-.285-.262-.285-.262a1.3,1.3,0,0,1,.182.825c-.1.344-.191-.373-.368-.621s-.224-.251-.7-.221c-.283.018-.336-.181-.336-.181l-4.9-.4Z" transform="translate(-122.057 -44.965)" fill="#f7b691"/>
          <path id="Trazado_768574" data-name="Trazado 768574" d="M202.456,80.435a.267.267,0,0,1-.283-.268v-.744a.3.3,0,0,1,.283-.3l6.165-.26a.27.27,0,0,1,.283.272v.673a.3.3,0,0,1-.283.3Z" transform="translate(-129.143 -50.379)" fill="#5a5a59"/>
          <path id="Trazado_768575" data-name="Trazado 768575" d="M202.748,77.55l6.2-1.167,2.055.513-2.019,1.17Z" transform="translate(-129.511 -48.792)" fill="#6b6968"/>
          <path id="Trazado_768576" data-name="Trazado 768576" d="M220.477,58.535l6.022-1.862h.283l-1.913,7.51-5.632,1.751Z" transform="translate(-140.044 -36.201)" fill="#5a5a59"/>
          <path id="Trazado_768577" data-name="Trazado 768577" d="M221.261,58.676l6.022-2-1.63,7.51-5.633,1.751Z" transform="translate(-140.544 -36.201)" fill="#6b6968"/>
          <path id="Trazado_768578" data-name="Trazado 768578" d="M191.835,70.257l-.484.307-.454.638-.171.189,1.1.159-.88-.023-.419-.112.2-.366.455-.655Z" transform="translate(-121.702 -44.878)" fill="#bdd5e4"/>
          <path id="Trazado_768579" data-name="Trazado 768579" d="M191.258,11.777a1.952,1.952,0,0,1,.826.661,11.779,11.779,0,0,1,.354,1.541,2.983,2.983,0,0,0,.744-1.346,3.615,3.615,0,0,0-.284-2.267,4.824,4.824,0,0,0-1.736-1.046c-1.4-.476-3.177-1.4-4.543-.326a2.979,2.979,0,0,0-.821,1.062,6.466,6.466,0,0,0-.465,2.74c.018,1,.262,1.976.338,2.971a4.762,4.762,0,0,1,0,1.843c-.213.43-1.5.525-1.505,1.006-.008.646,3.516.287,3.971.106.766-.3.013-1.443.392-2.175a13.9,13.9,0,0,0,.432-1.789c.084-.3-.077-.718-.007-1,.142-.561.545-.017.567-.058a12.037,12.037,0,0,1,.827-1.512,1.06,1.06,0,0,1,.909-.413" transform="translate(-117.642 -5.428)" fill="#b26600"/>
          <path id="Trazado_768580" data-name="Trazado 768580" d="M229.766,67.463c.043.223-.194.457-.531.522s-.644-.062-.688-.285.194-.457.531-.522.644.062.688.285" transform="translate(-145.987 -42.901)" fill="#afafaf"/>
          <path id="Trazado_768581" data-name="Trazado 768581" d="M502.412,223.161s-.158,1.531-.158,2.041c0,.346.158,1.383.158,1.383l1.617,0v-.808s-.124.373,1.43.808a18.072,18.072,0,0,0,3.916.435s.024-.726-.15-.924c-.474-.539-1.777-.381-2.585-1a20.408,20.408,0,0,1-1.99-1.927Z" transform="translate(-320.828 -142.55)" fill="#2c1f1d"/>
          <path id="Trazado_768582" data-name="Trazado 768582" d="M469.875,223.85s.163,1.357.145,1.812c-.015.38-.241,1.5-.241,1.5l-1.52.105v-.808s.124.373-1.43.808a18.073,18.073,0,0,1-3.917.435s-.065-.56.109-.758c.474-.539,1.818-.548,2.626-1.17a20.39,20.39,0,0,0,1.99-1.927Z" transform="translate(-295.69 -142.99)" fill="#2c1f1d"/>
          <path id="Trazado_768583" data-name="Trazado 768583" d="M480.841,134.79a54.322,54.322,0,0,1-1.679,10.507,71.964,71.964,0,0,0-2.673,15.419,39.32,39.32,0,0,0,0,6.466h-3.917s.062-12.871.684-16.632,1.616-11.719,1.616-11.719l.286-4.668Z" transform="translate(-301.868 -85.7)" fill="#475389"/>
          <path id="Trazado_768584" data-name="Trazado 768584" d="M490.985,133.736l-.5,5.6s1.248-.062,1.3,4.352,2.086,12.683,2.086,12.683.209,6.528.333,8.455l.124,1.927h3.487s-.56-11-.932-14.113a82.69,82.69,0,0,1-.435-9.7c.062-1.8-.372-9.452-.372-9.452Z" transform="translate(-313.312 -85.268)" fill="#2c3863"/>
          <path id="Trazado_768585" data-name="Trazado 768585" d="M498.151,166.75h-3.606l-.125-1.927c-.124-1.927-.373-8.456-.373-8.456S492.059,148.1,492,143.684s-1.187-4.352-1.187-4.352l.5-5.6,4.665-.229.434-.021s.434,7.649.372,9.452a82.77,82.77,0,0,0,.435,9.7c.373,3.108.933,14.113.933,14.113" transform="translate(-313.521 -85.268)" fill="#344170"/>
          <path id="Trazado_768586" data-name="Trazado 768586" d="M497.718,166.788h-3.172l-.124-1.927c-.124-1.927-.373-8.456-.373-8.456s-1.989-8.269-2.046-12.683-1.187-4.352-1.187-4.352l.5-5.6,4.665-.229c.025.444.431,7.682.371,9.43a82.769,82.769,0,0,0,.435,9.7c.373,3.108.933,14.113.933,14.113" transform="translate(-313.522 -85.306)" fill="#475389"/>
          <path id="Trazado_768587" data-name="Trazado 768587" d="M486.306,87.453l-2.777,2.362-.28-.266c-.332-.314-.881-.826-1.212-1.1-.1-.081-.18.043-.253.3a29.89,29.89,0,0,0-.41,4.3l-.249,8.414s-4.145.332-5.139.456a4.88,4.88,0,0,1-.724.012h0c-1.393-.056-3.768-.41-3.768-.41l.288-5.694s-.353-6.341-.767-6.881c-.142-.185-.352-.121-.567.042a4.658,4.658,0,0,0-.843.994l-.346-.352-2.306-2.342s2.362-4.145,4.228-5.18a12.547,12.547,0,0,1,4.947-.988h0c.3-.009.481-.007.481-.007a48.565,48.565,0,0,1,5.139.58c2.653.456,4.559,5.761,4.559,5.761" transform="translate(-298.277 -51.812)" fill="#9fd3ce"/>
          <path id="Trazado_768588" data-name="Trazado 768588" d="M486,87.722l-2.474,2.1c-.332-.314-1.162-1.092-1.492-1.368a.488.488,0,0,0-.593,0c-.438.476-.663,4.6-.663,4.6l-.248,8.414s-4.145.332-5.139.456q-.06.008-.131.012h0c-1.393-.056-3.768-.41-3.768-.41l.288-5.694s-.522-6.246-.767-6.881c-.187-.484-1.434.255-1.756.684L466.949,87.3s2.363-4.145,4.228-5.18a12.549,12.549,0,0,1,4.947-.989h0a48.916,48.916,0,0,1,5.027.574c2.653.456,4.849,6.019,4.849,6.019" transform="translate(-298.276 -51.823)" fill="#4adbd1"/>
          <path id="Trazado_768589" data-name="Trazado 768589" d="M486.667,54.918s2.57-.332,2.819,1.782-.995,4.062-.787,5.223.4,1.93.515,2.976c.11,1-1.926,2.155-2.838,1.285s-.43-1.158-.264-2.608-.831-1.162-1.37-1.528-.811-2.9-.811-3.565a9.308,9.308,0,0,1,.539-2.943c.207-.042,1.948-.641,1.948-.641Z" transform="translate(-309.124 -35.068)" fill="#f7b691"/>
          <path id="Trazado_768590" data-name="Trazado 768590" d="M471.108,110.663s1.309.682,1.728.882c.241.115.23-.306.034-.42a20.315,20.315,0,0,1-2.487-1.521c-.056-.054.212-.064.5.118.37.232.537.487.578.449.134-.122-.2-.86-1.18-1.428-.933-.54-1.741.124-2.238-.5a18.318,18.318,0,0,1-2.031-3.357c-.5-1.161-1.515-2.213-.58-3.067.238-.218.781-.837.781-.837L463.75,98.48s-3.2,3.646-1.421,5.884,3.439,3.675,4.184,5a4.958,4.958,0,0,0,2.57,2.4,19.647,19.647,0,0,1,2.348.848c.253.109.7.061.463-.114-.562-.422-1.326-.93-1.326-.93s1.288.649,1.772.906c.186.1.57,0,.4-.134-.653-.488-1.918-1.2-1.918-1.2a21.887,21.887,0,0,0,2.037,1c.186.065.288-.22.147-.311-.662-.425-1.894-1.174-1.894-1.174" transform="translate(-294.98 -62.907)" fill="#f7b691"/>
          <path id="Trazado_768591" data-name="Trazado 768591" d="M478.9,142.187a1.152,1.152,0,0,1-.172-.01l.018-.117a1.978,1.978,0,0,0,1.366-.416,4.543,4.543,0,0,0,1.457-3.157l.117.016a4.645,4.645,0,0,1-1.506,3.239,2.157,2.157,0,0,1-1.281.447" transform="translate(-305.803 -88.462)" fill="#2c3863"/>
          <path id="Trazado_768592" data-name="Trazado 768592" d="M501.922,141.339a3.74,3.74,0,0,1-2.512-1.529,2.479,2.479,0,0,1-.241-.525,2.515,2.515,0,0,1-.1-1.083,1.578,1.578,0,0,1,.035-.191l.115-.009-.005.022a2.516,2.516,0,0,0,.175,1.489,2.164,2.164,0,0,0,.125.237,3.545,3.545,0,0,0,2.4,1.461Z" transform="translate(-318.78 -88.152)" fill="#2c3863"/>
          <path id="Trazado_768593" data-name="Trazado 768593" d="M486.008,49.7a2.151,2.151,0,0,0-2.388-.542c-1.5.542-2.361.457-2.585,1.126-.243.728.886,1.927,1.822,2.469.7.406,1.2,2.339,1.632,2.465.145.042.284-1.1.421-1.255.842-.949,1.4-.007.935.875-.592,1.126.11.719-.008,1.984-.134,1.428.453.866.8,1.113s1.638.334,1.983-2.916.176-4.1-.7-4.734a3.332,3.332,0,0,0-1.91-.584" transform="translate(-307.253 -31.304)" fill="#473128"/>
          <path id="Trazado_768594" data-name="Trazado 768594" d="M507.594,107.046c-2.031,1.948-3.675,3.293-3.882,3.831a3.768,3.768,0,0,1-1.245,1.927A15.183,15.183,0,0,1,500.4,114.4c-.1.076-.605.24-.553.079a.029.029,0,0,1,.006-.01,16.822,16.822,0,0,1,1.336-1.054c-.083.049-1.424.859-1.685,1.022-.068.042-.221-.15-.129-.211.239-.156,1.5-1.108,1.577-1.167l-1.787,1.059c-.192.114-.335-.143-.191-.24.465-.31,1.7-1.2,1.78-1.253a17.53,17.53,0,0,1-1.659.933c-.162.061-.094-.194.021-.3a10.172,10.172,0,0,0,1.771-1.508l.017-.028c.145-.242-.157.023-.438.167h0c-.153.078-.3.121-.366.024a.164.164,0,0,1-.013-.022h0c-.034-.076.429-.649.587-.819.58-.622,1.195-.456,1.775-.871a16.253,16.253,0,0,0,2.66-3.813c.415-.953,1.354-2.021.249-3.689q-.375-.567-.682-1c-.236-.334-.462-.637-.462-.637l2.121-1.805.221-.187.508,1,1.485,2.926a3.492,3.492,0,0,1-.954,4.053" transform="translate(-318.695 -63.282)" fill="#f7b691"/>
        </g>
      </g>
    </g>
  </g>
</svg>
