<svg xmlns="http://www.w3.org/2000/svg" xmlns:xlink="http://www.w3.org/1999/xlink" width="338.969" height="247.81" viewBox="0 0 338.969 247.81">
  <defs>
    <clipPath id="clip-path">
      <rect id="Rectángulo_35483" data-name="Rectángulo 35483" width="249.58" height="247.81" transform="translate(0 0)" fill="#fff" stroke="#707070" stroke-width="1"/>
    </clipPath>
    <clipPath id="clip-path-2">
      <rect id="Rectángulo_366230" data-name="Rectángulo 366230" width="263.463" height="205.255" fill="none"/>
    </clipPath>
    <clipPath id="clip-path-3">
      <rect id="Rectángulo_366214" data-name="Rectángulo 366214" width="377.889" height="298.491" fill="none"/>
    </clipPath>
    <clipPath id="clip-path-4">
      <rect id="Rectángulo_366212" data-name="Rectángulo 366212" width="53.031" height="29.194" fill="none"/>
    </clipPath>
    <clipPath id="clip-path-5">
      <rect id="Rectángulo_366213" data-name="Rectángulo 366213" width="183.09" height="105.707" fill="none"/>
    </clipPath>
    <linearGradient id="linear-gradient" x1="0.5" x2="0.5" y2="1" gradientUnits="objectBoundingBox">
      <stop offset="0" stop-color="#dedede"/>
      <stop offset="0.517" stop-color="#fff"/>
      <stop offset="1" stop-color="#dedede"/>
    </linearGradient>
    <clipPath id="clip-path-6">
      <rect id="Rectángulo_366711" data-name="Rectángulo 366711" width="38.635" height="21.269" fill="none"/>
    </clipPath>
    <clipPath id="clip-path-7">
      <rect id="Rectángulo_366713" data-name="Rectángulo 366713" width="23.575" height="15.75" fill="none"/>
    </clipPath>
    <clipPath id="clip-path-8">
      <rect id="Rectángulo_366714" data-name="Rectángulo 366714" width="5.056" height="7.083" fill="none"/>
    </clipPath>
    <clipPath id="clip-path-9">
      <rect id="Rectángulo_366227" data-name="Rectángulo 366227" width="29.744" height="13.878" fill="none"/>
    </clipPath>
    <clipPath id="clip-path-10">
      <rect id="Rectángulo_366228" data-name="Rectángulo 366228" width="13.956" height="14.067" fill="none"/>
    </clipPath>
    <linearGradient id="linear-gradient-2" y1="0.5" x2="1.001" y2="0.5" gradientUnits="objectBoundingBox">
      <stop offset="0" stop-color="#f4a338"/>
      <stop offset="1" stop-color="#ff928e"/>
    </linearGradient>
    <linearGradient id="linear-gradient-3" x1="0.772" y1="-6.693" x2="0.499" y2="0.841" gradientUnits="objectBoundingBox">
      <stop offset="0" stop-color="#5573c6"/>
      <stop offset="1" stop-color="#5573c6"/>
    </linearGradient>
    <linearGradient id="linear-gradient-4" y1="0.498" x2="1" y2="0.498" gradientUnits="objectBoundingBox">
      <stop offset="0" stop-color="#ff928e"/>
      <stop offset="1" stop-color="#feb3b1"/>
    </linearGradient>
    <linearGradient id="linear-gradient-5" x1="0.168" y1="0.968" x2="-0.648" y2="2.277" xlink:href="#linear-gradient-2"/>
    <linearGradient id="linear-gradient-6" x1="0" y1="0.499" x2="0.999" y2="0.499" xlink:href="#linear-gradient-2"/>
    <linearGradient id="linear-gradient-7" x1="0.734" y1="-1.869" x2="0.424" y2="1.1" xlink:href="#linear-gradient-3"/>
    <linearGradient id="linear-gradient-8" x1="0" y1="0.499" x2="1" y2="0.499" xlink:href="#linear-gradient-4"/>
    <linearGradient id="linear-gradient-9" x1="42.733" y1="-30.875" x2="41.812" y2="-31.178" xlink:href="#linear-gradient-4"/>
    <linearGradient id="linear-gradient-10" x1="0.058" y1="0.272" x2="1.224" y2="1.361" gradientUnits="objectBoundingBox">
      <stop offset="0" stop-color="#373f51"/>
      <stop offset="1" stop-color="#373f51"/>
    </linearGradient>
    <linearGradient id="linear-gradient-11" x1="0.001" y1="0.498" x2="1" y2="0.498" xlink:href="#linear-gradient-4"/>
    <linearGradient id="linear-gradient-12" x1="1.985" y1="0.259" x2="-0.228" y2="0.601" xlink:href="#linear-gradient-4"/>
    <linearGradient id="linear-gradient-13" x1="188.42" y1="-76.296" x2="186.375" y2="-75.053" xlink:href="#linear-gradient-4"/>
    <linearGradient id="linear-gradient-14" x1="-107.327" y1="-1091.921" x2="-108.556" y2="-1077.599" xlink:href="#linear-gradient-10"/>
    <linearGradient id="linear-gradient-15" x1="-529.302" y1="-82.507" x2="-531.927" y2="-81.208" xlink:href="#linear-gradient-10"/>
  </defs>
  <g id="Grupo_1037083" data-name="Grupo 1037083" transform="translate(11661 -1218.46)">
    <g id="Grupo_137456" data-name="Grupo 137456" transform="translate(-11661 1218.46)">
      <g id="Grupo_137455" data-name="Grupo 137455" transform="translate(0)">
        <path id="Trazado_766622" data-name="Trazado 766622" d="M70.36,0H268.609a70.36,70.36,0,0,1,0,140.721H70.36A70.36,70.36,0,0,1,70.36,0Z" transform="translate(0 57.527)" fill="#4adbd1"/>
        <g id="Enmascarar_grupo_72" data-name="Enmascarar grupo 72" transform="translate(42.482 0)" clip-path="url(#clip-path)">
          <g id="Grupo_133717" data-name="Grupo 133717" transform="translate(4.369 4.368)">
            <g id="Grupo_133713" data-name="Grupo 133713" transform="translate(0 240.944) rotate(-90)">
              <path id="Sustracción_24" data-name="Sustracción 24" d="M0,245.219V0A123.514,123.514,0,0,1,24.71,2.491,121.991,121.991,0,0,1,47.725,9.635a122.619,122.619,0,0,1,20.827,11.3A123.49,123.49,0,0,1,86.7,35.911,123.491,123.491,0,0,1,101.67,54.057a122.619,122.619,0,0,1,11.3,20.827A121.989,121.989,0,0,1,120.119,97.9a123.515,123.515,0,0,1,2.491,24.71,123.515,123.515,0,0,1-2.491,24.71,121.988,121.988,0,0,1-7.144,23.015,122.619,122.619,0,0,1-11.3,20.827A123.49,123.49,0,0,1,86.7,209.307a123.492,123.492,0,0,1-18.146,14.972,122.624,122.624,0,0,1-20.827,11.3,121.992,121.992,0,0,1-23.015,7.144A123.517,123.517,0,0,1,0,245.219Z" transform="translate(122.61 245.219) rotate(180)" fill="#5573c6"/>
              <path id="Sustracción_25" data-name="Sustracción 25" d="M0,245.218V0A123.514,123.514,0,0,1,24.71,2.491,121.992,121.992,0,0,1,47.725,9.635a122.621,122.621,0,0,1,20.827,11.3A123.49,123.49,0,0,1,86.7,35.911,123.491,123.491,0,0,1,101.67,54.057a122.619,122.619,0,0,1,11.3,20.827A121.989,121.989,0,0,1,120.119,97.9a123.515,123.515,0,0,1,2.491,24.71,123.514,123.514,0,0,1-2.491,24.71,121.987,121.987,0,0,1-7.144,23.015,122.615,122.615,0,0,1-11.3,20.827A123.489,123.489,0,0,1,86.7,209.307a123.488,123.488,0,0,1-18.146,14.972,122.622,122.622,0,0,1-20.827,11.3,121.992,121.992,0,0,1-23.015,7.144A123.515,123.515,0,0,1,0,245.218Z" transform="translate(118.335 0)" fill="#e8e8e8"/>
            </g>
            <path id="Trazado_151972" data-name="Trazado 151972" d="M109.3,0c60.366,0,109.3,49.134,109.3,109.745S169.668,219.489,109.3,219.489,0,170.355,0,109.745,48.936,0,109.3,0Z" transform="translate(13.332 10.678)" fill="#12263f"/>
            <g id="Grupo_133716" data-name="Grupo 133716" transform="matrix(0.966, -0.259, 0.259, 0.966, 171.161, 184.953)" style="isolation: isolate">
              <g id="Grupo_133714" data-name="Grupo 133714" transform="translate(0 4.616)">
                <path id="Trazado_150984" data-name="Trazado 150984" d="M.073,20.484C.025,19.863,0,19.229,0,18.6A23.685,23.685,0,0,1,8.958,0l.172.216A23.409,23.409,0,0,0,.276,18.6c0,.621.024,1.247.072,1.861Z" transform="translate(0 0)" fill="#4adbd1"/>
              </g>
              <g id="Grupo_133715" data-name="Grupo 133715" transform="translate(11.622 0)">
                <path id="Trazado_150985" data-name="Trazado 150985" d="M.141,3.008,0,2.771A23.623,23.623,0,0,1,6.962,0l.06.269A23.337,23.337,0,0,0,.141,3.008Z" transform="translate(0)" fill="#4adbd1"/>
              </g>
              <path id="Trazado_150986" data-name="Trazado 150986" d="M19.9,0A19.9,19.9,0,1,0,39.8,19.9,19.9,19.9,0,0,0,19.9,0Zm0,33.973A14.072,14.072,0,1,1,33.973,19.9,14.072,14.072,0,0,1,19.9,33.973Z" transform="translate(3.886 3.315)" fill="#4adbd1" style="mix-blend-mode: multiply;isolation: isolate"/>
            </g>
            <path id="Trazado_150987" data-name="Trazado 150987" d="M5.61,0a5.61,5.61,0,1,0,5.61,5.61A5.61,5.61,0,0,0,5.61,0Zm0,9.576A3.967,3.967,0,1,1,9.576,5.61,3.967,3.967,0,0,1,5.61,9.576Z" transform="matrix(0.966, -0.259, 0.259, 0.966, 37.959, 13.965)" fill="#0f0140" style="mix-blend-mode: multiply;isolation: isolate"/>
            <circle id="Elipse_5034" data-name="Elipse 5034" cx="5.31" cy="5.31" r="5.31" transform="translate(218.659 180.604)" fill="#dad6f7"/>
            <circle id="Elipse_5035" data-name="Elipse 5035" cx="14.603" cy="14.603" r="14.603" transform="translate(22.182 24.837)" fill="#5573c6"/>
          </g>
        </g>
      </g>
    </g>
    <g id="Grupo_1037082" data-name="Grupo 1037082" transform="translate(-12656.463 -1244.606)">
      <g id="Grupo_1033206" data-name="Grupo 1033206" transform="translate(1047 2496.927)" clip-path="url(#clip-path-2)">
        <g id="Grupo_1033160" data-name="Grupo 1033160">
          <g id="Grupo_1033159" data-name="Grupo 1033159" clip-path="url(#clip-path-3)">
            <g id="Grupo_1033155" data-name="Grupo 1033155" transform="translate(150.188 152.903)" opacity="0.4" style="mix-blend-mode: multiply;isolation: isolate">
              <g id="Grupo_1033154" data-name="Grupo 1033154">
                <g id="Grupo_1033153" data-name="Grupo 1033153" clip-path="url(#clip-path-4)">
                  <path id="Trazado_779797" data-name="Trazado 779797" d="M136.353,101.043l-28.32,14.963c-4.825,2.548-12.649,2.19-17.473-.8s-4.825-7.482,0-10.031l28.32-14.962c4.825-2.55,12.649-2.192,17.473.8s4.825,7.482,0,10.031" transform="translate(-86.941 -88.512)" fill="#5573c6"/>
                </g>
              </g>
            </g>
            <g id="Grupo_1033158" data-name="Grupo 1033158" transform="translate(0 66.107)" opacity="0.4" style="mix-blend-mode: multiply;isolation: isolate">
              <g id="Grupo_1033157" data-name="Grupo 1033157">
                <g id="Grupo_1033156" data-name="Grupo 1033156" clip-path="url(#clip-path-5)">
                  <path id="Trazado_779798" data-name="Trazado 779798" d="M183.09,79.207,70.909,143.974,0,103.035,112.181,38.268Z" transform="translate(0 -38.268)" fill="#5573c6"/>
                </g>
              </g>
            </g>
          </g>
        </g>
        <path id="Trazado_779799" data-name="Trazado 779799" d="M201.86,90.255,89.679,155.023,18.77,114.082V110.15L130.951,49.316l70.91,37.006Z" transform="translate(13.655 35.876)" fill="#12263f"/>
        <path id="Trazado_779800" data-name="Trazado 779800" d="M201.86,87.979,89.679,152.745,18.77,111.806,130.951,47.039Z" transform="translate(13.655 34.22)" fill="#b0c0d2"/>
        <path id="Trazado_779801" data-name="Trazado 779801" d="M28.385,104.082l89.146-51.468,40.9,23.613L69.285,127.693Z" transform="translate(20.649 38.275)" fill="#fff"/>
        <path id="Trazado_779802" data-name="Trazado 779802" d="M29.613,84.082,36.5,80.105l5.255,3.033-6.887,3.978Z" transform="translate(21.543 58.275)" fill="#4d4d4d"/>
        <path id="Trazado_779803" data-name="Trazado 779803" d="M34.252,81.4l6.887-3.977L46.4,80.46l-6.889,3.977Z" transform="translate(24.918 56.326)" fill="#4d4d4d"/>
        <path id="Trazado_779804" data-name="Trazado 779804" d="M38.891,78.725l6.889-3.977,5.255,3.033-6.889,3.977Z" transform="translate(28.292 54.378)" fill="#4d4d4d"/>
        <path id="Trazado_779805" data-name="Trazado 779805" d="M43.53,76.047l6.887-3.977L55.672,75.1,48.785,79.08Z" transform="translate(31.667 52.43)" fill="#4d4d4d"/>
        <path id="Trazado_779806" data-name="Trazado 779806" d="M48.169,73.369l6.889-3.977,5.255,3.033L53.424,76.4Z" transform="translate(35.042 50.481)" fill="#4d4d4d"/>
        <path id="Trazado_779807" data-name="Trazado 779807" d="M52.807,70.69,59.7,66.714l5.255,3.033-6.889,3.977Z" transform="translate(38.416 48.533)" fill="#4d4d4d"/>
        <path id="Trazado_779808" data-name="Trazado 779808" d="M57.446,68.012l6.887-3.977,5.255,3.033L62.7,71.046Z" transform="translate(41.791 46.584)" fill="#4d4d4d"/>
        <path id="Trazado_779809" data-name="Trazado 779809" d="M62.086,65.334l6.887-3.977,5.257,3.033L67.34,68.367Z" transform="translate(45.166 44.636)" fill="#4d4d4d"/>
        <path id="Trazado_779810" data-name="Trazado 779810" d="M66.725,62.656l6.887-3.977,5.257,3.033-6.889,3.977Z" transform="translate(48.541 42.688)" fill="#4d4d4d"/>
        <path id="Trazado_779811" data-name="Trazado 779811" d="M71.364,59.977,78.251,56l5.255,3.033-6.887,3.978Z" transform="translate(51.915 40.739)" fill="#4d4d4d"/>
        <path id="Trazado_779812" data-name="Trazado 779812" d="M76,57.3l6.887-3.977,5.255,3.033-6.887,3.978Z" transform="translate(55.29 38.791)" fill="#4d4d4d"/>
        <path id="Trazado_779813" data-name="Trazado 779813" d="M35.067,87.231l6.887-3.977,5.255,3.033-6.887,3.977Z" transform="translate(25.511 60.566)" fill="#4d4d4d"/>
        <path id="Trazado_779814" data-name="Trazado 779814" d="M39.706,84.553l6.887-3.977L51.85,83.61l-6.889,3.977Z" transform="translate(28.885 58.617)" fill="#4d4d4d"/>
        <path id="Trazado_779815" data-name="Trazado 779815" d="M44.345,81.874,51.234,77.9l5.255,3.033L49.6,84.909Z" transform="translate(32.26 56.669)" fill="#4d4d4d"/>
        <path id="Trazado_779816" data-name="Trazado 779816" d="M48.984,79.2l6.887-3.977,5.257,3.033-6.889,3.978Z" transform="translate(35.635 54.72)" fill="#4d4d4d"/>
        <path id="Trazado_779817" data-name="Trazado 779817" d="M53.623,76.518l6.887-3.977,5.255,3.033-6.887,3.977Z" transform="translate(39.01 52.772)" fill="#4d4d4d"/>
        <path id="Trazado_779818" data-name="Trazado 779818" d="M58.262,73.84l6.887-3.977L70.406,72.9l-6.889,3.977Z" transform="translate(42.384 50.824)" fill="#4d4d4d"/>
        <path id="Trazado_779819" data-name="Trazado 779819" d="M62.9,71.161l6.887-3.977,5.255,3.033L68.156,74.2Z" transform="translate(45.759 48.875)" fill="#4d4d4d"/>
        <path id="Trazado_779820" data-name="Trazado 779820" d="M67.54,68.483l6.887-3.977,5.257,3.033L72.8,71.518Z" transform="translate(49.134 46.927)" fill="#4d4d4d"/>
        <path id="Trazado_779821" data-name="Trazado 779821" d="M72.179,65.8l6.889-3.977,5.253,3.033-6.887,3.977Z" transform="translate(52.508 44.978)" fill="#4d4d4d"/>
        <path id="Trazado_779822" data-name="Trazado 779822" d="M76.818,63.126l6.887-3.977,5.255,3.033-6.887,3.978Z" transform="translate(55.883 43.03)" fill="#4d4d4d"/>
        <path id="Trazado_779823" data-name="Trazado 779823" d="M81.457,60.448l6.887-3.977L93.6,59.5l-6.887,3.978Z" transform="translate(59.258 41.081)" fill="#4d4d4d"/>
        <path id="Trazado_779824" data-name="Trazado 779824" d="M38.555,89.245l6.887-3.977L50.7,88.3,43.81,92.28Z" transform="translate(28.048 62.03)" fill="#4d4d4d"/>
        <path id="Trazado_779825" data-name="Trazado 779825" d="M43.194,86.566l6.889-3.977,5.255,3.033L48.449,89.6Z" transform="translate(31.423 60.082)" fill="#4d4d4d"/>
        <path id="Trazado_779826" data-name="Trazado 779826" d="M47.833,83.888l6.887-3.977,5.255,3.033-6.887,3.977Z" transform="translate(34.797 58.134)" fill="#4d4d4d"/>
        <path id="Trazado_779827" data-name="Trazado 779827" d="M52.472,81.21l6.887-3.977,5.257,3.033-6.889,3.978Z" transform="translate(38.172 56.185)" fill="#4d4d4d"/>
        <path id="Trazado_779828" data-name="Trazado 779828" d="M57.111,78.531,64,74.555l5.255,3.033-6.889,3.978Z" transform="translate(41.547 54.237)" fill="#4d4d4d"/>
        <path id="Trazado_779829" data-name="Trazado 779829" d="M61.75,75.853l6.887-3.977,5.257,3.033L67,78.886Z" transform="translate(44.922 52.288)" fill="#4d4d4d"/>
        <path id="Trazado_779830" data-name="Trazado 779830" d="M66.389,73.175,73.276,69.2l5.255,3.033-6.887,3.977Z" transform="translate(48.296 50.34)" fill="#4d4d4d"/>
        <path id="Trazado_779831" data-name="Trazado 779831" d="M71.028,70.5l6.889-3.977,5.255,3.033-6.889,3.978Z" transform="translate(51.671 48.392)" fill="#4d4d4d"/>
        <path id="Trazado_779832" data-name="Trazado 779832" d="M75.667,67.818l6.887-3.977,5.255,3.033-6.887,3.978Z" transform="translate(55.046 46.443)" fill="#4d4d4d"/>
        <path id="Trazado_779833" data-name="Trazado 779833" d="M80.306,65.14l6.887-3.977L92.448,64.2l-6.887,3.978Z" transform="translate(58.421 44.495)" fill="#4d4d4d"/>
        <path id="Trazado_779834" data-name="Trazado 779834" d="M42.043,91.258l6.887-3.977,5.257,3.033L47.3,94.293Z" transform="translate(30.585 63.495)" fill="#4d4d4d"/>
        <path id="Trazado_779835" data-name="Trazado 779835" d="M46.682,88.58,53.569,84.6l5.255,3.033-6.887,3.978Z" transform="translate(33.96 61.547)" fill="#4d4d4d"/>
        <path id="Trazado_779836" data-name="Trazado 779836" d="M51.321,85.9l6.887-3.977,5.255,3.033-6.887,3.977Z" transform="translate(37.335 59.599)" fill="#4d4d4d"/>
        <path id="Trazado_779837" data-name="Trazado 779837" d="M55.96,83.223l6.889-3.977L68.1,82.28l-6.887,3.977Z" transform="translate(40.709 57.65)" fill="#4d4d4d"/>
        <path id="Trazado_779838" data-name="Trazado 779838" d="M60.6,80.545l6.889-3.977L72.743,79.6,65.853,83.58Z" transform="translate(44.084 55.702)" fill="#4d4d4d"/>
        <path id="Trazado_779839" data-name="Trazado 779839" d="M65.238,77.867l6.887-3.977,5.255,3.033L70.492,80.9Z" transform="translate(47.459 53.753)" fill="#4d4d4d"/>
        <path id="Trazado_779840" data-name="Trazado 779840" d="M69.877,75.189l6.887-3.977,5.257,3.033-6.889,3.977Z" transform="translate(50.834 51.805)" fill="#4d4d4d"/>
        <path id="Trazado_779841" data-name="Trazado 779841" d="M74.516,72.51,81.4,68.534l5.257,3.033L79.77,75.544Z" transform="translate(54.208 49.857)" fill="#4d4d4d"/>
        <path id="Trazado_779842" data-name="Trazado 779842" d="M79.155,69.832l6.887-3.977L91.3,68.889l-6.889,3.977Z" transform="translate(57.583 47.908)" fill="#4d4d4d"/>
        <path id="Trazado_779843" data-name="Trazado 779843" d="M85.782,62.462l6.025,3.477-8.014,4.628L89.048,73.6l8.014-4.626,2.011-1.161L103.95,65l-4.472-2.583-.783-.453-6.025-3.477Z" transform="translate(60.958 42.547)" fill="#4d4d4d"/>
        <path id="Trazado_779844" data-name="Trazado 779844" d="M55.642,89.383l-2.1,1.211-8.014,4.628,5.255,3.033L58.8,93.627l2.1-1.211,4.79-2.766-5.255-3.033Z" transform="translate(33.123 63.012)" fill="#4d4d4d"/>
        <path id="Trazado_779845" data-name="Trazado 779845" d="M54.808,87.915,61.7,83.939l5.255,3.033L60.063,90.95Z" transform="translate(39.872 61.063)" fill="#4d4d4d"/>
        <path id="Trazado_779846" data-name="Trazado 779846" d="M59.447,85.237l6.887-3.977,5.255,3.033L64.7,88.271Z" transform="translate(43.247 59.115)" fill="#4d4d4d"/>
        <path id="Trazado_779847" data-name="Trazado 779847" d="M64.086,82.559l6.887-3.977,5.255,3.033-6.887,3.977Z" transform="translate(46.621 57.167)" fill="#4d4d4d"/>
        <path id="Trazado_779848" data-name="Trazado 779848" d="M68.725,79.881,75.614,75.9l5.253,3.033L73.98,82.914Z" transform="translate(49.996 55.218)" fill="#4d4d4d"/>
        <path id="Trazado_779849" data-name="Trazado 779849" d="M73.364,77.2l6.887-3.977,5.255,3.033-6.887,3.977Z" transform="translate(53.371 53.27)" fill="#4d4d4d"/>
        <path id="Trazado_779850" data-name="Trazado 779850" d="M78,74.524l6.887-3.977,5.257,3.033-6.889,3.978Z" transform="translate(56.746 51.321)" fill="#4d4d4d"/>
        <path id="Trazado_779851" data-name="Trazado 779851" d="M82.642,71.846l6.887-3.977L94.786,70.9,87.9,74.879Z" transform="translate(60.12 49.373)" fill="#4d4d4d"/>
        <path id="Trazado_779852" data-name="Trazado 779852" d="M94.169,67.139l-1.178.681-5.709,3.3,5.255,3.033,5.709-3.3,1.178-.679,8.014-4.628-5.255-3.033Z" transform="translate(63.495 45.476)" fill="#4d4d4d"/>
        <path id="Trazado_779853" data-name="Trazado 779853" d="M49.018,95.286l6.887-3.977,5.257,3.033-6.889,3.977Z" transform="translate(35.66 66.425)" fill="#4d4d4d"/>
        <path id="Trazado_779854" data-name="Trazado 779854" d="M53.657,92.607l6.887-3.977L65.8,91.664l-6.889,3.977Z" transform="translate(39.034 64.477)" fill="#4d4d4d"/>
        <path id="Trazado_779855" data-name="Trazado 779855" d="M58.3,89.929l6.887-3.977,5.257,3.033-6.889,3.977Z" transform="translate(42.409 62.528)" fill="#4d4d4d"/>
        <path id="Trazado_779856" data-name="Trazado 779856" d="M98.433,74.549l-3.445,1.988-1.125.65-6.887,3.977-1.126.65-6.887,3.978-1.126.65-6.887,3.977-8.014,4.626,5.255,3.033L76.2,93.453l6.887-3.978,1.126-.65,6.887-3.977,1.126-.65,6.887-3.977,1.126-.65,3.443-1.99,3.445-1.988-5.255-3.033Z" transform="translate(45.784 52.786)" fill="#4d4d4d"/>
        <path id="Trazado_779857" data-name="Trazado 779857" d="M86.13,73.859l6.887-3.977,5.257,3.033-6.889,3.978Z" transform="translate(62.657 50.838)" fill="#4d4d4d"/>
        <path id="Trazado_779858" data-name="Trazado 779858" d="M90.769,71.181,97.656,67.2l5.257,3.033-6.889,3.977Z" transform="translate(66.032 48.89)" fill="#4d4d4d"/>
        <path id="Trazado_779859" data-name="Trazado 779859" d="M95.408,68.5l6.887-3.977,5.255,3.033-6.887,3.977Z" transform="translate(69.407 46.941)" fill="#4d4d4d"/>
        <path id="Trazado_779860" data-name="Trazado 779860" d="M29.613,83.627,36.5,79.651l5.255,3.033-6.887,3.977Z" transform="translate(21.543 57.944)" fill="#ebf4fe"/>
        <path id="Trazado_779861" data-name="Trazado 779861" d="M34.252,80.949l6.887-3.977L46.4,80.006l-6.889,3.977Z" transform="translate(24.918 55.996)" fill="#b0c0d2"/>
        <path id="Trazado_779862" data-name="Trazado 779862" d="M38.891,78.271l6.889-3.977,5.255,3.033L44.146,81.3Z" transform="translate(28.292 54.047)" fill="#b0c0d2"/>
        <path id="Trazado_779863" data-name="Trazado 779863" d="M43.53,75.593l6.887-3.977,5.255,3.033-6.887,3.977Z" transform="translate(31.667 52.099)" fill="#b0c0d2"/>
        <path id="Trazado_779864" data-name="Trazado 779864" d="M48.169,72.914l6.889-3.977,5.255,3.033-6.889,3.978Z" transform="translate(35.042 50.15)" fill="#b0c0d2"/>
        <path id="Trazado_779865" data-name="Trazado 779865" d="M52.807,70.236,59.7,66.259l5.255,3.033-6.889,3.977Z" transform="translate(38.416 48.202)" fill="#b0c0d2"/>
        <path id="Trazado_779866" data-name="Trazado 779866" d="M57.446,67.558l6.887-3.977,5.255,3.033L62.7,70.591Z" transform="translate(41.791 46.254)" fill="#b0c0d2"/>
        <path id="Trazado_779867" data-name="Trazado 779867" d="M62.086,64.879,68.973,60.9l5.257,3.033L67.34,67.913Z" transform="translate(45.166 44.305)" fill="#b0c0d2"/>
        <path id="Trazado_779868" data-name="Trazado 779868" d="M66.725,62.2l6.887-3.977,5.257,3.033-6.889,3.977Z" transform="translate(48.541 42.357)" fill="#b0c0d2"/>
        <path id="Trazado_779869" data-name="Trazado 779869" d="M71.364,59.523l6.887-3.977,5.255,3.033-6.887,3.978Z" transform="translate(51.915 40.409)" fill="#b0c0d2"/>
        <path id="Trazado_779870" data-name="Trazado 779870" d="M76,56.844l6.887-3.977L88.145,55.9,81.257,59.88Z" transform="translate(55.29 38.46)" fill="#b0c0d2"/>
        <path id="Trazado_779871" data-name="Trazado 779871" d="M35.067,86.777,41.955,82.8l5.255,3.033L40.322,89.81Z" transform="translate(25.511 60.235)" fill="#b0c0d2"/>
        <path id="Trazado_779872" data-name="Trazado 779872" d="M39.706,84.1l6.887-3.977,5.257,3.033-6.889,3.977Z" transform="translate(28.885 58.287)" fill="#b0c0d2"/>
        <path id="Trazado_779873" data-name="Trazado 779873" d="M44.345,81.42l6.889-3.977,5.255,3.033L49.6,84.455Z" transform="translate(32.26 56.338)" fill="#b0c0d2"/>
        <path id="Trazado_779874" data-name="Trazado 779874" d="M48.984,78.742l6.887-3.977L61.128,77.8l-6.889,3.978Z" transform="translate(35.635 54.39)" fill="#b0c0d2"/>
        <path id="Trazado_779875" data-name="Trazado 779875" d="M53.623,76.063l6.887-3.977,5.255,3.033L58.878,79.1Z" transform="translate(39.01 52.442)" fill="#b0c0d2"/>
        <path id="Trazado_779876" data-name="Trazado 779876" d="M58.262,73.385l6.887-3.977,5.257,3.033-6.889,3.977Z" transform="translate(42.384 50.493)" fill="#b0c0d2"/>
        <path id="Trazado_779877" data-name="Trazado 779877" d="M62.9,70.707l6.887-3.977,5.255,3.033-6.887,3.978Z" transform="translate(45.759 48.545)" fill="#b0c0d2"/>
        <path id="Trazado_779878" data-name="Trazado 779878" d="M67.54,68.028l6.887-3.977,5.257,3.033L72.8,71.064Z" transform="translate(49.134 46.596)" fill="#b0c0d2"/>
        <path id="Trazado_779879" data-name="Trazado 779879" d="M72.179,65.35l6.889-3.977,5.253,3.033-6.887,3.977Z" transform="translate(52.508 44.648)" fill="#b0c0d2"/>
        <path id="Trazado_779880" data-name="Trazado 779880" d="M76.818,62.672,83.705,58.7l5.255,3.033-6.887,3.977Z" transform="translate(55.883 42.7)" fill="#b0c0d2"/>
        <path id="Trazado_779881" data-name="Trazado 779881" d="M81.457,59.993l6.887-3.977L93.6,59.05l-6.887,3.978Z" transform="translate(59.258 40.751)" fill="#b0c0d2"/>
        <path id="Trazado_779882" data-name="Trazado 779882" d="M38.555,88.79l6.887-3.977L50.7,87.847,43.81,91.825Z" transform="translate(28.048 61.7)" fill="#b0c0d2"/>
        <path id="Trazado_779883" data-name="Trazado 779883" d="M43.194,86.112l6.889-3.977,5.255,3.033-6.889,3.977Z" transform="translate(31.423 59.752)" fill="#b0c0d2"/>
        <path id="Trazado_779884" data-name="Trazado 779884" d="M47.833,83.434l6.887-3.977,5.255,3.033-6.887,3.977Z" transform="translate(34.797 57.803)" fill="#b0c0d2"/>
        <path id="Trazado_779885" data-name="Trazado 779885" d="M52.472,80.755l6.887-3.977,5.257,3.033L57.727,83.79Z" transform="translate(38.172 55.855)" fill="#b0c0d2"/>
        <path id="Trazado_779886" data-name="Trazado 779886" d="M57.111,78.077,64,74.1l5.255,3.033-6.889,3.978Z" transform="translate(41.547 53.906)" fill="#b0c0d2"/>
        <path id="Trazado_779887" data-name="Trazado 779887" d="M61.75,75.4l6.887-3.977,5.257,3.033L67,78.434Z" transform="translate(44.922 51.958)" fill="#b0c0d2"/>
        <path id="Trazado_779888" data-name="Trazado 779888" d="M66.389,72.72l6.887-3.977,5.255,3.033-6.887,3.978Z" transform="translate(48.296 50.01)" fill="#b0c0d2"/>
        <path id="Trazado_779889" data-name="Trazado 779889" d="M71.028,70.042l6.889-3.977L83.172,69.1l-6.889,3.978Z" transform="translate(51.671 48.061)" fill="#b0c0d2"/>
        <path id="Trazado_779890" data-name="Trazado 779890" d="M75.667,67.364l6.887-3.977,5.255,3.033L80.922,70.4Z" transform="translate(55.046 46.113)" fill="#b0c0d2"/>
        <path id="Trazado_779891" data-name="Trazado 779891" d="M80.306,64.685l6.887-3.977,5.255,3.033-6.887,3.977Z" transform="translate(58.421 44.164)" fill="#b0c0d2"/>
        <path id="Trazado_779892" data-name="Trazado 779892" d="M42.043,90.8l6.887-3.977,5.257,3.033L47.3,93.839Z" transform="translate(30.585 63.165)" fill="#b0c0d2"/>
        <path id="Trazado_779893" data-name="Trazado 779893" d="M46.682,88.125l6.887-3.977,5.255,3.033-6.887,3.978Z" transform="translate(33.96 61.216)" fill="#b0c0d2"/>
        <path id="Trazado_779894" data-name="Trazado 779894" d="M51.321,85.447l6.887-3.977L63.463,84.5l-6.887,3.977Z" transform="translate(37.335 59.268)" fill="#b0c0d2"/>
        <path id="Trazado_779895" data-name="Trazado 779895" d="M55.96,82.769l6.889-3.977L68.1,81.826,61.215,85.8Z" transform="translate(40.709 57.32)" fill="#b0c0d2"/>
        <path id="Trazado_779896" data-name="Trazado 779896" d="M60.6,80.09l6.889-3.977,5.255,3.033-6.889,3.978Z" transform="translate(44.084 55.371)" fill="#b0c0d2"/>
        <path id="Trazado_779897" data-name="Trazado 779897" d="M65.238,77.412l6.887-3.977,5.255,3.033-6.887,3.977Z" transform="translate(47.459 53.423)" fill="#b0c0d2"/>
        <path id="Trazado_779898" data-name="Trazado 779898" d="M69.877,74.734l6.887-3.977,5.257,3.033-6.889,3.977Z" transform="translate(50.834 51.475)" fill="#b0c0d2"/>
        <path id="Trazado_779899" data-name="Trazado 779899" d="M74.516,72.056,81.4,68.079l5.257,3.033L79.77,75.089Z" transform="translate(54.208 49.526)" fill="#b0c0d2"/>
        <path id="Trazado_779900" data-name="Trazado 779900" d="M79.155,69.378,86.042,65.4,91.3,68.434l-6.889,3.977Z" transform="translate(57.583 47.578)" fill="#b0c0d2"/>
        <path id="Trazado_779901" data-name="Trazado 779901" d="M85.782,62.007l6.025,3.479-8.014,4.626,5.255,3.033,8.014-4.626,2.011-1.161,4.877-2.816-4.472-2.583-.783-.453-6.025-3.477Z" transform="translate(60.958 42.216)" fill="#ebf4fe"/>
        <path id="Trazado_779902" data-name="Trazado 779902" d="M55.642,88.928l-2.1,1.211-8.014,4.628L50.786,97.8,58.8,93.173l2.1-1.211,4.79-2.766-5.255-3.033Z" transform="translate(33.123 62.681)" fill="#ebf4fe"/>
        <path id="Trazado_779903" data-name="Trazado 779903" d="M54.808,87.461,61.7,83.484l5.255,3.033-6.889,3.977Z" transform="translate(39.872 60.733)" fill="#b0c0d2"/>
        <path id="Trazado_779904" data-name="Trazado 779904" d="M59.447,84.783l6.887-3.977,5.255,3.033L64.7,87.816Z" transform="translate(43.247 58.785)" fill="#b0c0d2"/>
        <path id="Trazado_779905" data-name="Trazado 779905" d="M64.086,82.1l6.887-3.977,5.255,3.033-6.887,3.977Z" transform="translate(46.621 56.836)" fill="#b0c0d2"/>
        <path id="Trazado_779906" data-name="Trazado 779906" d="M68.725,79.426l6.889-3.977,5.253,3.033L73.98,82.46Z" transform="translate(49.996 54.888)" fill="#b0c0d2"/>
        <path id="Trazado_779907" data-name="Trazado 779907" d="M73.364,76.748l6.887-3.977L85.507,75.8l-6.887,3.977Z" transform="translate(53.371 52.939)" fill="#b0c0d2"/>
        <path id="Trazado_779908" data-name="Trazado 779908" d="M78,74.069l6.887-3.977,5.257,3.033L83.258,77.1Z" transform="translate(56.746 50.991)" fill="#b0c0d2"/>
        <path id="Trazado_779909" data-name="Trazado 779909" d="M82.642,71.391l6.887-3.977,5.257,3.033L87.9,74.425Z" transform="translate(60.12 49.043)" fill="#b0c0d2"/>
        <path id="Trazado_779910" data-name="Trazado 779910" d="M94.169,66.684l-1.178.681-5.709,3.3,5.255,3.033,5.709-3.3,1.178-.679,8.014-4.628-5.255-3.033Z" transform="translate(63.495 45.146)" fill="#ebf4fe"/>
        <path id="Trazado_779911" data-name="Trazado 779911" d="M49.018,94.831l6.887-3.977,5.257,3.033-6.889,3.977Z" transform="translate(35.66 66.095)" fill="#ebf4fe"/>
        <path id="Trazado_779912" data-name="Trazado 779912" d="M53.657,92.153l6.887-3.977L65.8,91.21l-6.889,3.977Z" transform="translate(39.034 64.146)" fill="#b0c0d2"/>
        <path id="Trazado_779913" data-name="Trazado 779913" d="M58.3,89.475,65.184,85.5l5.257,3.033-6.889,3.977Z" transform="translate(42.409 62.198)" fill="#b0c0d2"/>
        <path id="Trazado_779914" data-name="Trazado 779914" d="M98.433,74.095l-3.445,1.988-1.125.65-6.887,3.977-1.126.65-6.887,3.978-1.126.65-6.887,3.977L62.935,94.59l5.255,3.033L76.2,93l6.887-3.978,1.126-.65,6.887-3.977,1.126-.65,6.887-3.977,1.126-.65,3.443-1.99,3.445-1.988-5.255-3.033Z" transform="translate(45.784 52.456)" fill="#ebf4fe"/>
        <path id="Trazado_779915" data-name="Trazado 779915" d="M86.13,73.4l6.887-3.977,5.257,3.033L91.385,76.44Z" transform="translate(62.657 50.507)" fill="#b0c0d2"/>
        <path id="Trazado_779916" data-name="Trazado 779916" d="M90.769,70.726l6.887-3.977,5.257,3.033L96.024,73.76Z" transform="translate(66.032 48.559)" fill="#b0c0d2"/>
        <path id="Trazado_779917" data-name="Trazado 779917" d="M95.408,68.048l6.887-3.977,5.255,3.035-6.887,3.977Z" transform="translate(69.407 46.611)" fill="#ebf4fe"/>
        <path id="Trazado_779918" data-name="Trazado 779918" d="M116.717,0,4.536,64.768,26.009,145l3.116,1.026L138.19,80.234,119.834,1.024Z" transform="translate(3.3 0)" fill="#373f51"/>
        <path id="Trazado_779919" data-name="Trazado 779919" d="M6.34,65.36l21.473,80.234L139.992,80.828,118.521.593Z" transform="translate(4.613 0.432)" fill="url(#linear-gradient)"/>
        <path id="Trazado_779920" data-name="Trazado 779920" d="M134.41,77.04,28.282,138.314l-.33-1.22L8.617,64.832,113.526,4.27l1.22-.712Z" transform="translate(6.268 2.589)" fill="#1b1b25"/>
        <path id="Trazado_779921" data-name="Trazado 779921" d="M132.853,76.237l-.093.047L27.944,136.8,8.62,64.533,60.5,34.585,113.53,3.966Z" transform="translate(6.271 2.885)" fill="#373f51"/>
        <path id="Trazado_779922" data-name="Trazado 779922" d="M109.445,86.531,87.327,99.3l-13.88-8.014L95.563,78.515Z" transform="translate(53.431 57.118)" fill="#5573c6"/>
      </g>
      <g id="Grupo_1034072" data-name="Grupo 1034072" transform="translate(1169.46 2473.029)">
        <g id="Grupo_1034071" data-name="Grupo 1034071" transform="translate(0 0)">
          <g id="Grupo_1034055" data-name="Grupo 1034055" transform="translate(14.533 80.496)" opacity="0.4" style="mix-blend-mode: multiply;isolation: isolate">
            <g id="Grupo_1034054" data-name="Grupo 1034054">
              <g id="Grupo_1034053" data-name="Grupo 1034053" clip-path="url(#clip-path-6)">
                <path id="Trazado_783004" data-name="Trazado 783004" d="M197.532,115.022l20.631,10.9c3.515,1.857,9.214,1.6,12.73-.582s3.515-5.45,0-7.307l-20.631-10.9c-3.515-1.857-9.214-1.6-12.73.582s-3.515,5.45,0,7.307" transform="translate(-194.894 -105.893)" fill="#5573c6"/>
              </g>
            </g>
          </g>
          <path id="Trazado_783006" data-name="Trazado 783006" d="M201.015,83.517c-.083-.052-2.488.048-2.488.048l-4.645-.672-2.774,1.524-2.12,1.18-2.341,2.577c-.425.556.021.976.731.5l2.327-1.886a1.1,1.1,0,0,0,.715,1.185,1.451,1.451,0,0,0,1.088,1.088,1.7,1.7,0,0,0,1.128.738l2,.482.836-.525.117-.855,2.047-.755,1.092-.836,2.938-1.826Z" transform="translate(-186.482 -42.13)" fill="#fdd3bd"/>
          <path id="Trazado_783007" data-name="Trazado 783007" d="M202.343,80.276l-.069.694a3.7,3.7,0,0,1,.09,3.35l-.39,1.833.237,1.109c-.109.734-.479.784-.947.572l.418.589,1.057,1.32,1.119.574c.465.356.333.527-.019.627.212.39.029.593-.344.707l-.978-.61c.021.479-.245.827-.675.477l-1.717-1.658a9.027,9.027,0,0,1-1.418-3.084,14.022,14.022,0,0,1,1-5.167l-.012-.86c-.223-1.1,2.51-1.289,2.653-.472" transform="translate(-177.589 -44.402)" fill="#fdd3bd"/>
          <path id="Trazado_783008" data-name="Trazado 783008" d="M206.391,94.017l-2.6-1.584-2.577-9.467s-9.734-9.294-7.824-19.27l9.389,6.951,7.629,15.578Z" transform="translate(-181.636 -56.096)" fill="#5573c6"/>
          <path id="Trazado_783009" data-name="Trazado 783009" d="M216.229,109.914c.461.922.105,2.792-.435,4.877-.976,2.025-2.966,1.477-4.742,1.422-3.429-.109-5.559,2.083-9.99,1.24-2.633-.5-4.282-1.4-4.521-3.172.064-.784.66-1.48,1.743-2.1,0,0,6.547-1.567,6.723-1.641a31.6,31.6,0,0,0,3.346-1.74c.092-.2,1.956-4.643,1.956-4.643l6.506,1.228Z" transform="translate(-179.164 -26.657)"/>
          <path id="Trazado_783010" data-name="Trazado 783010" d="M218.306,114.691c.516,1.981.612,2.555.287,3.99a21.172,21.172,0,0,0-1,2.125c-.437,1.29-.484,3.477-2.493,4.692-2.4,1.721-6.891,1.591-8.209-.428a10.285,10.285,0,0,1,2.033-4.671l2.477-4.123.043-3.971,6.606-1.125Z" transform="translate(-171.636 -21.553)"/>
          <path id="Trazado_783011" data-name="Trazado 783011" d="M215.34,78.766l-4.925,26.088c.669,7.958,3.369,15.822,2.584,23.5-.6,3.184-7.183,2.664-8.425.311.465-5.974-2.985-14.849-4.243-24.658-.23-9.7-.052-19.673,1.973-27.351Z" transform="translate(-176.463 -46.666)" fill="#30485c"/>
          <path id="Trazado_783012" data-name="Trazado 783012" d="M215.34,78.766l-4.925,26.088c.669,7.958,3.369,15.822,2.584,23.5-.6,3.184-7.183,2.664-8.425.311.465-5.974-2.985-14.849-4.243-24.658-.23-9.7-.052-19.673,1.973-27.351Z" transform="translate(-176.463 -46.666)" fill="#d2e1f1"/>
          <path id="Trazado_783013" data-name="Trazado 783013" d="M201.3,79.684c-.316,2.695,3.042,9.974,7.114,13.376-.088,5.768.183,15.787.845,22.34,2.609,9.537,4.963,18.672,5.326,24.649,1.038,1.439,4.3,2.135,6.4,1.465a2.235,2.235,0,0,0,.42-.157c.043-.019.093-.043.142-.062a2.121,2.121,0,0,0,1.3-1.847,88.284,88.284,0,0,0-2.477-23.053L222,89.767c1.513-3.605,2.36-7.8.677-14.219l-1.791.349Z" transform="translate(-175.716 -47.473)" fill="#b0c0d2"/>
          <path id="Trazado_783014" data-name="Trazado 783014" d="M193.787,70.246A23.869,23.869,0,0,0,203.262,85.1l1.636,3.115,2.152,4.1c18,7.362,21.424-4.944,21.424-4.944-1.344-12.984-9.974-16.96-9.974-16.96-3.3-5.5-9.562-8.67-9.562-8.67-19.812-8.672-15.152,8.5-15.152,8.5" transform="translate(-181.515 -59.296)" fill="#5573c6"/>
          <g id="Grupo_1034061" data-name="Grupo 1034061" transform="translate(23.385 19.619)" opacity="0.2" style="mix-blend-mode: multiply;isolation: isolate">
            <g id="Grupo_1034060" data-name="Grupo 1034060">
              <g id="Grupo_1034059" data-name="Grupo 1034059" clip-path="url(#clip-path-7)">
                <path id="Trazado_783015" data-name="Trazado 783015" d="M200.019,79.954l2.151,4.1c18.005,7.362,21.424-4.946,21.424-4.946s-9.394.831-12.044-7.153l-4.909-1.3s-1.527,8.187-6.621,9.3" transform="translate(-200.019 -70.653)" fill="#373f51"/>
              </g>
            </g>
          </g>
          <path id="Trazado_783016" data-name="Trazado 783016" d="M220.06,72.956s-2.109,19.8-7.654,21.182c-4.6,3.533-15.946,3.363-17.826,3.407,0,0-3.049-3.407-.713-5.034,1.275.42,14.31-4.844,14.31-4.844l1.631-9.693c-.085-10.873,10.481-9.79,10.253-5.018" transform="translate(-181.751 -51.871)" fill="#5573c6"/>
          <path id="Trazado_783017" data-name="Trazado 783017" d="M197.534,63.43l4.384.52s2.488.5,1.757,5.207c-.707,4.554-2.728,4.9-2.728,4.9L193.5,70.587Z" transform="translate(-181.38 -56.289)" fill="#fdd3bd"/>
          <g id="Grupo_1034064" data-name="Grupo 1034064" transform="translate(14.544 14.74)" opacity="0.5" style="mix-blend-mode: multiply;isolation: isolate">
            <g id="Grupo_1034063" data-name="Grupo 1034063">
              <g id="Grupo_1034062" data-name="Grupo 1034062" clip-path="url(#clip-path-8)">
                <path id="Trazado_783018" data-name="Trazado 783018" d="M197.539,67.829l2.386,3.032s.472,4.649-2.165,3.985c-1.294-.325-2.859-2.875-2.859-2.875Z" transform="translate(-194.901 -67.829)" fill="#f2a9a2"/>
              </g>
            </g>
          </g>
          <path id="Trazado_783019" data-name="Trazado 783019" d="M202.566,71.618s3.073-9.342-5.307-11.077c-2.374-.492-7.328,1.389-8.408,5.818-.677,2.776-1.55,5.911,3.431,8.867l.252,1.27c.047.67.378,1.012.912.883l.617-.242s2.111,1.48,3.913,1.076,4.965-3.237,4.59-6.6" transform="translate(-185.141 -58.446)" fill="#fdd3bd"/>
          <path id="Trazado_783020" data-name="Trazado 783020" d="M201.233,72.255c-.036-.019-.907.895-.907.895-1.831-.307-3.1.371-4.78-1.551,0,0-1.349,2.41-5.177,2.1a4.76,4.76,0,0,1-1.263-.836c-1.254-1.218-2.755-6.466,2.463-10.719a6.711,6.711,0,0,1,7.881-1.073,8.546,8.546,0,0,1,4.485,9.909,1.929,1.929,0,0,1-2.7,1.275" transform="translate(-185.453 -58.6)"/>
          <path id="Trazado_783021" data-name="Trazado 783021" d="M194.891,67.189a1.359,1.359,0,0,1,1.641-.753,1.873,1.873,0,0,1,1.216,1.455,1.377,1.377,0,0,1-.138.992,1.268,1.268,0,0,1-1.2.5,1.721,1.721,0,0,1-1.515-2.189" transform="translate(-180.429 -54.142)" fill="#fdd3bd"/>
        </g>
      </g>
      <g id="Grupo_1034068" data-name="Grupo 1034068" transform="translate(1050.839 2606.428)">
        <path id="Trazado_783031" data-name="Trazado 783031" d="M99.538,127.62l2.862.316,4.265-.256,3.707.352,3.008,1.159,1.691,1.106a.567.567,0,0,1,.251.37.579.579,0,0,1-.088.439l-.206.3.164.112a.414.414,0,0,1,.086.6.773.773,0,0,1-.822.254l-.409-.124-.231.244a1.052,1.052,0,0,1-1.292.187L110.5,131.5l-2.878.06,2.142.6.491.285a.819.819,0,0,1,.266,1.164.328.328,0,0,1-.385.126l-1.145-.413-3.066-.537-2.092-.534-2.565-1.574-2.676-1.049Z" transform="translate(-39.433 -109.032)" fill="#fdd3bd"/>
        <path id="Trazado_783032" data-name="Trazado 783032" d="M74.23,153.559c-1.624,1.6-1.937,4.9-1.65,6.513,1.767,1.252,3.372,1.829,4.719,1.349,3.766.75,5.711,1.79,7.76,1.748,2.182-.043,3.724-.29,5.295-2.045A2.268,2.268,0,0,0,89.3,157.8c-3.047-.935-5.747-1.912-7.057-3.063l-1.37-5.5-5.765,2.512Z" transform="translate(-58.421 -93.306)"/>
        <path id="Trazado_783033" data-name="Trazado 783033" d="M75.251,145.689l2.842,4.08s3.082,1.937.86,3.586c-1.035.767-3.657.574-3.657.574-2.42-.539-1.679-.2-5.808-5.091l-2.9-1.708c-1.613-.952-2.534-2.263-2.168-4.1l.477-1.183,3.548-4.015,2.4.532,5.305,2.729Z" transform="translate(-64.344 -101.603)"/>
        <path id="Trazado_783034" data-name="Trazado 783034" d="M68.373,143.71l3.149,5.257c2.133,1.764,4.424,1.214,6.257,2.418,1.952,1.282,6.26,1.2,7.886,1.952,10.085,4.656,11.436,3.477,11.436,3.477.912-1.645.344-4.13-.955-6.893a40.705,40.705,0,0,0-3.011-5.153,92.268,92.268,0,0,0-6.659-8.6c-1.539-1.79-2.615-2.925-2.615-2.925l-.9.783c-.37.326-2.985,2.073-5.9,4-.731.482-1.5.981-2.246,1.47-1.427.947-2.812,1.85-3.932,2.583-1.487.973-2.5,1.626-2.5,1.626" transform="translate(-61.413 -104.937)" fill="#8d9096"/>
        <path id="Trazado_783035" data-name="Trazado 783035" d="M70.808,151.915a28.777,28.777,0,0,0,8.449,1.152A64.857,64.857,0,0,0,90.975,152a1.17,1.17,0,0,1-.266.069c-1.617.378-3.949,1.909-6.091,4.018a20.034,20.034,0,0,0-5.094,7.768,7.971,7.971,0,0,0,7.744,2.349l9.826-7.863c4.353-2.539,4.371-6.212,4.371-6.272a7.808,7.808,0,0,0-.938-2.349,17.248,17.248,0,0,0-5.609-5.283,61.694,61.694,0,0,0-14.627-6.316c-.568-.173-1.059-.318-1.455-.421-.722-.206-1.145-.309-1.145-.309L67.59,133.7s-5.386,15.418,3.218,18.215" transform="translate(-63.193 -104.609)" fill="#2f5171"/>
        <g id="Grupo_1034066" data-name="Grupo 1034066" transform="translate(7.589 31.235)" opacity="0.5" style="mix-blend-mode: multiply;isolation: isolate">
          <g id="Grupo_1033199" data-name="Grupo 1033199">
            <g id="Grupo_1033198" data-name="Grupo 1033198" clip-path="url(#clip-path-9)">
              <path id="Trazado_780640" data-name="Trazado 780640" d="M68.737,139.931l1.876.921,14.927,7.312,10.342.525,2.6.13a17.249,17.249,0,0,0-5.609-5.283,92.567,92.567,0,0,0-6.659-8.6l-7.967,2.28-3.7,1.05Z" transform="translate(-68.737 -134.941)" fill="#8d9096"/>
            </g>
          </g>
        </g>
        <path id="Trazado_783036" data-name="Trazado 783036" d="M89.78,124.061l3.227,2.2c5.086-.1,17.853,4.267,17.853,4.267l-1.14,2.75c-7.373.56-19.926-1.368-19.926-1.368-.834-.247-1.8-.6-2.835-1,1.945-1.46,2.871-4.115,2.821-6.843" transform="translate(-47.892 -111.621)" fill="#4adbd1"/>
        <path id="Trazado_783037" data-name="Trazado 783037" d="M88.265,122.029l5.022,3.42c.052,2.83-.909,5.581-2.926,7.095-2.346-.922-5.11-2.177-7.979-3.514Z" transform="translate(-51.223 -113.1)" fill="#4adbd1"/>
        <path id="Trazado_783038" data-name="Trazado 783038" d="M96.127,120.79s2.23,4.668-2.716,8.145c-.19-2.337-1.028-4.471-2.223-5.144Z" transform="translate(-44.815 -114)"/>
        <path id="Trazado_783039" data-name="Trazado 783039" d="M66.212,149.006a9.014,9.014,0,0,0,4.353,2.538c4.664,1.308,10.368-.111,12.785-.852.75-.223,1.18-.387,1.18-.387l8.492-9.515c7.364-4.939,5.54-19.083,5.54-19.083-11.125-7.159-17.845,1.239-24.623,8.225s-7.727,19.075-7.727,19.075" transform="translate(-62.984 -115.32)" fill="#4adbd1"/>
        <path id="Trazado_783040" data-name="Trazado 783040" d="M98.17,153.848l.43,3.441s-20.362,4.447-24.162,0c0,0-1.864-1.935-.574-9.679l1.577-13.91c1.218-9.249,12.345-6.6,9.829,1.9L81.32,151.629Z" transform="translate(-57.749 -108.838)" fill="#fdd3bd"/>
        <path id="Trazado_783041" data-name="Trazado 783041" d="M87.362,143.363l2.151-.447,3.28.447,4.471,1.363,1.66,1.631v1.233l.43.743v.641l-1.2,2.282a.712.712,0,0,1-.631.382h-.261L97.09,152a.427.427,0,0,1-.451.237l-.147-.024a.256.256,0,0,1-.2-.335l.105-.314-.164-.18a.822.822,0,0,1-.074-1l.4-.6-.377-.808-3.194-.641-3.044-1.976-4.633-.608Z" transform="translate(-49.092 -97.904)" fill="#fdd3bd"/>
        <path id="Trazado_783042" data-name="Trazado 783042" d="M91.676,130.557c-.161.161-6.191,2.655-6.191,2.655s-3.7-3.246-2.2-9.539c1.434-.375,3.1-2.109,5.431-3.709Z" transform="translate(-50.825 -114.601)" fill="#fdd3bd"/>
        <path id="Trazado_783043" data-name="Trazado 783043" d="M84.671,124.1s1.363-6.943,8.318-6.943c0,0,7.8,1.4,7.368,8.335,0,0-.807,4.355-3.28,5.485l-.344,1.529a.972.972,0,0,1-.765.743l-.772.149-1.833,1.57a2.919,2.919,0,0,1-2.583.644,5.775,5.775,0,0,1-2.952-1.876c-2.258-2.543-3.156-9.636-3.156-9.636" transform="translate(-49.557 -116.64)" fill="#fdd3bd"/>
        <path id="Trazado_783044" data-name="Trazado 783044" d="M99.738,128.509c-1.862,1.206-5.835-1.277-8.022,1.1,0,0-3.049,2.2-5.378-.549s-2.076-4.191-2.076-4.191,1.734-7.166,6.45-7.877a8.889,8.889,0,0,1,8.783,3.528c1.864,2.279,3.1,6.143.244,7.993" transform="translate(-49.86 -116.86)"/>
        <path id="Trazado_783045" data-name="Trazado 783045" d="M89.49,123.384a1.689,1.689,0,0,0-.9.1,2.617,2.617,0,0,0-1.593,1.759,1.2,1.2,0,0,0,.183,1.137.976.976,0,0,0,.8.257,1.962,1.962,0,0,0,.81-.309,3.555,3.555,0,0,0,1.425-1.455,1.066,1.066,0,0,0-.726-1.493" transform="translate(-47.91 -112.13)" fill="#fdd3bd"/>
        <g id="Grupo_1034067" data-name="Grupo 1034067" transform="translate(7.589 22.69)" style="mix-blend-mode: multiply;isolation: isolate">
          <g id="Grupo_1033202" data-name="Grupo 1033202">
            <g id="Grupo_1033201" data-name="Grupo 1033201" clip-path="url(#clip-path-10)">
              <path id="Trazado_780651" data-name="Trazado 780651" d="M68.737,143.529c4.656,1.308,10.36-.112,12.776-.852l1.18-7.71-3.3-4.973s-3.819,11.272-10.652,13.535" transform="translate(-68.737 -129.996)" fill="#4adbd1"/>
            </g>
          </g>
        </g>
        <path id="Trazado_783046" data-name="Trazado 783046" d="M74.1,136.744a9.7,9.7,0,0,0,9.083,1.867l-1.194,6.666,16.166,2.13.43,3.441s-20.362,4.445-24.162,0c-1.8-1.869-.663-8.112-.323-14.1" transform="translate(-57.733 -102.395)" fill="#4adbd1"/>
        <path id="Trazado_783047" data-name="Trazado 783047" d="M73.818,143.372l1.092-9.629c1.282-9.722,12.977-6.934,10.334,2l-2.342,9.5a9.283,9.283,0,0,1-9.083-1.867" transform="translate(-57.451 -109.023)" fill="#4adbd1"/>
      </g>
      <g id="Grupo_1034073" data-name="Grupo 1034073" transform="translate(1208.047 2563.789)">
        <g id="Grupo_1033000" data-name="Grupo 1033000" transform="translate(0 63.721)">
          <path id="Trazado_779597" data-name="Trazado 779597" d="M29.38,175.43c-.751,1.115-3.754,26.4-4.22,35.729a1.1,1.1,0,0,0,1.1,1.16h0a1.1,1.1,0,0,0,1.092-.933l5.483-35.149-3.458-.808Z" transform="translate(-24.83 -169.878)" fill="#373f51"/>
          <path id="Trazado_779598" data-name="Trazado 779598" d="M50.488,175.43c.751,1.115,3.754,26.4,4.22,35.729a1.1,1.1,0,0,1-1.1,1.16h0a1.1,1.1,0,0,1-1.092-.933L47.03,176.238Z" transform="translate(-21.823 -169.878)" fill="#373f51"/>
          <path id="Trazado_779599" data-name="Trazado 779599" d="M24.881,174.122v.273a3.761,3.761,0,0,0,3.822,3.651l25.355.432a3.8,3.8,0,0,0,3.97-3.435v-.25a3.713,3.713,0,0,0-3.811-3.788l-25.367-.455a3.783,3.783,0,0,0-3.981,3.583Z" transform="translate(-24.87 -170.55)" fill="#373f51"/>
        </g>
        <g id="Grupo_1033011" data-name="Grupo 1033011" transform="translate(6.574 0)">
          <g id="Grupo_1033008" data-name="Grupo 1033008">
            <g id="Grupo_1033005" data-name="Grupo 1033005" transform="translate(0 51.618)">
              <g id="Grupo_1033002" data-name="Grupo 1033002" transform="translate(12.318 0.227)">
                <g id="Grupo_1033001" data-name="Grupo 1033001" transform="translate(26.526 46.023)">
                  <path id="Trazado_779600" data-name="Trazado 779600" d="M72.3,204.751c-4.55,0-6.563-.387-7.473-.751a1.725,1.725,0,0,0,1.684,1.342H82.621a.778.778,0,0,0,.751-.99c-1.831.148-5.733.4-11.079.4Z" transform="translate(-64.793 -200.098)" fill="url(#linear-gradient-2)"/>
                  <path id="Trazado_779601" data-name="Trazado 779601" d="M83.387,204.824a.686.686,0,0,0-.136-.273c-1.229-1.57-3.7-4.027-7.041-3.981-4.812.068-6.393.546-10.033.034a.3.3,0,0,0-.33.193l-.978,2.787a1.684,1.684,0,0,0-.023.887c.9.353,2.912.751,7.473.751,5.346,0,9.248-.25,11.079-.4Z" transform="translate(-64.797 -200.569)" fill="url(#linear-gradient-3)"/>
                </g>
                <path id="Trazado_779602" data-name="Trazado 779602" d="M66.948,197.78l-1.058,3.242a6.682,6.682,0,0,0,4.63.171l.489-2.741Z" transform="translate(-38.121 -154.93)" fill="url(#linear-gradient-4)"/>
                <path id="Trazado_779603" data-name="Trazado 779603" d="M46.326,160.224a.329.329,0,0,1,.262-.114c2.241.182,27.357,2.332,32.7,4.846,5.38,2.537-3.822,36.787-4.527,39.381a.3.3,0,0,1-.2.216,7.876,7.876,0,0,1-4.493-.307.3.3,0,0,1-.216-.341c.341-2.776,3.242-26.857.921-32.715a.341.341,0,0,0-.239-.193l-28.79-4.709a.308.308,0,0,1-.182-.512l4.778-5.562Z" transform="translate(-41.478 -160.11)" fill="url(#linear-gradient-5)"/>
              </g>
              <g id="Grupo_1033004" data-name="Grupo 1033004">
                <g id="Grupo_1033003" data-name="Grupo 1033003" transform="translate(66.329 40.815)">
                  <path id="Trazado_779604" data-name="Trazado 779604" d="M96.74,203.456c-3.549,2.855-5.369,3.811-6.29,4.1a1.742,1.742,0,0,0,2.15-.011l12.558-10.09a.785.785,0,0,0-.023-1.24c-1.342,1.263-4.22,3.9-8.383,7.246Z" transform="translate(-88.755 -195.734)" fill="url(#linear-gradient-6)"/>
                  <path id="Trazado_779605" data-name="Trazado 779605" d="M105.329,196.256a.751.751,0,0,0-.273-.125c-1.934-.444-5.392-.808-7.974,1.32-3.788,3.128-4.789,4.618-8.122,6.563l1.16,2.878a1.6,1.6,0,0,0,.535.705c.921-.284,2.741-1.251,6.29-4.1C101.109,200.158,104,197.519,105.329,196.256Z" transform="translate(-88.96 -195.791)" fill="url(#linear-gradient-7)"/>
                </g>
                <path id="Trazado_779606" data-name="Trazado 779606" d="M86.58,198.664c.25.228,2.707,5.187,2.707,5.187s2.73-.591,3.287-2.321l-2.457-4.47-3.538,1.6Z" transform="translate(-22.958 -154.801)" fill="url(#linear-gradient-8)"/>
                <path id="Trazado_779607" data-name="Trazado 779607" d="M31.5,159.91a13.863,13.863,0,0,0-.853,4.982,7.473,7.473,0,0,0,7.132,7.314l32.226,1.467a1.54,1.54,0,0,1,1.422,1.16c.762,2.935,4.459,11.921,22.557,29.882a1.46,1.46,0,0,0,1.809.193l2.571-1.627a.587.587,0,0,0,.193-.8L79.791,170.443a7.306,7.306,0,0,0-4.414-3.276l-27.471-7.018-16.426-.227Z" transform="translate(-30.649 -159.91)" fill="#e6b046"/>
              </g>
            </g>
            <path id="Trazado_779608" data-name="Trazado 779608" d="M68.558,122.19s-9.839,3.822-13.8,6.165l6.518,5.2s4.618-3.833,8.634-5.085l-1.342-6.279Z" transform="translate(-27.334 -113.479)" fill="url(#linear-gradient-9)"/>
            <g id="Grupo_1033006" data-name="Grupo 1033006" transform="translate(0.581 12.151)">
              <path id="Trazado_779609" data-name="Trazado 779609" d="M31.388,164.977c1.684,4.414,11.432,2.252,20.862,1.16a.516.516,0,0,0,.421-.318c.9-2.139,6.62-14.185,10.192-19.144a.514.514,0,0,1,.808-.046,32.292,32.292,0,0,0,23.717,9.6.522.522,0,0,0,.5-.375l.375-1.229a.519.519,0,0,0-.33-.648c-2.423-.865-13.4-5.1-17.8-12.6-4.96-8.474-.25-9.714-3.469-12.513-1.763-1.536-2.889-2.628-3.549-3.3a3.7,3.7,0,0,0-1.866-.341c-4.675-.159-9.134,2.582-9.134,2.582-11.307,6.939-18.621,28.3-20.589,34.034A4.6,4.6,0,0,0,31.388,164.977Z" transform="translate(-31.16 -125.214)" fill="url(#linear-gradient-10)"/>
              <path id="Trazado_779610" data-name="Trazado 779610" d="M80.264,150.239l1.047.41,5.346-.671a2.593,2.593,0,0,1,1.922.318l4.687,2.946-13.093-.455c-.136-.432.444-1.991.08-2.559Z" transform="translate(-24.423 -121.817)" fill="url(#linear-gradient-11)"/>
            </g>
            <g id="Grupo_1033007" data-name="Grupo 1033007" transform="translate(37.05)">
              <path id="Trazado_779611" data-name="Trazado 779611" d="M76.4,120.333c0,.182-4.209,11.159-4.209,11.159l-6.222-2.537,2.446-11S76.469,117.353,76.4,120.333Z" transform="translate(-62.842 -114.068)" fill="url(#linear-gradient-12)"/>
              <path id="Trazado_779612" data-name="Trazado 779612" d="M69.765,121.139l-1.74,5.688a.734.734,0,0,0-.034.228c0,.466.068,2.07,1.706,1.888a7.492,7.492,0,0,1,3.708.125.838.838,0,0,1,.41,1.047,36.253,36.253,0,0,1-2.366,5.051.833.833,0,0,1-1.069.319,26.678,26.678,0,0,1-5.312-3.276.824.824,0,0,1-.273-.808c.307-1.456,1.217-5.892,1.285-7.166.057-1.194-1.263-2.139-1.854-2.491a.8.8,0,0,1-.375-.523,2.151,2.151,0,0,1,1.945-2.855.828.828,0,0,0,.694-.978,2.153,2.153,0,0,1,1.684-2.741,3.045,3.045,0,0,1,3.435,1.456.823.823,0,0,0,1.024.3.658.658,0,0,1,.739.148.819.819,0,0,0,1.206-.159,2.489,2.489,0,0,1,3.083-.944c2.81.978,2.6,4.243,1.536,5.995s-4.061.523-5.471-.683c-1.069-.921-2.73-.421-3.469-.125a.784.784,0,0,0-.478.523Z" transform="translate(-63.145 -114.532)" fill="#12263f"/>
              <path id="Trazado_779613" data-name="Trazado 779613" d="M65.87,125.377s1.41-3.06.319-4.084-2.969-.9-2.969,1.581c0,3.083,2.65,2.491,2.65,2.491Z" transform="translate(-63.22 -113.685)" fill="url(#linear-gradient-13)"/>
            </g>
          </g>
          <g id="Grupo_1033009" data-name="Grupo 1033009" transform="translate(49.392 18.165)">
            <path id="Trazado_779614" data-name="Trazado 779614" d="M75.242,155.213h.068l27.676-.023a1.24,1.24,0,0,0,0-2.48l-27.676.023a1.243,1.243,0,0,0-1.24,1.24,1.227,1.227,0,0,0,1.172,1.229Z" transform="translate(-74.07 -127.447)" fill="url(#linear-gradient-14)"/>
            <path id="Trazado_779615" data-name="Trazado 779615" d="M110.325,131.171a.14.14,0,0,0-.023.057l-11.648,25.1a1.234,1.234,0,1,0,2.241,1.035l11.648-25.1a1.239,1.239,0,0,0-2.218-1.1Z" transform="translate(-70.705 -130.501)" fill="url(#linear-gradient-15)"/>
          </g>
          <g id="Grupo_1033010" data-name="Grupo 1033010" transform="translate(43.098 44.52)">
            <path id="Trazado_779616" data-name="Trazado 779616" d="M87.7,156.131c-.125.5-11.671,43.806-14.594,54.783a1.979,1.979,0,0,0,1.9,2.5h0a1.979,1.979,0,0,0,1.911-1.513l12.82-51.973L87.7,156.12Z" transform="translate(-67.918 -153.333)" fill="#636363"/>
            <path id="Trazado_779617" data-name="Trazado 779617" d="M91.736,156.131c.125.5,11.671,43.806,14.594,54.783a1.979,1.979,0,0,1-1.9,2.5h0a1.979,1.979,0,0,1-1.911-1.513L89.7,159.931l2.036-3.811Z" transform="translate(-65.627 -153.333)" fill="#636363"/>
            <path id="Trazado_779618" data-name="Trazado 779618" d="M92.779,154.89H85.59v5.779a1.49,1.49,0,0,0,1.49,1.5h.99v12.968a1.131,1.131,0,0,0,1.126,1.138h0a1.131,1.131,0,0,0,1.126-1.138V162.17h.5a1.981,1.981,0,0,0,1.968-1.991V154.9Z" transform="translate(-66.192 -153.502)" fill="#636363"/>
            <path id="Trazado_779619" data-name="Trazado 779619" d="M70.247,153.67H110.4a1.25,1.25,0,0,1,1.194.933l.557,2.2a1.239,1.239,0,0,1-1.194,1.558l-41.2-.239a1.238,1.238,0,0,1-1.183-1.547l.489-1.957a1.228,1.228,0,0,1,1.194-.944Z" transform="translate(-68.537 -153.67)" fill="#636363"/>
          </g>
        </g>
      </g>
    </g>
  </g>
</svg>
