<svg xmlns="http://www.w3.org/2000/svg" xmlns:xlink="http://www.w3.org/1999/xlink" width="178" height="152.698" viewBox="0 0 178 152.698">
  <defs>
    <clipPath id="clip-path">
      <rect id="Rect치ngulo_365127" data-name="Rect치ngulo 365127" width="178" height="152.698" fill="none" stroke="#070707" stroke-width="1"/>
    </clipPath>
  </defs>
  <g id="Grupo_1031267" data-name="Grupo 1031267" transform="translate(0 -0.001)">
    <g id="Grupo_1031266" data-name="Grupo 1031266" transform="translate(0 0.001)" clip-path="url(#clip-path)">
      <path id="Trazado_777551" data-name="Trazado 777551" d="M176.22,9.264V9.205a5.88,5.88,0,0,0-.11-.607l-.037-.183c-.783-3.432-3.768-6.256-7.69-7.544L168.3.842c-.285-.1-.578-.168-.878-.241a2.053,2.053,0,0,0-.227-.066c-.271-.066-.549-.117-.827-.161-.1-.022-.2-.044-.307-.059-.271-.044-.541-.073-.82-.1-.117-.007-.234-.029-.351-.037-.4-.029-.8-.051-1.2-.051H12.737C5.786.125.13,4.669.13,10.244v7.529H176.22Zm-32.956,2.627H33.159c-2.027,0-3.666-1.317-3.666-2.941s1.639-2.941,3.666-2.941H143.265c2.027,0,3.673,1.317,3.673,2.941s-1.646,2.941-3.673,2.941" transform="translate(0.821 0.786)" fill="#5573c6" stroke="#070707" stroke-width="1"/>
      <path id="Trazado_777552" data-name="Trazado 777552" d="M176.22,9.264V9.205a5.88,5.88,0,0,0-.11-.607l-.037-.183c-.783-3.432-3.768-6.256-7.69-7.544L168.3.842c-.285-.1-.578-.168-.878-.241a2.053,2.053,0,0,0-.227-.066c-.271-.066-.549-.117-.827-.161-.1-.022-.2-.044-.307-.059-.271-.044-.541-.073-.82-.1-.117-.007-.234-.029-.351-.037-.4-.029-.8-.051-1.2-.051H12.737C5.786.125.13,4.669.13,10.244v7.529H176.22Zm-32.956,2.627H33.159c-2.027,0-3.666-1.317-3.666-2.941s1.639-2.941,3.666-2.941H143.265c2.027,0,3.673,1.317,3.673,2.941S145.291,11.891,143.265,11.891Z" transform="translate(0.821 0.786)" fill="none" stroke="#070707" stroke-miterlimit="10" stroke-width="0.25"/>
      <path id="Trazado_777553" data-name="Trazado 777553" d="M68.027,15.716H.125V21.6c0,4.866,4.939,8.824,11,8.824H165.276c6.073,0,11.012-3.958,11.012-8.824V15.716H68.027Z" transform="translate(0.79 99.274)" fill="#5573c6" stroke="#070707" stroke-width="1"/>
      <path id="Trazado_777554" data-name="Trazado 777554" d="M68.027,15.716H.125V21.6c0,4.866,4.939,8.824,11,8.824H165.276c6.073,0,11.012-3.958,11.012-8.824V15.716H68.027Z" transform="translate(0.79 99.274)" fill="none" stroke="#070707" stroke-miterlimit="10" stroke-width="0.25"/>
      <path id="Trazado_777555" data-name="Trazado 777555" d="M75.4,23.412H67.066a10.073,10.073,0,0,1,0-5.883H32.354a10.073,10.073,0,0,1,0,5.883H24.02C13.9,23.412,5.669,30,5.669,38.119c0,1.617,1.639,2.934,3.666,2.934H90.078c2.027,0,3.673-1.317,3.673-2.934,0-8.115-8.232-14.707-18.351-14.707" transform="translate(35.811 111.727)" fill="#5573c6" stroke="#070707" stroke-width="1"/>
      <path id="Trazado_777556" data-name="Trazado 777556" d="M75.4,23.412H67.066a10.073,10.073,0,0,1,0-5.883H32.354a10.073,10.073,0,0,1,0,5.883H24.02C13.9,23.412,5.669,30,5.669,38.119c0,1.617,1.639,2.934,3.666,2.934H90.078c2.027,0,3.673-1.317,3.673-2.934C93.751,30,85.519,23.412,75.4,23.412Z" transform="translate(35.811 110.727)" fill="none" stroke="#070707" stroke-miterlimit="10" stroke-width="0.25"/>
      <rect id="Rect치ngulo_365126" data-name="Rect치ngulo 365126" width="172.878" height="87.804" transform="translate(2.239 24)" fill="#bbbbbc" stroke="#070707" stroke-width="1"/>
      <path id="Trazado_777557" data-name="Trazado 777557" d="M35.481,11.722h-.973V9.768h.973a.977.977,0,1,1,0,1.954m-7.522-.98a.979.979,0,0,0-.98-.973h-.973v1.954h.973a.981.981,0,0,0,.98-.98M13.2,22.434h-.293V5.744H50.963V36.461l-1.932-6.6.2-.161a1.975,1.975,0,0,0,.534-1.69L49.1,24.08a1.935,1.935,0,0,0-1.046-1.427,1.961,1.961,0,0,0-1.771.015l-1.31.673-1.719-1.7.659-1.31a2.107,2.107,0,0,0,.146-.41,1.932,1.932,0,0,0-.08-1.149,1.057,1.057,0,0,0-.08-.212,1.948,1.948,0,0,0-1.083-.937,1.991,1.991,0,0,0-.359-.1l-3.944-.593a1.96,1.96,0,0,0-1.676.556,1.606,1.606,0,0,0-.1.132,1.978,1.978,0,0,0-.454,1.149,1.926,1.926,0,0,0,.022.41l.124.739.117.71L34.4,21.746l-1.046-1.032a1.946,1.946,0,0,0-3.11.52L28.456,24.8a1.953,1.953,0,0,0,1.456,2.8l1.449.22.088.534h-4.58a1.325,1.325,0,0,1-1.171-.7l-1.6-2.927h1.815a1.149,1.149,0,1,0,0-2.3H13.2ZM48.666,17.81l-.015-.183a1.149,1.149,0,0,0-1.134-.966h-.79a1.149,1.149,0,0,0-1.134.966l-.015.183a1.159,1.159,0,0,0,1.149,1.149h.79a1.159,1.159,0,0,0,1.149-1.149M40.478,8.62a1.151,1.151,0,0,0,1.149,1.149h5.89a1.149,1.149,0,0,0,0-2.3h-5.89A1.151,1.151,0,0,0,40.478,8.62m0,4.6a1.151,1.151,0,0,0,1.149,1.149h5.89a1.149,1.149,0,1,0,0-2.3h-5.89a1.151,1.151,0,0,0-1.149,1.149M32.21,17.122a1.074,1.074,0,0,0,.124.5,1.137,1.137,0,0,0,2.049,0,1.169,1.169,0,0,0,.124-.5v-3.1h.973a3.274,3.274,0,1,0,0-6.549H33.359A1.146,1.146,0,0,0,32.21,8.62v8.5Zm-8.5,0a1.074,1.074,0,0,0,.124.5,1.137,1.137,0,0,0,2.049,0,1.074,1.074,0,0,0,.124-.5v-3.1H26.6l1.449,3.534.044.073a1.146,1.146,0,0,0,1.017.644,1.111,1.111,0,0,0,.432-.088,1.159,1.159,0,0,0,.593-.556,1.144,1.144,0,0,0,.037-.944l-1.332-3.249a3.268,3.268,0,0,0-1.859-5.963H24.856A1.146,1.146,0,0,0,23.708,8.62v8.5Zm-8.5,0a1.169,1.169,0,0,0,.124.5,1.15,1.15,0,0,0,1.024.644h4.251a1.142,1.142,0,0,0,1.024-.644,1.074,1.074,0,0,0,.124-.5,1.146,1.146,0,0,0-1.149-1.149H17.5V14.02h1.434a1.149,1.149,0,0,0,0-2.3H17.5V9.768h3.1a1.149,1.149,0,1,0,0-2.3H16.354A1.151,1.151,0,0,0,15.205,8.62v8.5ZM53.261,52.485l.044.161H10.42l-.512-1.9-.8-3.029L2.986,24.732H20.7a1.328,1.328,0,0,1,1.163.7l1.822,3.337a3.622,3.622,0,0,0,3.183,1.888h20l4.1,13.99,1.149,3.922ZM20.8,29.5a1.151,1.151,0,0,0-1.149-1.149H7.874a1.149,1.149,0,1,0,0,2.3h11.78A1.151,1.151,0,0,0,20.8,29.5m17.071-1.837a1.131,1.131,0,0,0,.234.688h1.822a1.138,1.138,0,0,0,.241-.688,1.149,1.149,0,0,0-2.3,0m15.388-7.741V44.312l1.112,3.79,3.271-28.178Zm-8.81,8.429a1.939,1.939,0,0,1,1.734-.622l1.229.183-.5-2.985-1.1.571a1.946,1.946,0,0,1-2.268-.344l-2.078-2.049a1.948,1.948,0,0,1-.373-2.261l.454-.922.1-.19-3-.454.11.644.1.585a1.939,1.939,0,0,1-1.024,2.049l-2.6,1.346a1.944,1.944,0,0,1-2.261-.344l-.893-.871L30.725,25.4l1.229.19a1.941,1.941,0,0,1,1.639,1.61l.19,1.156h1.859a3.536,3.536,0,0,1-.073-.688,3.45,3.45,0,0,1,6.9,0,3.535,3.535,0,0,1-.073.688Z" transform="translate(18.862 36.281)" fill="#f4a338" stroke="#070707" stroke-width="1"/>
      <path id="Trazado_777558" data-name="Trazado 777558" d="M52.506,26.186H46.733v-3.2h5.773ZM37.755,32.6h5.773V29.4H37.755ZM52.506,48.635H46.733v3.2h5.773ZM19.8,45.43h5.773v-3.2H19.8Zm17.956-9.622V39.02h5.773V35.808H37.755Zm0-9.622h5.773v-3.2H37.755ZM67.9,3.745V80.7H13.382V3.745ZM27.014,8.552a1.6,1.6,0,0,0,1.6,1.6H52.667a1.6,1.6,0,1,0,0-3.2H28.616a1.6,1.6,0,0,0-1.6,1.6M22.2,14.962a1.6,1.6,0,0,0,1.6,1.61H57.474a1.606,1.606,0,0,0,0-3.212H23.8a1.6,1.6,0,0,0-1.6,1.6m9.944,57.724a1.6,1.6,0,0,0-1.6-1.6H18.2a1.606,1.606,0,1,0,0,3.212H30.54a1.608,1.608,0,0,0,1.6-1.61m5.612-6.41a1.6,1.6,0,0,0-1.6-1.6H18.2a1.662,1.662,0,0,0-.607.117,1.6,1.6,0,0,0,.607,3.088H36.152a1.6,1.6,0,0,0,1.6-1.6m14.18,6.41a1.6,1.6,0,0,0-1.917-1.566,1.086,1.086,0,0,0-.3.088,1.035,1.035,0,0,0-.278.154,1.23,1.23,0,0,0-.249.2,1.6,1.6,0,1,0,2.276,2.261,2.173,2.173,0,0,0,.2-.241,1.98,1.98,0,0,0,.154-.271L51.906,73a2.183,2.183,0,0,0,.029-.315m12.753,0a1.6,1.6,0,0,0-1.6-1.6H56.742a1.606,1.606,0,0,0,0,3.212h6.344a1.608,1.608,0,0,0,1.6-1.61m0-6.41a1.6,1.6,0,0,0-1.6-1.6H49.623a1.6,1.6,0,1,0,0,3.2H63.086a1.6,1.6,0,0,0,1.6-1.6m0-44.9a1.6,1.6,0,0,0-1.6-1.6H27.174a1.6,1.6,0,0,0-1.6,1.6v4.807H18.2a1.61,1.61,0,0,0-1.61,1.61V53.449a1.587,1.587,0,0,0,.622,1.251,1.549,1.549,0,0,0,.988.351H43.528v4.807a1.6,1.6,0,0,0,1.6,1.6H63.086a1.6,1.6,0,0,0,1.6-1.6V21.379Zm-8.978,4.807h5.773v-3.2H55.711Zm-23.59,9.622H28.777V39.02H34.55V35.808H32.121Zm-3.344,6.417v3.2H34.55v-3.2H28.777Zm11.634,0H37.755v3.2h5.773v-3.2H40.411ZM31.755,29.4H28.777v3.2H34.55V29.4h-2.8ZM52.506,42.225H46.733v3.2h5.773ZM19.8,29.611V32.6h5.773V29.4H19.8Zm32.707,6.2H46.733v3.2h5.773Zm-32.707,0V39.02h5.773V35.808H19.8Zm0,12.827v3.212h5.773V48.635H19.8ZM55.711,32.6h5.773V29.4H55.711ZM32.084,22.981H28.777v3.2H34.55v-3.2H32.084Zm14.649,32.07v3.2H61.484v-3.2H46.733Zm8.978-3.2h5.773v-3.2H55.711ZM52.506,29.4H46.733v3.2h5.773Zm3.2,16.031h5.773v-3.2H55.711Zm0-6.41h5.773v-3.2H55.711ZM32.4,48.635H28.777v3.212H34.55V48.635H32.4Zm5.356,1.039v2.173h5.773V48.635H37.755Z" transform="translate(84.534 23.653)" fill="#4adbd1" stroke="#070707" stroke-width="1"/>
      <path id="Trazado_777559" data-name="Trazado 777559" d="M52.506,26.186H46.733v-3.2h5.773ZM37.755,32.6h5.773V29.4H37.755ZM52.506,48.635H46.733v3.2h5.773ZM19.8,45.43h5.773v-3.2H19.8Zm17.956-9.622V39.02h5.773V35.808H37.755Zm0-9.622h5.773v-3.2H37.755ZM67.9,3.745V80.7H13.382V3.745ZM27.014,8.552a1.6,1.6,0,0,0,1.6,1.6H52.667a1.6,1.6,0,1,0,0-3.2H28.616A1.6,1.6,0,0,0,27.014,8.552ZM22.2,14.962a1.6,1.6,0,0,0,1.6,1.61H57.474a1.606,1.606,0,0,0,0-3.212H23.8A1.6,1.6,0,0,0,22.2,14.962Zm9.944,57.724a1.6,1.6,0,0,0-1.6-1.6H18.2a1.606,1.606,0,1,0,0,3.212H30.54A1.608,1.608,0,0,0,32.143,72.686Zm5.612-6.41a1.6,1.6,0,0,0-1.6-1.6H18.2a1.662,1.662,0,0,0-.607.117,1.6,1.6,0,0,0,.607,3.088H36.152A1.6,1.6,0,0,0,37.755,66.276Zm14.18,6.41a1.6,1.6,0,0,0-1.917-1.566,1.086,1.086,0,0,0-.3.088,1.035,1.035,0,0,0-.278.154,1.23,1.23,0,0,0-.249.2,1.6,1.6,0,1,0,2.276,2.261,2.173,2.173,0,0,0,.2-.241,1.98,1.98,0,0,0,.154-.271L51.906,73A2.183,2.183,0,0,0,51.935,72.686Zm12.753,0a1.6,1.6,0,0,0-1.6-1.6H56.742a1.606,1.606,0,0,0,0,3.212h6.344A1.608,1.608,0,0,0,64.689,72.686Zm0-6.41a1.6,1.6,0,0,0-1.6-1.6H49.623a1.6,1.6,0,1,0,0,3.2H63.086A1.6,1.6,0,0,0,64.689,66.276Zm0-44.9a1.6,1.6,0,0,0-1.6-1.6H27.174a1.6,1.6,0,0,0-1.6,1.6v4.807H18.2a1.61,1.61,0,0,0-1.61,1.61V53.449a1.587,1.587,0,0,0,.622,1.251,1.549,1.549,0,0,0,.988.351H43.528v4.807a1.6,1.6,0,0,0,1.6,1.6H63.086a1.6,1.6,0,0,0,1.6-1.6V21.379Zm-8.978,4.807h5.773v-3.2H55.711Zm-23.59,9.622H28.777V39.02H34.55V35.808H32.121Zm-3.344,6.417v3.2H34.55v-3.2H28.777Zm11.634,0H37.755v3.2h5.773v-3.2H40.411ZM31.755,29.4H28.777v3.2H34.55V29.4h-2.8ZM52.506,42.225H46.733v3.2h5.773ZM19.8,29.611V32.6h5.773V29.4H19.8Zm32.707,6.2H46.733v3.2h5.773Zm-32.707,0V39.02h5.773V35.808H19.8Zm0,12.827v3.212h5.773V48.635H19.8ZM55.711,32.6h5.773V29.4H55.711ZM32.084,22.981H28.777v3.2H34.55v-3.2H32.084Zm14.649,32.07v3.2H61.484v-3.2H46.733Zm8.978-3.2h5.773v-3.2H55.711ZM52.506,29.4H46.733v3.2h5.773Zm3.2,16.031h5.773v-3.2H55.711Zm0-6.41h5.773v-3.2H55.711ZM32.4,48.635H28.777v3.212H34.55V48.635H32.4Zm5.356,1.039v2.173h5.773V48.635H37.755Z" transform="translate(84.534 23.653)" fill="none" stroke="#070707" stroke-miterlimit="10" stroke-width="0.25"/>
    </g>
  </g>
</svg>
