<svg xmlns="http://www.w3.org/2000/svg" xmlns:xlink="http://www.w3.org/1999/xlink" width="401" height="391" viewBox="0 0 401 391">
  <defs>
    <clipPath id="clip-path">
      <rect id="Rectángulo_363092" data-name="Rectángulo 363092" width="333.596" height="344.628" fill="none"/>
    </clipPath>
    <clipPath id="clip-path-7">
      <rect id="Rectángulo_363046" data-name="Rectángulo 363046" width="88.761" height="123.996" fill="#373f51"/>
    </clipPath>
    <clipPath id="clip-path-8">
      <rect id="Rectángulo_363047" data-name="Rectángulo 363047" width="24.498" height="14.039" fill="none"/>
    </clipPath>
    <clipPath id="clip-path-9">
      <rect id="Rectángulo_363049" data-name="Rectángulo 363049" width="11.348" height="11.349" fill="none"/>
    </clipPath>
    <clipPath id="clip-path-10">
      <rect id="Rectángulo_363050" data-name="Rectángulo 363050" width="11.349" height="11.349" fill="none"/>
    </clipPath>
    <clipPath id="clip-path-13">
      <rect id="Rectángulo_363054" data-name="Rectángulo 363054" width="11.544" height="11.536" fill="none"/>
    </clipPath>
    <clipPath id="clip-path-22">
      <rect id="Rectángulo_363065" data-name="Rectángulo 363065" width="11.349" height="11.349" fill="#9b6012"/>
    </clipPath>
    <clipPath id="clip-path-25">
      <rect id="Rectángulo_363089" data-name="Rectángulo 363089" width="45.649" height="81.188" fill="none"/>
    </clipPath>
    <clipPath id="clip-path-26">
      <rect id="Rectángulo_363090" data-name="Rectángulo 363090" width="51.813" height="4.052" fill="none"/>
    </clipPath>
  </defs>
  <g id="Grupo_1033330" data-name="Grupo 1033330" transform="translate(8086 -7966)">
    <rect id="Rectángulo_361876" data-name="Rectángulo 361876" width="401" height="391" transform="translate(-8086 7966)" fill="#efeeee"/>
    <g id="Grupo_1028058" data-name="Grupo 1028058" transform="translate(-8052.298 7991.54)">
      <g id="Grupo_1028057" data-name="Grupo 1028057" clip-path="url(#clip-path)">
        <path id="Trazado_769685" data-name="Trazado 769685" d="M50.8,116.484l-1.212,1.3-36.238,43.2,80.355.048,22.095-44.31Z" transform="translate(20.234 176.513)" fill="#ebebeb"/>
        <path id="Trazado_769686" data-name="Trazado 769686" d="M47.121,117.287l-1.212,1.341L5.537,163.288l78.3.05,28.282-45.812Z" transform="translate(8.391 177.729)" fill="#fafafa"/>
        <g id="Grupo_1027990" data-name="Grupo 1027990">
          <g id="Grupo_1027989" data-name="Grupo 1027989" clip-path="url(#clip-path)">
            <path id="Trazado_769687" data-name="Trazado 769687" d="M47.352,117.307s.1-.008.3-.013.5-.005.885-.008L52,117.274c3.056,0,7.518,0,13.193,0l47.155.1h.312l-.163.267c-8.331,13.507-17.967,29.135-28.26,45.824l-.058.1h-.113l-10.728-.008-67.572-.07-.385,0,.259-.284c12.524-13.809,22.935-25.292,30.222-33.328,3.647-4,6.51-7.146,8.469-9.3.976-1.064,1.726-1.881,2.241-2.442s.777-.82.777-.82-.252.3-.745.863-1.24,1.393-2.2,2.47c-1.944,2.166-4.784,5.33-8.4,9.36-7.262,8.062-17.638,19.574-30.116,33.424l-.128-.287,67.572.015,10.728.008-.169.093,28.3-45.8.148.264-47.095-.249c-5.685-.043-10.152-.075-13.213-.1-1.519-.018-2.686-.03-3.486-.038l-.9-.018c-.2-.005-.307-.013-.307-.013" transform="translate(8.159 177.709)" fill="#e0e0e0"/>
            <path id="Trazado_769688" data-name="Trazado 769688" d="M66.643,132.646a2.78,2.78,0,0,1-.551.035c-.4.005-.928.015-1.585.023l-5.818.013L39.5,132.6l-19.2-.234-5.818-.116L12.9,132.2a3.183,3.183,0,0,1-.551-.045,2.778,2.778,0,0,1,.551-.035c.4-.008.928-.015,1.582-.025l5.818-.01,19.2.116,19.194.234,5.815.116,1.582.053a2.85,2.85,0,0,1,.551.045" transform="translate(18.714 200.149)" fill="#e0e0e0"/>
            <path id="Trazado_769689" data-name="Trazado 769689" d="M66.773,130.736a2.649,2.649,0,0,1-.538.035c-.395.008-.906.015-1.544.025l-5.677.01L40.286,130.7c-7.294-.088-13.895-.168-18.729-.229l-5.677-.116-1.542-.05a3,3,0,0,1-.538-.045,2.476,2.476,0,0,1,.538-.038l1.542-.023,5.677-.013c4.834.03,11.437.068,18.732.111,7.292.091,13.892.171,18.727.229,2.362.05,4.289.088,5.677.116l1.542.053a2.525,2.525,0,0,1,.538.045" transform="translate(20.912 197.27)" fill="#e0e0e0"/>
            <path id="Trazado_769690" data-name="Trazado 769690" d="M67.578,128.811a2.532,2.532,0,0,1-.528.035c-.387.008-.89.015-1.517.025l-5.574.013-18.385-.108-18.387-.226-5.571-.113-1.514-.053a2.415,2.415,0,0,1-.528-.045,2.775,2.775,0,0,1,.528-.035c.387-.008.888-.015,1.514-.025l5.571-.013,18.39.108,18.387.226c2.317.048,4.208.086,5.571.116l1.514.05a2.414,2.414,0,0,1,.528.045" transform="translate(23.6 194.364)" fill="#e0e0e0"/>
            <path id="Trazado_769691" data-name="Trazado 769691" d="M68.546,127.025a2.684,2.684,0,0,1-.518.035c-.38.008-.873.015-1.484.025-1.338,0-3.192.008-5.461.015L43.076,127l-18.01-.224c-2.269-.045-4.123-.086-5.458-.113l-1.484-.05a2.8,2.8,0,0,1-.518-.045,2.45,2.45,0,0,1,.518-.035c.38-.008.873-.015,1.484-.025,1.336,0,3.189-.008,5.458-.015l18.012.106,18.01.224c2.269.045,4.12.086,5.458.113l1.482.05a2.336,2.336,0,0,1,.518.045" transform="translate(26.679 191.67)" fill="#e0e0e0"/>
            <path id="Trazado_769692" data-name="Trazado 769692" d="M69.732,125.156a2.45,2.45,0,0,1-.518.035c-.38.008-.873.015-1.484.025-1.338,0-3.192.008-5.461.015l-18.007-.106-18.01-.224c-2.269-.045-4.123-.086-5.458-.113l-1.484-.05a2.807,2.807,0,0,1-.518-.045,2.447,2.447,0,0,1,.518-.035c.38-.008.873-.015,1.484-.025,1.336,0,3.189-.008,5.458-.015l18.012.106,18.01.224c2.266.045,4.12.086,5.458.113l1.482.05a2.547,2.547,0,0,1,.518.045" transform="translate(28.476 188.837)" fill="#e0e0e0"/>
            <path id="Trazado_769693" data-name="Trazado 769693" d="M71.484,123.3a2.688,2.688,0,0,1-.518.035c-.38.008-.873.015-1.484.025-1.338,0-3.192.008-5.461.015l-18.007-.106L28,123.044c-2.269-.045-4.123-.086-5.458-.113l-1.484-.05a2.8,2.8,0,0,1-.518-.045,2.447,2.447,0,0,1,.518-.035c.38-.008.873-.015,1.484-.025,1.336,0,3.189-.008,5.458-.015l18.012.106,18.01.224c2.266.045,4.12.086,5.458.113l1.482.05a2.335,2.335,0,0,1,.518.045" transform="translate(31.131 186.022)" fill="#e0e0e0"/>
            <path id="Trazado_769694" data-name="Trazado 769694" d="M72.769,121.606a2.371,2.371,0,0,1-.518.033l-1.484.018-5.461-.01c-4.651-.048-11-.113-18.007-.184l-18.01-.3c-2.266-.058-4.12-.1-5.456-.138-.611-.023-1.1-.043-1.484-.058a2.407,2.407,0,0,1-.518-.048,2.6,2.6,0,0,1,.518-.033l1.484-.018,5.458.01,18.012.186,18.007.3c2.269.058,4.12.106,5.458.138.611.025,1.1.043,1.484.058a2.623,2.623,0,0,1,.516.048" transform="translate(33.081 183.149)" fill="#e0e0e0"/>
            <path id="Trazado_769695" data-name="Trazado 769695" d="M74.747,119.876a2.373,2.373,0,0,1-.518.033l-1.484.018-5.461-.01c-4.651-.048-11-.113-18.007-.184l-18.01-.3c-2.266-.058-4.12-.1-5.456-.138-.611-.023-1.1-.043-1.484-.058a2.408,2.408,0,0,1-.518-.048,2.6,2.6,0,0,1,.518-.033l1.484-.018,5.458.01,18.012.186,18.007.3c2.269.058,4.12.106,5.458.138.611.025,1.1.043,1.484.058a2.4,2.4,0,0,1,.516.048" transform="translate(36.079 180.527)" fill="#e0e0e0"/>
            <path id="Trazado_769696" data-name="Trazado 769696" d="M13.166,67.238c0-5.441,3.275-8.9,7.916-8.9s7.87,3.411,7.87,8.9-3.232,8.9-7.87,8.9-7.916-3.459-7.916-8.9m11.236,0c0-3.459-1.318-5.119-3.32-5.119-1.957,0-3.32,1.705-3.32,5.119s1.363,5.116,3.32,5.116c2,0,3.32-1.66,3.32-5.116m15.65-8.529h5.413L23.72,90.983H18.3ZM34.82,82.453c0-5.441,3.275-8.9,7.87-8.9,4.641,0,7.916,3.459,7.916,8.9s-3.275,8.9-7.916,8.9c-4.6,0-7.87-3.459-7.87-8.9m11.191,0c0-3.413-1.321-5.119-3.32-5.119-1.957,0-3.32,1.66-3.32,5.119s1.363,5.119,3.32,5.119c2,0,3.32-1.708,3.32-5.119" transform="translate(19.951 88.403)" fill="#ebebeb"/>
            <path id="Trazado_769697" data-name="Trazado 769697" d="M158.565,30.026A35.375,35.375,0,1,1,118.324.4a35.335,35.335,0,0,1,40.24,29.626" transform="translate(133.664 -0.001)" fill="#4adbd1"/>
            <path id="Trazado_769698" data-name="Trazado 769698" d="M145.17,26.222A26.957,26.957,0,1,1,114.506,3.644,26.926,26.926,0,0,1,145.17,26.222" transform="translate(138.735 5.059)" fill="#ebebeb"/>
            <path id="Trazado_769699" data-name="Trazado 769699" d="M145.336,26c-.161.03-.45-1.122-1.187-3.1a28.6,28.6,0,0,0-4.306-7.707,27.579,27.579,0,0,0-4.261-4.311,26.923,26.923,0,0,0-5.909-3.612,26.6,26.6,0,0,0-7.34-2.07,26.052,26.052,0,0,0-4.032-.214,28.774,28.774,0,0,0-4.14.423,29.245,29.245,0,0,0-4.022,1.069,26.106,26.106,0,0,0-3.695,1.63,24.926,24.926,0,0,0-3.3,2.093,25.276,25.276,0,0,0-2.837,2.442,27.075,27.075,0,0,0-4.246,5.471,27.51,27.51,0,0,0-2.457,5.541,28.694,28.694,0,0,0-1.3,8.728c.013,2.11.151,3.293-.013,3.32-.118.023-.526-1.112-.79-3.272a24.9,24.9,0,0,1,.694-9.178,27.025,27.025,0,0,1,6.751-11.943,27.382,27.382,0,0,1,6.522-4.978,27.455,27.455,0,0,1,3.977-1.786,27.57,27.57,0,0,1,8.8-1.61,27.614,27.614,0,0,1,4.352.262,27.616,27.616,0,0,1,7.863,2.347,27.006,27.006,0,0,1,10.544,8.776,24.969,24.969,0,0,1,3.9,8.338c.518,2.113.538,3.32.42,3.34" transform="translate(138.436 4.443)" fill="#e0e0e0"/>
            <path id="Trazado_769700" data-name="Trazado 769700" d="M114.914,40.806l.767,4.633-4.138.684-.745-4.507c-4.138.428-8.278-.2-10.846-1.6l1.436-5.423A16.939,16.939,0,0,0,109.9,36.2l-1.144-6.907c-4.774-.355-10.157-1.036-11.135-6.952-.727-4.384,1.836-8.675,8.248-10.5l-.762-4.593,4.138-.684.747,4.51a18.944,18.944,0,0,1,8.814,1.132l-1.225,5.431a17.183,17.183,0,0,0-6.686-1.1l1.165,7.033c4.769.314,10.069,1.011,11.035,6.842.712,4.3-1.816,8.545-8.18,10.406m-7.164-17.6-.973-5.873c-2.108.858-2.777,2.2-2.553,3.567.241,1.449,1.612,2.03,3.526,2.307M116.516,32c-.239-1.449-1.57-2.035-3.451-2.362l.946,5.707c1.992-.795,2.724-2.022,2.505-3.345" transform="translate(147.747 9.936)" fill="#4adbd1"/>
            <path id="Trazado_769701" data-name="Trazado 769701" d="M165.052,116.877a28.325,28.325,0,1,1-16.973-36.233,28.3,28.3,0,0,1,16.973,36.233" transform="translate(166.843 119.604)" fill="#4adbd1"/>
            <path id="Trazado_769702" data-name="Trazado 769702" d="M154.657,110.523A21.586,21.586,0,1,1,141.723,82.91a21.561,21.561,0,0,1,12.934,27.613" transform="translate(170.903 123.657)" fill="#ebebeb"/>
            <path id="Trazado_769703" data-name="Trazado 769703" d="M154.246,110.367a12.727,12.727,0,0,1,.35-2.634,22.939,22.939,0,0,0-.08-7.071A22.079,22.079,0,0,0,153.169,96a21.548,21.548,0,0,0-2.777-4.8,21.126,21.126,0,0,0-4.369-4.263,20.668,20.668,0,0,0-2.757-1.693,20.986,20.986,0,0,0-6.311-2.073,20.7,20.7,0,0,0-3.222-.269,21.08,21.08,0,0,0-6.049.845,21.514,21.514,0,0,0-5.081,2.224,22.059,22.059,0,0,0-3.846,2.958,22.941,22.941,0,0,0-4.251,5.644,12.794,12.794,0,0,1-1.278,2.329,6.3,6.3,0,0,1,.694-2.6,19.958,19.958,0,0,1,4-6.19,21.6,21.6,0,0,1,9.317-5.818,21.907,21.907,0,0,1,6.492-1.006,21.809,21.809,0,0,1,3.481.264,23.78,23.78,0,0,1,3.5.84,24.022,24.022,0,0,1,3.313,1.393,22.22,22.22,0,0,1,2.961,1.851,21.145,21.145,0,0,1,2.54,2.206,20.806,20.806,0,0,1,2.09,2.452,21.57,21.57,0,0,1,4.06,10.207,19.974,19.974,0,0,1-.443,7.357,6.4,6.4,0,0,1-.983,2.51" transform="translate(171.54 123.173)" fill="#e0e0e0"/>
            <path id="Trazado_769704" data-name="Trazado 769704" d="M126.685,111.8l-1.233,3.552-3.172-1.1,1.2-3.456a15.917,15.917,0,0,1-7.015-5.277l3.086-3.265a13.574,13.574,0,0,0,5.373,4.389l1.839-5.3c-3.225-2.078-6.749-4.616-5.177-9.153,1.167-3.36,4.611-5.4,9.82-4.231l1.222-3.521,3.172,1.1-1.2,3.459a15.156,15.156,0,0,1,5.765,4.168l-2.938,3.35a13.762,13.762,0,0,0-4.281-3.335l-1.871,5.393c3.235,2.047,6.7,4.563,5.144,9.035-1.144,3.3-4.545,5.317-9.734,4.191m1.7-15.12,1.562-4.5c-1.814-.2-2.8.485-3.162,1.532-.385,1.109.357,2.045,1.6,2.971m2.8,9.538c.385-1.112-.324-2.032-1.524-2.983l-1.519,4.379c1.708.2,2.691-.382,3.044-1.4" transform="translate(176.483 127.945)" fill="#4adbd1"/>
            <rect id="Rectángulo_363040" data-name="Rectángulo 363040" width="175.429" height="114.317" transform="translate(21.267 18.229)" fill="#f5f5f5"/>
            <rect id="Rectángulo_363041" data-name="Rectángulo 363041" width="175.429" height="114.068" transform="translate(12.597 12.046)" fill="#ebebeb"/>
          </g>
        </g>
        <g id="Grupo_1027992" data-name="Grupo 1027992">
          <g id="Grupo_1027991" data-name="Grupo 1027991" clip-path="url(#clip-path)">
            <path id="Trazado_769705" data-name="Trazado 769705" d="M328.384,113.565c0,.111-73.518.2-164.183.2-90.7,0-164.2-.091-164.2-.2s73.5-.2,164.2-.2c90.665,0,164.183.091,164.183.2" transform="translate(0 171.784)" fill="#263238"/>
          </g>
        </g>
        <path id="Trazado_769706" data-name="Trazado 769706" d="M197.735,161.687l-68.845,2.231L75.508,114.386H142.4Z" transform="translate(114.419 173.333)" fill="#f5f5f5"/>
        <path id="Trazado_769707" data-name="Trazado 769707" d="M65.711,117.319l53.38,49.532,68.847-2.231-55.335-47.3Z" transform="translate(99.574 177.777)" fill="#f5f5f5"/>
        <path id="Trazado_769708" data-name="Trazado 769708" d="M192.543,162.668,123.7,164.9,70.316,115.368h66.893Z" transform="translate(106.551 174.82)" fill="#e0e0e0"/>
        <path id="Trazado_769709" data-name="Trazado 769709" d="M133.819,114.386H66.926l53.38,49.532,71.051-2.3Z" transform="translate(101.416 173.333)" fill="#f5f5f5"/>
        <g id="Grupo_1027994" data-name="Grupo 1027994">
          <g id="Grupo_1027993" data-name="Grupo 1027993" clip-path="url(#clip-path)">
            <path id="Trazado_769710" data-name="Trazado 769710" d="M134.079,114.489s.093.065.274.206.45.362.8.639c.709.576,1.748,1.416,3.1,2.513,2.719,2.219,6.691,5.458,11.739,9.573,10.109,8.273,24.512,20.065,41.737,34.163l.362.3-.468.015-68.138,2.231c-.978.033-1.954.063-2.91.1l-.083,0-.06-.058c-19.652-18.249-37.954-35.247-53.36-49.552l-.317-.3h.433c20.14.033,36.87.058,48.574.075l13.548.045c1.552.013,2.742.02,3.557.025s1.215.025,1.215.025-.423.018-1.23.025-2.017.013-3.574.025l-13.565.045c-11.691.018-28.4.043-48.523.075l.116-.3c15.419,14.295,33.733,31.276,53.4,49.509l-.143-.053c.956-.03,1.932-.063,2.91-.093,24.821-.8,48.164-1.544,68.138-2.183l-.106.312c-17.167-14.134-31.525-25.953-41.6-34.246l-11.691-9.661c-1.343-1.117-2.374-1.975-3.081-2.561-.342-.289-.6-.511-.787-.664s-.264-.234-.264-.234" transform="translate(101.154 173.23)" fill="#263238"/>
            <path id="Trazado_769711" data-name="Trazado 769711" d="M131.78,125.76c0,.111-10.668.536-23.83.946s-23.843.656-23.848.546,10.668-.536,23.835-.946,23.84-.656,23.843-.546" transform="translate(127.442 190.528)" fill="#263238"/>
            <path id="Trazado_769712" data-name="Trazado 769712" d="M134.5,127.44c0,.111-10.836.533-24.21.943s-24.22.649-24.223.538,10.834-.531,24.21-.941,24.22-.651,24.223-.541" transform="translate(130.415 193.073)" fill="#263238"/>
            <path id="Trazado_769713" data-name="Trazado 769713" d="M137.092,129.123c0,.111-10.912.553-24.379.991s-24.391.7-24.4.586,10.911-.553,24.384-.989,24.389-.7,24.391-.589" transform="translate(133.829 195.626)" fill="#263238"/>
            <path id="Trazado_769714" data-name="Trazado 769714" d="M131.307,124.237c0,.111-10.977.551-24.524.981s-24.537.687-24.54.576,10.974-.548,24.527-.978,24.535-.689,24.537-.579" transform="translate(124.625 188.222)" fill="#263238"/>
            <path id="Trazado_769715" data-name="Trazado 769715" d="M120.153,117.951c0,.111-10.187.4-22.756.639s-22.761.345-22.764.234,10.185-.395,22.756-.636,22.761-.347,22.764-.236" transform="translate(113.094 178.669)" fill="#263238"/>
            <path id="Trazado_769716" data-name="Trazado 769716" d="M123.256,119.631c0,.111-10.5.4-23.455.651s-23.46.36-23.463.249,10.5-.4,23.455-.651,23.46-.36,23.463-.249" transform="translate(115.677 181.215)" fill="#263238"/>
            <path id="Trazado_769717" data-name="Trazado 769717" d="M126.911,121.31c0,.111-11.017.412-24.61.674s-24.62.382-24.62.272,11.015-.413,24.613-.674,24.615-.382,24.618-.272" transform="translate(117.712 183.762)" fill="#263238"/>
            <path id="Trazado_769718" data-name="Trazado 769718" d="M129.173,122.991c0,.111-11.017.412-24.61.674s-24.62.382-24.62.272,11.015-.413,24.613-.674,24.615-.382,24.618-.272" transform="translate(121.14 186.309)" fill="#263238"/>
            <path id="Trazado_769719" data-name="Trazado 769719" d="M119.706,116.433a2.07,2.07,0,0,1-.478.048c-.357.015-.81.033-1.368.058l-5.028.136c-4.3.078-10.139.181-16.6.3l-16.6.181-5.028.008-1.368-.018a2.16,2.16,0,0,1-.475-.033,2,2,0,0,1,.475-.048l1.368-.058,5.028-.136,16.6-.3,16.6-.181c2.085,0,3.791-.008,5.033-.008.558.005,1.011.013,1.366.018a2.266,2.266,0,0,1,.48.033" transform="translate(110.251 176.359)" fill="#263238"/>
          </g>
        </g>
        <path id="Trazado_769720" data-name="Trazado 769720" d="M93.463,132.339,75.911,116.263l60.775-2.41,17.864,9.888Z" transform="translate(115.03 172.526)" fill="#455a64"/>
        <path id="Trazado_769721" data-name="Trazado 769721" d="M78.855,116.825l3.413,2.928-.015-2.088-3.61-2.7Z" transform="translate(119.171 174.212)" fill="#263238"/>
        <path id="Trazado_769722" data-name="Trazado 769722" d="M82.22,117.925l4.922-.166-3.962-2.875-4.538.209Z" transform="translate(119.171 174.087)" fill="#ff725e"/>
        <path id="Trazado_769723" data-name="Trazado 769723" d="M80.065,116.195l.05,1.952,4.807-.312.068-1.809Z" transform="translate(121.325 175.818)" fill="#263238"/>
        <g id="Grupo_1027996" data-name="Grupo 1027996">
          <g id="Grupo_1027995" data-name="Grupo 1027995" clip-path="url(#clip-path)">
            <path id="Trazado_769724" data-name="Trazado 769724" d="M87.141,117.883a27.872,27.872,0,0,1-3.964-2.551c-.078-.055-.158-.111-.231-.163l.123.035a25.2,25.2,0,0,1-4.424.013,25.643,25.643,0,0,1,4.407-.413l.068,0,.058.038c.073.053.153.108.234.166a27.992,27.992,0,0,1,3.73,2.878" transform="translate(119.172 173.963)" fill="#263238"/>
            <path id="Trazado_769725" data-name="Trazado 769725" d="M80.215,118.036c-.111,0-.211-.428-.226-.963s.065-.968.176-.973.211.43.226.963-.065.971-.176.973" transform="translate(121.207 175.928)" fill="#455a64"/>
            <path id="Trazado_769726" data-name="Trazado 769726" d="M82.129,116.764l3.413,2.928-.015-2.088-3.61-2.7Z" transform="translate(124.133 174.119)" fill="#263238"/>
            <path id="Trazado_769727" data-name="Trazado 769727" d="M85.494,117.864l4.923-.166-3.962-2.875-4.538.209Z" transform="translate(124.132 173.994)" fill="#e0e0e0"/>
            <path id="Trazado_769728" data-name="Trazado 769728" d="M83.34,116.132l.048,1.952,4.809-.312.065-1.806Z" transform="translate(126.287 175.726)" fill="#263238"/>
            <path id="Trazado_769729" data-name="Trazado 769729" d="M90.417,117.821a27.656,27.656,0,0,1-3.967-2.551c-.078-.055-.158-.111-.231-.163l.123.035a25.2,25.2,0,0,1-4.424.013,25.641,25.641,0,0,1,4.407-.413l.068,0,.055.038c.075.053.156.108.236.166a28.338,28.338,0,0,1,3.733,2.878" transform="translate(124.133 173.869)" fill="#263238"/>
            <path id="Trazado_769730" data-name="Trazado 769730" d="M83.49,117.975c-.111,0-.211-.428-.226-.963s.065-.968.176-.973.211.43.226.963-.065.971-.176.973" transform="translate(126.17 175.836)" fill="#455a64"/>
            <path id="Trazado_769731" data-name="Trazado 769731" d="M85.265,116.722l3.413,2.928-.015-2.088-3.61-2.7Z" transform="translate(128.884 174.056)" fill="#263238"/>
            <path id="Trazado_769732" data-name="Trazado 769732" d="M88.63,117.822l4.922-.166-3.962-2.875-4.538.209Z" transform="translate(128.883 173.931)" fill="#455a64"/>
            <path id="Trazado_769733" data-name="Trazado 769733" d="M86.475,116.09l.048,1.952,4.809-.312.065-1.806Z" transform="translate(131.038 175.663)" fill="#263238"/>
            <path id="Trazado_769734" data-name="Trazado 769734" d="M93.551,117.78a27.877,27.877,0,0,1-3.964-2.551c-.078-.055-.158-.111-.231-.163l.123.035a25.188,25.188,0,0,1-4.424.013,25.647,25.647,0,0,1,4.407-.412l.068,0,.055.038c.075.053.156.108.236.166a27.991,27.991,0,0,1,3.73,2.878" transform="translate(128.885 173.807)" fill="#263238"/>
            <path id="Trazado_769735" data-name="Trazado 769735" d="M86.625,117.933c-.111,0-.211-.428-.226-.963s.065-.968.176-.973.211.43.226.963-.065.971-.176.973" transform="translate(130.921 175.772)" fill="#455a64"/>
            <path id="Trazado_769736" data-name="Trazado 769736" d="M88.529,116.629l3.413,2.928-.015-2.088-3.61-2.7Z" transform="translate(133.831 173.915)" fill="#263238"/>
            <path id="Trazado_769737" data-name="Trazado 769737" d="M91.894,117.729l4.922-.166-3.962-2.875-4.538.209Z" transform="translate(133.83 173.789)" fill="#455a64"/>
            <path id="Trazado_769738" data-name="Trazado 769738" d="M89.739,116l.048,1.952,4.809-.312.065-1.806Z" transform="translate(135.985 175.521)" fill="#263238"/>
            <path id="Trazado_769739" data-name="Trazado 769739" d="M96.815,117.686a27.876,27.876,0,0,1-3.964-2.551c-.078-.055-.158-.111-.231-.163l.123.035a25.188,25.188,0,0,1-4.424.013,25.646,25.646,0,0,1,4.407-.412l.068,0,.055.038c.075.053.156.108.236.166a27.991,27.991,0,0,1,3.73,2.878" transform="translate(133.831 173.664)" fill="#263238"/>
            <path id="Trazado_769740" data-name="Trazado 769740" d="M89.889,117.84c-.111,0-.211-.428-.226-.963s.065-.968.176-.973.211.43.226.963-.065.971-.176.973" transform="translate(135.867 175.631)" fill="#455a64"/>
            <path id="Trazado_769741" data-name="Trazado 769741" d="M91.84,116.547l3.413,2.928-.015-2.088-3.61-2.7Z" transform="translate(138.849 173.79)" fill="#263238"/>
            <path id="Trazado_769742" data-name="Trazado 769742" d="M95.206,117.647l4.922-.166-3.962-2.875-4.538.209Z" transform="translate(138.848 173.665)" fill="#455a64"/>
            <path id="Trazado_769743" data-name="Trazado 769743" d="M93.051,115.914l.048,1.952,4.809-.312.065-1.806Z" transform="translate(141.003 175.397)" fill="#263238"/>
            <path id="Trazado_769744" data-name="Trazado 769744" d="M100.127,117.6a27.88,27.88,0,0,1-3.964-2.551c-.078-.055-.158-.111-.231-.164l.123.035a25.2,25.2,0,0,1-4.424.013,25.643,25.643,0,0,1,4.407-.413l.068,0,.055.038c.075.053.156.108.236.166a27.992,27.992,0,0,1,3.73,2.878" transform="translate(138.85 173.54)" fill="#263238"/>
            <path id="Trazado_769745" data-name="Trazado 769745" d="M93.2,117.758c-.111,0-.211-.428-.226-.963s.065-.968.176-.973.211.43.226.963-.065.971-.176.973" transform="translate(140.886 175.507)" fill="#455a64"/>
            <path id="Trazado_769746" data-name="Trazado 769746" d="M95,116.4l3.413,2.928-.015-2.088-3.61-2.7Z" transform="translate(143.64 173.566)" fill="#263238"/>
            <path id="Trazado_769747" data-name="Trazado 769747" d="M98.367,117.5l4.923-.166-3.962-2.875-4.538.209Z" transform="translate(143.639 173.441)" fill="#455a64"/>
            <path id="Trazado_769748" data-name="Trazado 769748" d="M96.212,115.767l.048,1.952,4.809-.312.065-1.806Z" transform="translate(145.794 175.173)" fill="#263238"/>
            <path id="Trazado_769749" data-name="Trazado 769749" d="M103.288,117.456a27.877,27.877,0,0,1-3.964-2.551c-.078-.055-.158-.111-.231-.163l.123.035a25.194,25.194,0,0,1-4.424.013,25.645,25.645,0,0,1,4.407-.413l.068,0,.055.038c.075.053.156.108.236.166a28,28,0,0,1,3.73,2.878" transform="translate(143.64 173.316)" fill="#263238"/>
            <path id="Trazado_769750" data-name="Trazado 769750" d="M96.364,117.61c-.113,0-.214-.428-.229-.963s.065-.968.176-.973.211.43.229.963-.065.971-.176.973" transform="translate(145.676 175.283)" fill="#455a64"/>
            <path id="Trazado_769751" data-name="Trazado 769751" d="M98.093,116.221l3.413,2.928-.015-2.088-3.61-2.7Z" transform="translate(148.323 173.296)" fill="#263238"/>
            <path id="Trazado_769752" data-name="Trazado 769752" d="M101.458,117.32l4.922-.166-3.962-2.875-4.538.209Z" transform="translate(148.323 173.171)" fill="#455a64"/>
            <path id="Trazado_769753" data-name="Trazado 769753" d="M99.3,115.588l.048,1.952,4.809-.312.065-1.806Z" transform="translate(150.478 174.903)" fill="#263238"/>
            <path id="Trazado_769754" data-name="Trazado 769754" d="M106.379,117.278a27.88,27.88,0,0,1-3.964-2.551c-.078-.055-.158-.111-.231-.163l.123.035a25.188,25.188,0,0,1-4.424.013,25.646,25.646,0,0,1,4.407-.412l.068,0,.055.038c.075.053.156.108.236.166a27.991,27.991,0,0,1,3.73,2.878" transform="translate(148.324 173.046)" fill="#263238"/>
            <path id="Trazado_769755" data-name="Trazado 769755" d="M99.453,117.432c-.111,0-.211-.428-.226-.963s.065-.968.176-.973.211.43.226.963-.065.971-.176.973" transform="translate(150.359 175.013)" fill="#455a64"/>
            <path id="Trazado_769756" data-name="Trazado 769756" d="M81.039,119.01l3.413,2.928-.015-2.088-3.61-2.7Z" transform="translate(122.481 177.522)" fill="#263238"/>
            <path id="Trazado_769757" data-name="Trazado 769757" d="M84.4,120.109l4.922-.166-3.962-2.875-4.538.209Z" transform="translate(122.481 177.397)" fill="#455a64"/>
            <path id="Trazado_769758" data-name="Trazado 769758" d="M82.25,118.377l.048,1.952,4.809-.312.065-1.806Z" transform="translate(124.635 179.129)" fill="#263238"/>
            <path id="Trazado_769759" data-name="Trazado 769759" d="M89.325,120.067a27.873,27.873,0,0,1-3.964-2.551c-.078-.055-.158-.111-.231-.163l.123.035a25.194,25.194,0,0,1-4.424.013,25.643,25.643,0,0,1,4.407-.412l.068,0,.058.038c.073.053.153.108.234.166a27.994,27.994,0,0,1,3.73,2.878" transform="translate(122.481 177.272)" fill="#263238"/>
            <path id="Trazado_769760" data-name="Trazado 769760" d="M82.4,120.221c-.111,0-.211-.428-.226-.963s.065-.968.176-.973.211.43.226.963-.065.971-.176.973" transform="translate(124.518 179.239)" fill="#455a64"/>
            <path id="Trazado_769761" data-name="Trazado 769761" d="M84.314,118.948l3.413,2.928-.015-2.088-3.61-2.7Z" transform="translate(127.443 177.429)" fill="#263238"/>
            <path id="Trazado_769762" data-name="Trazado 769762" d="M87.679,120.048l4.922-.166-3.962-2.875-4.538.209Z" transform="translate(127.443 177.304)" fill="#455a64"/>
            <path id="Trazado_769763" data-name="Trazado 769763" d="M85.524,118.316l.048,1.952,4.809-.312.065-1.806Z" transform="translate(129.597 179.036)" fill="#263238"/>
            <path id="Trazado_769764" data-name="Trazado 769764" d="M92.6,120.006a27.875,27.875,0,0,1-3.964-2.551c-.078-.055-.158-.111-.231-.164l.123.035a25.192,25.192,0,0,1-4.424.013,25.64,25.64,0,0,1,4.407-.412l.068,0,.055.038c.075.053.156.108.236.166a27.992,27.992,0,0,1,3.73,2.878" transform="translate(127.444 177.18)" fill="#263238"/>
            <path id="Trazado_769765" data-name="Trazado 769765" d="M85.674,120.159c-.111,0-.211-.428-.226-.963s.065-.968.176-.973.211.43.226.963-.065.971-.176.973" transform="translate(129.48 179.145)" fill="#455a64"/>
            <path id="Trazado_769766" data-name="Trazado 769766" d="M87.449,118.907l3.413,2.928-.015-2.088-3.61-2.7Z" transform="translate(132.194 177.366)" fill="#263238"/>
            <path id="Trazado_769767" data-name="Trazado 769767" d="M90.814,120.006l4.922-.166-3.962-2.875-4.538.209Z" transform="translate(132.193 177.241)" fill="#455a64"/>
            <path id="Trazado_769768" data-name="Trazado 769768" d="M88.659,118.274l.048,1.952,4.809-.312.065-1.806Z" transform="translate(134.348 178.973)" fill="#263238"/>
            <path id="Trazado_769769" data-name="Trazado 769769" d="M95.735,119.964a27.879,27.879,0,0,1-3.964-2.551c-.078-.055-.158-.111-.231-.163l.123.035a25.188,25.188,0,0,1-4.424.013,25.647,25.647,0,0,1,4.407-.412l.068,0,.058.038c.073.053.153.108.234.166a27.989,27.989,0,0,1,3.73,2.878" transform="translate(132.194 177.116)" fill="#263238"/>
            <path id="Trazado_769770" data-name="Trazado 769770" d="M88.809,120.118c-.111,0-.211-.428-.226-.963s.065-.968.176-.973.211.43.226.963-.065.971-.176.973" transform="translate(134.23 179.083)" fill="#455a64"/>
            <path id="Trazado_769771" data-name="Trazado 769771" d="M90.714,118.813l3.413,2.928-.015-2.088-3.609-2.7Z" transform="translate(137.141 177.225)" fill="#263238"/>
            <path id="Trazado_769772" data-name="Trazado 769772" d="M94.079,119.913,99,119.747l-3.962-2.875-4.538.209Z" transform="translate(137.14 177.1)" fill="#455a64"/>
            <path id="Trazado_769773" data-name="Trazado 769773" d="M91.924,118.181l.048,1.952,4.809-.312.065-1.806Z" transform="translate(139.295 178.832)" fill="#263238"/>
            <path id="Trazado_769774" data-name="Trazado 769774" d="M99,119.871a27.879,27.879,0,0,1-3.964-2.551c-.078-.055-.158-.111-.231-.163l.123.035a25.192,25.192,0,0,1-4.424.013,25.645,25.645,0,0,1,4.407-.413l.068,0,.055.038c.075.053.156.108.236.166A27.991,27.991,0,0,1,99,119.871" transform="translate(137.142 176.975)" fill="#263238"/>
            <path id="Trazado_769775" data-name="Trazado 769775" d="M92.074,120.024c-.111,0-.211-.428-.226-.963s.065-.968.176-.973.211.43.226.963-.065.971-.176.973" transform="translate(139.178 178.941)" fill="#455a64"/>
            <path id="Trazado_769776" data-name="Trazado 769776" d="M94.025,118.731l3.413,2.928-.015-2.088-3.61-2.7Z" transform="translate(142.159 177.1)" fill="#263238"/>
            <path id="Trazado_769777" data-name="Trazado 769777" d="M97.39,119.831l4.922-.166-3.962-2.875L93.813,117Z" transform="translate(142.158 176.975)" fill="#455a64"/>
            <path id="Trazado_769778" data-name="Trazado 769778" d="M95.235,118.1l.048,1.952,4.809-.312.065-1.806Z" transform="translate(144.313 178.707)" fill="#263238"/>
            <path id="Trazado_769779" data-name="Trazado 769779" d="M102.311,119.789a27.879,27.879,0,0,1-3.964-2.551c-.078-.055-.158-.111-.231-.164l.123.035a25.194,25.194,0,0,1-4.424.013,25.644,25.644,0,0,1,4.407-.413l.068,0,.055.038c.075.053.156.108.236.166a27.991,27.991,0,0,1,3.73,2.878" transform="translate(142.159 176.851)" fill="#263238"/>
            <path id="Trazado_769780" data-name="Trazado 769780" d="M95.385,119.942c-.111,0-.211-.428-.226-.963s.065-.968.176-.973.211.43.226.963-.065.971-.176.973" transform="translate(144.195 178.817)" fill="#455a64"/>
            <path id="Trazado_769781" data-name="Trazado 769781" d="M97.187,118.583l3.413,2.928-.015-2.088-3.61-2.7Z" transform="translate(146.95 176.876)" fill="#263238"/>
            <path id="Trazado_769782" data-name="Trazado 769782" d="M100.552,119.683l4.922-.166-3.962-2.875-4.538.209Z" transform="translate(146.949 176.751)" fill="#455a64"/>
            <path id="Trazado_769783" data-name="Trazado 769783" d="M98.4,117.951l.048,1.952,4.809-.312.065-1.806Z" transform="translate(149.104 178.483)" fill="#263238"/>
            <path id="Trazado_769784" data-name="Trazado 769784" d="M105.473,119.641a27.884,27.884,0,0,1-3.964-2.551c-.078-.055-.158-.111-.231-.164l.123.035a25.2,25.2,0,0,1-4.424.013,25.644,25.644,0,0,1,4.407-.413l.068,0,.055.038c.075.053.156.108.236.166a27.989,27.989,0,0,1,3.73,2.878" transform="translate(146.951 176.627)" fill="#263238"/>
            <path id="Trazado_769785" data-name="Trazado 769785" d="M98.547,119.794c-.111,0-.211-.428-.226-.963s.065-.968.176-.973.211.43.226.963-.065.971-.176.973" transform="translate(148.986 178.592)" fill="#455a64"/>
            <path id="Trazado_769786" data-name="Trazado 769786" d="M100.278,118.405l3.413,2.928-.015-2.088-3.609-2.7Z" transform="translate(151.633 176.606)" fill="#263238"/>
            <path id="Trazado_769787" data-name="Trazado 769787" d="M103.643,119.5l4.922-.166-3.962-2.875-4.538.209Z" transform="translate(151.633 176.481)" fill="#455a64"/>
            <path id="Trazado_769788" data-name="Trazado 769788" d="M101.488,117.773l.048,1.952,4.809-.312.065-1.806Z" transform="translate(153.788 178.213)" fill="#263238"/>
            <path id="Trazado_769789" data-name="Trazado 769789" d="M108.564,119.462a27.879,27.879,0,0,1-3.964-2.551c-.078-.055-.158-.111-.231-.163l.123.035a25.194,25.194,0,0,1-4.424.013,25.643,25.643,0,0,1,4.407-.412l.068,0,.055.038c.075.053.156.108.236.166a27.991,27.991,0,0,1,3.73,2.878" transform="translate(151.635 176.356)" fill="#263238"/>
            <path id="Trazado_769790" data-name="Trazado 769790" d="M101.638,119.616c-.111,0-.211-.428-.226-.963s.065-.968.176-.973.211.43.226.963-.065.971-.176.973" transform="translate(153.67 178.323)" fill="#455a64"/>
            <path id="Trazado_769791" data-name="Trazado 769791" d="M171.617,117.873l-68.918,3.75-9.151,8.653L75.911,114.811V119.3l18.271,17.512L104.266,127l68.4-4.077Z" transform="translate(115.03 173.977)" fill="#263238"/>
            <path id="Trazado_769792" data-name="Trazado 769792" d="M83.175,131.924l62.27-3.642,16.219-10.245-70.047,2.747Z" transform="translate(126.037 178.864)" fill="#263238"/>
            <path id="Trazado_769793" data-name="Trazado 769793" d="M161.663,118.041a.823.823,0,0,1-.211.033l-.624.058c-.579.043-1.381.1-2.4.181-2.118.141-5.126.342-8.831.591-7.486.46-17.776,1.094-29.143,1.8l-27.183,1.57.1-.04c-3.111,2.986-5.642,5.416-7.42,7.123-.868.817-1.549,1.464-2.04,1.924-.221.2-.4.367-.538.5a1.118,1.118,0,0,1-.194.156,1.159,1.159,0,0,1,.163-.189c.131-.136.3-.309.508-.523.475-.478,1.139-1.142,1.982-1.985l7.327-7.219.04-.04.055,0c7.181-.443,16.724-1.029,27.178-1.67,11.372-.657,21.665-1.25,29.15-1.68l8.839-.463,2.4-.106.626-.018a.773.773,0,0,1,.214.008" transform="translate(126.036 178.858)" fill="#455a64"/>
            <path id="Trazado_769794" data-name="Trazado 769794" d="M88.143,122.9a9.98,9.98,0,0,1-.976-2.634,9.885,9.885,0,0,1-.591-2.747,10.026,10.026,0,0,1,.976,2.634,10.012,10.012,0,0,1,.591,2.747" transform="translate(131.154 178.08)" fill="#455a64"/>
          </g>
        </g>
        <g id="Grupo_1028046" data-name="Grupo 1028046">
          <g id="Grupo_1028045" data-name="Grupo 1028045" clip-path="url(#clip-path)">
            <path id="Trazado_769795" data-name="Trazado 769795" d="M156.394,148.559l-61.854-11.84a3.486,3.486,0,0,1-2.769-4.08l19.9-103.991a4.954,4.954,0,0,1,5.8-3.934L176.446,36a4.953,4.953,0,0,1,3.934,5.8l-19.9,103.991a3.489,3.489,0,0,1-4.082,2.769" transform="translate(138.966 37.314)" fill="#455a64"/>
            <g id="Grupo_1027999" data-name="Grupo 1027999" transform="translate(230.625 61.922)" opacity="0.4">
              <g id="Grupo_1027998" data-name="Grupo 1027998">
                <g id="Grupo_1027997" data-name="Grupo 1027997" clip-path="url(#clip-path-7)">
                  <path id="Trazado_769796" data-name="Trazado 769796" d="M156.375,148.552,94.52,136.712a3.486,3.486,0,0,1-2.769-4.08l19.9-103.991a4.955,4.955,0,0,1,5.8-3.934L176.427,36a4.953,4.953,0,0,1,3.934,5.8l-19.9,103.991a3.489,3.489,0,0,1-4.082,2.769" transform="translate(-91.688 -24.619)" fill="#373f51"/>
                </g>
              </g>
            </g>
            <path id="Trazado_769797" data-name="Trazado 769797" d="M154.254,148.14,92.4,136.3a3.486,3.486,0,0,1-2.769-4.08l19.9-103.991a4.952,4.952,0,0,1,5.8-3.934l58.974,11.289a4.953,4.953,0,0,1,3.934,5.8l-19.9,103.991a3.489,3.489,0,0,1-4.082,2.769" transform="translate(135.724 36.679)" fill="#5573c6"/>
            <path id="Trazado_769798" data-name="Trazado 769798" d="M115.357,73.324l-19.5-3.733a1.868,1.868,0,0,1-1.484-2.186l1.258-6.57a1.864,1.864,0,0,1,2.186-1.482l19.5,3.733a1.868,1.868,0,0,1,1.484,2.186l-1.258,6.568a1.868,1.868,0,0,1-2.186,1.484" transform="translate(142.95 89.888)" fill="#455a64"/>
            <g id="Grupo_1028002" data-name="Grupo 1028002" transform="translate(237.285 149.207)" opacity="0.2">
              <g id="Grupo_1028001" data-name="Grupo 1028001">
                <g id="Grupo_1028000" data-name="Grupo 1028000" clip-path="url(#clip-path-8)">
                  <path id="Trazado_769799" data-name="Trazado 769799" d="M115.357,73.324l-19.5-3.733a1.868,1.868,0,0,1-1.484-2.186l1.258-6.57a1.864,1.864,0,0,1,2.186-1.482l19.5,3.733a1.868,1.868,0,0,1,1.484,2.186l-1.258,6.568a1.868,1.868,0,0,1-2.186,1.484" transform="translate(-94.335 -59.319)"/>
                </g>
              </g>
            </g>
            <rect id="Rectángulo_363048" data-name="Rectángulo 363048" width="23.459" height="59.806" transform="translate(245.022 95.293) rotate(-79.164)" fill="#fafafa"/>
            <path id="Trazado_769800" data-name="Trazado 769800" d="M156.22,63.08s.023-.143.07-.413.126-.672.221-1.192c.2-1.049.485-2.591.86-4.58.75-3.974,1.839-9.727,3.189-16.87l.055.083c-14.783-2.822-35.645-6.8-58.741-11.211l-.005,0,.118-.08c-1.544,8.059-3.036,15.844-4.414,23.04l-.075-.113,42.089,8.1c5.214,1.009,9.367,1.814,12.222,2.367,1.424.277,2.523.491,3.272.639l.845.166.292.063s-.093-.013-.282-.048l-.838-.153c-.745-.141-1.839-.345-3.257-.611-2.85-.541-7-1.326-12.209-2.309-10.446-1.99-25.143-4.787-42.172-8.026l-.1-.018.02-.1c1.376-7.2,2.865-14.984,4.4-23.043l.02-.1.1.018.005,0,58.73,11.271.068.013-.013.07c-1.386,7.154-2.5,12.916-3.272,16.9-.387,1.98-.687,3.514-.89,4.56-.1.513-.181.908-.234,1.177s-.083.395-.083.395" transform="translate(147.542 43.457)" fill="#263238"/>
            <path id="Trazado_769801" data-name="Trazado 769801" d="M105.5,53.217l-6.829-1.308A1.607,1.607,0,0,1,97.4,50.03L98.7,43.2a1.607,1.607,0,0,1,1.879-1.275l6.829,1.308a1.607,1.607,0,0,1,1.275,1.879l-1.308,6.829a1.607,1.607,0,0,1-1.879,1.275" transform="translate(147.543 63.487)" fill="#455a64"/>
            <g id="Grupo_1028005" data-name="Grupo 1028005" transform="translate(244.909 105.383)" opacity="0.2">
              <g id="Grupo_1028004" data-name="Grupo 1028004">
                <g id="Grupo_1028003" data-name="Grupo 1028003" clip-path="url(#clip-path-9)">
                  <path id="Trazado_769802" data-name="Trazado 769802" d="M105.5,53.217l-6.829-1.308A1.607,1.607,0,0,1,97.4,50.03L98.7,43.2a1.607,1.607,0,0,1,1.879-1.275l6.829,1.308a1.607,1.607,0,0,1,1.275,1.879l-1.308,6.829a1.607,1.607,0,0,1-1.879,1.275" transform="translate(-97.366 -41.896)"/>
                </g>
              </g>
            </g>
            <path id="Trazado_769803" data-name="Trazado 769803" d="M104.887,53.1l-6.829-1.308a1.607,1.607,0,0,1-1.275-1.879l1.308-6.829a1.607,1.607,0,0,1,1.879-1.275l6.829,1.308a1.607,1.607,0,0,1,1.275,1.879l-1.308,6.829a1.607,1.607,0,0,1-1.879,1.275" transform="translate(146.614 63.308)" fill="#263238"/>
            <path id="Trazado_769804" data-name="Trazado 769804" d="M100.621,43.451l-.8,4.16-.961-.184.646-3.388-.83-.158.146-.775Z" transform="translate(149.532 65.32)" fill="#fff"/>
            <path id="Trazado_769805" data-name="Trazado 769805" d="M111.035,54.276l-6.829-1.308a1.607,1.607,0,0,1-1.275-1.879l1.308-6.829a1.607,1.607,0,0,1,1.879-1.275l6.829,1.308a1.607,1.607,0,0,1,1.275,1.879L112.914,53a1.607,1.607,0,0,1-1.879,1.275" transform="translate(155.93 65.092)" fill="#455a64"/>
            <g id="Grupo_1028008" data-name="Grupo 1028008" transform="translate(258.83 108.048)" opacity="0.2">
              <g id="Grupo_1028007" data-name="Grupo 1028007">
                <g id="Grupo_1028006" data-name="Grupo 1028006" clip-path="url(#clip-path-10)">
                  <path id="Trazado_769806" data-name="Trazado 769806" d="M111.035,54.276l-6.829-1.308a1.607,1.607,0,0,1-1.275-1.879l1.308-6.829a1.607,1.607,0,0,1,1.879-1.275l6.829,1.308a1.607,1.607,0,0,1,1.275,1.879L112.914,53a1.607,1.607,0,0,1-1.879,1.275" transform="translate(-102.9 -42.956)"/>
                </g>
              </g>
            </g>
            <path id="Trazado_769807" data-name="Trazado 769807" d="M110.422,54.159l-6.829-1.308a1.607,1.607,0,0,1-1.275-1.879l1.308-6.829a1.607,1.607,0,0,1,1.879-1.275l6.829,1.308a1.607,1.607,0,0,1,1.275,1.879L112.3,52.883a1.607,1.607,0,0,1-1.879,1.275" transform="translate(155.001 64.915)" fill="#263238"/>
            <path id="Trazado_769808" data-name="Trazado 769808" d="M107.312,48.059l-.151.785-3.144-.6.121-.624,1.894-1.21c.435-.279.543-.48.581-.684.063-.327-.126-.561-.566-.644a1.039,1.039,0,0,0-.943.252l-.614-.586a1.97,1.97,0,0,1,1.8-.458c.926.179,1.454.772,1.308,1.527A1.683,1.683,0,0,1,106.653,47l-1.129.719Z" transform="translate(157.62 67.04)" fill="#fff"/>
            <path id="Trazado_769809" data-name="Trazado 769809" d="M116.773,55.374l-6.829-1.308a1.607,1.607,0,0,1-1.275-1.879l1.308-6.829a1.607,1.607,0,0,1,1.879-1.275l6.829,1.308a1.607,1.607,0,0,1,1.275,1.879L118.652,54.1a1.607,1.607,0,0,1-1.879,1.275" transform="translate(164.625 66.756)" fill="#455a64"/>
            <g id="Grupo_1028011" data-name="Grupo 1028011" transform="translate(273.266 110.81)" opacity="0.2">
              <g id="Grupo_1028010" data-name="Grupo 1028010">
                <g id="Grupo_1028009" data-name="Grupo 1028009" clip-path="url(#clip-path-10)">
                  <path id="Trazado_769810" data-name="Trazado 769810" d="M116.773,55.374l-6.829-1.308a1.607,1.607,0,0,1-1.275-1.879l1.308-6.829a1.607,1.607,0,0,1,1.879-1.275l6.829,1.308a1.607,1.607,0,0,1,1.275,1.879L118.652,54.1a1.607,1.607,0,0,1-1.879,1.275" transform="translate(-108.641 -44.054)"/>
                </g>
              </g>
            </g>
            <path id="Trazado_769811" data-name="Trazado 769811" d="M116.16,55.257l-6.829-1.308a1.607,1.607,0,0,1-1.275-1.879l1.308-6.829a1.607,1.607,0,0,1,1.879-1.275l6.829,1.308a1.607,1.607,0,0,1,1.275,1.879l-1.308,6.829a1.607,1.607,0,0,1-1.879,1.275" transform="translate(163.696 66.578)" fill="#263238"/>
            <path id="Trazado_769812" data-name="Trazado 769812" d="M113.187,48.76c-.133.7-.8,1.24-1.98,1.014a2.914,2.914,0,0,1-1.5-.75l.516-.667a2.061,2.061,0,0,0,1.119.6c.48.091.815-.048.88-.387.06-.314-.133-.556-.682-.659l-.44-.086.123-.636,1.041-.8-1.771-.337.146-.775,2.913.558-.118.624-1.144.89a1.2,1.2,0,0,1,.9,1.411" transform="translate(166.236 68.608)" fill="#fff"/>
            <path id="Trazado_769813" data-name="Trazado 769813" d="M122.511,56.473l-6.829-1.308a1.607,1.607,0,0,1-1.275-1.879l1.308-6.829a1.607,1.607,0,0,1,1.879-1.275l6.829,1.308a1.607,1.607,0,0,1,1.275,1.879L124.39,55.2a1.607,1.607,0,0,1-1.879,1.275" transform="translate(173.32 68.421)" fill="#455a64"/>
            <g id="Grupo_1028014" data-name="Grupo 1028014" transform="translate(287.698 113.573)" opacity="0.2">
              <g id="Grupo_1028013" data-name="Grupo 1028013">
                <g id="Grupo_1028012" data-name="Grupo 1028012" clip-path="url(#clip-path-10)">
                  <path id="Trazado_769814" data-name="Trazado 769814" d="M122.511,56.473l-6.829-1.308a1.607,1.607,0,0,1-1.275-1.879l1.308-6.829a1.607,1.607,0,0,1,1.879-1.275l6.829,1.308a1.607,1.607,0,0,1,1.275,1.879L124.39,55.2a1.607,1.607,0,0,1-1.879,1.275" transform="translate(-114.379 -45.152)"/>
                </g>
              </g>
            </g>
            <path id="Trazado_769815" data-name="Trazado 769815" d="M121.912,56.357l-6.829-1.308a1.607,1.607,0,0,1-1.275-1.879l1.308-6.829a1.607,1.607,0,0,1,1.879-1.275l6.829,1.308a1.607,1.607,0,0,1,1.275,1.879l-1.308,6.829a1.607,1.607,0,0,1-1.879,1.275" transform="translate(172.412 68.245)" fill="#263238"/>
            <rect id="Rectángulo_363053" data-name="Rectángulo 363053" width="0.389" height="4.539" transform="translate(289.57 118.55) rotate(-79.17)" fill="#fff"/>
            <path id="Trazado_769816" data-name="Trazado 769816" d="M117.337,47.034a.736.736,0,1,1-.584-.86.733.733,0,0,1,.584.86" transform="translate(175.593 69.947)" fill="#fff"/>
            <path id="Trazado_769817" data-name="Trazado 769817" d="M117.041,48.579a.736.736,0,1,1-.584-.86.733.733,0,0,1,.584.86" transform="translate(175.145 72.288)" fill="#fff"/>
            <g id="Grupo_1028017" data-name="Grupo 1028017" transform="translate(242.016 119.915)" opacity="0.2">
              <g id="Grupo_1028016" data-name="Grupo 1028016">
                <g id="Grupo_1028015" data-name="Grupo 1028015" clip-path="url(#clip-path-13)">
                  <path id="Trazado_769818" data-name="Trazado 769818" d="M104.981,59.19l-7.906-1.514a1.056,1.056,0,0,1-.84-1.238l1.512-7.906a1.059,1.059,0,0,1,1.24-.84l7.906,1.514a1.043,1.043,0,0,1,.84,1.238l-1.514,7.906a1.058,1.058,0,0,1-1.238.84" transform="translate(-96.216 -47.675)"/>
                </g>
              </g>
            </g>
            <path id="Trazado_769819" data-name="Trazado 769819" d="M103.774,58.914l-6.829-1.308a1.607,1.607,0,0,1-1.275-1.879L96.977,48.9a1.607,1.607,0,0,1,1.879-1.275l6.829,1.308a1.607,1.607,0,0,1,1.275,1.879l-1.308,6.829a1.607,1.607,0,0,1-1.879,1.275" transform="translate(144.927 72.12)" fill="#263238"/>
            <path id="Trazado_769820" data-name="Trazado 769820" d="M100.9,52.656l-.679-.131-.166.875-.938-.181.166-.873-2.241-.43.123-.646,2.468-2.264,1.011.194-2.3,2.153,1.119.214.148-.777.908.174-.148.777.679.131Z" transform="translate(147.043 74.26)" fill="#fff"/>
            <path id="Trazado_769821" data-name="Trazado 769821" d="M109.922,60.091l-6.829-1.308a1.607,1.607,0,0,1-1.275-1.879l1.308-6.829A1.607,1.607,0,0,1,105,48.8l6.829,1.308a1.607,1.607,0,0,1,1.275,1.879L111.8,58.815a1.607,1.607,0,0,1-1.879,1.275" transform="translate(154.243 73.904)" fill="#455a64"/>
            <g id="Grupo_1028020" data-name="Grupo 1028020" transform="translate(256.03 122.673)" opacity="0.2">
              <g id="Grupo_1028019" data-name="Grupo 1028019">
                <g id="Grupo_1028018" data-name="Grupo 1028018" clip-path="url(#clip-path-10)">
                  <path id="Trazado_769822" data-name="Trazado 769822" d="M109.922,60.091l-6.829-1.308a1.607,1.607,0,0,1-1.275-1.879l1.308-6.829A1.607,1.607,0,0,1,105,48.8l6.829,1.308a1.607,1.607,0,0,1,1.275,1.879L111.8,58.815a1.607,1.607,0,0,1-1.879,1.275" transform="translate(-101.787 -48.77)"/>
                </g>
              </g>
            </g>
            <path id="Trazado_769823" data-name="Trazado 769823" d="M109.309,59.974l-6.829-1.308a1.607,1.607,0,0,1-1.275-1.879l1.308-6.829a1.607,1.607,0,0,1,1.879-1.275l6.829,1.308a1.607,1.607,0,0,1,1.275,1.879L111.188,58.7a1.607,1.607,0,0,1-1.879,1.275" transform="translate(153.314 73.726)" fill="#263238"/>
            <path id="Trazado_769824" data-name="Trazado 769824" d="M106.177,53.372c-.141.737-.8,1.275-1.995,1.049a2.936,2.936,0,0,1-1.5-.75l.523-.664a2.041,2.041,0,0,0,1.109.6c.483.093.817-.053.883-.39s-.111-.584-.865-.727l-1.064-.2.662-2.3,2.54.485-.148.772-1.736-.332-.216.78.337.063c1.23.236,1.612.883,1.471,1.62" transform="translate(155.596 75.742)" fill="#fff"/>
            <path id="Trazado_769825" data-name="Trazado 769825" d="M115.66,61.189l-6.829-1.308A1.607,1.607,0,0,1,107.555,58l1.308-6.829a1.607,1.607,0,0,1,1.879-1.275l6.829,1.308a1.607,1.607,0,0,1,1.275,1.879l-1.308,6.829a1.607,1.607,0,0,1-1.879,1.275" transform="translate(162.938 75.567)" fill="#455a64"/>
            <g id="Grupo_1028023" data-name="Grupo 1028023" transform="translate(270.466 125.436)" opacity="0.2">
              <g id="Grupo_1028022" data-name="Grupo 1028022">
                <g id="Grupo_1028021" data-name="Grupo 1028021" clip-path="url(#clip-path-10)">
                  <path id="Trazado_769826" data-name="Trazado 769826" d="M115.66,61.189l-6.829-1.308A1.607,1.607,0,0,1,107.555,58l1.308-6.829a1.607,1.607,0,0,1,1.879-1.275l6.829,1.308a1.607,1.607,0,0,1,1.275,1.879l-1.308,6.829a1.607,1.607,0,0,1-1.879,1.275" transform="translate(-107.528 -49.869)"/>
                </g>
              </g>
            </g>
            <path id="Trazado_769827" data-name="Trazado 769827" d="M115.047,61.072l-6.829-1.308a1.607,1.607,0,0,1-1.275-1.879l1.308-6.829a1.607,1.607,0,0,1,1.879-1.275l6.829,1.308a1.607,1.607,0,0,1,1.275,1.879L116.926,59.8a1.607,1.607,0,0,1-1.879,1.275" transform="translate(162.009 75.39)" fill="#263238"/>
            <path id="Trazado_769828" data-name="Trazado 769828" d="M111.955,54.388a1.457,1.457,0,0,1-1.841,1.084,1.827,1.827,0,0,1-1.466-2.42,2.062,2.062,0,0,1,2.553-1.834,2.276,2.276,0,0,1,1.1.508l-.493.639a1.391,1.391,0,0,0-.74-.357,1.124,1.124,0,0,0-1.4.981,1.433,1.433,0,0,1,1.1-.171,1.345,1.345,0,0,1,1.185,1.57m-.943-.131a.64.64,0,0,0-.589-.76.662.662,0,0,0-.838.485c-.068.357.148.672.611.76a.636.636,0,0,0,.815-.485" transform="translate(164.545 77.538)" fill="#fff"/>
            <path id="Trazado_769829" data-name="Trazado 769829" d="M121.4,62.287l-6.829-1.308a1.607,1.607,0,0,1-1.275-1.879l1.308-6.829A1.607,1.607,0,0,1,116.48,51l6.829,1.308a1.607,1.607,0,0,1,1.275,1.879l-1.308,6.829a1.607,1.607,0,0,1-1.879,1.275" transform="translate(171.633 77.231)" fill="#455a64"/>
            <g id="Grupo_1028026" data-name="Grupo 1028026" transform="translate(284.899 128.199)" opacity="0.2">
              <g id="Grupo_1028025" data-name="Grupo 1028025">
                <g id="Grupo_1028024" data-name="Grupo 1028024" clip-path="url(#clip-path-10)">
                  <path id="Trazado_769830" data-name="Trazado 769830" d="M121.4,62.287l-6.829-1.308a1.607,1.607,0,0,1-1.275-1.879l1.308-6.829A1.607,1.607,0,0,1,116.48,51l6.829,1.308a1.607,1.607,0,0,1,1.275,1.879l-1.308,6.829a1.607,1.607,0,0,1-1.879,1.275" transform="translate(-113.266 -50.967)"/>
                </g>
              </g>
            </g>
            <path id="Trazado_769831" data-name="Trazado 769831" d="M120.785,62.17l-6.829-1.308a1.607,1.607,0,0,1-1.275-1.879l1.308-6.829a1.607,1.607,0,0,1,1.879-1.275l6.829,1.308a1.607,1.607,0,0,1,1.275,1.879l-1.308,6.829a1.607,1.607,0,0,1-1.879,1.275" transform="translate(170.704 77.054)" fill="#263238"/>
            <path id="Trazado_769832" data-name="Trazado 769832" d="M114.325,55.361l-.214-.324,3.8-2.49.214.324Z" transform="translate(172.915 79.625)" fill="#fff"/>
            <rect id="Rectángulo_363058" data-name="Rectángulo 363058" width="0.389" height="4.54" transform="translate(287.595 131.81) rotate(-34.183)" fill="#fff"/>
            <path id="Trazado_769833" data-name="Trazado 769833" d="M103.283,64.8l-6.829-1.308a1.607,1.607,0,0,1-1.275-1.879l1.308-6.829a1.607,1.607,0,0,1,1.879-1.275l6.829,1.308a1.607,1.607,0,0,1,1.275,1.879l-1.308,6.829a1.607,1.607,0,0,1-1.879,1.275" transform="translate(144.183 81.038)" fill="#455a64"/>
            <g id="Grupo_1028029" data-name="Grupo 1028029" transform="translate(239.333 134.516)" opacity="0.2">
              <g id="Grupo_1028028" data-name="Grupo 1028028">
                <g id="Grupo_1028027" data-name="Grupo 1028027" clip-path="url(#clip-path-10)">
                  <path id="Trazado_769834" data-name="Trazado 769834" d="M103.283,64.8l-6.829-1.308a1.607,1.607,0,0,1-1.275-1.879l1.308-6.829a1.607,1.607,0,0,1,1.879-1.275l6.829,1.308a1.607,1.607,0,0,1,1.275,1.879l-1.308,6.829a1.607,1.607,0,0,1-1.879,1.275" transform="translate(-95.15 -53.478)"/>
                </g>
              </g>
            </g>
            <path id="Trazado_769835" data-name="Trazado 769835" d="M102.67,64.681l-6.829-1.308a1.607,1.607,0,0,1-1.275-1.879l1.308-6.829a1.607,1.607,0,0,1,1.879-1.275l6.829,1.308a1.607,1.607,0,0,1,1.275,1.879l-1.308,6.829a1.607,1.607,0,0,1-1.879,1.275" transform="translate(143.254 80.859)" fill="#263238"/>
            <path id="Trazado_769836" data-name="Trazado 769836" d="M99.675,55.26l-.118.624-2.224,3.242-1.046-.2,2.138-3.091-1.378-.264-.131.679-.855-.163.279-1.464Z" transform="translate(145.564 82.77)" fill="#fff"/>
            <path id="Trazado_769837" data-name="Trazado 769837" d="M108.818,65.858l-6.829-1.308a1.607,1.607,0,0,1-1.275-1.879l1.308-6.829a1.607,1.607,0,0,1,1.879-1.275l6.829,1.308A1.607,1.607,0,0,1,112,57.753L110.7,64.582a1.607,1.607,0,0,1-1.879,1.275" transform="translate(152.57 82.642)" fill="#455a64"/>
            <g id="Grupo_1028032" data-name="Grupo 1028032" transform="translate(253.256 137.18)" opacity="0.2">
              <g id="Grupo_1028031" data-name="Grupo 1028031">
                <g id="Grupo_1028030" data-name="Grupo 1028030" clip-path="url(#clip-path-10)">
                  <path id="Trazado_769838" data-name="Trazado 769838" d="M108.818,65.858l-6.829-1.308a1.607,1.607,0,0,1-1.275-1.879l1.308-6.829a1.607,1.607,0,0,1,1.879-1.275l6.829,1.308A1.607,1.607,0,0,1,112,57.753L110.7,64.582a1.607,1.607,0,0,1-1.879,1.275" transform="translate(-100.686 -54.538)"/>
                </g>
              </g>
            </g>
            <path id="Trazado_769839" data-name="Trazado 769839" d="M108.2,65.741l-6.829-1.308a1.607,1.607,0,0,1-1.275-1.879l1.308-6.829a1.607,1.607,0,0,1,1.879-1.275l6.829,1.308a1.607,1.607,0,0,1,1.275,1.879l-1.308,6.829a1.607,1.607,0,0,1-1.879,1.275" transform="translate(151.642 82.465)" fill="#263238"/>
            <path id="Trazado_769840" data-name="Trazado 769840" d="M105.22,59.218c-.151.785-.946,1.144-2,.943s-1.653-.83-1.5-1.612a1.073,1.073,0,0,1,.817-.86.979.979,0,0,1-.317-.948c.138-.732.88-1.064,1.826-.883s1.522.765,1.383,1.5a.986.986,0,0,1-.651.762,1.073,1.073,0,0,1,.448,1.1M104.252,59c.07-.37-.189-.654-.672-.747s-.815.078-.885.448.181.657.657.747.83-.08.9-.448m-1.089-2.04c-.06.314.153.558.543.634s.692-.07.752-.385-.161-.573-.553-.649-.679.073-.742.4" transform="translate(154.095 84.569)" fill="#fff"/>
            <path id="Trazado_769841" data-name="Trazado 769841" d="M114.556,66.957l-6.829-1.308a1.607,1.607,0,0,1-1.275-1.879l1.308-6.829a1.607,1.607,0,0,1,1.879-1.275l6.829,1.308a1.607,1.607,0,0,1,1.275,1.879l-1.308,6.829a1.607,1.607,0,0,1-1.879,1.275" transform="translate(161.265 84.308)" fill="#455a64"/>
            <g id="Grupo_1028035" data-name="Grupo 1028035" transform="translate(267.689 139.943)" opacity="0.2">
              <g id="Grupo_1028034" data-name="Grupo 1028034">
                <g id="Grupo_1028033" data-name="Grupo 1028033" clip-path="url(#clip-path-10)">
                  <path id="Trazado_769842" data-name="Trazado 769842" d="M114.556,66.957l-6.829-1.308a1.607,1.607,0,0,1-1.275-1.879l1.308-6.829a1.607,1.607,0,0,1,1.879-1.275l6.829,1.308a1.607,1.607,0,0,1,1.275,1.879l-1.308,6.829a1.607,1.607,0,0,1-1.879,1.275" transform="translate(-106.424 -55.635)"/>
                </g>
              </g>
            </g>
            <path id="Trazado_769843" data-name="Trazado 769843" d="M113.943,66.839l-6.829-1.308a1.607,1.607,0,0,1-1.275-1.879l1.308-6.829a1.607,1.607,0,0,1,1.879-1.275l6.829,1.308a1.607,1.607,0,0,1,1.275,1.879l-1.308,6.829a1.607,1.607,0,0,1-1.879,1.275" transform="translate(160.337 84.129)" fill="#263238"/>
            <path id="Trazado_769844" data-name="Trazado 769844" d="M111.039,59.346a2.059,2.059,0,0,1-2.551,1.836,2.28,2.28,0,0,1-1.1-.506l.49-.641a1.357,1.357,0,0,0,.739.357,1.129,1.129,0,0,0,1.4-.989,1.432,1.432,0,0,1-1.107.176,1.343,1.343,0,0,1-1.185-1.57,1.456,1.456,0,0,1,1.841-1.082,1.82,1.82,0,0,1,1.464,2.417m-.936-.931a.647.647,0,0,0-.606-.757.637.637,0,1,0-.226,1.245.658.658,0,0,0,.833-.488" transform="translate(162.734 86.209)" fill="#fff"/>
            <path id="Trazado_769845" data-name="Trazado 769845" d="M120.294,68.055l-6.829-1.308a1.607,1.607,0,0,1-1.275-1.879l1.308-6.829a1.607,1.607,0,0,1,1.879-1.275l6.829,1.308a1.607,1.607,0,0,1,1.275,1.879l-1.308,6.829a1.607,1.607,0,0,1-1.879,1.275" transform="translate(169.96 85.972)" fill="#455a64"/>
            <g id="Grupo_1028038" data-name="Grupo 1028038" transform="translate(282.122 142.706)" opacity="0.2">
              <g id="Grupo_1028037" data-name="Grupo 1028037">
                <g id="Grupo_1028036" data-name="Grupo 1028036" clip-path="url(#clip-path-10)">
                  <path id="Trazado_769846" data-name="Trazado 769846" d="M120.294,68.055l-6.829-1.308a1.607,1.607,0,0,1-1.275-1.879l1.308-6.829a1.607,1.607,0,0,1,1.879-1.275l6.829,1.308a1.607,1.607,0,0,1,1.275,1.879l-1.308,6.829a1.607,1.607,0,0,1-1.879,1.275" transform="translate(-112.162 -56.734)"/>
                </g>
              </g>
            </g>
            <path id="Trazado_769847" data-name="Trazado 769847" d="M119.681,67.938l-6.829-1.308a1.607,1.607,0,0,1-1.275-1.879l1.308-6.829a1.607,1.607,0,0,1,1.879-1.275l6.829,1.308a1.607,1.607,0,0,1,1.275,1.879l-1.308,6.829a1.607,1.607,0,0,1-1.879,1.275" transform="translate(169.031 85.794)" fill="#263238"/>
            <rect id="Rectángulo_363063" data-name="Rectángulo 363063" width="0.389" height="4.539" transform="translate(283.988 147.849) rotate(-79.17)" fill="#fff"/>
            <path id="Trazado_769848" data-name="Trazado 769848" d="M113.443,72.774l-6.832-1.308a1.605,1.605,0,0,1-1.273-1.879l1.305-6.829a1.611,1.611,0,0,1,1.881-1.275l6.827,1.308a1.61,1.61,0,0,1,1.278,1.879l-1.31,6.829a1.6,1.6,0,0,1-1.876,1.275" transform="translate(159.579 93.122)" fill="#455a64"/>
            <g id="Grupo_1028041" data-name="Grupo 1028041" transform="translate(264.887 154.577)" opacity="0.2">
              <g id="Grupo_1028040" data-name="Grupo 1028040">
                <g id="Grupo_1028039" data-name="Grupo 1028039" clip-path="url(#clip-path-10)">
                  <path id="Trazado_769849" data-name="Trazado 769849" d="M113.443,72.774l-6.832-1.308a1.605,1.605,0,0,1-1.273-1.879l1.305-6.829a1.611,1.611,0,0,1,1.881-1.275l6.827,1.308a1.61,1.61,0,0,1,1.278,1.879l-1.31,6.829a1.6,1.6,0,0,1-1.876,1.275" transform="translate(-105.308 -61.454)"/>
                </g>
              </g>
            </g>
            <path id="Trazado_769850" data-name="Trazado 769850" d="M112.83,72.657,106,71.349a1.607,1.607,0,0,1-1.275-1.879l1.308-6.829a1.607,1.607,0,0,1,1.879-1.275l6.829,1.308a1.607,1.607,0,0,1,1.275,1.879l-1.308,6.829a1.607,1.607,0,0,1-1.879,1.275" transform="translate(158.65 92.945)" fill="#263238"/>
            <path id="Trazado_769851" data-name="Trazado 769851" d="M119.181,73.873l-6.829-1.308a1.607,1.607,0,0,1-1.275-1.879l1.308-6.829a1.607,1.607,0,0,1,1.879-1.275l6.829,1.308a1.607,1.607,0,0,1,1.275,1.879L121.06,72.6a1.607,1.607,0,0,1-1.879,1.275" transform="translate(168.274 94.788)" fill="#ff725e"/>
            <g id="Grupo_1028044" data-name="Grupo 1028044" transform="translate(279.32 157.339)" opacity="0.4">
              <g id="Grupo_1028043" data-name="Grupo 1028043">
                <g id="Grupo_1028042" data-name="Grupo 1028042" clip-path="url(#clip-path-22)">
                  <path id="Trazado_769852" data-name="Trazado 769852" d="M119.181,73.873l-6.829-1.308a1.607,1.607,0,0,1-1.275-1.879l1.308-6.829a1.607,1.607,0,0,1,1.879-1.275l6.829,1.308a1.607,1.607,0,0,1,1.275,1.879L121.06,72.6a1.607,1.607,0,0,1-1.879,1.275" transform="translate(-111.046 -62.551)" fill="#9b6012"/>
                </g>
              </g>
            </g>
            <path id="Trazado_769853" data-name="Trazado 769853" d="M118.568,73.755l-6.829-1.308a1.607,1.607,0,0,1-1.275-1.879l1.308-6.829a1.607,1.607,0,0,1,1.879-1.275l6.829,1.308a1.607,1.607,0,0,1,1.275,1.879l-1.308,6.829a1.607,1.607,0,0,1-1.879,1.275" transform="translate(167.345 94.609)" fill="#f4a338"/>
            <rect id="Rectángulo_363066" data-name="Rectángulo 363066" width="0.388" height="4.539" transform="translate(281.293 161.933) rotate(-79.17)" fill="#fff"/>
            <rect id="Rectángulo_363067" data-name="Rectángulo 363067" width="0.388" height="4.539" transform="translate(280.968 163.63) rotate(-79.17)" fill="#fff"/>
            <path id="Trazado_769854" data-name="Trazado 769854" d="M115.1,73.271,94.794,69.385a1.93,1.93,0,0,1-1.532-2.259l1.233-6.447a1.932,1.932,0,0,1,2.259-1.534l20.309,3.889a1.926,1.926,0,0,1,1.532,2.256l-1.233,6.449a1.93,1.93,0,0,1-2.259,1.532" transform="translate(141.27 89.572)" fill="#263238"/>
            <path id="Trazado_769855" data-name="Trazado 769855" d="M97.963,62.895c.264-1.373,1.175-2,2.2-1.811s1.635,1.122,1.371,2.5-1.167,2.007-2.2,1.809-1.632-1.119-1.371-2.493m2.6.5c.181-.946-.078-1.4-.558-1.494s-.883.239-1.064,1.182.075,1.4.551,1.494.89-.236,1.072-1.182" transform="translate(148.355 92.51)" fill="#fff"/>
            <path id="Trazado_769856" data-name="Trazado 769856" d="M107.073,67.216l-.38-.078.923-4.445.38.078Z" transform="translate(161.676 95.002)" fill="#fff"/>
            <rect id="Rectángulo_363068" data-name="Rectángulo 363068" width="0.388" height="4.541" transform="matrix(0.188, -0.982, 0.982, 0.188, 266.753, 159.721)" fill="#fff"/>
            <path id="Trazado_769857" data-name="Trazado 769857" d="M108.832,35.363l-1.19,6.22-.294-.055,1.137-5.946-1.562-.3.05-.274Z" transform="translate(162.023 53.049)" fill="#263238"/>
            <path id="Trazado_769858" data-name="Trazado 769858" d="M112.076,41.856l-.055.274-4.213-.8.045-.214,3.179-2.173c.908-.619,1.155-1.041,1.25-1.547.158-.828-.317-1.471-1.4-1.678a2.333,2.333,0,0,0-2.01.39l-.166-.236a2.682,2.682,0,0,1,2.239-.428c1.19.229,1.831.986,1.635,1.99-.111.586-.395,1.067-1.371,1.728l-2.9,1.98Z" transform="translate(163.365 53.596)" fill="#263238"/>
            <path id="Trazado_769859" data-name="Trazado 769859" d="M114.184,40.912c-.2,1.031-1.066,1.62-2.435,1.358A2.851,2.851,0,0,1,109.754,41l.2-.184a2.625,2.625,0,0,0,1.839,1.182c1.19.226,1.924-.239,2.1-1.137s-.319-1.6-1.635-1.851l-.347-.068.043-.214,2.42-2.153-3.431-.656.053-.274,3.821.732-.04.211-2.43,2.161c1.456.279,2.04,1.129,1.841,2.168" transform="translate(166.314 54.006)" fill="#263238"/>
            <path id="Trazado_769860" data-name="Trazado 769860" d="M117.094,41.045l-1.351-.259-.345,1.8-.292-.055.342-1.8-3.572-.684.04-.214,4.246-3.554.347.068-4.191,3.509,3.182.609.3-1.582.294.055-.3,1.582,1.351.259Z" transform="translate(169.531 54.973)" fill="#263238"/>
            <path id="Trazado_769861" data-name="Trazado 769861" d="M114.953,39.106a1.852,1.852,0,0,1-.116.319l-.548,1.129-.231-.045.511-1.172a.3.3,0,0,1-.2-.345.3.3,0,0,1,.35-.236.3.3,0,0,1,.236.35" transform="translate(172.836 58.72)" fill="#263238"/>
            <path id="Trazado_769862" data-name="Trazado 769862" d="M120.062,41.612l-1.351-.259-.345,1.8-.292-.055.342-1.8-3.572-.684.04-.214,4.246-3.554.347.068-4.191,3.509,3.182.609.3-1.582.294.055-.3,1.582,1.351.259Z" transform="translate(174.028 55.834)" fill="#263238"/>
            <path id="Trazado_769863" data-name="Trazado 769863" d="M121.431,42.2c-.194,1.014-1.046,1.66-2.46,1.391a2.86,2.86,0,0,1-1.985-1.275l.209-.181a2.6,2.6,0,0,0,1.829,1.18c1.217.234,1.937-.292,2.105-1.172.184-.961-.277-1.637-2.055-1.977l-1.207-.231.89-2.87,3.207.614-.053.277-2.958-.568-.724,2.332.961.184c1.9.365,2.452,1.2,2.241,2.3" transform="translate(177.272 56.166)" fill="#263238"/>
          </g>
        </g>
        <rect id="Rectángulo_363070" data-name="Rectángulo 363070" width="172.076" height="114.749" transform="translate(1.004 10.086)" fill="#fafafa"/>
        <rect id="Rectángulo_363071" data-name="Rectángulo 363071" width="28.31" height="11.357" transform="translate(32.936 51.142)" fill="#4adbd1"/>
        <rect id="Rectángulo_363072" data-name="Rectángulo 363072" width="28.31" height="11.357" transform="translate(117.866 51.142)" fill="#4adbd1"/>
        <rect id="Rectángulo_363073" data-name="Rectángulo 363073" width="28.31" height="11.357" transform="translate(117.866 73.697)" fill="#4adbd1"/>
        <rect id="Rectángulo_363074" data-name="Rectángulo 363074" width="28.31" height="11.357" transform="translate(117.866 84.975)" fill="#4adbd1"/>
        <rect id="Rectángulo_363075" data-name="Rectángulo 363075" width="28.31" height="11.357" transform="translate(61.246 73.9)" fill="#5573c6"/>
        <rect id="Rectángulo_363076" data-name="Rectángulo 363076" width="28.31" height="11.357" transform="translate(89.511 85.395)" fill="#5573c6"/>
        <rect id="Rectángulo_363077" data-name="Rectángulo 363077" width="28.31" height="11.817" transform="translate(61.246 107.923)" fill="#ebebeb"/>
        <rect id="Rectángulo_363078" data-name="Rectángulo 363078" width="28.31" height="11.357" transform="translate(117.866 108.081)" fill="#4adbd1"/>
        <rect id="Rectángulo_363079" data-name="Rectángulo 363079" width="152.854" height="11.098" transform="translate(14.999 40.044)" fill="#e0e0e0"/>
        <rect id="Rectángulo_363080" data-name="Rectángulo 363080" width="26.798" height="79.935" transform="translate(6.137 40.044)" fill="#e0e0e0"/>
        <path id="Trazado_769864" data-name="Trazado 769864" d="M29.858,96.473H2.287V15.766H29.858Zm-26.8-.77H29.083V16.538H3.057Z" transform="translate(3.466 23.891)" fill="#e0e0e0"/>
        <rect id="Rectángulo_363081" data-name="Rectángulo 363081" width="172.076" height="13.017" transform="translate(1.004 10.086)" fill="#5573c6"/>
        <rect id="Rectángulo_363082" data-name="Rectángulo 363082" width="26.494" height="7.45" transform="translate(6.442 27.847)" fill="#ebebeb"/>
        <rect id="Rectángulo_363083" data-name="Rectángulo 363083" width="25.551" height="7.45" transform="translate(36.037 27.847)" fill="#ebebeb"/>
        <rect id="Rectángulo_363084" data-name="Rectángulo 363084" width="25.551" height="7.45" transform="translate(64.06 27.847)" fill="#ebebeb"/>
        <rect id="Rectángulo_363085" data-name="Rectángulo 363085" width="25.551" height="7.45" transform="translate(92.081 27.847)" fill="#ebebeb"/>
        <rect id="Rectángulo_363086" data-name="Rectángulo 363086" width="25.551" height="7.45" transform="translate(120.105 27.847)" fill="#ebebeb"/>
        <rect id="Rectángulo_363087" data-name="Rectángulo 363087" width="21.003" height="7.45" transform="translate(148.125 27.847)" fill="#ebebeb"/>
        <g id="Grupo_1028048" data-name="Grupo 1028048">
          <g id="Grupo_1028047" data-name="Grupo 1028047" clip-path="url(#clip-path)">
            <path id="Trazado_769865" data-name="Trazado 769865" d="M2.529,95.738s.272-.008.79-.013l2.312-.01c2.035-.005,5.041-.013,8.939-.025,7.8-.01,19.172-.028,33.494-.05,28.624-.023,69.028-.055,116.181-.091l-.191.189c0-24.648-.008-51.607-.01-79.686V16.04l.2.2c-62.476-.02-119.4-.038-161.716-.053l.148-.148C2.645,40.6,2.617,60.511,2.6,74.285c-.015,6.892-.028,12.247-.035,15.887-.008,1.816-.013,3.2-.018,4.143s-.015,1.424-.015,1.424-.01-.465-.015-1.393S2.5,92.033,2.5,90.23c-.008-3.632-.02-8.977-.035-15.854-.02-13.794-.048-33.733-.08-58.336v-.148h.148c42.315-.013,99.24-.033,161.716-.053h.2v.214c-.005,28.079-.01,55.038-.013,79.686v.189h-.189c-47.205-.035-87.652-.068-116.306-.091-14.3-.023-25.664-.04-33.454-.05-3.881-.013-6.872-.02-8.9-.025L3.3,95.751c-.511-.005-.767-.013-.767-.013" transform="translate(3.608 24.001)" fill="#263238"/>
            <path id="Trazado_769866" data-name="Trazado 769866" d="M164.277,20.453c0,.111-36.2.2-80.853.2-44.665,0-80.863-.091-80.863-.2s36.2-.2,80.863-.2c44.65,0,80.853.091,80.853.2" transform="translate(3.881 30.688)" fill="#263238"/>
            <path id="Trazado_769867" data-name="Trazado 769867" d="M164.277,24.968c0,.111-36.2.2-80.853.2-44.665,0-80.863-.091-80.863-.2s36.2-.2,80.863-.2c44.65,0,80.853.091,80.853.2" transform="translate(3.881 37.53)" fill="#263238"/>
            <path id="Trazado_769868" data-name="Trazado 769868" d="M164.277,29.483c0,.111-36.2.2-80.853.2-44.665,0-80.863-.091-80.863-.2s36.2-.2,80.863-.2c44.65,0,80.853.091,80.853.2" transform="translate(3.881 44.372)" fill="#263238"/>
            <path id="Trazado_769869" data-name="Trazado 769869" d="M164.277,34c0,.111-36.2.2-80.853.2-44.665,0-80.863-.091-80.863-.2s36.2-.2,80.863-.2c44.65,0,80.853.091,80.853.2" transform="translate(3.881 51.214)" fill="#263238"/>
            <path id="Trazado_769870" data-name="Trazado 769870" d="M164.277,38.513c0,.111-36.2.2-80.853.2-44.665,0-80.863-.091-80.863-.2s36.2-.2,80.863-.2c44.65,0,80.853.091,80.853.2" transform="translate(3.881 58.055)" fill="#263238"/>
            <path id="Trazado_769871" data-name="Trazado 769871" d="M164.277,43.028c0,.111-36.2.2-80.853.2-44.665,0-80.863-.091-80.863-.2s36.2-.2,80.863-.2c44.65,0,80.853.091,80.853.2" transform="translate(3.881 64.897)" fill="#263238"/>
            <path id="Trazado_769872" data-name="Trazado 769872" d="M13.215,95.586c-.111,0-.2-17.8-.2-39.742s.091-39.747.2-39.747.2,17.793.2,39.747-.091,39.742-.2,39.742" transform="translate(19.721 24.392)" fill="#263238"/>
            <path id="Trazado_769873" data-name="Trazado 769873" d="M24.47,95.348c-.111,0-.2-17.743-.2-39.624s.091-39.627.2-39.627.2,17.738.2,39.627-.091,39.624-.2,39.624" transform="translate(36.776 24.392)" fill="#263238"/>
            <path id="Trazado_769874" data-name="Trazado 769874" d="M35.725,95.586c-.111,0-.2-17.8-.2-39.742s.091-39.747.2-39.747.2,17.793.2,39.747-.091,39.742-.2,39.742" transform="translate(53.831 24.392)" fill="#263238"/>
            <path id="Trazado_769875" data-name="Trazado 769875" d="M46.98,95.586c-.111,0-.2-17.8-.2-39.742s.091-39.747.2-39.747.2,17.793.2,39.747-.091,39.742-.2,39.742" transform="translate(70.886 24.392)" fill="#263238"/>
            <path id="Trazado_769876" data-name="Trazado 769876" d="M58.235,95.586c-.111,0-.2-17.8-.2-39.742s.091-39.747.2-39.747.2,17.793.2,39.747-.091,39.742-.2,39.742" transform="translate(87.941 24.392)" fill="#263238"/>
            <path id="Trazado_769877" data-name="Trazado 769877" d="M6.376,7.615a1.667,1.667,0,0,1-1.643,1.69,1.691,1.691,0,0,1,0-3.381,1.667,1.667,0,0,1,1.643,1.69" transform="translate(4.687 8.978)" fill="#fff"/>
            <path id="Trazado_769878" data-name="Trazado 769878" d="M8.593,7.615A1.642,1.642,0,1,1,6.95,5.925a1.667,1.667,0,0,1,1.643,1.69" transform="translate(8.046 8.978)" fill="#fff"/>
            <path id="Trazado_769879" data-name="Trazado 769879" d="M10.81,7.615a1.642,1.642,0,1,1-1.643-1.69,1.667,1.667,0,0,1,1.643,1.69" transform="translate(11.406 8.978)" fill="#fff"/>
            <path id="Trazado_769880" data-name="Trazado 769880" d="M172.6,118.882c0-1.311-.063-44.843-.161-114.752l.161.161C125.22,4.3,65.388,4.316.533,4.331H.518l.2-.2C.714,45,.709,83.866.7,118.882L.518,118.7c50.664.035,93.658.068,124,.091,15.18.02,27.191.038,35.413.05,4.11.008,7.272.015,9.412.02l2.427.013c.546,0,.83.01.83.01s-.269.008-.807.01l-2.407.013c-2.133.005-5.282.013-9.377.02-8.213.013-20.208.03-35.371.05L.518,119.066H.334v-.184C.329,83.866.324,45,.319,4.13v-.2H.533c64.855.015,124.687.03,172.064.04h.161V4.13c-.1,69.909-.158,113.444-.161,114.752" transform="translate(0.483 5.954)" fill="#263238"/>
          </g>
        </g>
        <g id="Grupo_1028056" data-name="Grupo 1028056">
          <g id="Grupo_1028055" data-name="Grupo 1028055" clip-path="url(#clip-path)">
            <path id="Trazado_769881" data-name="Trazado 769881" d="M91.148,57.966,82.223,69.054,45,79.417l5.559,60.119c1.715,23.564,4.128,29.341,5.788,45.007v12.775H162.065L176.822,75.274,140.368,66.89l-7.843-8.924Z" transform="translate(68.196 87.838)" fill="#f4a338"/>
            <path id="Trazado_769882" data-name="Trazado 769882" d="M62.722,71.906l4.553,60.2,4.87,30.559,35.738-99.735L79.051,97.1Z" transform="translate(95.044 95.366)" fill="#fff"/>
            <path id="Trazado_769883" data-name="Trazado 769883" d="M66.262,169.121a2.225,2.225,0,0,1,.141-.292c.108-.206.257-.483.448-.84l1.753-3.2c1.547-2.795,3.77-6.8,6.515-11.752,5.544-9.92,13.185-23.6,21.627-38.7,4.186-7.453,8.172-14.559,11.789-21l.043.234q-2.66-2.249-5.131-4.336l-.189-.158.211-.126c2.588-1.524,5.033-2.968,7.312-4.311l-.075.153c-.8-7.118-1.451-12.931-1.907-16.986-.214-2-.382-3.567-.5-4.656-.05-.518-.091-.923-.118-1.217-.025-.274-.025-.418-.025-.418s.03.138.07.413c.04.292.093.694.163,1.212.136,1.087.332,2.649.584,4.646.485,4.052,1.185,9.858,2.04,16.971l.013.1-.088.05c-2.271,1.353-4.709,2.807-7.292,4.344l.025-.284,5.144,4.319.118.1-.075.136c-3.61,6.444-7.589,13.555-11.764,21.013-8.479,15.082-16.158,28.735-21.727,38.641-2.792,4.923-5.053,8.912-6.628,11.689-.782,1.363-1.394,2.427-1.819,3.169-.206.347-.365.619-.483.82a2.1,2.1,0,0,1-.176.272" transform="translate(100.409 93.213)" fill="#263238"/>
            <path id="Trazado_769884" data-name="Trazado 769884" d="M79.735,167.817a1.647,1.647,0,0,1-.1-.282c-.065-.209-.151-.488-.262-.843-.229-.762-.553-1.851-.971-3.242-.83-2.845-2.022-6.922-3.494-11.953-1.451-5.056-3.247-11.04-5.1-17.756-1.72-6.741-3.363-14.207-5.1-22.037-2.357-10.74-4.487-20.8-6.258-29.314l-.03-.146.141-.05,4.87-1.705-.02.294L57.482,77.64l-.111-.058.045-.116c1.864-4.679,3.366-8.452,4.412-11.075.518-1.285.926-2.286,1.21-2.988.136-.324.244-.581.324-.772a1.5,1.5,0,0,1,.121-.257,1.491,1.491,0,0,1-.086.272l-.287.785c-.269.709-.651,1.72-1.142,3.016-1.019,2.636-2.48,6.424-4.294,11.123l-.063-.174,5.946,3.1.324.169-.347.123-4.86,1.728.111-.2c1.806,8.5,3.957,18.558,6.313,29.3,1.736,7.828,3.371,15.3,5.068,22.029,1.819,6.691,3.594,12.71,5.008,17.771,1.421,5.043,2.571,9.136,3.373,11.988.385,1.4.687,2.5.9,3.265.1.357.169.639.224.85a1.617,1.617,0,0,1,.063.294" transform="translate(86.936 94.517)" fill="#263238"/>
            <path id="Trazado_769885" data-name="Trazado 769885" d="M84.326,66.493s-8.187,3.984-13.953,22.334c-4.191,13.331-21.234,59.244-21.234,59.244l-18.873-5.506s-13.895,17.3-10.748,23.33,26.137,18.5,26.137,18.5H72.582a22.121,22.121,0,0,0,7.7-11.218l15.394-51.843Z" transform="translate(28.874 100.759)" fill="#f4a338"/>
            <path id="Trazado_769886" data-name="Trazado 769886" d="M106.846,64.847A33.145,33.145,0,0,1,118.7,77.019c4.7,8.358,42.227,69.431,45.336,83.911,4.643,21.627-4.636,25.938-4.636,25.938H146.43l-32.1-.181-4.052-25.118,14.269-3.046L98.108,129.194l-1.753,2.991L91.183,90.32Z" transform="translate(138.172 98.265)" fill="#f4a338"/>
            <path id="Trazado_769887" data-name="Trazado 769887" d="M46.363,76.519c.111-.01,1.066,10.376,2.136,23.194s1.846,23.222,1.736,23.229-1.066-10.373-2.136-23.2-1.846-23.216-1.736-23.227" transform="translate(70.24 115.952)" fill="#263238"/>
            <path id="Trazado_769888" data-name="Trazado 769888" d="M100.881,71.9c.111.013-1.368,12.972-3.3,28.939s-3.589,28.909-3.7,28.9,1.368-12.969,3.3-28.944,3.589-28.9,3.7-28.891" transform="translate(142.248 108.949)" fill="#263238"/>
            <path id="Trazado_769889" data-name="Trazado 769889" d="M101.573,131.482a5.654,5.654,0,0,1,.365-.46c.231-.3.576-.755.963-1.373a22.544,22.544,0,0,0,2.483-5.617,27.5,27.5,0,0,0,.9-4.155,19.555,19.555,0,0,0,.209-4.845,11.394,11.394,0,0,0-1.788-4.973,13.511,13.511,0,0,0-4.067-3.982c-.116-.073-.239-.143-.345-.2l-.428-.234.465-.136a100.935,100.935,0,0,1,19.823-3.7c2.568-.219,4.651-.317,6.09-.362.719-.025,1.278-.03,1.655-.033a2.917,2.917,0,0,1,.579.018,3.236,3.236,0,0,1-.574.063l-1.653.108c-1.436.091-3.511.231-6.072.485a107.909,107.909,0,0,0-19.738,3.806l.038-.37c.123.065.244.138.37.214a13.806,13.806,0,0,1,4.186,4.11,11.747,11.747,0,0,1,1.829,5.146,19.715,19.715,0,0,1-.249,4.933,26.949,26.949,0,0,1-.953,4.188,21.359,21.359,0,0,1-2.623,5.622A12.683,12.683,0,0,1,102,131.072a2.18,2.18,0,0,1-.425.41" transform="translate(151.321 153.671)" fill="#263238"/>
            <path id="Trazado_769890" data-name="Trazado 769890" d="M66.42,127.281c-.111,0-.2-5.172-.2-11.548s.091-11.55.2-11.55.2,5.172.2,11.55-.091,11.548-.2,11.548" transform="translate(100.344 157.872)" fill="#263238"/>
            <path id="Trazado_769891" data-name="Trazado 769891" d="M109.633,97.844c-.008-.008-.015-.2-.025-.548-.005-.38-.015-.89-.028-1.542-.015-1.361-.038-3.3-.065-5.732l.118.118c-7.209.02-18.847.05-31.982.083.091-.091-.2.2.2-.2v3.969q0,1.958,0,3.853l-.2-.2,22.764.088c2.842.025,5.129.043,6.741.055l1.826.028.48.013a1.037,1.037,0,0,1,.171.013,5.209,5.209,0,0,1-.6.025l-1.783.028c-1.6.013-3.874.03-6.7.055l-22.9.088-.2,0v-.2q0-1.894,0-3.853V90.022c.4-.4.111-.111.2-.2,13.135.035,24.773.065,31.982.083h.121l0,.118c-.028,2.468-.05,4.427-.065,5.8q-.019.958-.028,1.517a4.19,4.19,0,0,1-.025.5" transform="translate(117.361 136.081)" fill="#263238"/>
            <path id="Trazado_769892" data-name="Trazado 769892" d="M48.948,87.208c-.108.023-1.157-4.44-2.342-9.963s-2.058-10.026-1.949-10.051,1.157,4.44,2.342,9.966,2.058,10.026,1.949,10.049" transform="translate(67.656 101.82)" fill="#263238"/>
            <g id="Grupo_1028051" data-name="Grupo 1028051" transform="translate(168.443 177.985)" opacity="0.3">
              <g id="Grupo_1028050" data-name="Grupo 1028050">
                <g id="Grupo_1028049" data-name="Grupo 1028049" clip-path="url(#clip-path-25)">
                  <path id="Trazado_769893" data-name="Trazado 769893" d="M66.966,151.948l45.648-70.014-6.588-6.364,3.765-4.809-7.3,4.326,5.139,4.326Z" transform="translate(-66.966 -70.76)"/>
                </g>
              </g>
            </g>
            <g id="Grupo_1028054" data-name="Grupo 1028054" transform="translate(55.679 261.521)" opacity="0.3">
              <g id="Grupo_1028053" data-name="Grupo 1028053">
                <g id="Grupo_1028052" data-name="Grupo 1028052" clip-path="url(#clip-path-26)">
                  <path id="Trazado_769894" data-name="Trazado 769894" d="M22.136,103.971v3.889l51.813.164v-4.052Z" transform="translate(-22.136 -103.971)"/>
                </g>
              </g>
            </g>
            <path id="Trazado_769895" data-name="Trazado 769895" d="M47.393,88.249A7.675,7.675,0,0,0,54.6,85.027c-1.859.287-3.864.551-5.539-.3s-2.626-3.325-1.313-4.671c1.026-1.051,2.717-.87,4.18-.978a9.047,9.047,0,0,0,7.694-5.9c1.24-3.564.106-7.45-.34-11.2A30.824,30.824,0,0,1,72.194,33.518L95.659,19.953c8.509,10.891,11.163,25.571,9.4,39.282S97.478,85.83,90.488,97.755a45.808,45.808,0,0,1-7.081,9.742,18.116,18.116,0,0,1-10.547,5.41,10.873,10.873,0,0,1,1.738-9.82,23.677,23.677,0,0,1-17.451-6.251l5.031-3.856a18.37,18.37,0,0,1-14.785-4.731" transform="translate(71.427 30.235)" fill="#263238"/>
            <path id="Trazado_769896" data-name="Trazado 769896" d="M125.323,49.512C124.91,39.7,118.8,31.5,109.366,28.8L79.949,20.395C67.181,18.646,58.181,34.156,56.974,46.987,55.636,61.241,54.632,76.293,56,87c2.744,21.531,19.084,24.763,19.084,24.763,0-.03-.546,19.406-.714,25.664l14.964,31.288,29-40.021,7.066-78.921c.018-.365-.048.226-.068-.262" transform="translate(83.867 30.699)" fill="#af7e69"/>
            <path id="Trazado_769897" data-name="Trazado 769897" d="M58.245,39.391a2.749,2.749,0,0,0,2.566,2.855,2.629,2.629,0,0,0,2.908-2.392A2.752,2.752,0,0,0,61.158,37a2.631,2.631,0,0,0-2.913,2.392" transform="translate(88.253 56.05)" fill="#263238"/>
            <path id="Trazado_769898" data-name="Trazado 769898" d="M57.2,35.9c.329.37,2.46-1.107,5.416-1.009,2.956.055,5.078,1.645,5.41,1.293.164-.156-.166-.815-1.089-1.532a7.545,7.545,0,0,0-4.316-1.477,7.228,7.228,0,0,0-4.324,1.25c-.931.669-1.26,1.308-1.1,1.474" transform="translate(86.619 50.271)" fill="#263238"/>
            <path id="Trazado_769899" data-name="Trazado 769899" d="M68.186,39.391a2.75,2.75,0,0,0,2.563,2.855,2.633,2.633,0,0,0,2.908-2.392A2.752,2.752,0,0,0,71.1,37a2.629,2.629,0,0,0-2.91,2.392" transform="translate(103.316 56.05)" fill="#263238"/>
            <path id="Trazado_769900" data-name="Trazado 769900" d="M68.367,36.22c.332.37,2.463-1.107,5.418-1.009,2.953.055,5.078,1.645,5.408,1.293.163-.156-.161-.812-1.087-1.532A7.554,7.554,0,0,0,73.787,33.5a7.239,7.239,0,0,0-4.324,1.25c-.928.669-1.258,1.308-1.1,1.474" transform="translate(103.539 50.753)" fill="#263238"/>
            <path id="Trazado_769901" data-name="Trazado 769901" d="M68.9,58.524c.018-.166-1.809-.541-4.777-1.014-.752-.1-1.461-.274-1.575-.792a3.857,3.857,0,0,1,.573-2.224q1.151-2.705,2.41-5.68c3.353-8.092,5.805-14.755,5.478-14.886s-3.31,6.319-6.663,14.41q-1.211,2.992-2.317,5.717a4.365,4.365,0,0,0-.483,2.95,1.9,1.9,0,0,0,1.207,1.144,5.136,5.136,0,0,0,1.278.216c2.991.254,4.852.324,4.867.156" transform="translate(93.093 51.411)" fill="#263238"/>
            <path id="Trazado_769902" data-name="Trazado 769902" d="M91.914,53.929s-7.4,14.518-28.778,11.855l.138-5.041a54.008,54.008,0,0,0,28.64-6.814" transform="translate(95.672 81.72)" fill="#7c5142"/>
            <path id="Trazado_769903" data-name="Trazado 769903" d="M68.841,32.018c.267.812,3.23.523,6.686,1.046,3.469.458,6.236,1.557,6.716.85.216-.337-.246-1.109-1.353-1.922a11.769,11.769,0,0,0-10.212-1.446c-1.29.473-1.949,1.087-1.836,1.471" transform="translate(104.297 45.416)" fill="#263238"/>
            <path id="Trazado_769904" data-name="Trazado 769904" d="M57.705,32.427c.5.687,2.558.053,5.008.1,2.452-.043,4.51.591,5.011-.1.219-.335-.088-1.016-.973-1.68a7.242,7.242,0,0,0-8.072,0c-.888.662-1.192,1.346-.973,1.68" transform="translate(87.339 44.728)" fill="#263238"/>
            <path id="Trazado_769905" data-name="Trazado 769905" d="M73.4,47.84A3.86,3.86,0,0,0,69.5,44.8a4.035,4.035,0,0,0-3.164,2.118,4.957,4.957,0,0,0-.287,3.853l.055.279a4.4,4.4,0,0,0,4.915,1.195,4.11,4.11,0,0,0,2.385-4.4" transform="translate(99.689 67.87)" fill="#7c5142"/>
            <path id="Trazado_769906" data-name="Trazado 769906" d="M65.059,52.214c.01-.45,3-.221,5.315-2.611s2.241-5.594,2.661-5.584c.191-.028.523.755.455,2.1A7.469,7.469,0,0,1,71.438,50.8a6.507,6.507,0,0,1-4.442,2c-1.258.015-1.97-.375-1.937-.579" transform="translate(98.584 66.703)" fill="#263238"/>
            <path id="Trazado_769907" data-name="Trazado 769907" d="M122.032,25.71c-3.31-5.257-11.128-10.748-17.248-11.817-6.978-1.22-11.181-.023-15.769,4.165,0,0-3.572,3.446-6.917,4.095s-6.142.1-10.134,2.141c-5.453,2.79-7.843,10.079-10.368,15.658-3.142,6.932-7.614,13.314-9.661,20.643s-.958,16.335,5.217,20.782c-1.059-5.617-1.939-11.794.372-16.878a14.738,14.738,0,0,0,.375,6.082c1.157-3.3,2.374-6.7,4.769-9.246,2.259-2.4,5.38-3.836,7.709-6.173,3.418-3.431,4.993-8.66,9.146-11.15,4.321-2.588,9.787-1.3,14.825-1.273A28.4,28.4,0,0,0,116.436,32.1l-1.253-.106a35.159,35.159,0,0,0,6.849-6.281" transform="translate(77.27 20.366)" fill="#263238"/>
            <path id="Trazado_769908" data-name="Trazado 769908" d="M120.707,71.743c-1.924-6.3-5.3-12.071-7.413-18.312-2.058-6.08-2.908-12.577-5.642-18.382C103.977,27.237,97.108,17.118,86.4,17.676l-.732.641a22.869,22.869,0,0,0-10.791,1.29l-.163,8.343-2.05,1.806c.86,1.655,1.673,3.257,2.462,4.829a52.7,52.7,0,0,0,2.729,9.186,23.784,23.784,0,0,0,5.136,7.81c18.442,44.152,1.715,46.941,10.024,72.245l5.227-14.486a25.821,25.821,0,0,0,10.336-11.135l.921,4.59a26.618,26.618,0,0,0,7.2-16.445q1.2,2.2,2.4,4.407c3.793-5.388,3.532-12.715,1.607-19.016" transform="translate(110.11 26.752)" fill="#263238"/>
            <path id="Trazado_769909" data-name="Trazado 769909" d="M79.565,39.247c.287-.719,13.618-5.1,13.392,8.927C92.738,61.8,79.067,58.728,79.049,58.336s.516-19.089.516-19.089" transform="translate(119.785 57.636)" fill="#af7e69"/>
            <path id="Trazado_769910" data-name="Trazado 769910" d="M80.768,50.552c.06-.043.234.171.631.362a2.372,2.372,0,0,0,1.776.07c1.449-.5,2.7-2.762,2.817-5.217a7.828,7.828,0,0,0-.6-3.413A2.749,2.749,0,0,0,83.643,40.5a1.209,1.209,0,0,0-1.414.624c-.189.377-.108.651-.181.674-.04.033-.289-.234-.169-.795a1.522,1.522,0,0,1,.553-.843,1.776,1.776,0,0,1,1.318-.322,3.334,3.334,0,0,1,2.44,2.158,8.063,8.063,0,0,1,.752,3.816c-.141,2.744-1.6,5.287-3.577,5.818a2.548,2.548,0,0,1-2.166-.4c-.415-.345-.48-.651-.433-.674" transform="translate(122.37 60.339)" fill="#7c5142"/>
            <path id="Trazado_769911" data-name="Trazado 769911" d="M82.707,45.078a2.684,2.684,0,1,1-.641.184" transform="translate(121.91 68.265)" fill="#fff"/>
            <path id="Trazado_769912" data-name="Trazado 769912" d="M82.213,45.325a3.665,3.665,0,0,0-1.278,1.8,2.311,2.311,0,0,0,.473,2.153,2.382,2.382,0,0,0,4.226-1.215,2.311,2.311,0,0,0-.742-2.075,3.673,3.673,0,0,0-2.037-.843c-.008-.035.214-.136.644-.133a2.8,2.8,0,0,1,1.683.644A2.73,2.73,0,0,1,86.2,48.14a2.927,2.927,0,0,1-5.234,1.5,2.723,2.723,0,0,1-.453-2.651A2.788,2.788,0,0,1,81.6,45.554c.362-.231.6-.262.614-.229" transform="translate(121.763 68.202)" fill="#263238"/>
            <path id="Trazado_769913" data-name="Trazado 769913" d="M73.11,33.03c.272.108,1.529-4.51,5.327-8.8,3.735-4.341,8.142-6.213,8-6.467a7.636,7.636,0,0,0-2.875,1.152,22.1,22.1,0,0,0-9.7,11.11,7.626,7.626,0,0,0-.752,3" transform="translate(110.745 26.895)" fill="#455a64"/>
            <path id="Trazado_769914" data-name="Trazado 769914" d="M48.528,141.625,38.356,129.67s-7.139,0-10.7-3.388-10.175-6.6-7.5-12.67c0,0-3.2-3.745-.619-7.85l.086-1.072S11.593,101.3,13.914,97.2s6.779-2.319,6.779-2.319-8.768-5.924-10.351-7.548c-4.226-4.339.319-7.259,5.018-4.661,7.772,4.3,34.058,16.669,35.841,25.591v3.886s7.315,8.96,7.315,9.5-.533,14.453-9.988,19.984" transform="translate(13.133 123.785)" fill="#af7e69"/>
            <path id="Trazado_769915" data-name="Trazado 769915" d="M4.074,70.29c-.322-.4,39.913,64.453,39.913,64.453l1.826,21.76H108.6l-5.826-24.771S91.922,102.637,92.045,102.3c.239-.662-20.314-32.994-20.314-32.994Z" transform="translate(6.171 105.018)" fill="#fff"/>
            <path id="Trazado_769916" data-name="Trazado 769916" d="M4.073,70.388s.423-.02,1.23-.04l3.577-.075c3.142-.055,7.742-.136,13.628-.241,11.772-.189,28.672-.46,49.22-.792h.091l.05.075C77.247,77.8,83.163,87.09,89.29,97.132c.762,1.26,1.527,2.528,2.264,3.831.184.33.365.657.533,1a2.237,2.237,0,0,1,.121.287.326.326,0,0,1,.023.138c-.015.1,0,.065.01.073l.005,0,.02.065.166.528q.37,1.06.742,2.133,1.551,4.271,3.147,8.655l6.64,17.914.005.013,0,.013c1.768,7.513,3.622,15.394,5.509,23.415.108.453.214.908.319,1.353l.058.249H108.6c-22.344-.008-43.6-.013-62.788-.018h-.171l-.013-.169q-.951-11.421-1.814-21.763l.025.076c-12-19.408-21.959-35.527-28.929-46.8-3.466-5.639-6.185-10.064-8.044-13.09-.916-1.507-1.62-2.664-2.1-3.454-.231-.387-.407-.682-.531-.89a2.035,2.035,0,0,1-.166-.307L44.13,134.751l.023.035,0,.04q.875,10.33,1.841,21.76l-.184-.171L108.6,156.4l-.2.246c-.1-.445-.211-.9-.317-1.356-1.887-8.021-3.74-15.9-5.506-23.415l.008.023q-3.388-9.15-6.633-17.919-1.588-4.388-3.142-8.66c-.246-.717-.5-1.431-.742-2.143l-.171-.548-.02-.068a.8.8,0,0,1-.018-.138l0-.068c-.143-.06.2.048.121.02a.324.324,0,0,0-.108-.018c-.053.008-.013.033-.023.028l-.01-.025a1.662,1.662,0,0,0-.1-.231c-.158-.327-.342-.657-.521-.978-.732-1.3-1.5-2.566-2.254-3.823C82.859,87.284,76.955,77.98,71.595,69.491l.138.075c-20.573.269-37.5.488-49.285.641l-13.605.156-3.559.03c-.8.005-1.21-.005-1.21-.005" transform="translate(6.172 104.92)" fill="#263238"/>
            <path id="Trazado_769917" data-name="Trazado 769917" d="M70,83.652a3.02,3.02,0,0,1-.561.025l-1.607-.008-5.906-.111c-4.985-.116-11.872-.3-19.479-.428s-14.5-.108-19.481.05c-2.49.068-4.5.171-5.9.249q-1,.06-1.6.093a2.756,2.756,0,0,1-.563.005,3.148,3.148,0,0,1,.556-.086l1.6-.169c1.391-.126,3.406-.274,5.9-.377,4.988-.231,11.882-.282,19.5-.166s14.5.357,19.484.543c2.457.1,4.462.181,5.9.239.664.035,1.2.06,1.6.083a2.79,2.79,0,0,1,.558.055" transform="translate(22.592 125.274)" fill="#263238"/>
            <path id="Trazado_769918" data-name="Trazado 769918" d="M63.749,97.4c-.013.111-8.894-.86-19.831-2.166s-19.8-2.455-19.788-2.566,8.892.86,19.836,2.166,19.8,2.455,19.783,2.566" transform="translate(36.565 140.408)" fill="#263238"/>
            <path id="Trazado_769919" data-name="Trazado 769919" d="M16.88,101.983l11.749-.747a5.1,5.1,0,0,0,3.451-1.1c1.072-1.107.548-3.62-.8-4.362L17.816,92.528" transform="translate(25.579 140.21)" fill="#af7e69"/>
            <path id="Trazado_769920" data-name="Trazado 769920" d="M17.816,92.531a6.149,6.149,0,0,1,1.041.179c.727.161,1.683.37,2.842.626,2.475.579,5.82,1.358,9.624,2.249l.028.005.02.013A2.784,2.784,0,0,1,32.5,96.9a3.829,3.829,0,0,1,.35,1.715,2.448,2.448,0,0,1-.694,1.723,3.472,3.472,0,0,1-1.58.83,19.46,19.46,0,0,1-3.235.335l-5.441.3c-1.5.07-2.737.126-3.672.171a8.815,8.815,0,0,1-1.348.008,8.481,8.481,0,0,1,1.338-.163c.933-.075,2.168-.176,3.665-.3,1.567-.111,3.406-.244,5.436-.387a19.789,19.789,0,0,0,3.157-.345,3.116,3.116,0,0,0,1.4-.737,2.048,2.048,0,0,0,.571-1.449,3.026,3.026,0,0,0-1.265-2.656l.048.018-9.591-2.382c-1.15-.3-2.093-.551-2.815-.74a6.171,6.171,0,0,1-1.009-.314" transform="translate(25.579 140.208)" fill="#7c5142"/>
            <path id="Trazado_769921" data-name="Trazado 769921" d="M25.312,90.852a57.935,57.935,0,0,1,10.436,2.94,2.315,2.315,0,0,1,1.542,2.694,1.859,1.859,0,0,1-.772,1.434,3.68,3.68,0,0,1-1.648.455,42.55,42.55,0,0,1-9.986-.606c-3.363-.465-8.026,0-9.976,1.029" transform="translate(22.592 137.671)" fill="#af7e69"/>
            <path id="Trazado_769922" data-name="Trazado 769922" d="M14.909,98.8a1.4,1.4,0,0,1,.332-.2,7.9,7.9,0,0,1,1.034-.4,19.147,19.147,0,0,1,4.009-.692,24.843,24.843,0,0,1,2.815-.058,30.827,30.827,0,0,1,3.21.33,42.81,42.81,0,0,0,7.3.483,15.763,15.763,0,0,0,1.894-.174,1.776,1.776,0,0,0,1.381-.868,2.4,2.4,0,0,0-.626-2.958,7.636,7.636,0,0,0-1.471-.634q-.755-.272-1.464-.526c-.948-.327-1.841-.614-2.659-.858-1.635-.488-2.978-.815-3.909-1.034a12.9,12.9,0,0,1-1.444-.357,1.349,1.349,0,0,1,.385.03c.252.03.619.091,1.089.174.943.174,2.3.46,3.957.916.828.226,1.728.5,2.686.815l1.479.506a7.859,7.859,0,0,1,1.559.664,2.29,2.29,0,0,1,.994,1.542,3.272,3.272,0,0,1-.224,1.9,1.708,1.708,0,0,1-.707.75,3.186,3.186,0,0,1-.948.335,15.991,15.991,0,0,1-1.957.184,41.159,41.159,0,0,1-7.365-.518c-1.127-.158-2.178-.324-3.177-.365a26.088,26.088,0,0,0-2.779.01,21.465,21.465,0,0,0-3.987.558c-.923.231-1.391.483-1.409.45" transform="translate(22.592 137.668)" fill="#7c5142"/>
            <path id="Trazado_769923" data-name="Trazado 769923" d="M14.565,86.982q4.629,2.584,9.261,5.166a9.432,9.432,0,0,1,3.7,2.983c.835,1.368.767,3.428-.576,4.3-1.051.689-2.437.43-3.655.121a89.531,89.531,0,0,1-10.185-3.237" transform="translate(19.86 131.806)" fill="#af7e69"/>
            <path id="Trazado_769924" data-name="Trazado 769924" d="M13.106,96.321a9.675,9.675,0,0,1,1.3.4c.83.279,2.032.684,3.526,1.144s3.285.978,5.292,1.479a5.7,5.7,0,0,0,3.091.174,2.149,2.149,0,0,0,1.192-.973,2.939,2.939,0,0,0,.352-1.595,4.086,4.086,0,0,0-1.487-2.88A14.484,14.484,0,0,0,23.713,92.3c-1.788-1.014-3.406-1.934-4.787-2.719l-3.21-1.864a9.3,9.3,0,0,1-1.152-.729,8.619,8.619,0,0,1,1.227.594l3.272,1.753c1.393.762,3.026,1.655,4.829,2.644a14.456,14.456,0,0,1,2.744,1.809,5.472,5.472,0,0,1,1.124,1.376,3.989,3.989,0,0,1,.5,1.778,3.335,3.335,0,0,1-.407,1.811A2.541,2.541,0,0,1,26.442,99.9a5.991,5.991,0,0,1-3.31-.186c-2.007-.523-3.8-1.069-5.287-1.567s-2.676-.946-3.491-1.268c-.407-.166-.722-.294-.933-.39a1.229,1.229,0,0,1-.314-.163" transform="translate(19.86 131.807)" fill="#7c5142"/>
            <path id="Trazado_769925" data-name="Trazado 769925" d="M114.631,126.425l-4.4-1.245-13.985-1.305-3.911-5.2,2.724-11.218,17.479-4.158c8.072,5.742,5.893,15.311,2.1,23.126" transform="translate(139.915 156.532)" fill="#af7e69"/>
            <path id="Trazado_769926" data-name="Trazado 769926" d="M90.847,101.345a12.026,12.026,0,0,0-4.91.385,6.524,6.524,0,0,0-3.889,5.094c-.45,3.6-.594,6.515-.85,9.865a3.15,3.15,0,0,0,.913,2.367c1.1,1.124,3.1.747,4.236-.34a10.5,10.5,0,0,0,2.2-4.123c.546-1.474,1.127-5,1.98-5.31,2.435-.878,5.75,3.315,7.581,1.258l3.32-8.1c-5.146-.5-5.431-.591-10.577-1.094" transform="translate(123.029 153.448)" fill="#af7e69"/>
            <path id="Trazado_769927" data-name="Trazado 769927" d="M90.958,101.383a.639.639,0,0,1,.189,0c.148.008.33.02.551.033l2.108.174c1.866.181,4.5.433,7.745.745l.194.02-.073.181c-.956,2.359-2.07,5.106-3.288,8.114l-.013.028-.02.025a1.893,1.893,0,0,1-1.595.621,5.039,5.039,0,0,1-1.643-.5A17.833,17.833,0,0,0,92,109.473l-.41-.065-.41,0a3.054,3.054,0,0,0-.395.08c-.141.025-.174.08-.272.181a5.455,5.455,0,0,0-.687,1.582c-.365,1.155-.6,2.374-1.034,3.584a14.548,14.548,0,0,1-1.431,3.147,4.9,4.9,0,0,1-1.19,1.263,4,4,0,0,1-1.585.664,3.067,3.067,0,0,1-1.7-.146,2.74,2.74,0,0,1-1.253-1.117,3.315,3.315,0,0,1-.513-1.547c-.013-.566.065-1.029.091-1.539.151-1.995.282-3.891.455-5.665.086-.885.179-1.741.282-2.561a6.932,6.932,0,0,1,.606-2.329,6.23,6.23,0,0,1,5.778-3.753,15.037,15.037,0,0,1,1.954.035c.221.02.39.04.5.058a.51.51,0,0,1,.171.035,5.546,5.546,0,0,1-.679-.01,17.443,17.443,0,0,0-1.939.038,6.628,6.628,0,0,0-2.905.78,6.459,6.459,0,0,0-2.623,2.935,6.61,6.61,0,0,0-.556,2.249Q82.111,108.6,82,109.93c-.161,1.768-.279,3.662-.418,5.657-.023.488-.1,1.031-.083,1.489a2.919,2.919,0,0,0,.46,1.368,2.367,2.367,0,0,0,1.077.961,2.661,2.661,0,0,0,1.482.118,3.823,3.823,0,0,0,2.515-1.763,14.238,14.238,0,0,0,1.383-3.061c.42-1.16.659-2.39,1.029-3.564a5.741,5.741,0,0,1,.765-1.72,1.036,1.036,0,0,1,.2-.189.668.668,0,0,1,.257-.116,4.121,4.121,0,0,1,.478-.1c.161,0,.322-.008.478,0l.463.073a17.972,17.972,0,0,1,3.189,1.393,4.705,4.705,0,0,0,1.512.468,1.521,1.521,0,0,0,1.3-.49l-.033.05c1.243-3,2.377-5.735,3.353-8.087l.121.2c-3.267-.332-5.906-.662-7.732-.873-.883-.106-1.585-.191-2.1-.254-.219-.028-.4-.053-.546-.073a.67.67,0,0,1-.184-.04" transform="translate(122.918 153.41)" fill="#7c5142"/>
            <path id="Trazado_769928" data-name="Trazado 769928" d="M117.409,104.326s-1.733-.541-4.08,1.167c0,0-.875-3.859-3.957-4.618-2.236-.548-5.081,1.746-5.081,1.746s-1.929-3.861-7.078-2.254c-4.256,1.331-13.188,27.739-13.958,29.51-.878,2.025,2.734,4.565,4.726,2.52,2.088-2.146,9.105-13.875,9.105-13.875l-4.666,16.45a3.177,3.177,0,0,0,.045,1.625,3.431,3.431,0,0,0,6.122.483c2.9-3.924,5.846-12.006,5.846-12.006l2.845-6.205s-5.31,16.438-3.381,17.934,4.407.918,6.178-2.943,8.2-16.083,8.2-16.083l3.056-1.61-1.127,3.861s-5.851,3.056-4.533,5.79,4.077,1.922,6.786.644,5.068-7.629,6.517-10.24c1.293-2.337,1.419-9.209-4.133-9.47a4.233,4.233,0,0,0-3.177,1.265l-.277.277s-.908-3.423-3.984-3.969" transform="translate(125.955 151.496)" fill="#af7e69"/>
            <path id="Trazado_769929" data-name="Trazado 769929" d="M117.507,104.392s.123.02.367.073a2.325,2.325,0,0,1,.448.136,3.5,3.5,0,0,1,.594.272,5.95,5.95,0,0,1,2.636,3.474l-.106-.03a4.564,4.564,0,0,1,2.845-1.552,5.162,5.162,0,0,1,3.768,1.152,6.2,6.2,0,0,1,1.834,4.236,9.768,9.768,0,0,1-.164,2.591,6.3,6.3,0,0,1-.41,1.3c-.191.435-.423.812-.621,1.24-.822,1.675-1.615,3.486-2.629,5.3a17.549,17.549,0,0,1-1.771,2.656,6.431,6.431,0,0,1-1.217,1.144,10.2,10.2,0,0,1-1.527.747,7.483,7.483,0,0,1-3.413.7,2.892,2.892,0,0,1-1.675-.742,3.492,3.492,0,0,1-.6-.722l-.229-.41c-.058-.151-.106-.309-.156-.463a2.646,2.646,0,0,1,.375-1.864,6.574,6.574,0,0,1,1.22-1.466,15.893,15.893,0,0,1,3.152-2.221l-.083.1c.345-1.187.732-2.513,1.122-3.861l.244.2L118.458,118l.073-.073q-2.286,4.407-4.731,9.128-1.192,2.366-2.422,4.807-.592,1.23-1.195,2.478a8.5,8.5,0,0,1-1.615,2.332,3.666,3.666,0,0,1-2.654,1.15,3.362,3.362,0,0,1-1.439-.413,3.608,3.608,0,0,1-.629-.42,1.34,1.34,0,0,1-.37-.734,9.683,9.683,0,0,1,.055-2.943c.131-.966.309-1.927.511-2.888.825-3.833,1.927-7.672,3.147-11.545l.37.143c-.9,1.962-1.866,4.075-2.845,6.205l.008-.015c-.649,1.743-1.409,3.587-2.231,5.418-.611,1.351-1.258,2.679-1.97,3.969q-.536.962-1.132,1.892a7.516,7.516,0,0,1-1.429,1.715,3.536,3.536,0,0,1-2.1.815,3.789,3.789,0,0,1-2.148-.649,3.2,3.2,0,0,1-1.368-1.771,3.326,3.326,0,0,1-.091-1.124,5.334,5.334,0,0,1,.241-1.066c1.547-5.446,3.054-10.751,4.507-15.872l.35.151c-1.786,2.963-3.567,5.846-5.365,8.623-.9,1.386-1.806,2.747-2.767,4.05a5.913,5.913,0,0,1-1.731,1.751,2.894,2.894,0,0,1-2.44.02,3.492,3.492,0,0,1-1.781-1.622,2.162,2.162,0,0,1-.191-1.227c.111-.433.264-.742.392-1.109q.785-2.143,1.547-4.218c1.024-2.764,2.035-5.431,3.056-7.979s2.04-4.98,3.086-7.277a57.346,57.346,0,0,1,3.33-6.4,10.186,10.186,0,0,1,2.125-2.6,2.352,2.352,0,0,1,.737-.4c.262-.065.518-.133.775-.2a8.209,8.209,0,0,1,1.557-.166,5.428,5.428,0,0,1,4.8,2.707l-.153-.033A9.443,9.443,0,0,1,107.7,100.9a3.846,3.846,0,0,1,1.705-.055,4.223,4.223,0,0,1,1.439.624,5.825,5.825,0,0,1,1.816,2.025,8.575,8.575,0,0,1,.825,2.055l-.083-.033a6.045,6.045,0,0,1,3.056-1.217,2.576,2.576,0,0,1,1.054.093s-.083-.018-.257-.038a3.854,3.854,0,0,0-.792,0,6.063,6.063,0,0,0-3,1.248l-.063.045-.02-.075a8.488,8.488,0,0,0-.835-2.012,5.753,5.753,0,0,0-1.788-1.962,4.143,4.143,0,0,0-1.388-.589,3.7,3.7,0,0,0-1.627.065,9.353,9.353,0,0,0-3.285,1.69l-.093.073-.06-.106a5.212,5.212,0,0,0-4.618-2.563,7.94,7.94,0,0,0-1.507.166c-.249.065-.5.131-.752.2a2.068,2.068,0,0,0-.662.36,9.974,9.974,0,0,0-2.05,2.538,57.37,57.37,0,0,0-3.29,6.386c-1.036,2.294-2.05,4.724-3.059,7.274s-2.017,5.212-3.031,7.976q-.758,2.079-1.539,4.223c-.126.352-.3.737-.375,1.049a1.839,1.839,0,0,0,.166,1.016,3.143,3.143,0,0,0,1.6,1.446,2.537,2.537,0,0,0,2.141-.015,5.683,5.683,0,0,0,1.6-1.645c.948-1.293,1.849-2.654,2.747-4.037,1.791-2.772,3.567-5.654,5.348-8.615l.742-1.233-.392,1.383c-1.449,5.119-2.95,10.421-4.492,15.867a5.3,5.3,0,0,0-.231,1,3,3,0,0,0,.08.991,2.826,2.826,0,0,0,1.2,1.537,3.387,3.387,0,0,0,1.914.581,3.129,3.129,0,0,0,1.864-.727,7.218,7.218,0,0,0,1.346-1.625q.585-.909,1.117-1.866c.7-1.275,1.343-2.6,1.952-3.936.82-1.821,1.577-3.662,2.221-5.393l0-.008,0-.008c.978-2.128,1.947-4.241,2.847-6.2l.372.146c-1.215,3.856-2.319,7.694-3.142,11.505-.2.953-.38,1.9-.508,2.855a9.414,9.414,0,0,0-.065,2.8,1.006,1.006,0,0,0,.247.531,3.188,3.188,0,0,0,.556.37,2.989,2.989,0,0,0,1.273.372,3.3,3.3,0,0,0,2.374-1.041c1.31-1.273,1.884-3.094,2.737-4.7l2.435-4.809q2.449-4.709,4.749-9.123l.025-.048.048-.025,3.059-1.6.355-.186-.113.385c-.395,1.346-.782,2.674-1.129,3.859l-.02.065-.063.035A15.706,15.706,0,0,0,117.3,122.4a6.285,6.285,0,0,0-1.165,1.391,2.329,2.329,0,0,0-.345,1.637,2.824,2.824,0,0,0,2.385,2.105,7.178,7.178,0,0,0,3.27-.674,9.7,9.7,0,0,0,1.479-.714,6.113,6.113,0,0,0,1.162-1.089,17.187,17.187,0,0,0,1.753-2.606c1.014-1.793,1.809-3.6,2.644-5.277.2-.418.45-.83.624-1.23a6.05,6.05,0,0,0,.4-1.253,9.506,9.506,0,0,0,.174-2.528,6,6,0,0,0-1.743-4.11,5.008,5.008,0,0,0-3.625-1.139,4.435,4.435,0,0,0-2.774,1.489l-.073.078-.033-.108a5.229,5.229,0,0,0-3.924-3.984" transform="translate(125.856 151.429)" fill="#7c5142"/>
            <path id="Trazado_769930" data-name="Trazado 769930" d="M96.062,104.294a19.152,19.152,0,0,1-1.471,5.146c-.533,1.381-1.061,2.608-1.449,3.494a6.438,6.438,0,0,1-.7,1.4,33.381,33.381,0,0,1,1.773-5.041c.531-1.373.986-2.623,1.3-3.534a7.677,7.677,0,0,1,.548-1.469" transform="translate(140.064 158.04)" fill="#7c5142"/>
            <path id="Trazado_769931" data-name="Trazado 769931" d="M92.71,103.636c.106.053-.875,2.211-1.957,4.925a32.784,32.784,0,0,1-2.128,4.862,6.293,6.293,0,0,1,.445-1.494c.317-.906.762-2.156,1.308-3.519s1.1-2.571,1.539-3.428a5.717,5.717,0,0,1,.792-1.346" transform="translate(134.283 157.042)" fill="#7c5142"/>
          </g>
        </g>
      </g>
    </g>
  </g>
</svg>
