<svg xmlns="http://www.w3.org/2000/svg" xmlns:xlink="http://www.w3.org/1999/xlink" width="401" height="391" viewBox="0 0 401 391">
  <defs>
    <clipPath id="clip-path">
      <rect id="Rectángulo_363260" data-name="Rectángulo 363260" width="384" height="229.414" fill="none"/>
    </clipPath>
    <clipPath id="clip-path-5">
      <rect id="Rectángulo_363244" data-name="Rectángulo 363244" width="56.274" height="49.351" fill="none"/>
    </clipPath>
    <clipPath id="clip-path-6">
      <rect id="Rectángulo_363245" data-name="Rectángulo 363245" width="21.518" height="14.622" fill="none"/>
    </clipPath>
    <clipPath id="clip-path-7">
      <rect id="Rectángulo_363246" data-name="Rectángulo 363246" width="3.311" height="25.362" fill="none"/>
    </clipPath>
    <clipPath id="clip-path-8">
      <rect id="Rectángulo_363247" data-name="Rectángulo 363247" width="26.056" height="53.31" fill="none"/>
    </clipPath>
    <clipPath id="clip-path-9">
      <rect id="Rectángulo_363248" data-name="Rectángulo 363248" width="15.674" height="84.106" fill="none"/>
    </clipPath>
    <clipPath id="clip-path-11">
      <rect id="Rectángulo_363250" data-name="Rectángulo 363250" width="12.767" height="23.321" fill="none"/>
    </clipPath>
    <clipPath id="clip-path-12">
      <rect id="Rectángulo_363251" data-name="Rectángulo 363251" width="6.259" height="6.508" fill="none"/>
    </clipPath>
    <clipPath id="clip-path-13">
      <rect id="Rectángulo_363252" data-name="Rectángulo 363252" width="12.692" height="5.6" fill="none"/>
    </clipPath>
    <clipPath id="clip-path-14">
      <rect id="Rectángulo_363253" data-name="Rectángulo 363253" width="13.683" height="6.035" fill="none"/>
    </clipPath>
    <clipPath id="clip-path-17">
      <rect id="Rectángulo_363256" data-name="Rectángulo 363256" width="21.654" height="15.078" fill="none"/>
    </clipPath>
  </defs>
  <g id="Grupo_1033335" data-name="Grupo 1033335" transform="translate(8086 -10801)">
    <rect id="Rectángulo_361886" data-name="Rectángulo 361886" width="401" height="391" transform="translate(-8086 10801)" fill="#efeeee"/>
    <g id="Grupo_1028300" data-name="Grupo 1028300" transform="translate(-8077 10882)">
      <g id="Grupo_1028299" data-name="Grupo 1028299" clip-path="url(#clip-path)">
        <g id="Grupo_1028252" data-name="Grupo 1028252">
          <g id="Grupo_1028251" data-name="Grupo 1028251" clip-path="url(#clip-path)">
            <path id="Trazado_770827" data-name="Trazado 770827" d="M110.27,16.525a8.478,8.478,0,0,0-3.182,1.536,4.428,4.428,0,0,1-1.042.606L101.9,1.767a2.322,2.322,0,0,0-2.806-1.7L81.511,4.381l.49,2a3.677,3.677,0,0,0,.593,1.279,7.68,7.68,0,0,1-4.718,12.019,7.751,7.751,0,0,1-8.847-5.184,7.618,7.618,0,0,1-.216-3.845,3.828,3.828,0,0,0-.021-1.661l-.344-1.4L50.62,11.9a2.848,2.848,0,0,0-2.087,3.444l3.828,15.678-1.215.3q-.207.052-.421.089a9.371,9.371,0,1,0,2.9,15.463,3.6,3.6,0,0,1,.718-.262l1.558-.382,4.292,17.492a2.848,2.848,0,0,0,3.444,2.088L112.3,53.868a2.319,2.319,0,0,0,1.7-2.8l-4.369-17.81a4.571,4.571,0,0,1,.951.106,8.5,8.5,0,0,0,5.219-.529,8.645,8.645,0,0,0-5.525-16.306" transform="translate(10.835 0)" fill="#4adbd1" opacity="0.41"/>
            <path id="Trazado_770828" data-name="Trazado 770828" d="M263.214,89.763a5.339,5.339,0,0,0,2.171.5,2.8,2.8,0,0,1,.751.113l-4.62,9.947a1.463,1.463,0,0,0,.71,1.942l10.35,4.807.546-1.175a2.3,2.3,0,0,0,.211-.863,4.841,4.841,0,0,1,7.057-4.052,4.886,4.886,0,0,1,2.31,6.036,4.809,4.809,0,0,1-1.409,1.978,2.414,2.414,0,0,0-.645.825l-.382.823,10.471,4.9a1.794,1.794,0,0,0,2.384-.871l4.295-9.22.715.332c.081.037.162.078.242.122a5.906,5.906,0,1,0,4.667-8.749,2.235,2.235,0,0,1-.455-.154l-.917-.426,4.782-10.3a1.8,1.8,0,0,0-.872-2.384l-28.64-13.3a1.463,1.463,0,0,0-1.942.71l-4.869,10.484a2.915,2.915,0,0,1-.427-.427,5.358,5.358,0,0,0-2.775-1.8,5.449,5.449,0,0,0-3.708,10.2" transform="translate(74.555 20.197)" fill="#4adbd1" opacity="0.41"/>
            <path id="Trazado_770829" data-name="Trazado 770829" d="M278.311,179.286a4.221,4.221,0,0,0,1.045-1.4,2.25,2.25,0,0,1,.319-.5l5.663,6.469a1.148,1.148,0,0,0,1.619.107l6.73-5.892-.668-.764a1.842,1.842,0,0,0-.553-.426,3.752,3.752,0,0,1-1.139-.883,3.8,3.8,0,1,1,6.505-3.564,1.852,1.852,0,0,0,.385.724l.47.535,6.837-5.948a1.407,1.407,0,0,0,.134-1.985l-5.247-6,.466-.408c.053-.045.107-.091.163-.134a4.632,4.632,0,1,0-4.788-6.122,1.868,1.868,0,0,1-.256.278l-.6.522-5.861-6.7a1.408,1.408,0,0,0-1.987-.133l-18.626,16.3a1.145,1.145,0,0,0-.105,1.617l5.967,6.817a2.215,2.215,0,0,1-.443.17,4.216,4.216,0,0,0-2.168,1.419,4.272,4.272,0,0,0,6.133,5.9" transform="translate(76.976 42.056)" fill="#f4a338" opacity="0.41"/>
            <path id="Trazado_770830" data-name="Trazado 770830" d="M237.863,28.065a6.686,6.686,0,0,0-2.78-.171,3.453,3.453,0,0,1-.95.014L237.8,14.69a1.829,1.829,0,0,0-1.274-2.252L222.774,8.623l-.434,1.561a2.9,2.9,0,0,0-.085,1.109,6.053,6.053,0,0,1-7.879,6.442,6.11,6.11,0,0,1-4.084-6.976,6,6,0,0,1,1.334-2.728,3,3,0,0,0,.627-1.15l.3-1.094L198.634,1.875a2.245,2.245,0,0,0-2.764,1.563l-3.415,12.255-.951-.264c-.107-.03-.216-.063-.323-.1a7.388,7.388,0,1,0-3.971,11.75,2.85,2.85,0,0,1,.594.1l1.218.338-3.8,13.682a2.246,2.246,0,0,0,1.563,2.765L224.85,54.523a1.828,1.828,0,0,0,2.25-1.274l3.866-13.931a3.644,3.644,0,0,1,.612.439,6.7,6.7,0,0,0,3.793,1.651,6.816,6.816,0,0,0,2.491-13.343" transform="translate(51.025 0.514)" fill="#f4a338" opacity="0.41"/>
            <path id="Trazado_770831" data-name="Trazado 770831" d="M4.132,138.167a6.266,6.266,0,0,0,2.587.383,3.325,3.325,0,0,1,.89.063l-4.5,12.075a1.717,1.717,0,0,0,1.01,2.208l12.563,4.68.531-1.426a2.707,2.707,0,0,0,.169-1.031,5.686,5.686,0,0,1,7.894-5.395,5.741,5.741,0,0,1,3.259,6.858,5.64,5.64,0,0,1-1.468,2.443,2.838,2.838,0,0,0-.679,1.025l-.372,1,12.713,4.781a2.108,2.108,0,0,0,2.712-1.24L45.627,153.4l.867.323c.1.036.2.077.295.121a6.939,6.939,0,1,0,4.662-10.675,2.617,2.617,0,0,1-.548-.139l-1.114-.414,4.655-12.5A2.109,2.109,0,0,0,53.2,127.4L18.439,114.456a1.717,1.717,0,0,0-2.208,1.01l-4.74,12.725a3.327,3.327,0,0,1-.538-.461,6.3,6.3,0,0,0-3.416-1.849,6.4,6.4,0,0,0-3.406,12.285" transform="translate(0 32.778)" fill="#aae6e2"/>
          </g>
        </g>
        <g id="Grupo_1028254" data-name="Grupo 1028254">
          <g id="Grupo_1028253" data-name="Grupo 1028253" clip-path="url(#clip-path)">
            <path id="Trazado_770832" data-name="Trazado 770832" d="M176.877,128.622a16.631,16.631,0,0,1,8.381,1.835,9.335,9.335,0,0,0,3.8.932l3.4-.077.04-37.744A6.475,6.475,0,0,0,186,87.11l-35.881.133V86.47a9.97,9.97,0,0,1,1.054-4.362,19.843,19.843,0,0,0,1.7-12.123,20.176,20.176,0,0,0-40.03,3.455,19.783,19.783,0,0,0,1.713,8.065,9.945,9.945,0,0,1,.9,4.043l.212,1.7H72.43A6.475,6.475,0,0,0,65.936,93.7V130.6H62.852a9.471,9.471,0,0,1-4.128-.995A19.465,19.465,0,0,0,47.041,128a19.092,19.092,0,0,0,3.269,37.879,18.732,18.732,0,0,0,7.631-1.621,9.429,9.429,0,0,1,3.824-.848h3.958l.078,45.143a5.273,5.273,0,0,0,5.289,5.256H186.828c2.921,0,5.208-3.667,5.208-6.57V166.2h-4.685a8.483,8.483,0,0,0-3.156.616,17.522,17.522,0,0,1-24.05-16.874c.353-8.767,7.924-20.713,16.732-21.325" transform="translate(8.986 15.307)" fill="#e0e0e0"/>
            <path id="Trazado_770833" data-name="Trazado 770833" d="M176.905,128.645s-.1.015-.306.041a8.407,8.407,0,0,0-.907.135,12.406,12.406,0,0,0-3.4,1.208c-2.823,1.441-6.528,4.732-9.319,10.228a24.4,24.4,0,0,0-2.743,9.8,18.008,18.008,0,0,0,.8,5.8,17.2,17.2,0,0,0,2.971,5.6,17.384,17.384,0,0,0,12.19,6.494,17.13,17.13,0,0,0,7.658-1.054,9.114,9.114,0,0,1,4.013-.758l4.2,0h.09v.09q.006,9.733.01,20.667,0,5.46.005,11.2,0,2.87,0,5.808,0,1.469,0,2.955a8.355,8.355,0,0,1-.1,1.5,8.023,8.023,0,0,1-.414,1.459,7.657,7.657,0,0,1-1.613,2.581,4.735,4.735,0,0,1-2.679,1.5,15.411,15.411,0,0,1-1.554.04h-4.664l-12.783,0-26.99.008-59.052.012h-7.8c-1.314-.012-2.605.027-3.946-.027a5.425,5.425,0,0,1-4.884-5.549l-.008-3.994q-.008-4-.014-8.047-.031-16.173-.06-32.922l.144.144H63.282c-.825.013-1.657-.037-2.465.057a9.472,9.472,0,0,0-2.379.609,24.342,24.342,0,0,1-2.353.91A18.978,18.978,0,0,1,36.946,160.5a18.411,18.411,0,0,1-4.332-6.553c-.152-.414-.338-.817-.462-1.24l-.349-1.28a19.208,19.208,0,0,1,9.866-21.734,19.189,19.189,0,0,1,6.029-1.911,19.858,19.858,0,0,1,6.288.148,19.336,19.336,0,0,1,3.03.821c.493.179.979.373,1.451.594a15.181,15.181,0,0,0,1.415.61c1.924.758,4.027.482,6.081.534l-.144.143q0-11.972,0-23.64,0-5.83,0-11.575a17.844,17.844,0,0,1,.115-2.887,6.365,6.365,0,0,1,1.143-2.656,6.607,6.607,0,0,1,4.912-2.719l43.706-.017-.13.148c-.073-.582-.143-1.14-.212-1.7v-.015a9.471,9.471,0,0,0-.517-3.048c-.162-.492-.377-.957-.583-1.445s-.378-.978-.54-1.474a19.944,19.944,0,0,1-.966-6.135l.084-1.543c.019-.256.017-.515.054-.768l.125-.76c.1-.5.139-1.016.275-1.509l.409-1.475a4.619,4.619,0,0,1,.246-.721l.28-.709a10.039,10.039,0,0,1,.615-1.387l.7-1.341L116.373,62a19.723,19.723,0,0,1,4.092-4.326l.576-.466.618-.408c.416-.265.82-.546,1.242-.8a21.626,21.626,0,0,1,2.65-1.253,20.2,20.2,0,0,1,5.621-1.347,19.727,19.727,0,0,1,2.864-.044c.475.031.951.04,1.422.09l1.4.214a20.423,20.423,0,0,1,9.845,4.921A20.05,20.05,0,0,1,152.832,77.8a21.126,21.126,0,0,1-1.7,4.725,10.309,10.309,0,0,0-.73,2.325,11.816,11.816,0,0,0-.152,2.412l-.1-.1,27.3-.087,6.209-.019,1.513-.005c.5-.005,1-.006,1.5.03a6.632,6.632,0,0,1,2.8.944,6.514,6.514,0,0,1,3.061,4.659,25.453,25.453,0,0,1,.067,2.755q0,1.357-.005,2.68c-.03,14.109-.053,25.325-.068,33.215v.042h-.042c-1.368.018-2.639.082-3.83.059a9.573,9.573,0,0,1-3.177-.834,21.3,21.3,0,0,0-4.691-1.664,14.554,14.554,0,0,0-2.918-.314c-.323,0-.564.008-.724.014s-.239.006-.239.006a9.419,9.419,0,0,1,.964-.042,14.128,14.128,0,0,1,2.927.295,21.01,21.01,0,0,1,4.708,1.647,9.527,9.527,0,0,0,3.156.814c1.18.023,2.459-.044,3.824-.066l-.041.041c0-7.89,0-19.106,0-33.215v-2.68a25.186,25.186,0,0,0-.068-2.733,6.35,6.35,0,0,0-2.99-4.539,6.425,6.425,0,0,0-2.732-.916c-.486-.035-.984-.033-1.487-.028s-1,.006-1.512.006l-6.209.027c-8.448.036-17.564.073-27.3.116h-.1v-.106a12.1,12.1,0,0,1,.153-2.45,10.565,10.565,0,0,1,.742-2.374,20.917,20.917,0,0,0,1.679-4.685,19.831,19.831,0,0,0-6.07-19,20.217,20.217,0,0,0-9.734-4.86l-1.388-.208c-.464-.05-.935-.058-1.405-.089a19.45,19.45,0,0,0-2.831.045,19.856,19.856,0,0,0-5.553,1.334,21.3,21.3,0,0,0-2.618,1.239c-.416.247-.816.526-1.225.787l-.611.4-.569.462a19.415,19.415,0,0,0-4.039,4.274l-.822,1.243-.694,1.324a9.88,9.88,0,0,0-.607,1.37l-.277.7a4.648,4.648,0,0,0-.242.713l-.4,1.456c-.135.485-.178.992-.271,1.489l-.122.75c-.037.251-.035.506-.053.759l-.082,1.523a19.713,19.713,0,0,0,.956,6.055c.161.49.337.977.534,1.455s.423.957.589,1.46a9.784,9.784,0,0,1,.533,3.132v-.017c.071.557.14,1.114.212,1.7l.019.148H115.7l-43.687.03a6.327,6.327,0,0,0-4.705,2.605,6.115,6.115,0,0,0-1.094,2.542,17.685,17.685,0,0,0-.109,2.837q0,5.744,0,11.575,0,11.663,0,23.64v.145H62.873a9.353,9.353,0,0,1-3.087-.551,15.461,15.461,0,0,1-1.438-.619c-.466-.219-.944-.41-1.429-.585a19.331,19.331,0,0,0-2.985-.809,19.587,19.587,0,0,0-6.2-.144A18.837,18.837,0,0,0,33.24,138.9a19.183,19.183,0,0,0-1.155,12.455l.344,1.261c.121.418.3.814.454,1.222a18.916,18.916,0,0,0,13.133,11.4A18.623,18.623,0,0,0,56,164.872a24.262,24.262,0,0,0,2.335-.9,9.751,9.751,0,0,1,2.451-.625c.847-.1,1.675-.045,2.5-.059H65.9v.144q.027,16.735.055,32.92.006,4.043.013,8.048,0,2,.006,3.994a5.148,5.148,0,0,0,4.631,5.273c1.285.051,2.617.014,3.919.026h7.8l59.052.012,26.99.008,12.783,0h4.664a15.209,15.209,0,0,0,1.522-.037,4.517,4.517,0,0,0,2.551-1.427,7.437,7.437,0,0,0,1.568-2.508,7.808,7.808,0,0,0,.4-1.418,8.161,8.161,0,0,0,.1-1.464q0-1.486,0-2.955,0-2.937,0-5.808,0-5.742,0-11.2.006-10.92.012-20.667l.089.089h-4.2a8.957,8.957,0,0,0-3.954.741,17.287,17.287,0,0,1-7.731,1.055,17.534,17.534,0,0,1-12.285-6.566,17.326,17.326,0,0,1-2.985-5.654,18.13,18.13,0,0,1-.794-5.844,24.461,24.461,0,0,1,2.775-9.835c2.813-5.506,6.541-8.8,9.384-10.229a12.24,12.24,0,0,1,3.413-1.188,8.131,8.131,0,0,1,.91-.125c.2-.019.308-.027.308-.027" transform="translate(8.958 15.283)" fill="#373f51"/>
            <path id="Trazado_770834" data-name="Trazado 770834" d="M301.033,122.567a19.34,19.34,0,0,0-7.879,1.673,10.146,10.146,0,0,1-2.638.776V85.339a5.288,5.288,0,0,0-5.289-5.288H243.944v4.685a8.427,8.427,0,0,0,.62,3.156,17.356,17.356,0,0,1,1.274,6.53,17.534,17.534,0,1,1-33.418-7.4,8.685,8.685,0,0,0,.857-3.69V80.051l-41.825-.133a6.494,6.494,0,0,0-6.494,6.494l-.04,36.8h-2.851c-.324,0-.652-.009-.98-.033a21.368,21.368,0,1,0-1.979,35.817,8.214,8.214,0,0,1,1.731-.189H164.5V199.87a6.5,6.5,0,0,0,6.5,6.5H285.227a5.288,5.288,0,0,0,5.289-5.288V159.262a10.547,10.547,0,0,1,2.048.75,19.377,19.377,0,0,0,11.845,1.665,19.713,19.713,0,0,0-3.376-39.11" transform="translate(36.444 22.909)" fill="#f5f5f5"/>
            <path id="Trazado_770835" data-name="Trazado 770835" d="M301.064,122.6s.418.014,1.242.054a9.85,9.85,0,0,1,1.527.147l.98.157a7.046,7.046,0,0,1,1.109.253l1.24.34c.428.144.868.333,1.336.512.233.094.474.18.714.286l.714.371a12.767,12.767,0,0,1,1.494.84,19.724,19.724,0,0,1,9.212,15.423c.021.477.063.96.066,1.448q-.039.731-.08,1.478c-.019.248-.014.5-.053.75s-.076.5-.113.753-.078.5-.117.759c-.059.251-.12.5-.179.755a19.709,19.709,0,0,1-2.505,5.955,19.569,19.569,0,0,1-11.308,8.476c-.614.188-1.257.287-1.891.435-.643.1-1.3.193-1.956.235a19.388,19.388,0,0,1-8.039-1.1,40.906,40.906,0,0,0-3.932-1.544l.112-.087q0,9.633.01,20.424,0,5.39.005,11.05,0,2.829,0,5.724V199.4q0,.731,0,1.468c.005.243-.014.5-.026.746a5.594,5.594,0,0,1-.126.742,5.415,5.415,0,0,1-4.147,4.036,7.487,7.487,0,0,1-1.53.112h-4.592l-12.574,0-26.528.008c-18.269,0-37.669.006-57.974.012H171.643a9.777,9.777,0,0,1-1.957-.135,7.262,7.262,0,0,1-1.855-.683,6.7,6.7,0,0,1-2.724-2.823,6.366,6.366,0,0,1-.62-1.891,11.032,11.032,0,0,1-.1-1.979v-7.895q0-15.864,0-32.295l.143.144h-2.639c-.45,0-.919-.008-1.368.008a8.217,8.217,0,0,0-1.354.179l.041-.017a21.419,21.419,0,0,1-8.693,2.746,21.475,21.475,0,0,1-22.309-14.425,22.028,22.028,0,0,1-1.176-6.808,22.994,22.994,0,0,1,1.036-6.8,21.493,21.493,0,0,1,3.125-6.082,23.222,23.222,0,0,1,2.217-2.6l1.263-1.148c.426-.376.9-.69,1.35-1.038a22.312,22.312,0,0,1,6.04-3.04,23.607,23.607,0,0,1,6.651-.991,21.408,21.408,0,0,1,12.49,4.125l-.075-.027c1.263.063,2.553.019,3.821.032l-.143.143q.014-11.79.027-23.273.008-5.74.014-11.392V87.162c-.005-.468,0-.942.04-1.423a6.645,6.645,0,0,1,5.466-5.825,18.047,18.047,0,0,1,2.793-.1l2.764.009,5.493.019,10.84.036,21.065.071h.129v3.076a8.735,8.735,0,0,1-.414,2.925,11.394,11.394,0,0,1-.549,1.364c-.2.437-.377.885-.542,1.336a17.171,17.171,0,0,0,.948,13.726,17.435,17.435,0,0,0,3.264,4.435,18.11,18.11,0,0,0,4.411,3.169,17.149,17.149,0,0,0,10.355,1.683,17.388,17.388,0,0,0,9.189-4.389,17.061,17.061,0,0,0,3.175-3.893,16.622,16.622,0,0,0,1.906-4.555,17.119,17.119,0,0,0-.206-9.525c-.216-.759-.569-1.467-.786-2.24a8.531,8.531,0,0,1-.319-2.351q0-2.337,0-4.631v-.1h.1l30.213.014,6.79,0,3.277,0c.539,0,1.073-.014,1.616.039a5.559,5.559,0,0,1,1.549.419,5.386,5.386,0,0,1,3.2,4.948q0,2.991,0,5.816c-.017,15.06-.03,26.519-.037,33.825l-.04-.035c1.859-.242,3.259-1.148,4.582-1.509a19.184,19.184,0,0,1,3.305-.744,18.833,18.833,0,0,1,1.984-.158c.437-.009.651,0,.651,0s-.214.005-.65.021-1.1.055-1.98.176a19.406,19.406,0,0,0-3.294.759c-1.314.364-2.712,1.276-4.588,1.527l-.041.005v-.04c-.008-7.306-.021-18.765-.037-33.825q0-2.824,0-5.816a5.23,5.23,0,0,0-3.114-4.8,5.434,5.434,0,0,0-1.5-.405c-.519-.049-1.058-.033-1.6-.035h-3.277l-6.79,0-30.213.015.1-.1q0,2.293,0,4.631A8.257,8.257,0,0,0,244.394,87c.207.744.565,1.463.785,2.235a17.323,17.323,0,0,1,.216,9.643,16.779,16.779,0,0,1-1.927,4.615,17.311,17.311,0,0,1-3.213,3.947,17.634,17.634,0,0,1-9.31,4.453,17.4,17.4,0,0,1-10.5-1.7,18.4,18.4,0,0,1-4.472-3.21,17.717,17.717,0,0,1-3.313-4.5,17.431,17.431,0,0,1-.969-13.927c.167-.457.345-.912.549-1.355a10.9,10.9,0,0,0,.538-1.337,8.492,8.492,0,0,0,.4-2.846q0-1.469,0-2.946l.13.13-21.065-.062L181.4,80.116l-5.493-.017-2.765-.008a17.831,17.831,0,0,0-2.746.094,6.37,6.37,0,0,0-5.235,5.583c-.036.454-.044.92-.037,1.393v1.411q-.006,5.653-.012,11.392-.012,11.476-.023,23.274v.144h-.143c-1.276-.014-2.539.032-3.842-.033h-.04l-.035-.026a21.117,21.117,0,0,0-12.322-4.068,23.342,23.342,0,0,0-6.561.978,21.979,21.979,0,0,0-5.958,3c-.441.344-.911.654-1.332,1.024l-1.245,1.132a22.715,22.715,0,0,0-2.187,2.564,21.148,21.148,0,0,0-3.083,6,22.644,22.644,0,0,0-1.022,6.706,21.342,21.342,0,0,0,6.149,14.759,21.391,21.391,0,0,0,17.02,6.189,21.166,21.166,0,0,0,8.576-2.708l.019-.012.022,0a8.465,8.465,0,0,1,1.4-.185c.475-.017.925,0,1.381-.008h2.783v.144q0,16.416,0,32.295v7.895a10.79,10.79,0,0,0,.094,1.933,6.065,6.065,0,0,0,.593,1.812,6.435,6.435,0,0,0,2.609,2.7,7.008,7.008,0,0,0,1.777.655,9.5,9.5,0,0,0,1.9.13h11.516l57.974.012,26.528.008,12.574,0h4.592a7.189,7.189,0,0,0,1.485-.107,5.194,5.194,0,0,0,3.978-3.868,5.711,5.711,0,0,0,.147-1.437V199.4q0-1.463,0-2.912,0-2.895,0-5.724,0-5.659.005-11.05,0-10.777.01-20.424v-.113l.112.026a41.013,41.013,0,0,1,3.947,1.553,19.224,19.224,0,0,0,7.968,1.1c.655-.04,1.3-.131,1.94-.23.629-.147,1.266-.243,1.876-.43a19.641,19.641,0,0,0,13.729-14.3c.06-.252.12-.5.179-.751q.06-.378.118-.754c.039-.25.076-.5.113-.746s.035-.5.054-.746q.042-.741.082-1.469c0-.484-.044-.964-.062-1.437a19.662,19.662,0,0,0-9.133-15.37,12.883,12.883,0,0,0-1.486-.841l-.71-.372c-.239-.105-.48-.193-.71-.288-.466-.179-.9-.371-1.329-.516l-1.235-.345A7.162,7.162,0,0,0,304.8,123l-.977-.163a10,10,0,0,0-1.525-.158c-.821-.049-1.239-.08-1.239-.08" transform="translate(36.414 22.878)" fill="#373f51"/>
          </g>
        </g>
        <g id="Grupo_1028271" data-name="Grupo 1028271">
          <g id="Grupo_1028270" data-name="Grupo 1028270" clip-path="url(#clip-path)">
            <path id="Trazado_770836" data-name="Trazado 770836" d="M154.1,118.907a6.138,6.138,0,0,1,3.531-.6c1.656.363,7.667,4.282,7.667,4.282l4.844-.9,2.854,13.677-18.9,7.852Z" transform="translate(44.173 33.888)" fill="#ae7461"/>
            <path id="Trazado_770837" data-name="Trazado 770837" d="M143.641,123.657s4.328-.547,5.9-1.33,5.307-4.1,6.091-4.041,3.618.6,3.618.6l-1.145,3.438s5.669,3.437,7.357,4.7,7,6.935,7.237,8.322a4.292,4.292,0,0,1-.844,3.558c-.664.543-3.076-.543-3.076-.543a3.016,3.016,0,0,1-.543,2.473c-.9,1.207-3.015.785-3.015.785s-.181,1.989-1.146,2.352-3.136-.724-3.136-.724-.655,1.688-1.444,1.87-3.02-1.145-3.02-1.145-9.649-6.936-11.82-7.962a11.111,11.111,0,0,0-2.835-1.085Z" transform="translate(40.652 33.906)" fill="#ffbe9d"/>
            <path id="Trazado_770838" data-name="Trazado 770838" d="M156.992,138.306c-.044,0-.071-.17-.172-.423a7.646,7.646,0,0,0-.485-.964,6.125,6.125,0,0,1-.746-1.374,3.388,3.388,0,0,1,1,1.23,3.565,3.565,0,0,1,.431,1.051c.059.293.012.484-.024.48" transform="translate(44.597 38.853)" fill="#eb996e"/>
            <path id="Trazado_770839" data-name="Trazado 770839" d="M160.358,137.572a15.474,15.474,0,0,1-1.217-1.822c-.659-1-1.366-1.674-1.315-1.737a4.267,4.267,0,0,1,1.556,1.575,5.84,5.84,0,0,1,.977,1.984" transform="translate(45.24 38.414)" fill="#eb996e"/>
            <path id="Trazado_770840" data-name="Trazado 770840" d="M163.336,134.985c-.085.022-.354-1.023-1.022-2.147s-1.435-1.877-1.374-1.942a5.922,5.922,0,0,1,2.4,4.089" transform="translate(46.133 37.521)" fill="#eb996e"/>
            <path id="Trazado_770841" data-name="Trazado 770841" d="M160.614,128.223a5.44,5.44,0,0,1,.144,3.257,33.281,33.281,0,0,1-.144-3.257" transform="translate(46.03 36.755)" fill="#eb996e"/>
            <path id="Trazado_770842" data-name="Trazado 770842" d="M149.693,125.642s1.508-4.825,2.051-5.427,5.585-1.931,5.585-1.931l1.563,4.041-1.118,1.184-2.412-.158a4.131,4.131,0,0,1-5.669,2.292" transform="translate(42.91 33.906)" fill="#ae7461"/>
            <path id="Trazado_770843" data-name="Trazado 770843" d="M142.569,131.418s-.69.531,0,1.8,2.559.362,3.163,0c0,0-.9,2.11.241,2.774a4.5,4.5,0,0,0,2.533.482,2.462,2.462,0,0,0,1.568,2.11c1.628.845,2.05,0,2.05,0s.181,2.111,2.051,2.293,2.527-.462,2.527-.462l-.839-1.247s1.086-2.212.242-3.177a2.892,2.892,0,0,0-2.232-.844s.369-1.96-.706-2.505a1.978,1.978,0,0,0-2.851.876s-.121-2.147-1.688-2.1a3.491,3.491,0,0,0-2.412,1.014Z" transform="translate(40.78 37.671)" fill="#ae7461"/>
            <path id="Trazado_770844" data-name="Trazado 770844" d="M148.918,133.05a7.938,7.938,0,0,1-1.776,3.018,16.356,16.356,0,0,1,1.776-3.018" transform="translate(42.177 38.139)" fill="#996526"/>
            <path id="Trazado_770845" data-name="Trazado 770845" d="M151.78,134.526a6.571,6.571,0,0,1-2.079,3.04,62.509,62.509,0,0,1,2.079-3.04" transform="translate(42.911 38.562)" fill="#996526"/>
            <path id="Trazado_770846" data-name="Trazado 770846" d="M124.844,152.214H115.7l-2.342,33.266h9.171c1.562-5.067,5.464-31.469,5.464-31.469Z" transform="translate(32.493 43.632)" fill="#373f51"/>
            <path id="Trazado_770847" data-name="Trazado 770847" d="M83.2,152.214s-5.854,13.729-5.269,19.286S81.8,185.48,81.8,185.48h45.308a104.358,104.358,0,0,0,2.24-11.507c.975-6.864,3.61-21.76,3.61-21.76Z" transform="translate(22.327 43.632)" fill="#373f51"/>
            <path id="Trazado_770848" data-name="Trazado 770848" d="M141.482,54.671c-1.53-1.931-3.421-3.79-3.814-6.224-.36-2.236.618-4.685-.385-6.716-1.234-2.5-4.78-2.986-6.319-5.311-.745-1.126-.921-2.551-1.656-3.682-1.252-1.93-3.824-2.55-6.119-2.418s-4.537.845-6.836.893c-3.154.067-6.348-1.117-9.412-.362-3.379.834-5.56,3.682-7.865,6.429L96.09,40.452a12.345,12.345,0,0,1-1.957,1.435,22.438,22.438,0,0,0-3.681,2.106,5.57,5.57,0,0,0-.024,8.034,5.958,5.958,0,0,0-4.295,5.642,17.087,17.087,0,0,0,.881,4.09,5.961,5.961,0,0,1-.086,4.107c-.62,1.254-2.3,2.053-3.486,1.309a6.261,6.261,0,0,0,3.21,4.336,3.747,3.747,0,0,1-2.572,1c2.262,6.112,9.048,9.593,15.554,9.938s12.855-1.826,19.009-3.968l17.743-3.721c1.556-.279,2.285-2.119,2.338-3.7s-.269-3.241.364-4.689c.868-1.985,3.271-2.946,4.175-4.916,1.028-2.239-.252-4.851-1.782-6.782" transform="translate(23.919 8.686)" fill="#373f51"/>
            <path id="Trazado_770849" data-name="Trazado 770849" d="M96.326,66.559a72.19,72.19,0,0,1-2.519-12.217,25.253,25.253,0,0,1,1.621-12.253c.251-.58,2.326-4.448,2.95-4.353.446.067-.9,3.706-.691,4.106a21.416,21.416,0,0,1,1.764,12.594,56.357,56.357,0,0,1-3.125,12.123" transform="translate(26.851 10.817)" fill="#373f51"/>
            <path id="Trazado_770850" data-name="Trazado 770850" d="M96.475,51.926c.2-10.44,6.438-19.026,16.869-18.538l.961.1a18.666,18.666,0,0,1,16.707,19.019c-.221,9.048-.584,19.041-1.15,23.848-1.173,9.951-11.3,10.45-11.3,10.45-.023,0-.273,16.437-.273,16.437L94.571,86.809Z" transform="translate(27.109 9.565)" fill="#ffbe9d"/>
            <path id="Trazado_770851" data-name="Trazado 770851" d="M116.015,76.059a24.2,24.2,0,0,1-12.569-5.2s2.335,8.421,12.372,8.572Z" transform="translate(29.653 20.311)" fill="#eb996e"/>
            <path id="Trazado_770852" data-name="Trazado 770852" d="M120.847,54.566a1.43,1.43,0,0,1-1.523,1.291,1.368,1.368,0,0,1-1.332-1.437,1.432,1.432,0,0,1,1.522-1.292,1.369,1.369,0,0,1,1.333,1.438" transform="translate(33.822 15.229)" fill="#373f51"/>
            <path id="Trazado_770853" data-name="Trazado 770853" d="M122.151,51.686c-.2.167-1.19-.745-2.721-.9-1.527-.179-2.734.49-2.881.286-.073-.093.143-.408.669-.713a3.929,3.929,0,0,1,2.33-.458,3.779,3.779,0,0,1,2.142.95c.432.412.556.763.461.838" transform="translate(33.405 14.297)" fill="#373f51"/>
            <path id="Trazado_770854" data-name="Trazado 770854" d="M110.078,54.566a1.43,1.43,0,0,1-1.523,1.291,1.367,1.367,0,0,1-1.332-1.437,1.432,1.432,0,0,1,1.522-1.292,1.369,1.369,0,0,1,1.333,1.438" transform="translate(30.735 15.229)" fill="#373f51"/>
            <path id="Trazado_770855" data-name="Trazado 770855" d="M110.443,50.939c-.2.167-1.191-.745-2.723-.9-1.527-.179-2.734.49-2.881.286-.072-.093.142-.408.67-.713a3.929,3.929,0,0,1,2.33-.458,3.779,3.779,0,0,1,2.141.95c.432.412.557.764.462.838" transform="translate(30.049 14.083)" fill="#373f51"/>
            <path id="Trazado_770856" data-name="Trazado 770856" d="M112.5,62.989a10.224,10.224,0,0,1,2.535-.187c.4,0,.773-.037.867-.3a2,2,0,0,0-.139-1.188q-.4-1.476-.843-3.1c-1.159-4.408-1.953-8.016-1.776-8.062s1.262,3.492,2.42,7.9q.415,1.629.793,3.112a2.28,2.28,0,0,1,.041,1.556.992.992,0,0,1-.7.5,2.714,2.714,0,0,1-.674.022,9.989,9.989,0,0,1-2.521-.262" transform="translate(32.247 14.378)" fill="#373f51"/>
            <path id="Trazado_770857" data-name="Trazado 770857" d="M108.986,60.584c.251.012.078,1.674,1.377,3s3.087,1.333,3.075,1.566c.012.107-.428.282-1.179.224a4.17,4.17,0,0,1-2.577-1.215,3.623,3.623,0,0,1-1.047-2.508c.01-.7.239-1.094.351-1.072" transform="translate(31.14 17.366)" fill="#373f51"/>
            <path id="Trazado_770858" data-name="Trazado 770858" d="M111.209,46.033c-.2.4-1.7.042-3.522.069-1.821-.01-3.325.363-3.524-.035-.086-.19.207-.555.835-.9a6.129,6.129,0,0,1,5.368-.026c.63.335.929.7.843.888" transform="translate(29.854 12.767)" fill="#373f51"/>
            <path id="Trazado_770859" data-name="Trazado 770859" d="M121.98,47.7c-.306.319-1.323-.153-2.59-.3-1.261-.2-2.366-.013-2.575-.4-.09-.188.116-.519.619-.8a3.775,3.775,0,0,1,4.162.57c.41.4.52.778.383.935" transform="translate(33.48 13.131)" fill="#373f51"/>
            <path id="Trazado_770860" data-name="Trazado 770860" d="M97.674,53.722c-.162-.091-6.633-2.747-7.133,4.088S97,63.737,97.032,63.543s.642-9.821.642-9.821" transform="translate(25.946 15.232)" fill="#ffbe9d"/>
            <path id="Trazado_770861" data-name="Trazado 770861" d="M94.745,60.32c-.028-.024-.125.075-.333.152a1.191,1.191,0,0,1-.892-.046,2.956,2.956,0,0,1-1.17-2.743A3.943,3.943,0,0,1,92.808,56a1.382,1.382,0,0,1,.962-.849.61.61,0,0,1,.679.378c.077.2.024.332.059.346.018.018.156-.1.121-.39a.755.755,0,0,0-.238-.449.9.9,0,0,0-.645-.221,1.675,1.675,0,0,0-1.321.968,4.055,4.055,0,0,0-.553,1.876,3.1,3.1,0,0,0,1.521,3.078,1.282,1.282,0,0,0,1.1-.1c.224-.153.271-.3.248-.318" transform="translate(26.334 15.713)" fill="#eb996e"/>
            <path id="Trazado_770862" data-name="Trazado 770862" d="M127.53,41.183c1.146-.539-1.945-4.337-4.586-5.746-3.99-2.131-10.194-3.682-14.054-2.851-4.646,1-8.583,3.026-11.142,7.032a26.953,26.953,0,0,0-3.9,13.541,8.185,8.185,0,0,0,.693,4.24c.858,1.574,2.63,2.644,2.415,4.725a2.87,2.87,0,0,0,.576,2.133c1.166,1.413,2.777.26,3.561-.948,1.675-2.582,2.048-5.769,2.379-8.83a20.042,20.042,0,0,0-.014-6.531c-.261-1.162-.73-2.274-.926-3.448a4.116,4.116,0,0,1,.705-3.383,4.24,4.24,0,0,1,.592-.526,7.145,7.145,0,0,1,7.162-.892c3.763,1.611,10.21,4.068,12.011,2.872a10.55,10.55,0,0,0,3.263-2.909Z" transform="translate(26.897 9.275)" fill="#373f51"/>
            <path id="Trazado_770863" data-name="Trazado 770863" d="M108.1,31.954a15.052,15.052,0,0,1,11.513,1.377,7.832,7.832,0,0,1,3.83,4.807c.44,2.063-.585,4.5-2.585,5.166l-.139.076c-2.981.794-4.852.282-7.7-.914-2.393-1-4.474-2.654-6.872-3.648a13.917,13.917,0,0,0-8.119-.76,22.731,22.731,0,0,1,10.068-6.1" transform="translate(28.102 9.001)" fill="#373f51"/>
            <path id="Trazado_770864" data-name="Trazado 770864" d="M107.2,30.909a3.013,3.013,0,0,1,.7.069,11.137,11.137,0,0,1,1.84.5,11.716,11.716,0,0,1,2.518,1.3,9.759,9.759,0,0,1,2.51,2.4,9.3,9.3,0,0,1,1.381,3.19,16.675,16.675,0,0,1,.421,2.8c.057.8.058,1.453.05,1.9a2.947,2.947,0,0,1-.05.7,3.416,3.416,0,0,1-.063-.694c-.027-.446-.059-1.092-.142-1.885a18.547,18.547,0,0,0-.476-2.75,9.362,9.362,0,0,0-1.357-3.088A9.894,9.894,0,0,0,112.107,33a12.4,12.4,0,0,0-2.442-1.327,24.51,24.51,0,0,0-2.461-.762" transform="translate(30.73 8.858)" fill="#5573c6"/>
            <path id="Trazado_770865" data-name="Trazado 770865" d="M112.1,30.614a2.463,2.463,0,0,1,.591.163,4.959,4.959,0,0,1,.675.253l.854.432a8.823,8.823,0,0,1,3.546,4.17,9.011,9.011,0,0,1,.726,2.962,10.2,10.2,0,0,1,.026,1.334,9.726,9.726,0,0,1-.157,1.153,5.845,5.845,0,0,1-.253.924,4.192,4.192,0,0,1-.275.668,2.41,2.41,0,0,1-.317.526,12.474,12.474,0,0,0,.643-2.155,10.665,10.665,0,0,0,.118-1.127,10.814,10.814,0,0,0-.051-1.3,11.5,11.5,0,0,0-.234-1.415,11.079,11.079,0,0,0-.494-1.459,9.052,9.052,0,0,0-3.385-4.107l-.817-.462a6.127,6.127,0,0,0-.645-.293,2.5,2.5,0,0,1-.551-.269" transform="translate(32.132 8.774)" fill="#5573c6"/>
            <path id="Trazado_770866" data-name="Trazado 770866" d="M126.968,90.567c0,.938,4.7,21.589,6.5,26.661s7.5,55.938,6.749,59.562-2.7,3.478-2.7,3.478-46.038-2.9-50.986-2.464-7.047.291-8.247-5.361.036-35.027-1.014-42.128-1.059-10.543-1.464-21.092c-.353-9.144,1.728-16.478,6.077-21.771S95.859,76.805,95.859,76.805l3.415-4.979,24.163,12.779.552-2.908,1.465,4.528Z" transform="translate(21.719 20.589)" fill="#5573c6"/>
            <g id="Grupo_1028257" data-name="Grupo 1028257" transform="translate(102.901 130.017)" opacity="0.3">
              <g id="Grupo_1028256" data-name="Grupo 1028256">
                <g id="Grupo_1028255" data-name="Grupo 1028255" clip-path="url(#clip-path-5)">
                  <path id="Trazado_770867" data-name="Trazado 770867" d="M136.147,145.13c-.4-1.025-1.707-1.284-2.8-1.4-10.238-1.136-20.9-3.691-28.372-10.776a53.142,53.142,0,0,1-7.456-9.483c-4.86-7.348-9.427-14.883-13.995-22.416l-3.546,1.341a143.363,143.363,0,0,0,7.858,27.056c3.546,8.727,6.293,17.177,15.27,20.033,5.8,1.845,16.824.43,22.9-.045a35.5,35.5,0,0,0,7.52-1.179,4.892,4.892,0,0,0,2.035-1.036,2,2,0,0,0,.592-2.091" transform="translate(-79.976 -101.05)"/>
                </g>
              </g>
            </g>
            <path id="Trazado_770868" data-name="Trazado 770868" d="M79.126,104.971c.265.471,20.754,44.231,29.9,46.03s37.577,2.219,43.125,1.171,10.976-2.028,10.976-2.028,4.017-9.542.35-17.672l-7.636.241s-21.232-1.145-24.232-1.965-5.59-3.634-8.29-3.483l-16.151-37.59s-10.5-9.748-18-6.748-12.245,18.135-10.047,22.044" transform="translate(22.527 23.607)" fill="#5573c6"/>
            <path id="Trazado_770869" data-name="Trazado 770869" d="M139.261,140.384a3.734,3.734,0,0,1,.152-.736c.121-.466.271-1.146.431-1.99s.3-1.858.405-2.988a32.066,32.066,0,0,0,.08-3.689,30.1,30.1,0,0,0-1.04-6.615c-.228-.827-.435-1.494-.594-1.948a3.671,3.671,0,0,1-.211-.721,3.9,3.9,0,0,1,.318.682,20.248,20.248,0,0,1,.686,1.93,26.929,26.929,0,0,1,1.131,6.66,29.014,29.014,0,0,1-.1,3.724,26.031,26.031,0,0,1-.471,3.006,19.482,19.482,0,0,1-.524,1.98,3.659,3.659,0,0,1-.26.705" transform="translate(39.696 34.885)" fill="#373f51"/>
            <path id="Trazado_770870" data-name="Trazado 770870" d="M107.047,88.044s.109.224.3.666.486,1.107.862,1.963l3.268,7.526,11.823,27.389-.112-.069a7,7,0,0,1,3.581,1.1c1.114.615,2.194,1.329,3.377,1.869a11.342,11.342,0,0,0,3.843.894c1.345.16,2.717.277,4.11.4,5.572.461,11.477.823,17.625,1.167h-.012l7.635-.244.1,0,.037.087a19.663,19.663,0,0,1,1.53,8.763,28.738,28.738,0,0,1-1.875,9.023l-.028.071-.08.015-4.856.9-5.315.982a35.541,35.541,0,0,1-5.32.547c-3.532.162-7.014.175-10.433.157s-6.779-.1-10.067-.22-6.505-.287-9.641-.525c-1.567-.112-3.114-.264-4.637-.43a32.262,32.262,0,0,1-4.489-.746,7.8,7.8,0,0,1-1.944-1.122,16.234,16.234,0,0,1-1.652-1.449,35.466,35.466,0,0,1-2.834-3.2A117.48,117.48,0,0,1,93.236,130.6c-4.8-8.206-8.268-15.078-10.648-19.829-1.184-2.379-2.079-4.238-2.68-5.5s-.9-1.934-.9-1.934.09.16.25.481.4.8.7,1.427l2.73,5.476c2.41,4.732,5.9,11.589,10.724,19.775a117.977,117.977,0,0,0,8.618,12.9,35.677,35.677,0,0,0,2.82,3.17,16.272,16.272,0,0,0,1.63,1.424,7.6,7.6,0,0,0,1.879,1.083,32.691,32.691,0,0,0,4.434.726c1.518.163,3.061.313,4.627.422q4.7.353,9.629.516c3.286.118,6.642.2,10.059.212s6.9,0,10.419-.161a35.011,35.011,0,0,0,5.28-.544l5.315-.982,4.857-.9-.108.086a28.468,28.468,0,0,0,1.854-8.922,19.387,19.387,0,0,0-1.5-8.636l.133.084-7.636.238h-.012c-6.15-.347-12.053-.718-17.631-1.186-1.393-.124-2.768-.243-4.117-.405-.675-.077-1.343-.165-2.008-.289a7.531,7.531,0,0,1-1.907-.632c-1.207-.555-2.288-1.274-3.39-1.884a6.777,6.777,0,0,0-3.453-1.076l-.081,0-.031-.073L111.363,98.251c-1.388-3.264-2.472-5.811-3.21-7.55-.363-.863-.642-1.525-.831-1.978s-.274-.679-.274-.679" transform="translate(22.647 25.238)" fill="#373f51"/>
            <path id="Trazado_770871" data-name="Trazado 770871" d="M104.394,86.874c-.019.018-.286-.264-.8-.736a15.353,15.353,0,0,0-6.321-3.489,14.227,14.227,0,0,0-10.34,1.034,15.374,15.374,0,0,0-5.506,4.671c-.405.565-.611.893-.633.879a.981.981,0,0,1,.124-.252c.1-.157.215-.4.417-.691a13.529,13.529,0,0,1,1.9-2.28A14.6,14.6,0,0,1,101.365,84.2a13.522,13.522,0,0,1,2.312,1.859c.255.241.421.458.546.594a1,1,0,0,1,.171.223" transform="translate(23.161 23.458)" fill="#373f51"/>
            <path id="Trazado_770872" data-name="Trazado 770872" d="M113.829,117.285a19.275,19.275,0,0,1-1.033,3.174,19.137,19.137,0,0,1-1.306,3.073,19.3,19.3,0,0,1,1.034-3.174,19.208,19.208,0,0,1,1.3-3.073" transform="translate(31.957 33.62)" fill="#373f51"/>
            <path id="Trazado_770873" data-name="Trazado 770873" d="M142.4,122.9c0-.017.078-.039.211.009a.794.794,0,0,1,.41.4.879.879,0,0,1-.021.868,1,1,0,0,1-.97.448.939.939,0,0,1-.73-.778.9.9,0,0,1,.278-.823.74.74,0,0,1,.549-.18c.134.013.2.049.2.067.009.055-.326-.021-.6.261a.709.709,0,0,0-.158.624.7.7,0,0,0,.516.544.765.765,0,0,0,.7-.311.685.685,0,0,0,.054-.637c-.142-.4-.444-.455-.432-.493" transform="translate(40.5 35.213)" fill="#373f51"/>
            <path id="Trazado_770874" data-name="Trazado 770874" d="M119.2,84.8a3.78,3.78,0,0,1-.551-.284l-1.525-.872.107-.046c-.3,1.523-.592,3.766-1.1,6.453l-.033.179-.156-.1c-2.244-1.413-4.936-3.029-7.806-4.764-2.141-1.282-4.143-2.576-5.986-3.694s-3.546-2.069-4.972-2.868l-3.383-1.881-.919-.516a1.837,1.837,0,0,1-.311-.2,1.741,1.741,0,0,1,.338.144l.944.468c.816.414,1.989,1.025,3.429,1.8s3.145,1.719,5.009,2.818l6,3.675c2.869,1.734,5.557,3.365,7.789,4.8l-.189.08c.534-2.666.863-4.91,1.208-6.431l.023-.1.084.053,1.49.929a3.764,3.764,0,0,1,.512.35" transform="translate(26.533 21.846)" fill="#373f51"/>
            <g id="Grupo_1028260" data-name="Grupo 1028260" transform="translate(122.491 99.863)" opacity="0.3">
              <g id="Grupo_1028259" data-name="Grupo 1028259">
                <g id="Grupo_1028258" data-name="Grupo 1028258" clip-path="url(#clip-path-6)">
                  <path id="Trazado_770875" data-name="Trazado 770875" d="M95.2,77.615l12.609,9.4c2.774,2.068,5.615,4.17,8.91,5.226q-.091-4.381-.183-8.762l-1.291,6.151Z" transform="translate(-95.201 -77.615)"/>
                </g>
              </g>
            </g>
            <path id="Trazado_770876" data-name="Trazado 770876" d="M197.257,48.632a4.52,4.52,0,0,1-2.082-8.749,4.7,4.7,0,0,1,3.945-8.006,5.627,5.627,0,0,1,8.394-4.772A6.328,6.328,0,0,1,215.3,26.8a4.5,4.5,0,0,1,4.119,7.557" transform="translate(55.08 7.34)" fill="#373f51"/>
            <path id="Trazado_770877" data-name="Trazado 770877" d="M195.824,48.023A19.175,19.175,0,0,1,214.576,30l.993-.021c10.718.408,16.36,9.737,15.656,20.44l.637,38.184-26.043,9.349L205.591,84.2s-10.324-1.391-10.661-11.678c-.162-4.968.336-15.225.894-24.5" transform="translate(55.868 8.595)" fill="#ae7461"/>
            <path id="Trazado_770878" data-name="Trazado 770878" d="M203.143,73.054a24.968,24.968,0,0,0,13.4-4.22s-3.02,7.469-13.307,6.751Z" transform="translate(58.231 19.731)" fill="#996526"/>
            <path id="Trazado_770879" data-name="Trazado 770879" d="M197.864,51.537a1.47,1.47,0,0,0,1.447,1.454,1.405,1.405,0,0,0,1.487-1.356,1.471,1.471,0,0,0-1.446-1.454,1.406,1.406,0,0,0-1.489,1.356" transform="translate(56.718 14.384)" fill="#373f51"/>
            <path id="Trazado_770880" data-name="Trazado 770880" d="M197.423,48.239c.187.188,1.281-.659,2.864-.687,1.579-.05,2.756.74,2.923.543.082-.087-.111-.43-.623-.787a4.037,4.037,0,0,0-2.346-.672,3.876,3.876,0,0,0-2.275.786c-.479.383-.636.733-.544.817" transform="translate(56.584 13.368)" fill="#373f51"/>
            <path id="Trazado_770881" data-name="Trazado 770881" d="M209.061,51.537a1.469,1.469,0,0,0,1.448,1.453A1.4,1.4,0,0,0,212,51.635a1.471,1.471,0,0,0-1.446-1.454,1.4,1.4,0,0,0-1.489,1.356" transform="translate(59.928 14.384)" fill="#373f51"/>
            <path id="Trazado_770882" data-name="Trazado 770882" d="M209.506,48.222c.187.188,1.284-.659,2.864-.686,1.579-.051,2.756.739,2.923.542.082-.087-.108-.43-.623-.787a4.027,4.027,0,0,0-2.346-.67,3.87,3.87,0,0,0-2.275.785c-.476.383-.636.733-.544.817" transform="translate(60.048 13.363)" fill="#373f51"/>
            <path id="Trazado_770883" data-name="Trazado 770883" d="M206.13,60.009a10.437,10.437,0,0,0-2.577-.412c-.405-.032-.789-.106-.862-.38a2.06,2.06,0,0,1,.244-1.2q.54-1.476,1.132-3.1c1.568-4.411,2.7-8.035,2.518-8.1s-1.6,3.464-3.164,7.876q-.565,1.631-1.081,3.116a2.332,2.332,0,0,0-.178,1.589,1.015,1.015,0,0,0,.676.576,2.752,2.752,0,0,0,.688.081,10.275,10.275,0,0,0,2.6-.049" transform="translate(57.926 13.421)" fill="#373f51"/>
            <path id="Trazado_770884" data-name="Trazado 770884" d="M209.049,44.081c.216.4,1.562-.066,3.229-.153,1.665-.126,3.076.16,3.22-.26.062-.2-.242-.553-.849-.862a5.011,5.011,0,0,0-2.514-.476,4.84,4.84,0,0,0-2.4.79c-.546.383-.784.772-.686.961" transform="translate(59.918 12.131)" fill="#373f51"/>
            <path id="Trazado_770885" data-name="Trazado 770885" d="M197.191,43.915c.341.353,1.638-.048,3.206-.1,1.567-.1,2.9.183,3.2-.2.131-.185-.085-.54-.673-.868a5.09,5.09,0,0,0-2.62-.535,5.022,5.022,0,0,0-2.544.773c-.547.381-.722.754-.571.926" transform="translate(56.51 12.099)" fill="#373f51"/>
            <path id="Trazado_770886" data-name="Trazado 770886" d="M196.319,43.557s2.582-6.5,5.659-8.066c3.725-1.9,5.428,2.2,8.992,1.125s7.119-2.895,10.839-.2c4.072,2.952,2.238,5.118,2.577,9.678,1.382,18.489,4.869,23.655,5.652,14.916.086-.957,2.721-1.77,3.031-5.814.4-5.243.475-11.6-.768-15.291-1.049-3.11-2.877-5.237-6.126-7.555-5.129-3.662-12.07-3.6-16.773-3.03S195.726,35.5,196.319,43.557" transform="translate(56.267 8.322)" fill="#373f51"/>
            <path id="Trazado_770887" data-name="Trazado 770887" d="M222.039,54.294A2.794,2.794,0,0,1,225,51.541c1.922.144,4.08,1.19,4.035,5.158-.082,7.039-7.132,5.506-7.142,5.3-.006-.138.086-4.763.147-7.708" transform="translate(63.606 14.772)" fill="#ae7461"/>
            <path id="Trazado_770888" data-name="Trazado 770888" d="M223.108,58.862c.031-.022.122.087.328.185a1.227,1.227,0,0,0,.916.028,3.034,3.034,0,0,0,1.436-2.706,4.058,4.058,0,0,0-.323-1.759,1.418,1.418,0,0,0-.912-.952.625.625,0,0,0-.727.328c-.1.2-.054.336-.091.349-.019.017-.149-.121-.09-.41a.782.782,0,0,1,.283-.437.921.921,0,0,1,.679-.171,1.722,1.722,0,0,1,1.269,1.105,4.171,4.171,0,0,1,.4,1.967c-.062,1.418-.8,2.737-1.824,3.018a1.314,1.314,0,0,1-1.119-.2c-.216-.178-.251-.335-.226-.347" transform="translate(63.952 15.281)" fill="#996526"/>
            <path id="Trazado_770889" data-name="Trazado 770889" d="M227.939,47.646a6.679,6.679,0,0,1-2.952,1.436,2.294,2.294,0,0,1-2.578-1.562c-.093-.488.015-1.058-.314-1.429-.394-.444-1.1-.288-1.688-.214a4.491,4.491,0,0,1-4.726-3.124,1.886,1.886,0,0,1-2.523.289,10.045,10.045,0,0,1-1.957-2.011,2.894,2.894,0,0,0-2.439-1.158,6.915,6.915,0,0,1-1.523.368c-.925-.063-1.4-1.136-1.557-2.05s-.289-1.981-1.082-2.464a3.674,3.674,0,0,0-2.515-.018c-.848.143-1.951-.035-2.185-.862a1.67,1.67,0,0,1,.288-1.283,4.557,4.557,0,0,1,5.343-1.833A6.176,6.176,0,0,1,216.852,30.3a6.269,6.269,0,0,1,10.064,2.081,4.544,4.544,0,0,1,5.256,6.5,4.32,4.32,0,0,1,2.443,3.386c.055,1.456-1.333,2.936-2.747,2.581a2.516,2.516,0,0,1-4.3,2.6" transform="translate(57.29 7.794)" fill="#373f51"/>
            <path id="Trazado_770890" data-name="Trazado 770890" d="M203.894,32.336c-.006,0,0,.044,0,.129s.019.212.053.374a4.43,4.43,0,0,0,.538,1.346,5.053,5.053,0,0,0,1.594,1.631,4.69,4.69,0,0,0,2.9.763l-.122-.154a2.544,2.544,0,0,0,.18,1.94,7.29,7.29,0,0,0,1.239,1.7,5.216,5.216,0,0,0,.8.791,2.454,2.454,0,0,0,1.123.391,2.572,2.572,0,0,0,2.248-.857l-.265-.071A5.28,5.28,0,0,0,216.5,43.93a3.847,3.847,0,0,0,2.325.71,6.965,6.965,0,0,0,2.267-.546l-.19-.08a5.54,5.54,0,0,0,1.71,2.137,2.946,2.946,0,0,0,2.464.618A3.875,3.875,0,0,0,228,43.677l-.158.077a3.628,3.628,0,0,0,2.425.306,3.932,3.932,0,0,0,1.67-.786,3.4,3.4,0,0,0,.768-.875,1.68,1.68,0,0,0,.171-.368,4.25,4.25,0,0,1-1.013,1.15,3.9,3.9,0,0,1-1.63.712,3.461,3.461,0,0,1-2.289-.328l-.134-.072-.024.151a3.654,3.654,0,0,1-2.766,2.867,2.681,2.681,0,0,1-2.236-.585,5.3,5.3,0,0,1-1.607-2.029l-.058-.129-.131.05a6.743,6.743,0,0,1-2.168.52,3.553,3.553,0,0,1-2.147-.661,4.989,4.989,0,0,1-2.186-3.4l-.051-.332-.214.262a2.286,2.286,0,0,1-1.985.757,2.188,2.188,0,0,1-.995-.338,5.08,5.08,0,0,1-.758-.742,7.052,7.052,0,0,1-1.211-1.631,2.3,2.3,0,0,1-.189-1.754l.054-.17-.176.015a4.522,4.522,0,0,1-2.777-.688,5.015,5.015,0,0,1-1.583-1.541,5.437,5.437,0,0,1-.706-1.779" transform="translate(58.446 9.269)" fill="#5573c6"/>
            <path id="Trazado_770891" data-name="Trazado 770891" d="M210.39,57.493c-.252.03.037,1.688-1.173,3.116s-3.008,1.558-2.981,1.792c0,.108.45.252,1.2.142a4.2,4.2,0,0,0,2.505-1.4,3.649,3.649,0,0,0,.876-2.6c-.059-.7-.317-1.082-.427-1.052" transform="translate(59.118 16.48)" fill="#373f51"/>
            <path id="Trazado_770892" data-name="Trazado 770892" d="M164.786,122.835c.892-.356,30.353-3.9,30.353-3.9l11.953-10.12-1.122,29.3-37.617,3.626Z" transform="translate(47.236 31.193)" fill="#f4a338"/>
            <g id="Grupo_1028263" data-name="Grupo 1028263" transform="translate(245.732 144.486)" opacity="0.3">
              <g id="Grupo_1028262" data-name="Grupo 1028262">
                <g id="Grupo_1028261" data-name="Grupo 1028261" clip-path="url(#clip-path-7)">
                  <path id="Trazado_770893" data-name="Trazado 770893" d="M194.3,112.3c-.359.179-3.311,2.8-3.311,2.8l.9,22.56Z" transform="translate(-190.986 -112.296)"/>
                </g>
              </g>
            </g>
            <path id="Trazado_770894" data-name="Trazado 770894" d="M243.658,153.53H193.9s2.635,14.041,3.61,20.511a82.984,82.984,0,0,0,2.4,11.061h45.069s3.365-8.156,3.95-13.394-5.269-18.178-5.269-18.178" transform="translate(55.58 44.01)" fill="#373f51"/>
            <path id="Trazado_770895" data-name="Trazado 770895" d="M191.152,154.847s-1.391,16,0,29.877h17.237V171.943Z" transform="translate(54.617 44.387)" fill="#373f51"/>
            <path id="Trazado_770896" data-name="Trazado 770896" d="M198.457,101.123,203.82,89.38l.667-7.253s10.283-6.464,15.162-8.9a106.885,106.885,0,0,1,11.45-4.647v6.845Z" transform="translate(56.888 19.657)" fill="#ebebeb"/>
            <path id="Trazado_770897" data-name="Trazado 770897" d="M245.876,160.555s2.913-39.144,3.11-42.053c0,0,1.72-20.913-1.993-28.879S234.969,74.66,234.969,74.66l-.766-4.182L217.971,80.709l-7.5,6.526a75.1,75.1,0,0,0-7.08,8.808,31.07,31.07,0,0,0-5.551,11.507c-.386,1.743-4.852,22.579-4.984,37.1,0,0-.687,12.671-1.419,19.849-.906,8.883-2.286,29.135-1.985,41.134l52.6-1.607c13-1.983,10.711-3.275,10.711-3.275Z" transform="translate(54.294 20.203)" fill="#f4a338"/>
            <path id="Trazado_770898" data-name="Trazado 770898" d="M233.008,73.9s-.122.063-.364.166l-1.073.449c-.459.22-1.016.512-1.671.852-.629.39-1.378.791-2.154,1.345a59.663,59.663,0,0,0-11.557,10.681l-.03.036-.044.008-5.048.928.109-.126c-.08,2.346-.162,4.806-.248,7.352l0,.058-.042.041a69.719,69.719,0,0,0-7.421,8.134,31.941,31.941,0,0,0-2.544,3.846l-.275.5-.21.517a9.19,9.19,0,0,0-.381,1.05c-.225.713-.446,1.42-.63,2.135-.778,2.842-1.42,5.618-2.023,8.26-1.2,5.289-2.2,10.072-3.022,14.089-1.651,8.036-2.581,13.023-2.581,13.023a8.146,8.146,0,0,1,.113-.915c.091-.6.244-1.475.445-2.6.408-2.258,1.023-5.521,1.822-9.546s1.778-8.811,2.962-14.107c.6-2.647,1.233-5.423,2.01-8.277.183-.715.405-1.429.632-2.149a9.136,9.136,0,0,1,.39-1.074l.217-.535.278-.5a31.929,31.929,0,0,1,2.567-3.882,69.264,69.264,0,0,1,7.461-8.166l-.046.1c.093-2.546.18-5.008.265-7.352l0-.107.105-.019,5.049-.911-.073.044a58.421,58.421,0,0,1,11.669-10.644c.785-.546,1.544-.941,2.18-1.321.664-.331,1.229-.612,1.693-.823l1.091-.416c.248-.091.378-.13.378-.13" transform="translate(54.979 21.182)" fill="#373f51"/>
            <path id="Trazado_770899" data-name="Trazado 770899" d="M211.734,101.07l.63,52.232-7.953,50.872h20.969s9.529-38.625,11.748-46.743c2.155-7.881,5.385-47.555,5.67-49.5.112-.764,2.385-14.466-4.306-20.929" transform="translate(58.595 24.938)" fill="#f4a338"/>
            <path id="Trazado_770900" data-name="Trazado 770900" d="M238.53,87s.152.144.439.436a11.585,11.585,0,0,1,1.145,1.408,17.522,17.522,0,0,1,2.62,6.436,36.013,36.013,0,0,1,.4,11.021c-.314,2.14-.472,4.426-.7,6.864l-.7,7.712c-.5,5.407-1.064,11.329-1.746,17.684-.351,3.177-.714,6.463-1.162,9.84a80.41,80.41,0,0,1-1.848,10.354c-3.5,13.954-7.358,29.309-11.413,45.455l-.027.109h-21.25l.027-.166c2.943-18.762,5.659-36.08,7.977-50.866v.019c-.17-15.817-.31-28.872-.408-37.982-.041-4.547-.073-8.108-.1-10.539-.006-1.208-.012-2.135-.015-2.766s.006-.947.006-.947.017.322.03.947.028,1.557.051,2.765c.036,2.43.09,5.992.16,10.539.122,9.108.3,22.164.51,37.981v.019c-2.306,14.789-5.005,32.11-7.93,50.876l-.142-.166h20.969l-.142.111,11.438-45.455a80.4,80.4,0,0,0,1.852-10.318c.453-3.374.821-6.658,1.176-9.833.692-6.352,1.269-12.273,1.782-17.677q.378-4.053.721-7.71c.238-2.427.407-4.741.727-6.866a36.127,36.127,0,0,0-.347-10.98,17.69,17.69,0,0,0-2.558-6.427,12.369,12.369,0,0,0-1.119-1.42c-.279-.3-.417-.455-.417-.455" transform="translate(58.558 24.938)" fill="#373f51"/>
            <path id="Trazado_770901" data-name="Trazado 770901" d="M221.059,143.564a8.606,8.606,0,0,1-1.621-.47c-.986-.336-2.331-.849-3.785-1.494s-2.737-1.3-3.646-1.805a8.629,8.629,0,0,1-1.436-.888,11.274,11.274,0,0,1,1.53.705c.933.458,2.223,1.081,3.671,1.723s2.774,1.182,3.739,1.567a11.167,11.167,0,0,1,1.549.661" transform="translate(60.36 39.817)" fill="#373f51"/>
            <path id="Trazado_770902" data-name="Trazado 770902" d="M190.823,156.926a.48.48,0,0,1-.005-.136c0-.108.009-.239.014-.4.021-.376.048-.889.082-1.536.086-1.359.208-3.282.359-5.647.322-4.767.781-11.351,1.424-18.613s1.386-13.826,1.989-18.566c.3-2.369.562-4.286.757-5.607.1-.642.171-1.15.226-1.521l.067-.4a.512.512,0,0,1,.032-.134.49.49,0,0,1,0,.138c-.01.107-.023.238-.039.4q-.064.56-.172,1.527c-.16,1.352-.386,3.266-.664,5.619-.552,4.744-1.261,11.3-1.9,18.566s-1.135,13.839-1.508,18.6c-.189,2.362-.344,4.282-.452,5.639-.058.646-.1,1.158-.138,1.532-.017.161-.031.291-.042.4a.5.5,0,0,1-.024.135" transform="translate(54.698 29.918)" fill="#373f51"/>
            <path id="Trazado_770903" data-name="Trazado 770903" d="M224.912,83.6a27.076,27.076,0,0,0-1.972-4.161,26.986,26.986,0,0,0-2.895-3.582,4.708,4.708,0,0,1,1.063.859,13.9,13.9,0,0,1,3.491,5.553,4.689,4.689,0,0,1,.314,1.33" transform="translate(63.076 21.745)" fill="#373f51"/>
            <path id="Trazado_770904" data-name="Trazado 770904" d="M195.739,132.679c.014,0,.068.129.051.38a1.523,1.523,0,0,1-.455.946,1.447,1.447,0,0,1-1.513.344,1.688,1.688,0,0,1-.777-.556,1.539,1.539,0,0,1-.314-.98,2.024,2.024,0,0,1,.4-1.215,1.261,1.261,0,0,1,.489-.386c.2-.075.346-.109.512-.162l.021-.006h.019a1.764,1.764,0,0,1,1.011.291,1.3,1.3,0,0,1,.467.665,1.337,1.337,0,0,1,.086.681c-.035.008-.066-.246-.225-.627a1.205,1.205,0,0,0-.446-.548,1.6,1.6,0,0,0-.893-.208l.039-.005c-.152.053-.345.111-.482.166a.991.991,0,0,0-.374.313,1.791,1.791,0,0,0-.336,1.045,1.332,1.332,0,0,0,.892,1.281,1.24,1.24,0,0,0,1.283-.242,1.527,1.527,0,0,0,.484-.812c.049-.225.036-.36.06-.363" transform="translate(55.247 37.563)" fill="#373f51"/>
            <path id="Trazado_770905" data-name="Trazado 770905" d="M195.133,147.033c.014,0,.068.129.051.38a1.523,1.523,0,0,1-.455.946,1.447,1.447,0,0,1-1.513.344,1.679,1.679,0,0,1-.777-.556,1.539,1.539,0,0,1-.314-.98,2.024,2.024,0,0,1,.4-1.215,1.262,1.262,0,0,1,.489-.386c.2-.075.346-.109.512-.162l.021-.006h.019a1.764,1.764,0,0,1,1.011.291,1.3,1.3,0,0,1,.467.665,1.336,1.336,0,0,1,.086.681c-.035.008-.066-.246-.225-.627a1.205,1.205,0,0,0-.446-.548,1.6,1.6,0,0,0-.893-.208l.039-.005c-.152.053-.345.111-.481.166a.985.985,0,0,0-.376.313,1.791,1.791,0,0,0-.336,1.045,1.332,1.332,0,0,0,.892,1.281,1.24,1.24,0,0,0,1.283-.242,1.527,1.527,0,0,0,.484-.812c.049-.225.036-.36.06-.363" transform="translate(55.073 41.678)" fill="#373f51"/>
            <path id="Trazado_770906" data-name="Trazado 770906" d="M232.148,85.048c-.03.05-.722-.394-1.945-.862A13.518,13.518,0,0,0,228,83.557a13.651,13.651,0,0,0-5.58.077,13.546,13.546,0,0,0-2.189.69c-1.209.5-1.889.964-1.92.915a2.166,2.166,0,0,1,.461-.346,4.933,4.933,0,0,1,.578-.351,8.059,8.059,0,0,1,.8-.407,12.181,12.181,0,0,1,2.209-.76,12.935,12.935,0,0,1,5.693-.078,12.107,12.107,0,0,1,2.23.7,8.092,8.092,0,0,1,.811.383,4.946,4.946,0,0,1,.588.335,2.224,2.224,0,0,1,.47.335" transform="translate(62.579 23.797)" fill="#373f51"/>
            <g id="Grupo_1028266" data-name="Grupo 1028266" transform="translate(248.796 104.394)" opacity="0.3">
              <g id="Grupo_1028265" data-name="Grupo 1028265">
                <g id="Grupo_1028264" data-name="Grupo 1028264" clip-path="url(#clip-path-8)">
                  <path id="Trazado_770907" data-name="Trazado 770907" d="M193.367,134.446c2.271-3.305,3.1-6.423,4.318-10.244,1.8-5.681,2.307-12.1,5.138-17.344,1.666-3.089,3.626-6.258,6.523-8.238,2.827-1.933,3.245-4.387,3.19-11.03a7.783,7.783,0,0,0,4.409-1.809,11.251,11.251,0,0,0,2.478-4.644c-1.418,1.541-3.78,4.1-3.78,4.1s-5.123.952-5.049.919c-.126,2.555-.13,4.8-.256,7.352,0,0-9.829,10.428-10.594,12.526s-6.377,28.416-6.377,28.416" transform="translate(-193.367 -81.137)"/>
                </g>
              </g>
            </g>
            <g id="Grupo_1028269" data-name="Grupo 1028269" transform="translate(285.289 138.706)" opacity="0.3">
              <g id="Grupo_1028268" data-name="Grupo 1028268">
                <g id="Grupo_1028267" data-name="Grupo 1028267" clip-path="url(#clip-path-9)">
                  <path id="Trazado_770908" data-name="Trazado 770908" d="M221.73,191.909c12.456-23.577,16.328-54.577,15.586-84.106,0,0-3.576,35.892-4.781,42.053-1.2,6.118-10.805,42.053-10.805,42.053" transform="translate(-221.73 -107.804)"/>
                </g>
              </g>
            </g>
            <path id="Trazado_770909" data-name="Trazado 770909" d="M228.979,70.946a1.566,1.566,0,0,1-.279.214l-.83.564-3.083,2.025c-2.644,1.7-6.245,4.026-10.225,6.589l-4.412,2.814.01-.008-1.409,1.091a11.41,11.41,0,0,0-1.26,1.074c-.772.746-1.459,1.473-2.078,2.129l-.111.12-.064-.147c-.668-1.545-1.215-2.806-1.61-3.718-.174-.419-.314-.758-.423-1.018a1.8,1.8,0,0,1-.129-.365,2,2,0,0,1,.185.338c.122.257.279.587.475,1l1.7,3.679-.175-.028c.609-.669,1.288-1.4,2.06-2.165a11.6,11.6,0,0,1,1.275-1.108l1.4-1.095.005,0,.005-.005c1.386-.888,2.867-1.837,4.406-2.825l10.273-6.518c1.3-.808,2.36-1.468,3.132-1.947.351-.212.636-.385.858-.517a1.506,1.506,0,0,1,.31-.165" transform="translate(58.212 20.337)" fill="#373f51"/>
          </g>
        </g>
        <g id="Grupo_1028294" data-name="Grupo 1028294">
          <g id="Grupo_1028293" data-name="Grupo 1028293" clip-path="url(#clip-path)">
            <path id="Trazado_770910" data-name="Trazado 770910" d="M21.781,56.232c-.067.037-2.437-4.074-5.292-9.18s-5.118-9.279-5.051-9.317,2.436,4.072,5.291,9.182,5.118,9.278,5.053,9.315" transform="translate(3.278 10.817)" fill="#373f51"/>
            <path id="Trazado_770911" data-name="Trazado 770911" d="M25.877,38.331c.076,0-.036,3.152-.251,7.03s-.45,7.021-.526,7.017.036-3.152.251-7.032.45-7.02.526-7.016" transform="translate(7.188 10.988)" fill="#373f51"/>
            <path id="Trazado_770912" data-name="Trazado 770912" d="M17.665,56.391c-.024.073-2.7-.764-5.966-1.87S5.8,52.459,5.82,52.387s2.7.766,5.967,1.872,5.9,2.06,5.877,2.132" transform="translate(1.668 15.016)" fill="#373f51"/>
            <path id="Trazado_770913" data-name="Trazado 770913" d="M55.651,64.612A22.232,22.232,0,1,0,34.682,95.758l2.25,5.138L54.78,93.076s-1.155-2.931-2.243-5.522a22.225,22.225,0,0,0,3.114-22.942" transform="translate(3.741 14.704)" fill="#f4a338"/>
            <path id="Trazado_770914" data-name="Trazado 770914" d="M48.354,89.966s-.051-.078-.144-.237-.23-.4-.408-.705c-.355-.621-.874-1.541-1.522-2.735-1.293-2.392-3.112-5.885-5.107-10.32q-.751-1.662-1.525-3.5-.38-.919-.777-1.875a6.947,6.947,0,0,1-.6-2.03,2.355,2.355,0,0,1,.16-1.09,1.436,1.436,0,0,1,.773-.813,1.348,1.348,0,0,1,1.132.126,2.111,2.111,0,0,1,.807.83,2.592,2.592,0,0,1-.037,2.3,3.912,3.912,0,0,1-1.644,1.731,4.215,4.215,0,0,1-2.391.519,4.456,4.456,0,0,1-2.328-.926,5.315,5.315,0,0,1-1.6-2,3.9,3.9,0,0,1-.365-1.261,1.837,1.837,0,0,1,.291-1.3,1.191,1.191,0,0,1,.566-.4,1.525,1.525,0,0,1,.688-.05,2.126,2.126,0,0,1,1.2.634,4.592,4.592,0,0,1,.786,1.107A13.354,13.354,0,0,1,36.87,69.2a9.218,9.218,0,0,1,.673,2.658,5.063,5.063,0,0,1-.461,2.733,4.046,4.046,0,0,1-.832,1.136,3.152,3.152,0,0,1-1.208.712,2.921,2.921,0,0,1-1.393.048,3.716,3.716,0,0,1-1.272-.535,8.355,8.355,0,0,1-1.961-1.861c-.28-.349-.543-.708-.8-1.07a7.886,7.886,0,0,1-.695-1.134,2.188,2.188,0,0,1-.216-1.315,1.423,1.423,0,0,1,.266-.625.957.957,0,0,1,.584-.356,1.148,1.148,0,0,1,.672.087,2.251,2.251,0,0,1,.558.351,4.4,4.4,0,0,1,.838.975A7.436,7.436,0,0,1,33,75.7a4.755,4.755,0,0,1-.805,2.252,3.561,3.561,0,0,1-1.837,1.414,3.08,3.08,0,0,1-2.24-.185A3.507,3.507,0,0,1,26.5,77.712a2.855,2.855,0,0,1-.347-1.023,1.616,1.616,0,0,1,.188-1.052.825.825,0,0,1,.97-.336,1.939,1.939,0,0,1,.822.614,8.016,8.016,0,0,1,.989,1.689l.835,1.669c2.169,4.351,3.86,7.9,4.983,10.379.562,1.238.982,2.207,1.262,2.864q.2.492.311.753c.069.17.1.259.1.259s-.042-.085-.116-.252l-.327-.746c-.289-.654-.718-1.617-1.289-2.851-1.141-2.467-2.846-6.011-5.028-10.354q-.409-.814-.839-1.666A7.961,7.961,0,0,0,28.041,76a1.821,1.821,0,0,0-.767-.574.7.7,0,0,0-.823.286,1.489,1.489,0,0,0-.166.965,2.723,2.723,0,0,0,.335.975,3.369,3.369,0,0,0,1.556,1.411,2.937,2.937,0,0,0,2.14.175,3.432,3.432,0,0,0,1.761-1.361,4.626,4.626,0,0,0,.776-2.183,7.292,7.292,0,0,0-1.352-4.6,4.208,4.208,0,0,0-.809-.942,1.4,1.4,0,0,0-1.1-.405.964.964,0,0,0-.726.857,2.019,2.019,0,0,0,.206,1.22,7.486,7.486,0,0,0,.681,1.109c.251.362.512.718.789,1.063a8.273,8.273,0,0,0,1.922,1.824,3.557,3.557,0,0,0,1.22.513A2.74,2.74,0,0,0,35,76.287a3.332,3.332,0,0,0,1.943-1.765,4.9,4.9,0,0,0,.444-2.648,9.066,9.066,0,0,0-.66-2.611A7.162,7.162,0,0,0,35.4,66.978a1.967,1.967,0,0,0-1.108-.591,1.142,1.142,0,0,0-1.107.39,1.682,1.682,0,0,0-.26,1.189,3.749,3.749,0,0,0,.351,1.212,5.175,5.175,0,0,0,1.554,1.939,4.3,4.3,0,0,0,2.248.9,4.068,4.068,0,0,0,2.306-.5,3.77,3.77,0,0,0,1.585-1.661,2.455,2.455,0,0,0,.045-2.171,1.978,1.978,0,0,0-.751-.775,1.207,1.207,0,0,0-1.014-.12,1.3,1.3,0,0,0-.7.736,2.237,2.237,0,0,0-.152,1.029,6.861,6.861,0,0,0,.592,1.99l.772,1.876q.768,1.835,1.514,3.5c1.98,4.438,3.783,7.937,5.058,10.337.641,1.2,1.149,2.123,1.5,2.75.172.31.3.548.394.712s.13.246.13.246" transform="translate(7.493 18.98)" fill="#fff"/>
            <path id="Trazado_770915" data-name="Trazado 770915" d="M35.876,87.75a1.835,1.835,0,0,1-.273.026c-.179.006-.443.033-.784.032a19.585,19.585,0,0,1-2.883-.171,20.694,20.694,0,0,1-4.166-.991,20.44,20.44,0,0,1-8.64-5.789,20.7,20.7,0,0,1-2.5-3.477,19.728,19.728,0,0,1-1.254-2.6c-.131-.315-.207-.57-.268-.739a1.844,1.844,0,0,1-.081-.261,1.745,1.745,0,0,1,.111.251c.072.165.157.414.3.724a21.675,21.675,0,0,0,1.294,2.567,21.07,21.07,0,0,0,15.225,10.2,21.609,21.609,0,0,0,2.867.221c.341.012.6-.005.784,0a1.878,1.878,0,0,1,.274.008" transform="translate(4.307 21.149)" fill="#373f51"/>
            <path id="Trazado_770916" data-name="Trazado 770916" d="M14.379,70.469a8.206,8.206,0,0,1,.391,2.267,8.336,8.336,0,0,1-.391-2.267" transform="translate(4.117 20.2)" fill="#373f51"/>
            <path id="Trazado_770917" data-name="Trazado 770917" d="M49.278,69.763a1.309,1.309,0,0,1-.062-.229q-.054-.249-.144-.66-.046-.218-.1-.479c-.042-.172-.1-.358-.157-.558-.12-.4-.228-.862-.422-1.35-.09-.246-.184-.5-.282-.772s-.234-.534-.356-.817c-.233-.571-.557-1.144-.881-1.756a23.386,23.386,0,0,0-2.613-3.658,23.385,23.385,0,0,0-3.321-3.031c-.569-.4-1.1-.786-1.639-1.086-.265-.154-.515-.319-.768-.45l-.733-.372c-.461-.252-.908-.413-1.289-.58-.193-.08-.369-.16-.537-.223l-.462-.157-.638-.221a1.274,1.274,0,0,1-.22-.089,1.314,1.314,0,0,1,.229.057l.648.194.468.144c.17.058.349.135.544.211a13.758,13.758,0,0,1,1.3.562l.742.364c.257.13.51.292.778.445.546.3,1.083.686,1.658,1.081a22.813,22.813,0,0,1,3.354,3.044A22.837,22.837,0,0,1,47,63.069c.323.618.645,1.2.875,1.774.12.286.252.556.349.826l.274.781a13.807,13.807,0,0,1,.4,1.363c.053.2.108.39.145.565s.06.336.087.482c.048.278.086.5.115.668a1.369,1.369,0,0,1,.03.234" transform="translate(9.933 15.271)" fill="#373f51"/>
            <g id="Grupo_1028274" data-name="Grupo 1028274" transform="translate(19.894 73.154)" opacity="0.2">
              <g id="Grupo_1028273" data-name="Grupo 1028273">
                <g id="Grupo_1028272" data-name="Grupo 1028272" clip-path="url(#clip-path-11)">
                  <path id="Trazado_770918" data-name="Trazado 770918" d="M27.4,57.658a3.956,3.956,0,0,0-3.218-.753,6.993,6.993,0,0,0-4.584,2.652A16.846,16.846,0,0,0,15.62,73.239c.215,1.9,1.168,4.768,2.7,6.047a3.621,3.621,0,0,0,2.76.863c2.591-.341,3.438-3.376,3.214-5.822-.208-2.28-.953-4.631-.22-6.8.6-1.787,2.108-3.1,3.148-4.669s1.527-3.893.169-5.2" transform="translate(-15.462 -56.856)" fill="#fff"/>
                </g>
              </g>
            </g>
            <g id="Grupo_1028277" data-name="Grupo 1028277" transform="translate(34.446 68.981)" opacity="0.2">
              <g id="Grupo_1028276" data-name="Grupo 1028276">
                <g id="Grupo_1028275" data-name="Grupo 1028275" clip-path="url(#clip-path-12)">
                  <path id="Trazado_770919" data-name="Trazado 770919" d="M31.97,54.215a3.531,3.531,0,0,0-4.324.291,3.623,3.623,0,0,0-.8,3.061,3.319,3.319,0,0,0,2.711,2.53,3.137,3.137,0,0,0,3.214-1.791c.521-1.209.259-3.309-.8-4.09" transform="translate(-26.772 -53.613)" fill="#fff"/>
                </g>
              </g>
            </g>
            <path id="Trazado_770920" data-name="Trazado 770920" d="M39,96.971a6.1,6.1,0,0,1,1.619.522,1.306,1.306,0,0,0,1.145.036l3.59-1.576a1.318,1.318,0,0,0,.773-.973,2.452,2.452,0,0,1,.808-1.493Z" transform="translate(11.181 26.799)" fill="#373f51"/>
            <path id="Trazado_770921" data-name="Trazado 770921" d="M32.573,91.262c.032.072,3.326,5.315,4.587,7.318a2.882,2.882,0,0,0,2.376,1.381,2.67,2.67,0,0,0,1.119-.224l7.854-3.448s2.052-.9,1.8-2.733c-.262-1.929-2.294-9.075-2.294-9.075Z" transform="translate(9.337 24.217)" fill="#e0e0e0"/>
            <path id="Trazado_770922" data-name="Trazado 770922" d="M49.673,90.97,36.013,97.023a.425.425,0,0,1-.561-.216l-.019-.042a.426.426,0,0,1,.216-.561L49.31,90.15a.425.425,0,0,1,.561.216l.018.042a.425.425,0,0,1-.216.561" transform="translate(10.147 25.831)" fill="#e0e0e0"/>
            <path id="Trazado_770923" data-name="Trazado 770923" d="M49.688,90.976a.488.488,0,0,0,.21-.239.433.433,0,0,0-.041-.372.4.4,0,0,0-.432-.21c-.748.317-1.84.827-3.187,1.426L35.7,96.276a.354.354,0,0,0-.192.437.492.492,0,0,0,.086.158.352.352,0,0,0,.309.12,2.1,2.1,0,0,0,.363-.143l1.482-.656,2.8-1.238L45.3,92.866l3.208-1.4.875-.373L49.609,91a.31.31,0,0,1,.08-.027.324.324,0,0,1-.075.041l-.223.107-.863.4-3.19,1.438L40.6,95.076l-2.8,1.245-1.482.657-.188.084a.735.735,0,0,1-.216.072.5.5,0,0,1-.436-.169.666.666,0,0,1-.112-.207.5.5,0,0,1,.269-.616L46.2,91.487c1.357-.588,2.438-1.078,3.218-1.387a.447.447,0,0,1,.481.246.462.462,0,0,1,.03.4.375.375,0,0,1-.237.228" transform="translate(10.131 25.825)" fill="#373f51"/>
            <path id="Trazado_770924" data-name="Trazado 770924" d="M49.423,89.5,35.185,95.809a.426.426,0,0,1-.561-.217l-.018-.042a.423.423,0,0,1,.216-.56L49.06,88.678a.425.425,0,0,1,.561.216l.018.042a.425.425,0,0,1-.216.561" transform="translate(9.909 25.409)" fill="#e0e0e0"/>
            <path id="Trazado_770925" data-name="Trazado 770925" d="M49.44,89.5a.469.469,0,0,0,.214-.251.448.448,0,0,0-.057-.385.4.4,0,0,0-.466-.174L45.82,90.183,34.868,95.061a.353.353,0,0,0-.207.278.336.336,0,0,0,.023.178.434.434,0,0,0,.1.16.354.354,0,0,0,.331.093c.112-.036.256-.109.382-.162l1.54-.682,2.912-1.285,4.933-2.171,3.331-1.45.91-.389.237-.1a.4.4,0,0,1,.084-.028.34.34,0,0,1-.077.042l-.232.111c-.215.1-.515.237-.9.413l-3.312,1.493L40,93.761c-.928.412-1.9.844-2.908,1.293l-1.539.683c-.138.057-.247.118-.408.171a.5.5,0,0,1-.466-.13.571.571,0,0,1-.129-.208.485.485,0,0,1-.033-.25.5.5,0,0,1,.292-.392L45.778,90.09c1.408-.615,2.54-1.114,3.336-1.45a.451.451,0,0,1,.52.206.481.481,0,0,1,.048.417.375.375,0,0,1-.242.241" transform="translate(9.893 25.403)" fill="#373f51"/>
            <path id="Trazado_770926" data-name="Trazado 770926" d="M49.047,88.062,34.439,94.536a.425.425,0,0,1-.561-.217l-.018-.042a.424.424,0,0,1,.216-.56l14.607-6.474a.423.423,0,0,1,.56.216l.019.042a.425.425,0,0,1-.216.561" transform="translate(9.696 24.998)" fill="#e0e0e0"/>
            <path id="Trazado_770927" data-name="Trazado 770927" d="M49.063,88.068a.474.474,0,0,0,.216-.259.452.452,0,0,0-.068-.391.4.4,0,0,0-.485-.149L45.335,88.8c-2.878,1.28-6.839,3.044-11.213,4.992a.355.355,0,0,0-.208.287.368.368,0,0,0,.03.181.415.415,0,0,0,.1.158.355.355,0,0,0,.342.075c.122-.049.265-.116.4-.172q.8-.355,1.576-.7L39.343,92.3l5.05-2.221c1.433-.625,2.6-1.132,3.411-1.486l.93-.4c.1-.042.181-.075.243-.1a.387.387,0,0,1,.085-.03.378.378,0,0,1-.078.042l-.238.113-.919.423-3.392,1.527L39.4,92.424,36.42,93.748l-1.576.7c-.136.059-.259.118-.409.179a.5.5,0,0,1-.484-.1.558.558,0,0,1-.14-.208.5.5,0,0,1,.253-.659L45.293,88.7l3.412-1.486a.449.449,0,0,1,.542.179.488.488,0,0,1,.06.425.378.378,0,0,1-.244.248" transform="translate(9.679 24.992)" fill="#373f51"/>
            <path id="Trazado_770928" data-name="Trazado 770928" d="M48.807,86.587l-15.2,6.737a.425.425,0,0,1-.561-.216l-.019-.042a.425.425,0,0,1,.216-.561l15.2-6.737a.425.425,0,0,1,.561.216l.019.042a.426.426,0,0,1-.216.561" transform="translate(9.457 24.575)" fill="#e0e0e0"/>
            <path id="Trazado_770929" data-name="Trazado 770929" d="M48.823,86.592a.438.438,0,0,0,.13-.673.4.4,0,0,0-.512-.107c-.84.377-2.042.919-3.52,1.584L33.289,92.575a.357.357,0,0,0-.208.3.44.44,0,0,0,.154.344.358.358,0,0,0,.363.041l.414-.184,1.635-.724,3.093-1.365,5.241-2.306c1.485-.648,2.692-1.173,3.536-1.541l.964-.413.255-.1a.335.335,0,0,1,.087-.031.547.547,0,0,1-.084.045l-.244.117c-.228.1-.547.25-.956.437l-3.518,1.584L38.794,91.11l-3.088,1.373-1.634.726-.418.185a.5.5,0,0,1-.507-.059.485.485,0,0,1-.158-.21.506.506,0,0,1-.053-.257.5.5,0,0,1,.295-.425L44.878,87.3l3.538-1.543a.452.452,0,0,1,.571.133.494.494,0,0,1,.082.436.416.416,0,0,1-.163.221.277.277,0,0,1-.084.041" transform="translate(9.441 24.569)" fill="#373f51"/>
            <path id="Trazado_770930" data-name="Trazado 770930" d="M29.382,88.584c.064.145,1.9,3.438,2.836,5.129a2.321,2.321,0,0,0,1.657,1.161l1.028.167,15.184-6.666.566-.858a2.324,2.324,0,0,0,.259-2.028l-1.889-5.526Z" transform="translate(8.422 22.921)" fill="#f4a338"/>
            <g id="Grupo_1028280" data-name="Grupo 1028280" transform="translate(46.652 116.996)" opacity="0.3">
              <g id="Grupo_1028279" data-name="Grupo 1028279">
                <g id="Grupo_1028278" data-name="Grupo 1028278" clip-path="url(#clip-path-13)">
                  <path id="Trazado_770931" data-name="Trazado 770931" d="M36.259,96.531a21.625,21.625,0,0,0,4.68-1.635c1.294-.574,2.581-1.1,3.976-1.743,1.022-.473,1.947-.942,2.955-1.438a3.091,3.091,0,0,0,1.081-.782Z" transform="translate(-36.259 -90.931)"/>
                </g>
              </g>
            </g>
            <g id="Grupo_1028283" data-name="Grupo 1028283" transform="translate(45.332 115.026)" opacity="0.3">
              <g id="Grupo_1028282" data-name="Grupo 1028282">
                <g id="Grupo_1028281" data-name="Grupo 1028281" clip-path="url(#clip-path-14)">
                  <path id="Trazado_770932" data-name="Trazado 770932" d="M35.233,95.435a25.113,25.113,0,0,0,5.033-1.79c1.395-.619,2.78-1.185,4.285-1.88,1.1-.51,2.1-1.011,3.191-1.541a3.549,3.549,0,0,0,1.175-.825Z" transform="translate(-35.233 -89.4)"/>
                </g>
              </g>
            </g>
            <g id="Grupo_1028286" data-name="Grupo 1028286" transform="translate(44.563 113.272)" opacity="0.3">
              <g id="Grupo_1028285" data-name="Grupo 1028285">
                <g id="Grupo_1028284" data-name="Grupo 1028284" clip-path="url(#clip-path-14)">
                  <path id="Trazado_770933" data-name="Trazado 770933" d="M34.635,94.072a25.113,25.113,0,0,0,5.033-1.79c1.395-.619,2.78-1.185,4.285-1.88,1.1-.51,2.1-1.01,3.191-1.541a3.549,3.549,0,0,0,1.175-.825Z" transform="translate(-34.634 -88.037)"/>
                </g>
              </g>
            </g>
            <g id="Grupo_1028289" data-name="Grupo 1028289" transform="translate(43.793 111.519)" opacity="0.3">
              <g id="Grupo_1028288" data-name="Grupo 1028288">
                <g id="Grupo_1028287" data-name="Grupo 1028287" clip-path="url(#clip-path-14)">
                  <path id="Trazado_770934" data-name="Trazado 770934" d="M34.036,92.71a25.113,25.113,0,0,0,5.033-1.79c1.395-.62,2.78-1.185,4.285-1.88,1.1-.51,2.1-1.011,3.191-1.541a3.549,3.549,0,0,0,1.175-.825Z" transform="translate(-34.036 -86.674)"/>
                </g>
              </g>
            </g>
            <g id="Grupo_1028292" data-name="Grupo 1028292" transform="translate(37.805 102.882)" opacity="0.3">
              <g id="Grupo_1028291" data-name="Grupo 1028291">
                <g id="Grupo_1028290" data-name="Grupo 1028290" clip-path="url(#clip-path-17)">
                  <path id="Trazado_770935" data-name="Trazado 770935" d="M29.382,88.584c.064.145,1.9,3.438,2.836,5.129a2.321,2.321,0,0,0,1.657,1.161l1.028.167,15.184-6.666.566-.858a2.324,2.324,0,0,0,.259-2.028l-1.889-5.526Z" transform="translate(-29.383 -79.961)"/>
                </g>
              </g>
            </g>
            <path id="Trazado_770936" data-name="Trazado 770936" d="M50.118,84.951c.017.036-4.032,1.849-9.041,4.048s-9.084,3.953-9.1,3.917,4.031-1.849,9.041-4.049,9.084-3.951,9.1-3.915" transform="translate(9.166 24.351)" fill="#373f51"/>
            <path id="Trazado_770937" data-name="Trazado 770937" d="M48.912,79.92c.019.04-4.369,2.026-9.8,4.436s-9.851,4.331-9.87,4.291,4.368-2.025,9.8-4.436,9.851-4.331,9.87-4.291" transform="translate(8.382 22.909)" fill="#373f51"/>
          </g>
        </g>
        <g id="Grupo_1028296" data-name="Grupo 1028296">
          <g id="Grupo_1028295" data-name="Grupo 1028295" clip-path="url(#clip-path)">
            <path id="Trazado_770938" data-name="Trazado 770938" d="M193.325,59.6l-6.965-.812a22.391,22.391,0,1,1,4.514-6.631l.008-.012Z" transform="translate(42.45 5.943)" fill="#4adbd1"/>
            <path id="Trazado_770939" data-name="Trazado 770939" d="M193.353,59.631s-.063-.169-.172-.492-.274-.805-.485-1.428c-.422-1.258-1.043-3.107-1.851-5.512l.121.022-.008.01a.074.074,0,0,1-.1.012.072.072,0,0,1-.019-.084A22.363,22.363,0,0,0,192.648,41.3a21.955,21.955,0,0,0-.556-3.4,24.929,24.929,0,0,0-1.189-3.488,22.2,22.2,0,0,0-42.42,5.83A22.622,22.622,0,0,0,149.511,50.4a21.9,21.9,0,0,0,5.057,8.187,22.269,22.269,0,0,0,15.278,6.736l.955.014a6.3,6.3,0,0,0,.937-.031l1.823-.161a30.831,30.831,0,0,0,3.388-.742,22.3,22.3,0,0,0,9.4-5.633.062.062,0,0,1,.054-.019l5.153.642,1.341.172c.3.039.463.063.463.063s-.143-.009-.437-.041-.749-.077-1.324-.139c-1.193-.13-2.941-.32-5.211-.565l.055-.019a22.273,22.273,0,0,1-9.429,5.737,31.554,31.554,0,0,1-3.416.766l-1.842.17a6.263,6.263,0,0,1-.947.033l-.964-.009a22.495,22.495,0,0,1-15.476-6.774,22.113,22.113,0,0,1-5.136-8.289,22.871,22.871,0,0,1-1.051-10.3,22.343,22.343,0,0,1,3.96-10.1,9.809,9.809,0,0,1,.825-1.083l.865-1.046.953-.956a9.165,9.165,0,0,1,.986-.912q.517-.428,1.032-.852a12.929,12.929,0,0,1,1.089-.764c.371-.242.724-.508,1.108-.724s.775-.416,1.159-.624a22.2,22.2,0,0,1,9.838-2.508,22.428,22.428,0,0,1,21.136,13.68,25.071,25.071,0,0,1,1.186,3.529,22.037,22.037,0,0,1,.547,3.437,22.341,22.341,0,0,1-1.891,10.937l-.118-.072.008-.008a.069.069,0,0,1,.1-.012.063.063,0,0,1,.023.033l1.785,5.585q.293.926.449,1.418c.1.318.143.471.143.471" transform="translate(42.422 5.913)" fill="#4adbd1"/>
            <path id="Trazado_770940" data-name="Trazado 770940" d="M157.465,40.313l2.675-2.958,5.675,4.555,8.429-9.681L177,34.914,165.687,47.361Z" transform="translate(45.138 9.238)" fill="#373f51"/>
            <path id="Trazado_770941" data-name="Trazado 770941" d="M135.917,59.793l4.418-.551a.056.056,0,0,1,.048.015,19.1,19.1,0,0,0,8.054,4.83,26.451,26.451,0,0,0,2.9.637l1.565.138a5.056,5.056,0,0,0,.8.026l.818-.01a19.061,19.061,0,0,0,6.782-1.473q.87-.365,1.723-.827c-.174-.067-.347-.13-.521-.2a22.166,22.166,0,0,1-7.324-4.964,21.7,21.7,0,0,1-5.035-8.123,22.439,22.439,0,0,1-1.031-10.1,21.938,21.938,0,0,1,3.882-9.9,9.959,9.959,0,0,1,.809-1.061l.847-1.024.364-.365c-.208-.01-.417-.024-.625-.027a19.043,19.043,0,0,0-17.927,11.55,21.39,21.39,0,0,0-1.019,2.991,18.781,18.781,0,0,0-.477,2.917,19.162,19.162,0,0,0,1.552,9.314.062.062,0,0,1-.017.071c-.687,2.043-1.216,3.617-1.576,4.69-.18.534-.319.941-.416,1.225s-.148.422-.148.422.139-.022.4-.055l1.149-.147" transform="translate(38.517 7.685)" fill="#4adbd1"/>
            <path id="Trazado_770942" data-name="Trazado 770942" d="M135.927,59.824s-.13.028-.387.067l-1.154.167-.053.008.017-.051c.432-1.3,1.148-3.468,2.1-6.348l.022-.033c-.01-.005,0,.036-.012,0l-.039-.09-.078-.183-.152-.373c-.1-.252-.2-.513-.292-.778-.188-.534-.355-1.1-.506-1.688a18.863,18.863,0,0,1-.558-3.852,18.217,18.217,0,0,1,.907-6.617,16.234,16.234,0,0,1,.893-2.283,19.07,19.07,0,0,1,6.972-7.993,19.265,19.265,0,0,1,11.433-3.042l.317.018-.224.225-.363.365.009-.01a22.511,22.511,0,0,0-5.293,10.547,21.865,21.865,0,0,0,13.6,24.618l.271.1-.257.122a23.6,23.6,0,0,1-3.015,1.311,19.367,19.367,0,0,1-3.031.749,20.234,20.234,0,0,1-5.711.08h-.012c-.642-.129-1.276-.235-1.89-.373a16.078,16.078,0,0,1-1.761-.516,19.363,19.363,0,0,1-3.056-1.375,19.08,19.08,0,0,1-4.247-3.239c-.009-.053-.126,0-.21,0l-.261.031-.5.059-.9.106-1.414.162-.868.1c-.2.019-.3.022-.3.022s.1-.022.293-.051l.866-.122,1.41-.189.9-.12.5-.066.26-.033.134-.018a.332.332,0,0,1,.084-.005.11.11,0,0,1,.059.031l.024.024A19.237,19.237,0,0,0,144.7,62.45a19.451,19.451,0,0,0,6.67,2.207h-.012a23.979,23.979,0,0,0,2.748.152,18.8,18.8,0,0,0,2.91-.253,19.352,19.352,0,0,0,2.991-.751,23.39,23.39,0,0,0,2.972-1.3l.014.225a22.1,22.1,0,0,1-13.8-24.9,22.766,22.766,0,0,1,5.359-10.674l.008-.008v0c.126-.125.251-.251.364-.364l.094.242A18.959,18.959,0,0,0,136.85,37.864a15.994,15.994,0,0,0-.89,2.25,18.065,18.065,0,0,0-.929,6.544,18.8,18.8,0,0,0,.531,3.817c.144.585.306,1.146.489,1.677.093.265.184.525.283.775.05.126.1.25.149.372l.076.183.037.09c.019.015.037.136-.028.174l.022-.032c-.986,2.886-1.718,5.05-2.178,6.325l-.036-.044,1.159-.136c.26-.028.392-.033.392-.033" transform="translate(38.507 7.654)" fill="#4adbd1"/>
          </g>
        </g>
        <g id="Grupo_1028298" data-name="Grupo 1028298">
          <g id="Grupo_1028297" data-name="Grupo 1028297" clip-path="url(#clip-path)">
            <path id="Trazado_770943" data-name="Trazado 770943" d="M283.266,64.613H276.33a2.481,2.481,0,0,1-2.481-2.481V24.218a2.481,2.481,0,0,1,2.481-2.481h6.936a2.48,2.48,0,0,1,2.481,2.481V62.133a2.48,2.48,0,0,1-2.481,2.481" transform="translate(78.499 6.231)" fill="#5573c6"/>
            <path id="Trazado_770944" data-name="Trazado 770944" d="M254.212,60.812h-6.765a2.566,2.566,0,0,1-2.566-2.566V43.914a2.566,2.566,0,0,1,2.566-2.566h6.765a2.565,2.565,0,0,1,2.566,2.566V58.247a2.565,2.565,0,0,1-2.566,2.566" transform="translate(70.196 11.852)" fill="#5573c6"/>
            <path id="Trazado_770945" data-name="Trazado 770945" d="M268.325,63.17h-6.413a2.742,2.742,0,0,1-2.742-2.742V35.864a2.742,2.742,0,0,1,2.742-2.742h6.413a2.742,2.742,0,0,1,2.742,2.742V60.429a2.742,2.742,0,0,1-2.742,2.742" transform="translate(74.292 9.494)" fill="#5573c6"/>
            <path id="Trazado_770946" data-name="Trazado 770946" d="M290.22,10.725a2.1,2.1,0,0,1-.286.38l-.883,1.041-3.358,3.848c-2.925,3.3-6.981,7.873-11.667,13.152l-.13.147-.165-.108-7.3-4.767.311-.046-.279.329L251.024,42.812l-.1.12-.125-.093c-2.42-1.8-4.393-3.263-5.805-4.312l-1.563-1.19a3.5,3.5,0,0,1-.526-.443,3.959,3.959,0,0,1,.582.365q.612.421,1.617,1.118c1.433,1.02,3.437,2.442,5.893,4.189l-.226.026c3.954-4.692,9.36-11.109,15.333-18.2l.279-.327.135-.161.175.116,7.29,4.784-.295.039c4.735-5.238,8.837-9.771,11.793-13.04l3.456-3.761.939-.991a2.246,2.246,0,0,1,.345-.327" transform="translate(69.629 3.074)" fill="#373f51"/>
            <path id="Trazado_770947" data-name="Trazado 770947" d="M282.137,19.91a15.849,15.849,0,0,1-.166-2.734c-.042-1.693-.069-4.036-.071-6.635l.275.233-.237.039c-2.62.434-4.995.8-6.718,1.04a16.439,16.439,0,0,1-2.8.292,16.722,16.722,0,0,1,2.751-.623c1.709-.326,4.075-.745,6.694-1.176l.237-.039.275-.046v.28c0,2.6-.028,4.942-.071,6.635a16.024,16.024,0,0,1-.166,2.734" transform="translate(78.089 2.941)" fill="#373f51"/>
          </g>
        </g>
      </g>
    </g>
  </g>
</svg>
