<svg xmlns="http://www.w3.org/2000/svg" xmlns:xlink="http://www.w3.org/1999/xlink" width="401" height="391" viewBox="0 0 401 391">
  <defs>
    <clipPath id="clip-path">
      <rect id="Rectángulo_363039" data-name="Rectángulo 363039" width="347.586" height="333.602" fill="none"/>
    </clipPath>
    <clipPath id="clip-path-6">
      <rect id="Rectángulo_363031" data-name="Rectángulo 363031" width="31.033" height="21.451" fill="none"/>
    </clipPath>
    <clipPath id="clip-path-7">
      <rect id="Rectángulo_363032" data-name="Rectángulo 363032" width="15.66" height="50.128" fill="none"/>
    </clipPath>
    <clipPath id="clip-path-9">
      <rect id="Rectángulo_363034" data-name="Rectángulo 363034" width="10.191" height="31.345" fill="none"/>
    </clipPath>
    <clipPath id="clip-path-10">
      <rect id="Rectángulo_363035" data-name="Rectángulo 363035" width="16.285" height="2.566" fill="none"/>
    </clipPath>
    <clipPath id="clip-path-11">
      <rect id="Rectángulo_363036" data-name="Rectángulo 363036" width="4.302" height="11.342" fill="none"/>
    </clipPath>
  </defs>
  <g id="Grupo_1033329" data-name="Grupo 1033329" transform="translate(8086 -7399)">
    <rect id="Rectángulo_361874" data-name="Rectángulo 361874" width="401" height="391" transform="translate(-8086 7399)" fill="#efeeee"/>
    <g id="Grupo_1027988" data-name="Grupo 1027988" transform="translate(-8059.293 7427.699)">
      <g id="Grupo_1027987" data-name="Grupo 1027987" clip-path="url(#clip-path)">
        <g id="Grupo_1027961" data-name="Grupo 1027961">
          <g id="Grupo_1027960" data-name="Grupo 1027960" clip-path="url(#clip-path)">
            <path id="Trazado_769470" data-name="Trazado 769470" d="M79.6,122.873s-7.612-5.312-11.106-4.346-7.986,5.876-7.986,5.876,8.871-2.553,11.548-2.022a49.6,49.6,0,0,0,7.544.492" transform="translate(40.791 79.824)" fill="#e0e0e0"/>
            <path id="Trazado_769471" data-name="Trazado 769471" d="M75.465,122.223c-1.107,2.51-3.02,4.6-4.092,7.125a12.033,12.033,0,0,0-.054,9.142A16.476,16.476,0,0,0,75.2,130.7a42.664,42.664,0,0,0,.887-8.141Z" transform="translate(47.489 82.395)" fill="#e0e0e0"/>
            <path id="Trazado_769472" data-name="Trazado 769472" d="M78.812,122.027c.35-1.025-8.272-.578-11.017,2.746S62.3,131.712,64.614,140.1c0,0,5.2-9.087,5.2-8.953s8.3-7.092,8.993-9.116" transform="translate(42.974 81.934)" fill="#e0e0e0"/>
            <path id="Trazado_769473" data-name="Trazado 769473" d="M72.809,122.375c-.8.31,7.031,2.694,10.644,2.985a11,11,0,0,0,5.8-.912S84,118.033,72.809,122.375" transform="translate(49.045 81.481)" fill="#e0e0e0"/>
            <path id="Trazado_769474" data-name="Trazado 769474" d="M96.417,142.573s3.77-1.532,4.83-.47,5.421,6.832,9.544,7.185c0,0-3.77-8.011-7.187-9.307-2.247-.852-7.187,2.592-7.187,2.592" transform="translate(64.998 94.275)" fill="#e0e0e0"/>
            <path id="Trazado_769475" data-name="Trazado 769475" d="M100.267,143.964s-.151-2.829-1.57-4.318-6.553-2.508-6.553-2.508a19.975,19.975,0,0,0,3.743,4.406,21.091,21.091,0,0,0,4.38,2.419" transform="translate(62.117 92.45)" fill="#e0e0e0"/>
            <path id="Trazado_769476" data-name="Trazado 769476" d="M99.895,141.119s-2.625-.04-4.482,3.243a26.554,26.554,0,0,0-2.709,7.132c.154-.275,4.952-2.374,6.214-5.031a11.105,11.105,0,0,0,.976-5.344" transform="translate(62.485 95.133)" fill="#e0e0e0"/>
            <path id="Trazado_769477" data-name="Trazado 769477" d="M97.35,141.119s.47,6.251,1.532,7.311,2.592,4.949,2.592,4.949,2.357-5.655,1.06-8.366-5.183-3.894-5.183-3.894" transform="translate(65.627 95.133)" fill="#e0e0e0"/>
            <path id="Trazado_769478" data-name="Trazado 769478" d="M86.77,148.329c-.3.454-6.35,5.141-7.257,7.41s-.152,5.746,0,6.8,5.443-1.361,6.35-5.443a47.133,47.133,0,0,0,.907-8.771" transform="translate(53.306 99.994)" fill="#e0e0e0"/>
            <path id="Trazado_769479" data-name="Trazado 769479" d="M84.374,146.231c-.005.757.09,8.166,2.037,10.751a34.7,34.7,0,0,0,5.556,5.334s1.277-9.367-1.423-12.26a14.585,14.585,0,0,0-6.171-3.825" transform="translate(56.879 98.579)" fill="#e0e0e0"/>
            <path id="Trazado_769480" data-name="Trazado 769480" d="M88.907,147.03c-.442-.1-5.913-.621-8.513,2.493a28.915,28.915,0,0,0-4.06,6.655s8.274-4.1,9.79-5.921,2.782-3.226,2.782-3.226" transform="translate(51.459 99.053)" fill="#e0e0e0"/>
            <path id="Trazado_769481" data-name="Trazado 769481" d="M86.091,145.278a4.3,4.3,0,0,1,4.686-.121c2.459,1.532,6.546,7.477,6.546,7.477s-5-.325-7.636-2.829a17.3,17.3,0,0,1-3.6-4.527" transform="translate(58.037 97.417)" fill="#e0e0e0"/>
            <path id="Trazado_769482" data-name="Trazado 769482" d="M90.056,146.892s-3.176-2.7-5.595-3.3-9.526,1.172-9.526,1.172a12.724,12.724,0,0,0,8.24,2.126,26.916,26.916,0,0,1,6.881,0" transform="translate(50.516 96.718)" fill="#e0e0e0"/>
            <path id="Trazado_769483" data-name="Trazado 769483" d="M78.084,161.917s-2.268,4.385,0,6.8,3.492,7.259,3.492,7.259,3.917-3.78,1.952-8.014a13.743,13.743,0,0,0-5.444-6.049" transform="translate(51.959 109.154)" fill="#e0e0e0"/>
            <path id="Trazado_769484" data-name="Trazado 769484" d="M77.593,161.974c-.6.3-4.537,5.595-4.838,9.375s-.606,10.283,0,9.829,4.989-4.537,6.2-8.468-1.361-10.736-1.361-10.736" transform="translate(48.811 109.192)" fill="#e0e0e0"/>
            <path id="Trazado_769485" data-name="Trazado 769485" d="M80.71,161.735c-.6.151-6.35-.907-9.526,3.176a50.208,50.208,0,0,0-5.595,9.98s8.317-4.252,10.283-6.588,4.838-6.568,4.838-6.568" transform="translate(44.216 109.018)" fill="#e0e0e0"/>
            <path id="Trazado_769486" data-name="Trazado 769486" d="M94.314,157.391s-1.728,5.141,0,9.678a43.98,43.98,0,0,0,3.693,7.56s2.56-9.074.9-11.493-4.6-5.746-4.6-5.746" transform="translate(63.063 106.103)" fill="#e0e0e0"/>
            <path id="Trazado_769487" data-name="Trazado 769487" d="M94.57,157.179c.613.568,7.7,10.748,12.523,11.655s.755-.383.755-.383-1.52-6.862-3.68-9.7-9.6-1.57-9.6-1.57" transform="translate(63.753 105.769)" fill="#e0e0e0"/>
            <path id="Trazado_769488" data-name="Trazado 769488" d="M93.925,158.936a78.766,78.766,0,0,1,7.279-4.555c2.094-.948,8.813.293,8.813.293s-8.218,4.277-10.194,3.824-5.9,1.3-5.9,1.3" transform="translate(63.318 103.833)" fill="#e0e0e0"/>
            <path id="Trazado_769489" data-name="Trazado 769489" d="M106.4,127.388s-4.535,4.8-3.934,8.56a44.2,44.2,0,0,0,1.939,7.358l2-6.608Z" transform="translate(69.038 85.877)" fill="#e0e0e0"/>
            <path id="Trazado_769490" data-name="Trazado 769490" d="M105.265,126.814s-1.051,7.358,1.051,10.361,4.955,8.709,5.255,8.259,4.656-4.354,1.5-9.911a28.5,28.5,0,0,0-7.808-8.709" transform="translate(70.785 85.49)" fill="#e0e0e0"/>
            <path id="Trazado_769491" data-name="Trazado 769491" d="M108.368,127.847s-7.242-2.1-8.284,1.351-1.942,6.457-1.942,6.457a28.332,28.332,0,0,1,5.113-4.22,53.317,53.317,0,0,0,5.113-3.588" transform="translate(66.161 85.759)" fill="#e0e0e0"/>
            <path id="Trazado_769492" data-name="Trazado 769492" d="M84.845,130.944s.216-.2.589-.514c1.709-1.458,6.71-5.474,9.231-4.858a53.307,53.307,0,0,1,7.3,2.654s-10.945,5.689-17.125,2.719" transform="translate(57.197 84.609)" fill="#e0e0e0"/>
            <path id="Trazado_769493" data-name="Trazado 769493" d="M89.569,129.01c.022-.547-3.291-1.426-6.2,1.577s-3.358,4.848-3.358,4.848,9.355-1.246,9.558-6.425" transform="translate(53.938 86.595)" fill="#e0e0e0"/>
            <path id="Trazado_769494" data-name="Trazado 769494" d="M86.112,129.147s-3.327,3.829-.773,7.584,4.763,7.358,4.763,7.358a12.144,12.144,0,0,0,0-7.472,26.8,26.8,0,0,0-3.989-7.47" transform="translate(56.88 87.062)" fill="#e0e0e0"/>
            <path id="Trazado_769495" data-name="Trazado 769495" d="M96.781,137.95c-.151-.914,1.06-8.413-8.86-7.671h-.909s4.744,7.658,5.829,10.062a10.4,10.4,0,0,0,3.072,4.2c1.167,1.051,1.018-5.68.867-6.594" transform="translate(58.658 87.791)" fill="#e0e0e0"/>
            <path id="Trazado_769496" data-name="Trazado 769496" d="M95.346,159.889a8.616,8.616,0,0,0-2.354-6.4c-.152-.161-.37-.326-.571-.234a.521.521,0,0,0-.241.352,5.487,5.487,0,0,0,.552,4.123,13.676,13.676,0,0,0,2.685,3.3" transform="translate(62.011 103.295)" fill="#e0e0e0"/>
            <path id="Trazado_769497" data-name="Trazado 769497" d="M81.054,164.358A16.914,16.914,0,0,0,73.016,157a1.148,1.148,0,0,0-.675-.137.89.89,0,0,0-.609.8,2.9,2.9,0,0,0,.767,2,14.084,14.084,0,0,0,8.933,5.344" transform="translate(48.349 105.74)" fill="#e0e0e0"/>
            <path id="Trazado_769498" data-name="Trazado 769498" d="M112.292,154.737c0,.033-.511.032-1.421.144a15.841,15.841,0,0,0-3.743.964,21.493,21.493,0,0,0-4.992,2.813,51.893,51.893,0,0,0-5.277,4.683c-3.6,3.506-6.78,6.76-8.982,9.208-1.1,1.22-1.975,2.227-2.578,2.925l-.7.8c-.162.181-.251.271-.261.263a1.523,1.523,0,0,1,.2-.31c.146-.194.358-.482.646-.842.569-.727,1.413-1.76,2.494-3.005,2.158-2.5,5.314-5.789,8.92-9.295a48.976,48.976,0,0,1,5.334-4.693,20.848,20.848,0,0,1,5.1-2.784,14.576,14.576,0,0,1,3.82-.866,9.309,9.309,0,0,1,1.065-.035,1.522,1.522,0,0,1,.37.03" transform="translate(56.856 104.29)" fill="#e0e0e0"/>
            <path id="Trazado_769499" data-name="Trazado 769499" d="M91.536,169.614c-.059.038-.648-.986-1.937-2.357a16.419,16.419,0,0,0-13.192-5.18c-1.878.127-3.007.477-3.023.408a3.3,3.3,0,0,1,.782-.266,13.75,13.75,0,0,1,2.22-.4,15.77,15.77,0,0,1,13.4,5.262,13.854,13.854,0,0,1,1.358,1.8,3.184,3.184,0,0,1,.392.728" transform="translate(49.47 109.037)" fill="#e0e0e0"/>
            <path id="Trazado_769500" data-name="Trazado 769500" d="M86.581,128.723a.916.916,0,0,1-.008.216c-.012.162-.03.37-.052.631-.059.579-.139,1.39-.239,2.422-.214,2.1-.521,5.146-.857,8.91-.67,7.525-1.456,17.947-1.44,29.475.035,11.531.844,21.951,1.43,29.483.3,3.748.552,6.79.728,8.923.079,1.035.142,1.847.188,2.426.015.261.028.47.037.633a.684.684,0,0,1,0,.216,1.212,1.212,0,0,1-.035-.213c-.022-.162-.045-.368-.075-.629-.062-.578-.149-1.388-.256-2.421-.214-2.1-.507-5.148-.842-8.913-.651-7.529-1.5-17.955-1.537-29.5-.013-11.547.812-21.976,1.549-29.5.37-3.763.715-6.8.971-8.9.129-1.03.233-1.838.306-2.416.035-.259.067-.465.09-.626a.856.856,0,0,1,.042-.213" transform="translate(56.373 86.777)" fill="#e0e0e0"/>
            <path id="Trazado_769501" data-name="Trazado 769501" d="M109.078,140.853a6.1,6.1,0,0,1-1.055.161c-.681.072-1.664.2-2.871.4a53.357,53.357,0,0,0-17.937,6.281c-1.065.6-1.915,1.112-2.493,1.478a6.1,6.1,0,0,1-.924.534,6.081,6.081,0,0,1,.847-.65c.556-.405,1.388-.949,2.441-1.584a47.821,47.821,0,0,1,18.027-6.313c1.219-.162,2.21-.256,2.9-.286a5.972,5.972,0,0,1,1.068-.02" transform="translate(56.491 94.944)" fill="#e0e0e0"/>
            <path id="Trazado_769502" data-name="Trazado 769502" d="M93.769,151.35a1.814,1.814,0,0,1-.1-.4c-.054-.3-.121-.691-.2-1.165a16.606,16.606,0,0,0-.365-1.83c-.182-.7-.321-1.523-.626-2.387q-.206-.655-.432-1.369c-.147-.477-.367-.949-.556-1.453-.365-1.013-.891-2.036-1.413-3.126a41.117,41.117,0,0,0-4.316-6.556A50.791,50.791,0,0,0,75.2,123.489c-.74-.542-1.46-.959-2.066-1.363s-1.148-.72-1.59-.981l-1.011-.613a1.677,1.677,0,0,1-.34-.236,1.876,1.876,0,0,1,.375.172l1.046.556c.454.243,1.008.541,1.626.931s1.349.79,2.1,1.321a48.376,48.376,0,0,1,10.7,9.556,39.716,39.716,0,0,1,4.331,6.633,33.541,33.541,0,0,1,1.4,3.167c.186.511.4.989.541,1.473s.281.944.414,1.386a24.141,24.141,0,0,1,.579,2.417,14.983,14.983,0,0,1,.306,1.852c.055.479.1.869.136,1.177a1.863,1.863,0,0,1,.023.412" transform="translate(47.317 81.095)" fill="#e0e0e0"/>
            <path id="Trazado_769503" data-name="Trazado 769503" d="M119.758,127.182a1.8,1.8,0,0,1-.38.169l-1.11.419c-.969.348-2.362.881-4.07,1.565a117.378,117.378,0,0,0-25.132,13.83c-1.492,1.076-2.685,1.969-3.5,2.6l-.948.715a1.8,1.8,0,0,1-.347.229,1.777,1.777,0,0,1,.3-.286l.906-.768c.789-.665,1.96-1.59,3.437-2.7A105.215,105.215,0,0,1,114.1,129.1c1.724-.656,3.134-1.152,4.117-1.46l1.133-.355a1.848,1.848,0,0,1,.4-.1" transform="translate(56.811 85.736)" fill="#e0e0e0"/>
            <path id="Trazado_769504" data-name="Trazado 769504" d="M105.628,212.722H77.145l-2.978-34.8h34.8Z" transform="translate(49.999 119.944)" fill="#e0e0e0"/>
            <rect id="Rectángulo_363015" data-name="Rectángulo 363015" width="39.315" height="5.351" transform="translate(121.961 297.867)" fill="#e0e0e0"/>
            <path id="Trazado_769505" data-name="Trazado 769505" d="M111.995,181.2c0,.1-8.791.181-19.634.181s-19.634-.082-19.634-.181,8.789-.181,19.634-.181,19.634.082,19.634.181" transform="translate(49.027 122.031)" fill="#ebebeb"/>
            <rect id="Rectángulo_363016" data-name="Rectángulo 363016" width="30.538" height="24.194" transform="translate(280.824 333.207) rotate(-89.552)" fill="#ebebeb"/>
            <path id="Trazado_769506" data-name="Trazado 769506" d="M178.4,181.449l-.43,29.569-3.822-.03.819-29.565Z" transform="translate(117.398 122.303)" fill="#fafafa"/>
            <path id="Trazado_769507" data-name="Trazado 769507" d="M159.681,181.3l13.88.109,24.193.189-24.22,3.186-.2,26.2-13.874-.109Z" transform="translate(107.495 122.224)" fill="#e0e0e0"/>
            <path id="Trazado_769508" data-name="Trazado 769508" d="M165.985,181.353l-.551,29.567-4.12-.032.673-29.567Z" transform="translate(108.747 122.235)" fill="#fafafa"/>
            <path id="Trazado_769509" data-name="Trazado 769509" d="M175.3,179.812c.005.186-.4.378-1.142.561a18.042,18.042,0,0,1-3.208.429,18.774,18.774,0,0,1-2.28-.025c-.414-.032-.842-.075-1.284-.146a10.681,10.681,0,0,1-1.416-.3,4.027,4.027,0,0,1-.869-.375,2.722,2.722,0,0,1-.919-.862,2.56,2.56,0,0,1-.4-1.331,4.262,4.262,0,0,1,.117-1.028,17.707,17.707,0,0,1,.927-3.064,8.276,8.276,0,0,1,.886-1.56,7.21,7.21,0,0,1,.6-.7,4.461,4.461,0,0,1,.805-.653,3.338,3.338,0,0,1,1.095-.439,2.9,2.9,0,0,1,1.254.03,4.19,4.19,0,0,1,1.656.917,13.345,13.345,0,0,1,3.179,3.9,9.567,9.567,0,0,1,1.07,3.178c.094.79,0,1.241-.176,1.281-.392.094-.959-1.463-2.5-3.422a15.723,15.723,0,0,0-3.105-2.977,1.864,1.864,0,0,0-.7-.363.332.332,0,0,0-.134.015.942.942,0,0,0-.209.112,1.941,1.941,0,0,0-.306.273c-.107.119-.234.278-.343.427a6.373,6.373,0,0,0-.584,1.061,19.967,19.967,0,0,0-.83,2.6,2.171,2.171,0,0,0-.074.38l0,.028,0,.005c-.015,0-.055.012-.075.017-.084.022-.107.044-.05.01.01-.008.065-.045.089-.067,0,0,0,.005.005.012a.291.291,0,0,0,.069.064,1.674,1.674,0,0,0,.345.181,10.171,10.171,0,0,0,1.078.326c.373.1.745.179,1.108.253.725.146,1.42.251,2.061.338,1.284.171,2.357.286,3.1.43s1.165.3,1.17.491" transform="translate(110.414 114.777)" fill="#e0e0e0"/>
            <path id="Trazado_769510" data-name="Trazado 769510" d="M170.432,180.525c-.067-.383,1.743-.951,4.567-1.78a39.564,39.564,0,0,0,4.761-1.708,4.636,4.636,0,0,0,1.031-.574c.112-.09.162-.172.147-.164s-.03.109-.034.055a2.611,2.611,0,0,0-.174-.424c-.114-.238-.229-.479-.347-.72a12.2,12.2,0,0,0-.735-1.316,5.473,5.473,0,0,0-.862-1.03,4.543,4.543,0,0,0-.487-.388,2.259,2.259,0,0,0-.442-.238,1.1,1.1,0,0,0-.713-.067,2.4,2.4,0,0,0-.854.5,18.763,18.763,0,0,0-3.306,3.593c-1.622,2.307-2.049,4.11-2.453,4.05-.177-.023-.31-.516-.248-1.4a10.3,10.3,0,0,1,1.045-3.6,15.785,15.785,0,0,1,3.318-4.508,4.783,4.783,0,0,1,1.714-1.085,3.664,3.664,0,0,1,2.394.035,4.738,4.738,0,0,1,1.008.494,7.049,7.049,0,0,1,.82.623,7.752,7.752,0,0,1,1.321,1.54,13.27,13.27,0,0,1,.9,1.636c.119.261.236.521.355.778a4.392,4.392,0,0,1,.357,1.108,2.516,2.516,0,0,1-.27,1.607,3.059,3.059,0,0,1-.9.988,6.592,6.592,0,0,1-1.654.825,24.691,24.691,0,0,1-5.3,1.269c-3.037.372-4.905.261-4.965-.09" transform="translate(114.784 114.285)" fill="#ebebeb"/>
            <rect id="Rectángulo_363017" data-name="Rectángulo 363017" width="10.108" height="35.561" transform="translate(262.772 303.494) rotate(-89.552)" fill="#e0e0e0"/>
            <rect id="Rectángulo_363018" data-name="Rectángulo 363018" width="10.107" height="32.144" transform="translate(275.848 303.596) rotate(-89.552)" fill="#ebebeb"/>
            <path id="Trazado_769511" data-name="Trazado 769511" d="M179.728,175.423l-.226,10.155-3.75-.079.263-10.105Z" transform="translate(118.481 118.24)" fill="#fafafa"/>
            <path id="Trazado_769512" data-name="Trazado 769512" d="M164.022,175.351l-.362,10.063-4.122-.033.221-10.113Z" transform="translate(107.551 118.154)" fill="#fafafa"/>
            <rect id="Rectángulo_363019" data-name="Rectángulo 363019" width="17.304" height="13.709" transform="matrix(0.008, -1, 1, 0.008, 307.603, 333.289)" fill="#ebebeb"/>
            <path id="Trazado_769513" data-name="Trazado 769513" d="M189.776,189.118l-.244,16.755-2.165-.017.464-16.753Z" transform="translate(126.311 127.481)" fill="#fafafa"/>
            <path id="Trazado_769514" data-name="Trazado 769514" d="M179.17,189.036l7.865.062,13.709.107-13.725,1.8-.116,14.843-7.862-.06Z" transform="translate(120.699 127.436)" fill="#e0e0e0"/>
            <path id="Trazado_769515" data-name="Trazado 769515" d="M182.742,189.063l-.313,16.755L180.1,205.8l.382-16.755Z" transform="translate(121.408 127.442)" fill="#fafafa"/>
            <path id="Trazado_769516" data-name="Trazado 769516" d="M188.1,188.264c0,.253-.9.566-2.469.695a8.874,8.874,0,0,1-2.875-.236,1.942,1.942,0,0,1-1.11-.77,1.633,1.633,0,0,1-.256-.849,2.549,2.549,0,0,1,.069-.628,10.045,10.045,0,0,1,.532-1.768,4.938,4.938,0,0,1,.522-.919,3.181,3.181,0,0,1,.849-.817,1.924,1.924,0,0,1,1.473-.251,2.512,2.512,0,0,1,1,.559,7.471,7.471,0,0,1,1.806,2.277c.742,1.5.633,2.561.393,2.6-.273.062-.643-.8-1.53-1.868a9.308,9.308,0,0,0-1.754-1.621.775.775,0,0,0-.331-.166l-.005,0,0-.037.005.047-.057.039a1.624,1.624,0,0,0-.315.352,3.537,3.537,0,0,0-.31.568,11.664,11.664,0,0,0-.464,1.436l-.039.171c.028,0-.094.005-.122.01a.959.959,0,0,0-.107.02c-.049.013-.062.025-.028.007a.819.819,0,0,0,.134-.119l.039-.044,0,0,.012.013a.658.658,0,0,0,.157.089,13.336,13.336,0,0,0,2.356.551c1.448.214,2.412.382,2.416.656" transform="translate(122.278 123.142)" fill="#e0e0e0"/>
            <path id="Trazado_769517" data-name="Trazado 769517" d="M185.3,188.7c-.05-.293.968-.683,2.546-1.2a25.168,25.168,0,0,0,2.643-1.013,2.256,2.256,0,0,0,.521-.3c.045-.039.044-.064.007-.01a.408.408,0,0,0-.049.2q-.136-.284-.276-.573a6.4,6.4,0,0,0-.4-.713,2.865,2.865,0,0,0-.44-.531,1.637,1.637,0,0,0-.435-.306.4.4,0,0,0-.233-.04,1.014,1.014,0,0,0-.4.221,11.169,11.169,0,0,0-1.872,1.942c-.943,1.246-1.256,2.237-1.559,2.2-.263-.01-.484-1.219.283-2.935A8.8,8.8,0,0,1,187.522,183a2.906,2.906,0,0,1,1.058-.675,2.342,2.342,0,0,1,1.528.017,2.968,2.968,0,0,1,.629.306,4.019,4.019,0,0,1,.5.377,4.585,4.585,0,0,1,.8.924,7.611,7.611,0,0,1,.527.961l.2.445a2.806,2.806,0,0,1,.221.7,1.688,1.688,0,0,1-.184,1.078,1.959,1.959,0,0,1-.584.645,3.908,3.908,0,0,1-1,.494,13.344,13.344,0,0,1-3.059.675c-1.743.164-2.807.032-2.854-.243" transform="translate(124.791 122.829)" fill="#e0e0e0"/>
            <rect id="Rectángulo_363020" data-name="Rectángulo 363020" width="5.727" height="20.15" transform="translate(297.373 316.452) rotate(-89.553)" fill="#e0e0e0"/>
            <rect id="Rectángulo_363021" data-name="Rectángulo 363021" width="5.727" height="18.215" transform="translate(304.783 316.51) rotate(-89.552)" fill="#ebebeb"/>
            <path id="Trazado_769518" data-name="Trazado 769518" d="M190.529,185.7l-.129,5.754-2.123-.044.147-5.727Z" transform="translate(126.924 125.178)" fill="#fafafa"/>
            <path id="Trazado_769519" data-name="Trazado 769519" d="M181.63,185.662l-.206,5.7-2.335-.018.126-5.731Z" transform="translate(120.73 125.13)" fill="#fafafa"/>
            <rect id="Rectángulo_363022" data-name="Rectángulo 363022" width="104.461" height="172.911" transform="translate(10.84)" fill="#e0e0e0"/>
            <rect id="Rectángulo_363023" data-name="Rectángulo 363023" width="104.461" height="172.911" transform="translate(7.366)" fill="#ebebeb"/>
            <rect id="Rectángulo_363024" data-name="Rectángulo 363024" width="95.565" height="165.898" transform="translate(11.814 3.507)" fill="#fafafa"/>
            <rect id="Rectángulo_363025" data-name="Rectángulo 363025" width="58.764" height="122.784" transform="translate(30.009 25.063)" fill="#ebebeb"/>
            <path id="Trazado_769520" data-name="Trazado 769520" d="M17.926,80.6C17.79,69.131,28.1,57.934,39.46,56.332c5.417-.763,11.172.311,16.232-1.765,9.032-3.7,11.906-15.705,21-19.264l.415,88.746H17.926Z" transform="translate(12.083 23.799)" fill="#e0e0e0"/>
          </g>
        </g>
        <g id="Grupo_1027963" data-name="Grupo 1027963">
          <g id="Grupo_1027962" data-name="Grupo 1027962" clip-path="url(#clip-path)">
            <path id="Trazado_769521" data-name="Trazado 769521" d="M347.586,199.228c0,.114-77.815.206-173.784.206-96,0-173.8-.092-173.8-.206s77.8-.206,173.8-.206c95.968,0,173.784.092,173.784.206" transform="translate(0 134.168)" fill="#5573c6"/>
          </g>
        </g>
        <g id="Grupo_1027965" data-name="Grupo 1027965">
          <g id="Grupo_1027964" data-name="Grupo 1027964" clip-path="url(#clip-path)">
            <path id="Trazado_769522" data-name="Trazado 769522" d="M257.678,269.876,94.9,269.791a9.113,9.113,0,0,1-9.109-9.119l.127-241.526a9.111,9.111,0,0,1,9.117-9.107l162.774.085a9.113,9.113,0,0,1,9.109,9.119L266.8,260.767a9.114,9.114,0,0,1-9.119,9.109" transform="translate(57.838 6.768)" fill="#373f51"/>
            <rect id="Rectángulo_363028" data-name="Rectángulo 363028" width="169.586" height="216.925" transform="translate(149.069 34.801)" fill="#fff"/>
            <path id="Trazado_769523" data-name="Trazado 769523" d="M149.6,160.224a6.945,6.945,0,1,1-6.941-6.949,6.945,6.945,0,0,1,6.941,6.949" transform="translate(91.485 103.328)" fill="#4adbd1"/>
            <path id="Trazado_769524" data-name="Trazado 769524" d="M177.2,17.421l-52.6-.028a.958.958,0,0,1-.959-.959v-.951a.958.958,0,0,1,.959-.958l52.6.027a.958.958,0,0,1,.958.959v.951a.959.959,0,0,1-.959.959" transform="translate(83.356 9.792)" fill="#4adbd1"/>
            <path id="Trazado_769525" data-name="Trazado 769525" d="M186.849,196.09h0a2.039,2.039,0,0,1-2.037-2.039l.082-154.005a2.038,2.038,0,0,1,4.077,0l-.082,154.005a2.038,2.038,0,0,1-2.039,2.037" transform="translate(124.588 25.623)" fill="#e0e0e0"/>
            <path id="Trazado_769526" data-name="Trazado 769526" d="M189.21,31.48c0,.114-15.734.2-35.137.188s-35.14-.11-35.14-.224,15.73-.2,35.14-.188,35.137.11,35.137.224" transform="translate(80.177 21.07)" fill="#5573c6"/>
            <path id="Trazado_769527" data-name="Trazado 769527" d="M98.935,37.391a1.586,1.586,0,0,1,.228-.017l.629-.022c.6-.017,1.378-.035,2.319-.06l-.074.075q-.013-.776-.028-1.684c0-.313-.027-.6,0-.971a.9.9,0,0,1,.79-.725c.377-.007.7-.023,1.112-.005a.914.914,0,0,1,.772.909c.008.785.018,1.605.027,2.454l-.121-.121,2.926-.028-.126.129c-.01-1.18-.022-2.4-.032-3.648,0-.311-.005-.621-.007-.929a.935.935,0,0,0-.407-.681q-.65-.64-1.279-1.262l-1.234-1.219q-.3-.3-.6-.591c-.208-.2-.365-.4-.6-.449a.77.77,0,0,0-.66.126c-.174.146-.365.36-.544.532l-1.051,1.06c-.66.685-1.351,1.313-1.85,1.9a2.077,2.077,0,0,0-.147,1.087q0,.542,0,1.031-.01.942-.015,1.659c-.007.419-.012.77-.015,1.065a3.215,3.215,0,0,1-.017.385,2.236,2.236,0,0,1-.022-.35c-.01-.29-.02-.635-.032-1.045q-.018-.726-.04-1.676-.01-.5-.02-1.053l-.01-.578a1.227,1.227,0,0,1,.162-.618c.546-.668,1.189-1.252,1.855-1.96q.507-.517,1.043-1.068c.189-.184.34-.365.566-.561a1.011,1.011,0,0,1,.862-.169,1.588,1.588,0,0,1,.708.507l.6.588q.608.6,1.239,1.215t1.281,1.259a1.189,1.189,0,0,1,.486.859c0,.31.005.621.008.934.008,1.249.017,2.468.025,3.648v.127h-.127l-2.926.017-.122,0v-.122c-.005-.849-.008-1.669-.012-2.454a.692.692,0,0,0-.579-.7c-.331-.018-.733-.007-1.058,0a.706.706,0,0,0-.623.557c-.027.29-.007.636-.013.934,0,.6,0,1.167,0,1.683v.075l-.074,0-2.362-.022-.613-.013a1.03,1.03,0,0,1-.2-.013" transform="translate(66.612 19.065)" fill="#5573c6"/>
            <path id="Trazado_769528" data-name="Trazado 769528" d="M183.9,29.583a.115.115,0,0,0-.089-.042l-6.9-.037-2.026,0-.6.008-.052-.4-.1-.777a.118.118,0,0,0-.116-.1h-.03l-1.887.01c-.151,0-.249.007-.249.124s.1.121.249.127l1.754.037.978,7.562a.115.115,0,0,0,.116.1l5.633.028,2.116-.01c.179,0,.27-.005.27-.124s-.089-.121-.27-.127l-7.555-.1-.181-1.339,7.944.107h0a.113.113,0,0,0,.114-.094l.586-3.161.315-1.7a.117.117,0,0,0-.025-.094m-9.574.172,9.219.119-.815,4.423-5.66-.025h-1.684l-.452.007Z" transform="translate(115.855 19.037)" fill="#5573c6"/>
            <path id="Trazado_769529" data-name="Trazado 769529" d="M175.711,34.344a.912.912,0,0,0-.32-.529.933.933,0,0,0-.892-.157.948.948,0,0,0-.017,1.788.929.929,0,0,0,.32.057.94.94,0,0,0,.576-.2.9.9,0,0,0,.328-.524.672.672,0,0,0,.013-.219.664.664,0,0,0-.008-.218m-1.115.792a.624.624,0,1,1,.6-1.078.659.659,0,0,1,.244.348,1.091,1.091,0,0,1,.028.134l0,.02,0,.02a.951.951,0,0,1-.032.134.675.675,0,0,1-.249.347.636.636,0,0,1-.6.075" transform="translate(117.204 22.655)" fill="#5573c6"/>
            <path id="Trazado_769530" data-name="Trazado 769530" d="M178.731,34.368a.9.9,0,0,0-.32-.529.934.934,0,0,0-.891-.157.948.948,0,0,0-.017,1.788.914.914,0,0,0,.318.057.936.936,0,0,0,.576-.2.9.9,0,0,0,.33-.524.674.674,0,0,0,.012-.219.69.69,0,0,0-.008-.218m-1.115.792a.621.621,0,0,1,.012-1.165.592.592,0,0,1,.216-.04.645.645,0,0,1,.378.127.67.67,0,0,1,.243.348,1.1,1.1,0,0,1,.028.134l.005.02-.005.02a.947.947,0,0,1-.032.134.663.663,0,0,1-.249.347.634.634,0,0,1-.6.075" transform="translate(119.24 22.671)" fill="#5573c6"/>
            <path id="Trazado_769531" data-name="Trazado 769531" d="M116.554,137.2c0,1.118-.81,1.793-2.146,1.793l-1.41,0,0,1.657h-.554l0-5.25h1.965c1.336,0,2.146.676,2.145,1.8m-.554,0c0-.84-.554-1.321-1.605-1.321H113l0,2.625h1.4c1.05,0,1.605-.479,1.605-1.3" transform="translate(75.801 91.276)" fill="#5573c6"/>
            <path id="Trazado_769532" data-name="Trazado 769532" d="M119.165,136.181l0,3.946h-.511v-.72a1.571,1.571,0,0,1-1.418.757,1.529,1.529,0,0,1-1.664-1.7l0-2.289h.532l0,2.235a1.1,1.1,0,0,0,1.184,1.269,1.284,1.284,0,0,0,1.344-1.433l0-2.069Z" transform="translate(77.91 91.803)" fill="#5573c6"/>
            <path id="Trazado_769533" data-name="Trazado 769533" d="M120.6,136.163v.517c-.045,0-.09-.007-.127-.007a1.275,1.275,0,0,0-1.329,1.453l0,2.011h-.532l0-3.946h.511v.773a1.487,1.487,0,0,1,1.478-.8" transform="translate(79.958 91.792)" fill="#5573c6"/>
            <path id="Trazado_769534" data-name="Trazado 769534" d="M120.112,138.166a1.941,1.941,0,0,1,2.032-2,1.719,1.719,0,0,1,1.545.782l-.4.27a1.334,1.334,0,0,0-1.147-.586,1.538,1.538,0,0,0,0,3.075,1.329,1.329,0,0,0,1.145-.576l.4.27a1.74,1.74,0,0,1-1.544.78,1.949,1.949,0,0,1-2.032-2.012" transform="translate(80.972 91.793)" fill="#5573c6"/>
            <path id="Trazado_769535" data-name="Trazado 769535" d="M126.467,138.495l0,2.289h-.532l0-2.237a1.1,1.1,0,0,0-1.185-1.261,1.293,1.293,0,0,0-1.379,1.425l0,2.071h-.532l0-5.566h.534l0,2.31a1.67,1.67,0,0,1,1.478-.72,1.511,1.511,0,0,1,1.619,1.689" transform="translate(82.808 91.153)" fill="#5573c6"/>
            <path id="Trazado_769536" data-name="Trazado 769536" d="M128.981,137.7v2.444h-.511v-.614a1.483,1.483,0,0,1-1.358.651c-.892,0-1.44-.465-1.44-1.148,0-.608.39-1.118,1.523-1.117h1.252v-.239c0-.676-.382-1.043-1.117-1.045a2.015,2.015,0,0,0-1.313.465l-.241-.4a2.517,2.517,0,0,1,1.607-.531,1.4,1.4,0,0,1,1.6,1.532m-.532,1.259v-.645l-1.237,0c-.765,0-1.013.3-1.013.7,0,.459.367.743,1,.743a1.263,1.263,0,0,0,1.252-.8" transform="translate(84.721 91.795)" fill="#5573c6"/>
            <path id="Trazado_769537" data-name="Trazado 769537" d="M128.187,139.692l.241-.42a2.379,2.379,0,0,0,1.4.444c.75,0,1.058-.254,1.058-.645,0-1.028-2.558-.219-2.556-1.78,0-.645.556-1.125,1.56-1.123a2.667,2.667,0,0,1,1.4.368l-.234.427a2.008,2.008,0,0,0-1.162-.338c-.713,0-1.028.276-1.028.651,0,1.066,2.558.265,2.556,1.78,0,.683-.6,1.125-1.627,1.125a2.635,2.635,0,0,1-1.605-.489" transform="translate(86.415 91.796)" fill="#5573c6"/>
            <path id="Trazado_769538" data-name="Trazado 769538" d="M134.3,138.339l-3.3,0a1.461,1.461,0,0,0,1.552,1.373,1.553,1.553,0,0,0,1.207-.517l.3.347a2.087,2.087,0,0,1-3.593-1.368,1.9,1.9,0,0,1,1.929-2,1.88,1.88,0,0,1,1.912,2c0,.045-.008.105-.008.166m-3.3-.4,2.8,0a1.4,1.4,0,0,0-2.8,0" transform="translate(87.954 91.796)" fill="#5573c6"/>
            <path id="Trazado_769539" data-name="Trazado 769539" d="M140.654,136.192l-1.5,3.944h-.5l-1.244-3.234-1.247,3.233h-.5l-1.483-3.946h.511l1.236,3.353,1.269-3.352h.459l1.257,3.353,1.256-3.352Z" transform="translate(90.456 91.809)" fill="#5573c6"/>
            <path id="Trazado_769540" data-name="Trazado 769540" d="M141.566,137.7v2.444h-.511v-.614a1.483,1.483,0,0,1-1.358.651c-.892,0-1.44-.465-1.44-1.148,0-.608.392-1.118,1.523-1.117h1.252v-.239c0-.676-.382-1.043-1.117-1.045a2.015,2.015,0,0,0-1.313.465l-.239-.4a2.509,2.509,0,0,1,1.605-.531,1.4,1.4,0,0,1,1.6,1.532m-.532,1.259v-.645l-1.237,0c-.765,0-1.013.3-1.013.7,0,.459.367.743,1,.743a1.262,1.262,0,0,0,1.254-.8" transform="translate(93.205 91.799)" fill="#5573c6"/>
            <path id="Trazado_769541" data-name="Trazado 769541" d="M140.772,139.7l.241-.42a2.375,2.375,0,0,0,1.4.444c.75,0,1.058-.254,1.058-.645,0-1.028-2.558-.219-2.556-1.78,0-.645.556-1.125,1.56-1.123a2.656,2.656,0,0,1,1.395.368l-.231.427a2.017,2.017,0,0,0-1.164-.338c-.713,0-1.028.276-1.028.651,0,1.066,2.558.264,2.558,1.78,0,.683-.6,1.125-1.629,1.125a2.635,2.635,0,0,1-1.605-.489" transform="translate(94.899 91.8)" fill="#5573c6"/>
            <path id="Trazado_769542" data-name="Trazado 769542" d="M144.138,139.7l.241-.42a2.375,2.375,0,0,0,1.4.444c.75,0,1.058-.254,1.058-.645,0-1.028-2.558-.219-2.556-1.78,0-.645.556-1.125,1.56-1.123a2.656,2.656,0,0,1,1.395.368l-.231.427a2.017,2.017,0,0,0-1.164-.338c-.713,0-1.028.276-1.028.651,0,1.066,2.558.264,2.558,1.78,0,.683-.6,1.125-1.629,1.125a2.635,2.635,0,0,1-1.605-.489" transform="translate(97.168 91.802)" fill="#5573c6"/>
            <path id="Trazado_769543" data-name="Trazado 769543" d="M150.229,136.2l0,3.946h-.511v-.72a1.571,1.571,0,0,1-1.418.757,1.529,1.529,0,0,1-1.664-1.7l0-2.289h.532l0,2.235a1.1,1.1,0,0,0,1.184,1.269,1.284,1.284,0,0,0,1.344-1.433l0-2.069Z" transform="translate(98.852 91.814)" fill="#5573c6"/>
            <path id="Trazado_769544" data-name="Trazado 769544" d="M149.436,138.181a1.944,1.944,0,0,1,2.034-2,1.726,1.726,0,0,1,1.545.782l-.4.27a1.338,1.338,0,0,0-1.147-.586,1.538,1.538,0,0,0,0,3.075,1.333,1.333,0,0,0,1.147-.576l.4.27a1.745,1.745,0,0,1-1.545.78,1.95,1.95,0,0,1-2.032-2.012" transform="translate(100.74 91.803)" fill="#5573c6"/>
            <path id="Trazado_769545" data-name="Trazado 769545" d="M151.919,138.182a1.944,1.944,0,0,1,2.034-2,1.726,1.726,0,0,1,1.545.782l-.4.27a1.339,1.339,0,0,0-1.147-.586,1.538,1.538,0,0,0,0,3.075,1.333,1.333,0,0,0,1.147-.576l.4.27a1.745,1.745,0,0,1-1.545.78,1.95,1.95,0,0,1-2.032-2.012" transform="translate(102.414 91.804)" fill="#5573c6"/>
            <path id="Trazado_769546" data-name="Trazado 769546" d="M158.234,138.352l-3.3,0a1.46,1.46,0,0,0,1.552,1.373,1.553,1.553,0,0,0,1.207-.517l.3.347a2.087,2.087,0,0,1-3.593-1.368,1.9,1.9,0,0,1,1.929-2,1.88,1.88,0,0,1,1.912,2c0,.045-.008.105-.008.166m-3.3-.4,2.8,0a1.4,1.4,0,0,0-2.8,0" transform="translate(104.088 91.805)" fill="#5573c6"/>
            <path id="Trazado_769547" data-name="Trazado 769547" d="M157.018,139.708l.241-.42a2.374,2.374,0,0,0,1.4.444c.75,0,1.058-.254,1.058-.645,0-1.028-2.558-.219-2.556-1.78,0-.645.556-1.125,1.56-1.123a2.656,2.656,0,0,1,1.395.368l-.231.427a2.017,2.017,0,0,0-1.164-.338c-.713,0-1.028.276-1.028.651,0,1.066,2.558.265,2.558,1.78,0,.683-.6,1.125-1.629,1.125a2.635,2.635,0,0,1-1.605-.489" transform="translate(105.851 91.806)" fill="#5573c6"/>
            <path id="Trazado_769548" data-name="Trazado 769548" d="M159.21,139.709l.241-.42a2.375,2.375,0,0,0,1.4.444c.75,0,1.058-.254,1.058-.645,0-1.028-2.558-.219-2.556-1.78,0-.645.556-1.125,1.56-1.123a2.656,2.656,0,0,1,1.395.368l-.231.427a2.017,2.017,0,0,0-1.164-.338c-.713,0-1.028.276-1.028.651,0,1.066,2.558.265,2.558,1.78,0,.683-.6,1.125-1.629,1.125a2.635,2.635,0,0,1-1.605-.489" transform="translate(107.329 91.807)" fill="#5573c6"/>
            <path id="Trazado_769549" data-name="Trazado 769549" d="M162.586,136.4v.465H163.8v.45h-1.2l0,3.5h-.532l0-3.5-.706,0v-.449h.706v-.487a1.085,1.085,0,0,1,1.194-1.17,1.255,1.255,0,0,1,.787.248l-.179.4a.9.9,0,0,0-.586-.2c-.457,0-.7.254-.7.742" transform="translate(108.78 91.152)" fill="#5573c6"/>
            <path id="Trazado_769550" data-name="Trazado 769550" d="M166.82,136.206l0,3.946h-.511v-.72a1.571,1.571,0,0,1-1.418.757,1.529,1.529,0,0,1-1.664-1.7l0-2.289h.532l0,2.235a1.105,1.105,0,0,0,1.185,1.269,1.283,1.283,0,0,0,1.343-1.433l0-2.069Z" transform="translate(110.036 91.82)" fill="#5573c6"/>
            <rect id="Rectángulo_363029" data-name="Rectángulo 363029" width="0.532" height="5.567" transform="translate(278.351 226.406)" fill="#5573c6"/>
            <path id="Trazado_769551" data-name="Trazado 769551" d="M121.072,128.186h-2.831v-1.343h7.247v1.343h-2.829v7.2h-1.587Z" transform="translate(79.71 85.51)" fill="#f4a338"/>
            <path id="Trazado_769552" data-name="Trazado 769552" d="M129.615,131.858v3.733H128.09v-3.537c0-1.16-.574-1.721-1.55-1.721a1.73,1.73,0,0,0-1.818,1.964v3.295H123.2v-9.054h1.525v3.295a2.9,2.9,0,0,1,2.173-.83,2.547,2.547,0,0,1,2.72,2.856" transform="translate(83.051 85.304)" fill="#f4a338"/>
            <path id="Trazado_769553" data-name="Trazado 769553" d="M133.829,130.781V134.6h-1.44v-.794a2.307,2.307,0,0,1-2.051.879c-1.488,0-2.427-.817-2.427-1.952,0-1.087.732-1.94,2.709-1.94H132.3v-.1c0-.891-.537-1.415-1.622-1.415a3.217,3.217,0,0,0-1.977.646l-.6-1.112a4.586,4.586,0,0,1,2.757-.805c1.878,0,2.965.892,2.965,2.771m-1.525,1.781v-.757H130.73c-1.038,0-1.318.39-1.318.867,0,.549.464.9,1.244.9a1.66,1.66,0,0,0,1.647-1.013" transform="translate(86.229 86.296)" fill="#f4a338"/>
            <path id="Trazado_769554" data-name="Trazado 769554" d="M139.03,130.866V134.6H137.5v-3.537c0-1.16-.573-1.721-1.55-1.721a1.731,1.731,0,0,0-1.818,1.964V134.6H132.61v-6.516h1.455v.842a2.831,2.831,0,0,1,2.245-.916,2.547,2.547,0,0,1,2.72,2.856" transform="translate(89.397 86.296)" fill="#f4a338"/>
            <path id="Trazado_769555" data-name="Trazado 769555" d="M140.262,132.8l-1.135,1.075v1.719H137.6v-9.054h1.525V132l3.161-2.928h1.83l-2.72,2.734,2.977,3.782h-1.853Z" transform="translate(92.762 85.303)" fill="#f4a338"/>
            <path id="Trazado_769556" data-name="Trazado 769556" d="M150.835,128.054l-3.05,7.04a2.527,2.527,0,0,1-2.513,1.929,2.7,2.7,0,0,1-1.746-.6l.611-1.123a1.648,1.648,0,0,0,1.122.452c.537,0,.854-.256,1.147-.9l.11-.258-2.843-6.539h1.585l2.051,4.82,2.061-4.82Z" transform="translate(96.756 86.326)" fill="#f4a338"/>
            <path id="Trazado_769557" data-name="Trazado 769557" d="M148.029,131.342a3.474,3.474,0,1,1,3.465,3.343,3.281,3.281,0,0,1-3.465-3.343m5.406,0a1.936,1.936,0,1,0-1.94,2.037,1.9,1.9,0,0,0,1.94-2.037" transform="translate(99.791 86.296)" fill="#f4a338"/>
            <path id="Trazado_769558" data-name="Trazado 769558" d="M159.378,128.054v6.516h-1.451v-.83a2.665,2.665,0,0,1-2.1.916,2.578,2.578,0,0,1-2.806-2.88v-3.722h1.525v3.514c0,1.184.561,1.744,1.525,1.744a1.717,1.717,0,0,0,1.781-1.964v-3.295Z" transform="translate(103.157 86.326)" fill="#f4a338"/>
            <path id="Trazado_769559" data-name="Trazado 769559" d="M157.845,134.518a.945.945,0,0,1,.989-.939.945.945,0,1,1,0,1.89.953.953,0,0,1-.989-.951m.085-7.674h1.806l-.3,5.71h-1.209Z" transform="translate(106.409 85.51)" fill="#f4a338"/>
          </g>
        </g>
        <g id="Grupo_1027973" data-name="Grupo 1027973">
          <g id="Grupo_1027972" data-name="Grupo 1027972" clip-path="url(#clip-path)">
            <path id="Trazado_769560" data-name="Trazado 769560" d="M163.764,56.86,161.46,89.5a10.177,10.177,0,0,1-20.307-1.383c.2-3.107.39-5.65.39-5.65s-7.9-1.229-8-9.129c-.055-4.564.732-14.918,1.406-22.852a10.361,10.361,0,0,1,10.328-9.479h4.773A14.621,14.621,0,0,1,163.764,56.86" transform="translate(90.024 27.645)" fill="#ffbe9d"/>
            <path id="Trazado_769561" data-name="Trazado 769561" d="M138.376,67a19.076,19.076,0,0,0,10.288-3.042s-2.545,5.749-10.428,5.037Z" transform="translate(93.189 43.114)" fill="#eb996e"/>
            <path id="Trazado_769562" data-name="Trazado 769562" d="M135.273,51.654c.141.147.994-.485,2.208-.482,1.214-.015,2.1.611,2.237.462.064-.067-.079-.331-.467-.614a3.092,3.092,0,0,0-1.788-.551,2.965,2.965,0,0,0-1.76.568c-.373.286-.5.552-.43.618" transform="translate(91.18 34.023)" fill="#373f51"/>
            <path id="Trazado_769563" data-name="Trazado 769563" d="M141.73,53.6a1.127,1.127,0,0,0,1.088,1.138,1.081,1.081,0,0,0,1.164-1.018,1.13,1.13,0,0,0-1.088-1.138A1.08,1.08,0,0,0,141.73,53.6" transform="translate(95.545 35.446)" fill="#373f51"/>
            <path id="Trazado_769564" data-name="Trazado 769564" d="M135.256,53.6a1.129,1.129,0,0,0,1.088,1.138,1.08,1.08,0,0,0,1.164-1.018,1.13,1.13,0,0,0-1.088-1.138,1.08,1.08,0,0,0-1.164,1.018" transform="translate(91.18 35.446)" fill="#373f51"/>
            <path id="Trazado_769565" data-name="Trazado 769565" d="M142.277,51.752c.141.147,1-.486,2.21-.482,1.212-.013,2.1.609,2.235.462.064-.067-.077-.331-.465-.614a3.093,3.093,0,0,0-1.79-.551,2.955,2.955,0,0,0-1.758.568c-.373.286-.5.552-.432.618" transform="translate(95.902 34.089)" fill="#373f51"/>
            <path id="Trazado_769566" data-name="Trazado 769566" d="M140.936,60.989a8.049,8.049,0,0,0-1.972-.355c-.31-.033-.6-.094-.656-.306a1.586,1.586,0,0,1,.208-.919q.437-1.125.917-2.361a40.737,40.737,0,0,0,2.059-6.174,40.551,40.551,0,0,0-2.551,6q-.46,1.243-.879,2.374a1.8,1.8,0,0,0-.161,1.217.781.781,0,0,0,.511.454,2.06,2.06,0,0,0,.526.072,7.9,7.9,0,0,0,2,0" transform="translate(92.925 34.296)" fill="#373f51"/>
            <path id="Trazado_769567" data-name="Trazado 769567" d="M143.383,57.418c-.2-.012-.2,1.306-1.328,2.242s-2.531.79-2.541.974c-.018.084.313.256.906.273a3.28,3.28,0,0,0,2.121-.74,2.859,2.859,0,0,0,1.03-1.88c.05-.551-.1-.877-.187-.869" transform="translate(94.051 38.707)" fill="#373f51"/>
            <path id="Trazado_769568" data-name="Trazado 769568" d="M142.319,49.011c.121.33,1.333.174,2.756.345,1.428.144,2.578.561,2.766.265.085-.142-.116-.452-.579-.772a4.822,4.822,0,0,0-4.207-.464c-.522.211-.787.47-.735.626" transform="translate(95.938 32.427)" fill="#373f51"/>
            <path id="Trazado_769569" data-name="Trazado 769569" d="M135.166,49.493c.214.276,1.05-.01,2.056-.023,1-.049,1.857.184,2.052-.1.087-.141-.047-.415-.42-.676a2.975,2.975,0,0,0-3.31.1c-.355.283-.472.568-.378.7" transform="translate(91.1 32.518)" fill="#373f51"/>
            <path id="Trazado_769570" data-name="Trazado 769570" d="M150.126,54.119c.134-.059,5.428-1.605,5.255,3.8s-5.558,4.115-5.563,3.959.308-7.755.308-7.755" transform="translate(100.998 36.316)" fill="#ffbe9d"/>
            <path id="Trazado_769571" data-name="Trazado 769571" d="M150.844,59.168c.025-.017.092.069.249.147a.945.945,0,0,0,.7.037A2.328,2.328,0,0,0,152.94,57.3a3.115,3.115,0,0,0-.221-1.356,1.087,1.087,0,0,0-.685-.745.479.479,0,0,0-.563.239c-.079.149-.047.258-.075.266s-.114-.094-.064-.315a.6.6,0,0,1,.224-.331.71.71,0,0,1,.524-.122,1.325,1.325,0,0,1,.956.869,3.192,3.192,0,0,1,.278,1.517,2.442,2.442,0,0,1-1.446,2.289,1.008,1.008,0,0,1-.855-.171c-.164-.139-.187-.259-.169-.27" transform="translate(101.686 37.028)" fill="#eb996e"/>
            <path id="Trazado_769572" data-name="Trazado 769572" d="M161.8,63.041a2.838,2.838,0,0,0-2.6,1.333c-.352.772-.429,1.646-.778,2.417a1.909,1.909,0,0,1-1.967,1.274,1.658,1.658,0,0,1-1.125-1.232,4.552,4.552,0,0,1-.017-1.743c.318-2.521.849-5.024.951-7.564a12.983,12.983,0,0,0-1.6-7.344,7.1,7.1,0,0,0-6.318-3.551c-1.679.134-3.218,1.009-4.885,1.244a6.6,6.6,0,0,1-5.483-1.83c-.182-.181-1.025-.737-1.025-.737a3.115,3.115,0,0,1,.568-1.671c3.31-3.06,9.271-3.914,13.641-2.814a15.759,15.759,0,0,1,10.348,8.282c1.88,4.095,1.323,9.79.286,13.936" transform="translate(92.328 27.211)" fill="#373f51"/>
            <path id="Trazado_769573" data-name="Trazado 769573" d="M134.17,47.189a5.156,5.156,0,0,0,4.291,2.776,14.26,14.26,0,0,0,5.274-.767,41.308,41.308,0,0,1,8.118-1.2c.266.008.588,0,.73-.223.188-.3-.114-.663-.392-.881-2.354-1.845-8.048-2.977-11.036-3.1a8.792,8.792,0,0,0-7.745,3.675" transform="translate(89.936 29.517)" fill="#373f51"/>
            <path id="Trazado_769574" data-name="Trazado 769574" d="M134.328,50.3a10.131,10.131,0,0,1,5.885-2.659c6.832-.583,18.035,1.517,23.918,13.284a27.018,27.018,0,0,0,1.23-6.255c0-1.607-.963-11.175-10.807-14.185,0,0-14.833-5.662-20.227,9.814" transform="translate(90.555 26.612)" fill="#f4a338"/>
            <g id="Grupo_1027968" data-name="Grupo 1027968" transform="translate(224.883 66.088)" opacity="0.4">
              <g id="Grupo_1027967" data-name="Grupo 1027967">
                <g id="Grupo_1027966" data-name="Grupo 1027966" clip-path="url(#clip-path-6)">
                  <path id="Trazado_769575" data-name="Trazado 769575" d="M134.328,50.3a9.635,9.635,0,0,1,6.591-2.993c6.114-.27,17.669,2.53,23.212,13.619a27.018,27.018,0,0,0,1.23-6.255c0-1.607-.963-11.175-10.807-14.185,0,0-14.833-5.662-20.227,9.814" transform="translate(-134.328 -39.476)"/>
                </g>
              </g>
            </g>
            <path id="Trazado_769576" data-name="Trazado 769576" d="M167.263,59.073c-2.952-4.962-7.368-8.374-12.131-11.349S142.489,41.8,137.06,40.361a11.808,11.808,0,0,0-4.991-.522,4.5,4.5,0,0,0-3.7,3.029c-.516,2.047,3.114,5.2,4.823,6.447a56.026,56.026,0,0,0,5.188,3.064s-.049-3.81,6.03-4.579c8.287-1.046,23.1,11.486,22.854,11.274" transform="translate(86.504 26.789)" fill="#f4a338"/>
            <path id="Trazado_769577" data-name="Trazado 769577" d="M149.6,43.652a29.367,29.367,0,0,0-5.531-2.181,29.324,29.324,0,0,0-5.916-.6,5.507,5.507,0,0,1,1.756-.239,15.867,15.867,0,0,1,8.242,2,5.433,5.433,0,0,1,1.45,1.018" transform="translate(93.133 27.384)" fill="#fff"/>
            <path id="Trazado_769578" data-name="Trazado 769578" d="M205.691,119.416c0,.114-20.2.206-45.118.206s-45.123-.092-45.123-.206,20.2-.206,45.123-.206,45.118.092,45.118.206" transform="translate(77.829 80.364)" fill="#5573c6"/>
            <path id="Trazado_769579" data-name="Trazado 769579" d="M133.492,84.565l-11.615,5.253L103.85,75.125l-5.493,8.7S108.621,95.7,112.425,99.731s6.34,6.188,9.337,5.8,20.116-8.453,20.116-8.453-4.031-12.007-8.386-12.516" transform="translate(66.306 50.644)" fill="#ffbe9d"/>
            <path id="Trazado_769580" data-name="Trazado 769580" d="M91.1,70.7s2.265,1.7,3.745,1.594,7.09-.136,7.508-.107,5.89,3.007,5.89,3.007l4.008,3.856-6.29,8.744s-1.04-1.194-1.746-1.1a81.431,81.431,0,0,1-10.651-1.095c-1.3-.442-2.965-.7-3.4-1.5s-.536-1.369.66-2.407a1.97,1.97,0,0,1-.439-2.764s-1.8-1.318-1.155-2.535c0,0-1.021-.422-1.187-1.065a6.929,6.929,0,0,1,.072-2.029l2.58-.8s-.78-.9.405-1.795" transform="translate(59.312 47.661)" fill="#ffbe9d"/>
            <path id="Trazado_769581" data-name="Trazado 769581" d="M89.642,72.008c0-.03.122-.054.335-.114a3.809,3.809,0,0,1,.963-.2,2.358,2.358,0,0,1,1.4.547,1.629,1.629,0,0,1,.536,1.773,1.27,1.27,0,0,1-.7.753,4.32,4.32,0,0,1-.84.239l-1.388.288a4.218,4.218,0,0,1-1.3.164,4.229,4.229,0,0,1,1.236-.447c.447-.121.9-.246,1.366-.373.519-.129,1.09-.249,1.242-.762a1.268,1.268,0,0,0-.4-1.351,2.233,2.233,0,0,0-1.162-.541,6.946,6.946,0,0,0-.926.064c-.231.013-.36-.017-.36-.044" transform="translate(59.758 48.333)" fill="#eb996e"/>
            <path id="Trazado_769582" data-name="Trazado 769582" d="M92.319,73.381a1.788,1.788,0,0,1,.6-.169,9.339,9.339,0,0,1,1.7-.191,4.42,4.42,0,0,1,2.494.643,2.136,2.136,0,0,1,.941,1.289,1.479,1.479,0,0,1-.645,1.6,4,4,0,0,1-1.637.335l-1.48.117-2.506.172a12.881,12.881,0,0,1-2.32.055,13.131,13.131,0,0,1,2.3-.345l2.5-.261,1.478-.139a3.835,3.835,0,0,0,1.462-.288,1.079,1.079,0,0,0,.459-1.169,1.778,1.778,0,0,0-.76-1.055,4.33,4.33,0,0,0-2.285-.666c-1.4-.023-2.294.151-2.3.07" transform="translate(60.316 49.226)" fill="#eb996e"/>
            <path id="Trazado_769583" data-name="Trazado 769583" d="M97.419,75.127c.01-.02.164.023.331.243a1.285,1.285,0,0,1,.147,1.117,1.927,1.927,0,0,1-1.217,1.138,6.565,6.565,0,0,1-1.96.26c-2.715.127-4.872.66-4.9.541a13.669,13.669,0,0,1,4.882-.951,7.113,7.113,0,0,0,1.853-.206,1.688,1.688,0,0,0,1.071-.881,1.2,1.2,0,0,0-.013-.936c-.1-.209-.213-.3-.193-.325" transform="translate(60.549 50.643)" fill="#eb996e"/>
            <path id="Trazado_769584" data-name="Trazado 769584" d="M102.88,76.46a2.679,2.679,0,0,1-1.14.44,8.32,8.32,0,0,1-5.757-.77c-.665-.367-1.011-.685-.983-.725a16.316,16.316,0,0,0,3.847,1.222,16.279,16.279,0,0,0,4.033-.167" transform="translate(64.041 50.828)" fill="#eb996e"/>
            <path id="Trazado_769585" data-name="Trazado 769585" d="M94.335,73.748c.054-.105.613.092,1.306.007.693-.067,1.2-.383,1.271-.293.085.072-.393.613-1.225.7s-1.418-.326-1.351-.415" transform="translate(63.591 49.512)" fill="#eb996e"/>
            <path id="Trazado_769586" data-name="Trazado 769586" d="M93.972,80.081a3.98,3.98,0,0,1,3.445-3.214,17.172,17.172,0,0,0-1.969,1.343,17.359,17.359,0,0,0-1.477,1.872" transform="translate(63.335 51.799)" fill="#eb996e"/>
            <path id="Trazado_769587" data-name="Trazado 769587" d="M85.477,92.333h34.276l6.358,50.129H78.783Z" transform="translate(53.111 62.245)" fill="#f4a338"/>
            <path id="Trazado_769588" data-name="Trazado 769588" d="M103.255,92.333h3.966l11.694,50.129h-9.3Z" transform="translate(69.608 62.245)" fill="#f4a338"/>
            <g id="Grupo_1027971" data-name="Grupo 1027971" transform="translate(172.863 154.578)" opacity="0.3">
              <g id="Grupo_1027970" data-name="Grupo 1027970">
                <g id="Grupo_1027969" data-name="Grupo 1027969" clip-path="url(#clip-path-7)">
                  <path id="Trazado_769589" data-name="Trazado 769589" d="M103.255,92.333h3.966l11.694,50.129h-9.3Z" transform="translate(-103.255 -92.333)"/>
                </g>
              </g>
            </g>
            <path id="Trazado_769590" data-name="Trazado 769590" d="M92.854,76.778c0-.023.1-.057.276-.015a1.04,1.04,0,0,1,.6.467,1.275,1.275,0,0,1,.109,1.133,1.905,1.905,0,0,1-.929,1.015,3.8,3.8,0,0,1-1.741.342l.151-.1c-.449.862-.986,1.242-1.025,1.194-.062-.055.358-.514.708-1.341l.039-.09.112-.01a4.152,4.152,0,0,0,1.565-.358,1.664,1.664,0,0,0,.768-.785,1.022,1.022,0,0,0-.012-.857c-.229-.489-.638-.532-.621-.593" transform="translate(60.867 51.735)" fill="#eb996e"/>
            <path id="Trazado_769591" data-name="Trazado 769591" d="M87.987,103.87a4.8,4.8,0,0,1,.075-1.016c.072-.653.206-1.59.4-2.747.373-2.314,1-5.488,1.739-8.982s1.411-6.655,1.857-8.95c.209-1.085.385-2,.526-2.719a4.734,4.734,0,0,1,.233-.993,4.8,4.8,0,0,1-.075,1.016c-.074.651-.206,1.59-.4,2.747-.373,2.312-1,5.488-1.741,8.983s-1.41,6.653-1.855,8.948c-.211,1.085-.387,2-.526,2.719a4.912,4.912,0,0,1-.233.993" transform="translate(59.308 52.895)" fill="#f4a338"/>
            <path id="Trazado_769592" data-name="Trazado 769592" d="M101.885,105.957a6.956,6.956,0,0,1-.378-1.152c-.229-.824-.527-1.893-.887-3.183-.73-2.69-1.713-6.415-2.774-10.535s-2-7.858-2.657-10.569c-.308-1.3-.562-2.382-.76-3.213a6.793,6.793,0,0,1-.223-1.192,6.946,6.946,0,0,1,.378,1.153c.229.822.527,1.893.887,3.181.73,2.692,1.713,6.417,2.772,10.537s2,7.855,2.657,10.565c.308,1.3.564,2.382.76,3.213a6.926,6.926,0,0,1,.224,1.194" transform="translate(63.504 51.311)" fill="#f4a338"/>
            <path id="Trazado_769593" data-name="Trazado 769593" d="M116.355,124.38a9.881,9.881,0,0,1-1.649-1.153c-.986-.753-2.33-1.816-3.8-3.01l-.743-.606.3-.045c-.921,1.39-1.751,2.608-2.362,3.472a7.68,7.68,0,0,1-1.045,1.343,7.562,7.562,0,0,1,.819-1.492c.551-.9,1.339-2.15,2.248-3.548l.124-.187.176.142c.239.194.489.4.745.6,1.468,1.194,2.782,2.292,3.722,3.1a9.9,9.9,0,0,1,1.467,1.379" transform="translate(72.167 80.325)" fill="#5573c6"/>
            <path id="Trazado_769594" data-name="Trazado 769594" d="M104.5,92.333c.112-.018,1.885,10.085,3.959,22.566s3.668,22.618,3.556,22.636-1.885-10.083-3.961-22.569-3.666-22.614-3.554-22.633" transform="translate(70.444 62.245)" fill="#5573c6"/>
            <path id="Trazado_769595" data-name="Trazado 769595" d="M120.377,103.689a8.566,8.566,0,0,1-.8.758,14.113,14.113,0,0,1-2.615,1.78,15.581,15.581,0,0,1-4.731,1.626,14,14,0,0,1-6.6-.385,8.133,8.133,0,0,1-3.313-2.017,6.25,6.25,0,0,1-1.8-3.792,4.918,4.918,0,0,1,1.708-4.123,3.937,3.937,0,0,1,2.222-.926,4.6,4.6,0,0,1,2.419.5,5.8,5.8,0,0,1,1.94,1.614,6.573,6.573,0,0,1,1.1,2.327,11.544,11.544,0,0,1-.018,5.235,17.717,17.717,0,0,1-5.382,9.435,16.223,16.223,0,0,1-4.7,3.017,11.662,11.662,0,0,1-5.346.912,9.083,9.083,0,0,1-4.878-1.89,6.9,6.9,0,0,1-2.61-4.264,6.475,6.475,0,0,1,.921-4.669,4.4,4.4,0,0,1,3.9-2.109,2.849,2.849,0,0,1,1.932,1.041,4.264,4.264,0,0,1,.877,1.912,6.817,6.817,0,0,1-.452,3.854,10.3,10.3,0,0,1-4.395,4.9,15.35,15.35,0,0,1-4.7,1.7,24.209,24.209,0,0,1-3.137.4c-.36.02-.634.033-.82.035a1.416,1.416,0,0,1-.28,0,1.278,1.278,0,0,1,.278-.038l.815-.075a27.921,27.921,0,0,0,3.111-.474,15.488,15.488,0,0,0,4.621-1.743,10.109,10.109,0,0,0,4.242-4.806,6.543,6.543,0,0,0,.41-3.681,3.944,3.944,0,0,0-.817-1.765,2.513,2.513,0,0,0-1.714-.914,4.057,4.057,0,0,0-3.569,1.97,6.1,6.1,0,0,0-.849,4.4,6.522,6.522,0,0,0,2.479,4.021,8.691,8.691,0,0,0,4.667,1.8c3.479.273,7.023-1.361,9.733-3.83a17.35,17.35,0,0,0,5.263-9.214,11.178,11.178,0,0,0,.033-5.053,6.145,6.145,0,0,0-1.031-2.191,5.415,5.415,0,0,0-1.8-1.512,4.217,4.217,0,0,0-2.218-.47,3.56,3.56,0,0,0-2.021.834,4.571,4.571,0,0,0-1.6,3.819,5.926,5.926,0,0,0,1.693,3.6,7.852,7.852,0,0,0,3.179,1.964,13.848,13.848,0,0,0,6.471.434,15.675,15.675,0,0,0,4.7-1.542,15.177,15.177,0,0,0,2.635-1.7c.288-.216.487-.405.631-.522a1.4,1.4,0,0,1,.221-.172" transform="translate(54.484 65.118)" fill="#fff"/>
            <path id="Trazado_769596" data-name="Trazado 769596" d="M143.177,71.594H137c-1.994.7-18.037,14.349-18.037,14.349l9.069,14.249,11.757-6.874Z" transform="translate(80.196 48.264)" fill="#4adbd1"/>
            <path id="Trazado_769597" data-name="Trazado 769597" d="M133.337,74.443l13.651-5.181s1.994,4.185,8.073,3.288,13.252-5.181,13.252-5.181,10.463,5.978,13.552,8.469-2.491,54.706-2.491,54.706l-1.4,15.645s1.1.8,1.1,3.487.1,4.485.1,4.485H125.091s-1.321-6.278-.325-8.769a32.431,32.431,0,0,1,2.64-4.982l.847-24.114.3-21.524Z" transform="translate(83.859 45.415)" fill="#4adbd1"/>
            <path id="Trazado_769598" data-name="Trazado 769598" d="M165.832,72.427s4.363,1.232,5.657,7.7,1.06,31.186,1.06,31.186l-24.37-5.279s3.3-10.373,3.3-11.079,6.708-17.418,6.944-17.771,7.4-4.761,7.4-4.761" transform="translate(99.892 48.826)" fill="#4adbd1"/>
            <path id="Trazado_769599" data-name="Trazado 769599" d="M126.675,77.666c.114,0,.27,4.319.348,9.648s.05,9.653-.062,9.655-.27-4.318-.348-9.648-.052-9.653.062-9.655" transform="translate(85.324 52.357)" fill="#5573c6"/>
            <path id="Trazado_769600" data-name="Trazado 769600" d="M154.215,79.049a3.478,3.478,0,0,1-.092.859c-.084.547-.226,1.336-.417,2.309-.382,1.944-.976,4.616-1.744,7.539s-1.567,5.545-2.191,7.425c-.311.939-.576,1.7-.772,2.215a3.573,3.573,0,0,1-.343.792,3.464,3.464,0,0,1,.191-.842q.266-.927.646-2.252c.552-1.9,1.3-4.525,2.073-7.442s1.4-5.572,1.857-7.5q.321-1.341.546-2.278a3.427,3.427,0,0,1,.248-.827" transform="translate(100.21 53.29)" fill="#5573c6"/>
            <path id="Trazado_769601" data-name="Trazado 769601" d="M150.845,78.736a30.052,30.052,0,0,1-.057,4.974,30.075,30.075,0,0,1-.467,4.952,30.5,30.5,0,0,1,.057-4.974,30.068,30.068,0,0,1,.467-4.952" transform="translate(101.29 53.079)" fill="#5573c6"/>
            <path id="Trazado_769602" data-name="Trazado 769602" d="M151.19,83.695a33.379,33.379,0,0,1-5.23.206,33.375,33.375,0,0,1-5.232-.206,33.372,33.372,0,0,1,5.232-.206,33.376,33.376,0,0,1,5.23.206" transform="translate(94.87 56.283)" fill="#fff"/>
            <path id="Trazado_769603" data-name="Trazado 769603" d="M131.256,112.982l26.964-3.241,4.252-17.071,15.086,3.266s-5.967,23.7-12.116,25.989-36.57-1.58-36.57-1.58Z" transform="translate(86.877 62.472)" fill="#ffbe9d"/>
            <path id="Trazado_769604" data-name="Trazado 769604" d="M140.191,105.323a32.044,32.044,0,0,0-4.49-1.52c-1.252-.186-2.727.089-3.1.691l-7.277,4.217s-5.377-.509-5.886.7c0,0-3.43-.974-3.986-.28,0,0-1.716.557-1.438,1.344s6.491,2.967,6.491,2.967l8.528.881s3.244-1.761,4.589-1.9a22.391,22.391,0,0,1,3.864.306c-.11-.037,4.971.571,4.971.571s1.038-1.108,1.457-4.169,0-3.708,0-3.708Z" transform="translate(76.842 69.939)" fill="#ffbe9d"/>
            <path id="Trazado_769605" data-name="Trazado 769605" d="M129.221,109.269c0,.02-.231.033-.529-.206-.306-.216-.564-.722-1.035-1.045a2.69,2.69,0,0,0-.932-.281,2.147,2.147,0,0,1-1.164-.512,2.088,2.088,0,0,1-.626-1.277,1.812,1.812,0,0,1,.454-1.467,2.954,2.954,0,0,1,2.71-.747,4.786,4.786,0,0,1,2.036,1.043,9.012,9.012,0,0,1,1.075,1.071c.233.27.347.43.328.45-.052.055-.594-.532-1.582-1.294a4.8,4.8,0,0,0-1.929-.9,2.637,2.637,0,0,0-2.337.655,1.637,1.637,0,0,0,.132,2.191c.519.539,1.41.393,2,.824a8.433,8.433,0,0,1,.981,1.169c.233.248.432.29.422.325" transform="translate(84.213 69.884)" fill="#eb996e"/>
            <path id="Trazado_769606" data-name="Trazado 769606" d="M127.6,106.2c-.005.067-.41.044-.986.3a15.328,15.328,0,0,1-2.33,1.1,6.675,6.675,0,0,1-2.6-.2,9.139,9.139,0,0,1-1.036-.152c-.013-.05.4-.186,1.071-.136a8.989,8.989,0,0,0,2.469.09c.9-.233,1.661-.8,2.322-.974.661-.211,1.1-.077,1.087-.032" transform="translate(81.334 71.54)" fill="#eb996e"/>
            <path id="Trazado_769607" data-name="Trazado 769607" d="M130.232,108.849c.01.022-.159.146-.494.321a7.758,7.758,0,0,1-1.493.571,14.567,14.567,0,0,1-5.24.3c-1.015-.127-1.975-.281-2.851-.412a9.051,9.051,0,0,1-2.327-.519,1.458,1.458,0,0,1-.695-.671,1.2,1.2,0,0,1-.1-.722c.09-.414.35-.507.348-.487a1.252,1.252,0,0,0-.187.507,1.145,1.145,0,0,0,.763,1.11,10.156,10.156,0,0,0,2.255.407c.889.117,1.84.244,2.839.378a16.627,16.627,0,0,0,5.128-.177c1.292-.28,2.024-.675,2.057-.609" transform="translate(78.881 72.288)" fill="#eb996e"/>
            <path id="Trazado_769608" data-name="Trazado 769608" d="M150.781,109.5a30.99,30.99,0,0,0-1.751-3.37,30.6,30.6,0,0,0-2.479-2.876,8.786,8.786,0,0,1,4.231,6.246" transform="translate(98.792 69.606)" fill="#eb996e"/>
          </g>
        </g>
        <path id="Trazado_769609" data-name="Trazado 769609" d="M29.379,165.972l-1.031,52.68,12.759,1.368,8.766-53.636-6.887-8.664Z" transform="translate(19.11 106.325)" fill="#ffbe9d"/>
        <g id="Grupo_1027984" data-name="Grupo 1027984">
          <g id="Grupo_1027983" data-name="Grupo 1027983" clip-path="url(#clip-path)">
            <path id="Trazado_769610" data-name="Trazado 769610" d="M42.671,193.57l-.008.861s14.516,6.025,14.639,8.793l-28.954-.482V193.1a17.867,17.867,0,0,0,14.324.475" transform="translate(19.11 130.172)" fill="#f4a338"/>
            <path id="Trazado_769611" data-name="Trazado 769611" d="M28.347,199.789l.134-2.315,27.7,1.309s1.279.583,1.118,1.488Z" transform="translate(19.11 133.124)" fill="#5573c6"/>
            <path id="Trazado_769612" data-name="Trazado 769612" d="M31.757,68.773c-.208-2.426-1.664-4.882-3.986-5.618L25.1,64.687A6.439,6.439,0,0,0,21.88,72.5a7.616,7.616,0,0,0-2.438,10.448c-1.733.8-2.476,2.92-2.446,4.83s.643,3.763.814,5.665c.132,1.468,0,2.962.271,4.411a4.5,4.5,0,0,0,2.424,3.477,3.933,3.933,0,0,0,4.2-1.2A8.118,8.118,0,0,0,26.479,95.9c.72-4.41-.216-9.015.894-13.341a43.432,43.432,0,0,1,2.784-6.743,14.566,14.566,0,0,0,1.6-7.046" transform="translate(11.457 42.575)" fill="#373f51"/>
            <path id="Trazado_769613" data-name="Trazado 769613" d="M28.441,72.011a8.511,8.511,0,0,1-7.115-13.093,2.213,2.213,0,0,1,.971-.938c.9-.355,1.83.373,2.521,1.048l4.992,4.863" transform="translate(13.493 39.024)" fill="#373f51"/>
            <path id="Trazado_769614" data-name="Trazado 769614" d="M28.438,73.846c-3.752-1.773-6.7-5.977-7.79-9.978s.164-12.106,1.246-16.11c1.314-4.873,3.338,1.4,5,1.912A3.242,3.242,0,0,1,28.868,51.9a9.631,9.631,0,0,1,.228,3.079l-.658,18.869" transform="translate(13.635 30.953)" fill="#373f51"/>
            <path id="Trazado_769615" data-name="Trazado 769615" d="M32.488,39.584c6.271-3.37,11.3-1.379,13.748.534a15.3,15.3,0,0,1,4.818,7.8c.9,2.973,1.291,6.074,2.019,9.092a37.408,37.408,0,0,1,.966,5.284c.36,2.585.241,7.2-1.081,9.447a15.53,15.53,0,0,1-4.739,5.466,3.111,3.111,0,0,1-2.508.738,3.054,3.054,0,0,1-1.425-1.3,121.009,121.009,0,0,1-15.849-31.69" transform="translate(19.17 25.458)" fill="#373f51"/>
            <path id="Trazado_769616" data-name="Trazado 769616" d="M27.84,44.94,38.7,40.564l2.844.316c6.4-.008,10.84,7.025,10.905,12.2.075,5.754-.062,12.784-.956,17.029-1.8,8.538-8.449,9.3-8.449,9.3s.077,2.332.146,5.195a9.039,9.039,0,1,1-18.076.248l-.137-36.985A3.031,3.031,0,0,1,27.84,44.94" transform="translate(16.838 27.346)" fill="#ffbe9d"/>
            <path id="Trazado_769617" data-name="Trazado 769617" d="M40.622,51.871a1.1,1.1,0,0,1-1.12,1.06,1.055,1.055,0,0,1-1.088-1.051,1.105,1.105,0,0,1,1.118-1.061,1.058,1.058,0,0,1,1.09,1.053" transform="translate(25.896 34.258)" fill="#373f51"/>
            <path id="Trazado_769618" data-name="Trazado 769618" d="M41.789,50.31c-.144.137-.949-.524-2.138-.579-1.185-.074-2.088.494-2.21.342-.06-.069.094-.32.486-.578a3.042,3.042,0,0,1,1.78-.452,2.906,2.906,0,0,1,1.691.641c.352.3.462.566.392.626" transform="translate(25.232 33.058)" fill="#373f51"/>
            <path id="Trazado_769619" data-name="Trazado 769619" d="M35.725,59.348a7.971,7.971,0,0,1,1.947-.251c.3-.017.594-.062.656-.266a1.551,1.551,0,0,0-.157-.909q-.374-1.123-.782-2.356a39.772,39.772,0,0,1-1.711-6.141,39.621,39.621,0,0,1,2.2,5.988c.259.827.507,1.614.743,2.367a1.762,1.762,0,0,1,.1,1.2.761.761,0,0,1-.521.419,2.118,2.118,0,0,1-.519.045,7.748,7.748,0,0,1-1.955-.1" transform="translate(24.041 33.319)" fill="#373f51"/>
            <path id="Trazado_769620" data-name="Trazado 769620" d="M40.348,65.243A21.913,21.913,0,0,1,28.976,61.59s2.772,6.121,11.426,5.747Z" transform="translate(19.534 41.52)" fill="#eb996e"/>
            <path id="Trazado_769621" data-name="Trazado 769621" d="M36.691,57.293a2.169,2.169,0,0,0-1.914-1.011,1.718,1.718,0,0,0-1.4.668,1.509,1.509,0,0,0-.084,1.611,1.544,1.544,0,0,0,1.622.636,3.918,3.918,0,0,0,1.569-.857,1.2,1.2,0,0,0,.35-.362.926.926,0,0,0-.147-.685" transform="translate(22.316 37.942)" fill="#eb996e"/>
            <path id="Trazado_769622" data-name="Trazado 769622" d="M33.679,55.738c.194,0,.132,1.287,1.189,2.258s2.438.9,2.439,1.078c.013.082-.32.234-.9.221a3.2,3.2,0,0,1-2.037-.827,2.8,2.8,0,0,1-.916-1.888c-.022-.542.139-.854.226-.842" transform="translate(22.55 37.575)" fill="#373f51"/>
            <path id="Trazado_769623" data-name="Trazado 769623" d="M41.556,48.354c-.224.259-1.028-.062-2.012-.124-.981-.1-1.825.09-2-.2-.079-.141.067-.405.445-.641a2.914,2.914,0,0,1,3.233.263c.333.295.434.578.337.7" transform="translate(25.294 31.695)" fill="#373f51"/>
            <path id="Trazado_769624" data-name="Trazado 769624" d="M31.893,51.8a1.1,1.1,0,0,0,1.051,1.128,1.057,1.057,0,0,0,1.152-.981,1.106,1.106,0,0,0-1.05-1.13,1.059,1.059,0,0,0-1.153.983" transform="translate(21.5 34.257)" fill="#373f51"/>
            <path id="Trazado_769625" data-name="Trazado 769625" d="M30.572,50.172c.136.146.981-.464,2.17-.445,1.189,0,2.052.624,2.183.48.065-.064-.072-.326-.447-.608a3.046,3.046,0,0,0-1.746-.563A2.913,2.913,0,0,0,31,49.571c-.37.276-.5.536-.43.6" transform="translate(20.598 33.058)" fill="#373f51"/>
            <path id="Trazado_769626" data-name="Trazado 769626" d="M30.886,47.949c.206.273,1.028,0,2.014,0,.984-.035,1.816.2,2.012-.075.085-.136-.042-.408-.4-.668a2.916,2.916,0,0,0-3.244.059c-.352.273-.469.551-.378.683" transform="translate(20.801 31.511)" fill="#373f51"/>
            <path id="Trazado_769627" data-name="Trazado 769627" d="M38.014,40.267a10.566,10.566,0,0,0-9.318,1.06,12.169,12.169,0,0,0-4.373,7.514c-.539,2.916.184,7.236.953,10.1,4.452-5.734,9.034-12.348,13.329-18.2Z" transform="translate(16.271 26.725)" fill="#373f51"/>
            <path id="Trazado_769628" data-name="Trazado 769628" d="M34.446,38.516C49.532,36.39,48.139,59.205,48.139,59.205,46.63,50.8,34.93,42,34.93,42l-2.379-.4Z" transform="translate(21.944 25.871)" fill="#373f51"/>
            <path id="Trazado_769629" data-name="Trazado 769629" d="M28.054,54.607c.03-.641-.636-2.19-1.264-2.32-1.676-.348-4.729-.365-4.972,3.926-.335,5.866,5.623,4.991,5.645,4.823.013-.131.484-4.215.591-6.429" transform="translate(14.699 35.155)" fill="#ffbe9d"/>
            <path id="Trazado_769630" data-name="Trazado 769630" d="M25.661,57.964c-.025-.02-.105.065-.283.136a1.026,1.026,0,0,1-.765-.028,2.53,2.53,0,0,1-1.041-2.335,3.382,3.382,0,0,1,.368-1.446,1.183,1.183,0,0,1,.814-.74.521.521,0,0,1,.588.313c.069.169.025.285.055.3.015.015.132-.092.1-.337a.655.655,0,0,0-.211-.38.768.768,0,0,0-.556-.182,1.44,1.44,0,0,0-1.12.849,3.509,3.509,0,0,0-.447,1.616,2.661,2.661,0,0,0,1.348,2.618,1.1,1.1,0,0,0,.944-.1c.189-.136.228-.265.208-.276" transform="translate(15.613 35.903)" fill="#eb996e"/>
            <path id="Trazado_769631" data-name="Trazado 769631" d="M21.91,50.271A21.216,21.216,0,0,1,29.981,40.5a14.352,14.352,0,0,1,6.295-2.67,7.256,7.256,0,0,1,6.291,2.113l.425.434c-2.595,5.751-4.423,10.616-7.761,15.968C34,58.307,33.475,65,33.179,67.3c-1.01,7.852-5.307,11.212-5.307,11.212-9.295.007-7.462-24.223-5.962-28.244" transform="translate(13.943 25.459)" fill="#373f51"/>
            <path id="Trazado_769632" data-name="Trazado 769632" d="M26.268,63.895a2.633,2.633,0,0,1-1.155-.368,7.9,7.9,0,0,1-3.877-4.256,2.614,2.614,0,0,1-.259-1.185,14.791,14.791,0,0,0,2.1,3.4,14.808,14.808,0,0,0,3.191,2.407" transform="translate(14.13 39.157)" fill="#51565e"/>
            <path id="Trazado_769633" data-name="Trazado 769633" d="M25.066,67.317a3.565,3.565,0,0,1-2.429-.891A3.566,3.566,0,0,1,21.1,64.34a22.962,22.962,0,0,0,1.78,1.756,23.125,23.125,0,0,0,2.183,1.22" transform="translate(14.217 43.372)" fill="#51565e"/>
            <path id="Trazado_769634" data-name="Trazado 769634" d="M21.965,71.585c-.092.067-.629-.526-1.2-1.323s-.959-1.5-.866-1.562.629.526,1.2,1.323.958,1.5.866,1.562" transform="translate(13.405 46.31)" fill="#51565e"/>
            <path id="Trazado_769635" data-name="Trazado 769635" d="M19.948,76.44c-.085.075-.5-.259-.926-.745s-.7-.943-.618-1.018.5.26.926.747.7.941.618,1.016" transform="translate(12.396 50.336)" fill="#51565e"/>
            <path id="Trazado_769636" data-name="Trazado 769636" d="M20.39,62.9a7.854,7.854,0,0,1,1.11-.65c.367-.193.809-.434,1.306-.745s1.085-.628,1.689-1.051a40.848,40.848,0,0,0,4.135-3.1A44.208,44.208,0,0,0,33.1,52.876,44.143,44.143,0,0,0,36.8,47.752a40.965,40.965,0,0,0,2.4-4.577c.321-.663.546-1.292.768-1.835s.4-1.016.526-1.408a7.472,7.472,0,0,1,.465-1.2,7.766,7.766,0,0,1-.313,1.249c-.109.4-.254.887-.464,1.438s-.41,1.194-.717,1.87a36.908,36.908,0,0,1-2.347,4.657,41.531,41.531,0,0,1-3.718,5.195,41.48,41.48,0,0,1-4.535,4.5A36.694,36.694,0,0,1,24.651,60.7c-.618.412-1.217.718-1.731,1.008s-.968.516-1.346.686a7.764,7.764,0,0,1-1.184.507" transform="translate(13.746 26.111)" fill="#51565e"/>
            <path id="Trazado_769637" data-name="Trazado 769637" d="M35.157,48.97c.02.02-.134.216-.43.557s-.75.817-1.339,1.374A28.892,28.892,0,0,1,22.56,57.3c-.772.246-1.4.417-1.848.509a2.294,2.294,0,0,1-.7.107c-.017-.064.944-.335,2.451-.891a35.768,35.768,0,0,0,5.652-2.682,35.688,35.688,0,0,0,5.076-3.655c1.215-1.05,1.915-1.763,1.964-1.716" transform="translate(13.492 33.011)" fill="#51565e"/>
            <path id="Trazado_769638" data-name="Trazado 769638" d="M48.206,63.773a10.333,10.333,0,0,1,.241-1.286,21.781,21.781,0,0,0,.388-3.521A20.473,20.473,0,0,0,37.644,39.918a21.7,21.7,0,0,0-3.266-1.373,10.547,10.547,0,0,1-1.239-.415,1.022,1.022,0,0,1,.336.044c.218.049.544.1.949.218a18.468,18.468,0,0,1,3.35,1.267,20.149,20.149,0,0,1,11.352,19.32,18.462,18.462,0,0,1-.524,3.544c-.092.412-.208.722-.271.934a1.077,1.077,0,0,1-.126.316" transform="translate(22.34 25.701)" fill="#51565e"/>
            <path id="Trazado_769639" data-name="Trazado 769639" d="M84.067,85.308A1.9,1.9,0,0,0,83.8,87.14a3.006,3.006,0,0,0,1.174,1.2,10.471,10.471,0,0,0,1.94-2.777" transform="translate(56.41 57.509)" fill="#eb996e"/>
            <path id="Trazado_769640" data-name="Trazado 769640" d="M82.155,84.713a1.9,1.9,0,0,0-.71,1.709,3.012,3.012,0,0,0,.839,1.448,10.427,10.427,0,0,0,2.568-2.208" transform="translate(54.893 57.108)" fill="#eb996e"/>
            <path id="Trazado_769641" data-name="Trazado 769641" d="M35.378,69.169S61.334,89.6,66.011,90.263,92.585,88.279,101.567,88l1.274,7.537s-24.806,8.423-33.824,8.757-14.2-2.1-14.2-2.1L37.953,84.919Z" transform="translate(23.85 46.629)" fill="#ffbe9d"/>
            <path id="Trazado_769642" data-name="Trazado 769642" d="M74.573,80.873s11.588-1.651,13.39-.75S94.942,85.4,94.942,85.4s1.721,4.853.636,5.083-2.21-1.574-2.21-1.574L91.9,86.2l-6.472-1.575-10.745.951Z" transform="translate(50.272 53.833)" fill="#ffbe9d"/>
            <path id="Trazado_769643" data-name="Trazado 769643" d="M77.222,86.79c.167.2,4.306,2.2,6.412,2.146s4.517-1.7,6.33-1.45,5.575.541,6.032-.109a1.43,1.43,0,0,0-.032-1.991c-.619-.586-3.658-1.162-5.851-1.749a8.764,8.764,0,0,1-3.249-1.5L74.1,83.547l-.723,3.981Z" transform="translate(49.468 55.374)" fill="#ffbe9d"/>
            <path id="Trazado_769644" data-name="Trazado 769644" d="M78.972,82.084a2.081,2.081,0,0,1,.668-.05,10.137,10.137,0,0,1,1.81.219,50.8,50.8,0,0,1,5.692,1.806A18.255,18.255,0,0,0,90.3,84.8a2.643,2.643,0,0,1,1.41.546,1.505,1.505,0,0,1,.472,1.261,1.359,1.359,0,0,1-.529.968,1.446,1.446,0,0,1-.767.293c-.459.027-.675-.142-.663-.156a3.285,3.285,0,0,0,.641,0,1.212,1.212,0,0,0,.621-2.106,2.352,2.352,0,0,0-1.241-.427,16.5,16.5,0,0,1-3.229-.73c-2.223-.745-4.155-1.569-5.63-1.914-1.467-.387-2.417-.375-2.414-.452" transform="translate(53.238 55.302)" fill="#eb996e"/>
            <path id="Trazado_769645" data-name="Trazado 769645" d="M85.265,84.526a3.606,3.606,0,0,1-1.875-.944c-.924-.725-1.443-1.539-1.356-1.6s.728.589,1.611,1.279,1.671,1.16,1.621,1.267" transform="translate(55.295 55.261)" fill="#eb996e"/>
            <path id="Trazado_769646" data-name="Trazado 769646" d="M31.494,162.253,7.972,172.728,10.8,185.286s29.582-8.816,39.284-10.775c9.675-1.955,25.356-4.455,29.785-13.838Z" transform="translate(5.374 108.315)" fill="#ffbe9d"/>
            <path id="Trazado_769647" data-name="Trazado 769647" d="M16.054,181.055l-.82.221s-1.89,15.42-4.493,16.271l-7.217-27.7,9.186-2.558a17.666,17.666,0,0,0,3.345,13.765" transform="translate(2.375 112.776)" fill="#f4a338"/>
            <path id="Trazado_769648" data-name="Trazado 769648" d="M3.523,169.014l2.24-.487,6.1,26.726s-.214,1.373-1.12,1.46Z" transform="translate(2.375 113.61)" fill="#5573c6"/>
            <path id="Trazado_769649" data-name="Trazado 769649" d="M76.629,160.888a3.438,3.438,0,0,1-.249.66,7.554,7.554,0,0,1-1.128,1.683,26.185,26.185,0,0,1-5.8,4.629,27.035,27.035,0,0,1-4.657,2.181,51.664,51.664,0,0,1-5.674,1.585c-4.011,1.013-8.411,2.166-13.028,3.385l-23.656,6.246-7.184,1.83-1.962.469a4.578,4.578,0,0,1-.69.136,4.6,4.6,0,0,1,.67-.216l1.94-.542,7.152-1.957c6.04-1.642,14.386-3.919,23.624-6.362,4.617-1.219,9.024-2.362,13.043-3.355a52.42,52.42,0,0,0,5.647-1.54,27.4,27.4,0,0,0,10.457-6.594,9.051,9.051,0,0,0,1.5-2.237" transform="translate(8.493 108.46)" fill="#eb996e"/>
            <path id="Trazado_769650" data-name="Trazado 769650" d="M33.105,101.8l.531,4.632s-8.145,15.4-8.145,23.659-3.758,74.027-3.758,74.027,44.187,2.515,48.856-1.8l4.671-4.311L91.066,193.7,66.407,103.716V98.894Z" transform="translate(14.651 66.668)" fill="#5573c6"/>
            <path id="Trazado_769651" data-name="Trazado 769651" d="M46.585,113.943a.632.632,0,0,1,.044.182l.087.539q.11.763.3,2.076c.258,1.84.623,4.44,1.07,7.637.921,6.445,2.294,15.337,4.063,25.112s3.611,18.586,5.012,24.946c.7,3.151,1.274,5.712,1.679,7.525.191.864.34,1.547.452,2.049.042.214.077.39.107.534a.559.559,0,0,1,.022.186.7.7,0,0,1-.064-.176c-.039-.142-.087-.315-.146-.526-.131-.5-.3-1.175-.527-2.029-.452-1.765-1.071-4.328-1.808-7.5-1.473-6.347-3.355-15.151-5.131-24.936s-3.1-18.687-3.948-25.146c-.425-3.229-.745-5.846-.941-7.657q-.138-1.318-.219-2.088c-.018-.218-.033-.4-.047-.542a.642.642,0,0,1,0-.187" transform="translate(31.401 76.813)" fill="#4adbd1"/>
            <path id="Trazado_769652" data-name="Trazado 769652" d="M27.628,118.863a2.8,2.8,0,0,1,.184.521c.114.385.263.887.449,1.513.4,1.361.951,3.251,1.631,5.568,1.393,4.7,3.412,11.156,5.878,18.21s4.922,13.365,6.762,17.9l2.2,5.369c.244.6.442,1.09.593,1.463a2.829,2.829,0,0,1,.181.521,2.775,2.775,0,0,1-.258-.487l-.663-1.433c-.571-1.246-1.366-3.064-2.32-5.322-1.909-4.515-4.406-10.815-6.881-17.88s-4.447-13.544-5.769-18.265c-.663-2.361-1.175-4.277-1.505-5.607-.156-.635-.28-1.143-.375-1.534a2.768,2.768,0,0,1-.1-.542" transform="translate(18.623 80.13)" fill="#4adbd1"/>
            <path id="Trazado_769653" data-name="Trazado 769653" d="M62.968,103.083a8.176,8.176,0,0,1-1.326.162c-.855.079-2.094.169-3.626.261-3.065.186-7.308.352-11.994.372s-8.932-.114-12-.273c-1.532-.08-2.772-.161-3.628-.233a8.134,8.134,0,0,1-1.328-.152,8.5,8.5,0,0,1,1.336-.008l3.631.1c3.067.087,7.3.171,11.985.154s8.915-.141,11.98-.251l3.631-.132a8.2,8.2,0,0,1,1.336,0" transform="translate(19.596 69.478)" fill="#4adbd1"/>
            <path id="Trazado_769654" data-name="Trazado 769654" d="M46.692,67.541c-.213-.5,15.673,12.168,17.67,18.338S66.7,109.851,66.7,109.851l1.117,11.428-31.72,2.238-.85-2.238L32.9,114.91l-3.266-9.62s-7.818-12.142-9.37-17.372c-1.929-6.494,1.267-13.147,1.267-13.147l7.175-8.1Z" transform="translate(13.244 44.948)" fill="#f4a338"/>
            <path id="Trazado_769655" data-name="Trazado 769655" d="M25.472,69.08s-1.758-3.266-.673-4.686c.862-1.13,16.134.286,19.249.946,1.832.388-.033,4.47-.033,4.47Z" transform="translate(16.48 43.125)" fill="#f4a338"/>
            <g id="Grupo_1027976" data-name="Grupo 1027976" transform="translate(43.312 127.591)" opacity="0.3">
              <g id="Grupo_1027975" data-name="Grupo 1027975">
                <g id="Grupo_1027974" data-name="Grupo 1027974" clip-path="url(#clip-path-9)">
                  <path id="Trazado_769656" data-name="Trazado 769656" d="M33.66,76.213c1.331,3.444-.549,14.136-.839,16.683a42.815,42.815,0,0,1-1.753,7.472c-.345,1.14-.671,2.454-.027,3.455,1.041,1.612,3.723,1.157,5.021,2.57a12.524,12.524,0,0,1-7.808.9,2.1,2.1,0,0,1-1.237-.6,2.231,2.231,0,0,1-.38-1,29.663,29.663,0,0,1-.367-11.376c.717-3.748,4.3-12.754,7.309-15.1" transform="translate(-25.871 -76.213)"/>
                </g>
              </g>
            </g>
            <path id="Trazado_769657" data-name="Trazado 769657" d="M32.485,79.034A10.174,10.174,0,0,1,30.96,82.7a10.174,10.174,0,0,1-2.516,3.067c-.092-.082,1.056-1.423,2.165-3.28s1.761-3.492,1.877-3.45" transform="translate(19.172 53.279)" fill="#5573c6"/>
            <path id="Trazado_769658" data-name="Trazado 769658" d="M43.75,67.612a2.6,2.6,0,0,1-.727.2c-.47.105-1.16.224-2.017.34a37.814,37.814,0,0,1-13.44-.676c-.84-.2-1.515-.387-1.974-.541a2.542,2.542,0,0,1-.7-.273c.017-.062,1.05.2,2.737.529a46.723,46.723,0,0,0,13.346.671c1.709-.156,2.764-.316,2.776-.251" transform="translate(16.78 44.933)" fill="#5573c6"/>
            <path id="Trazado_769659" data-name="Trazado 769659" d="M43.907,91.611c-.07-.022.208-.874.422-2.285a17.186,17.186,0,0,0-1.912-10.775c-.686-1.252-1.239-1.955-1.18-2,.022-.018.176.144.439.454a10.857,10.857,0,0,1,.994,1.4,15.543,15.543,0,0,1,1.945,10.967,10.8,10.8,0,0,1-.452,1.659,1.865,1.865,0,0,1-.256.578" transform="translate(27.796 51.604)" fill="#5573c6"/>
            <g id="Grupo_1027979" data-name="Grupo 1027979" transform="translate(42.806 111.968)" opacity="0.3">
              <g id="Grupo_1027978" data-name="Grupo 1027978">
                <g id="Grupo_1027977" data-name="Grupo 1027977" clip-path="url(#clip-path-10)">
                  <path id="Trazado_769660" data-name="Trazado 769660" d="M33.444,68a55.054,55.054,0,0,1-7.875-1.117,20.9,20.9,0,0,0,12.139,2.433,6.415,6.415,0,0,0,4.145-1.783c-2.335.912-5.91.686-8.409.467" transform="translate(-25.57 -66.881)"/>
                </g>
              </g>
            </g>
            <g id="Grupo_1027982" data-name="Grupo 1027982" transform="translate(68.587 135.503)" opacity="0.3">
              <g id="Grupo_1027981" data-name="Grupo 1027981">
                <g id="Grupo_1027980" data-name="Grupo 1027980" clip-path="url(#clip-path-11)">
                  <path id="Trazado_769661" data-name="Trazado 769661" d="M40.968,92.281a13.955,13.955,0,0,0,3.7-11.342,15.7,15.7,0,0,1,.586,4.12,6.959,6.959,0,0,1-1.107,4.56c-.973,1.333-1.537,2.14-3.183,2.662" transform="translate(-40.969 -80.939)"/>
                </g>
              </g>
            </g>
            <path id="Trazado_769662" data-name="Trazado 769662" d="M34.363,72.822a7.9,7.9,0,0,0-11.269,1.058c-.116.149-.224.3-.326.454-1.646,2.469-6.189,40.941-4.38,45.55s4.445,4.281,4.445,4.281,11.9-.134,20.458-2.109S61.4,116.837,61.4,116.837l-1.582-9.318s-20.96,2.776-26.721,2.118l2.2-18.729s5.007-6.1,3.571-11.7a12.982,12.982,0,0,0-4.5-6.385" transform="translate(12.114 47.827)" fill="#ffbe9d"/>
            <path id="Trazado_769663" data-name="Trazado 769663" d="M46.91,91.8l4.7-3.162L55,85.777a3.847,3.847,0,0,1-.636,3.01c-1.055,1.594-2.819,3.976-2.819,3.976Z" transform="translate(31.624 57.825)" fill="#ffbe9d"/>
            <path id="Trazado_769664" data-name="Trazado 769664" d="M55.247,90.017c-.04-.032.265-.362.594-1.043a4.585,4.585,0,0,0,.306-3.018l.281.084-3.368,2.878-.007.007-.01.007c-.08.054-.166.112-.251.171l-2.97,1.975a28.791,28.791,0,0,1-2.476,1.532,17.353,17.353,0,0,1-2.386,1.234,17.228,17.228,0,0,1,2.233-1.482c.715-.417,1.525-.978,2.424-1.6.916-.623,1.905-1.294,2.945-2,.085-.059.171-.116.251-.169L52.8,88.6,56.2,85.772l.221-.186.06.27a4.547,4.547,0,0,1-.462,3.213,3.745,3.745,0,0,1-.532.737c-.146.152-.229.224-.243.213" transform="translate(30.309 57.696)" fill="#eb996e"/>
            <path id="Trazado_769665" data-name="Trazado 769665" d="M45.9,101.342c.161-.318,12.533-14.108,15.583-17.5A1.32,1.32,0,0,1,63.441,85.6L47.6,103.224Z" transform="translate(30.94 56.223)" fill="#5573c6"/>
            <path id="Trazado_769666" data-name="Trazado 769666" d="M61.913,91.508c.507-.688-.253-2.036-.951-2.4s-3.5,1.175-3.5,1.175l-1.015.09s-5.434-1.1-5.615-1.009a17.553,17.553,0,0,0-3.926,2.366A7.446,7.446,0,0,0,45.475,93.4a5.907,5.907,0,0,1-3.8,2.247l2.307,9.365s5.053-1.189,5.434-1.194,4.614-.343,5.176-.437a14.1,14.1,0,0,0,4.763-2.185c1.811-1.348.966-2.493.966-2.493,1.875-1.272.414-2.536.414-2.536l.524-.9a1.622,1.622,0,0,0-.792-2.218,13.913,13.913,0,0,0,1.445-1.55" transform="translate(28.095 60.03)" fill="#ffbe9d"/>
            <path id="Trazado_769667" data-name="Trazado 769667" d="M51.52,92.875c-.033-.1.561-.372,1.232-.789s1.182-.82,1.259-.745-.34.626-1.061,1.068-1.4.563-1.43.465" transform="translate(34.73 61.57)" fill="#eb996e"/>
            <path id="Trazado_769668" data-name="Trazado 769668" d="M52.472,94.148c-.067-.08.126-.35.43-.6s.6-.387.671-.306-.126.35-.43.6-.6.387-.671.306" transform="translate(35.364 62.842)" fill="#eb996e"/>
            <path id="Trazado_769669" data-name="Trazado 769669" d="M52.133,95.242c-.01-.107.3-.219.673-.362s.68-.263.743-.177-.184.372-.609.531-.8.11-.807.008" transform="translate(35.145 63.824)" fill="#eb996e"/>
            <path id="Trazado_769670" data-name="Trazado 769670" d="M53.416,89.818a10.516,10.516,0,0,1-2.861.405,19.173,19.173,0,0,1-2.878.154,7.109,7.109,0,0,1,2.844-.564,10.138,10.138,0,0,1,2.895.005" transform="translate(32.14 60.49)" fill="#eb996e"/>
            <path id="Trazado_769671" data-name="Trazado 769671" d="M28.989,93.956a14.353,14.353,0,0,1-2.1,2.7,14.335,14.335,0,0,1-2.411,2.429,14.528,14.528,0,0,1,2.1-2.7,14.335,14.335,0,0,1,2.411-2.429" transform="translate(16.496 63.337)" fill="#eb996e"/>
            <path id="Trazado_769672" data-name="Trazado 769672" d="M37.2,84.089c-.04-.008.057-.42.129-1.172a10.139,10.139,0,0,0-.152-3.164,11.6,11.6,0,0,0-6.434-7.761,7.529,7.529,0,0,0-5.555-.362,6.217,6.217,0,0,0-3.611,2.759,10.328,10.328,0,0,0-1.128,2.958,9.38,9.38,0,0,1-.276,1.147c-.015,0-.012-.107.005-.308a8.755,8.755,0,0,1,.114-.871,9.589,9.589,0,0,1,1.035-3.074A6.029,6.029,0,0,1,22.781,72.5a7.213,7.213,0,0,1,2.292-1.23,7.827,7.827,0,0,1,5.838.345,11.085,11.085,0,0,1,4.565,3.7A10.923,10.923,0,0,1,37.465,79.7a9.389,9.389,0,0,1,.027,3.241,7.018,7.018,0,0,1-.186.861.893.893,0,0,1-.1.291" transform="translate(13.595 47.766)" fill="#5573c6"/>
          </g>
        </g>
        <g id="Grupo_1027986" data-name="Grupo 1027986">
          <g id="Grupo_1027985" data-name="Grupo 1027985" clip-path="url(#clip-path)">
            <path id="Trazado_769673" data-name="Trazado 769673" d="M79.3,56.483H46.948a2.4,2.4,0,0,0-2.406,2.406V90.245a2.406,2.406,0,0,0,2.406,2.406H58.861l4.652,6.594,4.04-6.594H79.3a2.406,2.406,0,0,0,2.406-2.406V58.889A2.4,2.4,0,0,0,79.3,56.483" transform="translate(30.027 38.077)" fill="#fafafa"/>
            <path id="Trazado_769674" data-name="Trazado 769674" d="M79.389,56.552a1.919,1.919,0,0,1,.951.159,2.508,2.508,0,0,1,.956.7,2.478,2.478,0,0,1,.563,1.522c.013,2.456.032,6.01.057,10.48.012,4.49.027,9.9.044,16.028q.005,2.3.01,4.736a2.586,2.586,0,0,1-2.374,2.71c-.449.02-.852.007-1.284.012l-10.673.013.166-.094c-1.277,2.088-2.642,4.319-4.035,6.6l-.157.259-.176-.248c-1.48-2.1-3.055-4.326-4.657-6.593l.167.087H50.592c-1.3-.008-2.551.022-3.874-.02a2.611,2.611,0,0,1-1.751-1A2.806,2.806,0,0,1,44.423,90q0-3.774,0-7.43c0-4.872.008-9.571.012-14.048q.005-3.357.008-6.541.005-1.595.012-3.141a2.575,2.575,0,0,1,1.907-2.369,6.211,6.211,0,0,1,1.517-.087q.733,0,1.453,0l2.826.005,5.314.013,16.035.065,4.359.038c.484.008.861.017,1.133.02.256.008.387.022.387.022s-.131.013-.387.022l-1.133.02-4.359.038L57.474,56.7l-5.314.013-2.826.005q-.721,0-1.453,0a6.036,6.036,0,0,0-1.43.082,2.232,2.232,0,0,0-1.644,2.054v3.126q.005,3.182.008,6.541c0,4.477.008,9.176.012,14.048q0,3.651,0,7.43a2.384,2.384,0,0,0,.46,1.656,2.188,2.188,0,0,0,1.475.84c1.225.035,2.545.01,3.825.018,2.861,0,5.685,0,8.354,0h.105l.06.085,4.651,6.6-.335.01c1.4-2.275,2.764-4.505,4.045-6.591l.057-.094.109,0,10.673.012c.419,0,.864.01,1.256-.007a2.233,2.233,0,0,0,1.083-.382,2.259,2.259,0,0,0,.971-1.97q.005-2.433.008-4.736c.017-6.132.032-11.538.045-16.028.023-4.468.042-8.022.055-10.478a2.377,2.377,0,0,0-.511-1.462,2.431,2.431,0,0,0-.9-.7,3.139,3.139,0,0,0-.926-.221" transform="translate(29.942 38.008)" fill="#5573c6"/>
            <path id="Trazado_769675" data-name="Trazado 769675" d="M65.115,74.5a1.255,1.255,0,0,1-.221.015c-.157,0-.368.007-.636.013l-2.352.027c-2.009.008-4.78.02-7.9.035h-.065l-.008-.064c-.059-.419-.122-.861-.186-1.309-.529-3.83-1-7.249-1.311-9.484l.047.04c-.889-.007-1.6-.013-2.1-.018l-.561-.012a1.217,1.217,0,0,1-.193-.012.9.9,0,0,1,.193-.013l.561-.013,2.1-.025h.042l.005.04c.321,2.233.814,5.649,1.366,9.477.062.447.126.891.184,1.308l-.074-.064,7.9.013c.988.008,1.786.015,2.352.018.268.007.479.01.636.013a1.184,1.184,0,0,1,.221.013" transform="translate(33.456 42.931)" fill="#5573c6"/>
            <path id="Trazado_769676" data-name="Trazado 769676" d="M53.981,74.793a.146.146,0,0,1-.122-.122L52.377,63.976l-2.5-.028c-.224-.007-.326-.01-.333-.149s.112-.156.331-.162l.561-.013,2.146-.027a.146.146,0,0,1,.144.124l1.528,10.639,10.7.045c.259.007.357.01.362.152v.007c0,.142-.1.146-.358.154l-.638.015-2.354.027L54,74.794l-.02,0" transform="translate(33.399 42.872)" fill="#5573c6"/>
            <path id="Trazado_769677" data-name="Trazado 769677" d="M52.433,71.529a.178.178,0,0,1,.055-.007l.164-.007c.156,0,.367-.007.636-.012l2.377-.025,8.2-.037-.07.059c.241-1.381.5-2.873.772-4.418.139-.794.276-1.574.407-2.319l.072.087-9.661-.012c-1.205-.007-2.178-.013-2.859-.018l-.772-.012c-.08,0-.147-.005-.2-.007a.2.2,0,0,1-.069-.007.443.443,0,0,1,.069-.007l.2-.007.77-.013c.683-.007,1.654-.017,2.861-.027l9.661-.038h.089l-.015.085c-.131.745-.268,1.525-.407,2.32-.271,1.544-.534,3.035-.777,4.416l-.01.059h-.06l-8.2-.015-2.377-.017-.636-.012-.164-.005a.178.178,0,0,1-.055-.007" transform="translate(34.706 43.619)" fill="#5573c6"/>
            <path id="Trazado_769678" data-name="Trazado 769678" d="M52.5,71.733c-.062-.008-.149-.038-.147-.147,0-.137.142-.144.191-.147l.8-.02,2.379-.023,8.017-.037,1.1-6.306L51.6,65c-.064,0-.209-.01-.206-.154s.137-.142.2-.146l.976-.022,4.878-.033,7.734-.032a.139.139,0,0,1,.109.052.134.134,0,0,1,.032.116l-1.207,6.882a.145.145,0,0,1-.142.119l-11.439-.05a.238.238,0,0,1-.045,0" transform="translate(34.648 43.561)" fill="#5573c6"/>
            <path id="Trazado_769679" data-name="Trazado 769679" d="M54.831,72.426c-.013,0-.013-.1-.064-.265a1.106,1.106,0,0,0-.408-.576,1.062,1.062,0,0,0-.994-.136,1.044,1.044,0,0,0,0,1.957,1.07,1.07,0,0,0,1-.139,1.121,1.121,0,0,0,.407-.578c.049-.166.049-.265.062-.265a.56.56,0,0,1-.007.278,1.1,1.1,0,0,1-.4.648,1.16,1.16,0,0,1-1.107.184,1.175,1.175,0,0,1,0-2.217,1.157,1.157,0,0,1,1.1.182,1.1,1.1,0,0,1,.4.646.56.56,0,0,1,.007.278" transform="translate(35.415 48.034)" fill="#5573c6"/>
            <path id="Trazado_769680" data-name="Trazado 769680" d="M53.581,73.792a1.216,1.216,0,0,1-.253-.064,1.318,1.318,0,0,1,0-2.486,1.3,1.3,0,0,1,1.242.208,1.244,1.244,0,0,1,.45.73.926.926,0,0,1,.015.3.979.979,0,0,1-.013.3,1.261,1.261,0,0,1-.45.732,1.305,1.305,0,0,1-.991.271m.337-2.2a.9.9,0,0,0-.447.049.9.9,0,1,0,.861,1.57.959.959,0,0,0,.357-.5,1.309,1.309,0,0,0,.042-.189l.007-.033-.007-.033a1.675,1.675,0,0,0-.042-.191.974.974,0,0,0-.357-.5.915.915,0,0,0-.414-.167" transform="translate(35.357 47.976)" fill="#5573c6"/>
            <path id="Trazado_769681" data-name="Trazado 769681" d="M59.1,72.419c-.013,0-.015-.1-.064-.265a1.106,1.106,0,0,0-.408-.576,1.047,1.047,0,1,0,0,1.682,1.115,1.115,0,0,0,.407-.578c.049-.166.049-.265.062-.265a.56.56,0,0,1-.007.278,1.1,1.1,0,0,1-.4.648,1.16,1.16,0,0,1-1.107.184,1.174,1.174,0,0,1,0-2.215,1.153,1.153,0,0,1,1.1.181,1.1,1.1,0,0,1,.4.646.56.56,0,0,1,.007.278" transform="translate(38.294 48.03)" fill="#5573c6"/>
            <path id="Trazado_769682" data-name="Trazado 769682" d="M57.851,73.786a1.319,1.319,0,0,1-.253-2.55,1.3,1.3,0,0,1,1.242.208,1.244,1.244,0,0,1,.45.73.926.926,0,0,1,.015.3.982.982,0,0,1-.013.3,1.251,1.251,0,0,1-.45.732,1.3,1.3,0,0,1-.991.271m.337-2.2a.9.9,0,0,0-.447.049.9.9,0,1,0,.861,1.57.959.959,0,0,0,.357-.5A1.675,1.675,0,0,0,59,72.512l.005-.033L59,72.445a1.769,1.769,0,0,0-.044-.191.974.974,0,0,0-.357-.5.9.9,0,0,0-.414-.167" transform="translate(38.236 47.972)" fill="#5573c6"/>
            <path id="Trazado_769683" data-name="Trazado 769683" d="M65.014,66.931a3.725,3.725,0,1,1-3.725-3.725,3.725,3.725,0,0,1,3.725,3.725" transform="translate(38.806 42.609)" fill="#f4a338"/>
            <path id="Trazado_769684" data-name="Trazado 769684" d="M58.516,66.136l.557-.557,1.075.956L62.26,64.5l.517.557-2.709,2.548Z" transform="translate(39.448 43.484)" fill="#fff"/>
          </g>
        </g>
      </g>
    </g>
  </g>
</svg>
