<svg id="Grupo_1029753" data-name="Grupo 1029753" xmlns="http://www.w3.org/2000/svg" xmlns:xlink="http://www.w3.org/1999/xlink" width="151.821" height="177.233" viewBox="0 0 151.821 177.233">
  <defs>
    <clipPath id="clip-path">
      <rect id="Rectángulo_364446" data-name="Rectángulo 364446" width="151.821" height="177.233" fill="none"/>
    </clipPath>
    <clipPath id="clip-path-3">
      <path id="Trazado_774731" data-name="Trazado 774731" d="M259.2,176.492a15.124,15.124,0,1,0,15.124-15.123A15.124,15.124,0,0,0,259.2,176.492" transform="translate(-259.195 -161.369)" fill="none"/>
    </clipPath>
    <clipPath id="clip-path-4">
      <rect id="Rectángulo_364393" data-name="Rectángulo 364393" width="2.975" height="1.528" fill="none"/>
    </clipPath>
    <clipPath id="clip-path-5">
      <rect id="Rectángulo_364394" data-name="Rectángulo 364394" width="0.721" height="1.414" fill="none"/>
    </clipPath>
    <clipPath id="clip-path-6">
      <rect id="Rectángulo_364395" data-name="Rectángulo 364395" width="0.445" height="0.513" fill="none"/>
    </clipPath>
    <clipPath id="clip-path-9">
      <rect id="Rectángulo_364398" data-name="Rectángulo 364398" width="7.9" height="3.611" fill="none"/>
    </clipPath>
    <clipPath id="clip-path-11">
      <path id="Trazado_774746" data-name="Trazado 774746" d="M15.511,176.494a15.123,15.123,0,1,0,15.123-15.125,15.123,15.123,0,0,0-15.123,15.125" transform="translate(-15.511 -161.369)" fill="none"/>
    </clipPath>
    <clipPath id="clip-path-12">
      <rect id="Rectángulo_364401" data-name="Rectángulo 364401" width="2.975" height="1.529" fill="none"/>
    </clipPath>
    <clipPath id="clip-path-16">
      <rect id="Rectángulo_364405" data-name="Rectángulo 364405" width="0.444" height="0.513" fill="none"/>
    </clipPath>
    <clipPath id="clip-path-18">
      <path id="Trazado_774762" data-name="Trazado 774762" d="M21.882,78.362A15.123,15.123,0,1,0,37.005,63.238,15.123,15.123,0,0,0,21.882,78.362" transform="translate(-21.882 -63.238)" fill="none"/>
    </clipPath>
    <clipPath id="clip-path-20">
      <rect id="Rectángulo_364409" data-name="Rectángulo 364409" width="0.721" height="1.413" fill="none"/>
    </clipPath>
    <clipPath id="clip-path-22">
      <rect id="Rectángulo_364411" data-name="Rectángulo 364411" width="0.722" height="1.413" fill="none"/>
    </clipPath>
    <clipPath id="clip-path-25">
      <path id="Trazado_774777" data-name="Trazado 774777" d="M252.393,78.362a15.124,15.124,0,1,0,15.124-15.124,15.124,15.124,0,0,0-15.124,15.124" transform="translate(-252.393 -63.238)" fill="none"/>
    </clipPath>
    <clipPath id="clip-path-32">
      <path id="Trazado_774795" data-name="Trazado 774795" d="M152.261,0a15.124,15.124,0,1,0,15.124,15.123A15.123,15.123,0,0,0,152.261,0Z" transform="translate(-137.137)" fill="none"/>
    </clipPath>
    <clipPath id="clip-path-34">
      <rect id="Rectángulo_364423" data-name="Rectángulo 364423" width="0.722" height="1.414" fill="none"/>
    </clipPath>
    <clipPath id="clip-path-39">
      <rect id="Rectángulo_364430" data-name="Rectángulo 364430" width="41.267" height="72.142" fill="none"/>
    </clipPath>
    <clipPath id="clip-path-40">
      <rect id="Rectángulo_364431" data-name="Rectángulo 364431" width="12.423" height="1.188" fill="none"/>
    </clipPath>
    <clipPath id="clip-path-41">
      <path id="Trazado_774846" data-name="Trazado 774846" d="M135.71,194.156a15.877,15.877,0,1,0,15.877-15.877,15.877,15.877,0,0,0-15.877,15.877" transform="translate(-135.71 -178.279)" fill="none"/>
    </clipPath>
    <clipPath id="clip-path-42">
      <rect id="Rectángulo_364435" data-name="Rectángulo 364435" width="3.124" height="1.857" fill="none"/>
    </clipPath>
    <clipPath id="clip-path-43">
      <rect id="Rectángulo_364436" data-name="Rectángulo 364436" width="0.757" height="1.484" fill="none"/>
    </clipPath>
    <clipPath id="clip-path-44">
      <rect id="Rectángulo_364437" data-name="Rectángulo 364437" width="0.466" height="0.539" fill="none"/>
    </clipPath>
    <clipPath id="clip-path-45">
      <rect id="Rectángulo_364438" data-name="Rectángulo 364438" width="0.756" height="1.484" fill="none"/>
    </clipPath>
    <clipPath id="clip-path-46">
      <rect id="Rectángulo_364439" data-name="Rectángulo 364439" width="0.467" height="0.539" fill="none"/>
    </clipPath>
    <clipPath id="clip-path-47">
      <rect id="Rectángulo_364440" data-name="Rectángulo 364440" width="1.538" height="0.385" fill="none"/>
    </clipPath>
    <clipPath id="clip-path-48">
      <rect id="Rectángulo_364441" data-name="Rectángulo 364441" width="2.392" height="1.667" fill="none"/>
    </clipPath>
    <clipPath id="clip-path-49">
      <rect id="Rectángulo_364442" data-name="Rectángulo 364442" width="2.623" height="1.672" fill="none"/>
    </clipPath>
    <clipPath id="clip-path-50">
      <rect id="Rectángulo_364443" data-name="Rectángulo 364443" width="2.549" height="1.708" fill="none"/>
    </clipPath>
    <clipPath id="clip-path-51">
      <rect id="Rectángulo_364444" data-name="Rectángulo 364444" width="2.548" height="1.708" fill="none"/>
    </clipPath>
  </defs>
  <g id="Grupo_1029752" data-name="Grupo 1029752" clip-path="url(#clip-path)">
    <g id="Grupo_1029613" data-name="Grupo 1029613">
      <g id="Grupo_1029612" data-name="Grupo 1029612" clip-path="url(#clip-path)">
        <circle id="Elipse_8589" data-name="Elipse 8589" cx="61.102" cy="61.102" r="61.102" transform="translate(15.212 134.373) rotate(-89.927)" fill="none" stroke="#fff" stroke-miterlimit="10" stroke-width="4" stroke-dasharray="2.827 2.827"/>
        <path id="Trazado_774714" data-name="Trazado 774714" d="M289.444,176.493a15.124,15.124,0,1,1-15.125-15.123,15.124,15.124,0,0,1,15.125,15.123" transform="translate(-143.397 -89.276)" fill="#e6b046"/>
      </g>
    </g>
    <g id="Grupo_1029633" data-name="Grupo 1029633" transform="translate(115.798 72.094)">
      <g id="Grupo_1029632" data-name="Grupo 1029632" clip-path="url(#clip-path-3)">
        <rect id="Rectángulo_364392" data-name="Rectángulo 364392" width="2.975" height="1.77" transform="translate(13.637 22.285)" fill="#f8ab81"/>
        <g id="Grupo_1029616" data-name="Grupo 1029616" transform="translate(13.637 22.285)" style="mix-blend-mode: multiply;isolation: isolate">
          <g id="Grupo_1029615" data-name="Grupo 1029615">
            <g id="Grupo_1029614" data-name="Grupo 1029614" clip-path="url(#clip-path-4)">
              <path id="Trazado_774715" data-name="Trazado 774715" d="M289.888,212.571a2.029,2.029,0,0,1,1.3-.586c.424-.032,1.15.059,1.376-.383a.509.509,0,0,1,.128-.163v-.189h-2.975v1.528a1.514,1.514,0,0,1,.169-.207" transform="translate(-289.719 -211.25)" fill="#bababa"/>
            </g>
          </g>
        </g>
        <path id="Trazado_774716" data-name="Trazado 774716" d="M306.319,196.9a1.372,1.372,0,1,1-1.371-1.325,1.349,1.349,0,0,1,1.371,1.325" transform="translate(-283.748 -180.294)" fill="#f8ab81"/>
        <g id="Grupo_1029619" data-name="Grupo 1029619" transform="translate(21.377 15.867)" style="mix-blend-mode: multiply;isolation: isolate">
          <g id="Grupo_1029618" data-name="Grupo 1029618">
            <g id="Grupo_1029617" data-name="Grupo 1029617" clip-path="url(#clip-path-5)">
              <path id="Trazado_774717" data-name="Trazado 774717" d="M307.043,196.887a.614.614,0,0,1,.092,0,.781.781,0,0,1,.243.048.585.585,0,0,1,.291.224.743.743,0,0,1,.052.095.951.951,0,0,1,.031.106l.012.11c0,.037,0,.072,0,.109a.982.982,0,0,1-.042.207.888.888,0,0,1-.086.186.687.687,0,0,1-.256.256.525.525,0,0,1-.133.054.764.764,0,0,1-.107.018c-.059,0-.092,0-.092,0l.084-.034c.026-.01.055-.029.089-.046a.759.759,0,0,0,.1-.076.64.64,0,0,0,.1-.107.833.833,0,0,0,.081-.138,1.258,1.258,0,0,0,.059-.162.84.84,0,0,0,.03-.176l.007-.086-.006-.083c-.008-.027-.012-.053-.017-.08s-.018-.05-.031-.072a.593.593,0,0,0-.2-.213,1.164,1.164,0,0,0-.205-.1c-.052-.021-.084-.031-.084-.031" transform="translate(-307.043 -196.884)" fill="#d2d1d1"/>
            </g>
          </g>
        </g>
        <g id="Grupo_1029622" data-name="Grupo 1029622" transform="translate(21.109 16.416)" style="mix-blend-mode: multiply;isolation: isolate">
          <g id="Grupo_1029621" data-name="Grupo 1029621">
            <g id="Grupo_1029620" data-name="Grupo 1029620" clip-path="url(#clip-path-6)">
              <path id="Trazado_774718" data-name="Trazado 774718" d="M306.889,198.37a.225.225,0,1,1-.223-.256.242.242,0,0,1,.223.256" transform="translate(-306.444 -198.114)" fill="#d2d1d1"/>
            </g>
          </g>
        </g>
        <path id="Trazado_774719" data-name="Trazado 774719" d="M276.8,196.9a1.372,1.372,0,1,0,1.372-1.325A1.349,1.349,0,0,0,276.8,196.9" transform="translate(-268.934 -180.294)" fill="#f8ab81"/>
        <g id="Grupo_1029625" data-name="Grupo 1029625" transform="translate(8.339 15.867)" style="mix-blend-mode: multiply;isolation: isolate">
          <g id="Grupo_1029624" data-name="Grupo 1029624">
            <g id="Grupo_1029623" data-name="Grupo 1029623" clip-path="url(#clip-path-5)">
              <path id="Trazado_774720" data-name="Trazado 774720" d="M278.581,196.887a.622.622,0,0,0-.092,0,.79.79,0,0,0-.243.048.593.593,0,0,0-.291.224,1.062,1.062,0,0,0-.052.095c-.012.034-.021.07-.031.106l-.011.11c0,.037,0,.072,0,.109a.957.957,0,0,0,.042.207.866.866,0,0,0,.085.186.69.69,0,0,0,.257.256.513.513,0,0,0,.133.054.763.763,0,0,0,.106.018c.059,0,.092,0,.092,0l-.083-.034c-.026-.01-.055-.029-.09-.046a.865.865,0,0,1-.1-.076.679.679,0,0,1-.1-.107.837.837,0,0,1-.081-.138,1.145,1.145,0,0,1-.059-.162.74.74,0,0,1-.03-.176l-.007-.086.006-.083c.007-.027.012-.053.017-.08s.018-.05.031-.072a.593.593,0,0,1,.2-.213,1.164,1.164,0,0,1,.205-.1c.052-.021.084-.031.084-.031" transform="translate(-277.86 -196.884)" fill="#d2d1d1"/>
            </g>
          </g>
        </g>
        <g id="Grupo_1029628" data-name="Grupo 1029628" transform="translate(8.883 16.416)" style="mix-blend-mode: multiply;isolation: isolate">
          <g id="Grupo_1029627" data-name="Grupo 1029627">
            <g id="Grupo_1029626" data-name="Grupo 1029626" clip-path="url(#clip-path-6)">
              <path id="Trazado_774721" data-name="Trazado 774721" d="M279.077,198.37a.225.225,0,1,0,.223-.256.242.242,0,0,0-.223.256" transform="translate(-279.077 -198.114)" fill="#d2d1d1"/>
            </g>
          </g>
        </g>
        <path id="Trazado_774722" data-name="Trazado 774722" d="M291.6,184.542c0,4.5-2.112,7.66-6.076,7.66s-6.075-3.16-6.075-7.66,2.192-8.149,6.156-8.149,5.995,3.648,5.995,8.149" transform="translate(-270.401 -169.681)" fill="#f8ab81"/>
        <path id="Trazado_774723" data-name="Trazado 774723" d="M280.664,215.045s-3.773.5-5.13,1.674c-1.383,1.2-1.792,2.23-2.29,4.594h17.694c-.5-2.364-.906-3.4-2.289-4.594-1.356-1.175-5.13-1.674-5.13-1.674Z" transform="translate(-266.968 -191.065)" fill="#f8ab81"/>
        <path id="Trazado_774724" data-name="Trazado 774724" d="M279.213,215.625a7.76,7.76,0,0,0-3.679,1.414c-1.383,1.2-1.792,2.23-2.29,4.594h17.694c-.5-2.364-.906-3.4-2.289-4.594a7.727,7.727,0,0,0-3.669-1.413l-2.889,2.874Z" transform="translate(-266.968 -191.385)" fill="#282e37"/>
        <path id="Trazado_774725" data-name="Trazado 774725" d="M278.875,180.209l.219,3.673.537.152c-.472-5.929,2.65-7.286,2.65-7.286l.874-3.711a4.355,4.355,0,0,0-3.836,2.119s-.988,1-.445,5.053" transform="translate(-269.992 -167.824)" fill="#341e13"/>
        <path id="Trazado_774726" data-name="Trazado 774726" d="M278.616,181.646s-.11-.463-.206-1.161c-.05-.348-.1-.755-.137-1.193-.017-.218-.042-.444-.054-.674q-.01-.172-.021-.347l0-.088c0-.075,0-.071,0-.11l0-.175a3.385,3.385,0,0,1,.125-.741,1.925,1.925,0,0,1,.117-.346,2.661,2.661,0,0,1,.147-.322,3.252,3.252,0,0,1,.352-.562,3.438,3.438,0,0,1,.385-.444,3.509,3.509,0,0,1,.958-.71,7.243,7.243,0,0,0-.724.905c-.1.141-.194.3-.287.466a4.552,4.552,0,0,0-.26.541,3.664,3.664,0,0,0-.193.6,2.03,2.03,0,0,0-.061.31,2.057,2.057,0,0,0-.031.324l-.01.175c0,.019,0,.081,0,.064l0,.088c0,.116.008.232.012.347.009.23.005.457.008.676,0,.439-.008.849-.025,1.2-.03.7-.1,1.175-.1,1.175" transform="translate(-269.705 -168.785)" fill="#201208"/>
        <g id="Grupo_1029631" data-name="Grupo 1029631" transform="translate(11.929 8.608)" style="mix-blend-mode: multiply;isolation: isolate">
          <g id="Grupo_1029630" data-name="Grupo 1029630">
            <g id="Grupo_1029629" data-name="Grupo 1029629" clip-path="url(#clip-path-9)">
              <path id="Trazado_774727" data-name="Trazado 774727" d="M285.895,181.169s1.876,3.238,7.9,3.071c0,0-1.128-1.332-.566-1.965,0,0-5.832-2.773-7.333-1.106" transform="translate(-285.895 -180.636)" fill="#bababa"/>
            </g>
          </g>
        </g>
        <path id="Trazado_774728" data-name="Trazado 774728" d="M301.616,181.819l-.219,3.674-.537.151c.472-5.929-2.651-7.285-2.651-7.285l-.874-3.711a4.354,4.354,0,0,1,3.836,2.118s.988,1,.445,5.053" transform="translate(-280.295 -168.715)" fill="#341e13"/>
        <path id="Trazado_774729" data-name="Trazado 774729" d="M283.684,171.425s.866-1.763,3.974-2.245c0,0,5.173-.623,6.822,2.966a9.609,9.609,0,0,1,.533,4.769,3.127,3.127,0,0,0-1.161-1.823s-.142,1.618-2.375.623c0,0-.354.663.424,1.843,0,0-7.23,0-8.217-6.133" transform="translate(-272.743 -165.667)" fill="#341e13"/>
        <path id="Trazado_774730" data-name="Trazado 774730" d="M283.684,171.105a.831.831,0,0,1,.061-.129,2.085,2.085,0,0,1,.216-.344,4.14,4.14,0,0,1,.414-.482,5.48,5.48,0,0,1,.638-.529l.407-.246.217-.127.238-.1a5.367,5.367,0,0,1,1.035-.363l.563-.138.144-.035.159-.019c.1-.011.2-.014.3-.021a9.43,9.43,0,0,1,2.406.169c.2.044.388.093.578.143l.552.185a5.747,5.747,0,0,1,.989.489,2.482,2.482,0,0,1,.422.289,4.586,4.586,0,0,1,.367.306,3.82,3.82,0,0,1,.54.631,3.306,3.306,0,0,1,.33.541c.146.319.22.5.22.5s-.118-.163-.308-.447a3.19,3.19,0,0,0-.394-.469,5.141,5.141,0,0,0-.585-.524,4.415,4.415,0,0,0-.373-.247l-.2-.128-.218-.108a6.955,6.955,0,0,0-.95-.393l-.524-.149-.548-.117a10.34,10.34,0,0,0-1.137-.136,10.5,10.5,0,0,0-1.147-.025l-.279.014-.127.008-.137.027-.537.105a6.357,6.357,0,0,0-1,.275l-.232.076-.213.1-.408.189c-.246.146-.477.281-.668.419a4.192,4.192,0,0,0-.464.4,2.4,2.4,0,0,0-.355.407" transform="translate(-272.743 -165.347)" fill="#201208"/>
      </g>
    </g>
    <g id="Grupo_1029635" data-name="Grupo 1029635">
      <g id="Grupo_1029634" data-name="Grupo 1029634" clip-path="url(#clip-path)">
        <path id="Trazado_774732" data-name="Trazado 774732" d="M45.757,176.494a15.124,15.124,0,1,1-15.124-15.125,15.124,15.124,0,0,1,15.124,15.125" transform="translate(-8.581 -89.275)" fill="#5573c6"/>
      </g>
    </g>
    <g id="Grupo_1029652" data-name="Grupo 1029652" transform="translate(6.93 72.094)">
      <g id="Grupo_1029651" data-name="Grupo 1029651" clip-path="url(#clip-path-11)">
        <rect id="Rectángulo_364400" data-name="Rectángulo 364400" width="2.975" height="1.77" transform="translate(13.637 22.285)" fill="#f8ab81"/>
        <g id="Grupo_1029638" data-name="Grupo 1029638" transform="translate(13.636 22.285)" style="mix-blend-mode: multiply;isolation: isolate">
          <g id="Grupo_1029637" data-name="Grupo 1029637">
            <g id="Grupo_1029636" data-name="Grupo 1029636" clip-path="url(#clip-path-12)">
              <path id="Trazado_774733" data-name="Trazado 774733" d="M46.2,212.571a2.025,2.025,0,0,1,1.3-.586c.424-.032,1.15.059,1.376-.384a.493.493,0,0,1,.128-.162v-.189H46.034v1.529a1.471,1.471,0,0,1,.169-.208" transform="translate(-46.034 -211.25)" fill="#bababa"/>
            </g>
          </g>
        </g>
        <path id="Trazado_774734" data-name="Trazado 774734" d="M62.635,196.9a1.373,1.373,0,1,1-1.372-1.325,1.348,1.348,0,0,1,1.372,1.325" transform="translate(-40.064 -180.295)" fill="#f8ab81"/>
        <g id="Grupo_1029641" data-name="Grupo 1029641" transform="translate(21.375 15.867)" style="mix-blend-mode: multiply;isolation: isolate">
          <g id="Grupo_1029640" data-name="Grupo 1029640">
            <g id="Grupo_1029639" data-name="Grupo 1029639" clip-path="url(#clip-path-5)">
              <path id="Trazado_774735" data-name="Trazado 774735" d="M63.356,196.887a.541.541,0,0,1,.092,0,.788.788,0,0,1,.243.048.6.6,0,0,1,.292.224,1.007,1.007,0,0,1,.051.1c.012.034.022.07.032.105l.011.111c0,.036,0,.073,0,.108a.976.976,0,0,1-.044.206.873.873,0,0,1-.085.187.682.682,0,0,1-.257.255.543.543,0,0,1-.132.055.752.752,0,0,1-.107.017h-.092l.084-.034c.027-.01.056-.029.09-.046a.75.75,0,0,0,.1-.076.663.663,0,0,0,.1-.107.9.9,0,0,0,.081-.139.992.992,0,0,0,.058-.162.737.737,0,0,0,.031-.176l.006-.087-.006-.084c-.007-.026-.011-.052-.017-.079s-.017-.049-.03-.072a.609.609,0,0,0-.2-.213,1.243,1.243,0,0,0-.2-.1c-.053-.021-.085-.03-.085-.03" transform="translate(-63.356 -196.884)" fill="#d2d1d1"/>
            </g>
          </g>
        </g>
        <g id="Grupo_1029644" data-name="Grupo 1029644" transform="translate(21.108 16.416)" style="mix-blend-mode: multiply;isolation: isolate">
          <g id="Grupo_1029643" data-name="Grupo 1029643">
            <g id="Grupo_1029642" data-name="Grupo 1029642" clip-path="url(#clip-path-6)">
              <path id="Trazado_774736" data-name="Trazado 774736" d="M63.2,198.37a.225.225,0,1,1-.222-.256.242.242,0,0,1,.222.256" transform="translate(-62.758 -198.114)" fill="#d2d1d1"/>
            </g>
          </g>
        </g>
        <path id="Trazado_774737" data-name="Trazado 774737" d="M33.114,196.9a1.372,1.372,0,1,0,1.371-1.325,1.347,1.347,0,0,0-1.371,1.325" transform="translate(-25.25 -180.295)" fill="#f8ab81"/>
        <g id="Grupo_1029647" data-name="Grupo 1029647" transform="translate(8.338 15.867)" style="mix-blend-mode: multiply;isolation: isolate">
          <g id="Grupo_1029646" data-name="Grupo 1029646">
            <g id="Grupo_1029645" data-name="Grupo 1029645" clip-path="url(#clip-path-5)">
              <path id="Trazado_774738" data-name="Trazado 774738" d="M34.895,196.887a.532.532,0,0,0-.092,0,.79.79,0,0,0-.243.048.607.607,0,0,0-.292.224c-.019.029-.034.063-.052.1s-.021.07-.031.105l-.011.111c0,.036,0,.073,0,.108a.922.922,0,0,0,.043.206.9.9,0,0,0,.085.187.687.687,0,0,0,.257.255.561.561,0,0,0,.132.055.751.751,0,0,0,.107.017h.092l-.084-.034c-.026-.01-.055-.029-.089-.046a.811.811,0,0,1-.1-.076.684.684,0,0,1-.1-.107.836.836,0,0,1-.081-.139.993.993,0,0,1-.059-.162.838.838,0,0,1-.031-.176l-.007-.087.006-.084c.008-.026.013-.052.019-.079s.017-.049.029-.072a.618.618,0,0,1,.2-.213,1.192,1.192,0,0,1,.2-.1c.053-.021.085-.03.085-.03" transform="translate(-34.174 -196.884)" fill="#d2d1d1"/>
            </g>
          </g>
        </g>
        <g id="Grupo_1029650" data-name="Grupo 1029650" transform="translate(8.882 16.416)" style="mix-blend-mode: multiply;isolation: isolate">
          <g id="Grupo_1029649" data-name="Grupo 1029649">
            <g id="Grupo_1029648" data-name="Grupo 1029648" clip-path="url(#clip-path-16)">
              <path id="Trazado_774739" data-name="Trazado 774739" d="M35.391,198.37a.224.224,0,1,0,.222-.256.241.241,0,0,0-.222.256" transform="translate(-35.391 -198.114)" fill="#d2d1d1"/>
            </g>
          </g>
        </g>
        <path id="Trazado_774740" data-name="Trazado 774740" d="M47.913,184.542c0,4.5-2.111,7.66-6.076,7.66s-6.076-3.16-6.076-7.66,2.192-8.149,6.156-8.149,6,3.648,6,8.149" transform="translate(-26.715 -169.681)" fill="#f8ab81"/>
        <path id="Trazado_774741" data-name="Trazado 774741" d="M36.979,215.047s-3.773.5-5.131,1.672c-1.382,1.2-1.791,2.231-2.289,4.595H47.253c-.5-2.364-.906-3.4-2.289-4.595-1.356-1.173-5.13-1.672-5.13-1.672Z" transform="translate(-23.283 -191.066)" fill="#f8ab81"/>
        <path id="Trazado_774742" data-name="Trazado 774742" d="M40.016,215.868s.408-.173-1.082.3a13.743,13.743,0,0,1-.258,5.585h9.745a8.712,8.712,0,0,1,0-5.431l-.9-.327s-.084,4.517-4.13,4.2c0,0-3.507.344-3.375-4.329" transform="translate(-28.327 -191.503)" fill="#373f51"/>
        <path id="Trazado_774743" data-name="Trazado 774743" d="M38.162,176.062s-4.354.148-5.187,7.031a18.43,18.43,0,0,0,1.935,10.5,18.037,18.037,0,0,1,3.837-.109v-1.632s-4.117-.724-4.064-6.109c0,0,.027-6.215,3.188-7.394Z" transform="translate(-25.111 -169.498)" fill="#601800"/>
        <path id="Trazado_774744" data-name="Trazado 774744" d="M53.276,176.062s4.936-.077,5.77,6.806c0,0,.428,4.6-2.518,10.727a18.035,18.035,0,0,0-3.836-.109v-1.632s4.116-.724,4.063-6.109c0,0-.026-6.215-3.188-7.394Z" transform="translate(-36.081 -169.498)" fill="#601800"/>
        <path id="Trazado_774745" data-name="Trazado 774745" d="M40.578,175.179a9.635,9.635,0,0,0,8.654,4.045l1.151,2.931,1.141.473s1.722-.473-.07-7.448c0,0-1.853-5.1-8.543-3.582,0,0-3.334.609-2.334,3.582" transform="translate(-29.276 -166.871)" fill="#601800"/>
      </g>
    </g>
    <g id="Grupo_1029654" data-name="Grupo 1029654">
      <g id="Grupo_1029653" data-name="Grupo 1029653" clip-path="url(#clip-path)">
        <path id="Trazado_774747" data-name="Trazado 774747" d="M52.129,78.362A15.124,15.124,0,1,1,37.005,63.237,15.124,15.124,0,0,1,52.129,78.362" transform="translate(-12.106 -34.985)" fill="#4adbd1"/>
      </g>
    </g>
    <g id="Grupo_1029671" data-name="Grupo 1029671" transform="translate(9.776 28.252)">
      <g id="Grupo_1029670" data-name="Grupo 1029670" clip-path="url(#clip-path-18)">
        <path id="Trazado_774748" data-name="Trazado 774748" d="M64.342,101.032s-1.957,6.613-5.413,7.029v-1.507s3.543-6.606,5.413-5.522" transform="translate(-42.378 -84.081)" fill="#341e13"/>
        <rect id="Rectángulo_364407" data-name="Rectángulo 364407" width="2.975" height="1.77" transform="translate(13.636 22.285)" fill="#f8ab81"/>
        <g id="Grupo_1029657" data-name="Grupo 1029657" transform="translate(13.636 22.285)" style="mix-blend-mode: multiply;isolation: isolate">
          <g id="Grupo_1029656" data-name="Grupo 1029656">
            <g id="Grupo_1029655" data-name="Grupo 1029655" clip-path="url(#clip-path-12)">
              <path id="Trazado_774749" data-name="Trazado 774749" d="M52.572,114.44a2.029,2.029,0,0,1,1.3-.586c.425-.032,1.151.059,1.377-.384a.52.52,0,0,1,.127-.163v-.189H52.4v1.529a1.641,1.641,0,0,1,.169-.208" transform="translate(-52.403 -113.119)" fill="#bababa"/>
            </g>
          </g>
        </g>
        <path id="Trazado_774750" data-name="Trazado 774750" d="M69,98.77a1.373,1.373,0,1,1-1.372-1.324A1.349,1.349,0,0,1,69,98.77" transform="translate(-46.434 -82.163)" fill="#f8ab81"/>
        <g id="Grupo_1029660" data-name="Grupo 1029660" transform="translate(21.375 15.867)" style="mix-blend-mode: multiply;isolation: isolate">
          <g id="Grupo_1029659" data-name="Grupo 1029659">
            <g id="Grupo_1029658" data-name="Grupo 1029658" clip-path="url(#clip-path-20)">
              <path id="Trazado_774751" data-name="Trazado 774751" d="M69.727,98.756a.58.58,0,0,1,.092,0,.777.777,0,0,1,.243.048.6.6,0,0,1,.291.224.8.8,0,0,1,.051.095c.013.034.022.07.032.106l.011.11c0,.037,0,.072,0,.109a.988.988,0,0,1-.043.206.875.875,0,0,1-.085.187.684.684,0,0,1-.257.255.529.529,0,0,1-.133.055.75.75,0,0,1-.106.018h-.092l.084-.034c.026-.01.055-.03.089-.046a.778.778,0,0,0,.1-.076.689.689,0,0,0,.1-.107.875.875,0,0,0,.08-.138,1.052,1.052,0,0,0,.059-.162.794.794,0,0,0,.031-.176l.006-.087-.006-.084c-.007-.026-.011-.053-.017-.079s-.018-.05-.03-.072a.6.6,0,0,0-.2-.213,1.159,1.159,0,0,0-.2-.1c-.053-.021-.085-.031-.085-.031" transform="translate(-69.727 -98.753)" fill="#d2d1d1"/>
            </g>
          </g>
        </g>
        <g id="Grupo_1029663" data-name="Grupo 1029663" transform="translate(21.108 16.416)" style="mix-blend-mode: multiply;isolation: isolate">
          <g id="Grupo_1029662" data-name="Grupo 1029662">
            <g id="Grupo_1029661" data-name="Grupo 1029661" clip-path="url(#clip-path-16)">
              <path id="Trazado_774752" data-name="Trazado 774752" d="M69.574,100.238a.224.224,0,1,1-.222-.256.241.241,0,0,1,.222.256" transform="translate(-69.13 -99.982)" fill="#d2d1d1"/>
            </g>
          </g>
        </g>
        <path id="Trazado_774753" data-name="Trazado 774753" d="M39.485,98.77a1.372,1.372,0,1,0,1.371-1.324,1.348,1.348,0,0,0-1.371,1.324" transform="translate(-31.621 -82.163)" fill="#f8ab81"/>
        <g id="Grupo_1029666" data-name="Grupo 1029666" transform="translate(8.337 15.867)" style="mix-blend-mode: multiply;isolation: isolate">
          <g id="Grupo_1029665" data-name="Grupo 1029665">
            <g id="Grupo_1029664" data-name="Grupo 1029664" clip-path="url(#clip-path-22)">
              <path id="Trazado_774754" data-name="Trazado 774754" d="M41.266,98.756a.6.6,0,0,0-.093,0,.782.782,0,0,0-.243.048.6.6,0,0,0-.291.224,1.054,1.054,0,0,0-.051.095c-.012.034-.022.07-.032.106l-.011.11c0,.037,0,.072,0,.109a.959.959,0,0,0,.042.206.921.921,0,0,0,.085.187.684.684,0,0,0,.257.255.529.529,0,0,0,.133.055.772.772,0,0,0,.106.018h.093l-.084-.034c-.026-.01-.055-.03-.089-.046a.717.717,0,0,1-.1-.076.647.647,0,0,1-.1-.107.878.878,0,0,1-.081-.138,1.1,1.1,0,0,1-.059-.162.793.793,0,0,1-.03-.176l-.007-.087.006-.084c.008-.026.012-.053.018-.079s.017-.05.03-.072a.591.591,0,0,1,.2-.213,1.126,1.126,0,0,1,.2-.1c.053-.021.086-.031.086-.031" transform="translate(-40.544 -98.753)" fill="#d2d1d1"/>
            </g>
          </g>
        </g>
        <g id="Grupo_1029669" data-name="Grupo 1029669" transform="translate(8.881 16.416)" style="mix-blend-mode: multiply;isolation: isolate">
          <g id="Grupo_1029668" data-name="Grupo 1029668">
            <g id="Grupo_1029667" data-name="Grupo 1029667" clip-path="url(#clip-path-6)">
              <path id="Trazado_774755" data-name="Trazado 774755" d="M41.76,100.238a.225.225,0,1,0,.222-.256.242.242,0,0,0-.222.256" transform="translate(-41.76 -99.982)" fill="#d2d1d1"/>
            </g>
          </g>
        </g>
        <path id="Trazado_774756" data-name="Trazado 774756" d="M54.285,86.411c0,4.5-2.111,7.66-6.075,7.66s-6.076-3.16-6.076-7.66,2.192-8.148,6.156-8.148,5.995,3.648,5.995,8.148" transform="translate(-33.086 -71.55)" fill="#f8ab81"/>
        <path id="Trazado_774757" data-name="Trazado 774757" d="M43.348,116.914s-3.773.5-5.13,1.673c-1.382,1.2-1.792,2.231-2.29,4.595H53.624c-.5-2.364-.906-3.4-2.29-4.595-1.356-1.174-5.13-1.673-5.13-1.673Z" transform="translate(-29.653 -92.934)" fill="#f8ab81"/>
        <path id="Trazado_774758" data-name="Trazado 774758" d="M51.248,116.914a19.852,19.852,0,0,1,3.544.836,8.707,8.707,0,0,0,0,5.432H45.047A13.783,13.783,0,0,0,45.3,117.6a20.9,20.9,0,0,1,3.088-.683l1.368,2.661Z" transform="translate(-34.698 -92.934)" fill="#f4a338"/>
        <path id="Trazado_774759" data-name="Trazado 774759" d="M58.009,84.339c-2.049-.5-3.043-3.046-3.043-3.046a2.966,2.966,0,0,0,.067,1.233,18.7,18.7,0,0,1-5.954-4.448c-1.886-2.328,1.143-3.857,1.143-3.857,4.858-1.715,6.948,1.529,6.948,1.529s3.451,3.122,1.752,9.155a1.47,1.47,0,0,0-.913-.565" transform="translate(-36.586 -69.037)" fill="#341e13"/>
        <path id="Trazado_774760" data-name="Trazado 774760" d="M44.539,77.931s-4.354.148-5.187,7.03c0,0-1.2,12.591,4.445,14.734,0,0-.371-3.563,1.326-4.34V93.722S41.006,93,41.06,87.614c0,0,.026-6.215,3.188-7.394Z" transform="translate(-31.487 -71.367)" fill="#341e13"/>
        <path id="Trazado_774761" data-name="Trazado 774761" d="M69.222,102.694a.459.459,0,1,1-.459-.458.459.459,0,0,1,.459.458" transform="translate(-47.565 -84.813)" fill="#fff"/>
      </g>
    </g>
    <g id="Grupo_1029673" data-name="Grupo 1029673">
      <g id="Grupo_1029672" data-name="Grupo 1029672" clip-path="url(#clip-path)">
        <path id="Trazado_774763" data-name="Trazado 774763" d="M282.641,78.361a15.124,15.124,0,1,1-15.124-15.124,15.124,15.124,0,0,1,15.124,15.124" transform="translate(-139.633 -34.985)" fill="#4adbd1"/>
      </g>
    </g>
    <g id="Grupo_1029690" data-name="Grupo 1029690" transform="translate(112.76 28.252)">
      <g id="Grupo_1029689" data-name="Grupo 1029689" clip-path="url(#clip-path-25)">
        <rect id="Rectángulo_364414" data-name="Rectángulo 364414" width="2.975" height="1.77" transform="translate(13.637 22.285)" fill="#f8ab81"/>
        <g id="Grupo_1029676" data-name="Grupo 1029676" transform="translate(13.637 22.285)" style="mix-blend-mode: multiply;isolation: isolate">
          <g id="Grupo_1029675" data-name="Grupo 1029675">
            <g id="Grupo_1029674" data-name="Grupo 1029674" clip-path="url(#clip-path-12)">
              <path id="Trazado_774764" data-name="Trazado 774764" d="M283.085,114.44a2.023,2.023,0,0,1,1.3-.586c.424-.032,1.15.059,1.376-.385a.52.52,0,0,1,.128-.162v-.189h-2.975v1.529a1.48,1.48,0,0,1,.17-.208" transform="translate(-282.915 -113.119)" fill="#bababa"/>
            </g>
          </g>
        </g>
        <path id="Trazado_774765" data-name="Trazado 774765" d="M299.517,98.77a1.372,1.372,0,1,1-1.371-1.324,1.348,1.348,0,0,1,1.371,1.324" transform="translate(-276.946 -82.163)" fill="#f8ab81"/>
        <g id="Grupo_1029679" data-name="Grupo 1029679" transform="translate(21.377 15.867)" style="mix-blend-mode: multiply;isolation: isolate">
          <g id="Grupo_1029678" data-name="Grupo 1029678">
            <g id="Grupo_1029677" data-name="Grupo 1029677" clip-path="url(#clip-path-20)">
              <path id="Trazado_774766" data-name="Trazado 774766" d="M300.241,98.756a.573.573,0,0,1,.092,0,.772.772,0,0,1,.243.048.592.592,0,0,1,.291.224.875.875,0,0,1,.052.095c.012.034.022.07.031.106l.012.11c0,.037,0,.072,0,.109a.934.934,0,0,1-.043.206.832.832,0,0,1-.085.187.678.678,0,0,1-.257.255.541.541,0,0,1-.132.055.76.76,0,0,1-.107.018h-.092l.084-.034c.026-.01.055-.03.089-.046a.814.814,0,0,0,.1-.076.609.609,0,0,0,.1-.107.813.813,0,0,0,.081-.138,1.22,1.22,0,0,0,.059-.162.849.849,0,0,0,.03-.176l.007-.087-.006-.084c-.008-.026-.012-.053-.018-.079s-.017-.05-.03-.072a.588.588,0,0,0-.2-.213,1.1,1.1,0,0,0-.2-.1c-.052-.021-.084-.031-.084-.031" transform="translate(-300.241 -98.753)" fill="#d2d1d1"/>
            </g>
          </g>
        </g>
        <g id="Grupo_1029682" data-name="Grupo 1029682" transform="translate(21.109 16.416)" style="mix-blend-mode: multiply;isolation: isolate">
          <g id="Grupo_1029681" data-name="Grupo 1029681">
            <g id="Grupo_1029680" data-name="Grupo 1029680" clip-path="url(#clip-path-16)">
              <path id="Trazado_774767" data-name="Trazado 774767" d="M300.085,100.238a.224.224,0,1,1-.222-.256.241.241,0,0,1,.222.256" transform="translate(-299.641 -99.982)" fill="#d2d1d1"/>
            </g>
          </g>
        </g>
        <path id="Trazado_774768" data-name="Trazado 774768" d="M270,98.77a1.372,1.372,0,1,0,1.371-1.324A1.349,1.349,0,0,0,270,98.77" transform="translate(-262.132 -82.163)" fill="#f8ab81"/>
        <g id="Grupo_1029685" data-name="Grupo 1029685" transform="translate(8.338 15.867)" style="mix-blend-mode: multiply;isolation: isolate">
          <g id="Grupo_1029684" data-name="Grupo 1029684">
            <g id="Grupo_1029683" data-name="Grupo 1029683" clip-path="url(#clip-path-20)">
              <path id="Trazado_774769" data-name="Trazado 774769" d="M271.778,98.756a.585.585,0,0,0-.092,0,.772.772,0,0,0-.243.048.6.6,0,0,0-.293.224c-.019.029-.033.063-.051.095s-.021.07-.031.106l-.011.11c0,.037,0,.072,0,.109a.909.909,0,0,0,.042.206.835.835,0,0,0,.085.187.685.685,0,0,0,.257.255.532.532,0,0,0,.133.055.756.756,0,0,0,.107.018h.092l-.085-.034c-.025-.01-.055-.03-.089-.046a.85.85,0,0,1-.1-.076.643.643,0,0,1-.1-.107.881.881,0,0,1-.082-.138,1.105,1.105,0,0,1-.058-.162.8.8,0,0,1-.031-.176l-.006-.087.006-.084c.007-.026.011-.053.017-.079s.017-.05.031-.072a.593.593,0,0,1,.2-.213,1.16,1.16,0,0,1,.2-.1c.053-.021.086-.031.086-.031" transform="translate(-271.057 -98.753)" fill="#d2d1d1"/>
            </g>
          </g>
        </g>
        <g id="Grupo_1029688" data-name="Grupo 1029688" transform="translate(8.882 16.416)" style="mix-blend-mode: multiply;isolation: isolate">
          <g id="Grupo_1029687" data-name="Grupo 1029687">
            <g id="Grupo_1029686" data-name="Grupo 1029686" clip-path="url(#clip-path-16)">
              <path id="Trazado_774770" data-name="Trazado 774770" d="M272.274,100.238a.224.224,0,1,0,.223-.256.241.241,0,0,0-.223.256" transform="translate(-272.274 -99.982)" fill="#d2d1d1"/>
            </g>
          </g>
        </g>
        <path id="Trazado_774771" data-name="Trazado 774771" d="M284.8,86.411c0,4.5-2.112,7.66-6.076,7.66s-6.075-3.16-6.075-7.66,2.192-8.148,6.156-8.148,5.995,3.648,5.995,8.148" transform="translate(-263.598 -71.55)" fill="#f8ab81"/>
        <path id="Trazado_774772" data-name="Trazado 774772" d="M273.861,116.914s-3.774.5-5.13,1.673c-1.383,1.2-1.792,2.231-2.29,4.595h17.694c-.5-2.364-.906-3.4-2.289-4.595-1.357-1.174-5.13-1.673-5.13-1.673Z" transform="translate(-260.165 -92.934)" fill="#f8ab81"/>
        <path id="Trazado_774773" data-name="Trazado 774773" d="M278.548,117.653a8.6,8.6,0,0,1,3.3,1.33c1.382,1.2,1.792,2.231,2.289,4.595H266.442c.5-2.364.907-3.4,2.29-4.595a8.8,8.8,0,0,1,3.4-1.352l3.16,3.407Z" transform="translate(-260.165 -93.33)" fill="#365fa8"/>
        <path id="Trazado_774774" data-name="Trazado 774774" d="M274.983,77.931s-4.353.148-5.187,7.03c0,0-.163,5.912-.163,12.9,0,0,1-1.747,5.934-2.509V93.722S271.451,93,271.5,87.613c0,0,.027-6.214,3.188-7.393Z" transform="translate(-261.931 -71.367)" fill="#341e13"/>
        <path id="Trazado_774775" data-name="Trazado 774775" d="M290.158,77.93s4.946-.249,5.78,6.634c0,0,.1,6.108-.405,13.369,0,0-1.371-1.957-5.959-2.578V93.721s4.116-.724,4.063-6.109c0,0-.026-6.214-3.188-7.393Z" transform="translate(-272.963 -71.365)" fill="#341e13"/>
        <path id="Trazado_774776" data-name="Trazado 774776" d="M276.6,82.422l.614-3.083v3.083h3.051l.506-2.17.526,2.17h3.827a19.779,19.779,0,0,0-.4-3.965s-1.018-4.8-8.2-4.372c0,0-6.051,0-6.488,8.337Z" transform="translate(-262.153 -69.224)" fill="#341e13"/>
      </g>
    </g>
    <g id="Grupo_1029692" data-name="Grupo 1029692">
      <g id="Grupo_1029691" data-name="Grupo 1029691" clip-path="url(#clip-path)">
        <path id="Trazado_774778" data-name="Trazado 774778" d="M167.385,15.123A15.124,15.124,0,1,1,152.26,0a15.124,15.124,0,0,1,15.124,15.124" transform="translate(-75.869 0.001)" fill="#e6b046"/>
      </g>
    </g>
    <g id="Grupo_1029709" data-name="Grupo 1029709" transform="translate(61.268)">
      <g id="Grupo_1029708" data-name="Grupo 1029708" clip-path="url(#clip-path-32)">
        <rect id="Rectángulo_364421" data-name="Rectángulo 364421" width="2.975" height="1.769" transform="translate(13.637 22.284)" fill="#f8ab81"/>
        <g id="Grupo_1029695" data-name="Grupo 1029695" transform="translate(13.637 22.284)" style="mix-blend-mode: multiply;isolation: isolate">
          <g id="Grupo_1029694" data-name="Grupo 1029694">
            <g id="Grupo_1029693" data-name="Grupo 1029693" clip-path="url(#clip-path-4)">
              <path id="Trazado_774779" data-name="Trazado 774779" d="M167.831,51.2a2.021,2.021,0,0,1,1.3-.586c.424-.032,1.15.059,1.377-.384a.5.5,0,0,1,.127-.162V49.88h-2.975v1.528a1.442,1.442,0,0,1,.17-.207" transform="translate(-167.661 -49.88)" fill="#bababa"/>
            </g>
          </g>
        </g>
        <path id="Trazado_774780" data-name="Trazado 774780" d="M184.262,35.53a1.373,1.373,0,1,1-1.372-1.325,1.349,1.349,0,0,1,1.372,1.325" transform="translate(-161.69 -18.924)" fill="#f8ab81"/>
        <g id="Grupo_1029698" data-name="Grupo 1029698" transform="translate(21.376 15.866)" style="mix-blend-mode: multiply;isolation: isolate">
          <g id="Grupo_1029697" data-name="Grupo 1029697">
            <g id="Grupo_1029696" data-name="Grupo 1029696" clip-path="url(#clip-path-34)">
              <path id="Trazado_774781" data-name="Trazado 774781" d="M184.983,35.516a.526.526,0,0,1,.093,0,.748.748,0,0,1,.242.049.59.59,0,0,1,.292.223,1.076,1.076,0,0,1,.051.1c.013.034.022.07.032.106l.011.11c0,.036,0,.072,0,.109a.964.964,0,0,1-.043.206.85.85,0,0,1-.085.186.671.671,0,0,1-.257.255.564.564,0,0,1-.132.055.763.763,0,0,1-.106.017c-.06,0-.093,0-.093,0l.084-.034c.027-.01.055-.029.09-.046a.819.819,0,0,0,.1-.075.628.628,0,0,0,.1-.108.783.783,0,0,0,.081-.138,1.207,1.207,0,0,0,.059-.162.792.792,0,0,0,.03-.176l.007-.087-.006-.083c-.007-.026-.012-.053-.017-.079s-.017-.05-.031-.073a.588.588,0,0,0-.2-.212,1.131,1.131,0,0,0-.2-.1.865.865,0,0,0-.086-.031" transform="translate(-184.983 -35.513)" fill="#d2d1d1"/>
            </g>
          </g>
        </g>
        <g id="Grupo_1029701" data-name="Grupo 1029701" transform="translate(21.109 16.415)" style="mix-blend-mode: multiply;isolation: isolate">
          <g id="Grupo_1029700" data-name="Grupo 1029700">
            <g id="Grupo_1029699" data-name="Grupo 1029699" clip-path="url(#clip-path-6)">
              <path id="Trazado_774782" data-name="Trazado 774782" d="M184.83,37a.225.225,0,1,1-.222-.257.241.241,0,0,1,.222.257" transform="translate(-184.385 -36.742)" fill="#d2d1d1"/>
            </g>
          </g>
        </g>
        <path id="Trazado_774783" data-name="Trazado 774783" d="M154.741,35.53a1.373,1.373,0,1,0,1.372-1.325,1.349,1.349,0,0,0-1.372,1.325" transform="translate(-146.876 -18.924)" fill="#f8ab81"/>
        <g id="Grupo_1029704" data-name="Grupo 1029704" transform="translate(8.338 15.866)" style="mix-blend-mode: multiply;isolation: isolate">
          <g id="Grupo_1029703" data-name="Grupo 1029703">
            <g id="Grupo_1029702" data-name="Grupo 1029702" clip-path="url(#clip-path-5)">
              <path id="Trazado_774784" data-name="Trazado 774784" d="M156.523,35.516a.519.519,0,0,0-.092,0,.755.755,0,0,0-.243.049.593.593,0,0,0-.292.223,1.074,1.074,0,0,0-.051.1c-.012.034-.021.07-.032.106l-.011.11c0,.036,0,.072,0,.109a.936.936,0,0,0,.043.206.915.915,0,0,0,.085.186.678.678,0,0,0,.257.255.577.577,0,0,0,.132.055.784.784,0,0,0,.107.017c.06,0,.092,0,.092,0l-.084-.034c-.026-.01-.054-.029-.089-.046a.9.9,0,0,1-.1-.075.764.764,0,0,1-.1-.108.81.81,0,0,1-.08-.138,1.048,1.048,0,0,1-.059-.162.82.82,0,0,1-.031-.176l-.007-.087.005-.083c.008-.026.013-.053.019-.079a.756.756,0,0,1,.029-.073.593.593,0,0,1,.2-.212,1.1,1.1,0,0,1,.2-.1c.053-.022.085-.031.085-.031" transform="translate(-155.802 -35.513)" fill="#d2d1d1"/>
            </g>
          </g>
        </g>
        <g id="Grupo_1029707" data-name="Grupo 1029707" transform="translate(8.882 16.415)" style="mix-blend-mode: multiply;isolation: isolate">
          <g id="Grupo_1029706" data-name="Grupo 1029706">
            <g id="Grupo_1029705" data-name="Grupo 1029705" clip-path="url(#clip-path-6)">
              <path id="Trazado_774785" data-name="Trazado 774785" d="M157.018,37a.225.225,0,1,0,.222-.257.241.241,0,0,0-.222.257" transform="translate(-157.018 -36.742)" fill="#d2d1d1"/>
            </g>
          </g>
        </g>
        <path id="Trazado_774786" data-name="Trazado 774786" d="M169.542,23.172c0,4.5-2.112,7.66-6.075,7.66s-6.076-3.16-6.076-7.66,2.191-8.148,6.155-8.148,6,3.648,6,8.148" transform="translate(-148.342 -8.312)" fill="#f8ab81"/>
        <path id="Trazado_774787" data-name="Trazado 774787" d="M158.606,53.675s-3.773.5-5.13,1.673c-1.383,1.2-1.792,2.231-2.29,4.595H168.88c-.5-2.364-.907-3.4-2.29-4.595-1.355-1.174-5.129-1.673-5.129-1.673Z" transform="translate(-144.909 -29.695)" fill="#f8ab81"/>
        <path id="Trazado_774788" data-name="Trazado 774788" d="M162.922,54.255a7.732,7.732,0,0,1,3.669,1.412c1.383,1.2,1.792,2.231,2.29,4.595H151.186c.5-2.364.907-3.4,2.29-4.595a7.771,7.771,0,0,1,3.679-1.414,2.715,2.715,0,0,0,3.006,3.2s2.9.113,2.761-3.2" transform="translate(-144.909 -30.015)" fill="#365fa8"/>
        <line id="Línea_3658" data-name="Línea 3658" x1="0.12" transform="translate(15.064 30.247)" fill="#365fa8"/>
        <path id="Trazado_774789" data-name="Trazado 774789" d="M164.4,54.04a.485.485,0,0,1,0,.169,2.684,2.684,0,0,0,.5,1.929,2.541,2.541,0,0,0,2.03.716h.023a2.449,2.449,0,0,0,1.637-.639,2.951,2.951,0,0,0,.622-2.175l.967.172a3.521,3.521,0,0,1-.913,2.691,3.39,3.39,0,0,1-2.3.916h-.076a3.416,3.416,0,0,1-2.724-1.055,3.566,3.566,0,0,1-.733-2.552Z" transform="translate(-151.679 -29.897)" fill="#14448b"/>
        <path id="Trazado_774790" data-name="Trazado 774790" d="M156.816,18.838l.219,3.672.537.152c-.471-5.928,2.652-7.285,2.652-7.285l.873-3.711a4.356,4.356,0,0,0-3.836,2.119s-.988,1-.445,5.053" transform="translate(-147.934 -6.454)" fill="#601800"/>
        <path id="Trazado_774791" data-name="Trazado 774791" d="M156.587,20.277s-.027-.116-.062-.319-.087-.493-.13-.842-.092-.756-.13-1.193c-.016-.218-.04-.444-.052-.674q-.01-.172-.021-.347l-.005-.087c0-.071,0-.07,0-.109l.005-.175a3.416,3.416,0,0,1,.124-.736,2.007,2.007,0,0,1,.116-.344,2.611,2.611,0,0,1,.145-.321,3.347,3.347,0,0,1,.348-.561,3.534,3.534,0,0,1,.38-.445,4.435,4.435,0,0,1,.667-.553,2.2,2.2,0,0,1,.281-.166s-.084.085-.22.237a6.719,6.719,0,0,0-.515.659,5.482,5.482,0,0,0-.291.466,4.427,4.427,0,0,0-.264.542,3.589,3.589,0,0,0-.2.6,3.36,3.36,0,0,0-.093.638l-.009.175c0,.02,0,.079,0,.067l0,.088c0,.116.008.232.012.347.01.23.007.457.011.676,0,.439,0,.848-.018,1.2s-.04.646-.052.851-.031.323-.031.323" transform="translate(-147.676 -7.416)" fill="#3f1000"/>
        <path id="Trazado_774792" data-name="Trazado 774792" d="M179.557,20.449l-.219,3.673-.537.151c.545-7.907-2.4-8.039-2.4-8.039l-1.123-2.957a4.356,4.356,0,0,1,3.837,2.119s.989,1,.444,5.053" transform="translate(-158.237 -7.345)" fill="#601800"/>
        <path id="Trazado_774793" data-name="Trazado 774793" d="M161.017,12.246a9.11,9.11,0,0,1,6.93.454l.269-2.712s-.688-5.3-7.6-3.609a5.075,5.075,0,0,1,1.234.8,4.124,4.124,0,0,0-3.836,2.238,6.657,6.657,0,0,1,3.246-.214s-2.17,1.431-.241,3.039" transform="translate(-148.686 -3.346)" fill="#601800"/>
        <path id="Trazado_774794" data-name="Trazado 774794" d="M171.437,9.758a4.093,4.093,0,0,0-.134-.389,5.387,5.387,0,0,0-.477-.954,6.791,6.791,0,0,0-.4-.575,5.321,5.321,0,0,0-.541-.553,4.655,4.655,0,0,0-.657-.49,3.076,3.076,0,0,0-.373-.2,2.365,2.365,0,0,0-.387-.173,4.9,4.9,0,0,0-.818-.241,5.577,5.577,0,0,0-.824-.129c-.273-.009-.535-.054-.787-.048s-.491.016-.713.019c-.445.005-.813.071-1.075.088s-.414.033-.414.033.142-.049.394-.124l.458-.133a3.215,3.215,0,0,1,.6-.139c.225-.034.47-.071.731-.1a7.53,7.53,0,0,1,.829-.016,4.657,4.657,0,0,1,.889.1,5.188,5.188,0,0,1,.9.248,2.7,2.7,0,0,1,.426.2,3.549,3.549,0,0,1,.408.226,4.233,4.233,0,0,1,.7.576,4.293,4.293,0,0,1,.539.649,4.721,4.721,0,0,1,.356.659,3.871,3.871,0,0,1,.215.589c.049.18.086.337.108.468a2.3,2.3,0,0,1,.045.414" transform="translate(-151.908 -3.115)" fill="#3f1000"/>
      </g>
    </g>
    <g id="Grupo_1029717" data-name="Grupo 1029717">
      <g id="Grupo_1029716" data-name="Grupo 1029716" clip-path="url(#clip-path)">
        <path id="Trazado_774796" data-name="Trazado 774796" d="M209.993,2.575A2.576,2.576,0,1,1,207.417,0a2.576,2.576,0,0,1,2.576,2.576" transform="translate(-113.326 0.001)" fill="#f59025"/>
        <path id="Trazado_774797" data-name="Trazado 774797" d="M220.671,16.5a1.911,1.911,0,1,1-1.91-1.91,1.91,1.91,0,0,1,1.91,1.91" transform="translate(-119.97 -8.07)" fill="#365fa8"/>
        <path id="Trazado_774798" data-name="Trazado 774798" d="M224.574,3.629a1.724,1.724,0,1,1-1.724-1.723,1.724,1.724,0,0,1,1.724,1.723" transform="translate(-122.335 -1.054)" fill="#fff"/>
        <path id="Trazado_774799" data-name="Trazado 774799" d="M53.684,43a2.576,2.576,0,1,1-3.582-.667A2.576,2.576,0,0,1,53.684,43" transform="translate(-27.1 -23.168)" fill="#57b6b6"/>
        <path id="Trazado_774800" data-name="Trazado 774800" d="M70.044,49.047a1.91,1.91,0,1,1-2.656-.5,1.911,1.911,0,0,1,2.656.5" transform="translate(-36.823 -26.676)" fill="#ec6833"/>
        <path id="Trazado_774801" data-name="Trazado 774801" d="M65.894,36.4a1.724,1.724,0,1,1-2.4-.446,1.724,1.724,0,0,1,2.4.446" transform="translate(-34.715 -19.723)" fill="#fff"/>
        <path id="Trazado_774802" data-name="Trazado 774802" d="M3.048,164.572a2.576,2.576,0,1,1-3,2.06,2.576,2.576,0,0,1,3-2.06" transform="translate(0 -91.023)" fill="#57b6b6"/>
        <path id="Trazado_774803" data-name="Trazado 774803" d="M18.554,158.106a1.91,1.91,0,1,1-2.228,1.528,1.911,1.911,0,0,1,2.228-1.528" transform="translate(-9.014 -87.452)" fill="#f59025"/>
        <path id="Trazado_774804" data-name="Trazado 774804" d="M6.58,152.328a1.724,1.724,0,1,1-2.01,1.379,1.724,1.724,0,0,1,2.01-1.379" transform="translate(-2.512 -84.258)" fill="#fff"/>
        <path id="Trazado_774805" data-name="Trazado 774805" d="M317.04,120.639a2.576,2.576,0,1,1-3.541.851,2.576,2.576,0,0,1,3.541-.851" transform="translate(-173.229 -66.532)" fill="#57b6b6"/>
        <path id="Trazado_774806" data-name="Trazado 774806" d="M334.182,119.9a1.911,1.911,0,1,1-2.627.632,1.912,1.912,0,0,1,2.627-.632" transform="translate(-183.273 -66.177)" fill="#f59025"/>
        <path id="Trazado_774807" data-name="Trazado 774807" d="M325.16,110.157a1.724,1.724,0,1,1-2.371.57,1.723,1.723,0,0,1,2.371-.57" transform="translate(-178.439 -60.803)" fill="#fff"/>
        <path id="Trazado_774808" data-name="Trazado 774808" d="M301.9,245.932a2.575,2.575,0,1,1-1.448,3.342,2.576,2.576,0,0,1,1.448-3.342" transform="translate(-166.12 -135.959)" fill="#57b6b6"/>
        <path id="Trazado_774809" data-name="Trazado 774809" d="M311.276,232.773a1.91,1.91,0,1,1-1.074,2.479,1.912,1.912,0,0,1,1.074-2.479" transform="translate(-171.541 -128.705)" fill="#365fa8"/>
        <path id="Trazado_774810" data-name="Trazado 774810" d="M297.977,234.407a1.724,1.724,0,1,1-.969,2.237,1.725,1.725,0,0,1,.969-2.237" transform="translate(-164.249 -129.616)" fill="#fff"/>
        <path id="Trazado_774811" data-name="Trazado 774811" d="M32.636,247.579a2.576,2.576,0,1,1-1.448,3.342,2.577,2.577,0,0,1,1.448-3.342" transform="translate(-17.154 -136.87)" fill="#57b6b6"/>
        <path id="Trazado_774812" data-name="Trazado 774812" d="M42.015,234.421a1.91,1.91,0,1,1-1.074,2.479,1.91,1.91,0,0,1,1.074-2.479" transform="translate(-22.576 -129.616)" fill="#fff"/>
        <path id="Trazado_774813" data-name="Trazado 774813" d="M28.715,236.055a1.724,1.724,0,1,1-.969,2.237,1.724,1.724,0,0,1,.969-2.237" transform="translate(-15.283 -130.527)" fill="#f59025"/>
        <path id="Trazado_774814" data-name="Trazado 774814" d="M98.844,152.343a4.22,4.22,0,1,1,5.458-6.437l6.218,4.208c3.512,2.977,3.594,6.054,2.085,7.832-2.519,2.971-5.234,2.158-7.34.374Z" transform="translate(-53.86 -80.166)" fill="#ad623a"/>
        <path id="Trazado_774815" data-name="Trazado 774815" d="M183.194,318.1h27.876c-4.024-27.126-6.8-49.187-6.367-56.039.869-13.776-18.688-4.194-18.688-4.194l-31.7,22.083s10.306,9.3,28.2,10.811Z" transform="translate(-85.371 -140.869)" fill="#ad623a"/>
        <path id="Rectángulo_364427" data-name="Rectángulo 364427" d="M10.64,0H41a10.64,10.64,0,0,1,10.64,10.64V76.477A10.638,10.638,0,0,1,41,87.115H10.639A10.639,10.639,0,0,1,0,76.476V10.64A10.64,10.64,0,0,1,10.64,0Z" transform="translate(50.689 51.968)" fill="#a3a3a3"/>
        <path id="Rectángulo_364428" data-name="Rectángulo 364428" d="M10.27,0h29.3A10.271,10.271,0,0,1,49.845,10.271V75.043A10.271,10.271,0,0,1,39.574,85.314H10.27A10.27,10.27,0,0,1,0,75.044V10.27A10.27,10.27,0,0,1,10.27,0Z" transform="translate(51.585 52.868)" fill="#fff"/>
        <rect id="Rectángulo_364429" data-name="Rectángulo 364429" width="41.267" height="72.142" transform="translate(55.874 58.471)" fill="#365fa8"/>
        <g id="Grupo_1029712" data-name="Grupo 1029712" transform="translate(55.874 58.471)" style="mix-blend-mode: multiply;isolation: isolate">
          <g id="Grupo_1029711" data-name="Grupo 1029711">
            <g id="Grupo_1029710" data-name="Grupo 1029710" clip-path="url(#clip-path-39)">
              <path id="Trazado_774816" data-name="Trazado 774816" d="M166.332,203.021H125.065V130.878Z" transform="translate(-125.065 -130.878)" fill="#d2d1d1"/>
            </g>
          </g>
        </g>
        <path id="Trazado_774817" data-name="Trazado 774817" d="M169.769,298.812a1.2,1.2,0,0,1-1.2,1.2H158.55a1.2,1.2,0,1,1,0-2.406h10.016a1.2,1.2,0,0,1,1.2,1.2" transform="translate(-87.05 -164.649)" fill="#fff"/>
        <g id="Grupo_1029715" data-name="Grupo 1029715" transform="translate(70.296 134.179)" style="mix-blend-mode: multiply;isolation: isolate">
          <g id="Grupo_1029714" data-name="Grupo 1029714">
            <g id="Grupo_1029713" data-name="Grupo 1029713" clip-path="url(#clip-path-40)">
              <path id="Trazado_774818" data-name="Trazado 774818" d="M157.346,300.336a1.2,1.2,0,0,0,1.2,1.188h10.016a1.2,1.2,0,0,0,1.2-1.187Z" transform="translate(-157.346 -300.336)" fill="#a3a3a3"/>
            </g>
          </g>
        </g>
        <rect id="Rectángulo_364432" data-name="Rectángulo 364432" width="10.947" height="0.864" transform="translate(70.187 55.064)" fill="#a3a3a3"/>
        <path id="Trazado_774819" data-name="Trazado 774819" d="M183.878,123.463a.612.612,0,1,1-.612-.613.611.611,0,0,1,.612.613" transform="translate(-101.051 -67.965)" fill="#a3a3a3"/>
        <path id="Trazado_774820" data-name="Trazado 774820" d="M239.416,204.779c3.262-7-1.577-20.082-1.577-20.082-7.756-15.743-10.622-39.808-10.622-39.808s-6.817-.014-5.117,13.948l.414,20.127s-8.728,19.548.821,33.238" transform="translate(-121.086 -80.158)" fill="#ad623a"/>
        <path id="Trazado_774821" data-name="Trazado 774821" d="M112.043,202.389a4.22,4.22,0,1,1-5.456,6.438l-6.221-4.209c-3.511-2.977-3.592-6.054-2.083-7.832,2.518-2.971,5.234-2.159,7.339-.374Z" transform="translate(-53.859 -107.777)" fill="#ad623a"/>
        <path id="Trazado_774822" data-name="Trazado 774822" d="M110.038,233.378a4.22,4.22,0,1,1-5.458,6.437l-6.219-4.209c-3.512-2.978-3.592-6.055-2.085-7.833,2.52-2.971,5.236-2.157,7.34-.374Z" transform="translate(-52.749 -124.922)" fill="#ad623a"/>
        <path id="Trazado_774823" data-name="Trazado 774823" d="M112.542,269.551a3.49,3.49,0,1,1-4.513,5.325l-5.144-3.481c-2.9-2.463-2.97-5.007-1.724-6.478,2.083-2.457,4.329-1.784,6.07-.31Z" transform="translate(-55.541 -145.659)" fill="#ad623a"/>
      </g>
    </g>
    <g id="Grupo_1029749" data-name="Grupo 1029749" transform="translate(60.63 79.648)">
      <g id="Grupo_1029748" data-name="Grupo 1029748" clip-path="url(#clip-path-41)">
        <rect id="Rectángulo_364434" data-name="Rectángulo 364434" width="3.124" height="1.857" transform="translate(14.644 23.308)" fill="#f8ab81"/>
        <g id="Grupo_1029720" data-name="Grupo 1029720" transform="translate(14.644 23.308)" style="mix-blend-mode: multiply;isolation: isolate">
          <g id="Grupo_1029719" data-name="Grupo 1029719">
            <g id="Grupo_1029718" data-name="Grupo 1029718" clip-path="url(#clip-path-42)">
              <path id="Trazado_774824" data-name="Trazado 774824" d="M170.467,232.061a1.645,1.645,0,0,1-1.286-1.34.649.649,0,0,1,.026-.27h-.718v1.858h3.124v-.234a2.113,2.113,0,0,1-1.146-.014" transform="translate(-168.489 -230.451)" fill="#d2d1d1"/>
            </g>
          </g>
        </g>
        <path id="Trazado_774825" data-name="Trazado 774825" d="M185.917,215.387A1.441,1.441,0,1,1,184.476,214a1.416,1.416,0,0,1,1.441,1.391" transform="translate(-161.893 -198.039)" fill="#f8ab81"/>
        <g id="Grupo_1029723" data-name="Grupo 1029723" transform="translate(22.771 16.57)" style="mix-blend-mode: multiply;isolation: isolate">
          <g id="Grupo_1029722" data-name="Grupo 1029722">
            <g id="Grupo_1029721" data-name="Grupo 1029721" clip-path="url(#clip-path-43)">
              <path id="Trazado_774826" data-name="Trazado 774826" d="M186.678,215.372a.543.543,0,0,1,.1,0,.783.783,0,0,1,.255.051.611.611,0,0,1,.306.234.934.934,0,0,1,.053.1c.014.037.024.074.034.112l.012.115c0,.038,0,.076,0,.115a1.006,1.006,0,0,1-.047.216.881.881,0,0,1-.088.2.715.715,0,0,1-.269.269.645.645,0,0,1-.138.058.744.744,0,0,1-.114.019h-.1l.087-.037c.029-.011.059-.032.093-.049a.91.91,0,0,0,.107-.079.72.72,0,0,0,.1-.113.888.888,0,0,0,.085-.145,1.2,1.2,0,0,0,.061-.171.894.894,0,0,0,.032-.184l.007-.092-.006-.087c-.008-.028-.013-.055-.02-.083a.514.514,0,0,0-.031-.076.612.612,0,0,0-.213-.225,1.308,1.308,0,0,0-.216-.109c-.055-.022-.088-.032-.088-.032" transform="translate(-186.678 -215.369)" fill="#d2d1d1"/>
            </g>
          </g>
        </g>
        <g id="Grupo_1029726" data-name="Grupo 1029726" transform="translate(22.489 17.147)" style="mix-blend-mode: multiply;isolation: isolate">
          <g id="Grupo_1029725" data-name="Grupo 1029725">
            <g id="Grupo_1029724" data-name="Grupo 1029724" clip-path="url(#clip-path-44)">
              <path id="Trazado_774827" data-name="Trazado 774827" d="M186.513,216.928a.235.235,0,1,1-.232-.269.253.253,0,0,1,.232.269" transform="translate(-186.047 -216.659)" fill="#d2d1d1"/>
            </g>
          </g>
        </g>
        <path id="Trazado_774828" data-name="Trazado 774828" d="M154.929,215.387A1.44,1.44,0,1,0,156.368,214a1.414,1.414,0,0,0-1.439,1.391" transform="translate(-146.343 -198.039)" fill="#f8ab81"/>
        <g id="Grupo_1029729" data-name="Grupo 1029729" transform="translate(9.084 16.57)" style="mix-blend-mode: multiply;isolation: isolate">
          <g id="Grupo_1029728" data-name="Grupo 1029728">
            <g id="Grupo_1029727" data-name="Grupo 1029727" clip-path="url(#clip-path-45)">
              <path id="Trazado_774829" data-name="Trazado 774829" d="M156.8,215.372a.586.586,0,0,0-.1,0,.785.785,0,0,0-.253.051.621.621,0,0,0-.307.234.921.921,0,0,0-.052.1c-.013.037-.024.074-.034.112l-.011.115c0,.038,0,.076,0,.115a.989.989,0,0,0,.133.411.728.728,0,0,0,.269.269.666.666,0,0,0,.14.058.712.712,0,0,0,.111.019h.1l-.089-.037c-.027-.011-.057-.032-.093-.049a.989.989,0,0,1-.106-.079.715.715,0,0,1-.1-.113.777.777,0,0,1-.085-.145,1.2,1.2,0,0,1-.062-.171.926.926,0,0,1-.032-.184l-.006-.092.006-.087c.007-.028.013-.055.019-.083a.713.713,0,0,1,.031-.076.618.618,0,0,1,.214-.225,1.286,1.286,0,0,1,.214-.109c.055-.022.09-.032.09-.032" transform="translate(-156.042 -215.369)" fill="#d2d1d1"/>
            </g>
          </g>
        </g>
        <g id="Grupo_1029732" data-name="Grupo 1029732" transform="translate(9.653 17.147)" style="mix-blend-mode: multiply;isolation: isolate">
          <g id="Grupo_1029731" data-name="Grupo 1029731">
            <g id="Grupo_1029730" data-name="Grupo 1029730" clip-path="url(#clip-path-46)">
              <path id="Trazado_774830" data-name="Trazado 774830" d="M157.317,216.928a.236.236,0,1,0,.235-.269.254.254,0,0,0-.235.269" transform="translate(-157.317 -216.659)" fill="#d2d1d1"/>
            </g>
          </g>
        </g>
        <path id="Trazado_774831" data-name="Trazado 774831" d="M170.463,202.412c0,4.725-2.216,8.042-6.378,8.042s-6.379-3.317-6.379-8.042,2.3-8.554,6.462-8.554,6.294,3.83,6.294,8.554" transform="translate(-147.88 -186.898)" fill="#f8ab81"/>
        <path id="Trazado_774832" data-name="Trazado 774832" d="M158.984,234.436s-3.962.524-5.386,1.757c-1.452,1.255-1.88,2.341-2.4,4.822h18.576c-.524-2.48-.952-3.566-2.4-4.822-1.424-1.233-5.387-1.757-5.387-1.757Z" transform="translate(-144.277 -209.347)" fill="#f8ab81"/>
        <path id="Trazado_774833" data-name="Trazado 774833" d="M157.788,234.64a9.33,9.33,0,0,0-4.188,1.553c-1.452,1.255-1.88,2.341-2.4,4.822h18.575c-.524-2.48-.944-3.575-2.4-4.822a10.322,10.322,0,0,0-3.91-1.5l-1.477-.261h-3Z" transform="translate(-144.277 -209.347)" fill="#fff"/>
        <path id="Trazado_774834" data-name="Trazado 774834" d="M169.693,236.734a.213.213,0,0,1,.052-.053.734.734,0,0,0-.052.053l-.511,4.165h2.506l-.511-4.165.346-1.432a.643.643,0,0,0,.034-.678.757.757,0,0,0-.468-.348,3.752,3.752,0,0,0-.953-.033.819.819,0,0,0-.734.272.626.626,0,0,0-.053.788Z" transform="translate(-154.228 -209.232)" fill="#57b6b6"/>
        <g id="Grupo_1029735" data-name="Grupo 1029735" transform="translate(15.407 27.117)" style="mix-blend-mode: multiply;isolation: isolate">
          <g id="Grupo_1029734" data-name="Grupo 1029734">
            <g id="Grupo_1029733" data-name="Grupo 1029733" clip-path="url(#clip-path-47)">
              <path id="Trazado_774835" data-name="Trazado 774835" d="M170.2,239.139s1.038-.486,1.538.222a1.653,1.653,0,0,0-1.485,0Z" transform="translate(-170.195 -238.976)" fill="#bababa"/>
            </g>
          </g>
        </g>
        <path id="Trazado_774836" data-name="Trazado 774836" d="M157.788,234.892a9.331,9.331,0,0,0-4.188,1.553c-1.452,1.255-1.88,2.341-2.4,4.822h18.575c-.524-2.48-.944-3.575-2.4-4.822a10.321,10.321,0,0,0-3.91-1.5l-2.975,6.148Z" transform="translate(-144.277 -209.599)" fill="#e8e8e8"/>
        <path id="Trazado_774837" data-name="Trazado 774837" d="M162.7,234.983l2.66,6.162-2.826-1.827.635-1.092-3.161-2.612a9.081,9.081,0,0,1,2.693-.632" transform="translate(-149.151 -209.648)" fill="#0c0f1a"/>
        <path id="Trazado_774838" data-name="Trazado 774838" d="M174.96,235.015l-2.975,6.148,2.826-1.827-.635-1.092,3.162-2.612a6.589,6.589,0,0,0-2.378-.618" transform="translate(-155.779 -209.665)" fill="#0c0f1a"/>
        <g id="Grupo_1029738" data-name="Grupo 1029738" transform="translate(12.955 25.346)" style="mix-blend-mode: multiply;isolation: isolate">
          <g id="Grupo_1029737" data-name="Grupo 1029737">
            <g id="Grupo_1029736" data-name="Grupo 1029736" clip-path="url(#clip-path-48)">
              <path id="Trazado_774839" data-name="Trazado 774839" d="M164.708,235.011l2.392,1.667-.2-.834Z" transform="translate(-164.708 -235.011)" fill="#a3a3a3"/>
            </g>
          </g>
        </g>
        <g id="Grupo_1029741" data-name="Grupo 1029741" transform="translate(17.062 25.376)" style="mix-blend-mode: multiply;isolation: isolate">
          <g id="Grupo_1029740" data-name="Grupo 1029740">
            <g id="Grupo_1029739" data-name="Grupo 1029739" clip-path="url(#clip-path-49)">
              <path id="Trazado_774840" data-name="Trazado 774840" d="M176.524,235.078,173.9,236.75l.229-.972Z" transform="translate(-173.901 -235.078)" fill="#a3a3a3"/>
            </g>
          </g>
        </g>
        <path id="Trazado_774841" data-name="Trazado 774841" d="M166.4,233.2l-1.689.807,2,1.194,1.4-1.543Z" transform="translate(-151.753 -208.666)" fill="#fff"/>
        <g id="Grupo_1029744" data-name="Grupo 1029744" transform="translate(12.955 24.539)" style="mix-blend-mode: multiply;isolation: isolate">
          <g id="Grupo_1029743" data-name="Grupo 1029743">
            <g id="Grupo_1029742" data-name="Grupo 1029742" clip-path="url(#clip-path-50)">
              <path id="Trazado_774842" data-name="Trazado 774842" d="M166.372,233.8a1.221,1.221,0,0,1,.884-.363l-.86-.23-1.69.807,1.508.9a.9.9,0,0,1,.157-1.115" transform="translate(-164.707 -233.205)" fill="#d2d1d1"/>
            </g>
          </g>
        </g>
        <path id="Trazado_774843" data-name="Trazado 774843" d="M173.949,233.2l1.689.807-2,1.194-1.4-1.543Z" transform="translate(-155.921 -208.666)" fill="#fff"/>
        <g id="Grupo_1029747" data-name="Grupo 1029747" transform="translate(17.169 24.539)" style="mix-blend-mode: multiply;isolation: isolate">
          <g id="Grupo_1029746" data-name="Grupo 1029746">
            <g id="Grupo_1029745" data-name="Grupo 1029745" clip-path="url(#clip-path-51)">
              <path id="Trazado_774844" data-name="Trazado 774844" d="M175.023,233.8a1.221,1.221,0,0,0-.884-.363l.859-.23,1.69.807-1.508.9a.9.9,0,0,0-.156-1.115" transform="translate(-174.139 -233.205)" fill="#d2d1d1"/>
            </g>
          </g>
        </g>
        <path id="Trazado_774845" data-name="Trazado 774845" d="M157.287,201.825l.646.647.123-5.2a2.753,2.753,0,0,1,2.912-2.7,7.314,7.314,0,0,0,5.354.212,2.555,2.555,0,0,1,3,2.362l-.023,5.433.686-.846.038-.707a21.073,21.073,0,0,0,0-5.659s-.54-3.728-3.908-4.362c0,0-5.5-1.415-7.822,2.048a7.023,7.023,0,0,0-1.3,5.3Z" transform="translate(-147.439 -185.16)" fill="#af5c0e"/>
      </g>
    </g>
    <g id="Grupo_1029751" data-name="Grupo 1029751">
      <g id="Grupo_1029750" data-name="Grupo 1029750" clip-path="url(#clip-path)">
        <path id="Trazado_774847" data-name="Trazado 774847" d="M167.465,194.155a15.877,15.877,0,1,1-15.877-15.877A15.878,15.878,0,0,1,167.465,194.155Z" transform="translate(-75.08 -98.63)" fill="none" stroke="#fff" stroke-miterlimit="10" stroke-width="2.68" stroke-dasharray="3.787 3.787"/>
      </g>
    </g>
  </g>
</svg>
