<svg xmlns="http://www.w3.org/2000/svg" xmlns:xlink="http://www.w3.org/1999/xlink" width="149.774" height="141.279" viewBox="0 0 149.774 141.279">
  <defs>
    <linearGradient id="linear-gradient" x1="0.5" x2="0.5" y2="1" gradientUnits="objectBoundingBox">
      <stop offset="0" stop-color="#dedede"/>
      <stop offset="0.517" stop-color="#fff"/>
      <stop offset="1" stop-color="#dedede"/>
    </linearGradient>
  </defs>
  <g id="Capa_x0020_1" transform="translate(-0.01 0.021)">
    <path id="Trazado_766741" data-name="Trazado 766741" d="M32.773,16.185c1.091,1.688.336,2.165,3.2,2.221,4.082.081,13.436-.327,16.278.086l.007,4.465c-2.105.414-23.9.137-27.969.137-16.1,0-15.2-1.42-15.193,5.792V91.234H4.4V29.764c0-4.194-.76-8.138,1.989-10.3,2.273-1.787,12.824-1.042,17.332-1.057,2.21-.007,3.087-.335,3.431-2.392-.359-2.861-3.671-2.048-8.125-2.048-6.1,0-13.63-1.368-17.091,3.678C.321,20,.048,20.925.01,23.358v81.482a9.965,9.965,0,0,0,.968,3.815c3.009,6.037,9.233,5.356,15.413,5.356H26.923c3.166,0,8.137.825,8.132-2.34-.379-3.144-3.771-2.263-6.669-2.263H19.317c-7.639,0-12.985,1.322-14.675-3.693-.481-1.478-.259-7.893-.233-9.926,1.231-.505,127.968-.168,140.949-.168.816,16.281-1.383,13.787-16.343,13.787H45.936c-2.624-.007-4.621-.471-5.009,2.264.363,2.659,2.439,2.352,5.3,2.341,2.535-.01,5.072,0,7.607,0-.886,1.846-2.625,11.61-3.51,13.456-7.741,0-10.865-.717-15,3.432-2.486,2.495-4.366,8.079-2.051,9.814,1,.747,2.557.507,4.177.5h74.6c3.382,0,6.025.248,5.46-3.676a10.46,10.46,0,0,0-2.893-6.5c-4.239-4.3-7.166-3.577-15.145-3.577a60.819,60.819,0,0,1-1.755-6.728,60.816,60.816,0,0,0-1.755-6.728h38.614c5.044,0,7.865.286,11.068-1.8,3.027-1.974,4.09-4.7,4.143-8.313V25.9c0-3.6-.076-7.149-3.038-9.485-3.354-2.644-4.769-2.453-10.419-2.453H97.714c0-3.233.114-5.823-.965-8.1C93.143-1.757,84.014.218,74.9.218c-8.923,0-18.075-1.982-21.757,5.448-1.183,2.387-1.06,4.892-1.06,8.3l-15.809-.012c-2.815-.022-2.7.211-3.5,2.23Z" transform="translate(0 0)" fill-rule="evenodd"/>
    <path id="Trazado_766742" data-name="Trazado 766742" d="M1408.137,152.813l5.876-.084c.5-3.2,3.241-1.425,5.6-3.122,2.245-1.615,2.164-3.58,2.159-7.02q-.013-9.068,0-18.137c0-12.457-.389-10.381-25.849-10.381-12.717,0-10.651-.175-10.651,25.592,0,12.025.308,10.914,16.209,10.913,2.865,0,6.283-.872,6.656,2.238Z" transform="translate(-1328.632 -109.312)" fill="#f5f5f5" fill-rule="evenodd"/>
    <path id="Trazado_766743" data-name="Trazado 766743" d="M106.333,2358.585c7.613.423,26.3.048,35.152.048h70.5c4.133,0,13.538.478,17.04-.471a11.671,11.671,0,0,0,8.367-9.454l-131.291-.05c-.026,2.033-.248,8.448.233,9.926Z" transform="translate(-101.692 -2252.868)" fill-rule="evenodd" fill="url(#linear-gradient)"/>
    <path id="Trazado_766744" data-name="Trazado 766744" d="M108.053,2352.032c1.69,5.015,7.036,3.693,14.675,3.693H131.8c2.9,0,6.29-.881,6.669,2.263h5.873c.389-2.735,2.385-2.271,5.009-2.264h83.079c14.96,0,17.159,2.494,16.343-13.788-12.98,0-139.718-.336-140.949.168l131.291.05a11.671,11.671,0,0,1-8.367,9.454c-3.5.949-12.907.471-17.04.471H143.2c-8.849,0-27.539.375-35.152-.048Z" transform="translate(-103.412 -2246.314)" fill-rule="evenodd" fill="url(#linear-gradient)"/>
    <path id="Trazado_766745" data-name="Trazado 766745" d="M133.667,393.27l-5.624-.17c-.344,2.057-1.221,2.384-3.431,2.392-4.507.015-15.058-.73-17.332,1.057-2.749,2.162-1.989,6.1-1.989,10.3v61.47h4.7V405.971c0-7.212-.906-5.792,15.193-5.792,4.07,0,25.863.277,27.969-.137l-.007-4.465c-2.841-.413-12.2-.005-16.278-.086-2.865-.057-2.109-.534-3.2-2.221Z" transform="translate(-100.894 -377.085)" fill="#e8e8e8" fill-rule="evenodd"/>
    <path id="Trazado_766746" data-name="Trazado 766746" d="M2390.59,453.61c3.467.681,38.6-.37,41.339.2,2.236.461,1.831,2.965,1.826,5.149v62.932h4.7v-60.3c0-14.163.561-12.54-17.552-12.54-4.7,0-27.68-.283-30.286.1Z" transform="translate(-2293.058 -430.653)" fill="#e8e8e8" fill-rule="evenodd"/>
    <path id="Trazado_766747" data-name="Trazado 766747" d="M1521.346,355.844c1.784,1.007,4.354,2.637,6.78,1.515,2.649-1.225,2.553-3.5,2.549-6.919,0-3.44.345-5.91-2.111-7.348-2.9-1.7-4.979.634-7.445,1.316-1.363-4.266-6.578-3.335-11.619-3.293-5.857.05-5.93,3.556-5.931,9.032,0,5.382.108,8.95,5.932,8.991,8.3.058,8.672.9,11.844-3.295Z" transform="translate(-1442.223 -327.112)" fill-rule="evenodd"/>
    <path id="Trazado_766748" data-name="Trazado 766748" d="M1385.294,2879.64h-34.8l-2.5,10.068,39.788.065Z" transform="translate(-1292.999 -2762.188)" fill="#f0f5fe" fill-rule="evenodd"/>
    <path id="Trazado_766749" data-name="Trazado 766749" d="M661.507,1908.888l4.678-.027c0-2.83-1.068-9,2.143-9,3.09,0,2.264,4.838,2.264,9.028l13.764-.006c0-2.773-1.089-8.95,2.119-9.023,3.305-.075,2.29,6.282,2.29,9.029l4.677-.009c0-4.618.951-9.881-2.154-12.45-2.6-2.15-9.567-1.323-13.606-1.323-3.726,0-11.07-.788-13.765,1.151-3.418,2.458-2.41,7.591-2.41,12.631Z" transform="translate(-634.379 -1817.665)" fill="#5573c6" fill-rule="evenodd"/>
    <path id="Trazado_766750" data-name="Trazado 766750" d="M2220.53,1909.125l4.675.034c0-2.745-.935-8.792,2.054-9.024,3.5-.271,2.357,6.241,2.357,8.969l13.76.053c0-4.006-.791-8.744,2.03-9.017,3.528-.342,2.382,6.125,2.382,8.924l4.674.1c0-4.8.9-10.1-2.24-12.516-2.679-2.06-9.736-1.277-13.64-1.277-3.786,0-11.194-.756-13.739,1.189C2219.527,1899.1,2220.53,1904.458,2220.53,1909.125Z" transform="translate(-2129.798 -1817.934)" fill="#4adbd1" fill-rule="evenodd"/>
    <path id="Trazado_766751" data-name="Trazado 766751" d="M908.68,3235.873h75.847c-1.79-6.327-10.024-4.7-16.674-4.7H925.436c-7.235,0-15.213-1.568-16.756,4.7Z" transform="translate(-871.601 -3099.2)" fill="#f6f6f6" fill-rule="evenodd"/>
    <path id="Trazado_766752" data-name="Trazado 766752" d="M1409.24,2793.283h34.8l-.969-3.673-32.957.011Z" transform="translate(-1351.741 -2675.83)" fill="#f0f5fe" fill-rule="evenodd"/>
    <path id="Trazado_766753" data-name="Trazado 766753" d="M1608.637,451.454c0,9.215-1.695,7.52,7.649,7.52,2.262,0,1.561-1.383,1.561-7.52,0-2.356-.319-1.706-7.668-1.706C1608.607,449.748,1608.637,449.871,1608.637,451.454Z" transform="translate(-1542.889 -431.343)" fill="#f4a338" fill-rule="evenodd"/>
    <path id="Trazado_766754" data-name="Trazado 766754" d="M330.261,733.745l0,4.156,9.241,0,.08-8.975a10.111,10.111,0,0,1,7.208-8.724c3.008-.884,11.95-.458,15.63-.458,5.092,0,10.175-.728,13.7,2.089,3.795,3.03,4.126,5.7,4.112,12.005l0,4.081,9.243-.027.016-43.023c.018-1.142.28-2.008-.454-2.479-6.067-.611-12.1,1.44-16.586-2.276-4.567-3.784-3.086-9.02-3.457-15.854l-38.683-.092-.057,59.575Z" transform="translate(-316.778 -646.689)" fill="#f0dcc0" fill-rule="evenodd"/>
    <path id="Trazado_766755" data-name="Trazado 766755" d="M1885.555,693.692c-.614.6-.406,1.061-.394,2.187l.019,43.184,9.242.179,0-4.09c0-4.825-.152-7.818,2.737-10.747,2.918-2.959,4.786-3.358,10.1-3.351q6.728.009,13.456,0c6.127,0,7-.23,11.176,2.676,4.131,4.469,3.258,8.009,3.258,15.384l9.242.119,0-63.742-38.742-.022-.125,9.7a9.309,9.309,0,0,1-4.335,6.993c-2.154,1.373-7.049,2.942-7.724-.752l-5.876.084c-.3,1.548-.624,1.68-2.039,2.2Z" transform="translate(-1808.206 -647.935)" fill="#f0dcc0" fill-rule="evenodd"/>
    <g id="_1654622724160" transform="translate(32.741 41.334)">
      <path id="Trazado_766756" data-name="Trazado 766756" d="M805.241,1037.542c1.129.685,1.6,1.474,3.127,2.224a9.5,9.5,0,0,0,4.534,1,10.209,10.209,0,0,0,4.19-1.043c2.424-1.228,1.907-1.744,3.282-2.329.555-2.124,1.617-1.352,2.146-6.874.239-2.5.853-6.1.379-8.473-2.222-11.114-18.132-10.968-20.383-.143-.5,2.387.015,11.121,1.879,14.238.146.244.353.535.458.705.48.777.146.1.388.7Z" transform="translate(-802.337 -1013.748)" fill-rule="evenodd"/>
      <path id="Trazado_766757" data-name="Trazado 766757" d="M918.294,1347.68c2.266.771,4.335-3.163,4.929-5.561H917.39c0,1.263.139,4.745.9,5.561Zm0,0c1.536,4.545,11.173,5.67,10.393-6.013l-8.65-.034c-2.821-.049-2.13-.019-2.646.486h5.833c-.594,2.4-2.664,6.331-4.929,5.561Z" transform="translate(-912.696 -1328.241)" fill="#fff3de" fill-rule="evenodd"/>
      <path id="Trazado_766758" data-name="Trazado 766758" d="M920.777,1120.463a5.792,5.792,0,0,0-6.547,4.624h6.45l5.152.027a5.811,5.811,0,0,0-5.055-4.649Z" transform="translate(-909.665 -1116.079)" fill="#5573c6" fill-rule="evenodd"/>
    </g>
    <path id="Trazado_766759" data-name="Trazado 766759" d="M1944.6,490.709l.02,1.786,4.606,2.284.029-6.269Z" transform="translate(-1865.261 -468.602)" fill="#f4a338" fill-rule="evenodd"/>
    <path id="Trazado_766760" data-name="Trazado 766760" d="M1672.13,513.475c-.607.8-1.331,1.385-.945,2.777a2.126,2.126,0,0,0,2.989,1.248c1.731-.6,2.309-4.669-2.043-4.026Z" transform="translate(-1602.897 -492.483)" fill-rule="evenodd"/>
    <path id="Trazado_766761" data-name="Trazado 766761" d="M2365.176,1037.479c1.116.57,2.832,3.29,7.39,3.378a9.565,9.565,0,0,0,4.339-.9c1.722-.8,2.088-1.558,3.307-2.318.95-2.176,1.831-1.575,2.36-6.692.258-2.5.865-6.28.424-8.7-1.993-10.918-17.891-11.357-20.375-.349-.489,2.165.255,10.44.977,12.448C2364.089,1035.713,2364.783,1036.486,2365.176,1037.479Z" transform="translate(-2266.077 -972.505)" fill-rule="evenodd"/>
    <path id="Trazado_766762" data-name="Trazado 766762" d="M2473.89,1281.113a24.877,24.877,0,0,0-5.28-2.465c.18,2.523.346,6.922,1.288,8.969a5.233,5.233,0,0,0,8.3,1.381c1.378-1.3,1.61-2.324,1.842-4.652.158-1.595.667-4.258.371-5.745C2478.593,1279.514,2476.179,1281.176,2473.89,1281.113Z" transform="translate(-2367.895 -1226.461)" fill="#ffcdbd" fill-rule="evenodd"/>
    <path id="Trazado_766763" data-name="Trazado 766763" d="M2506.884,1116.933a4.035,4.035,0,0,0-3.384,1.888c1.3.558,3.994,2.455,5.217,1.806l3.9-2.2c-.72-.485-4.135-2.994-5.737-1.491Z" transform="translate(-2401.361 -1070.935)" fill="#4adbd1" fill-rule="evenodd"/>
  </g>
</svg>
