<svg id="Grupo_1029767" data-name="Grupo 1029767" xmlns="http://www.w3.org/2000/svg" xmlns:xlink="http://www.w3.org/1999/xlink" width="211.986" height="173.437" viewBox="0 0 211.986 173.437">
  <defs>
    <clipPath id="clip-path">
      <rect id="Rectángulo_364487" data-name="Rectángulo 364487" width="211.986" height="173.437" fill="#e6b046"/>
    </clipPath>
    <linearGradient id="linear-gradient" x1="0.5" x2="0.5" y2="1" gradientUnits="objectBoundingBox">
      <stop offset="0" stop-color="#3ab4b1"/>
      <stop offset="1" stop-color="#1a0f91"/>
    </linearGradient>
  </defs>
  <g id="Grupo_1029766" data-name="Grupo 1029766" clip-path="url(#clip-path)">
    <path id="Trazado_774954" data-name="Trazado 774954" d="M152.916,171.536c18.892,2.753,39.381-6.53,50.757-28.246s10.7-56.239-3.948-73.5c-13.44-15.834-33.224-13.8-48.915-24.611-15.285-10.531-25.8-32.662-41.665-41.249C95.24-3.592,79.5.651,65.689,8.521A102.892,102.892,0,0,0,26.8,47.742,116.888,116.888,0,0,0,12.46,111.571c1.6,22.8,11.285,44.74,25.853,54.343,11.14,7.342,23.887,7.216,36.155,6.954,21.259-.454,42.522-.913,78.448-1.331" transform="translate(0.451 0)" fill="#e8e8e8"/>
    <path id="Trazado_774955" data-name="Trazado 774955" d="M159.9,103.519c-20.65-16.736-12.994-29.263-4.5-43.14,3.819-6.242,7.811-12.777,9.247-20.046l.4-1.68,1.409,1.132q2.173,2.176,3.985,4.3Q182.064,57.712,181.1,71.409q-.964,13.652-14.473,27.165-2.49,2.495-5.349,4.931l-.692-.814,0,0Z" transform="translate(5.421 1.428)" fill="#afafaf"/>
    <path id="Trazado_774956" data-name="Trazado 774956" d="M159.116,132.557l-7.915-3.4a21.423,21.423,0,0,0,6.039-5.55l-.3-.131c-2.448-15.072,6.874-44.1,9.362-26.726l-.025.111c.467-2.048.961-4.073,1.526-6.044a36.211,36.211,0,0,1,9.463-15.8c1.713-1.523,3.632-.937,3.612.514,9.159-15.575,31.154-12.418,10.982,6.891,13.061-.3-8.271,20.734-9.372,21.935,9.538-5.621,2.795,16.336-15.916,23.258.165-.124.328-.251.489-.376a71.123,71.123,0,0,1-7.942,5.321" transform="translate(5.587 2.425)" fill="#4adbd1" fill-rule="evenodd"/>
    <path id="Trazado_774957" data-name="Trazado 774957" d="M96.356,7.669A15.093,15.093,0,1,1,81.263,22.762,15.092,15.092,0,0,1,96.356,7.669" transform="translate(3.003 0.283)" fill="#fec039" fill-rule="evenodd"/>
    <path id="Trazado_774958" data-name="Trazado 774958" d="M96.274,10.223A12.354,12.354,0,1,1,83.92,22.577,12.354,12.354,0,0,1,96.274,10.223" transform="translate(3.101 0.378)" fill="#f7951a" fill-rule="evenodd"/>
    <path id="Trazado_774959" data-name="Trazado 774959" d="M96.522,10.242a13.1,13.1,0,0,1,7.461,21.6,12.354,12.354,0,0,0-7.461-21.6" transform="translate(3.567 0.378)" fill="#cc7903" fill-rule="evenodd"/>
    <path id="Trazado_774960" data-name="Trazado 774960" d="M100.831,24.693c0-1.958-1.135-3.059-3.793-3.777V18.278a7.226,7.226,0,0,1,2.168,1.031l1.171-2.045a7.332,7.332,0,0,0-3.252-1.294V14.921H95.307v1.014c-2.2.227-3.672,1.5-3.672,3.444,0,2.062,1.241,3.041,3.759,3.724v2.78a6.94,6.94,0,0,1-2.85-1.416l-1.364,1.993a8.79,8.79,0,0,0,4.126,1.661v1.765h1.818V28.155c2.22-.245,3.706-1.521,3.706-3.461M95.394,20.48c-.961-.349-1.206-.717-1.206-1.259,0-.559.367-.979,1.206-1.1Zm2.885,4.353c0,.629-.42,1.014-1.241,1.136V23.523c.944.349,1.241.717,1.241,1.311" transform="translate(3.369 0.551)" fill="#feea65"/>
    <path id="Trazado_774961" data-name="Trazado 774961" d="M50.675,151.916c27.987,0,50.675,3.561,50.675,7.953s-22.687,7.953-50.675,7.953S0,164.262,0,159.869s22.687-7.953,50.675-7.953" transform="translate(0 5.614)" fill="#afafaf" fill-rule="evenodd"/>
    <rect id="Rectángulo_364464" data-name="Rectángulo 364464" width="79.91" height="103.756" rx="6.859" transform="translate(80.972 52.519)" fill="#fefefe"/>
    <path id="Trazado_774962" data-name="Trazado 774962" d="M85.349,154.554a7.134,7.134,0,0,1-7.112-7.112V57.909A7.133,7.133,0,0,1,85.349,50.8h65.685a7.133,7.133,0,0,1,7.111,7.111v89.533a7.134,7.134,0,0,1-7.111,7.112ZM151.033,46.613H85.349a11.329,11.329,0,0,0-11.3,11.3v89.533a11.329,11.329,0,0,0,11.3,11.3h65.685a11.328,11.328,0,0,0,11.295-11.3V57.909a11.328,11.328,0,0,0-11.295-11.3" transform="translate(2.736 1.722)" fill-rule="evenodd" fill="url(#linear-gradient)"/>
    <path id="Trazado_774963" data-name="Trazado 774963" d="M103.658,43.109h4.079V41a4.3,4.3,0,0,1,4.288-4.288h10.46A4.3,4.3,0,0,1,126.772,41v2.1h4.079a4.3,4.3,0,0,1,4.289,4.288v3.766a4.3,4.3,0,0,1-4.289,4.288H103.658a4.3,4.3,0,0,1-4.288-4.288V47.4a4.3,4.3,0,0,1,4.288-4.288" transform="translate(3.672 1.357)" fill="#373f51" fill-rule="evenodd"/>
    <path id="Trazado_774964" data-name="Trazado 774964" d="M88.092,87.475H95.97A1.83,1.83,0,0,1,97.795,89.3v7.878A1.831,1.831,0,0,1,95.97,99H88.092a1.831,1.831,0,0,1-1.825-1.826V89.3a1.83,1.83,0,0,1,1.825-1.825" transform="translate(3.188 3.232)" fill="#5cbab5" fill-rule="evenodd"/>
    <path id="Trazado_774965" data-name="Trazado 774965" d="M88.092,102.762H95.97a1.83,1.83,0,0,1,1.825,1.825v7.878a1.831,1.831,0,0,1-1.825,1.826H88.092a1.831,1.831,0,0,1-1.825-1.826v-7.878a1.83,1.83,0,0,1,1.825-1.825" transform="translate(3.188 3.797)" fill="#5cbab5" fill-rule="evenodd"/>
    <path id="Trazado_774966" data-name="Trazado 774966" d="M88.092,118.049H95.97a1.83,1.83,0,0,1,1.825,1.825v7.878a1.831,1.831,0,0,1-1.825,1.826H88.092a1.831,1.831,0,0,1-1.825-1.826v-7.878a1.83,1.83,0,0,1,1.825-1.825" transform="translate(3.188 4.362)" fill="#5cbab5" fill-rule="evenodd"/>
    <path id="Trazado_774967" data-name="Trazado 774967" d="M88.092,133.336H95.97a1.83,1.83,0,0,1,1.825,1.825v7.878a1.831,1.831,0,0,1-1.825,1.826H88.092a1.831,1.831,0,0,1-1.825-1.826v-7.878a1.83,1.83,0,0,1,1.825-1.825" transform="translate(3.188 4.927)" fill="#5cbab5" fill-rule="evenodd"/>
    <path id="Trazado_774968" data-name="Trazado 774968" d="M102.3,92.637h46.32v1.023H102.3Zm0-2.728h46.32v1.023H102.3Zm0,5.456h46.32v1.022H102.3Z" transform="translate(3.78 3.322)" fill="#87c7c4" fill-rule="evenodd"/>
    <rect id="Rectángulo_364465" data-name="Rectángulo 364465" width="46.32" height="1.023" transform="translate(106.08 111.811)" fill="#87c7c4"/>
    <rect id="Rectángulo_364466" data-name="Rectángulo 364466" width="46.32" height="1.023" transform="translate(106.08 114.54)" fill="#87c7c4"/>
    <rect id="Rectángulo_364467" data-name="Rectángulo 364467" width="46.32" height="1.023" transform="translate(106.08 109.083)" fill="#87c7c4"/>
    <rect id="Rectángulo_364468" data-name="Rectángulo 364468" width="46.32" height="1.023" transform="translate(106.08 127.663)" fill="#87c7c4"/>
    <rect id="Rectángulo_364469" data-name="Rectángulo 364469" width="46.32" height="1.022" transform="translate(106.08 130.392)" fill="#87c7c4"/>
    <rect id="Rectángulo_364470" data-name="Rectángulo 364470" width="46.32" height="1.023" transform="translate(106.08 124.935)" fill="#87c7c4"/>
    <rect id="Rectángulo_364471" data-name="Rectángulo 364471" width="46.32" height="1.023" transform="translate(106.08 143.515)" fill="#87c7c4"/>
    <rect id="Rectángulo_364472" data-name="Rectángulo 364472" width="46.32" height="1.023" transform="translate(106.08 146.243)" fill="#87c7c4"/>
    <rect id="Rectángulo_364473" data-name="Rectángulo 364473" width="46.32" height="1.022" transform="translate(106.08 140.787)" fill="#87c7c4"/>
    <path id="Trazado_774969" data-name="Trazado 774969" d="M88.168,93.914A10.819,10.819,0,0,1,90.2,96.562c.561.929.79.532,1.014-.073a18.058,18.058,0,0,1,4.81-6.857c.539-.51.065-.44-.339-.283a12.153,12.153,0,0,0-5.212,4.679c-.549-.374-1.822-1.525-2.558-1.044-.529.345,0,.689.252.93" transform="translate(3.24 3.297)" fill="#ee9b01" fill-rule="evenodd"/>
    <path id="Trazado_774970" data-name="Trazado 774970" d="M88.168,109.2a10.82,10.82,0,0,1,2.032,2.648c.561.929.79.532,1.014-.073a18.048,18.048,0,0,1,4.81-6.856c.54-.511.065-.44-.339-.284a12.153,12.153,0,0,0-5.212,4.679c-.549-.374-1.822-1.525-2.558-1.044-.529.345,0,.689.252.93" transform="translate(3.24 3.862)" fill="#ee9b01" fill-rule="evenodd"/>
    <path id="Trazado_774971" data-name="Trazado 774971" d="M88.168,124.488a10.819,10.819,0,0,1,2.032,2.648c.561.929.79.532,1.014-.073a18.048,18.048,0,0,1,4.81-6.856c.54-.511.065-.44-.339-.284a12.153,12.153,0,0,0-5.212,4.679c-.549-.374-1.822-1.525-2.558-1.044-.529.345,0,.689.252.93" transform="translate(3.24 4.427)" fill="#ee9b01" fill-rule="evenodd"/>
    <path id="Trazado_774972" data-name="Trazado 774972" d="M88.168,139.775a10.819,10.819,0,0,1,2.032,2.648c.561.93.79.532,1.014-.073a18.048,18.048,0,0,1,4.81-6.856c.54-.511.065-.44-.339-.284a12.153,12.153,0,0,0-5.212,4.679c-.549-.374-1.822-1.525-2.558-1.044-.529.345,0,.689.252.93" transform="translate(3.24 4.992)" fill="#ee9b01" fill-rule="evenodd"/>
    <path id="Trazado_774973" data-name="Trazado 774973" d="M88.092,87.475H95.97A1.83,1.83,0,0,1,97.795,89.3v7.878A1.831,1.831,0,0,1,95.97,99H88.092a1.831,1.831,0,0,1-1.825-1.826V89.3a1.83,1.83,0,0,1,1.825-1.825" transform="translate(3.188 3.232)" fill="#5cbab5" fill-rule="evenodd"/>
    <rect id="Rectángulo_364474" data-name="Rectángulo 364474" width="46.32" height="1.023" transform="translate(106.08 95.96)" fill="#87c7c4"/>
    <rect id="Rectángulo_364475" data-name="Rectángulo 364475" width="46.32" height="1.023" transform="translate(106.08 98.688)" fill="#87c7c4"/>
    <rect id="Rectángulo_364476" data-name="Rectángulo 364476" width="46.32" height="1.023" transform="translate(106.08 93.231)" fill="#87c7c4"/>
    <path id="Trazado_774974" data-name="Trazado 774974" d="M88.168,93.914A10.819,10.819,0,0,1,90.2,96.562c.561.93.79.532,1.014-.073a18.048,18.048,0,0,1,4.81-6.856c.54-.511.065-.44-.339-.284a12.153,12.153,0,0,0-5.212,4.679c-.549-.374-1.822-1.525-2.558-1.044-.529.345,0,.689.252.93" transform="translate(3.24 3.297)" fill="#ee9b01" fill-rule="evenodd"/>
    <path id="Trazado_774975" data-name="Trazado 774975" d="M88.092,72.188H95.97a1.83,1.83,0,0,1,1.825,1.825v7.878a1.831,1.831,0,0,1-1.825,1.826H88.092a1.831,1.831,0,0,1-1.825-1.826V74.013a1.83,1.83,0,0,1,1.825-1.825" transform="translate(3.188 2.668)" fill="#5cbab5" fill-rule="evenodd"/>
    <rect id="Rectángulo_364477" data-name="Rectángulo 364477" width="46.32" height="1.023" transform="translate(106.08 80.108)" fill="#87c7c4"/>
    <rect id="Rectángulo_364478" data-name="Rectángulo 364478" width="46.32" height="1.023" transform="translate(106.08 82.836)" fill="#87c7c4"/>
    <rect id="Rectángulo_364479" data-name="Rectángulo 364479" width="46.32" height="1.023" transform="translate(106.08 77.379)" fill="#87c7c4"/>
    <path id="Trazado_774976" data-name="Trazado 774976" d="M88.168,78.627A10.819,10.819,0,0,1,90.2,81.275c.561.929.79.532,1.014-.073a18.058,18.058,0,0,1,4.81-6.857c.54-.51.065-.439-.339-.283a12.153,12.153,0,0,0-5.212,4.679c-.549-.374-1.822-1.525-2.558-1.044-.529.345,0,.689.252.93" transform="translate(3.24 2.733)" fill="#ee9b01" fill-rule="evenodd"/>
    <path id="Trazado_774977" data-name="Trazado 774977" d="M88.092,56.9H95.97a1.83,1.83,0,0,1,1.825,1.825V66.6A1.831,1.831,0,0,1,95.97,68.43H88.092A1.831,1.831,0,0,1,86.267,66.6V58.726A1.83,1.83,0,0,1,88.092,56.9" transform="translate(3.188 2.103)" fill="#5cbab5" fill-rule="evenodd"/>
    <rect id="Rectángulo_364480" data-name="Rectángulo 364480" width="46.32" height="1.023" transform="translate(106.08 64.256)" fill="#87c7c4"/>
    <rect id="Rectángulo_364481" data-name="Rectángulo 364481" width="46.32" height="1.023" transform="translate(106.08 66.984)" fill="#87c7c4"/>
    <rect id="Rectángulo_364482" data-name="Rectángulo 364482" width="46.32" height="1.023" transform="translate(106.08 61.528)" fill="#87c7c4"/>
    <path id="Trazado_774978" data-name="Trazado 774978" d="M88.168,63.34A10.819,10.819,0,0,1,90.2,65.988c.561.929.79.532,1.014-.073a18.048,18.048,0,0,1,4.81-6.856c.54-.511.065-.44-.339-.284a12.153,12.153,0,0,0-5.212,4.679c-.549-.374-1.822-1.525-2.558-1.044-.529.345,0,.689.252.93" transform="translate(3.24 2.168)" fill="#ee9b01" fill-rule="evenodd"/>
    <path id="Trazado_774979" data-name="Trazado 774979" d="M25.323,96.013q-2.17-1.434-3.7-2.439c-.361,2.228-.617,4.35-.986,6.311-.54,2.874-1.223,3.7-2.6,6.124a17.683,17.683,0,0,1-2.215,3.08,5.949,5.949,0,0,0-.537.688c-.38.582-.246.873.36.455.679-.47,1.195-1.058,2.03-1.628-.007.01-1.539,1.662-2.345,2.75-.528.714-.419,1.372.173.782,1.085-1.078,1.792-1.517,3.036-2.674-.522.643-1.341,1.587-1.963,2.4-1.317,1.715-.8,2.12-.008,1.326,1.1-1.094,1.893-1.96,2.9-3.117-.282.575-.591,1.218-.836,1.672-1.129,2.092-.039,1.88.674.484.6-1.183,3.3-6.226,4.41-3.9a1.914,1.914,0,0,0,2.268,1.222,5.861,5.861,0,0,1-1.259-4.165,7.6,7.6,0,0,0-.23-1.5c-.647-2.912.276-5.019.831-7.861" transform="translate(0.554 3.458)" fill="#fca170" fill-rule="evenodd"/>
    <rect id="Rectángulo_364483" data-name="Rectángulo 364483" width="5.679" height="7.017" transform="translate(48.758 151.176) rotate(-11.714)" fill="#fca170"/>
    <path id="Trazado_774980" data-name="Trazado 774980" d="M48.915,156.136l5.594.037,8.2-.856c.728-1.658-.959-1.877-2.108-1.729q-3.756.487-5.531-2.3c-.426-.67-.857-1.381-1.231-1.158-1.362.808-5.523.721-6.208.5-.019-.006.016.036.023.055a20.457,20.457,0,0,1,.736,5.493l.7-.043Z" transform="translate(1.76 5.546)" fill="#0c1323" fill-rule="evenodd"/>
    <path id="Trazado_774981" data-name="Trazado 774981" d="M50.355,156.9l9.829-.58c.95-.054,2.052-.169,2.5-1.188l-14.319.862c.085,1.356.567.99,1.989.906" transform="translate(1.787 5.732)" fill="#7a6868" fill-rule="evenodd"/>
    <rect id="Rectángulo_364484" data-name="Rectángulo 364484" width="7.017" height="5.679" transform="translate(27.959 158.345) rotate(-82.266)" fill="#fca170"/>
    <path id="Trazado_774982" data-name="Trazado 774982" d="M32.661,157.171l-5.578.425-8.243-.284c-.842-1.6.826-1.939,1.983-1.871q3.78.224,5.358-2.679c.378-.7.758-1.437,1.147-1.241,1.414.711,5.56.335,6.228.07.019-.007-.012.037-.019.056a20.476,20.476,0,0,0-.354,5.531l-.7.006Z" transform="translate(0.688 5.598)" fill="#0c1323" fill-rule="evenodd"/>
    <path id="Trazado_774983" data-name="Trazado 774983" d="M31.255,158.017l-9.846.1c-.951.012-2.059-.026-2.577-1.011l14.344-.135c.008,1.359-.5,1.028-1.921,1.042" transform="translate(0.696 5.801)" fill="#7a6868" fill-rule="evenodd"/>
    <path id="Trazado_774984" data-name="Trazado 774984" d="M30.63,94.95c-1.3,18.9-3.539,38.09-3.893,56.96a62.155,62.155,0,0,0,6.941.2c2.058-13.648,5.031-27.645,7.274-41.3,2.615,13.741,5.272,30.1,6.708,39.936a54.827,54.827,0,0,0,7.512-.292c-2.633-16.163-3.6-40.158-4.668-56.861l-7.244.731.006-.067Z" transform="translate(0.988 3.458)" fill="#00223d"/>
    <path id="Trazado_774985" data-name="Trazado 774985" d="M43.549,66.76c-5.32.8-2.913,2.815-10.782.225,1.568-2.128,3.094-4.736-.1-10.171,3.456.458,5.779,4.257,6.266,2.8.567-1.694-.667-2.367-.924-3.636a1.618,1.618,0,0,1,.893-1.939c.835-.292,2.276.013,2.236,2.718-.033,2.217,1.269,2.1,1.236.005L42.3,54.629c.082-.03.161-.06.238-.091l-.665,7.784Z" transform="translate(1.207 1.994)" fill="#fca170" fill-rule="evenodd"/>
    <path id="Trazado_774986" data-name="Trazado 774986" d="M44.162,42.7q4.066,5.3,1.97,9.719a17.262,17.262,0,0,0,1.893,3.742,4.616,4.616,0,0,0-3.431,3.1c-.5,2.413.191,1.8-.7,2.507-2.611,2.064-6.583.675-9.81-1.821A21.59,21.59,0,0,1,29.7,55.144c.84-1.392,1.859-2.271,3.14-1.8.929.339,2.014,1.582,3.174,2.9-1.3-1.659-3.2-3.975-3.031-6.737,1.113-2.111,2.339-3.97,1-5.789q5.922,2.17,10.171-1.009" transform="translate(1.098 1.578)" fill="#fca170" fill-rule="evenodd"/>
    <path id="Trazado_774987" data-name="Trazado 774987" d="M35.215,53.181A11.324,11.324,0,0,0,36.762,56.4c1.341,1.948-.533,2.669-1.233.679-.448-1.274-2.21-4.079-3.785-3.127-.8.482-.616,2.238,1.07,4.652q.451.645,1.042,1.339c-6.066-3.245-9.088-16.5-2.047-19.815,7.985-4,12.474,3.307,15.273-2.985,1.181,2.926,1.1,6.3-1.53,7.744a18.3,18.3,0,0,1-6.469,2.046c-3.829.487-5.6.408-3.869,6.25" transform="translate(1.025 1.372)" fill="#08161c" fill-rule="evenodd"/>
    <path id="Trazado_774988" data-name="Trazado 774988" d="M42.083,52.391a.663.663,0,1,1-.62.7.664.664,0,0,1,.62-.7" transform="translate(1.532 1.936)" fill="#08161c" fill-rule="evenodd"/>
    <path id="Trazado_774989" data-name="Trazado 774989" d="M41.953,57.6a4.395,4.395,0,0,0,2.212,1.143,3.883,3.883,0,0,1,.518-1.142,3.763,3.763,0,0,1-2.666-.335l-.038-.022a3.683,3.683,0,0,1-.642-.474,3.637,3.637,0,0,0,.612.825l0,0" transform="translate(1.528 2.098)" fill="#08161c" fill-rule="evenodd"/>
    <path id="Trazado_774990" data-name="Trazado 774990" d="M39.9,52.8a7.151,7.151,0,0,1,3.793-1.7q-2.056-.966-3.793,1.7" transform="translate(1.474 1.879)" fill="#08161c" fill-rule="evenodd"/>
    <path id="Trazado_774991" data-name="Trazado 774991" d="M36.09,102.279l14.183-.914L49.5,94.117l-.13-.212.1-.2-.19-3.017c-.122-.123-.246-.251-.367-.39q.11-1.118.2-2.21L47.739,66.111a40.967,40.967,0,0,0-4.9-1.931c-.377-.089.2,1.825,0,1.92-1.029.495-1.056,1.059-2.753.862-.308.17-1.141-.142-2.061-.668-.873-.5-2.153.1-2.962-.371-.726-.425-1.015-1.966-1.263-1.851-.441.206-.875.408-1.308.608l.322-.022Z" transform="translate(1.201 2.367)" fill="#fff8ed"/>
    <path id="Trazado_774992" data-name="Trazado 774992" d="M27.5,102.55c1.941.136,1.574.088,2.928.171,2.745.169,3.683,1.262,7.88,1.4.248-1.925-1.069-3.611-.961-5.275a133.286,133.286,0,0,0-.243-18.958c-.49-5.505-.771-11.375-2.744-15.708C26.692,68.591,25.4,63.175,22.632,76.51c-2.045,9.848-2.795,22.057-3.894,25.969l6.231-.355c1.257-4.738,1.664-10.463,2.857-15.548,0,11.992-.077,6.767-.321,15.973" transform="translate(0.692 2.372)" fill="#00223d"/>
    <path id="Trazado_774993" data-name="Trazado 774993" d="M41.329,90.291,38.647,69.572l-1.218-1.332L36.973,65.7l2.634.7.472-.278c.534-.388.837-.6,1.347-.95l-.129.963.03,2.388-.6.762L44.8,89.928l-1.5,2.3Z" transform="translate(1.366 2.408)" fill="#e6b046" fill-rule="evenodd"/>
    <path id="Trazado_774994" data-name="Trazado 774994" d="M32.88,66.044a17,17,0,0,1,.9-1.971c1.029.722,3.9,1.51,4.884,2.075-.883,2.972-.46,1.484-.883,2.972a16.286,16.286,0,0,1-4.9-3.076m11.135-.01a16.831,16.831,0,0,0-1.143-1.843,32.085,32.085,0,0,1-2.641,1.969c.335.964.758,2.01,1.093,2.973a16.512,16.512,0,0,0,2.691-3.1" transform="translate(1.215 2.368)" fill="#dcdddd"/>
    <path id="Trazado_774995" data-name="Trazado 774995" d="M31.835,65.213s1.312-.7,1.988-1.14l.052.117.007,0c.122.27.242.546.356.829,2.688,6.625,2.473,15.967,2.566,21.97-3.665-6.773-5.168-10.254-4.969-21.772" transform="translate(1.176 2.368)" fill="#002c47"/>
    <path id="Trazado_774996" data-name="Trazado 774996" d="M68.429,70.075q1.434,2.524,2.452,4.3c1.487-2.035,2.815-4.017,4.175-5.782,1.992-2.587,3.09-3.066,5.688-4.779a19.71,19.71,0,0,1,3.762-1.945,6.418,6.418,0,0,0,.881-.413c.672-.387.687-.745-.128-.634-.913.123-1.723.448-2.843.592.011-.006,2.373-.875,3.724-1.551.888-.444,1.112-1.152.224-.866-1.625.525-2.551.6-4.375,1.126.844-.375,2.136-.9,3.167-1.394,2.179-1.041,1.872-1.7.68-1.316-1.646.534-2.878.993-4.466,1.633.572-.429,1.2-.913,1.678-1.239,2.182-1.511.99-1.852-.425-.823-1.2.871-6.438,4.524-6.365,1.654a2.136,2.136,0,0,0-1.639-2.362,6.547,6.547,0,0,1-.854,4.782,8.562,8.562,0,0,0-.532,1.611c-.827,3.225-2.813,4.856-4.8,7.4" transform="translate(2.529 2.08)" fill="#fca170" fill-rule="evenodd"/>
    <path id="Trazado_774997" data-name="Trazado 774997" d="M42.925,64.349C48.68,82.4,44.663,77.44,49.554,98.037l-14.348.9.261,4.151,16.04-1.008,2.529-.159c-1.148-7.175-2.935-15.216-3.42-21.968,5.237,3.072,8.1,4.449,10.909,3.672,3.087-.853,12.658-10.329,14.2-13.223a14.99,14.99,0,0,0-3.768-4.311c-4.967,4.507-9.234,11.476-15.26,6.583-3.485-2.831-5.957-6.564-10.356-7.654a19.049,19.049,0,0,0-3.414-.674" transform="translate(1.301 2.377)" fill="#00223d"/>
    <path id="Trazado_774998" data-name="Trazado 774998" d="M44.918,64.762c.026.043.053.085.08.128,4.484,7.125,3.217,14.42,2.153,22.743a81.3,81.3,0,0,0-4.5-23.279l-.184-.178Z" transform="translate(1.569 2.371)" fill="#002c47"/>
    <rect id="Rectángulo_364485" data-name="Rectángulo 364485" width="5.284" height="0.593" transform="translate(30.474 98.421) rotate(-3.6)" fill="#002c47"/>
    <path id="Trazado_774999" data-name="Trazado 774999" d="M77.762,15.133A19.789,19.789,0,1,1,57.974,34.921,19.789,19.789,0,0,1,77.762,15.133" transform="translate(2.142 0.559)" fill="#fec039" fill-rule="evenodd"/>
    <path id="Trazado_775000" data-name="Trazado 775000" d="M77.655,18.481a16.2,16.2,0,1,1-16.2,16.2,16.2,16.2,0,0,1,16.2-16.2" transform="translate(2.271 0.683)" fill="#f7951a" fill-rule="evenodd"/>
    <path id="Trazado_775001" data-name="Trazado 775001" d="M77.98,18.507a17.18,17.18,0,0,1,9.783,28.317A16.2,16.2,0,0,0,77.98,18.507" transform="translate(2.882 0.684)" fill="#cc7903" fill-rule="evenodd"/>
    <path id="Trazado_775002" data-name="Trazado 775002" d="M83.629,37.454c0-2.568-1.49-4.011-4.974-4.951v-3.46A9.47,9.47,0,0,1,81.5,30.394l1.536-2.682a9.619,9.619,0,0,0-4.264-1.7V24.64H76.386v1.33c-2.888.3-4.814,1.971-4.814,4.515,0,2.705,1.628,3.989,4.929,4.883v3.644a9.088,9.088,0,0,1-3.737-1.856l-1.788,2.613a11.518,11.518,0,0,0,5.41,2.178v2.314H78.77V41.992c2.911-.321,4.859-1.994,4.859-4.539M76.5,31.93c-1.261-.458-1.582-.939-1.582-1.651,0-.733.482-1.284,1.582-1.443Zm3.782,5.707c0,.825-.55,1.329-1.628,1.49V35.918c1.238.458,1.628.939,1.628,1.719" transform="translate(2.623 0.911)" fill="#feea65"/>
    <rect id="Rectángulo_364486" data-name="Rectángulo 364486" width="39.678" height="12.075" transform="translate(139.155 108.706)" fill="#fefefe"/>
    <path id="Trazado_775003" data-name="Trazado 775003" d="M178.218,122.161V103.91a3.982,3.982,0,0,0-3.971-3.97H134.122a3.982,3.982,0,0,0-3.972,3.97v19.176h48.068Zm-4.194-5.073H134.346V105.013h39.678Z" transform="translate(4.809 3.693)" fill="#5573c6" fill-rule="evenodd"/>
    <path id="Trazado_775004" data-name="Trazado 775004" d="M130.15,118.136v41.522a3.982,3.982,0,0,0,3.971,3.971h40.127a3.982,3.982,0,0,0,3.971-3.971V118.136Z" transform="translate(4.809 4.365)" fill="#373f51" fill-rule="evenodd"/>
    <path id="Trazado_775005" data-name="Trazado 775005" d="M145.194,123.111h6.279a.736.736,0,0,1,.734.735v4.278a.736.736,0,0,1-.734.734h-6.279a.737.737,0,0,1-.735-.734v-4.278a.737.737,0,0,1,.735-.735" transform="translate(5.338 4.549)" fill="#fefefe" fill-rule="evenodd"/>
    <path id="Trazado_775006" data-name="Trazado 775006" d="M155.458,123.111h6.279a.736.736,0,0,1,.734.735v4.278a.736.736,0,0,1-.734.734h-6.279a.737.737,0,0,1-.735-.734v-4.278a.737.737,0,0,1,.735-.735" transform="translate(5.717 4.549)" fill="#fefefe" fill-rule="evenodd"/>
    <path id="Trazado_775007" data-name="Trazado 775007" d="M165.722,123.111H172a.736.736,0,0,1,.734.735v4.278a.736.736,0,0,1-.734.734h-6.279a.737.737,0,0,1-.735-.734v-4.278a.737.737,0,0,1,.735-.735" transform="translate(6.097 4.549)" fill="#fefefe" fill-rule="evenodd"/>
    <path id="Trazado_775008" data-name="Trazado 775008" d="M134.93,123.111h6.279a.736.736,0,0,1,.734.735v4.278a.736.736,0,0,1-.734.734H134.93a.737.737,0,0,1-.735-.734v-4.278a.737.737,0,0,1,.735-.735" transform="translate(4.959 4.549)" fill="#fefefe" fill-rule="evenodd"/>
    <path id="Trazado_775009" data-name="Trazado 775009" d="M134.93,130.47h6.279a.737.737,0,0,1,.735.735v4.278a.737.737,0,0,1-.735.734H134.93a.737.737,0,0,1-.735-.734v-4.278a.737.737,0,0,1,.735-.735m31.93,0h6.279a.737.737,0,0,1,.734.735v4.278a.737.737,0,0,1-.734.734H166.86a.737.737,0,0,1-.735-.734v-4.278a.737.737,0,0,1,.735-.735m-10.643,0H162.5a.737.737,0,0,1,.734.735v4.278a.737.737,0,0,1-.734.734h-6.279a.737.737,0,0,1-.735-.734v-4.278a.737.737,0,0,1,.735-.735m-10.643,0h6.279a.736.736,0,0,1,.734.735v4.278a.736.736,0,0,1-.734.734h-6.279a.737.737,0,0,1-.735-.734v-4.278a.737.737,0,0,1,.735-.735" transform="translate(4.959 4.821)" fill="#fefefe" fill-rule="evenodd"/>
    <path id="Trazado_775010" data-name="Trazado 775010" d="M134.93,137.829h6.279a.737.737,0,0,1,.735.735v4.278a.737.737,0,0,1-.735.734H134.93a.737.737,0,0,1-.735-.734v-4.278a.737.737,0,0,1,.735-.735m31.93,0h6.279a.737.737,0,0,1,.734.735v4.278a.737.737,0,0,1-.734.734H166.86a.737.737,0,0,1-.735-.734v-4.278a.737.737,0,0,1,.735-.735m-10.643,0H162.5a.737.737,0,0,1,.734.735v4.278a.737.737,0,0,1-.734.734h-6.279a.737.737,0,0,1-.735-.734v-4.278a.737.737,0,0,1,.735-.735m-10.643,0h6.279a.736.736,0,0,1,.734.735v4.278a.736.736,0,0,1-.734.734h-6.279a.737.737,0,0,1-.735-.734v-4.278a.737.737,0,0,1,.735-.735" transform="translate(4.959 5.093)" fill="#fefefe" fill-rule="evenodd"/>
    <path id="Trazado_775011" data-name="Trazado 775011" d="M134.93,145.188h6.279a.737.737,0,0,1,.735.735V150.2a.737.737,0,0,1-.735.734H134.93a.737.737,0,0,1-.735-.734v-4.278a.737.737,0,0,1,.735-.735m31.93,0h6.279a.737.737,0,0,1,.734.735V150.2a.737.737,0,0,1-.734.734H166.86a.737.737,0,0,1-.735-.734v-4.278a.737.737,0,0,1,.735-.735m-10.643,0H162.5a.737.737,0,0,1,.734.735V150.2a.737.737,0,0,1-.734.734h-6.279a.737.737,0,0,1-.735-.734v-4.278a.737.737,0,0,1,.735-.735m-10.643,0h6.279a.736.736,0,0,1,.734.735V150.2a.736.736,0,0,1-.734.734h-6.279a.737.737,0,0,1-.735-.734v-4.278a.737.737,0,0,1,.735-.735" transform="translate(4.959 5.365)" fill="#fefefe" fill-rule="evenodd"/>
    <path id="Trazado_775012" data-name="Trazado 775012" d="M134.93,152.547h6.279a.737.737,0,0,1,.735.735v4.278a.737.737,0,0,1-.735.734H134.93a.737.737,0,0,1-.735-.734v-4.278a.737.737,0,0,1,.735-.735m31.93,0h6.279a.737.737,0,0,1,.734.735v4.278a.737.737,0,0,1-.734.734H166.86a.737.737,0,0,1-.735-.734v-4.278a.737.737,0,0,1,.735-.735m-10.643,0H162.5a.737.737,0,0,1,.734.735v4.278a.737.737,0,0,1-.734.734h-6.279a.737.737,0,0,1-.735-.734v-4.278a.737.737,0,0,1,.735-.735m-10.643,0h6.279a.736.736,0,0,1,.734.735v4.278a.736.736,0,0,1-.734.734h-6.279a.737.737,0,0,1-.735-.734v-4.278a.737.737,0,0,1,.735-.735" transform="translate(4.959 5.637)" fill="#fefefe" fill-rule="evenodd"/>
    <path id="Trazado_775013" data-name="Trazado 775013" d="M155.458,137.829H172.38a.736.736,0,0,1,.734.735V158.1a.736.736,0,0,1-.734.734H155.458a.737.737,0,0,1-.735-.734v-19.54a.737.737,0,0,1,.735-.735" transform="translate(5.717 5.093)" fill="#fefefe" fill-rule="evenodd"/>
  </g>
</svg>
