<svg xmlns="http://www.w3.org/2000/svg" xmlns:xlink="http://www.w3.org/1999/xlink" width="1241.809" height="454.172" viewBox="0 0 1241.809 454.172">
  <defs>
    <clipPath id="clip-path">
      <path id="Rectangle_652" data-name="Rectangle 652" d="M19.556,453.355h1202.7c10.8,0,19.556-7.518,19.556-16.791V16.791c0-9.273-8.756-16.791-19.556-16.791H19.556C8.756,0,0,7.518,0,16.791V436.565C0,445.838,8.756,453.355,19.556,453.355Z" fill="none" opacity="0.238"/>
    </clipPath>
    <clipPath id="clip-path-2">
      <rect id="Rect치ngulo_34915" data-name="Rect치ngulo 34915" width="129.188" height="59" transform="translate(0)" fill="#5573c6" stroke="#707070" stroke-width="1"/>
    </clipPath>
    <linearGradient id="linear-gradient" x1="-6.465" y1="0.5" x2="-5.465" y2="0.5" gradientUnits="objectBoundingBox">
      <stop offset="0" stop-color="#09005d"/>
      <stop offset="1" stop-color="#1a0f91"/>
    </linearGradient>
    <linearGradient id="linear-gradient-2" x1="-1.963" y1="0.5" x2="-0.963" y2="0.5" xlink:href="#linear-gradient"/>
    <linearGradient id="linear-gradient-3" x1="-1.887" y1="0.5" x2="-0.887" y2="0.5" xlink:href="#linear-gradient"/>
    <linearGradient id="linear-gradient-4" x1="-0.538" y1="0.5" x2="0.462" y2="0.5" xlink:href="#linear-gradient"/>
    <linearGradient id="linear-gradient-5" x1="0.635" y1="0.5" x2="1.635" y2="0.5" xlink:href="#linear-gradient"/>
    <linearGradient id="linear-gradient-6" x1="-0.157" y1="0.5" x2="0.843" y2="0.5" xlink:href="#linear-gradient"/>
    <linearGradient id="linear-gradient-7" x1="-2.783" y1="0.5" x2="-1.783" y2="0.5" xlink:href="#linear-gradient"/>
    <linearGradient id="linear-gradient-8" x1="-10.081" y1="0.5" x2="-9.081" y2="0.5" xlink:href="#linear-gradient"/>
    <linearGradient id="linear-gradient-9" x1="-88.925" y1="194.877" x2="-87.925" y2="194.877" xlink:href="#linear-gradient"/>
    <linearGradient id="linear-gradient-10" x1="-96.951" y1="204.32" x2="-95.951" y2="204.32" xlink:href="#linear-gradient"/>
    <linearGradient id="linear-gradient-11" x1="-94.508" y1="222.19" x2="-93.508" y2="222.19" xlink:href="#linear-gradient"/>
    <linearGradient id="linear-gradient-12" x1="-67.143" y1="0.5" x2="-66.147" y2="0.5" xlink:href="#linear-gradient"/>
    <linearGradient id="linear-gradient-13" x1="-28.251" y1="0.5" x2="-27.255" y2="0.5" xlink:href="#linear-gradient"/>
    <linearGradient id="linear-gradient-14" x1="-12.592" y1="0.5" x2="-11.597" y2="0.5" xlink:href="#linear-gradient"/>
    <linearGradient id="linear-gradient-15" x1="21.368" y1="0.5" x2="22.364" y2="0.5" xlink:href="#linear-gradient"/>
    <linearGradient id="linear-gradient-16" x1="-39.076" y1="0.5" x2="-38.076" y2="0.5" xlink:href="#linear-gradient"/>
    <linearGradient id="linear-gradient-17" x1="-27.882" y1="0.5" x2="-26.882" y2="0.5" xlink:href="#linear-gradient"/>
    <linearGradient id="linear-gradient-18" x1="-15.648" y1="0.499" x2="-14.648" y2="0.499" xlink:href="#linear-gradient"/>
    <linearGradient id="linear-gradient-19" x1="4.698" y1="0.499" x2="5.698" y2="0.499" xlink:href="#linear-gradient"/>
  </defs>
  <g id="Grupo_1026106" data-name="Grupo 1026106" transform="translate(-180 -3267.734)">
    <path id="Trazado_730055" data-name="Trazado 730055" d="M1218.775,0H23.034C10.313,0,0,9,0,20.093V433.307C0,444.4,10.313,453.4,23.034,453.4H1218.775c12.721,0,23.034-9,23.034-20.093V20.093C1241.809,9,1231.5,0,1218.775,0Z" transform="translate(180 3267.733)" fill="#f6f6f6"/>
    <g id="Grupo_80238" data-name="Grupo 80238" transform="translate(180 3268.551)" clip-path="url(#clip-path)">
      <path id="Trazado_151747" data-name="Trazado 151747" d="M1582.972,0l-123.66,352.644,33.929,161.546L1249.566,648.7c-3.2-3.548-6.152-7.362-9.64-10.6-26.125-24.255-50.634-50.657-78.911-72.1-56.068-42.5-118.263-49.793-183.645-22.338Q943.239,558,910,574.424c-41.007,20.324-83.582,32.41-129.887,29.733-28.983-1.675-54.571-10.637-76.872-29.458-33.377-28.171-56.609-64.676-82.9-98.724-13.931-18.042-28.154-36-43.768-52.575-32.111-34.079-71.134-49.671-119.065-45.4-51.56,4.6-94.639,21.968-125.784,65.345-25.989,36.2-52.322,72.317-80.975,106.4C204.371,604.908,143.834,623.49,73.84,609.3,48.783,604.219,24.61,594.825.031,587.4L154.677,164.07Z" transform="matrix(-0.454, 0.891, -0.891, -0.454, 1744.927, -164.557)" fill="#727997" opacity="0.166"/>
      <path id="Trazado_151748" data-name="Trazado 151748" d="M986.751,112.533S900.031,113.57,753.6,199.794s-163.989-67-252.809-65.985S388.909,200.423,292.62,182.916,171.984,92.489,57.537,125.2,34.778,20.841,34.778,20.841L973.824,0Z" transform="matrix(-0.995, -0.105, 0.105, -0.995, 667.578, 677.517)" fill="none" stroke="#12263f" stroke-width="3" stroke-dasharray="11" opacity="0.142"/>
      <g id="Grupo_80237" data-name="Grupo 80237" transform="translate(1096.597 0)" clip-path="url(#clip-path-2)">
        <g id="Grupo_80236" data-name="Grupo 80236" transform="translate(1.002 -68)">
          <path id="Sustracci칩n_11" data-name="Sustracci칩n 11" d="M62.591,125a63.142,63.142,0,0,1-12.614-1.27,62.3,62.3,0,0,1-22.381-9.4,62.694,62.694,0,0,1-22.677-27.5A62.121,62.121,0,0,1,1.272,75.1a63.02,63.02,0,0,1,0-25.192A62.11,62.11,0,0,1,10.69,27.556,62.65,62.65,0,0,1,120.264,38.172,62.121,62.121,0,0,1,123.911,49.9a63.02,63.02,0,0,1,0,25.192,62.109,62.109,0,0,1-9.418,22.348A62.508,62.508,0,0,1,62.591,125Zm-.233-95.339a32.941,32.941,0,0,0-6.581.662A32.5,32.5,0,0,0,44.1,35.23,32.708,32.708,0,0,0,32.271,49.575a32.406,32.406,0,0,0-1.9,6.121,32.877,32.877,0,0,0,0,13.143A32.4,32.4,0,0,0,35.281,80.5a32.684,32.684,0,0,0,57.164-5.539,32.406,32.406,0,0,0,1.9-6.121,32.877,32.877,0,0,0,0-13.143,32.4,32.4,0,0,0-4.913-11.659A32.742,32.742,0,0,0,75.068,32.223a32.522,32.522,0,0,0-6.129-1.9A32.94,32.94,0,0,0,62.358,29.661Z" transform="translate(125.182 125) rotate(180)" fill="#5573c6"/>
        </g>
      </g>
      <path id="Trazado_151751" data-name="Trazado 151751" d="M1371.926,0l-107.2,305.9,29.393,140.127L1082.933,562.721c-2.771-3.078-5.331-6.385-8.354-9.194C1051.939,532.489,1030.7,509.59,1006.2,491c-48.588-36.861-102.488-43.183-159.153-19.363q-29.581,12.435-58.387,26.688c-35.539,17.632-72.438,28.119-112.569,25.8-25.118-1.451-47.293-9.223-66.619-25.547-28.924-24.434-49.055-56.1-71.837-85.63-12.072-15.649-24.4-31.229-37.928-45.6-27.826-29.558-61.644-43.081-103.184-39.371-44.684,3.992-82.02,19.062-109.015,56.691-22.526,31.4-45.35,62.733-70.185,92.3C177.121,524.813,124.655,540.936,64,528.63c-21.715-4.4-42.664-12.55-63.964-18.988L134.085,142.422Z" transform="matrix(-0.891, -0.454, 0.454, -0.891, 768.154, 945.476)" fill="none" stroke="#fff" stroke-width="1" opacity="0.81"/>
      <g id="Grupo_1020679" data-name="Grupo 1020679" transform="translate(315 -68.872)" opacity="0.1">
        <path id="Trazado_117938" data-name="Trazado 117938" d="M1183.119,84.967a.375.375,0,0,1-.105,0,.117.117,0,0,1-.082-.07.247.247,0,0,1,0-.07.2.2,0,0,1,0-.141c-.07-.949.386-5.3,3.327-26.71,1.945-14.128,4.686-33.786,8.271-58.446,6.021-41.975,12.242-84.442,12.3-84.875a.27.27,0,0,1,.176-.2.3.3,0,0,1,.281,0l107.919,70a.234.234,0,0,1,.117.187.293.293,0,0,1-.094.2l-131.4,99.695L1397.176,106.3v.492l-212.99-21.72c2.027,1.371,7.708,5.775,24.461,19.154,14.058,11.2,33.974,27.237,59.29,47.7,46.485,37.547,101.042,81.841,129.416,104.9l-.387.363C1265.862,150.688,1186.036,86.4,1183.119,84.967ZM1207.287-84.9c-8.2,56.232-23.43,161.07-23.875,169.071l131.114-99.519Z" transform="translate(-201.582 189.012)" fill="url(#linear-gradient)"/>
        <path id="Trazado_117939" data-name="Trazado 117939" d="M1072.468,150.788a.2.2,0,0,1-.129-.187L1061.163-43.576,889.691,19.006a.363.363,0,0,1-.223,0,.246.246,0,0,1-.152-.129L845.443-70.157a.235.235,0,0,1,0-.2.234.234,0,0,1,.153-.128L968.31-115.658l33.681-58.212.516.223-33.728,58.294a.234.234,0,0,1-.141.117L846.1-70.075l43.627,88.53,171.59-62.628a.34.34,0,0,1,.316,0l179.6,143.849a.234.234,0,0,1-.105.41l-168.4,50.738h-.105a.258.258,0,0,1-.153-.035ZM1061.749-43.353l11.141,193.59L1240.5,99.757Z" transform="translate(-259.463 173.87)" fill="url(#linear-gradient-2)"/>
        <path id="Trazado_117940" data-name="Trazado 117940" d="M1123.861,228.632h0L851.03,156.421a.246.246,0,0,1-.2-.293L888.366-9.428a.258.258,0,0,1,.187-.187.34.34,0,0,1,.281,0L1071.881,122.2a.164.164,0,0,1,.082.094l52.026,105.564,115.885-156.3a.3.3,0,0,1,.281-.117.281.281,0,0,1,.234.187l54.486,188.049-.562.117L1239.968,72.307,1124.353,228.269l97.024,31.244-.2.457ZM888.834-8.889,851.346,156.046l272.046,71.989L1071.413,122.6Z" transform="translate(-258.536 202.034)" fill="url(#linear-gradient-3)"/>
        <path id="Trazado_117941" data-name="Trazado 117941" d="M780.9,49.783,622.685,26.142a.293.293,0,0,1-.211-.129.223.223,0,0,1,0-.223l77.261-135.449a.293.293,0,0,1,.176-.129.363.363,0,0,1,.223,0L927.966,7.573a.27.27,0,0,1,.141.246.281.281,0,0,1-.2.211L781.037,49.771H780.9ZM700.063-109.19l-76.9,134.9L780.92,49.291l146.2-41.565Z" transform="translate(-297.704 184.857)" fill="url(#linear-gradient-4)"/>
        <path id="Trazado_117942" data-name="Trazado 117942" d="M597.147,206.953,345.884,175.744v-.129l-.223.094a.316.316,0,0,1-.3,0,.234.234,0,0,1-.105-.258l93.556-334.323a.3.3,0,0,1,.34-.187L747.685-101.4a.316.316,0,0,1,.211.141l81.044,159-.527.2L747.427-100.941l-308.1-57.579-93.345,333.55L670.155,34.121a.3.3,0,0,1,.316,0,.211.211,0,0,1,.082.269l-73.1,172.375a.293.293,0,0,1-.269.164ZM346.563,175.322l250.432,31.1L669.757,34.848Z" transform="translate(-345.244 176.409)" fill="url(#linear-gradient-5)"/>
        <path id="Trazado_117943" data-name="Trazado 117943" d="M660.115,236.024l.387-.363-99.578-78.608,339.325-24.812-110.2,103.092.422.34L901.175,132.112a.234.234,0,0,0,0-.281.316.316,0,0,0-.281-.141L560.21,156.655a.281.281,0,0,0-.258.164.223.223,0,0,0,.082.258Z" transform="translate(-308.424 226.274)" fill="url(#linear-gradient-6)"/>
        <path id="Trazado_117944" data-name="Trazado 117944" d="M901.408,240.543l.527-.2L851.443,137.076l220.242-33.7-.105-.492L851.033,136.643a.317.317,0,0,0-.2.117.246.246,0,0,0,0,.223Z" transform="translate(-258.54 221.333)" fill="url(#linear-gradient-7)"/>
        <path id="Trazado_117945" data-name="Trazado 117945" d="M1011.843,225.156l84.641-31.349-.234-.457L1011.62,224.7Z" transform="translate(-230.96 236.848)" fill="url(#linear-gradient-8)"/>
        <g id="Grupo_54547" data-name="Grupo 54547" transform="translate(694.051 321.589)">
          <ellipse id="Elipse_4152" data-name="Elipse 4152" cx="21.919" cy="18.861" rx="21.919" ry="18.861" transform="translate(0 0)" opacity="0.51" fill="url(#linear-gradient-9)"/>
        </g>
        <g id="Grupo_54548" data-name="Grupo 54548" transform="translate(1077.061 348.392)">
          <ellipse id="Elipse_4153" data-name="Elipse 4153" cx="21.919" cy="18.861" rx="21.919" ry="18.861" transform="translate(0 0)" opacity="0.31" fill="url(#linear-gradient-10)"/>
        </g>
        <g id="Grupo_54549" data-name="Grupo 54549" transform="translate(227.934 367.254)">
          <ellipse id="Elipse_4154" data-name="Elipse 4154" cx="17.877" cy="15.382" rx="17.877" ry="15.382" opacity="0.55" fill="url(#linear-gradient-11)"/>
        </g>
        <path id="Trazado_117946" data-name="Trazado 117946" d="M1084.949,200.256c3.854,0,6.97-2.683,6.97-6s-3.116-6-6.97-6-7.029,2.683-7.029,6S1081.106,200.256,1084.949,200.256Z" transform="translate(-219.59 235.975)" fill="url(#linear-gradient-12)"/>
        <path id="Trazado_117947" data-name="Trazado 117947" d="M852.54,138.826c3.854,0,7.029-2.683,7.029-6s-3.116-6-7.029-6-6.97,2.683-6.97,6S848.686,138.826,852.54,138.826Z" transform="translate(-259.438 225.44)" fill="url(#linear-gradient-13)"/>
        <path id="Trazado_117948" data-name="Trazado 117948" d="M759.029,32.916c3.854,0,6.97-2.683,6.97-6s-3.116-6-6.97-6S752,23.6,752,26.918,755.14,32.916,759.029,32.916Z" transform="translate(-275.485 207.277)" fill="url(#linear-gradient-14)"/>
        <path id="Trazado_117949" data-name="Trazado 117949" d="M556.1,160.006c3.843,0,6.97-2.683,6.97-6s-3.128-6-6.97-6-7.029,2.683-7.029,6S552.245,160.006,556.1,160.006Z" transform="translate(-310.288 229.073)" fill="url(#linear-gradient-15)"/>
        <path id="Trazado_117950" data-name="Trazado 117950" d="M1185.085,74.713c8.282,0,15-5.775,15-12.887s-6.713-12.887-15-12.887-15,5.775-15,12.887S1176.8,74.713,1185.085,74.713Z" transform="translate(-203.783 212.082)" fill="url(#linear-gradient-16)"/>
        <ellipse id="Elipse_4155" data-name="Elipse 4155" cx="14.995" cy="12.898" rx="14.995" ry="12.898" transform="translate(798.455 311.619)" fill="url(#linear-gradient-17)"/>
        <path id="Trazado_117951" data-name="Trazado 117951" d="M885.2,5.243c8.282,0,15-5.775,15-12.887s-6.713-12.887-15-12.887-15,5.775-15,12.887S876.995,5.243,885.2,5.243Z" transform="translate(-255.214 200.168)" fill="url(#linear-gradient-18)"/>
        <path id="Trazado_117952" data-name="Trazado 117952" d="M624.755,21.343c8.283,0,15.007-5.787,15.007-12.887S633.038-4.43,624.755-4.43s-15,5.775-15,12.887S616.473,21.343,624.755,21.343Z" transform="translate(-299.879 202.929)" fill="url(#linear-gradient-19)"/>
      </g>
    </g>
  </g>
</svg>
